<svg xmlns="http://www.w3.org/2000/svg" viewBox="0 0 14 14" class="design-iconfont">
  <path d="M13.7878742,11.2131318 L10.553644,7.97890163 C11.663749,7.78813597 12.6385937,7.13010712 13.2306623,6.17189035 C13.8227309,5.21367359 13.9750761,4.04743392 13.649017,2.96928269 L13.3988722,2.14118259 L12.8173866,2.78167414 C12.8062915,2.79377791 12.794692,2.80588169 12.7829245,2.81764925 L12.1032638,3.49680565 C11.6607717,3.93929773 10.9433502,3.93929772 10.5008581,3.49680563 C10.058366,3.05431354 10.058366,2.33689212 10.5008581,1.89440002 L11.1811913,1.21389876 C11.1929588,1.2021312 11.2050626,1.19069985 11.2171664,1.18027715 L11.8576579,0.598791519 L11.0298941,0.34847868 C9.83984305,-0.0121583638 8.54931054,0.212049569 7.55063126,0.952941031 C6.55195198,1.69383249 5.96310972,2.86387871 5.96311838,4.10737397 C5.96329608,4.2784377 5.97452668,4.44931122 5.99673999,4.61892667 L5.64741152,4.95329352 L3.15436961,2.46025161 C3.41952399,1.96792344 3.3307271,1.36000628 2.93582919,0.964090243 L2.17379554,0.202224704 C1.90346246,-0.0674082345 1.46590807,-0.0674082345 1.19557498,0.202224704 L0.202224704,1.19557498 C-0.0674082345,1.46590807 -0.0674082345,1.90346246 0.202224704,2.17379554 L0.964258351,2.93566108 C1.36014837,3.3306109 1.96810163,3.41941306 2.46041971,3.15420151 L4.9383319,5.6321137 L0.96257727,9.43841545 C0.214013184,10.1574915 -0.022534241,11.2592724 0.364902022,12.2222427 C0.752338286,13.185213 1.68602535,13.8161681 2.72401309,13.8164526 L2.75023794,13.8164526 C3.4344346,13.8117801 4.08743912,13.5296244 4.55975265,13.0345822 L7.44616732,10.0199011 L11.2138042,13.7872018 C11.4971169,14.0700362 11.9559504,14.0700362 12.2392631,13.7872018 L13.7878742,12.2385907 C14.0707086,11.955278 14.0707086,11.4964445 13.7878742,11.2131318 L13.7878742,11.2131318 Z M2.24288794,2.06032263 L2.06099506,2.24221551 C1.94865648,2.35136829 1.7698744,2.35136829 1.65753582,2.24221551 L1.09891287,1.68460121 L1.68476932,1.09891287 L2.24288794,1.65703149 C2.35193187,1.76934898 2.35193187,1.94800515 2.24288794,2.06032263 Z M7.8062547,2.02350697 C8.34865018,1.48013078 9.08191988,1.17023309 9.84960766,1.15993608 L9.80791687,1.20145876 C8.99570448,2.02878151 9.00183924,3.35605089 9.82166468,4.17583021 C10.6414901,4.99560953 11.9687598,5.00166961 12.7960369,4.18941068 L12.8377277,4.147888 C12.8155596,5.75959579 11.5021497,7.05420308 9.8902898,7.05313144 C9.79850282,7.05313144 9.70677188,7.04887204 9.61509697,7.04035456 L9.42379005,6.84887953 L9.28257931,6.99009027 C8.72310947,6.87344318 8.20995012,6.59576916 7.8062547,6.19124096 C6.65706828,5.04222266 6.65706828,3.17252528 7.8062547,2.02350697 L7.8062547,2.02350697 Z M3.85252221,12.3562663 C3.562203,12.6603815 3.16091978,12.8336946 2.74048767,12.836551 L2.72367687,12.836551 C2.08553637,12.8367207 1.51134267,12.4490338 1.27299849,11.8570748 C1.03465431,11.2651159 1.18000471,10.5877144 1.64022069,10.1456459 L6.29345064,5.69078339 C6.69187866,6.58811281 7.40968966,7.30526472 8.3073847,7.70286826 L3.85252221,12.3562663 Z M11.7265337,12.9142168 L8.12414696,9.311662 L9.28661391,8.09758589 L12.9148893,11.7258613 L11.7265337,12.9142168 Z" fill="#4BFBFE" fill-rule="nonzero"/>
</svg>
