<svg xmlns="http://www.w3.org/2000/svg" viewBox="0 0 14 14" class="design-iconfont">
  <path
    d="M3.80950948,1 L6.871,4.061 L9.41408366,1.51640085 C9.54983379,1.37855588 9.73521228,1.30093683 9.9286789,1.30093683 C10.1221455,1.30093683 10.307524,1.37855588 10.4432741,1.51640085 L12.4872104,3.56033706 C12.6250553,3.6960872 12.7026744,3.88146568 12.7026744,4.0749323 C12.7026744,4.26839893 12.6250553,4.45377741 12.4872104,4.58952755 L9.941,7.131 L13,10.1904905 L10.1904905,13 L7.129,9.939 L4.22840807,12.8374963 L2.0219681,12.6244358 C1.6828218,12.5887921 1.41481911,12.3207894 1.37917544,11.9816431 L1.16611495,9.77159195 L4.062,6.872 L1,3.80950949 L3.80950948,1 Z M8.662,3.296 L1.91724344,10.0424316 L2.09780319,11.9094192 L3.96117965,12.0827566 L10.703,5.336 L8.662,3.296 Z M9.43,7.642 L7.641,9.429 L8.144,9.932 L8.91573879,9.16671684 L9.42672284,9.67733977 L8.655,10.443 L9.167,10.955 L10.4476076,9.68131209 L10.9582305,10.1922961 L9.678,11.466 L10.1904905,11.9780319 L11.9780319,10.1904905 L9.43,7.642 Z M3.80950948,2.02196811 L2.0219681,3.80950949 L4.573,6.361 L6.36,4.572 L3.80950948,2.02196811 Z M4.0640987,4.82894976 L4.57472163,5.33957269 L4.0640987,5.85019561 L3.55347578,5.33957269 L4.0640987,4.82894976 Z M3.81023172,3.04285285 L4.32085465,3.55347578 L3.04393619,4.83039423 L2.53331327,4.31977131 L3.81023172,3.04285285 Z M9.9377069,2.02196811 L9.173,2.785 L11.213,4.826 L11.9708095,4.06951551 L9.9377069,2.02196811 Z"
    fill="#4BFBFE" fill-rule="nonzero" />
</svg>