<?xml version="1.0" encoding="UTF-8"?>
<svg xmlns:xlink="http://www.w3.org/1999/xlink" width="320px" height="254px" viewBox="0 0 320 254" version="1.1"
     xmlns="http://www.w3.org/2000/svg" preserveAspectRatio="none meet">
  <title>bg-lg</title>
  <g id="Page-1" stroke="none" stroke-width="1" fill="none" fill-rule="evenodd">
    <g id="bg-lg" transform="translate(0.574983, 1.000000)">
      <polygon id="Path" stroke="#033287" fill-opacity="0.8019311" fill="#010E37" fill-rule="nonzero"
               points="96.186832 0.5 103.311474 6.76315789 318.5 6.76315789 318.5 246.039097 311.574219 251.980785 0.14992861 251.980785 0.14992861 6.50007622 7.48231697 0.5"></polygon>
      <polyline id="Path" stroke="#1C92FF" stroke-linecap="round" stroke-linejoin="round"
                points="0 6 7.33678987 0 95.9188712 0 103 6"></polyline>
      <path
        d="M117.962487,1 L122.512479,3 L114.549992,3 L110,1 L117.962487,1 Z M128.598094,1 L133.148087,3 L125.1856,3 L120.635607,1 L128.598094,1 Z M139.859325,1 L144.409318,3 L136.446831,3 L131.896839,1 L139.859325,1 Z M151.120557,1 L155.670549,3 L147.708062,3 L143.15807,1 L151.120557,1 Z M161.756164,1 L166.306156,3 L158.34367,3 L153.793677,1 L161.756164,1 Z M173.643019,1 L178.193012,3 L170.230525,3 L165.680532,1 L173.643019,1 Z M184.90425,1 L189.454243,3 L181.491756,3 L176.941764,1 L184.90425,1 Z"
        id="Shape" fill="#1C92FF" fill-rule="nonzero"></path>
      <path
        d="M119.715462,51 L123.838583,53 L116.623121,53 L112.5,51 L119.715462,51 Z M129.353257,51 L133.476378,53 L126.260916,53 L122.137795,51 L129.353257,51 Z M139.557981,51 L143.681102,53 L136.465641,53 L132.34252,51 L139.557981,51 Z M149.762706,51 L153.885827,53 L146.670365,53 L142.547244,51 L149.762706,51 Z M159.400501,51 L163.523622,53 L156.30816,53 L152.185039,51 L159.400501,51 Z M170.172155,51 L174.295276,53 L167.079814,53 L162.956693,51 L170.172155,51 Z M180.376879,51 L184.5,53 L177.284538,53 L173.161417,51 L180.376879,51 Z"
        id="Shape" fill="#074A9D" fill-rule="nonzero"></path>
      <polygon id="Path" fill="#074A9D" fill-rule="nonzero" points="187.5 51 286.5 51 286.5 52 191.17025 52"></polygon>
      <polygon id="Path" fill="#1C92FF" fill-rule="nonzero"
               points="195.180186 1 319 1 319 2.33333333 199.236651 2.33333333"></polygon>
      <path
        d="M-25,223 L-16.220339,223 L-17.4745763,226 L-25,226 L-25,223 Z M-13.6440678,223 L-11.1355932,223 L-12.3898305,226 L-14.8983051,226 L-13.6440678,223 Z M-8.62711864,223 L-6.11864407,223 L-7.37288136,226 L-9.88135593,226 L-8.62711864,223 Z M-3.61016949,223 L-1.10169492,223 L-2.3559322,226 L-4.86440678,226 L-3.61016949,223 Z M1.40677966,223 L3.91525424,223 L2.66101695,226 L0.15254237,226 L1.40677966,223 Z M6.42372881,223 L8.93220339,223 L7.6779661,226 L5.16949153,226 L6.42372881,223 Z M11.440678,223 L29,223 L27.7457627,226 L10.1864407,226 L11.440678,223 Z"
        id="Shape" fill="#1C92FF" fill-rule="nonzero"
        transform="translate(2.000000, 224.500000) rotate(-90.000000) translate(-2.000000, -224.500000) "></path>
      <polygon id="Path" fill="#1C92FF" fill-rule="nonzero"
               points="235.963394 251.5 278.709157 251.5 277.709157 252.5 234.963394 252.5"></polygon>
    </g>
  </g>
</svg>
