<?xml version="1.0" encoding="UTF-8"?>
<svg xmlns="http://www.w3.org/2000/svg" xmlns:xlink="http://www.w3.org/1999/xlink" width="22px" height="22px" viewBox="0 0 22 22" version="1.1">
  <title>能力数</title>
  <g id="模版" stroke="none" stroke-width="1" fill="none" fill-rule="evenodd">
    <g id="资源可视化" transform="translate(-1449.000000, -164.000000)">
      <g id="编组-15" transform="translate(1441.000000, 80.000000)">
        <g id="能力数" transform="translate(9.000000, 85.000000)">
          <rect id="矩形" fill="#27D7C4" opacity="0.300002325" x="0" y="0" width="20" height="20"></rect>
          <g id="通用能力" transform="translate(3.000000, 3.000000)" fill-rule="nonzero">
            <rect id="矩形" fill="#000000" opacity="0" x="2.52652146e-05" y="0" width="13.9999366" height="13.9999366"></rect>
            <path d="M7.00002246,0.499997742 C7.70769226,0.50264404 8.38530457,0.786446189 8.88364508,1.28891296 C9.38198558,1.79137973 9.66019067,2.47130917 9.65700154,3.17898561 L9.65700154,3.1589857 L9.73100122,3.20198551 C11.3543322,4.14783142 12.3846038,5.85490182 12.4649888,7.73196499 L12.4679888,7.80896464 C13.4058085,8.25326506 14.0026765,9.19921507 13.999991,10.2369537 C13.999991,11.716947 12.8099873,12.9149415 11.3429939,12.9149415 C10.8069963,12.9149415 10.3069986,12.7549423 9.8890005,12.4789435 L10.0389998,12.5709431 C9.14192529,13.1780187 8.0831943,13.5016649 7.00002246,13.4999458 C5.94262753,13.5016257 4.90795229,13.1932396 4.02402705,12.6129429 L3.96202733,12.5699431 C3.57602908,12.7899421 3.1300311,12.9149415 2.65603324,12.9149415 C1.94870219,12.9120302 1.2714988,12.6282488 0.773403134,12.1260273 C0.275307471,11.6238059 -0.00287812349,10.9442847 2.2457134e-05,10.2369537 C2.2457134e-05,9.0999588 0.702042093,8.1289632 1.6930376,7.73996496 L1.53203833,7.80896464 L1.53503832,7.73296499 C1.61560726,5.85595728 2.64582976,4.14896829 4.26902594,3.20298549 L4.3430256,3.16098568 C4.34631498,1.69428719 5.53332169,0.505493495 7.00002246,0.499997742 Z M9.45500246,4.20598096 L9.45000249,4.21598092 C9.03953543,5.2075799 8.07320702,5.85521714 7.00001358,5.85797348 C5.86348789,5.85533868 4.85418924,5.13090975 4.48802495,4.05498165 L4.5450247,4.20698096 L4.37402546,4.32698041 C3.32759195,5.09212443 2.65947719,6.26924433 2.53903377,7.55996578 L2.65703323,7.55696578 C3.36453829,7.55987671 4.04189378,7.84379551 4.5400182,8.34623351 C5.03814263,8.84867151 5.31621061,9.52844981 5.31302122,10.2359537 C5.31302122,10.9159506 5.06202235,11.5379478 4.64702423,12.0109456 L4.74902376,11.8859462 L4.95902281,12.0029457 C5.58955656,12.3301455 6.28963895,12.5006213 7.00001358,12.4999454 C7.80100996,12.4999454 8.57300645,12.2859444 9.25100338,11.8869462 C8.88412007,11.4149262 8.68559634,10.8337867 8.68700594,10.2359537 C8.68397523,9.50830934 8.97838659,8.81102086 9.50198965,8.30573353 C10.0255927,7.8004462 10.732918,7.53103897 11.4599934,7.55996578 L11.4629934,7.58496566 C11.3434912,6.21124679 10.6042672,4.96693555 9.45500246,4.20498096 L9.45500246,4.20598096 Z" id="形状" fill="#49FFD6"></path>
          </g>
          <polyline id="路径-64" stroke="#49FFD6" points="3.9099074 0.000109567889 0 0.00361252041 0 20 4 20"></polyline>
          <polyline id="路径-64备份" stroke="#49FFD6" transform="translate(18.000000, 10.000000) scale(-1, 1) translate(-18.000000, -10.000000) " points="19.9099074 0.000109567889 16 0.00361252041 16 20 20 20"></polyline>
        </g>
      </g>
    </g>
  </g>
</svg>
