<?xml version="1.0" encoding="UTF-8"?>
<svg xmlns="http://www.w3.org/2000/svg" xmlns:xlink="http://www.w3.org/1999/xlink" width="22px" height="22px" viewBox="0 0 22 22" version="1.1">
  <title>调用量</title>
  <g id="模版" stroke="none" stroke-width="1" fill="none" fill-rule="evenodd">
    <g id="资源可视化" transform="translate(-1449.000000, -130.000000)">
      <g id="编组-15" transform="translate(1441.000000, 80.000000)">
        <g id="调用量" transform="translate(9.000000, 51.000000)">
          <rect id="矩形" fill="#338AFF" opacity="0.30137271" x="0" y="0" width="20" height="20"></rect>
          <g id="openapiexplorer-API调用工具" transform="translate(2.000000, 2.000000)" fill-rule="nonzero">
            <rect id="矩形" fill="#000000" opacity="0" x="0" y="0" width="16" height="16"></rect>
            <path d="M4.89865691,9.20772946 L8.02442003,10.9951691 L11.1501832,9.20772946 L11.1990232,9.20772946 L11.1990232,12.879227 L8.02442003,14.6666667 L4.84981685,12.879227 L4.84981685,9.20772946 L4.89865691,9.20772946 Z M8.02442003,7.42028986 L10.4175824,8.77294685 L8.02442003,10.1256038 L5.63125765,8.77294685 L8.02442003,7.42028986 Z M11.4920635,1.33333333 L14.6666667,3.16908211 L14.6666667,6.79227052 L11.5897436,8.57971014 L11.5897436,4.90821255 L8.41514043,3.12077294 L11.4920635,1.33333333 Z M4.55677656,1.33333333 L7.63369963,3.12077294 L4.45909647,4.90821255 L4.45909647,8.57971014 L1.33333333,6.79227052 L1.33333333,3.16908211 L4.55677656,1.33333333 Z M8.31746033,3.94202899 L10.8083028,5.34299515 L10.8083028,8.19323671 L8.31746033,6.79227052 L8.31746033,3.94202899 Z M7.73137974,3.94202899 L7.73137974,6.79227052 L5.24053725,8.19323671 L5.24053725,5.34299515 L7.73137974,3.94202899 Z" id="形状结合" fill="#00FFFD"></path>
          </g>
          <polyline id="路径-64" stroke="#00FFFD" points="3.9099074 0.000109567889 0 0.00361252041 0 20 4 20"></polyline>
          <polyline id="路径-64备份" stroke="#00FFFD" transform="translate(18.000000, 10.000000) scale(-1, 1) translate(-18.000000, -10.000000) " points="19.9099074 0.000109567889 16 0.00361252041 16 20 20 20"></polyline>
        </g>
      </g>
    </g>
  </g>
</svg>
