<?xml version="1.0" encoding="UTF-8"?>
<svg xmlns="http://www.w3.org/2000/svg" xmlns:xlink="http://www.w3.org/1999/xlink" width="24px" height="24px" viewBox="0 0 24 24" version="1.1">
  <title>核查量</title>
  <g id="模版" stroke="none" stroke-width="1" fill="none" fill-rule="evenodd">
    <g id="资源可视化" transform="translate(-1458.000000, -904.000000)" fill-rule="nonzero">
      <g id="编组-16" transform="translate(1436.000000, 888.000000)">
        <g id="核查量" transform="translate(22.000000, 16.000000)">
          <rect id="矩形" fill="#000000" opacity="0" x="0" y="0" width="24" height="24"></rect>
          <path d="M23.9035,13.2025 C23.5266019,18.9497214 18.9482741,23.5274075 13.201,23.9035 L13.201,21.949 C17.871384,21.5814624 21.5813608,17.8727577 21.9505,13.2025 L23.905,13.2025 L23.9035,13.2025 Z M2.956,13.2025 C3.32553908,17.8706072 7.03289277,21.5779609 11.701,21.9475 L11.701,23.9035 C5.95494923,23.5251604 1.37892311,18.9472094 1.003,13.201 L2.9575,13.201 L2.956,13.2025 Z M12.4525,6.4525 C14.7294737,6.4525 16.8101724,7.74160059 17.8242676,9.78028157 C18.8383627,11.8189625 18.6110844,14.2559947 17.2375,16.072 L18.286,17.119 C18.5919006,17.420135 18.6157712,17.9055283 18.3408936,18.2352248 C18.066016,18.5649213 17.5842456,18.6287469 17.233,18.382 L17.119,18.286 L16.072,17.2375 C13.9875991,18.8143759 11.1222287,18.8605218 8.98813183,17.3515835 C6.8540349,15.8426452 5.94225505,13.1258209 6.73399803,10.634956 C7.525741,8.14409123 9.83883124,6.45231981 12.4525,6.4525 L12.4525,6.4525 Z M12.4525,8.1025 C10.8983947,8.1025 9.46234211,8.93160529 8.68528944,10.2775 C7.90823677,11.6233947 7.90823677,13.2816053 8.68528944,14.6275 C9.46234211,15.9733947 10.8983947,16.8025 12.4525,16.8025 C14.8549387,16.8025 16.8025,14.8549387 16.8025,12.4525 C16.8025,10.0500613 14.8549387,8.1025 12.4525,8.1025 Z M13.2025,1.0015 C18.9486036,1.37903423 23.5252713,5.95634354 23.902,11.7025 L21.9475,11.7025 C21.5779609,7.03439277 17.8706072,3.32703908 13.2025,2.9575 L13.2025,1 L13.2025,1.0015 Z M11.7025,1.0015 L11.7025,2.9575 C7.03439277,3.32703908 3.32703908,7.03439277 2.9575,11.7025 L1,11.7025 C1.37761894,5.95586394 5.9557583,1.37900787 11.7025,1.003 L11.7025,1.0015 Z" id="形状" fill="#00FCFF"></path>
        </g>
      </g>
    </g>
  </g>
</svg>
