<?xml version="1.0" standalone="no"?><!DOCTYPE svg PUBLIC "-//W3C//DTD SVG 1.1//EN" "http://www.w3.org/Graphics/SVG/1.1/DTD/svg11.dtd"><svg t="1650553895844" class="icon" viewBox="0 0 1024 1024" version="1.1" xmlns="http://www.w3.org/2000/svg" p-id="5032" xmlns:xlink="http://www.w3.org/1999/xlink" width="200" height="200" preserveAspectRatio="none meet"><path d="M523.7248 13.9264l363.776 158.976L523.776 308.736 138.24 172.8512 523.7248 13.9264zM127.5904 195.6352l379.904 126.0544V958.976L127.5392 195.584zM895.3856 196.5056l-371.712 134.8608 8.6016 626.944 363.1104-761.856z" fill="#BBBD01" fill-opacity=".497" p-id="5033"></path><path d="M523.8784 0L921.6 173.824 523.8784 322.4064 102.4 173.824 523.8784 0z m-0.3072 27.8016L174.0288 171.9296l349.6448 123.2384 329.728-123.2384L523.5712 27.8016z" fill="#F3FF00" p-id="5034"></path><path d="M102.4 173.824l417.8432 138.6496v700.928L102.4 173.7728z m50.3296 43.6224l341.9136 687.0528V330.9568L152.7296 217.4464z" fill="#F3FF00" p-id="5035"></path><path d="M920.3712 173.824l-409.6 148.5824 9.472 690.944 400.128-839.5264zM870.4 219.136L544.3584 903.3216l-7.68-563.0976L870.4 219.136z" fill="#F3FF00" p-id="5036"></path></svg>
