<?xml version="1.0" encoding="UTF-8"?>
<svg xmlns="http://www.w3.org/2000/svg" xmlns:xlink="http://www.w3.org/1999/xlink" width="170px" height="170px" viewBox="0 0 170 170" version="1.1">
  <title>圆1</title>
  <defs>
    <path d="M22.1405722,31.3418985 L24.1903753,33.0674795 C13.2053869,46.1164542 7.08133971,62.5845361 7.08133971,80 C7.08133971,120.271864 39.7281359,152.91866 80,152.91866 C82.7411424,152.91866 85.4633211,152.767471 88.1583369,152.467501 L88.7797777,152.395637 L89.0989708,155.055983 C86.0953353,155.416364 83.0587424,155.598086 80,155.598086 C38.2483299,155.598086 4.40191388,121.75167 4.40191388,80 C4.40191388,61.9471789 10.7526477,44.8695176 22.1405722,31.3418985 Z M151.110903,54.2829304 C154.06768,62.4572476 155.598086,71.1247422 155.598086,80 C155.598086,91.6396635 152.964402,102.90604 147.967873,113.135797 L147.776996,113.52377 L145.376187,112.334047 C150.314236,102.369274 152.91866,91.3719459 152.91866,80 C152.91866,71.5952125 151.496853,63.3871219 148.748244,55.632769 L148.591246,55.1943296 L151.110903,54.2829304 Z M80,4.40191388 C102.77551,4.40191388 123.893497,14.5376826 138.160518,31.7017725 L138.590749,32.2240445 L136.515157,33.9185179 C122.747946,17.0548029 102.192233,7.08133971 80,7.08133971 C67.2765984,7.08133971 55.0313064,10.3431096 44.1990854,16.4599728 L43.8424924,16.6626614 L42.5119022,14.3369674 C53.8341605,7.8592081 66.6668993,4.40191388 80,4.40191388 Z" id="path-1"></path>
    <filter x="-9.6%" y="-8.3%" width="119.2%" height="119.2%" filterUnits="objectBoundingBox" id="filter-2">
      <feOffset dx="0" dy="2" in="SourceAlpha" result="shadowOffsetOuter1"></feOffset>
      <feGaussianBlur stdDeviation="4.5" in="shadowOffsetOuter1" result="shadowBlurOuter1"></feGaussianBlur>
      <feColorMatrix values="0 0 0 0 0.308125119   0 0 0 0 0.877327149   0 0 0 0 1  0 0 0 0.579419116 0" type="matrix" in="shadowBlurOuter1"></feColorMatrix>
    </filter>
  </defs>
  <g id="资源可视化" stroke="none" stroke-width="1" fill="none" fill-rule="evenodd">
    <g id="资源可视化5.0" transform="translate(-355.000000, -770.000000)">
      <g id="编组-4" transform="translate(140.000000, 773.000000)">
        <g id="圆1" transform="translate(220.000000, 0.000000)">
          <path d="M141.346495,131.052376 L141.640584,131.297384 C126.495858,149.475934 104.122289,160.191388 80,160.191388 C63.5045077,160.191388 47.7568208,155.199606 34.479122,146.027923 L34.0775253,145.748714 L34.29698,145.435096 C47.5943991,154.739978 63.4170413,159.808612 80,159.808612 C103.767375,159.808612 125.82824,149.356752 140.89216,131.592909 L141.346495,131.052376 Z M133.45942,20.2264941 C150.353386,35.3462177 160.191388,56.8800682 160.191388,80 C160.191388,90.7265095 158.084204,101.158689 154.044841,110.844245 L153.857037,111.290739 L153.504656,111.14126 C157.64652,101.377201 159.808612,90.839938 159.808612,80 C159.808612,57.2202068 150.21265,35.9883426 133.706449,20.9650654 L133.204149,20.5117198 L133.45942,20.2264941 Z M80,-0.19138756 C86.5920142,-0.19138756 93.0794592,0.604085231 99.3622097,2.16180995 L99.9002275,2.29719518 L99.8055267,2.66807056 C93.3862672,1.02895136 86.7483513,0.19138756 80,0.19138756 C52.8228938,0.19138756 27.9844808,13.8816588 13.3206094,36.1285629 L12.8793721,36.8053253 L12.5576849,36.5978785 C27.2310073,13.8440016 52.4169494,-0.19138756 80,-0.19138756 Z M2.26838313,60.212955 L2.63939705,60.3071116 C1.0191596,66.6914837 0.19138756,73.2912047 0.19138756,80 C0.19138756,97.7477775 6.00053724,114.611021 16.545633,128.411033 L16.8666299,128.828276 L16.5640124,129.062667 C5.76435485,115.119485 -0.19138756,98.0126576 -0.19138756,80 C-0.19138756,73.4466267 0.594785241,66.996533 2.13455783,60.7480437 L2.26838313,60.212955 Z" id="形状" stroke="#15AEFE"></path>
          <g id="形状" fill-rule="nonzero">
            <use fill="black" fill-opacity="1" filter="url(#filter-2)" xlink:href="#path-1"></use>
            <use fill="#72E6FF" xlink:href="#path-1"></use>
          </g>
          <circle id="椭圆形备份-5" stroke="#15AEFE" fill-opacity="0.347593081" fill="#3F57FF" cx="80" cy="80" r="70.3133971"></circle>
        </g>
      </g>
    </g>
  </g>
</svg>
