<?xml version="1.0" encoding="UTF-8"?>
<svg xmlns="http://www.w3.org/2000/svg" xmlns:xlink="http://www.w3.org/1999/xlink" width="24px" height="24px" viewBox="0 0 24 24" version="1.1">
  <title>配置</title>
  <g id="模版" stroke="none" stroke-width="1" fill="none" fill-rule="evenodd">
    <g id="资源可视化" transform="translate(-1457.000000, -975.000000)" fill-rule="nonzero">
      <g id="编组-17" transform="translate(1436.000000, 959.000000)">
        <g id="配置" transform="translate(21.000000, 16.000000)">
          <rect id="矩形" fill="#000000" opacity="0" x="0" y="0" width="24" height="24"></rect>
          <path d="M10.2046875,20.4304688 C10.05,20.4117187 9.9140625,20.3109375 9.85078125,20.1679688 L9.0046875,18.2484375 C8.6671875,17.484375 7.921875,17.00625 7.1015625,17.00625 C7.0265625,17.00625 6.94921875,17.0109375 6.871875,17.0179688 L4.7859375,17.2453125 C4.63125,17.2617188 4.4765625,17.1960938 4.3828125,17.0695313 C3.96796875,16.51875 3.61875,15.9164062 3.34921875,15.2835938 C3.2859375,15.1382812 3.3046875,14.9695313 3.3984375,14.8453125 L4.63828125,13.1507813 C5.17734375,12.4148438 5.17734375,11.4257813 4.63828125,10.6898438 L3.3984375,8.9953125 C3.30703125,8.86875 3.28828125,8.70234375 3.34921875,8.55703125 C3.61875,7.92421875 3.96796875,7.32421875 4.3828125,6.77109375 C4.4765625,6.646875 4.63125,6.57890625 4.7859375,6.5953125 L6.871875,6.82265625 C7.77890625,6.92109375 8.63671875,6.4265625 9.0046875,5.5921875 L9.85078125,3.67265625 C9.9140625,3.5296875 10.05,3.42890625 10.2046875,3.41015625 C10.5445313,3.3703125 10.8914062,3.34921875 11.2382812,3.34921875 C11.5828125,3.34921875 11.9296875,3.3703125 12.271875,3.41015625 C12.4265625,3.42890625 12.5625,3.5296875 12.6257813,3.67265625 L13.471875,5.5921875 C13.8398438,6.4265625 14.6976563,6.92109375 15.6046875,6.82265625 L17.690625,6.5953125 C17.8453125,6.57890625 18,6.646875 18.09375,6.77109375 C18.5085938,7.321875 18.8578125,7.92421875 19.1273438,8.55703125 C19.1882813,8.70234375 19.1695313,8.87109375 19.078125,8.9953125 L17.8359375,10.6851563 C17.296875,11.4210938 17.296875,12.4101563 17.8359375,13.1460938 L18.1828125,13.621875 L20.2171875,13.621875 L19.1601562,12.178125 C19.0453125,12.0210937 19.0453125,11.8101562 19.1601562,11.6554687 L20.4,9.9609375 C20.8335938,9.3703125 20.9226562,8.5828125 20.634375,7.9078125 C20.3109375,7.153125 19.8984375,6.43828125 19.4039063,5.7796875 C18.9632813,5.19609375 18.2390625,4.8796875 17.5125,4.959375 L15.4265625,5.18671875 C15.234375,5.2078125 15.0515625,5.10234375 14.9742188,4.92421875 L14.128125,3.0046875 C13.8328125,2.334375 13.1953125,1.86328125 12.46875,1.7765625 C12.0632812,1.72734375 11.6507813,1.70390625 11.240625,1.70390625 C10.8304687,1.70390625 10.4179688,1.72734375 10.0125,1.7765625 C9.28359375,1.86328125 8.6484375,2.334375 8.353125,3.0046875 L7.50703125,4.92421875 C7.4296875,5.10234375 7.246875,5.2078125 7.0546875,5.18671875 L4.96875,4.959375 C4.2421875,4.8796875 3.51796875,5.19375 3.07734375,5.7796875 C2.5828125,6.43828125 2.16796875,7.153125 1.846875,7.9078125 C1.55859375,8.5828125 1.64765625,9.3703125 2.08125,9.9609375 L3.32109375,11.6554688 C3.4359375,11.8125 3.4359375,12.0234375 3.32109375,12.178125 L2.08125,13.8726563 C1.64765625,14.4632812 1.55859375,15.2507812 1.846875,15.9257812 C2.1703125,16.6804687 2.5828125,17.3953125 3.07734375,18.0539062 C3.4734375,18.5789062 4.096875,18.8859375 4.74609375,18.8859375 C4.82109375,18.8859375 4.89375,18.88125 4.96875,18.8742187 L7.0546875,18.646875 C7.246875,18.6257812 7.4296875,18.73125 7.50703125,18.909375 L8.353125,20.8289062 C8.6484375,21.4992187 9.2859375,21.9703125 10.0125,22.0570312 C10.4179688,22.10625 10.8304687,22.1296875 11.240625,22.1296875 C11.3625,22.1296875 11.484375,22.1273437 11.60625,22.1226562 L11.60625,20.484375 C11.484375,20.4890625 11.3625,20.4914062 11.240625,20.4914062 C10.8914062,20.4914062 10.5445313,20.4703125 10.2046875,20.4304688 Z M8.43046875,11.8359375 C8.43046875,10.2679688 9.70546875,8.99296875 11.2734375,8.99296875 C12.8414063,8.99296875 14.1164063,10.2679688 14.1164063,11.8359375 C14.1164063,12.5132813 13.8796875,13.134375 13.4835937,13.621875 L15.3867188,13.621875 C15.6257813,13.0734375 15.759375,12.4710938 15.759375,11.8359375 C15.759375,9.36328125 13.7484375,7.35234375 11.2757812,7.35234375 C8.803125,7.35234375 6.7921875,9.36328125 6.7921875,11.8359375 C6.7921875,14.3085938 8.803125,16.3195313 11.2757812,16.3195313 C11.3859375,16.3195313 11.4960937,16.3148438 11.60625,16.3078125 L11.60625,14.6601563 C11.4984375,14.671875 11.3882813,14.6789063 11.2757812,14.6789063 C9.70546875,14.6789063 8.43046875,13.4039063 8.43046875,11.8359375 L8.43046875,11.8359375 Z M21.6328125,14.9203125 L13.7460938,14.9203125 C13.29375,14.9203125 12.9257812,15.2882813 12.9257812,15.740625 C12.9257812,16.1929687 13.29375,16.5609375 13.7460938,16.5609375 L21.6328125,16.5609375 C22.0851563,16.5609375 22.453125,16.1929687 22.453125,15.740625 C22.453125,15.2882813 22.0851563,14.9203125 21.6328125,14.9203125 Z M21.6328125,17.7890625 L13.7460938,17.7890625 C13.29375,17.7890625 12.9257812,18.1570313 12.9257812,18.609375 C12.9257812,19.0617187 13.29375,19.4296875 13.7460938,19.4296875 L21.6328125,19.4296875 C22.0851563,19.4296875 22.453125,19.0617187 22.453125,18.609375 C22.453125,18.1570313 22.0851563,17.7890625 21.6328125,17.7890625 Z M21.6328125,20.6601562 L13.7460938,20.6601562 C13.29375,20.6601562 12.9257812,21.028125 12.9257812,21.4804688 C12.9257812,21.9328125 13.29375,22.3007812 13.7460938,22.3007812 L21.6328125,22.3007812 C22.0851563,22.3007812 22.453125,21.9328125 22.453125,21.4804688 C22.453125,21.0257813 22.0851563,20.6601562 21.6328125,20.6601562 Z" id="形状" fill="#00FCFF"></path>
        </g>
      </g>
    </g>
  </g>
</svg>
