<?xml version="1.0" encoding="UTF-8"?>
<svg xmlns="http://www.w3.org/2000/svg" xmlns:xlink="http://www.w3.org/1999/xlink" width="22px" height="22px" viewBox="0 0 22 22" version="1.1">
  <title>系统数</title>
  <g id="模版" stroke="none" stroke-width="1" fill="none" fill-rule="evenodd">
    <g id="资源可视化" transform="translate(-1449.000000, -198.000000)">
      <g id="编组-15" transform="translate(1441.000000, 80.000000)">
        <g id="系统数" transform="translate(9.000000, 119.000000)">
          <rect id="矩形" fill="#4AFF00" opacity="0.300002325" x="0" y="0" width="20" height="20"></rect>
          <g id="系统" transform="translate(2.000000, 2.000000)" fill-rule="nonzero">
            <rect id="矩形" fill="#000000" opacity="0" x="0" y="0" width="16" height="16"></rect>
            <path d="M14.2733333,7.25666667 C14.2035175,6.95907259 13.9775526,6.7228946 13.6833333,6.64 L13.48,6.59333333 C12.4403968,6.2775582 11.8267352,5.20657265 12.08,4.15 L12.14,3.95666667 C12.2147216,3.66065491 12.1242931,3.3473395 11.9033333,3.13666667 C11.6699891,2.96163612 11.42373,2.80452057 11.1666667,2.66666667 C10.9170855,2.51392606 10.656347,2.380214 10.3866667,2.26666667 C10.0946471,2.17871249 9.77790148,2.2566217 9.56,2.47 L9.41666667,2.62333333 C8.62819148,3.37169861 7.39180852,3.37169861 6.60333333,2.62333333 L6.46666667,2.47333333 C6.24876519,2.25995503 5.93201955,2.18204582 5.64,2.27 C5.36808416,2.3820513 5.10510082,2.51465731 4.85333333,2.66666667 C4.59604182,2.80663869 4.34977523,2.96598766 4.11666667,3.14333333 C3.89325027,3.35253009 3.80130152,3.66668831 3.87666667,3.96333333 L3.93666667,4.15666667 C4.18740616,5.21227444 3.57221852,6.28045059 2.53333333,6.59333333 L2.33333333,6.64 C2.04040239,6.72393062 1.81589611,6.95991734 1.74666667,7.25666667 C1.70976292,7.54846229 1.69527606,7.84265706 1.70333333,8.13666667 C1.69600661,8.42512519 1.71049231,8.71372493 1.74666667,9 C1.81115374,9.30278881 2.03635551,9.54590437 2.33333333,9.63333333 L2.52666667,9.67666667 C3.57347224,9.98834769 4.19307948,11.0649702 3.93666667,12.1266667 L3.87666667,12.32 C3.80130152,12.616645 3.89325027,12.9308032 4.11666667,13.14 C4.3495334,13.3176897 4.59582709,13.4770562 4.85333333,13.6166667 C5.10420969,13.764377 5.36609615,13.8925342 5.63666667,14 C5.92810492,14.0880707 6.24438431,14.0115515 6.46333333,13.8 L6.6,13.6666667 C7.39003913,12.9157653 8.62996087,12.9157653 9.42,13.6666667 L9.55666667,13.8133333 C9.77561569,14.0248848 10.0918951,14.101404 10.3833333,14.0133333 C10.6538788,13.8993437 10.9156932,13.7656513 11.1666667,13.6133333 C11.4240579,13.4735291 11.670337,13.314172 11.9033333,13.1366667 C12.1261193,12.9270826 12.2179587,12.613298 12.1433333,12.3166667 L12.0833333,12.1166667 C11.8269205,11.0549702 12.4465278,9.97834769 13.4933333,9.66666667 L13.6866667,9.62333333 C13.9830433,9.53993974 14.209671,9.30050818 14.2766667,9 C14.3173776,8.71295282 14.3363205,8.42323769 14.3333333,8.13333333 C14.3355174,7.84001471 14.3154599,7.54695262 14.2733333,7.25666667 L14.2733333,7.25666667 Z M8,10.0333443 C7.17699214,10.0360317 6.43352143,9.54234047 6.11669845,8.78275347 C5.79987547,8.02316647 5.97218942,7.14750234 6.55319061,6.56458997 C7.1341918,5.98167759 8.00928531,5.80648884 8.76990868,6.12081558 C9.53053206,6.43514232 10.0266694,7.17698772 10.0266694,8 C10.0275515,8.5383897 9.81452514,9.05507975 9.43445126,9.43640388 C9.05437737,9.817728 8.5383897,10.03245 8,10.0333443 Z" id="形状" fill="#4AFF00"></path>
          </g>
          <polyline id="路径-64" stroke="#4AFF00" points="3.9099074 0.000109567889 0 0.00361252041 0 20 4 20"></polyline>
          <polyline id="路径-64备份" stroke="#4AFF00" transform="translate(18.000000, 10.000000) scale(-1, 1) translate(-18.000000, -10.000000) " points="19.9099074 0.000109567889 16 0.00361252041 16 20 20 20"></polyline>
        </g>
      </g>
    </g>
  </g>
</svg>
