<?xml version="1.0" encoding="UTF-8"?>
<svg xmlns="http://www.w3.org/2000/svg" xmlns:xlink="http://www.w3.org/1999/xlink" width="24px" height="24px" viewBox="0 0 24 24" version="1.1">
  <title>NO.1</title>
  <defs>
    <text id="text-1" font-family="HelveticaNeue-Medium, Helvetica Neue" font-size="12" font-weight="400" fill="#FFFFFF">
      <tspan x="8.7623456" y="13.5711737">1</tspan>
    </text>
    <filter x="-3.0%" y="-1.3%" width="111.8%" height="105.3%" filterUnits="objectBoundingBox" id="filter-2">
      <feOffset dx="0.4" dy="0.4" in="SourceAlpha" result="shadowOffsetOuter1"></feOffset>
      <feColorMatrix values="0 0 0 0 0.980392157   0 0 0 0 0.584313725   0 0 0 0 0.0156862745  0 0 0 1 0" type="matrix" in="shadowOffsetOuter1"></feColorMatrix>
    </filter>
  </defs>
  <g id="模版" stroke="none" stroke-width="1" fill="none" fill-rule="evenodd">
    <g id="资源可视化" transform="translate(-1463.000000, -649.000000)">
      <g id="编组-13" transform="translate(1439.000000, 544.000000)">
        <g id="编组-14" transform="translate(23.999988, 105.026320)">
          <g id="NO.1" transform="translate(0.000012, 0.000000)">
            <polygon id="Fill-1" fill="#D80E34" points="1.24218177e-05 18.6592108 3.79636845 19.3025745 4.44342095 23.0789842 11.3012582 16.2550301 6.85797394 11.8377278"></polygon>
            <path d="M4.37359791,22.6772619 L4.44079994,23.0789471 L11.3012458,16.254993 L11.0658524,16.0206045 L4.37359791,22.6772619 Z M0,18.6591738 L3.79635603,19.3026609 L3.76020853,19.1018801 L0.165707052,18.491877 L0,18.6591738 Z" id="Fill-2" fill-opacity="0.5" fill="#FFFFFF"></path>
            <polygon id="Fill-3" fill="#D80E34" points="11.8654075 16.2550301 18.7258534 23.0789842 19.3729059 19.3025745 23.1666534 18.6592108 16.3088161 11.8377278"></polygon>
            <g id="Group-20" transform="translate(1.760360, 0.000000)">
              <path d="M14.6467623,11.9381924 L17.8971794,15.1711965 L17.5452693,16.0593274 C17.2968329,16.6823041 16.8127547,17.179005 16.1943966,17.446754 L12.7783966,18.9191881 L10.2059623,16.3604369 L14.6467623,11.9381924 Z M4.95774422,12.005037 L1.7073271,15.2381647 L2.05936142,16.1262956 C2.30779778,16.7492722 2.79175181,17.2459731 3.41023413,17.5137221 L6.82623409,18.9860326 L9.39854416,16.4274051 L4.95774422,12.005037 Z" id="Fill-4" fill-opacity="0.1" fill="#000000"></path>
              <path d="M21.0051804,18.7286625 L14.478633,12.2367072 L14.5484436,11.8377402 L21.4062809,18.6592232 L21.0051804,18.7286625 Z M13.8678522,15.8122125 L10.2732265,16.4222156 L10.1050351,16.2549189 L13.9013911,15.6114317 L13.8678522,15.8122125 Z" id="Fill-6" fill-opacity="0.5" fill="#FFFFFF"></path>
              <path d="M19.2738895,8.86210625 L17.2502511,3.77055104 C17.0018148,3.1475744 16.5178607,2.65074991 15.8993784,2.38300093 L10.850282,0.207895665 C10.2344083,-0.0572586129 9.53568103,-0.0701085872 8.90949719,0.177006303 L3.7905902,2.1900042 C3.16440635,2.43711909 2.66492505,2.9184989 2.39574425,3.53369142 L0.209007406,8.55580734 C-0.0575648087,9.16840515 -0.0704834995,9.86341578 0.177952861,10.4863924 L2.20171545,15.5779476 C2.45015181,16.2009243 2.93398163,16.6977488 3.55258816,16.9653742 L8.6014361,19.1404794 C9.21743406,19.4056337 9.91616132,19.4184837 10.5424694,19.1713688 L15.6612522,17.1584945 C16.2875602,16.9113796 16.7869173,16.4299998 17.0560981,15.8148072 L19.2428349,10.7900966 C19.5094072,10.1774988 19.5197173,9.48248818 19.2738895,8.86210625" id="Fill-8" fill="#FFB400"></path>
              <path d="M2.23014859,9.67295198 C2.22258411,13.7900096 5.57175468,17.1335976 9.71095289,17.141271 C13.8500269,17.1487952 17.211495,13.8173158 17.2192094,9.70038173 L17.2192094,9.67295198 C17.2267739,5.55589435 13.8774791,2.21218276 9.73828089,2.20475655 C5.5992069,2.19723231 2.23773873,5.52871171 2.23014859,9.64576934 L2.23014859,9.67295198 Z" id="Fill-10" fill="#FFF6E6"></path>
              <path d="M9.72207041,2.22089356 C9.7738694,2.22089356 9.82293558,2.22089356 9.87473456,2.22348827 C5.80658915,2.30577753 2.53555181,5.60846804 2.53555181,9.67548491 C2.53555181,13.7426253 5.80658915,17.0451923 9.87473456,17.1250104 C9.82293558,17.1250104 9.7738694,17.1276051 9.72207041,17.1276051 C5.58399018,17.1276051 2.22761494,13.7915541 2.22761494,9.67301376 C2.22761494,5.55434988 5.58150581,2.22089356 9.72207041,2.22089356" id="Fill-12" fill="#FA9504"></path>
              <path d="M9.72722547,2.22089356 C9.67542649,2.22089356 9.62636031,2.22089356 9.57456133,2.22348827 C13.6400981,2.30330638 16.9137441,5.60846804 16.9137441,9.67301376 C16.9137441,13.7374359 13.6400981,17.0451923 9.57195274,17.1250104 C9.62375172,17.1250104 9.67294212,17.1276051 9.72461689,17.1276051 C13.8626971,17.1276051 17.2191966,13.7915541 17.2191966,9.67301376 C17.2191966,5.55434988 13.8653057,2.22089356 9.72722547,2.22089356" id="Fill-14" fill="#FAFDFF"></path>
              <path d="M3.10484373,9.67295198 C3.10484373,13.3094947 6.0685653,16.2575754 9.724679,16.2575754 C13.3806685,16.2575754 16.34439,13.3094947 16.34439,9.67295198 C16.34439,6.03640925 13.3806685,3.08832861 9.724679,3.08832861 C6.0685653,3.08832861 3.10484373,6.03640925 3.10484373,9.67295198" id="Fill-16" fill="#FFB400"></path>
              <polygon id="Fill-18" fill-opacity="0.5" fill="#FFFFFF" points="17.6124713 19.3026486 17.3899966 19.3566432 16.7378511 22.8523304 16.9655431 23.0788112"></polygon>
            </g>
            <g id="1" fill="#FFFFFF" fill-opacity="1">
              <use filter="url(#filter-2)" xlink:href="#text-1"></use>
              <use xlink:href="#text-1"></use>
            </g>
          </g>
        </g>
      </g>
    </g>
  </g>
</svg>
