<?xml version="1.0" encoding="UTF-8"?>
<svg xmlns="http://www.w3.org/2000/svg" xmlns:xlink="http://www.w3.org/1999/xlink" width="23px" height="24px" viewBox="0 0 23 24" version="1.1">
  <title>NO.3</title>
  <defs>
    <text id="text-3" font-family="HelveticaNeue-Medium, Helvetica Neue" font-size="12" font-weight="400" fill="#FFFFFF">
      <tspan x="8.66401232" y="13.5235506">3</tspan>
    </text>
    <filter x="-3.0%" y="-1.3%" width="116.1%" height="105.3%" filterUnits="objectBoundingBox" id="filter-2">
      <feOffset dx="0.4" dy="0.4" in="SourceAlpha" result="shadowOffsetOuter1"></feOffset>
      <feColorMatrix values="0 0 0 0 0.282352941   0 0 0 0 0.133333333   0 0 0 0 0.549019608  0 0 0 1 0" type="matrix" in="shadowOffsetOuter1"></feColorMatrix>
    </filter>
  </defs>
  <g id="模版" stroke="none" stroke-width="1" fill="none" fill-rule="evenodd">
    <g id="资源可视化" transform="translate(-1463.000000, -715.000000)">
      <g id="编组-13" transform="translate(1439.000000, 544.000000)">
        <g id="编组-14" transform="translate(23.999988, 105.026320)">
          <g id="NO.3" transform="translate(0.000000, 66.157968)">
            <polygon id="Fill-1" fill="#D80E34" points="1.23208556e-05 18.5336579 3.76551221 19.1717923 4.40730558 22.9175081 11.2094036 16.1490179 6.8022335 11.7676187"></polygon>
            <path d="M4.33805005,22.5190509 L4.40470588,22.9174713 L11.2093912,16.1489811 L10.975911,15.9164977 L4.33805005,22.5190509 Z M0,18.5336211 L3.76549989,19.1718781 L3.7296462,18.9727292 L0.164360214,18.3676841 L0,18.5336211 Z" id="Fill-2" fill-opacity="0.5" fill="#FFFFFF"></path>
            <polygon id="Fill-3" fill="#D80E34" points="11.7689675 16.1490179 18.5736529 22.9175081 19.2154462 19.1717923 22.9783588 18.5336579 16.1762608 11.7676187"></polygon>
            <g id="Group-20" transform="translate(1.724932, 0.000000)">
              <path d="M14.5488359,11.8672667 L17.7728342,15.0739935 L17.4237844,15.9549059 C17.1773673,16.5728191 16.6972235,17.0654829 16.0838913,17.3310557 L12.695656,18.791522 L10.1441301,16.253568 L14.5488359,11.8672667 Z M4.93856856,11.933568 L1.71457027,15.1404174 L2.06374332,16.0213297 C2.31016043,16.6392429 2.79018096,17.1319067 3.40363636,17.3974795 L6.79187166,18.8578233 L9.34327444,16.3199918 L4.93856856,11.933568 Z" id="Fill-4" fill-opacity="0.1" fill="#000000"></path>
              <path d="M20.8555739,18.602545 L14.3820732,12.1633552 L14.4513164,11.767631 L21.2534143,18.5336701 L20.8555739,18.602545 Z M13.7762567,15.7097995 L10.2108475,16.3148446 L10.0440231,16.1489076 L13.809523,15.5106506 L13.7762567,15.7097995 Z" id="Fill-6" fill-opacity="0.5" fill="#FFFFFF"></path>
              <path d="M19.1172346,8.79007656 L17.110044,3.73990465 C16.8636269,3.12199146 16.3836064,2.62920507 15.770151,2.36363231 L10.7620928,0.206205924 C10.1512248,-0.0567932247 9.45817665,-0.0695387566 8.83708232,0.175567626 L3.75978093,2.17220422 C3.1386866,2.41731061 2.64326499,2.89477784 2.37627205,3.50497018 L0.20730863,8.4862672 C-0.0570969318,9.09388592 -0.0699106216,9.78324763 0.176506491,10.4011608 L2.18382029,15.4513327 C2.4302374,16.0692459 2.91013473,16.5620323 3.52371334,16.8274825 L8.5315251,18.9849089 C9.14251633,19.2479081 9.83556446,19.2606536 10.456782,19.0155472 L15.5339602,17.0190332 C16.1551777,16.7739268 16.6504761,16.2964595 16.9174691,15.6862672 L19.0864325,10.7023966 C19.350838,10.0947778 19.3610644,9.40541614 19.1172346,8.79007656" id="Fill-8" fill="#7B4AD1"></path>
              <path d="M2.23314235,9.62043779 C2.22563936,13.7040327 5.54758845,17.0204446 9.65314396,17.0280556 C13.7585763,17.0355186 17.092723,13.7311169 17.1003747,9.6476446 L17.1003747,9.62043779 C17.1078776,5.53684289 13.7858053,2.22030843 9.68024984,2.21294257 C5.57481754,2.20547949 2.2406708,5.50988119 2.23314235,9.59347609 L2.23314235,9.62043779 Z" id="Fill-10" fill="#FFF6E6"></path>
              <path d="M9.66417112,2.22894843 C9.71554909,2.22894843 9.76421647,2.22894843 9.81559444,2.23152204 C5.78051422,2.31314247 2.53606332,5.58898928 2.53606332,9.62295013 C2.53606332,13.6570335 5.78051422,16.9327578 9.81559444,17.0119271 C9.76421647,17.0119271 9.71554909,17.0145008 9.66417112,17.0145008 C5.55972449,17.0145008 2.2306293,13.7055646 2.2306293,9.62049906 C2.2306293,5.53531098 5.55726032,2.22894843 9.66417112,2.22894843" id="Fill-12" fill="#48228C"></path>
              <path d="M9.66928428,2.22894843 C9.61790631,2.22894843 9.56923893,2.22894843 9.51786096,2.23152204 C13.5503538,2.3106914 16.7973921,5.58898928 16.7973921,9.62049906 C16.7973921,13.6518863 13.5503538,16.9327578 9.51527358,17.0119271 C9.56665155,17.0119271 9.61544214,17.0145008 9.6666969,17.0145008 C13.7711435,17.0145008 17.1003619,13.7055646 17.1003619,9.62049906 C17.1003619,5.53531098 13.7737309,2.22894843 9.66928428,2.22894843" id="Fill-14" fill="#FAFDFF"></path>
              <path d="M3.10072813,9.62043779 C3.10072813,13.2274233 6.04036107,16.1515425 9.6667585,16.1515425 C13.2930327,16.1515425 16.2326657,13.2274233 16.2326657,9.62043779 C16.2326657,6.01345226 13.2930327,3.08933311 9.6667585,3.08933311 C6.04036107,3.08933311 3.10072813,6.01345226 3.10072813,9.62043779" id="Fill-16" fill="#7B4AD1"></path>
              <polygon id="Fill-18" fill-opacity="0.5" fill="#FFFFFF" points="17.4904402 19.1718659 17.2697737 19.2254216 16.6229288 22.6926965 16.8487701 22.9173365"></polygon>
            </g>
            <g id="3" fill="#FFFFFF" fill-opacity="1">
              <use filter="url(#filter-2)" xlink:href="#text-3"></use>
              <use xlink:href="#text-3"></use>
            </g>
          </g>
        </g>
      </g>
    </g>
  </g>
</svg>
