<?xml version="1.0" encoding="UTF-8"?>
<svg xmlns="http://www.w3.org/2000/svg" xmlns:xlink="http://www.w3.org/1999/xlink" width="30px" height="18px" viewBox="0 0 30 18" version="1.1">
  <title>up</title>
  <g id="模版" stroke="none" stroke-width="1" fill="none" fill-rule="evenodd">
    <g id="资源可视化" transform="translate(-1805.000000, -652.000000)" fill="#4EFCC9" fill-rule="nonzero">
      <g id="编组-13" transform="translate(1439.000000, 544.000000)">
        <g id="编组-14" transform="translate(23.999988, 105.026320)">
          <g id="编组-11" transform="translate(0.000012, 0.000000)">
            <g id="up" transform="translate(342.000000, 2.973680)">
              <path d="M29.9426944,1.22252011 C29.9426944,1.21447721 29.9426944,1.20241287 29.9386729,1.19436997 C29.9386729,1.18230563 29.9386729,1.17426273 29.9346515,1.16219839 C29.9346515,1.15013405 29.93063,1.13806971 29.93063,1.12600536 C29.93063,1.11796247 29.93063,1.10991957 29.9266086,1.10187668 C29.9266086,1.08981233 29.9225871,1.07372654 29.9185657,1.0616622 C29.9185657,1.0536193 29.9145442,1.04959786 29.9145442,1.04155496 C29.9105228,1.02949062 29.9105228,1.01340483 29.9065013,1.00134048 C29.9065013,0.993297587 29.9024799,0.989276139 29.9024799,0.981233244 C29.8984584,0.969168901 29.894437,0.957104558 29.8904155,0.941018767 C29.8863941,0.932975871 29.8863941,0.924932976 29.8823727,0.920911528 C29.8783512,0.908847185 29.8743298,0.896782842 29.8703083,0.884718499 C29.8662869,0.876675603 29.8662869,0.868632708 29.8622654,0.860589812 C29.858244,0.848525469 29.8542225,0.840482574 29.8502011,0.828418231 C29.8461796,0.820375335 29.8421582,0.808310992 29.8381367,0.800268097 C29.8341153,0.792225201 29.8300938,0.780160858 29.8260724,0.772117962 C29.8220509,0.760053619 29.8180295,0.752010724 29.814008,0.739946381 C29.8099866,0.731903485 29.8059651,0.72386059 29.8019437,0.715817694 C29.7979223,0.703753351 29.7898794,0.691689008 29.7858579,0.683646113 C29.7818365,0.675603217 29.777815,0.671581769 29.7737936,0.663538874 C29.7657507,0.651474531 29.7617292,0.639410188 29.7536863,0.627345845 C29.7496649,0.623324397 29.7456434,0.615281501 29.741622,0.611260054 C29.7335791,0.59919571 29.7255362,0.587131367 29.7174933,0.575067024 C29.7134718,0.571045576 29.7094504,0.563002681 29.705429,0.558981233 C29.6973861,0.54691689 29.6893432,0.534852547 29.6813003,0.526809651 C29.6772788,0.518766756 29.6732574,0.514745308 29.6652145,0.506702413 C29.6571716,0.498659517 29.6491287,0.486595174 29.6410858,0.478552279 C29.6330429,0.470509383 29.625,0.462466488 29.6209786,0.454423592 C29.6129357,0.446380697 29.6089142,0.438337802 29.6008713,0.430294906 C29.5727212,0.398123324 29.5405496,0.36997319 29.5123995,0.341823056 C29.5043566,0.333780161 29.4963137,0.329758713 29.4882708,0.321715818 C29.4802279,0.313672922 29.472185,0.305630027 29.4641421,0.301608579 C29.4560992,0.293565684 29.4440349,0.285522788 29.435992,0.277479893 C29.4279491,0.273458445 29.4239276,0.26541555 29.4158847,0.261394102 C29.4038204,0.253351206 29.391756,0.245308311 29.3837131,0.237265416 C29.3796917,0.233243968 29.3716488,0.22922252 29.3676273,0.225201072 C29.355563,0.217158177 29.3434987,0.209115282 29.3314343,0.201072386 C29.3274129,0.197050938 29.31937,0.193029491 29.3153485,0.189008043 C29.3032842,0.180965147 29.2912198,0.1769437 29.2791555,0.168900804 C29.2711126,0.164879357 29.2670912,0.160857909 29.2590483,0.156836461 C29.2469839,0.152815013 29.2349196,0.144772118 29.2268767,0.14075067 C29.2188338,0.136729223 29.2107909,0.132707775 29.202748,0.128686327 C29.1906836,0.124664879 29.1826408,0.120643432 29.1705764,0.116621984 C29.1625335,0.112600536 29.1504692,0.108579088 29.1424263,0.104557641 C29.1343834,0.100536193 29.122319,0.0965147453 29.1142761,0.0924932976 C29.1022118,0.0884718499 29.0941689,0.0844504021 29.0821046,0.0804289544 C29.0740617,0.0764075067 29.0660188,0.0764075067 29.0579759,0.072386059 C29.0459115,0.0683646113 29.0338472,0.0643431635 29.0217828,0.0603217158 C29.0137399,0.0563002681 29.0056971,0.0563002681 29.0016756,0.0522788204 C28.9896113,0.0482573727 28.9775469,0.0442359249 28.9614611,0.0402144772 C28.9534182,0.0402144772 28.9493968,0.0361930295 28.9413539,0.0361930295 C28.9292895,0.0321715818 28.9132038,0.028150134 28.9011394,0.028150134 C28.8930965,0.028150134 28.8850536,0.0241286863 28.8810322,0.0241286863 C28.8689678,0.0201072386 28.852882,0.0201072386 28.8408177,0.0160857909 C28.8327748,0.0160857909 28.8247319,0.0120643432 28.816689,0.0120643432 C28.8046247,0.0120643432 28.7925603,0.00804289544 28.780496,0.00804289544 C28.7684316,0.00804289544 28.7603887,0.00804289544 28.7483244,0.00402144772 C28.7402815,0.00402144772 28.7282172,0.00402144772 28.7201743,0 L28.6558311,0 L20.7335791,9.14371349e-15 C20.0217828,9.14371349e-15 19.4467158,0.575067024 19.4467158,1.28686327 C19.4467158,1.99865952 20.0217828,2.57372654 20.7335791,2.57372654 L25.547252,2.57372654 L25.4426944,2.67828418 L18.2845174,9.83646113 L18.2965818,9.84852547 L16.6598525,11.4852547 L11.5244638,6.34986595 C11.2711126,6.09651475 10.9373324,5.97184987 10.6035523,5.97184987 C10.2697721,5.96782842 9.93599196,6.0924933 9.68264075,6.34986595 L0.377010724,15.6514745 C-0.125670241,16.1541555 -0.125670241,16.9705094 0.377010724,17.4731903 C0.879691689,17.9758713 1.69604558,17.9758713 2.19872654,17.4731903 L10.6035523,9.06836461 L15.7349196,14.1997319 C15.9922922,14.4571046 16.3260724,14.5817694 16.6598525,14.577748 C16.9936327,14.5817694 17.3314343,14.4571046 17.5847855,14.1997319 L23.6129357,8.17158177 C23.6370643,8.14745308 23.6571716,8.12734584 23.6772788,8.10321716 L27.3006032,4.47989276 L27.352882,4.42761394 L27.352882,9.24128686 C27.352882,9.95308311 27.9279491,10.5281501 28.6397453,10.5281501 C29.3515416,10.5281501 29.9266086,9.95308311 29.9266086,9.24128686 L29.9266086,1.49597855 C29.9266086,1.48793566 29.93063,1.47989276 29.93063,1.47587131 C29.93063,1.46782842 29.9346515,1.45978552 29.9346515,1.45174263 C29.9346515,1.43967828 29.9386729,1.42761394 29.9386729,1.4155496 C29.9386729,1.40348525 29.9386729,1.39544236 29.9426944,1.38337802 C29.9426944,1.37533512 29.9426944,1.36327078 29.9467158,1.35522788 C29.9426944,1.30697051 29.9426944,1.26273458 29.9426944,1.22252011 Z" id="Shape"></path>
            </g>
          </g>
        </g>
      </g>
    </g>
  </g>
</svg>
