<?xml version="1.0" encoding="UTF-8"?>
<svg width="15px" height="18px" viewBox="0 0 15 18" version="1.1" xmlns="http://www.w3.org/2000/svg" xmlns:xlink="http://www.w3.org/1999/xlink">
    <title>无覆盖</title>
    <g id="页面-1" stroke="none" stroke-width="1" fill="none" fill-rule="evenodd">
        <g id="号线专题-gis2" transform="translate(-131.000000, -786.000000)">
            <g id="编组-66" transform="translate(120.000000, 777.000000)">
                <g id="无覆盖" transform="translate(11.000000, 9.000000)">
                    <path d="M13.7180574,0.25 C14.0930175,0.25 14.2325007,0.280204422 14.3705231,0.354019651 C14.7197956,0.767499342 14.75,0.906982536 14.75,1.2819426 L14.75,13.7180574 C14.75,14.0930175 14.7197956,14.2325007 14.6459803,14.3705231 C14.2325007,14.7197956 14.0930175,14.75 13.7180574,14.75 L1.2819426,14.75 C0.906982536,14.75 0.767499342,14.7197956 0.629476863,14.6459803 C0.280204422,14.2325007 0.25,14.0930175 0.25,13.7180574 L0.25,1.2819426 C0.25,0.906982536 0.280204422,0.767499342 0.354019651,0.629476863 C0.767499342,0.280204422 0.906982536,0.25 1.2819426,0.25 Z" id="矩形备份-39" stroke="#FF3300" stroke-width="0.5" fill-opacity="0.513198959" fill="#3E1F00"></path>
                    <polygon id="路径-6" fill="#FF3300" points="5.366194 14.7795697 9.90786455 14.7795697 7.64380504 17.2046421"></polygon>
                    <path d="M7.66667084,5.74999907 C8.27572465,5.74967049 8.79636007,6.18835353 8.8993431,6.78864252 C9.00232613,7.38893152 8.65767457,7.97605997 8.08333307,8.17875 L8.08333307,11.1666667 L10.1666708,11.1666667 L10.1666708,12 L5.16667084,12 L5.16667084,11.1666667 L7.250001,11.1666667 L7.250001,8.17916667 C6.67609226,7.9760205 6.33190218,7.38906362 6.43482477,6.78902402 C6.53774736,6.18898442 7.05786542,5.75027958 7.66667084,5.74999907 Z M7.66666704,2 C10.4279128,2 12.6666396,4.23875 12.6666396,7 C12.6666396,8.12625 12.2924933,9.19625 11.616661,10.0658333 L11.2612449,10.5025 C11.0452204,10.3281585 10.8288314,10.1542692 10.6120792,9.98083333 L10.8804121,9.65208333 C11.4978839,8.90638907 11.834998,7.96815788 11.8333274,7 C11.8333274,4.69875 9.96791353,2.83333333 7.66666704,2.83333333 C5.36542054,2.83333333 3.50000671,4.69875 3.50000671,7 C3.50000671,7.93333333 3.80750624,8.81833333 4.3637554,9.54041667 L4.71833819,9.98083333 L4.07750583,10.5025 L3.81125624,10.18375 C3.06991657,9.28856962 2.6650128,8.16229572 2.66663963,7 C2.66663963,4.23875 4.90542124,2 7.66666704,2 Z M7.66666704,4.08333333 C9.27916458,4.08333333 10.5833763,5.41166667 10.5833763,7.04666667 C10.5846582,7.68880222 10.3787645,8.3142291 9.99624682,8.83 C9.85249704,9.00833333 9.73791388,9.14833333 9.65166401,9.25083333 C9.30124788,8.96875 9.08583154,8.79666667 9.00583166,8.73416667 L9.27124793,8.40541667 C9.58236814,8.0212115 9.75145847,7.54145926 9.7499972,7.04708333 C9.7499972,5.86833333 8.81541529,4.91666667 7.66666704,4.91666667 C6.51791879,4.91666667 5.58333687,5.86875 5.58333687,7.04666667 C5.58333687,7.55083333 5.75416995,8.02625 6.06250281,8.40583333 L6.33333573,8.73416667 L5.68000339,9.25083333 L5.41542046,8.93083333 C4.98350244,8.39800834 4.74849262,7.73256311 4.74995546,7.04666667 C4.74995546,5.41166667 6.05416949,4.08333333 7.66666704,4.08333333 Z M7.66666704,6.58333333 C7.43654874,6.58333333 7.250001,6.76988135 7.250001,7 C7.250001,7.23011865 7.43654874,7.41666667 7.66666704,7.41666667 C7.89678533,7.41666667 8.08333307,7.23011865 8.08333307,7 C8.08333307,6.76988135 7.89678533,6.58333333 7.66666704,6.58333333 Z" id="形状" fill="#FF3300" fill-rule="nonzero"></path>
                    <line x1="3.81125624" y1="10.18375" x2="11.5" y2="4.5" id="路径-31" stroke="#FF3300"></line>
                </g>
            </g>
        </g>
    </g>
</svg>