<?xml version="1.0" encoding="UTF-8"?>
<svg width="15px" height="18px" viewBox="0 0 15 18" version="1.1" xmlns="http://www.w3.org/2000/svg" xmlns:xlink="http://www.w3.org/1999/xlink">
    <title>编组 58</title>
    <g id="页面-1" stroke="none" stroke-width="1" fill="none" fill-rule="evenodd">
        <g id="号线专题-gis2" transform="translate(-131.000000, -746.000000)">
            <g id="编组-58备份-2" transform="translate(120.000000, 737.000000)">
                <g id="小区" transform="translate(11.000000, 9.000000)">
                    <path d="M13.7180574,0.25 C14.0930175,0.25 14.2325007,0.280204422 14.3705231,0.354019651 C14.7197956,0.767499342 14.75,0.906982536 14.75,1.2819426 L14.75,13.7180574 C14.75,14.0930175 14.7197956,14.2325007 14.6459803,14.3705231 C14.2325007,14.7197956 14.0930175,14.75 13.7180574,14.75 L1.2819426,14.75 C0.906982536,14.75 0.767499342,14.7197956 0.629476863,14.6459803 C0.280204422,14.2325007 0.25,14.0930175 0.25,13.7180574 L0.25,1.2819426 C0.25,0.906982536 0.280204422,0.767499342 0.354019651,0.629476863 C0.767499342,0.280204422 0.906982536,0.25 1.2819426,0.25 Z" id="矩形备份-38" stroke="#FFAC00" stroke-width="0.5" fill-opacity="0.57261391" fill="#584820"></path>
                    <polygon id="路径-6" fill="#FFAC00" points="5.366194 15 9.90786455 15 7.64380504 17.4250724"></polygon>
                    <g id="小区介绍mdpi" transform="translate(4.000000, 3.000000)" fill-rule="nonzero">
                        <rect id="矩形" fill="#000000" opacity="0" x="0" y="0" width="8" height="8"></rect>
                        <path d="M5.49777778,0 L5.49777778,2.74666666 L7.49777778,4.49777778 L7.49777778,7.49777778 L8,7.49777778 L8,8 L0,8 L0,7.49777778 L0.5,7.49777778 L0.5,0 L5.49777778,0 Z M5,0.5 L1,0.5 L1,7.49777778 L5,7.49777778 L5,0.5 Z M5.49777778,3.55555555 L5.49777778,7.49777778 L6.99555555,7.49777778 L6.99555555,4.80666666 L5.49777778,3.55555555 Z M3.99777778,5.49777778 L3.99777778,6 L1.99777778,6 L1.99777778,5.49777778 L3.99777778,5.49777778 Z M6.49777778,5.49777778 L6.49777778,6 L5.99777778,6 L5.99777778,5.49777778 L6.49777778,5.49777778 Z M3.99777778,4 L3.99777778,4.5 L1.99777778,4.5 L1.99777778,4 L3.99777778,4 Z M3.99777778,2.5 L3.99777778,3 L1.99777778,3 L1.99777778,2.5 L3.99777778,2.5 Z" id="形状结合" fill="#FFAC00"></path>
                    </g>
                </g>
            </g>
        </g>
    </g>
</svg>