<?xml version="1.0" encoding="UTF-8"?>
<svg width="16px" height="18px" viewBox="0 0 16 18" version="1.1" xmlns="http://www.w3.org/2000/svg" xmlns:xlink="http://www.w3.org/1999/xlink">
    <title>lan</title>
    <g id="页面-1" stroke="none" stroke-width="1" fill="none" fill-rule="evenodd">
        <g id="号线专题-gis2" transform="translate(-131.000000, -946.000000)">
            <g id="编组-58备份-4" transform="translate(131.500000, 945.000000)">
                <g id="lan" transform="translate(0.000000, 1.348712)">
                    <path d="M13.7180574,0.25 C14.0930175,0.25 14.2325007,0.280204422 14.3705231,0.354019651 C14.7197956,0.767499342 14.75,0.906982536 14.75,1.2819426 L14.75,13.7180574 C14.75,14.0930175 14.7197956,14.2325007 14.6459803,14.3705231 C14.2325007,14.7197956 14.0930175,14.75 13.7180574,14.75 L1.2819426,14.75 C0.906982536,14.75 0.767499342,14.7197956 0.629476863,14.6459803 C0.280204422,14.2325007 0.25,14.0930175 0.25,13.7180574 L0.25,1.2819426 C0.25,0.906982536 0.280204422,0.767499342 0.354019651,0.629476863 C0.767499342,0.280204422 0.906982536,0.25 1.2819426,0.25 Z" id="矩形备份-38" stroke="#B439FF" stroke-width="0.5" fill-opacity="0.464242788" fill="#3A0071"></path>
                    <polygon id="路径-6" fill="#B439FF" points="5 14.5410731 9.54167055 14.5410731 7.27761104 16.9661455"></polygon>
                    <text id="LAN" font-family="PangMenZhengDao" font-size="6" font-weight="normal" fill="#B439FF">
                        <tspan x="2" y="9.65128824">LAN</tspan>
                    </text>
                </g>
            </g>
        </g>
    </g>
</svg>