<?xml version="1.0" encoding="UTF-8"?>
<svg width="16px" height="18px" viewBox="0 0 16 18" version="1.1" xmlns="http://www.w3.org/2000/svg" xmlns:xlink="http://www.w3.org/1999/xlink">
    <title>OLT备份</title>
    <g id="页面-1" stroke="none" stroke-width="1" fill="none" fill-rule="evenodd">
        <g id="号线专题-gis2" transform="translate(-130.000000, -826.000000)">
            <g id="编组-58备份" transform="translate(130.500000, 825.000000)">
                <g id="OLT备份" transform="translate(0.000000, 1.110215)">
                    <path d="M13.7180574,0.25 C14.0930175,0.25 14.2325007,0.280204422 14.3705231,0.354019651 C14.7197956,0.767499342 14.75,0.906982536 14.75,1.2819426 L14.75,13.7180574 C14.75,14.0930175 14.7197956,14.2325007 14.6459803,14.3705231 C14.2325007,14.7197956 14.0930175,14.75 13.7180574,14.75 L1.2819426,14.75 C0.906982536,14.75 0.767499342,14.7197956 0.629476863,14.6459803 C0.280204422,14.2325007 0.25,14.0930175 0.25,13.7180574 L0.25,1.2819426 C0.25,0.906982536 0.280204422,0.767499342 0.354019651,0.629476863 C0.767499342,0.280204422 0.906982536,0.25 1.2819426,0.25 Z" id="矩形备份-38" stroke="#FF2EF2" stroke-width="0.5" fill-opacity="0.57261391" fill="#690087"></path>
                    <polygon id="路径-6" fill="#FF2EF2" points="5.32007903 14.7795697 9.86174958 14.7795697 7.59769008 17.2046421"></polygon>
                    <text id="OLT" font-family="PangMenZhengDao" font-size="6" font-weight="normal" fill="#FF30F4">
                        <tspan x="2" y="9">OLT</tspan>
                    </text>
                </g>
            </g>
        </g>
    </g>
</svg>