<?xml version="1.0" encoding="UTF-8"?>
<svg width="15px" height="18px" viewBox="0 0 15 18" version="1.1" xmlns="http://www.w3.org/2000/svg" xmlns:xlink="http://www.w3.org/1999/xlink">
    <title>ONU</title>
    <g id="页面-1" stroke="none" stroke-width="1" fill="none" fill-rule="evenodd">
        <g id="号线专题-gis2" transform="translate(-131.000000, -865.000000)">
            <g id="编组-58备份-5" transform="translate(130.500000, 865.000000)">
                <g id="ONU" transform="translate(0.500000, 0.000000)">
                    <path d="M13.7180574,0.25 C14.0930175,0.25 14.2325007,0.280204422 14.3705231,0.354019651 C14.7197956,0.767499342 14.75,0.906982536 14.75,1.2819426 L14.75,13.7180574 C14.75,14.0930175 14.7197956,14.2325007 14.6459803,14.3705231 C14.2325007,14.7197956 14.0930175,14.75 13.7180574,14.75 L1.2819426,14.75 C0.906982536,14.75 0.767499342,14.7197956 0.629476863,14.6459803 C0.280204422,14.2325007 0.25,14.0930175 0.25,13.7180574 L0.25,1.2819426 C0.25,0.906982536 0.280204422,0.767499342 0.354019651,0.629476863 C0.767499342,0.280204422 0.906982536,0.25 1.2819426,0.25 Z" id="矩形备份-38" stroke="#F1FF00" stroke-width="0.5" fill-opacity="0.512212153" fill="#777800"></path>
                    <polygon id="路径-6" fill="#F1FF00" points="4.82007903 14.8897849 9.36174958 14.8897849 7.09769008 17.3148572"></polygon>
                    <text font-family="PangMenZhengDao" font-size="5.5" font-weight="normal" fill="#FFF400">
                        <tspan x="1.5" y="9">ONU</tspan>
                    </text>
                </g>
            </g>
        </g>
    </g>
</svg>