<?xml version="1.0" encoding="UTF-8"?>
<svg width="16px" height="18px" viewBox="0 0 16 18" version="1.1" xmlns="http://www.w3.org/2000/svg" xmlns:xlink="http://www.w3.org/1999/xlink">
    <title>光分纤盒</title>
    <g id="页面-1" stroke="none" stroke-width="1" fill="none" fill-rule="evenodd">
        <g id="号线专题-gis2" transform="translate(-130.000000, -986.000000)">
            <g id="编组-58备份-3" transform="translate(130.500000, 985.000000)">
                <g id="光分纤盒" transform="translate(0.283414, 1.000000)">
                    <path d="M13.7180574,0.25 C14.0930175,0.25 14.2325007,0.280204422 14.3705231,0.354019651 C14.7197956,0.767499342 14.75,0.906982536 14.75,1.2819426 L14.75,13.7180574 C14.75,14.0930175 14.7197956,14.2325007 14.6459803,14.3705231 C14.2325007,14.7197956 14.0930175,14.75 13.7180574,14.75 L1.2819426,14.75 C0.906982536,14.75 0.767499342,14.7197956 0.629476863,14.6459803 C0.280204422,14.2325007 0.25,14.0930175 0.25,13.7180574 L0.25,1.2819426 C0.25,0.906982536 0.280204422,0.767499342 0.354019651,0.629476863 C0.767499342,0.280204422 0.906982536,0.25 1.2819426,0.25 Z" id="矩形备份-38" stroke="#00FF78" stroke-width="0.5" fill-opacity="0.513198959" fill="#003E1D"></path>
                    <polygon id="路径-6" fill="#00FF78" points="5.21658596 14.7795697 9.75825651 14.7795697 7.49419701 17.2046421"></polygon>
                    <g id="网元设备" transform="translate(3.216586, 3.000000)" fill-rule="nonzero">
                        <rect id="矩形" fill="#000000" opacity="0" x="0" y="0" width="8.62141568" height="8.62141568"></rect>
                        <path d="M7.1884421,0.294677294 C7.32315172,0.294677294 7.4401807,0.385606287 7.47385811,0.515264297 L8.41682545,4.14568856 C8.41935125,4.15663371 8.42187706,4.1684208 8.42356093,4.1802079 C8.4252448,4.18778531 8.42608673,4.19115305 8.42608673,4.19536273 C8.4277706,4.20462402 8.4277706,4.20799176 8.4277706,4.2113595 L8.42692867,4.22230465 L8.42692867,7.98996434 C8.42692867,8.15245782 8.29474485,8.28464163 8.13225137,8.28464163 L0.479061086,8.28464163 C0.316567607,8.28464163 0.184383792,8.15245782 0.184383792,7.98996434 L0.185225728,4.20041434 C0.186909598,4.19031112 0.186909598,4.18694338 0.187751533,4.1827337 C0.190277338,4.16757887 0.191961209,4.15579178 0.195328949,4.14484662 L1.13913822,0.515264297 C1.17281563,0.385606287 1.29068655,0.294677294 1.42455423,0.294677294 Z M7.83841602,4.51698195 L0.774580315,4.51698195 L0.774580315,7.69528704 L7.83841602,7.69528704 L7.83841602,4.51698195 Z M1.77624256,5.5786561 C1.96677651,5.46865127 2.20152402,5.46865127 2.39205797,5.5786561 C2.58259192,5.68866093 2.69996567,5.89195824 2.69996567,6.11196789 C2.69996567,6.45207335 2.42425572,6.72778329 2.08415026,6.72778329 C1.74404481,6.72778329 1.46833486,6.45207335 1.46833486,6.11196789 C1.46833486,5.89195824 1.58570861,5.68866093 1.77624256,5.5786561 Z M3.15870003,5.5786561 C3.34923398,5.46865127 3.5839815,5.46865127 3.77451545,5.5786561 C3.9650494,5.68866092 4.08242315,5.89195823 4.08242315,6.11196788 C4.08242315,6.33197753 3.9650494,6.53527484 3.77451545,6.64527967 C3.5839815,6.75528449 3.34923398,6.75528449 3.15870003,6.64527967 C2.96816608,6.53527484 2.85079233,6.33197753 2.85079233,6.11196788 C2.85079233,5.89195823 2.96816608,5.68866092 3.15870003,5.5786561 Z M6.96111961,0.884031881 L1.65271865,0.884031881 L0.861299633,3.92762736 L7.75253863,3.92762736 L6.96111961,0.884031881 Z" id="形状结合" fill="#00FF78"></path>
                    </g>
                </g>
            </g>
        </g>
    </g>
</svg>