<svg xmlns="http://www.w3.org/2000/svg" viewBox="0 0 14 14" class="design-iconfont">
  <path
    d="M9.51132,10.6917996 C9.67156001,10.6916142 9.82530266,10.7551296 9.93868828,10.8683576 C10.0520739,10.9815857 10.11584,11.1352399 10.11584,11.29548 L10.11584,11.29548 L10.11584,12.8366 C10.1157287,12.9967916 10.0519669,13.1503738 9.93858929,13.2635413 C9.82521172,13.3767088 9.67151152,13.4401857 9.51132,13.4400004 L9.51132,13.4400004 L1.30438,13.4400004 C1.14420136,13.4401858 0.990515557,13.3767044 0.877160216,13.2635328 C0.763804875,13.1503613 0.7,12.9967787 0.7,12.8366 L0.7,12.8366 L0.7,11.29548 C0.7,11.1352528 0.763697791,10.9815982 0.877061194,10.8683661 C0.990424597,10.755134 1.14415286,10.6916142 1.30438,10.6917996 L1.30438,10.6917996 Z M9.51132,11.20014 L1.30438,11.20014 C1.25678,11.20014 1.22486,11.23206 1.22486,11.27966 L1.22486,11.27966 L1.22486,12.8205 C1.22486,12.8681 1.25678,12.90002 1.30438,12.90002 L1.30438,12.90002 L9.51132,12.90002 C9.55906,12.90002 9.59098,12.8681 9.59098,12.8205 L9.59098,12.8205 L9.59098,11.27966 C9.59098,11.23192 9.55906,11.20014 9.51132,11.20014 L9.51132,11.20014 Z M2.37006,11.81964 L2.37006,12.31964 L1.89294,12.31964 L1.89294,11.81964 L2.37006,11.81964 Z M8.8116,11.81964 L8.8116,12.31964 L5.63052,12.31964 L5.63052,11.81964 L8.8116,11.81964 Z M8.764,0.7 C8.82742,0.7 8.90708,0.71582 8.93886,0.76356 C8.97064,0.81116 9.00242,0.87472 9.00242,0.93828 L9.00242,0.93828 L8.98646,2.28844 L9.75002,2.60624 L10.73618,1.62134 C10.83166,1.52614 10.97474,1.52614 11.07022,1.62134 L11.07022,1.62134 L12.50172,3.05102 C12.53336,3.09862 12.56514,3.16218 12.56514,3.2256 C12.56514,3.2893 12.54932,3.353 12.50172,3.4006 L12.50172,3.4006 L11.51542,4.38536 L11.81768,5.16376 L13.18548,5.1478 C13.24918,5.1478 13.31274,5.16376 13.36048,5.21136 C13.40808,5.25896 13.42404,5.32252 13.44,5.38608 L13.44,5.38608 L13.40822,7.4354 C13.40822,7.56238 13.29692,7.67354 13.16966,7.67354 L13.16966,7.67354 L11.80186,7.6895 L11.45186,8.4679 L12.51754,9.53232 C12.54946,9.57992 12.58124,9.64348 12.58124,9.70704 C12.58124,9.7706 12.56528,9.83416 12.51754,9.88176 L12.51754,9.88176 L11.0544,11.34336 L10.72022,11.00974 L12.02446,9.70704 L11.00652,8.6905 C10.9440951,8.61513854 10.9260061,8.51245691 10.95892,8.4203 L10.95892,8.4203 L11.43604,7.35602 C11.46782,7.2765 11.54734,7.21308 11.64282,7.21308 L11.64282,7.21308 L12.9311,7.19712 L12.94706,5.6245 L11.65864,5.64046 C11.56344,5.64046 11.46796,5.57676 11.43604,5.48156 L11.43604,5.48156 L11.02248,4.41714 C10.97474,4.3218 11.00666,4.22646 11.07008,4.16304 L11.07008,4.16304 L11.99268,3.2417 L10.89522,2.1455 L9.9568,3.08294 C9.89324,3.14622 9.79776,3.16218 9.70228,3.13054 L9.70228,3.13054 L8.6366,2.68576 C8.55722,2.65398 8.49366,2.5585 8.49366,2.4633 L8.49366,2.4633 L8.50962,1.19238 L6.9349,1.20834 L6.91894,2.51104 C6.91894,2.60638 6.87106,2.70158 6.77586,2.73336 L6.77586,2.73336 L5.69436,3.17814 C5.61484,3.22588 5.5034,3.1941 5.43984,3.13054 L5.43984,3.13054 L4.43786,2.12982 L3.30862,3.25752 L4.32656,4.2742 C4.38890763,4.34954239 4.40699147,4.45214162 4.37416,4.54426 L4.37416,4.54426 L3.89704,5.60868 C3.86526,5.6882 3.78574,5.75176 3.69026,5.75176 L3.69026,5.75176 L2.40198,5.76758 L2.38616,7.10192 L1.90876,7.10192 L1.92472,5.5293 C1.92472,5.40218 2.03616,5.29102 2.16328,5.29102 L2.16328,5.29102 L3.53122,5.27506 L3.88108,4.49666 L2.8154,3.43252 C2.78376,3.38464 2.75184,3.32108 2.75184,3.25752 C2.75184,3.19424 2.7678,3.13054 2.8154,3.08294 L2.8154,3.08294 L4.27882,1.62134 C4.3743,1.52614 4.51738,1.52614 4.61286,1.62134 L4.61286,1.62134 L5.66258,2.66994 L6.45778,2.35214 L6.47374,0.97006 C6.47374,0.84308 6.58518,0.73192 6.7123,0.73192 L6.7123,0.73192 Z M9.51132,7.60998 C9.67156001,7.60979423 9.82530266,7.67330956 9.93868828,7.78653763 C10.0520739,7.89976571 10.11584,8.05341988 10.11584,8.21366 L10.11584,8.21366 L10.11584,9.75478 C10.1157287,9.91497159 10.0519669,10.0685538 9.93858929,10.1817213 C9.82521172,10.2948888 9.67151152,10.3583657 9.51132,10.3581804 L9.51132,10.3581804 L1.30438,10.3581804 C1.14420136,10.3583658 0.990515557,10.2948844 0.877160216,10.1817128 C0.763804875,10.0685413 0.699999935,9.91495873 0.699999935,9.75478 L0.699999935,9.75478 L0.699999935,8.2138 C0.699999935,8.05352424 0.763590638,7.89979771 0.876962111,7.78650503 C0.990333584,7.67321234 1.14410433,7.60965413 1.30438,7.60983959 L1.30438,7.60983959 Z M9.51132,8.13428 L1.30438,8.13428 C1.25678,8.13428 1.22486,8.16606 1.22486,8.21366 L1.22486,8.21366 L1.22486,9.75464 C1.22486,9.80224 1.25678,9.83402 1.30438,9.83402 L1.30438,9.83402 L9.51132,9.83402 C9.55906,9.83402 9.59098,9.80224 9.59098,9.75464 L9.59098,9.75464 L9.59098,8.21366 C9.59098,8.16606 9.55906,8.13428 9.51132,8.13428 L9.51132,8.13428 Z M2.37006,8.73796 L2.37006,9.21452 L1.89294,9.21452 L1.89294,8.73796 L2.37006,8.73796 Z M8.8116,8.73796 L8.8116,9.21452 L5.63052,9.21452 L5.63052,8.73796 L8.8116,8.73796 Z M7.66654,4.40118 C9.01838,4.40118 10.11598,5.51334 10.13166,6.86336 L10.13166,6.86336 L10.13166,7.10178 L9.65454,7.10178 L9.65454,6.86336 C9.65454,5.76744 8.76386,4.87788 7.66654,4.87788 C6.56908,4.87788 5.67854,5.76744 5.67854,6.86336 L5.67854,6.86336 L5.67854,7.10178 L5.20114,7.10178 L5.20114,6.86336 C5.20114,5.49738 6.31442,4.40118 7.6664,4.40118 Z M7.6664,5.98976 C8.14366,5.98976 8.5414,6.38694 8.5414,6.8635 L8.5414,6.8635 L8.54126,7.10178 L8.06414,7.10178 L8.06414,6.8635 C8.06414,6.64104 7.88914,6.46632 7.66654,6.46632 C7.44394,6.46632 7.26894,6.64104 7.26894,6.8635 L7.26894,6.8635 L7.26894,7.10178 L6.79182,7.10178 L6.79182,6.8635 C6.79182,6.38694 7.18928,5.98976 7.6664,5.98976 Z"
    fill="#4BFBFE" fill-rule="nonzero" />
</svg>