<svg xmlns="http://www.w3.org/2000/svg" viewBox="0 0 14 14" class="design-iconfont">
  <path
    d="M11.6504746,10.0749961 L2.34952539,10.0749961 C1.82181836,10.0749961 1.39249414,9.64568555 1.39249414,9.11796484 L1.39249414,3.20388086 C1.39249414,2.67617383 1.82181836,2.24684961 2.34952539,2.24684961 L11.6504746,2.24684961 C12.1781816,2.24684961 12.6075059,2.67617383 12.6075059,3.20388086 L12.6075059,9.11796484 C12.6075059,9.64568555 12.1781816,10.0749961 11.6504746,10.0749961 Z M2.34952539,3.06716211 C2.27413867,3.06716211 2.21280664,3.12849414 2.21280664,3.20388086 L2.21280664,9.11796484 C2.21280664,9.19335156 2.27413867,9.25468359 2.34952539,9.25468359 L11.6504746,9.25468359 C11.7258613,9.25468359 11.7871934,9.19335156 11.7871934,9.11796484 L11.7871934,3.20388086 C11.7871934,3.12849414 11.7258613,3.06716211 11.6504746,3.06716211 L2.34952539,3.06716211 Z M3.9375,8.28007031 C3.83252734,8.28007031 3.72756836,8.24002539 3.64747852,8.15993555 C3.48729883,7.99975586 3.48729883,7.74007227 3.64747852,7.57989258 L5.90333789,5.3240332 C6.06351323,5.16386093 6.32320552,5.16386093 6.48338086,5.3240332 L7.546875,6.38751367 L9.77247852,4.16191016 C9.93264453,4.00173047 10.1923555,4.00173047 10.3525215,4.16191016 C10.5127012,4.32208984 10.5127012,4.58178711 10.3525215,4.7419668 L7.83689648,7.2575918 C7.67673047,7.41775781 7.41701953,7.41775781 7.25685352,7.2575918 L6.19335937,6.19409766 L4.22750781,8.15993555 C4.14743164,8.24002539 4.04245898,8.28007031 3.9375,8.28007031 Z M9.8984375,11.7531504 L4.1015625,11.7531504 C3.87504688,11.7531504 3.69140625,11.5695098 3.69140625,11.3429941 C3.69140625,11.1164785 3.87504688,10.9328379 4.1015625,10.9328379 L9.8984375,10.9328379 C10.1249531,10.9328379 10.3085938,11.1164785 10.3085938,11.3429941 C10.3085938,11.5695098 10.1249531,11.7531504 9.8984375,11.7531504 Z"
    fill="#4BFBFE" fill-rule="nonzero" />
</svg>