<svg xmlns="http://www.w3.org/2000/svg" viewBox="0 0 14 14" class="design-iconfont">
  <path
    d="M2.31998263,2.41785034 C2.84211784,2.41785034 3.2668642,2.8425967 3.2668642,3.36473192 C3.2668642,3.55428017 3.21088803,3.7309938 3.11459715,3.87921134 L6.39918447,9.56733821 C6.46652777,9.6840666 6.46991291,9.82017449 6.42016682,9.93499143 C6.38632237,10.0127287 6.32828614,10.0807061 6.24925474,10.1263012 C5.53217813,10.5402447 5.28567793,11.4604467 5.69962149,12.1775233 C5.97738433,12.6587388 6.48331535,12.9279903 7.00266803,12.9279903 C7.25735217,12.9279903 7.5151462,12.8633372 7.75100728,12.7271565 C8.32142773,12.3978349 8.60917498,11.745084 8.46693814,11.1026449 C8.41816188,10.8820059 8.55745249,10.6634948 8.77809145,10.6147185 C8.99873041,10.5659423 9.21724154,10.7052329 9.26601781,10.9258719 C9.37175428,11.4039775 9.32477848,11.8953411 9.13016444,12.3469308 C8.93145844,12.8078501 8.59608068,13.1844749 8.16020416,13.4360492 C7.79585526,13.6463764 7.3972975,13.7463841 7.00397746,13.7463841 C6.20146054,13.7463841 5.42005818,13.3303127 4.99089249,12.5868838 C4.42110298,11.5999582 4.66121757,10.3640612 5.50345736,9.65373583 L2.41653903,4.30672842 C2.38478608,4.3099586 2.35257408,4.3116135 2.31998263,4.3116135 C1.79784741,4.3116135 1.37310105,3.88686714 1.37310105,3.36473192 C1.37310105,2.8425967 1.79784741,2.41785034 2.31998263,2.41785034 Z M12.8404344,1.31138198 C13.9483759,1.95103854 14.3292563,3.37275218 13.6895998,4.48052997 C13.2602704,5.22395886 12.478868,5.64019393 11.6763511,5.64019393 C11.4137909,5.64019393 11.1489696,5.59562839 10.8935241,5.50342983 L7.78169465,10.8919023 C7.79520773,10.9116839 7.80807241,10.9321225 7.8202434,10.9532062 C8.081311,11.4054506 7.92581619,11.9856918 7.47373548,12.2467594 C7.32773403,12.3310539 7.16585575,12.3741014 7.00168596,12.3741014 C6.91935555,12.3741014 6.83669778,12.3632986 6.75502208,12.3413657 C6.5106497,12.2758942 6.3065423,12.1192536 6.18001863,11.9000878 C6.05349495,11.6810856 6.01994081,11.4259104 6.08541231,11.1815381 C6.15088381,10.9371657 6.30752437,10.7330583 6.52669022,10.6065346 C6.69845612,10.5073791 6.88868605,10.4683144 7.07288012,10.482776 L10.3703583,4.77089608 C10.4409448,4.64854621 10.5651744,4.57651477 10.6962133,4.56726948 L10.7754428,4.56935638 C10.8281985,4.57590353 10.880545,4.59289543 10.929485,4.62113002 C11.6465616,5.03507358 12.5667635,4.78857338 12.9807071,4.07149677 C13.3946506,3.35442016 13.1481504,2.43421822 12.4310738,2.02027466 C11.8606534,1.69095301 11.1514333,1.76820938 10.6662895,2.21243351 C10.4996646,2.36498211 10.2407248,2.35368827 10.0881762,2.18689962 C9.93562758,2.02027466 9.94692142,1.76133487 10.1137101,1.60878627 C10.4747854,1.2781552 10.9239199,1.0732294 11.4123373,1.01594184 C11.9109028,0.9576722 12.4047215,1.05980774 12.8404344,1.31138198 Z M2.31998263,1.04458562 C3.45944282,1.04458562 4.40979522,1.8705035 4.60377245,2.9550719 L10.8065126,2.95541831 L10.8065126,2.95541831 L10.8602488,2.84701603 L10.8602488,2.84701603 C11.1213165,2.39493532 11.7015576,2.23927682 12.153802,2.50034443 C12.3728042,2.62686811 12.5296084,2.83097551 12.5950799,3.07534789 C12.6605514,3.31972026 12.6269973,3.57489544 12.5004736,3.79389761 C12.3251737,4.09752169 12.0061638,4.26725665 11.6786426,4.26725665 C11.5129344,4.26732862 11.3501476,4.2236252 11.2067568,4.1405692 C11.0505656,4.05040457 10.9297902,3.92216901 10.8493527,3.77428393 L4.23093205,3.7739288 C4.0434213,3.7739288 3.88542087,3.64789043 3.83700517,3.4758881 C3.82693047,3.4406431 3.82157149,3.40323304 3.82157149,3.36456824 C3.82157149,2.53651744 3.14786975,1.86297937 2.31998263,1.86297937 C1.4920955,1.86297937 0.818393758,2.53668112 0.818393758,3.36456824 C0.818393758,4.02321154 1.23986654,4.59886971 1.8672472,4.796921 C2.08281211,4.86501136 2.2022976,5.09481633 2.13420724,5.31038124 C2.07921118,5.48502647 1.91798761,5.5964917 1.74416078,5.5964917 C1.70340477,5.5964917 1.66183037,5.59027191 1.62091068,5.57734129 C1.1539352,5.42986673 0.751940185,5.14359259 0.458300505,4.7491268 C0.158441032,4.34647707 0,3.86771672 0,3.36456824 C0,2.08525512 1.04083318,1.04458562 2.31998263,1.04458562 Z"
    fill="#4BFBFE" fill-rule="nonzero" />
</svg>