<?xml version="1.0" encoding="UTF-8"?>
<svg width="74px" height="41px" viewBox="0 0 74 41" version="1.1" xmlns="http://www.w3.org/2000/svg" xmlns:xlink="http://www.w3.org/1999/xlink">
    <title>logo</title>
    <g id="Page-1" stroke="none" stroke-width="1" fill="none" fill-rule="evenodd">
        <g id="logo" transform="translate(0.389945, 0.104658)" fill="#FFFFFF" fill-rule="nonzero">
            <g id="Group">
                <path d="M0,27.5968593 C0.0657595183,27.4772966 0.0555966837,27.3415928 0.0771179806,27.2136607 C0.218799852,26.3546023 0.639660769,25.6551601 1.28529968,25.0830523 C1.80659331,24.6203444 2.40321149,24.3023075 3.09368643,24.1863316 C3.91620217,24.0382108 4.76458082,24.1618059 5.51064764,24.5384439 C6.04352171,24.7977278 6.50704206,25.1801013 6.86290246,25.6539645 C6.87485873,25.6695076 6.88442375,25.6868442 6.90415161,25.7167349 L5.70135024,26.5793803 C5.64156886,26.5662283 5.64156886,26.5148164 5.62243882,26.4789475 C5.37554172,26.0162396 5.03000534,25.6533667 4.53381988,25.4626641 C3.69269586,25.1440293 2.66027142,25.3084281 2.02300191,26.2768865 C1.7634159,26.6807659 1.6149471,27.1459681 1.59257597,27.6255544 C1.5590984,28.1325005 1.6069235,28.6304794 1.80778894,29.1021545 C2.05647948,29.6868164 2.4426672,30.1513177 3.06319793,30.3474007 C3.90013725,30.6104387 4.64142637,30.4442465 5.25298989,29.7944229 C5.40482144,29.6353917 5.53124726,29.4539192 5.62781914,29.2563905 C5.64216667,29.2270976 5.64874262,29.1900331 5.69477429,29.1703053 L6.90594505,30.0425156 C6.74441702,30.2822808 6.55116101,30.4990654 6.33144599,30.6869589 C5.72400842,31.2149611 4.96586818,31.538504 4.16437095,31.6117768 C2.32669132,31.8012838 0.995957796,30.7216321 0.398143993,29.5439389 C0.215391692,29.1829913 0.0987699018,28.7922273 0.0538032423,28.3901583 C0.0542827312,28.3173108 0.03573687,28.2456002 0,28.1821191 L0,27.5968593 Z" id="Path"></path>
                <path d="M29.3765703,34.8339932 C29.6214497,34.5478747 29.9425936,34.3372342 30.3025839,34.2266144 C30.7033755,34.0954065 31.1329351,34.0792514 31.5424497,34.1799849 C31.9254287,34.2751321 32.2592053,34.5095857 32.4786261,34.8375801 C32.5121037,34.8854052 32.54319,34.934426 32.5778632,34.9876314 C32.6341605,34.948929 32.6846812,34.9024339 32.7279145,34.8495364 C33.1188847,34.4561749 33.5780057,34.199115 34.1351681,34.1351489 C34.6773853,34.0753675 35.1867226,34.1494964 35.6159529,34.5213366 C35.9417615,34.8029069 36.11991,35.171758 36.2251252,35.5812605 C36.2995517,35.8945184 36.3346944,36.2158227 36.3297426,36.5377626 C36.3297426,37.6006755 36.3297426,38.6635885 36.3297426,39.7265014 C36.3297426,39.8532379 36.3297426,39.8544336 36.2036039,39.8544336 L35.1514516,39.8544336 C35.0145522,39.8544336 35.0247151,39.865792 35.0247151,39.7288927 L35.0247151,37.551057 C35.0247151,37.1660649 35.0247151,36.780475 35.0247151,36.3954829 C35.0265961,36.1511046 34.9802791,35.908753 34.8884135,35.682291 C34.7473295,35.345124 34.5058127,35.1281176 34.1351681,35.0946401 C33.7352307,35.0587712 33.3926834,35.178334 33.1583404,35.5262616 C33.0169278,35.749903 32.936736,36.0067644 32.9257908,36.2711376 C32.9162258,36.3877113 32.9168236,36.5048828 32.9168236,36.6220543 C32.9168236,37.6463086 32.9168236,38.6701644 32.9168236,39.6936216 C32.9168236,39.8771505 32.9371493,39.8550314 32.751827,39.8556292 C32.4152578,39.8556292 32.0792865,39.8556292 31.7427173,39.8556292 C31.5974486,39.8556292 31.6076114,39.865792 31.6076114,39.7229145 L31.6076114,36.7242805 C31.6076114,36.4516774 31.618372,36.1778787 31.54783,35.9106559 C31.5068204,35.7344352 31.4298922,35.5685713 31.3218564,35.4234377 C31.0964806,35.1394761 30.7939868,35.0527931 30.4478526,35.0988248 C30.0210136,35.1586061 29.7424323,35.4037098 29.5875985,35.7982669 C29.5096186,36.0038221 29.4712806,36.2222881 29.4746117,36.4421124 C29.4746117,37.5249524 29.4746117,38.6075932 29.4746117,39.6900348 C29.4746117,39.8807374 29.4985243,39.8550314 29.3155933,39.8556292 C28.9401662,39.8556292 28.5647391,39.8556292 28.1893121,39.8556292 C28.0171417,39.8556292 28.0368695,39.8771505 28.0368695,39.6972085 C28.0368695,38.0348876 28.0368695,36.3721682 28.0368695,34.7090502 C28.0368695,34.5530208 28.0368695,34.3969914 28.0368695,34.2409619 C28.0368695,34.1769959 28.0595865,34.157268 28.1223569,34.157268 C28.497784,34.1596593 28.8732111,34.1596593 29.2486381,34.157268 C29.3114086,34.157268 29.3317342,34.1793871 29.3347233,34.2415598 C29.3418971,34.4071542 29.3562446,34.5727486 29.3682009,34.7377452 C29.3616249,34.7616578 29.3676031,34.7843747 29.3765703,34.8339932 Z" id="Path"></path>
                <path d="M8.86378526,26.4066121 C8.92834915,26.3420482 8.96840267,26.3013968 9.00905401,26.2613433 C9.6020853,25.6850508 10.5998365,25.511087 11.349495,25.8542321 C11.8139964,26.0676516 12.1093164,26.4341115 12.2916496,26.9021997 C12.42389,27.2545165 12.4897632,27.6282706 12.4859391,28.0045684 C12.4919172,29.116502 12.4859391,30.2278379 12.4859391,31.3391737 C12.4859391,31.453954 12.4859391,31.4551496 12.3621916,31.4551496 L11.3118328,31.4551496 C11.1701509,31.4551496 11.1785203,31.4629212 11.1785203,31.3194459 C11.1785203,30.3151187 11.1785203,29.3107915 11.1785203,28.3064643 C11.1785203,28.0876645 11.1904766,27.867669 11.1504231,27.6488691 C11.125337,27.49483 11.0775925,27.3453515 11.0087412,27.2052913 C10.8527457,26.8689745 10.5131896,26.6561954 10.142509,26.6624764 C9.46877282,26.6439441 9.00666275,27.0337187 8.89008906,27.7014768 C8.86998725,27.8366113 8.86118883,27.9731868 8.86378526,28.1097836 C8.86378526,29.1726965 8.86378526,30.2354102 8.86378526,31.2979246 C8.86378526,31.4772687 8.88052404,31.4575409 8.71074492,31.4581387 L7.55517084,31.4581387 C7.43142338,31.4581387 7.43022776,31.4581387 7.43022776,31.3302065 C7.43022776,31.0032024 7.43022776,30.6767961 7.43022776,30.3503897 L7.43022776,23.3852611 C7.43022776,23.205917 7.43022776,23.205917 7.6095719,23.205917 C7.96826018,23.205917 8.33113316,23.205917 8.69161488,23.205917 C8.89546939,23.205917 8.86498088,23.1790153 8.86498088,23.3852611 C8.86498088,24.3365821 8.86498088,25.2873054 8.86498088,26.2374308 L8.86378526,26.4066121 Z" id="Path"></path>
                <path d="M45.7925373,36.4205911 C45.7925373,35.3481131 45.7925373,34.2752366 45.7925373,33.2019616 C45.7925373,33.0226174 45.7752007,33.0435409 45.9461754,33.0435409 C46.2191771,33.0435409 46.492378,33.0435409 46.7657782,33.0435409 C46.8668087,33.0435409 46.8686021,33.0435409 46.8692,33.1499518 C46.8692,33.4428805 46.8692,33.7352115 46.8692,34.0281402 C46.8692,35.6717297 46.8692,37.3151198 46.8692,38.9583107 C46.8692,39.1454264 46.8518634,39.1203182 47.0335988,39.1203182 L51.2505773,39.1203182 C51.5548645,39.1137423 51.7288284,38.9409741 51.7318174,38.6342956 C51.7318174,37.9318644 51.7318174,37.230031 51.7318174,36.5275997 L51.7318174,33.9085775 C51.7318174,33.8745021 51.7318174,33.8404267 51.7318174,33.8063513 C51.7371978,33.7501568 51.713883,33.7250486 51.6576885,33.7274399 C51.6188306,33.7274399 51.5793749,33.7274399 51.5381258,33.7274399 L47.4012542,33.7274399 C47.1985954,33.7274399 47.2296817,33.7417874 47.2278882,33.5582586 C47.2278882,33.4117942 47.2278882,33.2653298 47.2278882,33.1194633 C47.2278882,33.0632688 47.2476161,33.0381606 47.3044084,33.0429431 C47.3331035,33.0429431 47.3641898,33.0429431 47.392287,33.0429431 L52.0151812,33.0429431 C52.5000082,33.0477256 52.8114692,33.3573931 52.812067,33.8404267 C52.812067,35.1376827 52.812067,36.4349386 52.812067,37.7321946 C52.812067,38.0908828 52.815056,38.4537558 52.812067,38.8148354 C52.8175129,39.2387315 52.547122,39.617085 52.144309,39.7492183 C52.0480006,39.7818371 51.9470823,39.7987914 51.8454021,39.7994347 L45.9162848,39.7994347 C45.7763963,39.7994347 45.796722,39.7994347 45.796722,39.6685135 C45.7939322,38.5860719 45.7925373,37.5034311 45.7925373,36.4205911 Z" id="Path"></path>
                <path d="M17.3623063,26.3755257 C17.3820341,26.3755257 17.395186,26.3755257 17.3993707,26.3701454 C17.687517,26.0174353 18.0725091,25.832113 18.5077175,25.7412453 C18.8371708,25.6682385 19.1773222,25.6570893 19.5108491,25.7083655 C20.2168672,25.8237436 20.6891401,26.2332461 20.9497869,26.8920369 C21.0855141,27.248501 21.1528471,27.627351 21.1482611,28.0087531 C21.1536414,29.1159042 21.1482611,30.2206641 21.1482611,31.3296087 C21.1482611,31.4449868 21.1482611,31.4491715 21.0406546,31.4491715 C20.67001,31.4491715 20.2993655,31.4491715 19.9287209,31.4491715 C19.8229079,31.4491715 19.8211144,31.4491715 19.8205166,31.3296087 C19.8205166,30.8513577 19.8205166,30.3731066 19.8205166,29.8948556 C19.8205166,29.2811001 19.8205166,28.6667468 19.8205166,28.0517956 C19.8256035,27.8519154 19.8016402,27.6523557 19.7493768,27.4593622 C19.6226403,27.0331209 19.3727541,26.7270403 18.9124375,26.6666611 C18.4222302,26.602695 18.0031627,26.7431812 17.7197989,27.1754006 C17.5737562,27.402696 17.496719,27.6674466 17.49801,27.9376132 C17.4920319,28.3811911 17.4950209,28.8253667 17.4950209,29.2689445 C17.4950209,29.9516479 17.4950209,30.634152 17.4950209,31.3164568 C17.4950209,31.4461824 17.4950209,31.447378 17.3706757,31.447378 L16.1864065,31.447378 C16.0668438,31.447378 16.0668438,31.447378 16.0668438,31.3278153 C16.0668438,29.5092657 16.0668438,27.6905168 16.0668438,25.8715687 C16.0668438,25.7573863 16.0668438,25.7555928 16.1738524,25.7555928 C16.5152041,25.7555928 16.8565558,25.7555928 17.1979075,25.7555928 C17.2810036,25.7555928 17.3067096,25.7848857 17.3126877,25.8608081 C17.3258396,26.0299894 17.3455675,26.2027576 17.3623063,26.3755257 Z" id="Path"></path>
                <path d="M20.2658879,37.9767004 L21.3311921,38.7383152 C21.2047349,38.9316762 21.0506597,39.1054891 20.8738646,39.2542285 C20.3069787,39.752789 19.5713028,40.0164008 18.8167873,39.9913329 C17.6163771,39.9680182 16.7423734,39.3983016 16.1768415,38.3521275 C15.9269553,37.8900174 15.8629893,37.3836691 15.8779346,36.8635711 C15.9275532,35.3558847 17.1506802,34.2929717 18.2691898,34.1064538 C19.4421005,33.9085775 20.432678,34.2648745 21.2199987,35.1633886 C21.2644381,35.204415 21.2981071,35.2557397 21.3180402,35.3128421 L20.268877,36.0660875 C20.1849622,35.8975389 20.0792385,35.7407622 19.9544269,35.5997927 C19.6664269,35.2794144 19.2509946,35.1035194 18.8205007,35.1196861 C18.3900069,35.1358527 17.988937,35.3424102 17.7257771,35.6834867 C17.4796609,36.001711 17.3350887,36.3866815 17.3108943,36.7882466 C17.2738298,37.2384004 17.3216549,37.6760001 17.5290963,38.0825134 C17.7299618,38.4752771 18.0240862,38.7717928 18.4628815,38.8901599 C19.0965641,39.0605368 19.6824216,38.8429326 20.0817613,38.2971286 C20.1528788,38.1962207 20.2145166,38.088955 20.2658879,37.9767004 Z" id="Path"></path>
                <path d="M58.3143452,34.4370449 L57.6166965,33.2527757 C57.7822909,33.1541365 57.9454941,33.0590841 58.1069038,32.959847 C58.1666852,32.9221847 58.1941846,32.9634339 58.2264666,32.9981071 C58.4058107,33.1864184 58.5714052,33.3830991 58.7316193,33.585758 C58.8434104,33.7268421 58.9510169,33.8709152 59.0675906,34.0221621 L58.5355363,34.4089476 L58.546297,34.4370449 L59.1536758,34.4370449 C59.2086747,34.4370449 59.2248156,34.391611 59.2481304,34.35634 C59.3814429,34.1524855 59.5129619,33.9474354 59.6456766,33.7429831 C59.7967242,33.5098357 59.9479711,33.2768876 60.0994172,33.0441387 C60.1200084,33.0023068 60.1493695,32.9654016 60.1855024,32.9359344 L60.9136396,33.4596193 L60.1316992,34.4370449 L60.4646815,34.4370449 C60.6111458,34.4370449 60.7576102,34.4400339 60.9034768,34.4370449 C60.9674429,34.4370449 60.9883664,34.4567727 60.9871707,34.5207388 C60.9835838,34.6911157 60.9823882,34.8620905 60.9871707,35.0324674 C60.9871707,35.107792 60.9578779,35.1197482 60.8927161,35.1191504 C60.5412016,35.1191504 60.1902849,35.1191504 59.8393682,35.1191504 C59.8052928,35.1191504 59.7712175,35.1191504 59.7371421,35.1191504 C59.6899148,35.1191504 59.6654044,35.1323023 59.6654044,35.1849099 C59.6654044,35.4921862 59.6654044,35.7994625 59.6654044,36.1067388 C59.6654044,36.147988 59.682741,36.1665202 59.7251858,36.1665202 C59.7676306,36.1665202 59.8130644,36.1665202 59.8567048,36.1665202 L60.8807599,36.1665202 C60.9817904,36.1665202 60.982986,36.1665202 60.9841817,36.2711376 C60.9841817,36.417602 60.9841817,36.5640664 60.9841817,36.709933 C60.9841817,36.8557995 60.9997248,36.8456367 60.8538583,36.8462345 L59.8088797,36.8462345 L61.1838515,39.9112259 C60.9088571,39.9112259 60.6565797,39.9112259 60.4066935,39.9112259 C60.1358839,39.907639 60.2118062,39.9572575 60.1024063,39.7151429 C59.8172491,39.0844494 59.5368744,38.4525602 59.2547063,37.8212688 C59.233185,37.7728459 59.2098703,37.724423 59.1865556,37.6754022 C59.151418,37.7119378 59.1270129,37.7574388 59.1160135,37.8069213 C58.9079743,38.3270193 58.6933592,38.844726 58.4966784,39.3690087 C58.3822353,39.7081426 58.0567051,39.930206 57.6991948,39.9130193 C57.5682736,39.9052477 57.4361567,39.9130193 57.2807252,39.9130193 C57.473819,39.3911279 57.6776735,38.8883665 57.8737564,38.382616 C58.0698394,37.8768655 58.2677157,37.3663325 58.4715702,36.8480279 C58.1726633,36.8480279 57.8887018,36.8480279 57.6065337,36.8480279 C57.4487108,36.8480279 57.4654496,36.8665602 57.4648518,36.7093351 C57.4648518,36.5634686 57.4648518,36.4170042 57.4648518,36.2705398 C57.4648518,36.1707049 57.4648518,36.1695093 57.5712627,36.1689115 L58.4488533,36.1689115 C58.6012958,36.1689115 58.5953177,36.1892371 58.5953177,36.0164689 C58.5953177,35.7629959 58.5953177,35.5095228 58.5953177,35.2560498 C58.5953177,35.1054007 58.6066762,35.1197482 58.4643965,35.1197482 L57.5820233,35.1197482 C57.4624605,35.1197482 57.4624605,35.1197482 57.4624605,35.004968 C57.4624605,34.8441561 57.4624605,34.6827463 57.4624605,34.5219344 C57.4624605,34.4579684 57.483384,34.4382405 57.5461545,34.4388383 C57.7607696,34.4424252 57.9753848,34.4388383 58.1899999,34.4388383 L58.3143452,34.4370449 Z" id="Path"></path>
                <path d="M50.8625962,37.7555093 C51.0287884,37.7555093 51.1615031,37.7555093 51.2918265,37.7555093 C51.3516079,37.7555093 51.3791073,37.7734437 51.3780171,37.8386054 C51.3780171,38.0137649 51.3780171,38.1895221 51.3780171,38.3652794 C51.3780171,38.4250608 51.3557926,38.4453864 51.3001959,38.4423974 C51.2715008,38.4423974 51.2404145,38.4423974 51.2129151,38.4423974 L47.3510379,38.4423974 C47.2314751,38.4423974 47.2314751,38.4423974 47.2278882,38.3228346 C47.2278882,38.176968 47.2278882,38.0307029 47.2278882,37.8840393 C47.2278882,37.7567049 47.2278882,37.7555093 47.3534291,37.7555093 L48.5090032,37.7555093 C48.543055,37.7537141 48.5771776,37.7537141 48.6112294,37.7555093 C48.6787823,37.7626831 48.6925321,37.7298033 48.6919342,37.6694241 C48.6919342,37.3478003 48.6877495,37.0261765 48.6919342,36.7045526 C48.6919342,36.6196631 48.6548698,36.6106959 48.586719,36.6112937 C48.1963466,36.6112937 47.8095611,36.6112937 47.4161996,36.6112937 C47.3821242,36.6112937 47.3480488,36.6112937 47.3139734,36.6112937 C47.270333,36.6112937 47.2541921,36.5915658 47.2541921,36.5515123 C47.2541921,36.36619 47.2541921,36.1808677 47.2541921,35.9955455 C47.2541921,35.9519051 47.2745177,35.9357641 47.3139734,35.9357641 C47.3534291,35.9357641 47.3821242,35.9357641 47.4161996,35.9357641 C47.8059742,35.9357641 48.1933575,35.9357641 48.5861212,35.9357641 C48.6584567,35.9357641 48.6901408,35.9214165 48.6883474,35.8401139 C48.6835649,35.6209155 48.6835649,35.4017171 48.6883474,35.1825187 C48.6883474,35.1042051 48.6632392,35.0844772 48.5885125,35.085075 C48.1987379,35.0880641 47.8083654,35.085075 47.4185908,35.085075 C47.3839176,35.085075 47.3498423,35.085075 47.3157669,35.085075 C47.2816915,35.085075 47.2518008,35.0731188 47.2518008,35.0282827 C47.2518008,34.8373809 47.2518008,34.6470768 47.2518008,34.4573705 C47.2518008,34.4203061 47.2733221,34.4071542 47.3073975,34.4071542 L51.1836222,34.4071542 C51.3629663,34.4071542 51.3420428,34.3946001 51.3432385,34.5595967 C51.3432385,34.6791595 51.3432385,34.7939397 51.3432385,34.9111112 C51.3432385,35.1089876 51.3689445,35.0844772 51.1758506,35.085075 C50.7663481,35.085075 50.3568457,35.085075 49.9473432,35.085075 L49.8744099,35.085075 C49.76501,35.085075 49.7638144,35.085075 49.7638144,35.1968662 C49.7638144,35.4066989 49.7638144,35.6153359 49.7638144,35.8257663 C49.7638144,35.9453291 49.7674013,35.9345685 49.8785946,35.9345685 L51.1728615,35.9345685 C51.2075347,35.9345685 51.2416101,35.9345685 51.2756855,35.9345685 C51.33188,35.9303838 51.3528035,35.9531007 51.3522057,36.0104908 C51.3492166,36.1760852 51.3522057,36.3416797 51.3522057,36.5078719 C51.3522057,36.6095002 51.3522057,36.6095002 51.2469904,36.6118915 L49.8971269,36.6118915 C49.7674013,36.6118915 49.7679991,36.5969461 49.7679991,36.7362368 L49.7679991,37.6431203 C49.7679991,37.6574678 49.7679991,37.6724132 49.7679991,37.6867607 C49.7632166,37.7363793 49.7829444,37.7561071 49.8343564,37.7555093 C50.0627213,37.7555093 50.2910862,37.7555093 50.551733,37.7555093 L49.9724514,37.1122616 C50.0997858,36.9855251 50.2271201,36.8599842 50.352661,36.7326499 C50.3843451,36.7009657 50.4088555,36.7087373 50.4405396,36.7326499 C50.6877839,36.9067136 50.9249029,37.0947322 51.1507424,37.2957905 C51.1896003,37.3304637 51.18422,37.3555719 51.1507424,37.3932341 C51.062266,37.5032319 50.9731917,37.6174143 50.8625962,37.7555093 Z" id="Path"></path>
                <path d="M66.0584252,39.7785112 C65.1174663,39.7785112 64.1765074,39.7725331 63.2355484,39.7815003 C62.9091421,39.7815003 62.5014331,39.5423748 62.3986091,39.1286876 C62.3796287,39.0330769 62.3722025,38.9355322 62.37649,38.8381501 L62.37649,35.9883717 C62.37649,35.9536985 62.37649,35.9196231 62.37649,35.8855477 C62.3800769,35.8293532 62.3537731,35.8072341 62.2987742,35.8078319 C62.1863852,35.8078319 62.0739962,35.8078319 61.962205,35.8078319 C61.8910652,35.8078319 61.856392,35.7928866 61.8593811,35.7109861 C61.8647614,35.5453917 61.8635658,35.3797972 61.8593811,35.213605 C61.8593811,35.1448564 61.8797067,35.1209439 61.9508466,35.1209439 C62.404388,35.1237337 62.8579294,35.1237337 63.3114708,35.1209439 C63.3838063,35.1209439 63.4059254,35.1484433 63.4017407,35.2159963 C63.397556,35.2692017 63.4017407,35.3230049 63.4017407,35.3768082 C63.4017407,36.4253736 63.4017407,37.4737397 63.4017407,38.5219066 C63.4017407,38.581688 63.4017407,38.6414694 63.4059254,38.6976638 C63.421249,38.9106385 63.5899949,39.080401 63.8028737,39.0970035 C63.8560792,39.101786 63.9098824,39.0970035 63.9636857,39.0970035 L68.9524418,39.0970035 C69.0606461,39.0970035 69.0618418,39.0970035 69.0624894,39.2087947 C69.0624894,39.3600415 69.0624894,39.5112884 69.0624894,39.6625353 C69.0624894,39.7874784 69.0666243,39.7779134 68.9428768,39.7779134 L66.0584252,39.7779134 L66.0584252,39.7785112 Z" id="Path"></path>
                <path d="M13.5661886,28.5814587 L13.5661886,25.8912966 C13.5661886,25.7119524 13.558417,25.7304847 13.7210224,25.7298868 L14.7731747,25.7298868 C14.8987156,25.7298868 14.8999112,25.7298868 14.8999112,25.8590146 C14.8999112,26.5309573 14.8999112,27.2032986 14.8999112,27.8760384 C14.8999112,29.0067036 14.8999112,30.1369702 14.8999112,31.2668383 C14.8999112,31.4629212 14.9238238,31.4413999 14.7325234,31.4419977 C14.3863892,31.4419977 14.040255,31.4419977 13.6947186,31.4419977 C13.5679821,31.4419977 13.5667864,31.4419977 13.5667864,31.3134678 C13.5663879,30.4047908 13.5661886,29.4941211 13.5661886,28.5814587 Z" id="Path"></path>
                <path d="M14.8999112,37.0190027 L14.8999112,39.6493834 C14.8999112,39.8532379 14.8999112,39.8532379 14.688883,39.8532379 L13.6803711,39.8532379 C13.5691777,39.8532379 13.5667864,39.8532379 13.5667864,39.7414467 C13.5667864,39.2733585 13.5667864,38.8058681 13.5667864,38.3377799 C13.5667864,37.0022639 13.5667864,35.6671464 13.5667864,34.3324275 C13.5667864,34.1273773 13.5512433,34.157268 13.7491197,34.1566702 C14.0904713,34.1566702 14.431823,34.1566702 14.7725769,34.1566702 C14.8987156,34.1566702 14.8999112,34.1566702 14.8999112,34.2852002 C14.9007083,35.1958699 14.9007083,36.1071374 14.8999112,37.0190027 Z" id="Path"></path>
                <path d="M13.4508106,32.8044154 C13.4549953,32.3620332 13.7873797,32.044594 14.242316,32.0475831 C14.6972523,32.0505722 15.0242565,32.3793698 15.019474,32.8349039 C15.0140937,33.2617429 14.6787201,33.5678236 14.2195991,33.5642367 C13.7706409,33.5612477 13.4508106,33.2426129 13.4508106,32.8044154 Z" id="Path"></path>
                <path d="M14.242316,23.6351473 C14.5489945,23.6381363 14.7958916,23.75471 14.9345844,24.0368781 C15.0684947,24.3094812 15.0637122,24.5874647 14.8825746,24.8397421 C14.6805136,25.1213124 14.3863892,25.190061 14.0635697,25.1356599 C13.783302,25.1001451 13.5537879,24.8958157 13.4860816,24.62154 C13.4017898,24.3226331 13.4603756,24.0506279 13.6923273,23.831828 C13.8419182,23.6952565 14.0400445,23.6244048 14.242316,23.6351473 L14.242316,23.6351473 Z" id="Path"></path>
                <path d="M63.5476072,34.2899827 L62.8302307,34.8166566 L61.93351,33.5851602 L62.4320867,33.2264719 C62.4823031,33.1906031 62.5133894,33.2336457 62.5462691,33.2587539 C62.7837951,33.4458909 63.0051679,33.6526655 63.208049,33.8768933 C63.3282764,34.0086478 63.4416136,34.1465282 63.5476072,34.2899827 Z" id="Path"></path>
                <path d="M12.4859391,36.4104282 C12.488806,36.0340505 12.4223365,35.6603626 12.2898562,35.3080596 C12.0650782,34.7329627 11.6699232,34.3354165 11.0685226,34.1662352 C10.6751479,34.0634966 10.2628528,34.0567309 9.866319,34.1465074 C9.42991493,34.2331904 9.04492284,34.4161214 8.75079845,34.7628534 C8.74123343,34.7742119 8.73107059,34.7825813 8.7011799,34.7730162 C8.69759302,34.7377452 8.69400614,34.6958983 8.68982144,34.6534535 C8.67607172,34.5177497 8.66112638,34.382046 8.6491701,34.2457445 C8.64378978,34.1805828 8.61748597,34.1554746 8.54813957,34.1560724 C8.20200538,34.1596593 7.85587118,34.1560724 7.50973699,34.1560724 C7.40870646,34.1560724 7.4063152,34.1560724 7.4063152,34.2630811 C7.4063152,34.5847049 7.4063152,34.9063287 7.4063152,35.2279525 C7.4063152,36.2027876 7.4063152,37.1778219 7.4063152,38.1530555 C7.39703257,38.3322795 7.39703257,38.5118639 7.4063152,38.6910879 C7.4063152,39.0420046 7.40213051,39.3923235 7.40153269,39.7432402 C7.40153269,39.8514445 7.40153269,39.8532379 7.51511732,39.8532379 C7.90050795,39.8532379 8.28569931,39.8532379 8.6706914,39.8532379 C8.85601368,39.8532379 8.83389457,39.8783461 8.83389457,39.6918282 C8.83389457,38.6289153 8.83389457,37.5662016 8.83389457,36.5036872 C8.83195655,36.372026 8.8411558,36.2404366 8.861394,36.1103257 C8.94688137,35.6087599 9.26551613,35.1155635 9.97930581,35.0653472 C10.4659262,35.030674 10.8461358,35.2620279 11.0302625,35.7139752 C11.0970963,35.8764732 11.1361005,36.049062 11.1456405,36.2245081 C11.1516187,36.3362993 11.1534121,36.4486883 11.1534121,36.5604795 C11.1534121,37.6138274 11.1534121,38.6669761 11.1534121,39.7199255 C11.1534121,39.865792 11.1462384,39.8538357 11.2879202,39.8538357 L12.3747457,39.8538357 C12.4859391,39.8538357 12.4877325,39.8538357 12.4877325,39.7432402 C12.4889282,38.6331 12.4943085,37.5217641 12.4859391,36.4104282 Z" id="Path"></path>
                <path d="M61.8832936,20.9682999 C59.9057256,18.9943187 57.9297517,17.0189426 55.955372,15.0421717 C55.9141228,15.0009225 55.8668955,14.9662493 55.8274398,14.9333696 C55.8511195,14.8831968 55.886358,14.8393536 55.9302638,14.8054374 C56.2327576,14.5009509 56.5360484,14.1972615 56.8401364,13.8943692 C58.5337429,12.2019583 60.2375122,10.5197102 61.917369,8.81295184 C63.3473396,7.35966649 63.8070584,5.61763707 63.2445157,3.65979686 C62.5642035,1.29484546 60.279957,-0.210449699 57.8253335,0.0274801953 C56.7739875,0.123920546 55.7795692,0.548456629 54.9827289,1.24104221 C54.6712679,1.50766717 54.3944801,1.81075877 54.102747,2.09830721 C53.8839471,2.31352018 53.6675385,2.53172222 53.4511299,2.74813081 C53.4036797,2.72008652 53.361744,2.68362067 53.3273825,2.64052433 C52.9053259,2.22205467 52.4994104,1.78385715 52.0594194,1.38511534 C50.7137405,0.166172997 49.1402946,-0.250503224 47.3707657,0.144053886 C46.1751381,0.410678842 45.2132557,1.0628937 44.4647928,2.03135206 C43.3612286,3.46072486 43.1071577,5.46997706 43.8197518,7.12831255 C44.0994769,7.773942 44.5014124,8.35938747 45.0034231,8.85240755 C46.9849766,10.8299756 48.9647366,12.8089386 50.9427032,14.7892964 C50.9901587,14.829084 51.0305777,14.8765763 51.062266,14.9297827 C51.0287884,14.9566843 50.9959086,14.9788034 50.9684092,15.005705 C49.7233623,16.2503534 48.4783154,17.495201 47.2332686,18.7402479 C46.4321981,19.5401227 45.6215626,20.3298348 44.8360352,21.144655 C43.3246645,22.7274474 42.9829385,25.0943785 43.9848894,27.0400321 C44.9868403,28.9856857 47.1121243,30.0821836 49.2783896,29.7711081 C50.25997,29.6364589 51.1804123,29.2165643 51.9255091,28.5635243 C52.2722411,28.2646174 52.5831043,27.9232657 52.9077172,27.6016419 C53.0870613,27.4270802 53.2592317,27.2507252 53.4421627,27.0677941 C53.8409045,27.4665359 54.2276901,27.851528 54.6138778,28.2377157 C54.7808913,28.4082716 54.9586027,28.5680122 55.1459321,28.7159668 C56.3080821,29.6126875 57.6166965,29.964202 59.0711775,29.7657278 C59.8423832,29.6640959 60.5779524,29.3789296 61.2161334,28.9341688 C62.4010004,28.1091858 63.1357135,26.9870893 63.3885888,25.5619012 C63.5783984,24.5121972 63.4299836,23.429334 62.9647388,22.4694104 C62.6945913,21.9097812 62.3285886,21.4017475 61.8832936,20.9682999 Z M47.3468532,6.43664198 C46.9618611,6.04925863 46.766376,5.59193107 46.7872995,5.043138 C46.834352,4.21478809 47.4495308,3.52982121 48.2680843,3.39436753 C48.8395943,3.30888016 49.3441491,3.45414891 49.7626188,3.85049946 C50.1996207,4.26896913 50.6162969,4.70656883 51.0521031,5.14655979 L49.1522509,7.04700987 C49.199577,7.08147975 49.2450727,7.1183951 49.2885524,7.15760542 C50.0035377,7.87019947 50.717726,8.58339134 51.4311171,9.29718102 C51.4514428,9.31750669 51.4741597,9.33723455 51.4908985,9.3569624 C51.5261695,9.400005 51.5596471,9.40538532 51.5973093,9.3569624 C51.6161052,9.33593525 51.6360636,9.3159769 51.6570907,9.29718102 C52.2122605,8.74240981 52.7674302,8.18743933 53.3226,7.63226958 C53.3566754,7.59759638 53.3823813,7.55634723 53.4272174,7.50373961 L55.3145156,9.39342904 C55.3695144,9.39342904 55.3880467,9.35397333 55.4137526,9.32826734 C56.1490636,8.59494908 56.8837768,7.861033 57.6178921,7.1265191 C57.6309365,7.11188084 57.6449147,7.09810231 57.6597391,7.08526995 C57.7027817,7.05119457 57.7093576,7.01771699 57.663326,6.98005472 C57.6370222,6.95793561 57.6149031,6.9316318 57.5903927,6.90771925 C57.0392084,6.35613638 56.4876255,5.80455351 55.9356441,5.25297065 C55.8955325,5.21750386 55.8534169,5.18437027 55.8095054,5.15373355 C55.8495589,5.11009315 55.8692868,5.08797404 55.8890146,5.06764837 L57.0475778,3.90908522 C57.4265917,3.53066908 57.8845171,3.34175992 58.4183648,3.37105279 C59.248299,3.41358243 59.9359272,4.02973318 60.0689287,4.85004414 C60.1633833,5.4634011 59.9774632,5.98589037 59.5428526,6.42109882 C58.8792793,7.09224445 58.2125176,7.76159663 57.5425676,8.42915538 C56.2118341,9.75988891 54.8812998,11.0908217 53.5509648,12.4219538 C53.5141011,12.4626092 53.4795718,12.5053218 53.447543,12.5498859 C53.393978,12.5300452 53.347416,12.4949159 53.3136328,12.4488554 C51.325304,10.4465777 49.3363775,8.44250656 47.3468532,6.43664198 Z M58.5917308,26.4299268 C58.0303837,26.5100338 57.5330026,26.3635695 57.1252936,25.9749905 C56.6847048,25.5565208 56.2650395,25.112943 55.8256464,24.669963 L57.7063686,22.7988058 C57.6827274,22.7521525 57.6490398,22.711319 57.6077293,22.679243 C56.8875629,21.9582796 56.166998,21.2377147 55.4460346,20.5175483 C55.3228849,20.3943986 55.35158,20.3902139 55.2260391,20.5175483 C54.6724635,21.071921 54.1184894,21.6270907 53.5641167,22.1830575 C53.5264545,22.2213176 53.4971616,22.2667515 53.4385758,22.3402826 C53.4043222,22.2859295 53.3663711,22.2339964 53.3249912,22.184851 C52.7742054,21.6320725 52.2228218,21.0800911 51.6708404,20.5289068 C51.6469279,20.5043964 51.6212219,20.4822773 51.598505,20.4565713 C51.5668208,20.4207025 51.5387236,20.4129309 51.5022569,20.4529844 C51.4897028,20.4679297 51.4747575,20.4804838 51.4610078,20.4942336 L49.2371404,22.7169053 C49.2168148,22.7378288 49.1982825,22.7599479 49.1773591,22.7832626 L51.0532988,24.6639848 C51.0300517,24.7122409 50.9958675,24.7544082 50.9534639,24.7871345 C50.5780368,25.1637572 50.2024105,25.539782 49.8265848,25.9152091 C49.4776104,26.2803017 48.987114,26.4755839 48.4826994,26.4502525 C47.6409105,26.4194521 46.9390611,25.7963101 46.8088208,24.9640874 C46.724529,24.3925774 46.8686021,23.8880225 47.270333,23.4695528 C47.7838551,22.9357051 48.3117247,22.4150093 48.8330183,21.8883353 C50.3191834,20.3890183 51.8053485,18.889502 53.2915136,17.3897865 C53.3291759,17.3515264 53.36086,17.307886 53.4182502,17.2397352 C53.4528963,17.2884283 53.4900092,17.3353182 53.5294435,17.3802215 C55.5221562,19.3729341 57.5148689,21.3656468 59.5075816,23.3583595 C59.7344292,23.5738752 59.9067593,23.8402594 60.010343,24.1355174 C60.3552815,25.1625615 59.6618175,26.2786799 58.5941221,26.4299268 L58.5917308,26.4299268 Z" id="Shape"></path>
                <path d="M46.0370431,14.8957073 L47.9297216,13.0018332 L47.8842878,12.9534102 L45.6496598,10.7199779 C45.6359101,10.7062282 45.6209647,10.6936741 45.6084107,10.6787287 C45.5994898,10.6635966 45.583233,10.6543089 45.565667,10.6543089 C45.548101,10.6543089 45.5318442,10.6635966 45.5229233,10.6787287 C45.4996085,10.7038369 45.4745004,10.7271516 45.4505878,10.7510642 C44.8958166,11.3058354 44.3406468,11.8606066 43.7850786,12.4153778 C43.7475815,12.4634523 43.6992348,12.5019657 43.6439945,12.5277668 C43.6174011,12.4889647 43.5884524,12.4518305 43.5573115,12.4165734 C43.1507981,12.0094622 42.7514585,11.5951773 42.3341845,11.1994245 C40.6007876,9.54306422 37.9526343,9.30471306 35.9513265,10.6249255 C34.1654639,11.7996045 33.2981441,13.9607519 33.7764799,16.0441076 C34.0897343,17.4190793 34.8525447,18.4951442 36.0445854,19.2525743 C37.108694,19.9292995 38.2762244,20.1696207 39.526253,19.99207 C40.4829946,19.8609211 41.3812508,19.4553976 42.1123955,18.8245396 C42.5063548,18.4891661 42.8530868,18.104174 43.2213401,17.7418988 C43.3707936,17.5954344 43.517258,17.4429919 43.684048,17.2773975 C43.7172207,17.3230473 43.7527387,17.366946 43.7904589,17.4089165 C44.3547951,17.9752455 44.9201277,18.540578 45.4864566,19.1049143 C45.5647702,19.1838257 45.5659659,19.1826301 45.6430839,19.1079033 L45.6741702,19.076817 C46.3915467,18.3594405 47.1089233,17.6420639 47.8262999,16.9246873 C47.8703736,16.8871481 47.9169076,16.8525971 47.9655905,16.8212655 L46.0370431,14.8957073 Z M39.9393424,16.2437774 C39.4282116,16.7052897 38.8106699,16.8051246 38.165031,16.5624122 C37.5313484,16.3232866 37.1547257,15.8522094 37.0417389,15.1808645 C36.8931444,14.2612321 37.4883837,13.3855561 38.3981784,13.185362 C38.9840359,13.056832 39.5184814,13.185362 39.9602658,13.5924732 C40.3625945,13.9613243 40.7374238,14.3594683 41.1260028,14.7438626 C41.1774147,14.7952746 41.2348049,14.8407084 41.2838256,14.883751 C40.823509,15.3512414 40.4032459,15.8229165 39.9375489,16.2437774 L39.9393424,16.2437774 Z" id="Shape"></path>
                <path d="M73.1598554,15.0726602 C73.1556707,14.9118483 73.1598554,14.7504385 73.1598554,14.5896266 C73.1615661,14.4678751 73.1563767,14.3461245 73.1443122,14.2249602 C73.0429626,13.4482369 72.7623715,12.7057245 72.3247095,12.0560917 C71.2175667,10.3921847 69.243479,9.52453848 67.2689982,9.83401782 C66.2430339,9.98054546 65.2889275,10.4453665 64.5411738,11.1629579 C64.1131391,11.5682757 63.7042345,11.9933213 63.2857648,12.4093997 C63.2447421,12.4577156 63.1953259,12.4982207 63.1398982,12.5289624 C63.1116477,12.4869752 63.0804848,12.4470228 63.0466393,12.4093997 C62.4858899,11.8466576 61.9241442,11.2843141 61.3614022,10.7223691 C61.2603716,10.6213386 61.2759148,10.6303058 61.182058,10.7223691 L61.1617324,10.7432926 C60.4407689,11.4638575 59.7200047,12.1844224 58.9994398,12.9049873 C58.9597433,12.9360078 58.9266185,12.9746195 58.9019962,13.0185719 L60.7976638,14.9184242 C60.745654,14.960869 60.7020135,14.9913575 60.6643513,15.028422 C60.0984209,15.5931567 59.5326897,16.1584893 58.9671579,16.7244197 C58.8744968,16.816483 58.8900399,16.8075158 58.963571,16.8810469 L61.1880362,19.1049143 C61.2663498,19.1832279 61.2675454,19.1820323 61.3452612,19.1049143 C61.3631956,19.0881755 61.3799344,19.0702411 61.397271,19.0535023 C61.9456655,18.5055063 62.4936615,17.9569125 63.041259,17.4077209 C63.0851571,17.356983 63.1262675,17.3038987 63.1644086,17.2487024 C63.1995083,17.3040248 63.2382527,17.3569487 63.2803845,17.4071231 C63.641464,17.7705939 64.0033406,18.132869 64.3660143,18.4939486 C64.5504176,18.6818896 64.7486501,18.8557427 64.9590456,19.0140466 C66.1887486,19.9161476 67.5595357,20.2419561 69.0510811,19.943647 C70.6173533,19.6303926 71.7926552,18.7480194 72.5668241,17.3503308 C72.9589899,16.6467039 73.1801811,15.8892738 73.1598554,15.0726602 Z M68.4000619,16.6449105 C67.8423016,16.755506 67.321008,16.6383345 66.9055274,16.2503534 C66.4422217,15.8199274 66.0153826,15.3506436 65.5688157,14.8939138 C65.564631,14.9004898 65.5688157,14.8867401 65.5801742,14.8771751 C66.0082089,14.4509338 66.4236895,14.0115407 66.8666695,13.6014404 C67.7358908,12.796783 69.1449379,13.0819402 69.6500905,14.1526247 C69.8837042,14.644682 69.8775138,15.2169445 69.6333104,15.703833 C69.389107,16.1907215 68.9341444,16.5378982 68.4000619,16.6449105 Z" id="Shape"></path>
                <path d="M44.7397872,34.5912808 C44.7385033,34.4286171 44.6784111,34.2719104 44.5706059,34.1500943 C44.4044137,33.9534135 44.1903963,33.878089 43.9357276,33.8798824 C43.2530243,33.8846649 42.5703209,33.8798824 41.8876175,33.8798824 C41.760881,33.8798824 41.7596854,33.8798824 41.7596854,33.7531459 C41.7596854,33.5092379 41.7596854,33.2653298 41.7596854,33.0214218 C41.7596854,32.9449016 41.7363706,32.9221847 41.6598505,32.9232563 C41.3382267,32.9269672 41.016005,32.927565 40.6943812,32.9232563 C40.6154698,32.9232563 40.5945463,32.9496841 40.5957419,33.023813 C40.5957419,33.2432107 40.5957419,33.4626084 40.5957419,33.6814082 C40.5957419,33.9103709 40.6184588,33.878089 40.4056371,33.8792846 C40.0152647,33.8792846 39.6284792,33.8792846 39.2351177,33.8792846 C39.1574019,33.8792846 39.134685,33.9031971 39.1370762,33.9785217 C39.1418587,34.1291708 39.1370762,34.2804177 39.1370762,34.4316646 C39.1370762,34.5829114 39.12512,34.5607923 39.2739756,34.5607923 L40.4881354,34.5607923 C40.592155,34.5607923 40.5945463,34.5607923 40.5945463,34.6630185 C40.5945463,35.520682 40.5945463,36.3787441 40.5945463,37.2372047 C40.5945463,37.3406265 40.5945463,37.3430178 40.4917223,37.3430178 C39.9552841,37.3430178 39.4190451,37.3430178 38.8830054,37.3430178 C38.7795836,37.3430178 38.7771923,37.3430178 38.7771923,37.2389982 C38.7771923,36.9562322 38.7771923,36.6728685 38.7771923,36.3901026 L38.7771923,34.0072168 C38.7771923,33.871513 38.787953,33.881078 38.6504558,33.881078 L37.7453657,33.881078 C37.6102598,33.881078 37.6198248,33.8727086 37.6198248,34.0084124 L37.6198248,35.9536985 C37.6198248,36.6073083 37.6198248,37.2607187 37.6198248,37.91393 C37.6198248,38.0263189 37.6198248,38.0275146 37.731616,38.0287102 C37.8774826,38.0287102 38.0239469,38.0287102 38.1704113,38.0287102 L40.4672119,38.0287102 C40.5963397,38.0287102 40.5969375,38.0287102 40.5975354,38.1530555 C40.5975354,38.2995199 40.5975354,38.4459842 40.5975354,38.5924486 C40.5975354,39.0208818 40.5975354,39.4499129 40.5975354,39.8795417 C40.5975354,39.9937242 40.5975354,39.9925285 40.7075331,39.9961154 C40.8296561,39.9989413 40.9517256,39.9885183 41.0716017,39.9650291 C41.4565938,39.8944871 41.6795783,39.6840566 41.74474,39.3307487 C41.7559215,39.2585811 41.7605237,39.1855469 41.7584898,39.1125466 C41.7584898,38.7957053 41.7584898,38.478864 41.7584898,38.1614249 C41.7584898,38.0305036 41.7584898,38.0305036 41.8810416,38.0287102 L43.6404076,38.0287102 C43.7136687,38.0292161 43.7869047,38.0258237 43.8598053,38.0185474 C44.3511196,37.964195 44.7272859,37.5561501 44.7415806,37.0620453 C44.7457653,36.2394535 44.7415806,35.4150683 44.7397872,34.5912808 Z M43.1023752,37.3472025 C42.6934705,37.3370396 42.2833703,37.3472025 41.8738678,37.3442134 C41.7626745,37.3442134 41.760881,37.3442134 41.760881,37.2336178 C41.760881,36.8043875 41.760881,36.3751572 41.760881,35.9459269 C41.760881,35.5166966 41.760881,35.0924481 41.760881,34.6731813 C41.760881,34.5637814 41.760881,34.5625858 41.8738678,34.561988 L43.4670416,34.561988 C43.5734525,34.561988 43.5746481,34.561988 43.5746481,34.6767682 C43.5746481,35.4078945 43.5704634,36.1396186 43.5746481,36.8707449 C43.5795043,36.9978036 43.5314507,37.1211866 43.4419384,37.2114921 C43.3524262,37.3017975 43.2294719,37.3509376 43.1023752,37.3472025 Z" id="Shape"></path>
                <path d="M27.7457342,25.7657557 C27.3703072,25.7657557 26.9948801,25.7657557 26.619453,25.7657557 C26.4903252,25.7657557 26.4897274,25.7657557 26.4891296,25.8912966 C26.4891296,26.0556954 26.4891296,26.220692 26.4891296,26.4185683 L26.4096204,26.3468307 C26.1914602,26.1442455 25.9439664,25.9757562 25.675505,25.8470583 C24.6986773,25.3909264 23.2633263,25.5750531 22.4192132,26.7049211 C22.0846394,27.1526761 21.8843478,27.6863722 21.8417251,28.2436939 C21.7885197,28.8510727 21.8572683,29.4429084 22.1238932,29.9976796 C22.6971967,31.1891225 23.8575532,31.7552522 25.1428529,31.5394414 C25.6151258,31.4599321 26.0186501,31.2243935 26.3839144,30.9201063 C26.4120116,30.8973893 26.4317395,30.8603249 26.4891296,30.8603249 C26.4891296,31.0127674 26.4891296,31.1628187 26.4891296,31.3122721 C26.4891296,31.4210742 26.4891296,31.4222699 26.6045077,31.4234655 C26.7198857,31.4246611 26.8388507,31.4234655 26.9560222,31.4234655 C27.2286253,31.4234655 27.5018262,31.4234655 27.7750271,31.4234655 C27.8766554,31.4234655 27.8772533,31.4234655 27.8796445,31.3170546 C27.8796445,31.2781967 27.8796445,31.238741 27.8796445,31.1974919 L27.8796445,29.3101937 C27.8796445,28.1743475 27.8796445,27.0385013 27.8796445,25.902655 C27.8790467,25.7836901 27.9089374,25.7657557 27.7457342,25.7657557 Z M26.247015,29.7286634 C26.0316404,30.0469474 25.701935,30.2700337 25.3263818,30.3515853 C25.0175493,30.4288288 24.6938079,30.4232613 24.3878141,30.3354444 C24.0010352,30.229394 23.6752424,29.9682838 23.4875065,29.6138831 C23.1401767,28.9598748 23.1162641,28.2843452 23.4719633,27.6273478 C23.7642943,27.0893154 24.237165,26.8185058 24.8570979,26.8047561 C25.8853377,26.7820391 26.4544564,27.5293064 26.5459219,28.2765736 C26.5608668,28.3875499 26.5686545,28.4993729 26.5692367,28.6113494 C26.5662476,29.0118846 26.4831515,29.3908986 26.247015,29.7280656 L26.247015,29.7286634 Z" id="Shape"></path>
                <path d="M68.9590178,37.4829062 C68.9590178,36.7613449 68.9590178,36.0397837 68.9590178,35.3182224 C68.9670906,35.1759326 68.9275471,35.0350063 68.8466288,34.9176872 C68.7310964,34.7618412 68.5454097,34.6739315 68.351639,34.6833442 C68.0527321,34.6833442 67.7568142,34.6833442 67.459103,34.6833442 C67.4304079,34.6833442 67.3903544,34.7042676 67.3730178,34.6540513 C67.7914874,34.4017739 68.2051746,34.1465074 68.6284268,33.9008059 C68.7081806,33.8639454 68.754339,33.7791597 68.7420114,33.6921689 C68.7354354,33.5265745 68.7420114,33.3603822 68.7420114,33.1947878 C68.7420114,33.0154437 68.7575545,33.0429431 68.5823951,33.0429431 L64.0336299,33.0429431 C63.9140671,33.0429431 63.9140671,33.0429431 63.9140671,33.1595168 C63.9140671,33.2862533 63.9140671,33.4129898 63.9140671,33.5397264 C63.9140671,33.7483634 63.8793939,33.7274399 64.0981938,33.7274399 C65.1459621,33.7274399 66.194129,33.7274399 67.2426944,33.7274399 C67.2966857,33.7158625 67.3530631,33.7257232 67.3999194,33.7549393 C67.0412311,33.9701523 66.6974882,34.1775937 66.3537452,34.3892198 C66.3129969,34.4170538 66.2585386,34.4136039 66.2216284,34.3808504 C66.1403257,34.3270471 66.0572296,34.276233 65.9741335,34.2254188 C65.798974,34.1196057 65.6154452,34.0233577 65.4361011,33.9330878 C65.4014279,33.9163491 65.3643634,33.8888496 65.3314836,33.9330878 C65.217899,34.0765632 65.1061078,34.2212341 64.9925232,34.3676985 L65.3308858,34.6666054 C65.2779729,34.6850815 65.2215361,34.691216 65.1658892,34.6845398 C64.8072009,34.6845398 64.444328,34.6845398 64.0838462,34.6845398 C63.9714572,34.6845398 63.9714572,34.6845398 63.969066,34.7951353 L63.969066,34.8387758 C63.969066,36.0483523 63.969066,37.2575304 63.969066,38.4663099 C63.969066,38.5667426 63.9236321,38.6988595 63.9917829,38.7592387 C64.0599337,38.8196179 64.187268,38.7789665 64.2906898,38.7747818 C64.4537712,38.7744739 64.6099613,38.7089801 64.7244888,38.5928806 C64.8390164,38.4767811 64.902375,38.3197128 64.9004599,38.1566424 C64.9004599,38.0639812 64.9004599,37.9713201 64.9004599,37.8786589 C64.9004599,37.7859978 64.8645911,37.6795869 64.916003,37.6239903 C64.967415,37.5683936 65.0911625,37.6036646 65.1820302,37.602469 C65.4157754,37.5988821 65.6501184,37.602469 65.8838636,37.602469 C65.9526122,37.602469 65.9831007,37.6198056 65.9765247,37.6927388 C65.9738328,37.746309 65.9738328,37.7999806 65.9765247,37.8535508 C65.9765247,38.1309364 65.9765247,38.4089198 65.9765247,38.6869032 C65.9765247,38.7544562 65.9914701,38.7861403 66.065599,38.7813578 C66.1576623,38.7753796 66.2509213,38.7813578 66.3429846,38.7765753 C66.627544,38.7610321 66.8140619,38.6038071 66.8846039,38.3288127 C66.8995982,38.2623298 66.9066221,38.1942979 66.9055274,38.1261539 C66.9055274,37.984472 66.9097121,37.8433879 66.9055274,37.7023039 C66.9055274,37.6251859 66.9282443,37.6012733 67.0041667,37.602469 C67.2576397,37.6066537 67.5111128,37.602469 67.7651836,37.602469 C67.9941463,37.602469 67.9941463,37.602469 67.9875704,37.836812 C67.9941737,37.9698465 67.8943047,38.0842467 67.7615967,38.0956653 C67.7219152,38.1002105 67.6819362,38.1016097 67.642034,38.09985 C67.5260581,38.09985 67.4100822,38.09985 67.2833457,38.09985 C67.3431271,38.3156608 67.4029085,38.5183197 67.4579073,38.7173917 C67.4734505,38.7771731 67.5093193,38.7771731 67.5565466,38.7771731 C67.7759443,38.7771731 67.9953419,38.7771731 68.2141418,38.7735862 C68.2530864,38.7721192 68.2917639,38.7665079 68.3295199,38.7568474 C68.707936,38.668371 68.9548331,38.3581056 68.9673872,37.9515922 C68.9626047,37.7967584 68.9590178,37.640729 68.9590178,37.4829062 Z M65.9699488,36.8665602 C65.9699488,36.9209612 65.9502209,36.9454716 65.8934286,36.9454716 C65.5825654,36.9454716 65.2717023,36.9454716 64.9608391,36.9454716 C64.9100249,36.9454716 64.8932861,36.921559 64.8938839,36.8737339 C64.8938839,36.7721056 64.8938839,36.6698794 64.8938839,36.5682511 C64.8938839,36.5048828 64.9136118,36.4833615 64.9769801,36.4845572 C65.1324116,36.488144 65.2878432,36.4845572 65.4432748,36.4845572 C65.5987064,36.4845572 65.7421817,36.4845572 65.8946242,36.4845572 C65.9544056,36.4845572 65.9717422,36.5048828 65.9705466,36.5604795 C65.9645685,36.6639013 65.9651663,36.7655296 65.9675575,36.8683536 L65.9699488,36.8665602 Z M65.9699488,35.4652846 C65.9651662,35.5574852 65.9651662,35.6498718 65.9699488,35.7420724 C65.9699488,35.8018538 65.9520144,35.8287554 65.8874505,35.8275598 C65.7326167,35.8239729 65.5771851,35.8275598 65.4217535,35.8275598 C65.2663219,35.8275598 65.1228466,35.8275598 64.9704041,35.8275598 C64.9148074,35.8275598 64.8914927,35.8102232 64.8938839,35.7528331 C64.8986664,35.6332703 64.8992643,35.5137075 64.9016555,35.3905579 C65.0134467,35.345124 65.1300204,35.3750147 65.2442028,35.3720257 C65.4528398,35.3666453 65.6626725,35.3720257 65.8701139,35.3690366 C65.9418515,35.3690366 65.9729378,35.3905579 65.9681553,35.4670781 L65.9699488,35.4652846 Z M67.9684403,36.9251459 C67.8560513,36.9687863 67.738282,36.9353088 67.6235018,36.944276 C67.5637204,36.9484607 67.503939,36.944276 67.4477445,36.944276 C67.2917151,36.944276 67.1356857,36.944276 66.9796563,36.944276 C66.9198749,36.944276 66.8929733,36.9227547 66.8953645,36.8593864 C66.8995492,36.7571602 66.8953645,36.6543363 66.8953645,36.5521101 C66.8953645,36.5012959 66.916288,36.4839593 66.9647109,36.4839593 L67.9158327,36.4839593 C67.9582775,36.4839593 67.9756141,36.5012959 67.9756141,36.5437407 C67.9756141,36.5539036 67.9756141,36.5634686 67.9756141,36.5730336 C67.9793347,36.6910768 67.9763408,36.8092361 67.9666469,36.9269394 L67.9684403,36.9251459 Z M67.9684403,35.8072341 C67.8560513,35.8508745 67.7394776,35.8167991 67.6246974,35.8257663 C67.5619269,35.8305489 67.4985587,35.8257663 67.4351904,35.8257663 C67.2839435,35.8257663 67.1362835,35.8257663 66.9820475,35.8257663 C66.9222662,35.8257663 66.8935711,35.8096254 66.8959624,35.7438658 C66.9001471,35.6416397 66.8959624,35.5388157 66.8959624,35.4371874 C66.8959624,35.3863732 66.9180815,35.3684388 66.9659066,35.3684388 C67.2819508,35.3684388 67.5983936,35.3684388 67.9152349,35.3684388 C67.9570819,35.3684388 67.979201,35.3839819 67.9750163,35.4282202 C67.9750163,35.4330027 67.9750163,35.4377852 67.9750163,35.4431655 C67.9796216,35.5651874 67.9766267,35.6873777 67.9660491,35.8090276 L67.9684403,35.8072341 Z" id="Shape"></path>
                <path d="M24.4242807,34.0293359 C22.95605,33.9922714 21.4770587,35.2351263 21.4352117,36.9347109 C21.3933648,38.6342956 22.7874665,39.96204 24.3166742,39.9793766 C26.0706599,39.9991045 27.3607421,38.6396759 27.3726984,37.0100355 C27.3936219,35.4025142 26.0569102,34.070585 24.4242807,34.0293359 Z M25.752623,38.2600641 C25.5421925,38.5894596 25.267796,38.8441282 24.8804127,38.9511369 C24.2174372,39.1334701 23.5747873,38.8734211 23.206534,38.279792 C23.0249795,37.9776013 22.9185797,37.6362608 22.8962687,37.284432 C22.8562151,36.8109635 22.9034424,36.3488534 23.1240357,35.9196231 C23.3243033,35.5292507 23.6136452,35.2273547 24.0434733,35.0928466 C24.7010685,34.8871987 25.3771959,35.1490411 25.7502317,35.7468549 C25.9929442,36.1354339 26.0766381,36.565262 26.0754425,37.1086748 C26.0782734,37.515195 25.9663832,37.9142704 25.752623,38.2600641 Z" id="Shape"></path>
                <path d="M5.93629106,38.0663725 C5.93800113,38.0408701 5.94240973,38.0156209 5.94944297,37.9910479 C5.96507927,37.9377433 6.01346679,37.9007268 6.06900573,37.8995824 C6.15389529,37.8936043 6.2238395,37.9653419 6.23340452,38.0675681 C6.24416517,38.1871309 6.19454663,38.2642488 6.10188549,38.2738139 C5.99248556,38.2851723 5.93509544,38.2212062 5.93629106,38.0663725 Z" id="Path"></path>
                <path d="M57.48996,37.9677332 C57.48996,37.7991497 57.499525,37.6305662 57.4809928,37.4488308 L57.0266543,37.5683936 L57.0266543,33.9020015 C57.0266543,33.8386333 57.0266543,33.775265 57.0266543,33.7118967 C57.0063286,33.3532085 56.796496,33.04653 56.356505,33.06566 C55.9577632,33.0829966 55.557228,33.0692469 55.1578883,33.0692469 C54.8117541,33.0692469 54.46562,33.0692469 54.1194858,33.0692469 C54.0471503,33.0692469 54.0148683,33.0841922 54.0184552,33.1654949 C54.0244334,33.325709 54.0184552,33.4871187 54.0184552,33.6479307 C54.0184552,33.7471677 54.0184552,33.7471677 54.1260617,33.749559 L55.9398288,33.749559 C56.0522178,33.749559 56.0540112,33.749559 56.054609,33.8607524 C56.054609,34.1435183 56.054609,34.4262842 56.054609,34.7090502 C56.054609,34.7831791 56.0366746,34.8142654 55.9577632,34.8130698 C55.7429488,34.8086858 55.5285329,34.8086858 55.3145156,34.8130698 C55.2350063,34.8130698 55.2152785,34.7831791 55.2170719,34.7090502 C55.2218544,34.5434557 55.2170719,34.3778613 55.2170719,34.2122669 C55.2170719,34.1118342 55.2170719,34.1100407 55.1112589,34.1094429 C54.8916619,34.1094429 54.6724635,34.1094429 54.4536637,34.1094429 C54.2779064,34.1094429 54.3012212,34.0903129 54.3012212,34.2678636 C54.3012212,35.5595399 54.3012212,36.8514156 54.3012212,38.1434905 C54.2985268,38.1775126 54.2985268,38.2116945 54.3012212,38.2457166 C54.3137752,38.3210412 54.2737217,38.3485406 54.2079622,38.3652794 C54.1272573,38.3838116 54.0489437,38.4101154 53.9688367,38.4298433 C53.9448397,38.4326145 53.9230416,38.4451416 53.9085658,38.4644804 C53.89409,38.4838191 53.8882131,38.508264 53.8923165,38.5320694 C53.8959034,38.6982617 53.8923165,38.8638561 53.8923165,39.0294505 C53.8854333,39.0922427 53.8894786,39.1557526 53.9042728,39.217164 L56.0474353,38.6157634 L56.0474353,39.0145052 C56.0474353,39.3134121 56.0474353,39.6093299 56.0474353,39.9064434 C56.0474353,39.9745941 56.0677609,40.0032892 56.1394986,39.9997023 C56.2465073,39.994322 56.3541138,39.9997023 56.4611224,39.9955176 C56.6258347,39.9958011 56.7809915,39.9182227 56.8795921,39.7862828 C56.9712257,39.6658395 57.0217326,39.5191392 57.0236652,39.3678131 C57.0236652,39.1041772 57.0236652,38.8411392 57.0236652,38.5781011 C57.0236652,38.5009831 56.9901876,38.4059307 57.0415996,38.3521275 C57.0930116,38.2983242 57.1767056,38.3060958 57.2454541,38.2827811 C57.3231699,38.2570751 57.4247983,38.2648467 57.4726234,38.2008806 C57.5204485,38.1369145 57.4905578,38.045449 57.48996,37.9677332 Z M56.0552069,37.7734437 C56.058464,37.7949283 56.0530496,37.8168266 56.0401555,37.8343177 C56.0272614,37.8518087 56.0079448,37.8634587 55.9864583,37.8667027 C55.7389634,37.93306 55.4920663,38.0030042 55.2236479,38.0777309 C55.2236479,37.7381727 55.2236479,37.4201358 55.2236479,37.0973163 C55.2236479,37.0327524 55.2481582,37.0136224 55.3091352,37.0142202 C55.5327176,37.0142202 55.7563,37.0142202 55.9798823,37.0142202 C56.0324899,37.0142202 56.0605872,37.0273721 56.0593916,37.0871535 C56.0534134,37.3161162 56.0528156,37.5426876 56.0534134,37.7734437 L56.0552069,37.7734437 Z M56.0587937,36.2478229 C56.0587937,36.3076043 56.042055,36.3368971 55.9768932,36.3362993 C55.7533109,36.3362993 55.5303263,36.3362993 55.306744,36.3362993 C55.2433757,36.3362993 55.2218544,36.311789 55.2224522,36.2496163 C55.2224522,36.026034 55.2224522,35.8024516 55.2224522,35.5794671 C55.2224522,35.5196857 55.239191,35.4903928 55.3043527,35.4927841 C55.4161439,35.4963709 55.5279351,35.4927841 55.6397263,35.4927841 C55.7515174,35.4927841 55.8633086,35.4927841 55.9750998,35.4927841 C56.0378703,35.4927841 56.0599894,35.5137075 56.0593916,35.5770758 C56.054609,35.8006582 56.0552069,36.0242405 56.0570003,36.2478229 L56.0587937,36.2478229 Z" id="Shape"></path>
                <path d="M6.26578618,39.7360664 C6.26578618,37.9175168 6.26578618,36.098768 6.26578618,34.2798198 C6.26578618,34.1602571 6.26578618,34.1602571 6.14612371,34.1602571 C5.77069664,34.1602571 5.39526957,34.1602571 5.0198425,34.1602571 C4.80522735,34.1602571 4.8333246,34.1339533 4.8333246,34.3461772 C4.8333246,35.4138726 4.8333246,36.4815681 4.8333246,37.5492635 C4.84116232,37.7885352 4.79880478,38.0267964 4.70897933,38.2487057 C4.65212743,38.3631624 4.58467835,38.4720416 4.50751607,38.5739164 C4.48659259,38.600818 4.45132158,38.6187524 4.44773469,38.658806 C4.403465,38.6787643 4.36300698,38.7062758 4.32817193,38.7401086 L4.32817193,38.7401086 C3.56057901,39.2339028 2.68179272,38.8841818 2.46717756,37.9994173 C2.43452054,37.8518714 2.41966851,37.7009427 2.42293934,37.5498613 C2.42293934,36.4670213 2.42293934,35.3845798 2.42293934,34.3025368 C2.42293934,34.1530833 2.43549343,34.1602571 2.28006184,34.1602571 L1.11073805,34.1602571 C0.991032097,34.1602571 0.991032097,34.1602571 0.991032097,34.2798198 C0.991032097,35.3766089 0.991032097,36.4735972 0.991032097,37.5707848 C0.989690492,37.8196405 1.0206388,38.0676289 1.08323861,38.3084871 C1.28828875,39.085645 1.75876821,39.6188949 2.54011085,39.8388904 C3.12248226,40.0052248 3.74478414,39.9616362 4.29828124,39.7157408 C4.52378047,39.6207762 4.72517973,39.4765694 4.88772565,39.2936842 C4.90805132,39.2703695 4.91761634,39.2291203 4.96603926,39.2339028 C4.9851693,39.4078666 5.00967967,39.5806348 5.02163594,39.7545987 C5.02761408,39.837097 5.0587004,39.8580204 5.13701401,39.8568248 C5.47358318,39.8532379 5.80955454,39.8568248 6.14612371,39.8568248 C6.27106679,39.856227 6.26578618,39.8634008 6.26578618,39.7360664 Z" id="Path"></path>
            </g>
        </g>
    </g>
</svg>