<svg xmlns="http://www.w3.org/2000/svg" viewBox="0 0 39 34" class="design-iconfont">
  <g fill="none" fill-rule="evenodd">
    <g fill="#00EE85">
      <path opacity=".30270967" d="M19.5 0A19.5 11 0 1 0 19.5 22A19.5 11 0 1 0 19.5 0Z" transform="translate(0 12)"/>
      <path opacity=".49956621" d="M20 5A10 5.5 0 1 0 20 16A10 5.5 0 1 0 20 5Z" transform="translate(0 12)"/>
      <path d="M20 7A5 3 0 1 0 20 13A5 3 0 1 0 20 7Z" transform="translate(0 12)"/>
    </g>
    <path
      d="M13.5160134,0.25 C13.8875778,0.25 14.0257817,0.279458304 14.1629805,0.351817502 C14.5127995,0.758371284 14.5445727,0.896061386 14.5508076,1.26757347 L14.7605794,13.7669846 C14.7640547,13.9740622 14.6832662,14.1629445 14.5498395,14.3009261 C14.4164128,14.4389078 14.2303478,14.5259889 14.0274625,14.5294289 L1.2819426,14.5295697 C0.906982536,14.5295697 0.767499342,14.4993653 0.629476863,14.4255501 C0.280204422,14.0120704 0.25,13.8725872 0.25,13.4976271 L0.25,1.2819426 C0.25,0.906982536 0.280204422,0.767499342 0.354019651,0.629476863 C0.767499342,0.280204422 0.906982536,0.25 1.2819426,0.25 Z"
      stroke="#00FF78" stroke-width=".5" fill-opacity=".51319896" fill="#003E1D" transform="translate(13)"/>
    <text font-family="PangMenZhengDao" font-size="6" fill="#00EE85" transform="translate(13)">
      <tspan x="1" y="9">OBD</tspan>
    </text>
    <path fill="#00EE85" d="M5.1909336 15.5L9.73260415 15.5 7.46854465 17.9250724z" transform="translate(13)"/>
  </g>
</svg>
