<svg xmlns="http://www.w3.org/2000/svg" viewBox="0 0 39 36" class="design-iconfont">
  <g fill="none" fill-rule="evenodd">
    <path fill="#00FFE4" opacity=".30270967"
          d="M19.5 13.3788136A19.5 11 0 1 0 19.5 35.3788136A19.5 11 0 1 0 19.5 13.3788136Z"
          transform="translate(0 .621186)"/>
    <path fill="#00FFE4" opacity=".49956621" d="M20 18.3788136A10 5.5 0 1 0 20 29.3788136A10 5.5 0 1 0 20 18.3788136Z"
          transform="translate(0 .621186)"/>
    <path fill="#00FFE4" d="M20 20.3788136A5 3 0 1 0 20 26.3788136A5 3 0 1 0 20 20.3788136Z"
          transform="translate(0 .621186)"/>
    <path fill="#00FFE4" d="M18 16.3788136L22.5416705 16.3788136 20.277611 18.8038859z"
          transform="translate(0 .621186)"/>
    <path
      d="M13.5160134,0.25 C13.8875778,0.25 14.0257817,0.279458304 14.1629805,0.351817502 C14.5127995,0.758371284 14.5445727,0.896061386 14.5508076,1.26757347 L14.7605794,13.7669846 C14.7640547,13.9740622 14.6832662,14.1629445 14.5498395,14.3009261 C14.4164128,14.4389078 14.2303478,14.5259889 14.0274625,14.5294289 L1.2819426,14.5295697 C0.906982536,14.5295697 0.767499342,14.4993653 0.629476863,14.4255501 C0.280204422,14.0120704 0.25,13.8725872 0.25,13.4976271 L0.25,1.2819426 C0.25,0.906982536 0.280204422,0.767499342 0.354019651,0.629476863 C0.767499342,0.280204422 0.906982536,0.25 1.2819426,0.25 Z"
      stroke="#00FFE4" stroke-width=".5" fill-opacity=".51319896" fill="#003E3E"
      transform="translate(12.587014 .621186)"/>
    <path fill="#043F39" d="M5 0A5 5 0 1 0 5 10A5 5 0 1 0 5 0Z" transform="translate(15 3)"/>
    <path
      d="M5.00000635,3.74999981 C5.60906016,3.74967049 6.12969558,4.18835353 6.23267861,4.78864252 C6.33566164,5.38893152 5.99101008,5.97605997 5.41666858,6.17875 L5.41666858,9.16666667 L7.50000635,9.16666667 L7.50000635,10 L2.50000635,10 L2.50000635,9.16666667 L4.58333652,9.16666667 L4.58333652,6.17916667 C4.00942777,5.9760205 3.66523769,5.38906362 3.76816028,4.78902402 C3.87108287,4.18898442 4.39120093,3.75027958 5.00000635,3.74999981 Z M5.00000506,0 C7.76124834,0 9.99999494,2.23875 9.99999494,5 C9.99999494,6.12625 9.62582884,7.19625 8.94999653,8.06583333 L8.59458041,8.5025 C8.37855594,8.32815851 8.16216691,8.15426924 7.94541473,7.98083333 L8.21374766,7.65208333 C8.83121942,6.90638907 9.16833355,5.96815788 9.16666287,5 C9.16666287,2.69875 7.30124904,0.833333333 5.00000506,0.833333333 C2.69875605,0.833333333 0.833342224,2.69875 0.833342224,5 C0.833342224,5.93333333 1.14084176,6.81833333 1.69709091,7.54041667 L2.0516737,7.98083333 L1.41084134,8.5025 L1.14459175,8.18375 C0.403252081,7.28856962 -0.00165168797,6.16229572 5.06409697e-06,5 C5.06409697e-06,2.23875 2.23875675,0 5.00000506,0 Z M5.00000255,2.08333333 C6.61250009,2.08333333 7.91667117,3.41166667 7.91667117,5.04666667 C7.91799373,5.68880222 7.71210001,6.3142291 7.32958233,6.83 C7.18583255,7.00833333 7.07124939,7.14833333 6.98499953,7.25083333 C6.63458339,6.96875 6.41916705,6.79666667 6.33916718,6.73416667 L6.60458344,6.40541667 C6.91570365,6.0212115 7.08479398,5.54145926 7.08333307,5.04708333 C7.08333307,3.86833333 6.1487508,2.91666667 5.00000255,2.91666667 C3.8512543,2.91666667 2.91667239,3.86875 2.91667239,5.04666667 C2.91667239,5.55083333 3.08750546,6.02625 3.39583832,6.40583333 L3.66667124,6.73416667 L3.01333891,7.25083333 L2.74875597,6.93083333 C2.31683796,6.39800834 2.08182814,5.73256311 2.08333307,5.04666667 C2.08333307,3.41166667 3.387505,2.08333333 5.00000255,2.08333333 Z M5.00000255,4.58333333 C4.76988425,4.58333333 4.58333652,4.76988135 4.58333652,5 C4.58333652,5.23011865 4.76988425,5.41666667 5.00000255,5.41666667 C5.23012084,5.41666667 5.41666858,5.23011865 5.41666858,5 C5.41666858,4.76988135 5.23012084,4.58333333 5.00000255,4.58333333 Z"
      transform="translate(15 3)" fill="#00FFE4" fill-rule="nonzero"/>
  </g>
</svg>
