<?xml version="1.0" encoding="UTF-8"?>
<svg width="40px" height="44px" viewBox="0 0 40 44" version="1.1" xmlns="http://www.w3.org/2000/svg" xmlns:xlink="http://www.w3.org/1999/xlink">
    <title>核心机房</title>
    <g id="数据网11.22-30（开发版本）" stroke="none" stroke-width="1" fill="none" fill-rule="evenodd">
        <g id="4-资源上图" transform="translate(-878.000000, -595.000000)" fill="#00FFA5">
            <g id="编组-2" transform="translate(670.000000, 385.000000)">
                <g id="编组" transform="translate(208.000000, 210.000000)">
                    <circle id="椭圆形备份-3" stroke="" fill-opacity="0.0576376748" cx="20" cy="20" r="19.5"></circle>
                    <polygon id="三角形" fill-rule="nonzero" transform="translate(20.000000, 42.500000) scale(1, -1) translate(-20.000000, -42.500000) " points="20 41 23 44 17 44"></polygon>
                    <circle id="椭圆形" fill-opacity="0.184522509" cx="20" cy="20" r="13"></circle>
                    <path d="M26.461,21 C26.7585,21 27,21.2181667 27,21.4865 L27,26.3468333 C27,26.6151667 26.7585,26.8333333 26.461,26.8333333 L13.539,26.8333333 C13.2415,26.8333333 13,26.6151667 13,26.3468333 L13,21.4865 C13,21.2181667 13.2415,21 13.539,21 L26.461,21 Z M25.8333333,21.9718333 L14.1666667,21.9718333 L14.1666667,25.8615 L25.8333333,25.8615 L25.8333333,21.9718333 Z M19.7083333,23.3333333 C19.8436169,23.3335581 19.9609888,23.4267794 19.9918333,23.5585 L20,23.625 L20,24.2083333 C19.9997752,24.3436169 19.9065539,24.4609888 19.7748333,24.4918333 L19.7083333,24.5 L19.125,24.5 C18.9897164,24.4997752 18.8723445,24.4065539 18.8415,24.2748333 L18.8333333,24.2083333 L18.8333333,23.625 C18.8335581,23.4897164 18.9267794,23.3723445 19.0585,23.3415 L19.125,23.3333333 L19.7083333,23.3333333 Z M22.0416667,23.3333333 C22.1769503,23.3335581 22.2943222,23.4267794 22.3251667,23.5585 L22.3333333,23.625 L22.3333333,24.2083333 C22.3331086,24.3436169 22.2398873,24.4609888 22.1081667,24.4918333 L22.0416667,24.5 L21.4583333,24.5 C21.3230497,24.4997752 21.2056778,24.4065539 21.1748333,24.2748333 L21.1666667,24.2083333 L21.1666667,23.625 C21.1668914,23.4897164 21.2601127,23.3723445 21.3918333,23.3415 L21.4583333,23.3333333 L22.0416667,23.3333333 Z M26.461,14 C26.7585,14 27,14.2181667 27,14.4865 L27,19.3468333 C27,19.6151667 26.7585,19.8333333 26.461,19.8333333 L13.539,19.8333333 C13.2415,19.8333333 13,19.6151667 13,19.3468333 L13,14.4865 C13,14.2181667 13.2415,14 13.539,14 L26.461,14 Z M25.8333333,14.9718333 L14.1666667,14.9718333 L14.1666667,18.8615 L25.8333333,18.8615 L25.8333333,14.9718333 Z M19.7083333,16.3333333 C19.8436169,16.3335581 19.9609888,16.4267794 19.9918333,16.5585 L20,16.625 L20,17.2083333 C19.9997752,17.3436169 19.9065539,17.4609888 19.7748333,17.4918333 L19.7083333,17.5 L19.125,17.5 C18.9897164,17.4997752 18.8723445,17.4065539 18.8415,17.2748333 L18.8333333,17.2083333 L18.8333333,16.625 C18.8335581,16.4897164 18.9267794,16.3723445 19.0585,16.3415 L19.125,16.3333333 L19.7083333,16.3333333 Z M22.0416667,16.3333333 C22.1769503,16.3335581 22.2943222,16.4267794 22.3251667,16.5585 L22.3333333,16.625 L22.3333333,17.2083333 C22.3331086,17.3436169 22.2398873,17.4609888 22.1081667,17.4918333 L22.0416667,17.5 L21.4583333,17.5 C21.3230497,17.4997752 21.2056778,17.4065539 21.1748333,17.2748333 L21.1666667,17.2083333 L21.1666667,16.625 C21.1668914,16.4897164 21.2601127,16.3723445 21.3918333,16.3415 L21.4583333,16.3333333 L22.0416667,16.3333333 Z" id="形状结合" fill-rule="nonzero"></path>
                </g>
            </g>
        </g>
    </g>
</svg>