<?xml version="1.0" encoding="UTF-8"?>
<svg xmlns="http://www.w3.org/2000/svg" xmlns:xlink="http://www.w3.org/1999/xlink" width="242px" height="49px" viewBox="0 0 242 49" version="1.1" reserveAspectRatio="none meet">
  <title>面包屑</title>
  <defs>
    <linearGradient x1="100%" y1="50%" x2="0%" y2="50%" id="linearGradient-1">
      <stop stop-color="#010633" stop-opacity="0" offset="0%"></stop>
      <stop stop-color="#020E62" stop-opacity="0.496932877" offset="100%"></stop>
    </linearGradient>
    <linearGradient x1="100%" y1="50%" x2="0%" y2="50%" id="linearGradient-2">
      <stop stop-color="#1757CB" stop-opacity="0" offset="0%"></stop>
      <stop stop-color="#3390E7" offset="100%"></stop>
    </linearGradient>
  </defs>
  <g id="二级页面" stroke="none" stroke-width="1" fill="none" fill-rule="evenodd">
    <g id="IDC资源-省份-运营健康度" transform="translate(-614.000000, -105.000000)">
      <g id="面包屑" transform="translate(614.500000, 106.428932)">
        <path d="M77.3434222,0.571067812 L85.3881642,7.61580984 L232.792902,7.61580984 L240.500459,15.322925 L240.500459,37.863961 L231.793123,46.5712972 L8.18786756,46.5712972 L0.5,39.8444131 L0.5,8.76935641 L8.21603633,0.571067812 L77.3434222,0.571067812 Z" id="Path-8" stroke="url(#linearGradient-2)" fill="url(#linearGradient-1)"></path>
        <polyline id="Path-9" stroke="#11BAFB" points="0 8.57106781 8 -4.54747351e-13 77.5057113 -4.54747351e-13 85.5 7.07106781"></polyline>
        <polygon id="Path-10" fill="#11BAFB" transform="translate(14.000000, 5.071068) scale(-1, 1) translate(-14.000000, -5.071068) " points="8.5 3.57106781 16.5 3.57106781 19.5 6.57106781 11.5 6.57106781"></polygon>
        <polygon id="Path-10-Copy" fill="#11BAFB" transform="translate(27.000000, 5.071068) scale(-1, 1) translate(-27.000000, -5.071068) " points="21.5 3.57106781 29.5 3.57106781 32.5 6.57106781 24.5 6.57106781"></polygon>
        <polygon id="Path-10-Copy-2" fill="#11BAFB" transform="translate(40.000000, 5.071068) scale(-1, 1) translate(-40.000000, -5.071068) " points="34.5 3.57106781 42.5 3.57106781 45.5 6.57106781 37.5 6.57106781"></polygon>
        <polygon id="Path-10-Copy-3" fill="#11BAFB" transform="translate(53.000000, 5.071068) scale(-1, 1) translate(-53.000000, -5.071068) " points="47.5 3.57106781 55.5 3.57106781 58.5 6.57106781 50.5 6.57106781"></polygon>
      </g>
    </g>
  </g>
</svg>
