<svg xmlns="http://www.w3.org/2000/svg" xmlns:xlink="http://www.w3.org/1999/xlink" viewBox="0 0 187 195" class="design-iconfont">
  <defs>
    <linearGradient x1="48.1029386%" y1="0%" x2="48.1029386%" y2="100%" id="ml2m5uwbs__o3vayk13nb">
      <stop stop-color="#71A2FF" offset="0%"/>
      <stop stop-color="#3E6BFF" offset="100%"/>
    </linearGradient>
    <linearGradient x1="50%" y1="0%" x2="50%" y2="100%" id="ml2m5uwbs__tlmodszwye">
      <stop stop-color="#6F9FFF" offset="0%"/>
      <stop stop-color="#2A58EE" offset="100%"/>
    </linearGradient>
    <filter x="-.3%" y="-.3%" width="100.5%" height="100.5%" filterUnits="objectBoundingBox" id="ml2m5uwbs__d963q0t4gc">
      <feOffset dy="1" in="SourceAlpha" result="shadowOffsetInner1"/>
      <feComposite in="shadowOffsetInner1" in2="SourceAlpha" operator="arithmetic" k2="-1" k3="1" result="shadowInnerInner1"/>
      <feColorMatrix values="0 0 0 0 1 0 0 0 0 1 0 0 0 0 1 0 0 0 0.52138706 0" in="shadowInnerInner1"/>
    </filter>
    <rect id="ml2m5uwbs__tjbpedjila" x="0" y="0" width="186.538462" height="194" rx="12"/>
  </defs>
  <g transform="translate(.156923 .558767)" fill="none" fill-rule="evenodd">
    <mask id="ml2m5uwbs__29ojkpv0zd" fill="#fff">
      <use xlink:href="#ml2m5uwbs__tjbpedjila"/>
    </mask>
    <use fill="url(#ml2m5uwbs__o3vayk13nb)" xlink:href="#ml2m5uwbs__tjbpedjila"/>
    <use fill="#000" filter="url(#ml2m5uwbs__d963q0t4gc)" xlink:href="#ml2m5uwbs__tjbpedjila"/>
    <rect fill="#325EED" mask="url(#ml2m5uwbs__29ojkpv0zd)" x="-21.9246971" y="14" width="147" height="38" rx="19"/>
    <g mask="url(#ml2m5uwbs__29ojkpv0zd)" fill-rule="nonzero">
      <path d="M36.0532422,33.75 L30.4467578,33.75 C29.3146988,33.75 28.33994,34.5488614 28.1177734,35.6589063 L26.6690234,42.9019141 C26.5035817,43.7191663 25.9232834,44.3906463 25.1386328,44.6727734 C24.4785807,44.9117578 23.8323828,45.1796875 23.2000391,45.4765625 C22.8799179,45.626466 22.5307854,45.7042481 22.1773047,45.7044141 C21.7095433,45.7049353 21.2521291,45.5667554 20.8628906,45.3073437 L14.7175781,41.2097266 C13.7755343,40.581686 12.5211435,40.7059447 11.720625,41.5066016 L7.75660156,45.470625 C6.95594467,46.2711435 6.83168605,47.5255343 7.45972656,48.4675781 L11.5573437,54.6136328 C12.018459,55.3092513 12.082628,56.1952347 11.7265625,56.9500391 C11.4296875,57.581888 11.1620052,58.2283333 10.9235156,58.889375 C10.6413885,59.6740256 9.96990852,60.2543239 9.15265625,60.4197656 L1.90890625,61.8685156 C0.799134922,62.0906274 0,63.0649778 0,64.1967578 L0,69.8025 C0,70.934559 0.798861368,71.9093178 1.90890625,72.1314844 L9.15191406,73.5802344 C9.96916633,73.7456761 10.6406463,74.3259744 10.9227734,75.110625 C11.1617578,75.7711719 11.4296875,76.4176172 11.7265625,77.0499609 C12.082628,77.8047653 12.018459,78.6907487 11.5573437,79.3863672 L7.45972656,85.5324219 C6.83168605,86.4744657 6.95594467,87.7288565 7.75660156,88.529375 L11.720625,92.4933984 C12.5211435,93.2940553 13.7755343,93.418314 14.7175781,92.7902734 L20.8636328,88.6926562 C21.2528713,88.4332446 21.7102855,88.2950647 22.1780469,88.2955859 C22.5312798,88.2958364 22.8801525,88.373617 23.2000391,88.5234375 C23.831888,88.8203125 24.4783333,89.0882422 25.139375,89.3272266 C25.9240256,89.6093537 26.5043239,90.2808337 26.6697656,91.0980859 L28.1185156,98.3410937 C28.3406274,99.4508651 29.3149778,100.25 30.4467578,100.25 L36.0525,100.25 C37.184559,100.25 38.1593178,99.4511386 38.3814844,98.3410937 L39.8302344,91.0980859 C39.9956761,90.2808337 40.5759744,89.6093537 41.360625,89.3272266 C42.0211719,89.0882422 42.6676172,88.8203125 43.2999609,88.5234375 C43.6200821,88.373534 43.9692146,88.2957519 44.3226953,88.2955859 C44.7904567,88.2950647 45.2478709,88.4332446 45.6371094,88.6926562 L51.7831641,92.7902734 C52.7252078,93.418314 53.9795987,93.2940553 54.7801172,92.4933984 L58.7441406,88.529375 C59.5447975,87.7288565 59.6690561,86.4744657 59.0410156,85.5324219 L54.9433984,79.3863672 C54.4820423,78.6908821 54.4175914,77.8048931 54.7734375,77.0499609 C55.0703125,76.418112 55.3379948,75.7719141 55.5764844,75.1113672 C55.8586115,74.3267166 56.5300915,73.7464183 57.3473437,73.5809766 L64.5903516,72.1322266 C65.7006915,71.9103689 66.5,70.93553 66.5,69.8032422 L66.5,64.1967578 C66.5,63.0646988 65.7011386,62.08994 64.5910937,61.8677734 L57.3480859,60.4190234 C56.5308337,60.2535817 55.8593537,59.6732834 55.5772266,58.8886328 C55.3382422,58.2285807 55.0703125,57.5823828 54.7734375,56.9500391 C54.417372,56.1952347 54.481541,55.3092513 54.9426562,54.6136328 L59.0402734,48.4675781 C59.668314,47.5255343 59.5440553,46.2711435 58.7433984,45.470625 L54.779375,41.5066016 C53.9788565,40.7059447 52.7244657,40.581686 51.7824219,41.2097266 L45.6363672,45.3073438 C45.2471287,45.5667554 44.7897145,45.7049353 44.3219531,45.7044141 C43.9687202,45.7041636 43.6198475,45.626383 43.2999609,45.4765625 C42.668112,45.1796875 42.0216667,44.9117578 41.360625,44.6727734 C40.5759744,44.3906463 39.9956761,43.7191663 39.8302344,42.9019141 L38.3822266,35.6589062 C38.16006,34.5488614 37.1853012,33.75 36.0532422,33.75 Z M33.2497139,77.9992945 C28.0021612,77.9992945 23.4851967,74.2928655 22.4612263,69.1461875 C21.4372559,63.9995095 24.191471,58.846218 29.0394972,56.8378725 C33.8875233,54.8295269 39.4791107,56.5254825 42.3946545,60.8885564 C45.3101982,65.2516303 44.7376746,71.0666395 41.0272175,74.7773426 C38.969063,76.8469347 36.1684722,78.0071088 33.2497139,77.9992945 L33.2497139,77.9992945 Z" fill="url(#ml2m5uwbs__tlmodszwye)" opacity=".4030086" transform="translate(131.343077 -29.558767)"/>
    </g>
  </g>
</svg>
