<?xml version="1.0" encoding="UTF-8"?>
<svg width="219px" height="159px" viewBox="0 0 219 159" version="1.1" xmlns="http://www.w3.org/2000/svg" xmlns:xlink="http://www.w3.org/1999/xlink" preserveAspectRatio="none meet">
    <title>边框7</title>
    <defs>
        <polygon id="path-1" points="1.04411765 3.1873065 4.93733538 0 55.3309565 0 58.9549688 3.1873065 219.001261 3.1873065 219.001261 154.838802 215.318217 158 1.04411765 158"></polygon>
        <filter x="-5.5%" y="-7.6%" width="111.0%" height="115.2%" filterUnits="objectBoundingBox" id="filter-2">
            <feMorphology radius="4" operator="erode" in="SourceAlpha" result="shadowSpreadInner1"></feMorphology>
            <feGaussianBlur stdDeviation="10" in="shadowSpreadInner1" result="shadowBlurInner1"></feGaussianBlur>
            <feOffset dx="0" dy="0" in="shadowBlurInner1" result="shadowOffsetInner1"></feOffset>
            <feComposite in="shadowOffsetInner1" in2="SourceAlpha" operator="arithmetic" k2="-1" k3="1" result="shadowInnerInner1"></feComposite>
            <feColorMatrix values="0 0 0 0 0   0 0 0 0 0.576649913   0 0 0 0 1  0 0 0 0.41190877 0" type="matrix" in="shadowInnerInner1"></feColorMatrix>
        </filter>
    </defs>
    <g id="二级页面" stroke="none" stroke-width="1" fill="none" fill-rule="evenodd">
        <g id="BO协同订单治理" transform="translate(-812.000000, -527.000000)">
            <g id="编组-11" transform="translate(811.998739, 528.000000)">
                <g id="边框7" transform="translate(109.500630, 79.000000) scale(-1, 1) translate(-109.500630, -79.000000) translate(0.000000, 0.000000)">
                    <g id="矩形">
                        <use fill-opacity="0.801931101" fill="#000C32" fill-rule="evenodd" xlink:href="#path-1"></use>
                        <use fill="black" fill-opacity="1" filter="url(#filter-2)" xlink:href="#path-1"></use>
                        <path stroke="#1757CB" stroke-width="1" d="M55.1423637,0.5 L58.766376,3.6873065 L218.501261,3.6873065 L218.501261,154.609038 L215.133064,157.5 L1.54411765,157.5 L1.54411765,3.42415441 L5.11590147,0.5 L55.1423637,0.5 Z" stroke-linejoin="square"></path>
                    </g>
                    <path d="M61.4219338,1.04411765 L63.7439513,2.08823529 L59.6804208,2.08823529 L57.3584034,1.04411765 L61.4219338,1.04411765 Z M66.8496496,1.04411765 L69.171667,2.08823529 L65.1081365,2.08823529 L62.7861191,1.04411765 L66.8496496,1.04411765 Z M72.5966427,1.04411765 L74.9186601,2.08823529 L70.8551296,2.08823529 L68.5331122,1.04411765 L72.5966427,1.04411765 Z M78.3436358,1.04411765 L80.6656532,2.08823529 L76.6021227,2.08823529 L74.2801053,1.04411765 L78.3436358,1.04411765 Z M83.7713515,1.04411765 L86.0933689,2.08823529 L82.0298384,2.08823529 L79.707821,1.04411765 L83.7713515,1.04411765 Z M89.837622,1.04411765 L92.1596394,2.08823529 L88.0961089,2.08823529 L85.7740915,1.04411765 L89.837622,1.04411765 Z M95.5846151,1.04411765 L97.9066325,2.08823529 L93.843102,2.08823529 L91.5210846,1.04411765 L95.5846151,1.04411765 Z M218.503019,1.03676471 L218.503019,1.70343137 L100.534117,1.70343137 L99.5030195,1.03676471 L218.503019,1.03676471 Z" id="形状结合" fill="#1C92FF"></path>
                    <polyline id="路径-4" stroke="#01FFFF" stroke-linecap="round" stroke-linejoin="round" points="1.04411765 3.13235294 4.76816459 0 54.8069834 0 58.4012605 3.13235294"></polyline>
                    <path d="M-13.2730736,20.8823529 L-13.9093932,22.9705882 L-17.7273109,22.9705882 L-17.7273109,20.8823529 L-13.2730736,20.8823529 Z M-10.7277952,20.8823529 L-11.3641148,22.9705882 L-12.636754,22.9705882 L-12.0004344,20.8823529 L-10.7277952,20.8823529 Z M-8.18251674,20.8823529 L-8.81883635,22.9705882 L-10.0914756,22.9705882 L-9.45515596,20.8823529 L-8.18251674,20.8823529 Z M-5.63723829,20.8823529 L-6.2735579,22.9705882 L-7.54619712,22.9705882 L-6.90987751,20.8823529 L-5.63723829,20.8823529 Z M-3.09195983,20.8823529 L-3.72827945,22.9705882 L-5.00091867,22.9705882 L-4.36459906,20.8823529 L-3.09195983,20.8823529 Z M-0.546681384,20.8823529 L-1.183001,22.9705882 L-2.45564022,22.9705882 L-1.81932061,20.8823529 L-0.546681384,20.8823529 Z M1.99859707,20.8823529 L1.36227745,22.9705882 L0.0896382282,22.9705882 L0.725957841,20.8823529 L1.99859707,20.8823529 Z M4.54387552,20.8823529 L3.9075559,22.9705882 L2.63491668,22.9705882 L3.27123629,20.8823529 L4.54387552,20.8823529 Z M7.08915397,20.8823529 L6.45283435,22.9705882 L5.18019513,22.9705882 L5.81651474,20.8823529 L7.08915397,20.8823529 Z M9.63443242,20.8823529 L8.9981128,22.9705882 L7.72547358,22.9705882 L8.36179319,20.8823529 L9.63443242,20.8823529 Z M19.8155462,20.8823529 L19.1792266,22.9705882 L10.270752,22.9705882 L10.9070716,20.8823529 L19.8155462,20.8823529 Z" id="形状结合" fill="#01FFFF" transform="translate(1.044118, 21.926471) rotate(-90.000000) translate(-1.044118, -21.926471) "></path>
                </g>
            </g>
        </g>
    </g>
</svg>
