<?xml version="1.0" standalone="no"?>
<!DOCTYPE svg PUBLIC "-//W3C//DTD SVG 1.1//EN" "http://www.w3.org/Graphics/SVG/1.1/DTD/svg11.dtd" >
<svg xmlns="http://www.w3.org/2000/svg">
  <metadata>Created by iconfont</metadata>
  <defs>
  <font id="iconfont" horiz-adv-x="1024">
    <font-face
      font-family="iconfont"
      font-weight="400"
      font-stretch="normal"
      units-per-em="1024"
      ascent="896"
      descent="-128"
    />
    <missing-glyph/>

    <glyph glyph-name="gongxiangkuandai" unicode="&#58901;"
           d="M63.488 89.6V372.736a19.748571 19.748571 0 0 0 19.456 19.456h792.064a19.748571 19.748571 0 0 0 19.456-19.456v-115.712h64V372.736c0 46.08-37.376 82.944-82.944 82.944h-119.808V832h-64v-375.808H222.208V832h-64v-375.808H82.944C36.864 456.192 0 418.816 0 373.248v-283.136c0-46.08 37.376-82.944 82.944-82.944h409.6v63.488h-409.6a19.309714 19.309714 0 0 0-19.456 18.944z m89.088 120.832a41.984 41.984 0 1 1 83.968 0 41.984 41.984 0 0 1-83.968 0z m134.656 0a41.984 41.984 0 1 1 83.968 0 41.984 41.984 0 0 1-83.968 0z m135.168 0a41.984 41.984 0 1 1 83.968 0 41.984 41.984 0 0 1-83.968 0z m207.872-196.096v102.4a9.508571 9.508571 0 0 0 9.216 9.216h83.456v64H639.488a72.630857 72.630857 0 0 1-72.704-72.704v-102.4c0-40.448 32.768-72.704 72.704-72.704h83.456v64H639.488c-5.12-1.024-9.216 3.584-9.216 8.192z m276.992 175.616h-83.968v-64h83.968a9.508571 9.508571 0 0 0 9.216-9.216v-102.4a9.508571 9.508571 0 0 0-9.216-9.216h-83.968v-64h83.968a72.630857 72.630857 0 0 1 72.704 72.704v102.4a73.142857 73.142857 0 0 1-72.704 73.728z m-193.536-92.16h118.784v-64H713.728v64z"
           horiz-adv-x="1024"/>

    <glyph glyph-name="xiaoqu-xianxing" unicode="&#58902;"
           d="M938.422857-28.891429V322.048L704.585143 526.921143V848.384H119.588571v-877.275429h-58.514285v-58.514285h936.228571v58.514285h-58.806857z m-292.498286 0H178.102857V789.869714H645.851429v-818.761143z m234.057143 0h-175.542857v462.262858l175.396572-146.505143 0.073142-315.757715zM528.969143 555.885714h-234.057143v-58.368h234.057143V555.885714z m0-175.469714h-234.057143v-58.368h234.057143V380.342857z m0-175.469714h-234.057143v-58.733715h234.057143v58.733715z m292.352 0h-58.368v-58.733715h58.368v58.733715z"
           horiz-adv-x="1097"/>

    <glyph glyph-name="yuce" unicode="&#58899;"
           d="M192 224c19.2 0 32-12.8 32-32v-128c0-19.2-12.8-32-32-32s-32 12.8-32 32v128c0 19.2 12.8 32 32 32z m224 192c19.2 0 32-12.8 32-32v-320c0-19.2-12.8-32-32-32s-32 12.8-32 32V384c0 19.2 12.8 32 32 32z m192-128c19.2 0 32-12.8 32-32v-192c0-19.2-12.8-32-32-32s-32 12.8-32 32V256c0 19.2 12.8 32 32 32zM832 448c19.2 0 32-12.8 32-32v-352c0-19.2-12.8-32-32-32s-32 12.8-32 32V416c0 19.2 12.8 32 32 32zM419.2256 572.7744l-246.4256-246.3744a30.9248 30.9248 0 0 0-44.8 0 30.9248 30.9248 0 0 0 0 44.8l291.2256 291.2256 192-192 217.6 217.6c12.8 12.8 32 12.8 44.8 0s12.8-32 0-44.8l-262.4-262.4-192 192z"
           horiz-adv-x="1024"/>

    <glyph glyph-name="ziyuanshengfen" unicode="&#58900;"
           d="M117.161059 546.878229h31.478604v-336.18125h-31.478604V546.878229z m60.346787-434.455915l16.020818 27.025533 277.574744-164.558879-16.072003-27.076718-277.523559 164.610064z m372.983064-133.848046l284.535867 167.374038 15.918448-27.127902-284.484681-167.374039-15.969634 27.127903zM874.183088 545.649796h31.427419v-332.393581h-31.427419V545.598611z m-323.640993 240.517005l15.969633 27.127903 277.677114-163.279262-15.969633-27.127902-277.677114 163.279261zM175.92112 648.838194l276.755788 164.098216 16.020818-27.025532-276.704604-164.149402-16.072002 27.076718z m1.228433-88.191275l15.918448 27.127902 156.522878-92.030129-15.918448-27.127902-156.522878 92.030129z m512.051952-301.017346l15.918449 27.127902 143.982621-84.659529-15.918448-27.127903-143.982622 84.65953z m1.535542 249.167223l140.399691 83.277542 16.072002-27.076718-140.399691-83.226357-16.072002 27.025533zM174.897425 202.916901l155.908661 91.620652 15.918449-27.076718-155.908662-91.620651-15.918448 27.127902zM495.620889 773.114697h31.478604v-178.174015H495.620889v178.122831z m0-596.557927h31.478604v-178.174015H495.620889v178.174015zM139.06812 532.648876a69.662406 69.662406 0 0 0 0 139.222442 69.662406 69.662406 0 0 0 0-139.222442z m0 107.795023a38.234987 38.234987 0 0 1 0-76.367604 38.234987 38.234987 0 0 1 0 76.367604z m744.686511-107.795023a69.662406 69.662406 0 1 0 68.741081 69.611221 69.201743 69.201743 0 0 0-68.741081-69.611221z m0 107.795023a38.234987 38.234987 0 1 1 37.262477-38.132617 37.671955 37.671955 0 0 1-37.262477 38.132617z m-374.006759 114.653776a69.201743 69.201743 0 0 0-68.741081 69.611221 68.741081 68.741081 0 1 0 137.379793 0 69.201743 69.201743 0 0 0-68.638712-69.611221z m0 107.795024a37.825509 37.825509 0 0 1-37.262477-38.183803 37.262477 37.262477 0 1 1 74.47377 0 37.72314 37.72314 0 0 1-37.211293 38.183803z m0-990.833837a69.662406 69.662406 0 1 0 68.638712 69.662406 69.304113 69.304113 0 0 0-68.638712-69.611221z m0 107.897393a38.234987 38.234987 0 1 1 37.211293-38.234987 37.825509 37.825509 0 0 1-37.211293 38.234987z m-370.679752 107.795023a69.662406 69.662406 0 0 0 0 139.273627 69.662406 69.662406 0 0 0 0-139.222442z m0 107.846208a38.234987 38.234987 0 0 1 0-76.367604 38.234987 38.234987 0 0 1 0 76.367604z m744.686511-107.846208a69.662406 69.662406 0 1 0 68.741081 69.713591 69.201743 69.201743 0 0 0-68.741081-69.713591z m0 107.846208a38.234987 38.234987 0 1 1 37.262477-38.132617 37.72314 37.72314 0 0 1-37.262477 38.132617z m-361.517687-34.80561A221.425105 221.425105 0 0 0 302.910413 383.906076c0 122.894516 98.377034 223.011831 219.326531 223.011831 120.949497 0 219.275346-100.117315 219.275347-223.011831 0-122.894516-98.377034-223.011831-219.275347-223.011831z m0 414.596243A191.584412 191.584412 0 1 1 710.084872 383.906076 189.997686 189.997686 0 0 1 522.236944 575.336934z m153.554164-341.606831h-31.427419v64.28801a41.152516 41.152516 0 0 1-24.773405 35.368643 347.544258 347.544258 0 0 1-202.230834 0 41.203701 41.203701 0 0 1-24.619851-35.368643v-56.81504h-31.478603v56.81504c1.023694 29.38003 19.654933 55.228314 47.192313 65.414074a378.664569 378.664569 0 0 0 220.810888 0c27.63975-10.134575 46.270988-35.982859 47.192313-65.362889l-0.614217-64.339195z m-157.239464 117.213012a88.959046 88.959046 0 1 0 87.935352 88.907861 88.396014 88.396014 0 0 0-87.935352-88.907861z m0 146.388303a57.480442 57.480442 0 1 1 56.252009-57.480442 56.91741 56.91741 0 0 1-56.252009 57.480442z m0-146.388303a88.959046 88.959046 0 1 0 87.935352 88.907861 88.396014 88.396014 0 0 0-87.935352-88.907861z m0 146.388303a57.480442 57.480442 0 1 1 56.252009-57.480442 56.91741 56.91741 0 0 1-56.252009 57.480442zM426.5727 285.631411h31.427419v-95.715429h-31.427419v95.715429z m153.042317 0h31.427419v-95.715429h-31.478604v95.715429z"
           horiz-adv-x="1024"/>

    <glyph glyph-name="jiantou" unicode="&#59056;"
           d="M714.496 352.170667l30.208 30.208-415.829333 415.914666A42.837333 42.837333 0 0 1 256 768c0-11.349333 4.522667-22.186667 12.544-30.122667l355.413333-355.498666-355.413333-355.328a42.496 42.496 0 0 1 0-60.245334 42.837333 42.837333 0 0 1 60.330667 0l383.914666 383.658667 1.706667 1.706667z"
           horiz-adv-x="1024"/>

    <glyph glyph-name="yingyong" unicode="&#59057;"
           d="M951.893333 651.9466669999999L538.581333 890.581333a33.621333 33.621333 0 0 1-33.877333 0l-413.44-238.549333a34.133333 34.133333 0 0 1-16.938667-29.354667V145.493333c0-12.16 6.4-23.338667 16.981334-29.354666l413.312-238.677334c5.205333-2.944 11.093333-4.522667 16.981333-4.522666a35.072 35.072 0 0 1 16.981333 4.522666l413.312 238.677334a34.133333 34.133333 0 0 1 16.981334 29.354666V622.634667a33.92 33.92 0 0 1-16.981334 29.354666z m-59.648-481.962667l-370.645333-213.973333-370.645333 213.973333V597.845333l370.645333 213.973334 370.645333-213.973334v-427.861333zM285.226667 547.5840000000001a34.133333 34.133333 0 0 1-49.749334-38.314667 33.92 33.92 0 0 1 15.872-20.608l235.946667-136.192v-269.482666a33.706667 33.706667 0 0 1 33.877333-33.92 33.706667 33.706667 0 0 1 33.877334 33.92V352l236.842666 136.746667c16.213333 9.386667 21.76 30.08 12.458667 46.336a34.005333 34.005333 0 0 1-46.336 12.501333l-236.373333-136.533333-236.416 136.533333z"
           horiz-adv-x="1024"/>

    <glyph glyph-name="KHCFDC_daiban" unicode="&#59059;"
           d="M750.933333 448l-294.4-294.4-108.8 115.2c-12.8 12.8-32 12.8-44.8 0-12.8-12.8-12.8-32 0-44.8l134.4-134.4c12.8-12.8 32-12.8 44.8 0l313.6 313.6c12.8 12.8 12.8 32 0 44.8-12.8 12.8-32 12.8-44.8 0zM853.333333 725.333333h-102.4l-12.8 76.8c-6.4 32-32 51.2-64 51.2H392.533333c-32 0-57.6-19.2-64-51.2L315.733333 725.333333H213.333333C142.933333 725.333333 85.333333 667.733333 85.333333 597.333333v-554.666666c0-70.4 57.6-128 128-128h640c70.4 0 128 57.6 128 128V597.333333c0 70.4-57.6 128-128 128zM392.533333 789.333333h281.6l38.4-192H354.133333l38.4 192zM917.333333 42.66666699999996c0-38.4-25.6-64-64-64H213.333333c-38.4 0-64 25.6-64 64V597.333333c0 38.4 25.6 64 64 64h89.6L290.133333 597.333333H245.333333C226.133333 597.333333 213.333333 584.5333330000001 213.333333 565.333333s12.8-32 32-32h576c19.2 0 32 12.8 32 32S840.533333 597.333333 821.333333 597.333333H776.533333l-12.8 64H853.333333c38.4 0 64-25.6 64-64v-554.666666z"
           horiz-adv-x="1024"/>

    <glyph glyph-name="shujudaping" unicode="&#58891;"
           d="M85.333333 682.666667a42.666667 42.666667 0 0 0 42.666667 42.666666h768a42.666667 42.666667 0 0 0 42.666667-42.666666v-512a42.666667 42.666667 0 0 0-42.666667-42.666667H128a42.666667 42.666667 0 0 0-42.666667 42.666667V682.666667z m85.333334-42.666667v-426.666667h682.666666V640H170.666667z m128-576h426.666666v-85.333333H298.666667v85.333333zM417.834667 520.832a42.666667 42.666667 0 0 0 60.330666 0l97.834667-97.834667 85.333333 85.333334 60.330667-60.330667-115.498667-115.498667a42.666667 42.666667 0 0 0-60.330666 0L448 430.336l-85.333333-85.333333L302.336 405.333333l115.498667 115.498667z"
           horiz-adv-x="1024"/>

    <glyph glyph-name="lianxiwomen" unicode="&#58892;"
           d="M658.986667 410.453333c0-39.68-33.024-72.704-72.661334-72.704-39.68 0-72.661333 33.024-72.661333 72.661334 0 39.68 33.024 72.704 72.661333 72.704 41.301333 0 72.661333-33.066667 72.661334-72.704zM333.653333 483.072c39.68 0 72.704-33.066667 72.704-72.704 0-39.637333-33.066667-72.661333-72.704-72.661333a73.301333 73.301333 0 0 0-72.661333 72.661333c0 39.68 33.024 72.704 72.661333 72.704z m-279.125333-14.890667h4.992C108.970667 640 264.277333 717.653333 330.325333 748.970667c3.285333 1.706667 4.949333 3.328 8.234667 4.992-8.234667 8.277333-18.133333 19.797333-21.461333 34.688a48.981333 48.981333 0 0 0 13.226666 44.586666c9.898667 11.562667 31.36 34.688 158.549334 18.176 123.861333-13.226667 416.213333-112.298667 474.026666-383.146666h6.613334c21.461333 0 37.973333-16.554667 37.973333-38.016v-120.576c0-21.461333-16.512-37.973333-37.973333-37.973334h-6.613334c-42.965333-211.413333-221.312-303.914667-393.088-322.090666v-1.621334c0-21.504-16.512-37.973333-37.973333-37.973333h-155.306667a37.376 37.376 0 0 0-37.973333 37.973333V38.826667c0 21.461333 16.554667 37.973333 37.973333 37.973333h155.306667c21.461333 0 37.973333-16.512 37.973333-37.973333v-4.949334c99.072 11.52 265.898667 61.098667 310.485334 242.773334-11.52 6.613333-21.461333 19.797333-21.461334 34.688v120.576a37.546667 37.546667 0 0 0 19.84 33.024c-66.090667 257.621333-396.373333 305.536-399.701333 307.2-21.461333 3.285333-37.973333 3.285333-52.864 4.949333 3.328-8.277333 4.949333-16.512 4.949333-26.453333 0-13.226667-4.949333-33.024-26.453333-51.2-8.234667-8.234667-19.797333-13.226667-39.594667-23.082667C307.2 648.277333 188.288 588.8 143.701333 464.938667a37.546667 37.546667 0 0 0 19.797334-33.024v-120.576c0-21.461333-16.512-37.973333-37.973334-37.973334H52.864a37.376 37.376 0 0 0-37.973333 37.973334v120.576a39.68 39.68 0 0 0 39.594666 36.309333z"
           horiz-adv-x="1024"/>

    <glyph glyph-name="ziyuanguanli" unicode="&#58887;"
           d="M832 576l-256 128H512l-256-128v-384l256-128h64l256 128v384zM512 128l-192 96v256L512 384v-256z m256 96L576 128v256L768 480v-256z m-192 224H512L320 544 512 640h64L768 544l-192-96zM128 612.48L512 832h64l128-72.96v64L576 896H512L64 640v-256H128V612.48zM576-64H512l-384 219.52V320H64V128L512-128h64l192 109.44v64L576-64zM768 786.56v-64l192-109.44v-456.96l-128-72.96v-64L1024 128V640l-256 146.56z"
           horiz-adv-x="1024"/>

    <glyph glyph-name="ziyuanyingyong" unicode="&#58888;"
           d="M434.176 314.368c0-5.12-3.072-9.728-7.68-11.776l-257.024-109.568a13.056 13.056 0 0 0-12.288 1.024 13.354667 13.354667 0 0 0-5.632 10.752V494.592c0 4.608 2.048 8.192 5.632 10.752a11.818667 11.818667 0 0 0 12.288 1.024l257.024-107.008a13.44 13.44 0 0 0 8.192-11.776l-0.512-73.216z m0-247.296a13.141333 13.141333 0 0 0-17.92-12.288L209.92 136.192a12.629333 12.629333 0 0 0-8.192 11.776c0 5.12 3.072 10.24 8.192 11.776l206.336 86.528a14.677333 14.677333 0 0 0 12.288-1.024c3.584-2.56 5.632-6.144 5.632-10.752v-167.424z m32.256 361.472L135.68 566.784a21.376 21.376 0 0 1-19.968-2.048 21.333333 21.333333 0 0 1-9.216-17.408v-402.432c0-8.192 5.12-15.872 12.8-19.456l330.752-138.752a21.077333 21.077333 0 0 1 29.184 19.456v402.944a21.888 21.888 0 0 1-12.8 19.456z m387.584-223.232a12.672 12.672 0 0 0-5.632-10.752 11.818667 11.818667 0 0 0-12.288-1.024l-257.024 109.568a12.928 12.928 0 0 0-7.68 11.776v73.216c0 5.12 3.072 9.728 8.192 11.776l256.512 107.008a14.677333 14.677333 0 0 0 12.288-1.024c3.584-2.56 5.632-6.144 5.632-10.752v-289.792z m-58.88-68.608L588.8 55.296a11.946667 11.946667 0 0 0-11.776 1.536 12.672 12.672 0 0 0-5.632 10.752V235.52c0 4.608 2.048 8.192 5.632 10.752a11.818667 11.818667 0 0 0 12.288 1.024l206.336-86.528c5.12-2.048 8.192-6.656 7.68-11.776 0-5.632-3.072-10.752-8.192-12.288z m94.72 428.544a20.352 20.352 0 0 1-19.456 2.048l-330.752-138.752a20.778667 20.778667 0 0 1-12.8-19.456v-402.432c0-11.776 9.216-20.992 20.992-20.992 2.56 0 5.632 0.512 8.192 1.536l330.752 138.24c7.68 3.072 12.8 10.752 12.8 19.456V547.84a24.234667 24.234667 0 0 1-9.728 17.408z m-121.344 51.2l-223.232-79.36a17.493333 17.493333 0 0 0-22.016 10.24c-0.512 2.048-1.024 3.584-1.024 5.632V718.336c0 9.728 7.68 17.408 17.408 17.408 2.048 0 4.096-0.512 6.144-1.024l223.232-86.016c6.656-2.56 11.264-9.216 11.264-16.384a18.389333 18.389333 0 0 0-11.776-15.872z m-281.6-62.976a17.28 17.28 0 0 0-23.04-16.384L240.64 616.448a17.109333 17.109333 0 0 0-11.264 15.872 17.066667 17.066667 0 0 0 11.264 16.384l223.232 86.016a16.170667 16.170667 0 0 0 15.872-2.048c4.608-3.072 7.68-8.704 7.68-14.336l-0.512-164.864z m392.192 78.848a20.608 20.608 0 0 1-12.8 18.944L512.512 788.48a18.688 18.688 0 0 1-14.848 0L145.408 650.752c-7.68-3.072-12.8-10.24-12.8-18.432s5.12-15.36 12.8-18.432l352.256-136.704a18.688 18.688 0 0 1 14.848 0l353.792 136.704c7.68 2.56 12.8 10.24 12.8 18.432z"
           horiz-adv-x="1024"/>

    <glyph glyph-name="ziyuanfuneng" unicode="&#58889;"
           d="M151.637333 744.32C231.296 823.978667 364.8 832.128 511.573333 767.573333c141.397333 62.421333 278.613333 58.88 360.746667-23.253333 79.701333-79.786667 87.808-213.333333 23.125333-360.192 12.202667-27.434667 22.144-55.765333 29.696-84.906667 29.269333-114.304 10.368-212.138667-52.821333-275.413333-44.288-44.16-105.088-66.432-175.573333-66.432-56.362667 0-118.954667 14.378667-184.192 43.050667-63.872-28.245333-127.018667-43.093333-184.618667-43.093334-69.802667 0-131.328 21.589333-176.298667 66.474667-79.658667 79.701333-87.765333 213.333333-23.082666 360.234667a549.077333 549.077333 0 0 0-29.738667 84.906666c-29.269333 114.346667-10.368 212.053333 52.821333 275.370667z m662.186667-58.538667c-79.829333 79.872-256 41.642667-408.661333-80.341333a93.141333 93.141333 0 1 0-55.466667 61.738667c20.821333 16.896 42.666667 32.810667 65.152 47.573333-86.570667 24.064-161.365333 14.421333-204.672-28.842667-41.728-41.813333-52.864-111.616-31.146667-196.522666 17.962667-70.826667 56.789333-144.256 111.402667-212.181334a93.141333 93.141333 0 1 0-61.568-55.168c-16.938667 20.906667-32.768 42.666667-47.488 65.237334-24.192-86.613333-14.634667-161.536 28.8-205.013334 79.914667-79.786667 256-41.557333 408.661333 80.341334a93.141333 93.141333 0 1 0 55.466667-61.738667c-20.693333-16.896-42.410667-32.768-64.768-47.530667 86.314667-23.893333 160.896-14.378667 204.330667 28.928 41.685333 41.813333 52.821333 111.573333 31.146666 196.522667-18.133333 70.912-56.874667 144.213333-111.445333 212.138667a93.141333 93.141333 0 1 0 61.568 55.296c16.810667-20.992 32.725333-42.88 47.488-65.493334 24.064 86.698667 14.634667 161.578667-28.757333 205.056z"
           horiz-adv-x="1024"/>

    <glyph glyph-name="ziyuanzhili" unicode="&#58890;"
           d="M512.000205 855.04c65.08544 0 123.45344-66.1504 162.89792-170.5984a30.59712 30.59712 0 0 1 33.71008-19.456c27.72992 4.5056 53.82144 6.79936 78.0288 6.79936 72.17152 0 126.68928-20.35712 151.10144-62.58688 32.52224-56.36096 4.5056-139.83744-66.23232-226.26304a30.67904 30.67904 0 0 1 0-38.95296c35.30752-43.2128 59.96544-85.6064 71.80288-124.39552A92.24192 92.24192 0 0 0 1003.520205 130.4576a92.48768 92.48768 0 0 0-88.4736-89.37472 91.62752 91.62752 0 0 0-62.38208 21.01248 292.74112 292.74112 0 0 0-66.10944-6.92224c-24.20736 0-50.3808 2.33472-78.06976 6.84032a30.76096 30.76096 0 0 1-33.66912-19.49696c-39.36256-104.448-97.73056-170.47552-162.816-170.47552s-123.45344 66.1504-162.89792 170.47552a30.59712 30.59712 0 0 1-33.71008 19.49696c-27.72992-4.5056-53.82144-6.84032-78.0288-6.84032-72.17152 0-126.68928 20.35712-151.10144 62.58688-32.52224 56.36096-4.5056 139.8784 66.23232 226.26304a30.67904 30.67904 0 0 1 0 38.99392c-35.30752 43.17184-59.96544 85.6064-71.80288 124.39552A92.44672 92.44672 0 0 0 20.480205 596.5824a92.48768 92.48768 0 0 0 88.4736 89.37472 91.62752 91.62752 0 0 0 62.38208-21.01248 292.74112 292.74112 0 0 0 66.10944 6.88128c24.20736 0 50.3808-2.29376 78.06976-6.79936a30.76096 30.76096 0 0 1 33.66912 19.49696C388.546765 789.01248 446.914765 855.04 512.000205 855.04z m23.3472-742.11328a60.86656 60.86656 0 0 1-46.4896 0c-27.52512-11.22304-54.4768-20.93056-80.81408-28.91776a7.61856 7.61856 0 0 1-4.99712-9.8304c4.21888-11.6736 8.56064-22.77376 13.23008-33.46432 16.26112-37.23264 35.2256-66.88768 54.72256-85.8112 14.70464-14.21312 28.42624-21.38112 41.00096-21.38112 12.57472 0 26.29632 7.168 41.08288 21.2992 19.49696 18.92352 38.37952 48.57856 54.72256 85.8112 4.58752 10.6496 9.0112 21.79072 13.23008 33.50528a7.61856 7.61856 0 0 1-4.99712 9.87136c-26.2144 7.9872-53.248 17.69472-80.6912 28.91776z m376.0128 50.95424a30.72 30.72 0 1 1-0.08192-61.35808 30.72 30.72 0 0 1 0.04096 61.35808zM218.030285 313.9584a7.74144 7.74144 0 0 1-11.14112-0.65536c-8.06912-9.4208-15.44192-18.71872-22.36416-28.13952-24.08448-32.72704-40.30464-63.8976-46.94016-90.3168-4.9152-19.78368-4.21888-35.34848 2.048-46.16192 4.87424-8.56064 14.09024-15.5648 27.32032-20.93056 17.85856-7.20896 42.22976-11.0592 70.4512-11.0592 23.83872 0 50.21696 2.62144 78.6432 7.86432a7.7824 7.7824 0 0 1 6.02112 9.33888c-7.08608 30.3104-12.73856 62.6688-16.87552 96.37888a31.00672 31.00672 0 0 1-12.0832 20.8896 913.408 913.408 0 0 0-75.07968 62.79168z m599.2448-0.65536a7.74144 7.74144 0 0 1-11.10016 0.65536 950.10816 950.10816 0 0 0-75.07968-62.75072 31.00672 31.00672 0 0 1-12.0832-20.93056c-4.096-33.792-9.87136-66.06848-16.87552-96.37888a7.5776 7.5776 0 0 1 6.02112-9.33888c28.13952-5.16096 54.51776-7.86432 78.35648-7.86432 12.0832 0 23.38816 0.69632 33.792 2.048a92.44672 92.44672 0 0 0 58.08128 100.59776A335.4624 335.4624 0 0 1 839.680205 285.12256a561.43872 561.43872 0 0 1-22.36416 28.13952z m-445.35808-116.3264a742.44096 742.44096 0 0 1 11.42784-56.15616 857.37472 857.37472 0 0 1 54.31296 18.14528 1031.5776 1031.5776 0 0 0-65.7408 37.96992z m280.1664 0a1052.34432 1052.34432 0 0 0-65.7408-38.01088 857.37472 857.37472 0 0 1 54.35392-18.18624c3.2768 13.84448 6.30784 28.0576 9.0112 42.72128l2.41664 13.43488zM539.975885 522.8544a61.60384 61.60384 0 0 1-55.86944 0 1049.72288 1049.72288 0 0 1-109.60896-64.3072 30.80192 30.80192 0 0 1-13.63968-23.51104c-1.6384-23.51104-2.41664-47.43168-2.41664-71.59808 0-24.20736 0.77824-48.128 2.41664-71.63904a30.96576 30.96576 0 0 1 13.63968-23.51104 1083.8016 1083.8016 0 0 1 109.60896-64.3072c17.57184-8.92928 38.2976-8.92928 55.86944 0a1049.76384 1049.76384 0 0 1 109.60896 64.38912 30.80192 30.80192 0 0 1 13.63968 23.552c1.6384 23.51104 2.41664 47.3088 2.41664 71.51616 0 24.1664-0.77824 48.08704-2.41664 71.59808a30.96576 30.96576 0 0 1-13.63968 23.51104 1083.8016 1083.8016 0 0 1-109.60896 64.3072z m-242.2784-121.40544A816.45568 816.45568 0 0 1 254.730445 363.52c10.28096-9.70752 21.13536-19.49696 32.44032-29.20448 3.4816-2.94912 6.9632-5.9392 10.48576-8.8064a992.01024 992.01024 0 0 0-0.69632 37.92896c0 12.73856 0.28672 25.3952 0.69632 38.01088z m428.68736 0.08192c0.49152-12.57472 0.69632-25.14944 0.69632-37.92896 0-12.73856-0.28672-25.3952-0.69632-38.01088l10.48576 8.84736c11.30496 9.70752 22.15936 19.37408 32.44032 29.16352-10.28096 9.70752-21.13536 19.49696-32.44032 29.20448-3.4816 2.8672-6.9632 5.85728-10.48576 8.72448zM512.000205 394.28096a30.72 30.72 0 1 0 0-61.44 30.72 30.72 0 0 0 0 61.44z m274.55488 216.18688c-23.83872 0-50.21696-2.62144-78.52032-7.90528a7.7824 7.7824 0 0 1-6.144-9.29792c7.08608-30.3104 12.73856-62.6688 16.87552-96.37888a31.00672 31.00672 0 0 1 12.0832-20.8896 913.408 913.408 0 0 0 75.07968-62.79168c3.2768-2.99008 8.27392-2.70336 11.14112 0.65536 8.06912 9.4208 15.44192 18.71872 22.36416 28.13952 24.08448 32.72704 40.30464 63.8976 46.94016 90.3168 4.9152 19.78368 4.21888 35.30752-2.048 46.16192-4.87424 8.56064-14.09024 15.5648-27.32032 20.93056-17.85856 7.20896-42.22976 11.0592-70.4512 11.0592z m-549.19168 0c-12.0832 0-23.42912-0.69632-33.792-2.048a92.3648 92.3648 0 0 0-57.87648-100.51584c8.6016-20.31616 21.7088-42.68032 38.66624-65.82272 6.9632-9.29792 14.41792-18.71872 22.36416-28.13952 2.8672-3.35872 7.9872-3.64544 11.14112-0.65536a950.10816 950.10816 0 0 0 75.07968 62.79168 30.06464 30.06464 0 0 1 11.8784 20.80768c4.13696 33.792 9.91232 66.06848 16.91648 96.37888a7.5776 7.5776 0 0 1-6.06208 9.29792 437.12512 437.12512 0 0 1-78.31552 7.90528z m403.2512-24.12544a857.37472 857.37472 0 0 1-54.31296-18.14528c11.14112-5.85728 22.15936-12.00128 33.1776-18.432 11.0592-6.43072 21.9136-12.94336 32.5632-19.57888a742.44096 742.44096 0 0 1-11.42784 56.15616z m-257.35168 0.12288c-3.2768-13.84448-6.30784-28.0576-9.0112-42.72128-0.77824-4.5056-1.6384-9.0112-2.29376-13.43488A1081.22112 1081.22112 0 0 0 437.698765 568.32a857.37472 857.37472 0 0 1-40.79616 14.00832c-4.58752 1.4336-9.13408 2.78528-13.63968 4.096z m-270.58176 38.17472a30.3104 30.3104 0 0 1-23.79776-11.38688 28.59008 28.59008 0 0 1-4.9152-8.47872 30.72 30.72 0 1 1 28.672 19.8656zM512.000205 793.6c-12.57472 0-26.29632-7.20896-41.08288-21.2992-19.49696-18.92352-38.37952-48.57856-54.72256-85.8112-4.58752-10.6496-9.0112-21.9136-13.14816-33.5872-1.4336-4.13696 0.77824-8.6016 4.9152-9.91232 23.67488-7.49568 58.1632-20.72576 80.896-29.57312 14.66368-5.69344 30.96576-5.5296 45.50656 0.4096a903.41376 903.41376 0 0 0 81.59232 29.24544 7.61856 7.61856 0 0 1 4.99712 9.91232 484.1472 484.1472 0 0 1-13.23008 33.3824c-16.26112 37.2736-35.2256 66.92864-54.72256 85.8112-14.70464 14.21312-28.42624 21.42208-41.00096 21.42208z"
           horiz-adv-x="1024"/>

    <glyph glyph-name="earth" unicode="&#59265;"
           d="M854.4 95.1c0.2 0.3 0.5 0.6 0.7 0.9C920.6 173.9 960 274.3 960 384s-39.4 210.1-104.8 288c-0.2 0.3-0.5 0.5-0.7 0.8-1.1 1.3-2.1 2.5-3.2 3.7-0.4 0.5-0.8 0.9-1.2 1.4-1.4 1.6-2.7 3.1-4.1 4.7l-0.1 0.1c-1.5 1.7-3.1 3.4-4.6 5.1l-0.1 0.1c-3.2 3.4-6.4 6.8-9.7 10.1l-0.1 0.1-4.8 4.8-0.3 0.3c-1.5 1.5-3 2.9-4.5 4.3-0.5 0.5-1 1-1.6 1.5-1 1-2 1.9-3 2.8-0.3 0.3-0.7 0.6-1 1C736.4 786.8 629.5 832 512 832s-224.4-45.2-304.3-119.2c-0.3-0.3-0.7-0.6-1-1-1-0.9-2-1.9-3-2.9-0.5-0.5-1-1-1.6-1.5-1.5-1.4-3-2.9-4.5-4.3l-0.3-0.3-4.8-4.8-0.1-0.1c-3.3-3.3-6.5-6.7-9.7-10.1l-0.1-0.1c-1.6-1.7-3.1-3.4-4.6-5.1l-0.1-0.1c-1.4-1.5-2.8-3.1-4.1-4.7-0.4-0.5-0.8-0.9-1.2-1.4-1.1-1.2-2.1-2.5-3.2-3.7-0.2-0.3-0.5-0.5-0.7-0.8C103.4 594.1 64 493.7 64 384s39.4-210.1 104.8-288c0.2-0.3 0.5-0.6 0.7-0.9 1-1.2 2.1-2.5 3.1-3.7 0.4-0.5 0.8-0.9 1.2-1.4 1.4-1.6 2.7-3.1 4.1-4.7 0-0.1 0.1-0.1 0.1-0.2 1.5-1.7 3-3.4 4.6-5l0.1-0.1c3.2-3.4 6.4-6.8 9.6-10.1l0.1-0.1c1.6-1.6 3.1-3.2 4.7-4.7l0.3-0.3c3.3-3.3 6.7-6.5 10.1-9.6 80.1-74 187-119.2 304.5-119.2s224.4 45.2 304.3 119.2c3.4 3.1 6.7 6.3 10 9.6l0.3 0.3c1.6 1.6 3.2 3.1 4.7 4.7l0.1 0.1c3.3 3.3 6.5 6.7 9.6 10.1l0.1 0.1c1.5 1.7 3.1 3.3 4.6 5 0 0.1 0.1 0.1 0.1 0.2 1.4 1.5 2.8 3.1 4.1 4.7 0.4 0.5 0.8 0.9 1.2 1.4 1.2 1.3 2.3 2.5 3.3 3.7z m4.1 142.6c-13.8-32.6-32-62.8-54.2-90.2-24.9 21.5-52.2 40.3-81.5 55.9 11.6 46.9 18.8 98.4 20.7 152.6H887c-3-40.9-12.6-80.6-28.5-118.3zM887 412H743.5c-1.9 54.2-9.1 105.7-20.7 152.6 29.3 15.6 56.6 34.4 81.5 55.9 22.2-27.4 40.4-57.6 54.2-90.2C874.4 492.6 884 452.9 887 412zM658.3 730.5c39.7-16.8 75.8-40 107.6-69.2-18.5-15.8-38.4-29.7-59.4-41.8-15.7 45-35.8 84.1-59.2 115.4 3.7-1.4 7.4-2.9 11-4.4z m-90.6-700.6c-9.2-7.2-18.4-12.7-27.7-16.4V199c39.9-2.8 78.6-11.6 115.7-26.2-8.3-24.6-17.9-47.3-29-67.8-17.4-32.4-37.8-58.3-59-75.1z m59 633.1c11-20.6 20.7-43.3 29-67.8-37.1-14.6-75.8-23.4-115.7-26.2V754.4c9.2-3.7 18.5-9.1 27.7-16.4 21.2-16.7 41.6-42.6 59-75zM540 255.1V356h147.5c-1.6-44.2-7.1-87.1-16.3-127.8l-0.3-1.2c-41.1 15.6-85.1 25.3-130.9 28.1z m0 156.9V512.9c45.8 2.8 89.8 12.5 130.9 28.1l0.3-1.2c9.2-40.7 14.7-83.5 16.3-127.8H540z m-56-56v-100.9c-45.8-2.8-89.8-12.5-130.9-28.1l-0.3 1.2c-9.2 40.7-14.7 83.5-16.3 127.8H484z m-147.5 56c1.6 44.2 7.1 87.1 16.3 127.8l0.3 1.2c41.1-15.6 85-25.3 130.9-28.1V412H336.5zM484 199v-185.4c-9.2 3.7-18.5 9.1-27.7 16.4-21.2 16.7-41.7 42.7-59.1 75.1-11 20.6-20.7 43.3-29 67.8 37.2 14.6 75.9 23.3 115.8 26.1z m0 370c-39.9 2.8-78.6 11.6-115.7 26.2 8.3 24.6 17.9 47.3 29 67.8 17.4 32.4 37.8 58.4 59.1 75.1 9.2 7.2 18.4 12.7 27.7 16.4V569zM365.7 730.5c3.7 1.5 7.3 3 11 4.4-23.4-31.3-43.5-70.4-59.2-115.4-21 12-40.9 26-59.4 41.8 31.8 29.2 67.9 52.4 107.6 69.2zM165.5 530.3c13.8 32.6 32 62.8 54.2 90.2 24.9-21.5 52.2-40.3 81.5-55.9-11.6-46.9-18.8-98.4-20.7-152.6H137c3 40.9 12.6 80.6 28.5 118.3zM137 356h143.5c1.9-54.2 9.1-105.7 20.7-152.6-29.3-15.6-56.6-34.4-81.5-55.9-22.2 27.4-40.4 57.6-54.2 90.2C149.6 275.4 140 315.1 137 356z m228.7-318.5c-39.7 16.8-75.8 40-107.6 69.2 18.5 15.8 38.4 29.7 59.4 41.8 15.7-45 35.8-84.1 59.2-115.4-3.7 1.4-7.4 2.9-11 4.4z m292.6 0c-3.7-1.5-7.3-3-11-4.4 23.4 31.3 43.5 70.4 59.2 115.4 21-12 40.9-26 59.4-41.8-31.8-29.2-67.9-52.4-107.6-69.2z"
           horiz-adv-x="1024"/>

    <glyph glyph-name="location-fill" unicode="&#59496;"
           d="M512 569c-29.9 0-58-11.6-79.2-32.8C411.7 515 400 486.9 400 457c0-29.9 11.7-58 32.8-79.2C454 356.7 482.1 345 512 345c29.9 0 58 11.7 79.2 32.8C612.4 399 624 427.1 624 457c0 29.9-11.6 58-32.8 79.2S541.9 569 512 569zM854.6 606.9c-18.8 43.4-45.7 82.3-79.9 115.7-34.2 33.4-73.9 59.5-118.2 77.8C610.7 819.4 562.1 829 512 829c-50.1 0-98.7-9.6-144.5-28.5-44.3-18.3-84-44.5-118.2-77.8-34.2-33.4-61.1-72.4-79.9-115.7-19.5-45-29.4-92.8-29.4-142 0-70.6 16.9-140.9 50.1-208.7 26.7-54.5 64-107.6 111-158.1 80.3-86.2 164.5-138.9 188.4-153 6.9-4.1 14.7-6.1 22.4-6.1 7.8 0 15.5 2 22.4 6.1 23.9 14.1 108.1 66.8 188.4 153 47 50.4 84.3 103.6 111 158.1C867.1 324 884 394.2 884 464.9c0 49.2-9.9 97-29.4 142zM512 281c-97.2 0-176 78.8-176 176s78.8 176 176 176 176-78.8 176-176-78.8-176-176-176z"
           horiz-adv-x="1024"/>

    <glyph glyph-name="download" unicode="&#58881;"
           d="M512 603.256471a30.117647 30.117647 0 0 1 30.117647 30.117647V724.630588a30.117647 30.117647 0 0 1-60.235294 0V633.374118a30.117647 30.117647 0 0 1 30.117647-30.117647z m-159.623529-338.82353a12.047059 12.047059 0 0 1-8.553412-20.60047l160.707765-160.707765a12.047059 12.047059 0 0 1 17.046588 0l160.707764 160.707765a12.047059 12.047059 0 0 1-8.493176 20.60047H542.117647V512.903529a30.117647 30.117647 0 0 1-60.235294 0v-248.470588H352.376471z m517.662117 404.239059l-163.96047 81.016471a30.117647 30.117647 0 0 1-26.744471-53.970824L843.294118 614.701176v-473.268705l-331.294118-138.842353L180.705882 141.432471V614.701176l163.900236 81.016471a30.117647 30.117647 0 0 1-26.624 53.970824L154.021647 668.672A59.934118 59.934118 0 0 1 120.470588 614.701176v-473.268705c0-24.395294 14.516706-46.200471 36.984471-55.536942l342.919529-143.721411a30.057412 30.057412 0 0 1 23.311059 0l342.919529 143.661176a60.114824 60.114824 0 0 1 36.924236 55.597177V614.701176a59.934118 59.934118 0 0 1-33.490824 53.970824z"
           horiz-adv-x="1024"/>

    <glyph glyph-name="upload" unicode="&#58882;"
           d="M526.275765 137.456941a30.117647 30.117647 0 0 0 30.117647-30.117647v-91.25647a30.117647 30.117647 0 0 0-60.235294 0v91.25647a30.117647 30.117647 0 0 0 30.117647 30.117647z m-159.62353 338.82353a12.047059 12.047059 0 0 0-8.553411 20.60047l160.707764 160.707765a12.047059 12.047059 0 0 0 17.046588 0l160.707765-160.707765a12.047059 12.047059 0 0 0-8.553412-20.60047H556.393412v-248.470589a30.117647 30.117647 0 0 0-60.235294 0V476.280471h-129.505883z m517.601883-404.239059l-163.900236-81.016471a30.117647 30.117647 0 0 0-26.74447 53.970824l163.96047 81.01647V599.280941l-331.294117 138.842353-331.294118-138.842353v-473.268706l163.900235-81.01647a30.117647 30.117647 0 0 0-26.624-53.970824L168.297412 71.981176a59.934118 59.934118 0 0 0-33.551059 53.970824V599.280941c0 24.395294 14.456471 46.200471 36.924235 55.536941l342.979765 143.721412a30.057412 30.057412 0 0 0 23.311059 0l342.919529-143.661176c22.407529-9.396706 36.924235-31.322353 36.924235-55.597177v-473.268706a59.934118 59.934118 0 0 0-33.551058-53.970823z"
           horiz-adv-x="1024"/>

    <glyph glyph-name="light" unicode="&#58884;"
           d="M512 879.796706c-265.035294 0-481.882353-216.847059-481.882353-481.882353s216.847059-481.882353 481.882353-481.882353 481.882353 216.847059 481.882353 481.882353-216.847059 481.882353-481.882353 481.882353z m0-903.529412c-234.917647 0-421.647059 186.729412-421.647059 421.647059s186.729412 421.647059 421.647059 421.647059 421.647059-186.729412 421.647059-421.647059-186.729412-421.647059-421.647059-421.647059z m0 536.094118c-96.376471 0-174.682353-78.305882-174.682353-174.682353 0-18.070588 12.047059-30.117647 30.117647-30.117647s30.117647 12.047059 30.117647 30.117647c0 60.235294 54.211765 114.447059 114.447059 114.447059 60.235294 0 114.447059-54.211765 114.447059-114.447059 0-18.070588 12.047059-30.117647 30.117647-30.117647s30.117647 12.047059 30.117647 30.117647c0 96.376471-78.305882 174.682353-174.682353 174.682353z m144.564706-246.964706H367.435294c-18.070588 0-30.117647-12.047059-30.117647-30.117647s12.047059-30.117647 30.117647-30.117647h289.129412c18.070588 0 30.117647 12.047059 30.117647 30.117647s-18.070588 30.117647-30.117647 30.117647z m-60.235294-108.42353H427.670588c-18.070588 0-30.117647-12.047059-30.117647-30.117647s12.047059-30.117647 30.117647-30.117647h168.658824c18.070588 0 30.117647 12.047059 30.117647 30.117647s-12.047059 30.117647-30.117647 30.117647zM512 554.526118c18.070588 0 30.117647 12.047059 30.117647 30.117647v84.329411c0 12.047059-12.047059 30.117647-30.117647 30.117648s-30.117647-18.070588-30.117647-30.117648v-78.305882c0-18.070588 12.047059-36.141176 30.117647-36.141176z m-150.588235-60.235294c6.023529 0 18.070588 0 24.094117 6.023529 12.047059 12.047059 12.047059 30.117647 0 42.164706l-60.235294 60.235294c-12.047059 12.047059-30.117647 12.047059-42.164706 0-12.047059-12.047059-12.047059-30.117647 0-42.164706l54.211765-54.211765c12.047059-6.023529 18.070588-12.047059 24.094118-12.047058z m331.294117 108.423529l-54.211764-54.211765c-12.047059-12.047059-12.047059-30.117647 0-42.164706 6.023529-6.023529 12.047059-6.023529 24.094117-6.023529s18.070588 0 24.094118 6.023529l54.211765 54.211765c12.047059 12.047059 12.047059 30.117647 0 42.164706-12.047059 12.047059-36.141176 12.047059-48.188236 0z"
           horiz-adv-x="1024"/>

    <glyph glyph-name="net" unicode="&#58885;"
           d="M512.180706 763.843765a384.060235 384.060235 0 0 0 272.685176-112.941177 384.542118 384.542118 0 0 0 112.820706-272.685176 385.566118 385.566118 0 0 0-28.069647-144.685177 17.227294 17.227294 0 0 0-31.804235 12.890353 351.954824 351.954824 0 0 1 25.118118 114.56753h-131.794824a432.609882 432.609882 0 0 0-173.537882-331.053177 350.268235 350.268235 0 0 1 87.642353 23.190588 17.227294 17.227294 0 0 0 13.071058-31.86447 385.325176 385.325176 0 0 0-146.191058-28.672 384.542118 384.542118 0 0 0-272.685177 112.941176 385.505882 385.505882 0 0 0-82.642823 122.578824A382.855529 382.855529 0 0 0 126.494118 378.217412a384.361412 384.361412 0 0 0 112.941176 272.685176 384.722824 384.722824 0 0 0 272.685177 112.941177z m275.275294-551.936c60.235294 0 109.206588-48.971294 109.206588-109.206589s-48.971294-109.266824-109.206588-109.266823-109.266824 49.031529-109.266824 109.266823 48.971294 109.206588 109.266824 109.206589z m0-34.394353c-41.261176 0-74.812235-33.611294-74.812235-74.812236 0-41.261176 33.551059-74.812235 74.812235-74.812235 41.200941 0 74.752 33.551059 74.752 74.812235 0 41.200941-33.551059 74.812235-74.752 74.812236zM291.900235 360.990118H161.370353a348.16 348.16 0 0 1 27.226353-119.446589A349.003294 349.003294 0 0 1 263.830588 129.807059a350.629647 350.629647 0 0 1 201.306353-99.749647 432.609882 432.609882 0 0 0-173.296941 330.87247z m404.781177 0H527.661176v-310.392471a401.588706 401.588706 0 0 1 116.193883 127.156706 399.480471 399.480471 0 0 1 52.826353 183.235765z m-203.595294 0H326.475294a398.155294 398.155294 0 0 1 166.731294-308.766118V360.990118z m60.054588 366.110117a438.934588 438.934588 0 0 0 120.048941-133.12 432.670118 432.670118 0 0 0 57.825882-198.535529h131.915295a348.16 348.16 0 0 1-27.226353 119.506823 349.003294 349.003294 0 0 1-75.233883 111.616 351.232 351.232 0 0 1-111.555764 75.294118 346.955294 346.955294 0 0 1-95.774118 25.298824z m-59.994353-25.72047A398.215529 398.215529 0 0 1 326.475294 395.444706h166.671059z m34.394353 1.626353V395.444706h169.020235a398.938353 398.938353 0 0 1-53.248 181.187765 402.432 402.432 0 0 1-115.772235 126.373647z m-57.825882 23.853176A349.003294 349.003294 0 0 1 263.830588 626.567529a349.003294 349.003294 0 0 1-75.294117-111.616 348.16 348.16 0 0 1-27.105883-119.506823h130.590118a432.670118 432.670118 0 0 0 177.694118 331.414588z"
           horiz-adv-x="1024"/>

    <glyph glyph-name="jizhan" unicode="&#58886;"
           d="M752.158118 332.197647a210.823529 210.823529 0 1 0 0-421.647059 210.823529 210.823529 0 0 0 0 421.647059zM93.545412 171.188706a30.117647 30.117647 0 0 0 40.297412 12.649412l392.432941-209.016471 11.866353 6.384941c11.444706-17.227294 24.816941-33.008941 39.936-46.983529l-37.647059-20.058353a30.117647 30.117647 0 0 0-28.310588 0l-406.588236 216.545882a30.117647 30.117647 0 0 0-12.047059 40.478118z m658.612706 100.773647a150.588235 150.588235 0 1 1 0-301.176471 150.588235 150.588235 0 0 1 0 301.176471z m0.12047-204.016941a90.352941 90.352941 0 0 0 14.034824-0.90353 19.275294 19.275294 0 0 0 9.938823-4.818823c2.469647-2.590118 4.216471-5.842824 4.939294-9.336471 0.783059-4.638118 1.204706-9.336471 1.084236-14.034823 0.120471-5.059765-0.240941-10.059294-1.084236-15.058824a19.576471 19.576471 0 0 0-4.939294-9.758117 18.191059 18.191059 0 0 0-9.938823-4.818824 90.352941 90.352941 0 0 0-14.034824-0.903529 92.340706 92.340706 0 0 0-14.275764 0.903529 18.672941 18.672941 0 0 0-9.938824 4.818824 16.685176 16.685176 0 0 0-5.12 9.938823 111.254588 111.254588 0 0 0 0 28.310588 16.685176 16.685176 0 0 0 5.12 9.938824 19.877647 19.877647 0 0 0 9.938824 4.818823c4.698353 0.602353 9.517176 0.963765 14.275764 0.90353zM526.275765 814.260706c15.661176 0 30.117647-8.131765 38.369882-21.38353L831.247059 365.327059a255.096471 255.096471 0 0 1-306.597647-126.494118 32.948706 32.948706 0 0 0-11.866353 3.011765l-214.437647 106.917647a31.201882 31.201882 0 0 0-10.842353 9.336471l-62.34353-100.111059 271.058824-144.745412c0.783059-25.660235 5.421176-51.019294 13.673412-75.294118a56.139294 56.139294 0 0 0-5.722353 2.288941l-309.12753 165.647059a59.030588 59.030588 0 0 0-28.611764 35.960471 56.32 56.32 0 0 0 6.625882 45.17647l314.849882 505.856a45.176471 45.176471 0 0 0 38.430118 21.323295z m251.00047-579.764706a3.614118 3.614118 0 0 0 2.710589-1.084235c0.722824-0.783059 1.084235-1.807059 1.084235-2.831059l-5.903059-138.11953a3.915294 3.915294 0 0 0-3.734588-3.614117h-38.249412a3.915294 3.915294 0 0 0-3.794824 3.614117l-5.842823 138.11953c-0.060235 1.024 0.301176 2.048 1.024 2.831059a3.614118 3.614118 0 0 0 2.710588 1.084235z m-393.938823 276.781176L317.44 405.263059c3.011765-0.542118 5.903059-1.445647 8.613647-2.710588L526.275765 302.08l205.522823 108.423529-62.042353 99.689412-129.927529-65.65647a28.611765 28.611765 0 0 0-13.552941-3.312942 31.744 31.744 0 0 0-13.854118 3.312942L383.337412 511.277176zM526.275765 740.592941L415.262118 562.597647l111.013647-57.344 111.555764 56.139294L526.275765 740.592941z"
           horiz-adv-x="1024"/>

    <glyph glyph-name="alibabaalibaba" unicode="&#58883;"
           d="M602.9 226.2c-37.2-2.6-33.6 17.3-11.5 46.2 50.4 67.2 143.7 158.5 147.9 225.2 5.8 86.6-81.3 113.4-171 113.4-62.4-1.6-127-18.9-171-34.6-151.6-53.5-246.6-137.5-306.9-232-62.4-93.4-43-183.2 91.8-185.8 101.8 4.2 170.5 32.5 239.7 68.2 0.5 0-192.5-55.1-263.9-14.7-7.9 4.2-15.7 10-17.8 26.2 0 33.1 54.6 67.7 86.6 78.7v56.7c64.5-22.6 140.6-16.3 205.7 32 2.1-5.8 4.2-13.1 3.7-21h11c2.6 22.6-12.6 44.6-37.8 46.2 7.3-5.8 12.6-10.5 15.2-14.7l-1-1-0.5-0.5c-83.9-58.8-165.3-31.5-173.1-29.9l46.7 45.7-13.1 33.1c92.9 32.5 169.5 56.2 296.9 78.7l-28.5 23 14.7 8.9c75.5-21 126.4-36.7 123.8-76.6-1-6.8-3.7-14.7-7.9-23.1C660.1 429.9 594 358 567.2 327c-17.3-20.5-34.6-39.4-46.7-58.3-13.6-19.4-20.5-37.3-21-53.5 2.6-131.8 391.4 61.9 468 112.9-111.7-47.8-232.9-93.5-364.6-101.9z m85 302.9c2.8-5.2 4.1-11.6 4.1-19.1-0.1 6.8-1.4 13.3-4.1 19.1z"
           horiz-adv-x="1024"/>

    <glyph glyph-name="tengxunqq" unicode="&#58989;"
           d="M214.809 472.135l-1.184 4.736-1.184 5.92-1.184 3.552v15.392l1.184 4.736 2.368 5.92 1.184 7.104 7.104 14.209 4.736 7.104v9.473l1.184 7.104 2.368 7.104 1.184 8.288 2.368 3.552 3.552 7.104 2.368 2.368v17.761l1.184 9.473 2.368 10.657 2.368 13.025 3.552 13.025 2.368 8.288 2.368 7.104 3.552 8.288 3.552 7.104 3.552 9.472 3.552 8.288 4.736 8.288 5.92 9.472 3.552 4.736 2.368 3.552 7.104 9.472 5.92 9.472 7.104 9.472 16.577 18.945 9.472 8.288 10.657 10.657 7.104 5.92 8.288 7.104 9.472 5.92 8.288 5.92 9.472 4.736 9.472 3.552 11.841 5.92 31.969 10.657 23.681 4.736 13.025 2.368 23.681 2.368 13.025 1.184h37.889l13.025-1.184 13.025-2.368 13.025-1.184 11.841-2.368 13.025-3.552 11.841-2.368 13.025-3.552 23.681-9.472 13.025-4.736 21.312-11.841 10.657-7.104 9.472-5.92 4.736-4.736 4.736-2.368 8.288-7.104 14.209-14.209 7.104-8.288 5.92-7.104 7.104-8.288 9.473-16.577 5.92-8.288 3.552-8.288 8.288-16.577 3.552-8.288 4.736-16.577 3.552-8.288 1.184-5.92 2.368-8.288 3.552-14.209 3.552-13.025 1.184-13.025 1.184-9.472 2.368-15.392 2.368-4.736 4.736-7.104 3.552-5.92 2.368-5.92 7.104-11.841 2.368-8.288 2.368-7.104 1.184-8.288 1.184-3.552v-18.945l-1.184-5.92-2.368-9.472-2.368-4.736-2.368-5.92v-1.184l1.184-2.368 2.368-3.552 11.841-16.577 8.288-13.025 4.736-8.288 5.92-8.288 4.736-10.657 5.92-10.657 13.025-26.048 7.104-16.577 2.368-8.288 3.552-8.288 2.368-7.104 2.368-8.288 2.368-14.209 2.368-15.392 1.184-14.209 1.184-18.945-1.184-7.104-1.184-10.657-2.368-10.657-3.552-9.472v-4.736l-4.736-7.104-2.368-4.736-4.736-4.736-2.368-3.552-2.368-2.368-3.552-1.184-4.736-2.368h-3.552l-2.368 1.184-3.552 2.368-4.736 2.368-8.288 8.288-4.736 5.92-7.104 11.841-2.368 4.736-5.92 10.657-4.736 10.657h-1.184l-2.368-2.368-1.184-2.368-2.368-3.552-3.552-9.473-5.92-14.209-7.104-17.761-4.736-8.288-11.841-18.945-7.104-10.657-3.552-4.736-14.209-14.209 2.368-2.368 4.736-3.552 21.312-9.472 9.472-4.736 24.864-17.761 3.552-3.552 2.368-3.552 3.552-3.552 2.368-4.736 3.552-10.657v-10.657l-2.368-4.736v-2.368l-2.368-2.368-3.552-5.92-3.552-3.552-2.368-3.552-2.368-2.368-5.92-3.552-5.92-4.736-7.104-3.552-7.104-2.368-8.288-3.552-4.736-1.184-3.552-1.184-10.657-2.368-18.945-4.736-11.841-1.184-10.657-1.184-11.841-1.184h-35.521l-13.025 1.184-11.841 1.184-26.048 2.368-13.025 2.368-13.025 3.552-13.025 2.368-13.025 3.552-13.025 4.736-13.025 3.552-7.104 2.368-5.92 2.368-7.104 2.368h-10.657l-13.025 1.184h-5.92l-8.288 1.184-4.736-4.736-7.104-4.736-9.472-4.736-10.657-5.92-5.92-2.368-7.104-2.368-14.209-5.92-16.577-4.736-11.841-2.368h-7.104l-7.104-1.184-8.288-1.184h-69.858l-20.129 2.368-10.657 1.184-10.657 2.368-9.472 1.184-10.657 2.368-18.945 4.736-8.288 3.552-7.104 2.368-8.288 3.552-5.92 4.736-7.104 4.736-7.104 7.104-1.184 2.368-2.368 2.368-1.184 3.552-2.368 5.92v2.368l-1.184 3.552v3.552l1.184 3.552-1.184 3.552 1.184 3.552v10.657l2.368 3.552 1.184 4.736 3.552 7.104 2.368 2.368 3.552 4.736 3.552 2.368 2.368 2.368 3.552 1.184 3.552 2.368 3.552 1.184 9.472 4.736 4.736 1.184 11.841 2.368h5.92l7.104 1.184h2.368l1.184 1.184v1.184l-1.184 1.184-3.552 2.368-9.472 7.104-14.209 11.841-7.104 7.104-8.288 9.472-8.288 10.657-3.552 4.736-4.736 5.92-7.104 14.209-4.736 7.104-2.368 7.104-10.657 24.864-2.368 10.657h-1.184v1.184h-1.184l-1.184-1.184h-1.184l-1.184-1.184v-2.368l-2.368-4.736-3.552-8.288-2.368-4.736-3.552-3.552-3.552-4.736-4.736-5.92-3.552-4.736-5.92-4.736-9.472-7.104-5.92-3.552-5.92-2.368-5.92-1.184-7.104-1.184h-1.184l-1.184 1.184-1.184 2.368-2.368 1.184-2.368 5.92-1.184 3.552-2.368 3.552-1.184 5.92v4.736l-2.368 10.657-1.184 5.92v21.312l1.184 15.392 3.552 24.864 2.368 8.288 4.736 18.945 7.104 18.945 9.472 18.945 5.92 9.472 5.92 10.657 7.104 8.288 5.92 10.657 5.92 7.104 7.104 8.288 16.577 16.577 5.92 4.736 5.92 5.92 10.657 9.472 8.288 5.92z"
           horiz-adv-x="1024"/>

    <glyph glyph-name="bytedance" unicode="&#59026;"
           d="M122.496 786.261333A42.666667 42.666667 0 0 1 64 746.666667v-682.666667a42.666667 42.666667 0 0 1 58.496-39.594667l106.666667 42.666667A42.666667 42.666667 0 0 1 256 106.666667v597.333333a42.666667 42.666667 0 0 1-26.837333 39.594667l-106.666667 42.666666zM149.333333 127.018667V683.648l21.333334-8.533333v-539.562667l-21.333334-8.533333zM357.162667 444.928A42.666667 42.666667 0 0 1 298.666667 405.333333v-341.333333a42.666667 42.666667 0 0 1 58.496-39.594667l106.666666 42.666667a42.666667 42.666667 0 0 1 26.837334 39.594667v256a42.666667 42.666667 0 0 1-26.837334 39.594666l-106.666666 42.666667zM384 127.018667v215.296l21.333333-8.533334v-198.229333l-21.333333-8.533333zM706.56 525.994667A42.666667 42.666667 0 0 0 725.333333 490.666667v-341.333334a42.666667 42.666667 0 0 0-58.496-39.594666l-106.666666 42.666666a42.666667 42.666667 0 0 0-26.837334 39.594667v256a42.666667 42.666667 0 0 0 26.837334 39.594667l106.666666 42.666666a42.666667 42.666667 0 0 0 39.765334-4.266666z m-87.893333-106.88v-198.229334l21.333333-8.533333v215.296l-21.333333-8.533333zM826.496 743.594667A42.666667 42.666667 0 0 1 768 704v-640a42.666667 42.666667 0 0 1 58.496-39.594667l106.666667 42.666667a42.666667 42.666667 0 0 1 26.837333 39.594667v554.666666a42.666667 42.666667 0 0 1-26.837333 39.594667l-106.666667 42.666667zM853.333333 127.018667V640.981333l21.333334-8.533333v-496.896l-21.333334-8.533333zM149.333333 683.648v-556.629333l21.333334 8.533333V675.114667l-21.333334 8.533333zM384 342.314667v-215.296l21.333333 8.533333v198.229333l-21.333333 8.533334zM618.666667 220.885333v198.229334l21.333333 8.533333v-215.296l-21.333333 8.533333zM853.333333 640.981333v-513.962666l21.333334 8.533333V632.448l-21.333334 8.533333z"
           horiz-adv-x="1024"/>

    <glyph glyph-name="jiantou_xiangshang" unicode="&#58934;"
           d="M544.954182 601.460364v-501.666909H438.085818V596.247273l-165.701818-160.302546-74.845091 77.637818L491.52 797.975273l293.981091-284.392728-74.845091-72.424727z"
           horiz-adv-x="1024"/>

    <glyph glyph-name="xuanzhong1" unicode="&#58933;"
           d="M1055.1296 896v-972.8l1002.7008 486.4zM102.4 819.2v-819.2l844.3904 409.6zM13125.8368 896v-972.8l-1002.496 486.4zM14078.5664 819.2v-819.2l-844.3904 409.6z"
           horiz-adv-x="14131"/>

    <glyph glyph-name="zhinenglouyu" unicode="&#59053;" d="M892.446118-25.6h-240.941177V796.129882l261.240471-101.436235c17.709176-7.649882 30.418824-27.949176 30.418823-48.188235v-621.387294a50.898824 50.898824 0 0 0-50.718117-50.718118z m-453.993412 0h-157.214118V512.060235L453.632 446.042353c12.649412-5.059765 20.239059-17.769412 20.239059-30.418824v-405.805176c-2.529882-20.299294-15.179294-35.538824-35.538824-35.538824zM917.805176 709.872941L656.564706 811.309176h-7.589647c-2.529882 0-5.12 0-7.649883-2.529882h-2.529882L367.435294 631.265882c-25.359059-10.179765-40.598588-35.538824-40.598588-63.427764v-53.248l-40.538353 15.239529h-7.649882c-2.529882 0-5.059765 0-7.589647-2.529882h-2.529883L90.955294 410.624a50.115765 50.115765 0 0 1-30.479059-45.658353v-388.035765c0-10.179765 7.649882-17.769412 17.769412-17.769411a17.347765 17.347765 0 0 1 17.769412 17.769411v385.505883c0 7.589647 5.059765 12.649412 10.119529 15.179294 0 0 2.529882 0 2.529883 2.529882l152.214588 101.496471v-504.771765c0-10.119529 7.589647-17.709176 17.709176-17.709176h157.214118a50.898824 50.898824 0 0 1 50.778353 50.718117V415.683765a51.983059 51.983059 0 0 1-32.948706 48.188235l-96.376471 38.068706V570.368c0 12.649412 7.589647 25.359059 20.239059 30.479059 0 0 2.590118 0 2.590118 2.529882l246.000941 162.273883v-788.720942c0-10.179765 7.589647-17.769412 17.709177-17.769411h248.591058c38.008471 0 68.487529 30.418824 68.48753 68.487529V646.505412c0 27.888941-17.769412 53.248-43.128471 63.367529zM453.692235 415.683765v-405.805177a16.384 16.384 0 0 0-15.239529-15.239529H298.947765V486.701176l40.598588-15.239529 106.496-40.538353c5.059765-2.590118 7.649882-10.179765 7.649882-15.239529z m471.702589-390.565647a33.551059 33.551059 0 0 0-32.948706-33.008942H669.214118V770.770824l235.821176-91.316706c12.649412-5.059765 20.299294-17.769412 20.299294-30.418824v-623.917176z"  horiz-adv-x="1024" />

    <glyph glyph-name="arrow-down-filling" unicode="&#58898;" d="M482.133 157.867l-345.6 345.6c-17.066 17.066-17.066 42.666 0 59.733 8.534 8.533 19.2 12.8 29.867 12.8h689.067c23.466 0 42.666-19.2 42.666-42.667 0-10.666-4.266-21.333-12.8-29.866l-343.466-345.6c-17.067-17.067-42.667-17.067-59.734 0z"  horiz-adv-x="1024" />

    <glyph glyph-name="arrow-up-filling" unicode="&#58897;" d="M541.867 610.133l345.6-345.6c17.066-17.066 17.066-42.666 0-59.733-8.534-8.533-19.2-12.8-29.867-12.8H168.533c-23.466 0-42.666 19.2-42.666 42.667 0 10.666 4.266 21.333 12.8 29.866l343.466 345.6c17.067 17.067 42.667 17.067 59.734 0z"  horiz-adv-x="1024" />

    <glyph glyph-name="xuanzhong-1" unicode="&#59052;" d="M814.528 492.16l-347.904-347.84c-21.76-21.76-50.688-21.76-70.016 0L205.696 349.696c-21.76 21.76-14.464 50.688 0 70.016 21.76 21.76 50.752 21.76 62.848 0l169.088-169.088 314.112 311.68c21.76 21.76 50.752 14.464 70.08 0 14.464-21.76 14.464-48.32-7.296-70.08z"  horiz-adv-x="1024" />

    <glyph glyph-name="xuanzhong" unicode="&#59051;" d="M0 896m128 0l768 0q128 0 128-128l0-768q0-128-128-128l-768 0q-128 0-128 128l0 768q0 128 128 128ZM814.528 492.16l-347.904-347.84c-21.76-21.76-50.688-21.76-70.016 0L205.696 349.696c-21.76 21.76-14.464 50.688 0 70.016 21.76 21.76 50.752 21.76 62.848 0l169.088-169.088 314.112 311.68c21.76 21.76 50.752 14.464 70.08 0 14.464-21.76 14.464-48.32-7.296-70.08z"  horiz-adv-x="1024" />

    <glyph glyph-name="mimasuolock" unicode="&#59048;" d="M832 512H192c-47.104 0-85.312-38.208-85.312-85.312V0c0-47.104 38.208-85.312 85.312-85.312h640c47.104 0 85.312 38.208 85.312 85.312V426.688C917.312 473.792 879.104 512 832 512z m21.312-512c0-11.776-9.536-21.312-21.312-21.312H192A21.312 21.312 0 0 0 170.688 0V426.688C170.688 438.4 180.224 448 192 448h640c11.776 0 21.312-9.6 21.312-21.312V0zM512 800A224.192 224.192 0 0 0 736 576h64a288 288 0 1 1-576 0h64A224.192 224.192 0 0 0 512 800z m85.312-490.688H426.688a32 32 0 1 1 0-64H480v-96a32 32 0 0 1 64 0v96h53.312a32 32 0 0 1 0 64z"  horiz-adv-x="1024" />

    <glyph glyph-name="yanzhengma-cuxiantiao1" unicode="&#59049;" d="M814.4-16h-604.8A145.792 145.792 0 0 0 64 129.6v492.8A145.792 145.792 0 0 0 209.6 768h604.8A145.792 145.792 0 0 0 960 622.4v-492.8a145.792 145.792 0 0 0-145.6-145.6zM209.6 693.312c-39.168 0-70.912-31.744-70.912-70.912v-492.8c0-39.232 31.744-70.912 70.912-70.912h604.8c39.232 0 70.912 31.68 70.912 70.912v492.8c0 39.232-31.68 70.912-70.912 70.912h-604.8zM288 254.72a37.44 37.44 0 0 0-37.312 37.376V459.968c0 20.544 16.768 37.376 37.312 37.376 20.48 0 37.312-16.832 37.312-37.312v-168c0-20.544-16.768-37.376-37.312-37.376z m224 0a37.44 37.44 0 0 0-37.312 37.376V459.968c0 20.544 16.768 37.376 37.312 37.376 20.48 0 37.312-16.832 37.312-37.312v-168c0-20.544-16.768-37.376-37.312-37.376z m224 0a37.44 37.44 0 0 0-37.312 37.376V459.968c0 20.544 16.768 37.376 37.312 37.376 20.48 0 37.312-16.832 37.312-37.312v-168c0-20.544-16.768-37.376-37.312-37.376z"  horiz-adv-x="1024" />

    <glyph glyph-name="yonghuming" unicode="&#59050;" d="M700.8 263.04c123.2 0 224.512-98.176 229.888-222.72l0.192-10.048v-65.152h-92.032v65.152c0 73.92-57.024 135.04-129.984 139.392l-8.128 0.256H323.264c-73.152 0-133.568-57.6-137.856-131.456l-0.256-8.192v-65.152H93.12v65.152c0 124.608 97.024 227.072 220.16 232.448l9.984 0.256h377.472zM512 802.816c114.432 0 207.168-93.76 207.168-209.408C719.168 477.76 626.368 384 512 384 397.568 384 304.832 477.76 304.832 593.472c0 115.648 92.8 209.408 207.168 209.408z m0-93.056c-41.152 0-79.104-22.208-99.648-58.24a117.504 117.504 0 0 1 0-116.288c20.352-35.904 58.368-58.112 99.648-58.24 63.552 0 115.072 52.16 115.072 116.416A115.712 115.712 0 0 1 512 709.76z"  horiz-adv-x="1024" />

    <glyph glyph-name="arrow-down" unicode="&#58894;" d="M500.8 291.221L267.307 524.608l-45.227-45.27 278.741-278.613L779.307 479.34l-45.248 45.248z"  horiz-adv-x="1024" />

    <glyph glyph-name="arrow-left" unicode="&#58895;" d="M641.28 617.387l-45.227 45.226L317.42 383.851l278.613-278.486 45.248 45.27-233.365 233.237z"  horiz-adv-x="1024" />

    <glyph glyph-name="arrow-up" unicode="&#58896;" d="M500.8 434.09L267.307 200.705l-45.227 45.27 278.741 278.613 278.486-278.614-45.248-45.226z"  horiz-adv-x="1024" />

    <glyph glyph-name="arrow-right" unicode="&#58893;" d="M593.45 383.872L360.065 617.387l45.29 45.226 278.614-278.762-278.635-278.464-45.226 45.269z"  horiz-adv-x="1024" />

    <glyph glyph-name="close" unicode="&#59046;" d="M882.517333 754.517333a40.021333 40.021333 0 0 0 0-56.576L568.490667 384l314.026666-314.026667c13.653333-13.653333 15.36-34.730667 5.12-50.261333l-5.12-6.229333a40.021333 40.021333 0 0 0-56.576 0L512 327.509333l-313.856-314.026666a40.021333 40.021333 0 0 0-56.576 56.576L455.424 384l-314.026667 313.856a40.021333 40.021333 0 0 0-5.12 50.346667l5.12 6.229333a40.021333 40.021333 0 0 0 56.661334 0L512 440.576l314.026667 314.026667a40.021333 40.021333 0 0 0 56.490666 0z"  horiz-adv-x="1024" />

    <glyph glyph-name="error" unicode="&#59047;" d="M512 896a512 512 0 0 1-512-512 512 512 0 0 1 512-512 512 512 0 0 1 512 512 512 512 0 0 1-512 512z m241.005714-703.268571a32.182857 32.182857 0 0 0 0.512-45.348572 32.182857 32.182857 0 0 0-45.348571-0.512L512 339.236571 315.830857 147.017143a31.963429 31.963429 0 1 0-44.763428 45.787428L466.285714 384l-195.291428 191.268571a32.182857 32.182857 0 0 0-0.585143 45.348572 32.182857 32.182857 0 0 0 45.348571 0.512L512 428.763429 708.169143 620.982857a31.963429 31.963429 0 1 0 44.763428-45.787428L557.714286 384l195.291428-191.268571z"  horiz-adv-x="1024" />

    <glyph glyph-name="shuoming" unicode="&#59045;" d="M518.582857 611.547429a145.042286 145.042286 0 0 1-108.397714-40.082286 144.237714 144.237714 0 0 1-40.374857-107.227429h66.267428c-1.536 22.747429 4.388571 45.348571 16.822857 64.512a70.217143 70.217143 0 0 0 61.952 25.892572 71.094857 71.094857 0 0 0 52.662858-18.724572c12.434286-14.043429 19.017143-32.475429 18.139428-51.2a73.947429 73.947429 0 0 0-16.822857-45.568l-10.459429-11.922285c-27.648-22.016-51.712-48.274286-71.387428-77.677715a132.242286 132.242286 0 0 1-11.995429-59.392v-10.532571h65.462857v10.532571a85.357714 85.357714 0 0 0 9.947429 41.764572c6.436571 12.141714 15.140571 22.966857 25.6 31.890285 19.163429 15.067429 37.376 31.378286 54.637714 48.64 16.237714 22.235429 24.502857 49.298286 23.552 76.8a113.810286 113.810286 0 0 1-36.937143 89.6 142.189714 142.189714 0 0 1-98.742857 32.694858z m-10.532571-366.08a41.837714 41.837714 0 0 1-31.890286-12.507429 40.082286 40.082286 0 0 1-13.677714-31.890286 46.08 46.08 0 0 1 45.568-44.617143c11.922286 0 23.405714 4.388571 32.402285 12.214858a44.105143 44.105143 0 0 1 13.092572 32.402285 40.96 40.96 0 0 1-13.165714 32.182857 44.909714 44.909714 0 0 1-33.206858 12.507429l0.877715-0.292571zM512 839.094857a455.094857 455.094857 0 1 0 0-910.189714A455.094857 455.094857 0 0 0 512 839.094857M512 896a512 512 0 1 1 0-1024A512 512 0 0 1 512 896z"  horiz-adv-x="1024" />

    <glyph glyph-name="neiyuan" unicode="&#59042;" d="M512 896c282.784 0 512-229.216 512-512s-229.216-512-512-512S0 101.216 0 384 229.216 896 512 896z m0-16C238.08 880 16 657.92 16 384c0-273.92 222.08-496 496-496 273.92 0 496 222.08 496 496C1008 657.92 785.92 880 512 880z"  horiz-adv-x="1024" />

    <glyph glyph-name="waiyuan" unicode="&#59043;" d="M512 896c282.7648 0 512-229.2352 512-512S794.7648-128 512-128 0 101.2352 0 384 229.2352 896 512 896z m0-12.8C236.288 883.2 12.8 659.712 12.8 384s223.488-499.2 499.2-499.2 499.2 223.488 499.2 499.2S787.712 883.2 512 883.2z"  horiz-adv-x="1024" />

    <glyph glyph-name="paomadeng" unicode="&#59044;" d="M496 32.352v-160.112a509.328 509.328 0 0 0-222.528 58.608l80.096 138.72A350.08 350.08 0 0 1 496 32.368z m174.432 37.232l80.096-138.736a509.328 509.328 0 0 0-222.544-58.608V32.352a350.08 350.08 0 0 1 142.448 37.232z m134.336 118.912l138.784-80.128a514.672 514.672 0 0 0-165.184-161.712l-80.048 138.64a353.872 353.872 0 0 1 106.448 103.2z m-479.088-103.2l-80.048-138.64A514.672 514.672 0 0 0 80.448 108.368l138.784 80.128a353.872 353.872 0 0 1 106.448-103.2z m-123.024 130.592L64.048 135.84A509.12 509.12 0 0 0 0.56 360H160.8a349.888 349.888 0 0 1 41.856-144.112z m757.296-80.032l-138.608 80.032A349.888 349.888 0 0 1 863.2 360h160.24a509.12 509.12 0 0 0-63.488-224.144zM57.488 619.936l138.784-80.128a350.304 350.304 0 0 1-36.176-147.808H0.064v0.48a509.536 509.536 0 0 0 57.424 227.456zM1023.936 392H863.904a350.304 350.304 0 0 1-36.176 147.808l138.784 80.128a509.552 509.552 0 0 0 57.44-227.936zM238.832 817.12l80.112-138.736a353.856 353.856 0 0 1-107.2-110.56l-138.608 80.048A514.64 514.64 0 0 0 238.832 817.12z m712.032-169.248l-138.608-80.048a353.856 353.856 0 0 1-107.2 110.56l80.112 138.72a514.64 514.64 0 0 0 165.696-169.232zM757.568 833.376l-80.032-138.64a350.032 350.032 0 0 1-149.552 40.912V895.76a509.28 509.28 0 0 0 229.584-62.384zM496 895.76v-160.112a350.032 350.032 0 0 1-149.536-40.912l-80.032 138.64A509.28 509.28 0 0 0 496 895.76z"  horiz-adv-x="1024" />

    <glyph glyph-name="zuobiaodian-xuanzhong2" unicode="&#59041;" d="M523.8784 896L921.6 722.176l-1.536-0.512-399.8208-839.0144L102.4 722.176 523.8784 896zM152.7296 678.5536l341.9136-687.0528V565.0432L152.7296 678.5536zM870.4 676.864L536.6272 555.776l7.7312-563.0976L870.4 676.864zM523.5712 868.1984L174.0288 724.0704l349.6448-123.2384 329.728 123.2384L523.5712 868.1984z"  horiz-adv-x="1024" />

    <glyph glyph-name="zuobiaodian2" unicode="&#59040;" d="M523.8784 896L921.6 722.176l-1.536-0.512-399.8208-839.0144L102.4 722.176 523.8784 896zM152.7296 678.5536l341.9136-687.0528V565.0432L152.7296 678.5536zM870.4 676.864L536.6272 555.776l7.7312-563.0976L870.4 676.864zM523.5712 868.1984L174.0288 724.0704l349.6448-123.2384 329.728 123.2384L523.5712 868.1984z"  horiz-adv-x="1024" />

    <glyph glyph-name="jianshezhenggai" unicode="&#59035;" d="M1008.636343 75.849143L772.092343 312.32a287.378286 287.378286 0 0 1 226.377143 366.445714l-18.285715 60.562286-42.569142-46.811429a84.260571 84.260571 0 0 0-2.486858-2.706285l-49.737142-49.664a82.870857 82.870857 0 0 0-117.174858 117.248l49.737143 49.737143a48.786286 48.786286 0 0 0 2.633143 2.486857l46.811429 42.496-60.489143 18.285714a287.305143 287.305143 0 0 1-368.128-312.32l-25.6-24.429714L230.8352 716.068571c19.456 35.986286 12.946286 80.457143-15.945143 109.421715L159.1552 881.225143a50.688 50.688 0 0 1-71.533714 0l-72.704-72.704a50.688 50.688 0 0 1 0-71.533714l55.734857-55.734858a92.672 92.672 0 0 1 109.421714-15.945142l181.248-181.248L70.5792 205.677714a186.075429 186.075429 0 0 1 128.804571-320.219428h1.901715a184.685714 184.685714 0 0 1 132.388571 57.124571l211.090286 220.525714 275.602286-275.529142a53.101714 53.101714 0 0 1 74.971428 0l113.298286 113.225142a53.101714 53.101714 0 0 1 0 75.044572zM164.202057 745.325714l-13.312-13.312a21.211429 21.211429 0 0 0-29.476571 0l-40.96 40.740572 42.934857 42.861714 40.813714-40.813714a21.211429 21.211429 0 0 0 0-29.476572z m406.893714 2.633143A215.259429 215.259429 0 0 0 720.599771 811.154286l-3.072-2.998857a154.550857 154.550857 0 0 1 218.550858-218.550858l3.072 2.998858A215.478857 215.478857 0 0 0 703.4112 381.074286l-13.970286 13.970285-10.313143-10.313142a214.308571 214.308571 0 0 0-108.032 58.441142 215.771429 215.771429 0 0 0 0 304.786286zM281.962057-7.753143c-21.211429-22.235429-50.614857-34.962286-81.408-35.108571h-1.170286a114.322286 114.322286 0 0 0-79.286857 196.754285L460.430629 479.817143a289.426286 289.426286 0 0 1 147.309714-147.163429l-325.778286-340.333714z m575.926857-40.813714L594.3552 214.893714l85.065143 88.795429 265.362286-265.362286-86.893715-86.893714z"  horiz-adv-x="1024" />

    <glyph glyph-name="yunyinggongju" unicode="&#59036;" d="M852.114286 159.085714h-680.228572a70.070857 70.070857 0 0 0-70.070857 69.997715V661.650286c0 38.619429 31.451429 69.997714 70.070857 69.997714h680.228572c38.619429 0 70.070857-31.451429 70.070857-69.997714v-432.566857c0-38.619429-31.451429-69.997714-70.070857-69.997715z m-680.228572 512.585143a10.020571 10.020571 0 0 1-10.020571-10.020571v-432.566857c0-5.485714 4.461714-10.020571 10.020571-10.020572h680.228572a10.020571 10.020571 0 0 1 10.020571 10.020572V661.650286a10.020571 10.020571 0 0 1-10.020571 10.020571h-680.228572zM287.963429 290.377143a29.915429 29.915429 0 0 0-21.211429 51.2l165.010286 165.010286a29.988571 29.988571 0 0 0 42.422857 0l77.824-77.824 162.742857 162.816a29.988571 29.988571 0 1 0 42.422857-42.422858L573.293714 365.129143a29.988571 29.988571 0 0 0-42.422857 0L452.973714 442.953143 309.248 299.154286a29.915429 29.915429 0 0 0-21.211429-8.777143z m436.004571-254.025143H300.032a29.988571 29.988571 0 0 0 0 59.977143h423.936a29.988571 29.988571 0 0 0 0-59.977143z"  horiz-adv-x="1024" />

    <glyph glyph-name="youhua" unicode="&#59037;" d="M169.691429 719.140571a69.339429 69.339429 0 0 0 58.148571-106.861714l240.201143-416.036571a29.915429 29.915429 0 0 0-10.971429-40.96 109.933714 109.933714 0 1 1 162.230857-71.387429 29.988571 29.988571 0 0 0 58.441143 12.946286c7.753143-34.962286 4.315429-70.948571-9.947428-103.862857a168.228571 168.228571 0 0 0-70.948572-79.725715 169.764571 169.764571 0 0 0-194.340571 276.626286L176.786286 580.973714a69.339429 69.339429 0 1 0-7.094857 138.166857zM939.154286 800.182857a169.910857 169.910857 0 0 0 62.171428-231.862857 169.837714 169.837714 0 0 0-204.507428-74.752l-227.620572-394.166857 2.779429-4.461714a69.339429 69.339429 0 0 0-119.954286-69.266286 68.754286 68.754286 0 0 0-6.948571 52.516571 68.754286 68.754286 0 0 0 72.265143 51.2l241.152 417.718857a29.915429 29.915429 0 0 0 23.844571 14.921143l5.851429-0.146285a29.842286 29.842286 0 0 0 11.190857-3.803429 109.933714 109.933714 0 0 1 150.089143 40.228571 109.933714 109.933714 0 0 1-169.325715 135.972572 29.988571 29.988571 0 1 0-40.374857 44.105143 168.96 168.96 0 0 0 94.939429 43.373714c36.498286 4.242286 72.630857-3.218286 104.448-21.577143zM169.691429 819.565714c83.382857 0 152.868571-60.416 167.058285-139.702857h453.705143l3.876572 7.899429a69.339429 69.339429 0 0 0 119.954285-69.266286 69.339429 69.339429 0 0 0-120.685714 1.462857H309.394286a29.988571 29.988571 0 0 0-29.842286 29.988572c0 60.489143-49.298286 109.787429-109.860571 109.787428a109.933714 109.933714 0 0 1-33.133715-214.601143 29.988571 29.988571 0 1 0-17.993143-57.051428A168.813714 168.813714 0 0 0 33.499429 548.571429 169.910857 169.910857 0 0 0 169.691429 819.638857z"  horiz-adv-x="1024" />

    <glyph glyph-name="weihufuwu" unicode="&#59038;" d="M695.661714 113.956571a44.178286 44.178286 0 0 0 44.251429-44.105142v-112.786286a44.178286 44.178286 0 0 0-44.251429-44.105143H95.378286a44.178286 44.178286 0 0 0-44.178286 44.105143v112.786286a44.178286 44.178286 0 0 0 44.178286 44.105142z m0-37.156571H95.378286c-3.437714 0-5.851429-2.340571-5.851429-5.851429v-112.64c0-3.510857 2.413714-5.851429 5.851429-5.851428h600.283428c3.510857 0 5.851429 2.340571 5.851429 5.851428v112.64c0 3.510857-2.340571 5.851429-5.851429 5.851429z m-522.24-45.348571v-36.571429h-34.962285v36.571429h34.889142z m471.04 0v-36.571429h-232.594285v36.571429h232.594285zM641.097143 844.8c4.608 0 10.459429-1.170286 12.8-4.681143a24.356571 24.356571 0 0 0 4.608-12.726857l-1.170286-98.742857 55.881143-23.259429 72.118857 72.045715a16.896 16.896 0 0 0 24.429714 0l104.740572-104.594286a24.429714 24.429714 0 0 0 4.608-12.8 17.554286 17.554286 0 0 0-4.608-12.8l-72.192-71.972572 22.162286-56.978285 99.986285 1.170285a17.554286 17.554286 0 0 0 12.8-4.608 25.892571 25.892571 0 0 0 5.851429-12.8l-2.340572-149.942857a17.846857 17.846857 0 0 0-17.408-17.408l-100.059428-1.097143-25.6-56.978285 77.970286-77.824a24.283429 24.283429 0 0 0 4.608-12.8 17.481143 17.481143 0 0 0-4.608-12.8l-107.081143-106.861715-24.429715 24.356572 95.378286 95.305143-74.386286 74.386285a20.260571 20.260571 0 0 0-3.510857 19.748572l34.889143 77.824a16.530286 16.530286 0 0 0 15.140572 10.459428l94.208 1.170286 1.170285 114.980572-94.208-1.097143a17.554286 17.554286 0 0 0-16.310857 11.556571l-30.281143 77.897143c-3.437714 6.948571-1.097143 13.897143 3.510857 18.578286l67.510858 67.364571-80.310858 80.164572-68.608-68.534858c-4.681143-4.608-11.702857-5.851429-18.651428-3.510857l-77.897143 32.548572a18.285714 18.285714 0 0 0-10.459429 16.310857l1.170286 92.891428-115.2-1.097142-1.170286-95.305143c0-6.948571-3.510857-13.897143-10.459428-16.237715l-79.140572-32.548571c-5.851429-3.510857-13.897143-1.170286-18.578285 3.437714L324.608 740.205714l-82.651429-82.505143 74.532572-74.313142c4.534857-5.558857 5.851429-13.019429 3.437714-19.748572L285.037714 485.668571a16.530286 16.530286 0 0 0-15.140571-10.459428l-94.208-1.170286-1.170286-97.572571H139.702857l1.170286 115.053714c0 9.289143 8.118857 17.408 17.408 17.408l100.059428 1.170286 25.6 56.905143-77.970285 77.824a24.576 24.576 0 0 0-4.608 12.8 17.554286 17.554286 0 0 0 4.608 12.8L313.051429 777.508571a16.896 16.896 0 0 0 24.429714 0l76.8-76.726857 58.148571 23.259429L473.526857 825.051429c0 9.289143 8.118857 17.408 17.408 17.408z m54.637714-505.417143a44.178286 44.178286 0 0 0 44.251429-44.178286v-112.64a44.178286 44.178286 0 0 0-44.251429-44.178285H95.378286A44.178286 44.178286 0 0 0 51.2 182.491429V295.204571a44.178286 44.178286 0 0 0 44.178286 44.178286z m0-38.326857H95.378286c-3.437714 0-5.851429-2.340571-5.851429-5.851429v-112.64c0-3.510857 2.413714-5.851429 5.851429-5.851428h600.283428c3.510857 0 5.851429 2.340571 5.851429 5.851428v112.64c0 3.510857-2.340571 5.851429-5.851429 5.851429z m-522.24-44.178286v-34.889143h-34.962286v34.889143h34.889143z m471.04 0v-34.889143h-232.594286v34.889143h232.594286zM560.859429 574.098286c98.816 0 179.126857-81.334857 180.297142-180.077715v-17.481142h-34.889142v17.481142a145.408 145.408 0 0 1-290.816 0v-17.481142H380.342857v17.481142a180.370286 180.370286 0 0 0 180.297143 180.077715z m0-116.224c34.889143 0 63.926857-29.037714 63.926857-63.853715v-17.481142h-34.889143v17.481142a28.818286 28.818286 0 0 1-29.037714 29.037715 28.818286 28.818286 0 0 1-29.110858-29.037715v-17.481142h-34.889142v17.481142c0 34.816 29.037714 63.853714 63.926857 63.853715z"  horiz-adv-x="1024" />

    <glyph glyph-name="guihua" unicode="&#59039;" d="M278.674286 822.857143L502.491429 598.966857l186.002285 186.148572a52.809143 52.809143 0 0 0 75.337143 0l149.430857-149.504a52.809143 52.809143 0 0 0 0-75.337143L727.113143 374.491429 950.857143 150.601143 745.325714-54.857143 521.508571 169.033143l-212.114285-211.968-161.426286 15.579428a52.809143 52.809143 0 0 0-47.030857 46.957715l-15.579429 161.645714 211.821715 212.114286L73.142857 617.325714 278.674286 822.857143z m354.889143-167.936l-493.348572-493.421714 13.165714-136.557715 136.338286-12.726857 493.129143 493.494857-149.284571 149.211429z m56.173714-317.878857L558.884571 206.336l36.790858-36.790857 56.466285 55.954286 37.302857-37.302858-56.393142-56.027428 37.449142-37.449143 93.622858 93.184 37.376-37.376-93.622858-93.184 37.449143-37.449143 130.779429 130.779429L689.737143 337.042286z m-411.062857 411.062857L147.894857 617.325714 334.482286 430.811429 465.188571 561.590857l-186.514285 186.514286z m18.578285-205.312l37.302858-37.302857-37.302858-37.376-37.302857 37.302857 37.302857 37.376zM278.674286 673.426286l37.302857-37.302857L222.72 542.72l-37.302857 37.302857L278.674286 673.426286z m448.219428 74.678857l-55.954285-55.808 149.211428-149.284572 55.442286 55.296-148.699429 149.796572z"  horiz-adv-x="1024" />

    <glyph glyph-name="zuzhi" unicode="&#59032;" d="M814.08 824.32c73.216 0 133.12-59.904 133.12-133.12v-111.104c0-73.216-59.904-133.12-133.12-133.12H496.64a133.504 133.504 0 0 0-133.12 133.12l-0.064 29.248-117.696-0.064v-450.56l117.696 0.064 0.064 29.12c0 73.216 59.904 133.12 133.12 133.12h317.44c73.216 0 133.12-59.904 133.12-133.12V76.8c0-73.216-59.904-133.12-133.12-133.12H496.64a133.504 133.504 0 0 0-133.12 133.12l-0.064 20.544-148.416-0.064a30.784 30.784 0 0 0-30.72 30.72l-0.064 225.344-86.976-0.064A30.784 30.784 0 0 0 66.56 384c0 16.896 13.824 30.72 30.72 30.72l86.976 0.064L184.32 640c0 16.896 13.824 30.72 30.72 30.72l148.416 0.064 0.064 20.416c0 73.216 59.904 133.12 133.12 133.12h317.44z m0-564.736H496.64c-39.424 0-71.68-32.256-71.68-71.68V76.8c0-39.424 32.256-71.68 71.68-71.68h317.44c39.424 0 71.68 32.256 71.68 71.68v111.104c0 39.424-32.256 71.68-71.68 71.68z m-158.72-45.568c16.896 0 30.72-13.824 30.72-30.72l-0.064-20.416 20.544-0.064c16.896 0 30.72-13.824 30.72-30.72s-13.824-30.72-30.72-30.72l-20.544 0.064 0.064-20.544c0-16.896-13.824-30.72-30.72-30.72a30.784 30.784 0 0 0-30.72 30.72l-0.064 20.544-20.416-0.064a30.784 30.784 0 0 0-30.72 30.72c0 16.896 13.824 30.72 30.72 30.72l20.416 0.064 0.064 20.416c0 16.896 13.824 30.72 30.72 30.72z m158.72 548.864H496.64c-39.424 0-71.68-32.256-71.68-71.68v-111.104c0-39.424 32.256-71.68 71.68-71.68h317.44c39.424 0 71.68 32.256 71.68 71.68V691.2c0 39.424-32.256 71.68-71.68 71.68z"  horiz-adv-x="1024" />

    <glyph glyph-name="a-dianhualianxifangshi" unicode="&#59033;" d="M721.088-117.888c-94.912 0-297.408 103.616-458.816 271.296C93.824 328.96 30.528 438.976 13.12 591.616 5.12 664.32 40 741.888 96.96 779.904l53.056 35.584A133.696 133.696 0 0 0 225.088 838.4a135.68 135.68 0 0 0 108.416-54.592l95.68-128.896a126.72 126.72 0 0 0-7.872-161.408l-15.808-17.408a41.6 41.6 0 0 1-4.736-49.792c16.64-28.48 37.248-54.592 60.928-77.504 25.28-24.512 60.928-52.992 105.984-83.84 7.104-4.736 15.04-7.168 23.68-7.168a43.072 43.072 0 0 1 30.08 12.736c19.072 18.944 40.32 34.752 63.36 46.72 9.472 4.672 19.84 7.04 30.912 7.04 45.056 0 108.416-38.784 209.6-130.496l14.976-14.208c53.76-49.792 58.496-134.464 9.536-189.056l-6.336-7.104c-31.616-34.816-59.264-57.728-83.84-70.4-51.456-26.88-67.2-30.912-124.224-30.912h-14.336zM225.088 771.2c-13.44 0-26.112-4.032-37.184-11.072l-53.76-35.648c-30.144-20.608-59.328-71.168-53.824-124.16 14.976-131.328 68.8-227.84 211.968-379.712l18.24-19.008c142.4-147.84 329.856-250.816 409.792-250.816h6.272c47.488 0 57.728 1.6 88.64 16.64l14.144 7.04c14.208 7.936 32.448 22.912 53.824 44.352l10.24 11.072 6.4 7.104a67.2 67.2 0 0 1-4.736 94.08c-54.592 50.624-100.48 86.208-134.528 106.88a160.256 160.256 0 0 1-37.952 18.176l-6.336 1.6-6.272-3.2-2.432-1.6a176.64 176.64 0 0 1-31.552-22.912l-11.136-11.136c-19.84-18.176-45.888-28.48-73.6-28.48-22.08 0-43.52 6.272-61.696 19.008-48.32 33.216-87.04 63.296-115.52 91.008a472.32 472.32 0 0 0-72 91.008 108.16 108.16 0 0 0 11.904 129.664l15.808 17.408a59.648 59.648 0 0 1 3.2 75.904L277.312 743.296c-10.304 17.6-30.784 27.904-52.224 27.904z m547.392-334.592a33.92 33.92 0 0 0-33.152 27.712c-12.736 68.8-57.024 117.12-119.424 129.664a33.92 33.92 0 0 0-21.376 14.208 32.32 32.32 0 0 0-4.736 25.28 33.92 33.92 0 0 0 33.216 26.88c2.368 0 3.968 0 6.272-0.768 89.408-17.408 155.84-87.808 172.416-183.488a32.064 32.064 0 0 0-5.504-25.28 35.008 35.008 0 0 0-22.08-14.208h-5.632z m205.696 21.376a34.56 34.56 0 0 0-33.152 27.712c-35.648 178.816-155.008 303.808-319.616 332.992a34.048 34.048 0 0 0-22.08 14.208A32.064 32.064 0 0 0 597.76 858.24a33.92 33.92 0 0 0 33.152 27.712c2.432 0 4.032 0 6.336-0.768 193.792-34.048 333.76-178.816 374.208-386.048a35.2 35.2 0 0 0-4.736-25.28 30.528 30.528 0 0 0-21.376-14.208c-2.56-1.6-4.8-1.6-7.232-1.6z"  horiz-adv-x="1024" />

    <glyph glyph-name="ic_lianxiren" unicode="&#59034;" d="M788.224 832.64a148.032 148.032 0 0 0 147.84-147.84v-600.256a148.032 148.032 0 0 0-147.84-147.84h-121.088a37.376 37.376 0 0 0-9.792 1.28 37.76 37.76 0 0 0-9.728-1.28H390.208c-15.552 0-30.464 2.368-44.544 6.784H231.04a148.032 148.032 0 0 0-147.904 147.904V691.584c0 20.608 16.64 37.376 37.312 37.376h121.856V795.328c0 20.608 16.64 37.312 37.312 37.312z m0-74.624H316.928V594.56h18.688a37.312 37.312 0 0 0 0-74.624h-18.688v-97.92h18.688a37.312 37.312 0 0 0 0-74.688h-18.688v-97.92h18.688a37.312 37.312 0 0 0 0-74.688h-18.688v-90.24a73.344 73.344 0 0 1 73.216-73.152h257.408c3.392 0 6.656-0.448 9.792-1.28a37.76 37.76 0 0 0 9.728 1.28h121.152c40.32 0 73.216 32.832 73.216 73.216V684.8c0 40.384-32.832 73.28-73.216 73.28z m-545.92-103.744h-84.48v-562.88c0-40.32 32.768-73.216 73.152-73.216h27.072a147.008 147.008 0 0 0-15.744 66.368V174.72h-13.568a37.312 37.312 0 0 0 0 74.688h13.568v97.92h-13.568a37.312 37.312 0 0 0 0 74.688h13.568v97.92h-13.568a37.312 37.312 0 0 0 0 74.688h13.568v59.648zM620.288 572.16c75.328 0 136.64-61.312 136.64-136.64 0-42.496-19.456-80.512-49.92-105.6a240.768 240.768 0 0 0 99.328-71.168 37.312 37.312 0 1 0-57.408-47.68 165.76 165.76 0 0 1-127.808 59.968c-49.728 0-96.448-22.016-128.192-60.48a37.248 37.248 0 1 0-57.6 47.552c26.688 32.32 60.8 56.64 98.752 71.36a136.512 136.512 0 0 0-50.496 106.048c0 75.328 61.312 136.64 136.704 136.64z m0-74.624a62.08 62.08 0 0 1 0-124.032 62.08 62.08 0 0 1 0 124.032z"  horiz-adv-x="1024" />

    <glyph glyph-name="zuobiaodian-xuanzhong" unicode="&#59030;" d="M523.7248 882.0736l363.776-158.976L523.776 587.264 138.24 723.1488 523.7248 882.0736zM127.5904 700.3648l379.904-126.0544V-62.976L127.5392 700.416zM895.3856 699.4944l-371.712-134.8608 8.6016-626.944 363.1104 761.856zM523.8784 896L921.6 722.176 523.8784 573.5936 102.4 722.176 523.8784 896z m-0.3072-27.8016L174.0288 724.0704l349.6448-123.2384 329.728 123.2384L523.5712 868.1984zM102.4 722.176l417.8432-138.6496v-700.928L102.4 722.2272z m50.3296-43.6224l341.9136-687.0528V565.0432L152.7296 678.5536zM920.3712 722.176l-409.6-148.5824 9.472-690.944 400.128 839.5264zM870.4 676.864L544.3584-7.3216l-7.68 563.0976L870.4 676.864z"  horiz-adv-x="1024" />

    <glyph glyph-name="zuobiaodian" unicode="&#59031;" d="M523.7248 882.0736l363.776-158.976L523.776 587.264 138.24 723.1488 523.7248 882.0736zM127.5904 700.3648l379.904-126.0544V-62.976L127.5392 700.416zM895.3856 699.4944l-371.712-134.8608 8.6016-626.944 363.1104 761.856zM523.8784 896L921.6 722.176 523.8784 573.5936 102.4 722.176 523.8784 896z m-0.3072-27.8016L174.0288 724.0704l349.6448-123.2384 329.728 123.2384L523.5712 868.1984zM102.4 722.176l417.8432-138.6496v-700.928L102.4 722.2272z m50.3296-43.6224l341.9136-687.0528V565.0432L152.7296 678.5536zM920.3712 722.176l-409.6-148.5824 9.472-690.944 400.128 839.5264zM870.4 676.864L544.3584-7.3216l-7.68 563.0976L870.4 676.864z"  horiz-adv-x="1024" />

  </font>
</defs>
</svg>
