<?xml version="1.0" encoding="UTF-8"?>
<svg width="1280px" height="64px" viewBox="0 0 1280 64" version="1.1" xmlns="http://www.w3.org/2000/svg" xmlns:xlink="http://www.w3.org/1999/xlink">
    <title>飞船-指标</title>
    <defs>
        <linearGradient x1="50%" y1="100%" x2="50%" y2="-3.55022755%" id="linearGradient-1">
            <stop stop-color="#155880" offset="0%"></stop>
            <stop stop-color="#51C9FF" offset="21.8947484%"></stop>
            <stop stop-color="#51C9FF" offset="74.1335152%"></stop>
            <stop stop-color="#0D1C2B" offset="100%"></stop>
        </linearGradient>
        <linearGradient x1="50%" y1="100%" x2="50%" y2="-4.1116981%" id="linearGradient-2">
            <stop stop-color="#155880" offset="0%"></stop>
            <stop stop-color="#51C9FF" offset="21.8947484%"></stop>
            <stop stop-color="#51C9FF" offset="74.1335152%"></stop>
            <stop stop-color="#0D1C2B" offset="100%"></stop>
        </linearGradient>
        <linearGradient x1="84.1192128%" y1="50%" x2="10.9950024%" y2="50%" id="linearGradient-3">
            <stop stop-color="#00F9FF" offset="0%"></stop>
            <stop stop-color="#AEEBF9" stop-opacity="0" offset="100%"></stop>
        </linearGradient>
        <linearGradient x1="92.2883159%" y1="50%" x2="8.67595%" y2="50%" id="linearGradient-4">
            <stop stop-color="#348AFF" stop-opacity="0" offset="0%"></stop>
            <stop stop-color="#2C89FF" stop-opacity="0.597802222" offset="21.163036%"></stop>
            <stop stop-color="#2287FF" stop-opacity="0.79802229" offset="50.6715308%"></stop>
            <stop stop-color="#1886FF" stop-opacity="0.59639628" offset="80.0750045%"></stop>
            <stop stop-color="#0083FF" stop-opacity="0" offset="100%"></stop>
        </linearGradient>
        <linearGradient x1="100%" y1="50%" x2="0%" y2="50%" id="linearGradient-5">
            <stop stop-color="#EEEEEE" stop-opacity="0" offset="0%"></stop>
            <stop stop-color="#00FFF0" offset="47.680504%"></stop>
            <stop stop-color="#D8D8D8" stop-opacity="0" offset="100%"></stop>
        </linearGradient>
    </defs>
    <g id="飞船-指标" stroke="none" stroke-width="1" fill="none" fill-rule="evenodd">
        <rect fill="#0E1F33" x="0" y="0" width="1280" height="64"></rect>
        <g id="编组" transform="translate(513.500000, 32.000000) scale(-1, 1) translate(-513.500000, -32.000000) translate(-363.000000, 0.000000)">
            <polygon id="矩形" stroke="#306693" stroke-width="0.5" fill="#0D1826" points="110 0 212.296614 0 218.442496 4 250.5 4 256.298012 0 469.375008 0 475.121349 4 507.161158 4 514.730601 0 727.633262 0 732.081931 4 765.137582 4 770.270147 0 983.166488 0 987.061277 4 1023.02839 4 1027.71998 0 1237.3521 0 1243.41249 4 1280.1001 4 1284.88037 0 1492.94227 0 1497.64151 4 1537.02685 4 1542.45265 0 1646 0 1646 64 1542.45265 64 1537.02685 60 1498.43997 60 1492.94227 64 1284.88037 64 1280.76666 60 1243.73291 60 1238.19656 64 1027.10079 64 1023.02839 60 987.061277 60 983.166488 64 770.641021 64 765.137582 60 732.198187 60 726.888224 64 514.292782 64 508.084712 60 475.121349 60 469.013395 64 255.845161 64 250.5 60 218.099132 60 213.380845 64 110 64"></polygon>
            <polygon id="矩形" stroke="#45C2FF" stroke-width="0.5" fill="#0D1C2B" points="110 5 1647 5 1647 59 110 59"></polygon>
            <path d="M277.439967,38 L264.614506,57.2830339 C263.872996,58.3978923 262.622859,59.0678092 261.283924,59.0678092 L261.283924,59.0678092 L254,59.0678092 L266.197026,39.8560799 C266.930841,38.7002358 268.204839,38 269.573949,38 L269.573949,38 L277.439967,38 Z M198.866018,38 C200.235127,38 201.509126,38.7002358 202.242941,39.8560799 L214.439967,59.0678092 L207.156043,59.0678092 C205.817108,59.0678092 204.566971,58.3978923 203.82546,57.2830339 L191,38 L198.866018,38 Z M261.283924,5 C262.622859,5 263.872996,5.66991691 264.614506,6.78477529 L277.439967,26.0678092 L269.573949,26.0678092 C268.204839,26.0678092 266.930841,25.3675733 266.197026,24.2117293 L254,5 L261.283924,5 Z M214.439967,5 L202.242941,24.2117293 C201.509126,25.3675733 200.235127,26.0678092 198.866018,26.0678092 L198.866018,26.0678092 L191,26.0678092 L203.82546,6.78477529 C204.566971,5.66991691 205.817108,5 207.156043,5 L207.156043,5 L214.439967,5 Z" id="形状结合" stroke="#45C2FF" stroke-width="0.5" fill="#0D1E2D"></path>
            <path d="M534.439967,38 L521.614506,57.2830339 C520.872996,58.3978923 519.622859,59.0678092 518.283924,59.0678092 L518.283924,59.0678092 L511,59.0678092 L523.197026,39.8560799 C523.930841,38.7002358 525.204839,38 526.573949,38 L526.573949,38 L534.439967,38 Z M455.866018,38 C457.235127,38 458.509126,38.7002358 459.242941,39.8560799 L471.439967,59.0678092 L464.156043,59.0678092 C462.817108,59.0678092 461.566971,58.3978923 460.82546,57.2830339 L448,38 L455.866018,38 Z M518.283924,5 C519.622859,5 520.872996,5.66991691 521.614506,6.78477529 L534.439967,26.0678092 L526.573949,26.0678092 C525.204839,26.0678092 523.930841,25.3675733 523.197026,24.2117293 L511,5 L518.283924,5 Z M471.439967,5 L459.242941,24.2117293 C458.509126,25.3675733 457.235127,26.0678092 455.866018,26.0678092 L455.866018,26.0678092 L448,26.0678092 L460.82546,6.78477529 C461.566971,5.66991691 462.817108,5 464.156043,5 L464.156043,5 L471.439967,5 Z" id="形状结合" stroke="#45C2FF" stroke-width="0.5" fill="#0D1E2D"></path>
            <path d="M791.439967,38 L778.614506,57.2830339 C777.872996,58.3978923 776.622859,59.0678092 775.283924,59.0678092 L775.283924,59.0678092 L768,59.0678092 L780.197026,39.8560799 C780.930841,38.7002358 782.204839,38 783.573949,38 L783.573949,38 L791.439967,38 Z M712.866018,38 C714.235127,38 715.509126,38.7002358 716.242941,39.8560799 L728.439967,59.0678092 L721.156043,59.0678092 C719.817108,59.0678092 718.566971,58.3978923 717.82546,57.2830339 L705,38 L712.866018,38 Z M775.283924,5 C776.622859,5 777.872996,5.66991691 778.614506,6.78477529 L791.439967,26.0678092 L783.573949,26.0678092 C782.204839,26.0678092 780.930841,25.3675733 780.197026,24.2117293 L768,5 L775.283924,5 Z M728.439967,5 L716.242941,24.2117293 C715.509126,25.3675733 714.235127,26.0678092 712.866018,26.0678092 L712.866018,26.0678092 L705,26.0678092 L717.82546,6.78477529 C718.566971,5.66991691 719.817108,5 721.156043,5 L721.156043,5 L728.439967,5 Z" id="形状结合" stroke="#45C2FF" stroke-width="0.5" fill="#0D1E2D"></path>
            <path d="M1048.43997,38 L1035.61451,57.2830339 C1034.873,58.3978923 1033.62286,59.0678092 1032.28392,59.0678092 L1032.28392,59.0678092 L1025,59.0678092 L1037.19703,39.8560799 C1037.93084,38.7002358 1039.20484,38 1040.57395,38 L1040.57395,38 L1048.43997,38 Z M969.866018,38 C971.235127,38 972.509126,38.7002358 973.242941,39.8560799 L985.439967,59.0678092 L978.156043,59.0678092 C976.817108,59.0678092 975.566971,58.3978923 974.82546,57.2830339 L962,38 L969.866018,38 Z M1032.28392,5 C1033.62286,5 1034.873,5.66991691 1035.61451,6.78477529 L1048.43997,26.0678092 L1040.57395,26.0678092 C1039.20484,26.0678092 1037.93084,25.3675733 1037.19703,24.2117293 L1025,5 L1032.28392,5 Z M985.439967,5 L973.242941,24.2117293 C972.509126,25.3675733 971.235127,26.0678092 969.866018,26.0678092 L969.866018,26.0678092 L962,26.0678092 L974.82546,6.78477529 C975.566971,5.66991691 976.817108,5 978.156043,5 L978.156043,5 L985.439967,5 Z" id="形状结合" stroke="#45C2FF" stroke-width="0.5" fill="#0D1E2D"></path>
            <path d="M1305.43997,38 L1292.61451,57.2830339 C1291.873,58.3978923 1290.62286,59.0678092 1289.28392,59.0678092 L1289.28392,59.0678092 L1282,59.0678092 L1294.19703,39.8560799 C1294.93084,38.7002358 1296.20484,38 1297.57395,38 L1297.57395,38 L1305.43997,38 Z M1226.86602,38 C1228.23513,38 1229.50913,38.7002358 1230.24294,39.8560799 L1242.43997,59.0678092 L1235.15604,59.0678092 C1233.81711,59.0678092 1232.56697,58.3978923 1231.82546,57.2830339 L1219,38 L1226.86602,38 Z M1289.28392,5 C1290.62286,5 1291.873,5.66991691 1292.61451,6.78477529 L1305.43997,26.0678092 L1297.57395,26.0678092 C1296.20484,26.0678092 1294.93084,25.3675733 1294.19703,24.2117293 L1282,5 L1289.28392,5 Z M1242.43997,5 L1230.24294,24.2117293 C1229.50913,25.3675733 1228.23513,26.0678092 1226.86602,26.0678092 L1226.86602,26.0678092 L1219,26.0678092 L1231.82546,6.78477529 C1232.56697,5.66991691 1233.81711,5 1235.15604,5 L1235.15604,5 L1242.43997,5 Z" id="形状结合" stroke="#45C2FF" stroke-width="0.5" fill="#0D1E2D"></path>
            <g id="编组-2" transform="translate(1.456309, 5.000000)">
                <path d="M482.406593,12 L489,12 L477,24 L477,17.4065934 L482.406593,12 Z M485.10989,19.4945055 L485.10989,27.1428571 L491.967033,27.1428571 L491.967033,31.9340659 L477,31.9340659 L477,27.6043956 L485.10989,19.4945055 Z M502.208791,12 L502.208791,26.3956044 L494.098901,34.5054945 L494.098901,12 L502.208791,12 Z M502.208791,30 L502.208791,42 L494.098901,42 L494.098901,38.1098901 L502.208791,30 Z" id="形状" stroke="#A5E7FD" fill-rule="nonzero"></path>
                <path d="M224,12 L235.428571,12 L240.835165,17.3846154 L240.835165,24 L233.626374,16.7912088 L224,16.7912088 L224,12 Z M230.32967,22.021978 L230.32967,26.8131868 L224,26.8131868 L224,22.021978 L230.32967,22.021978 Z M240.835165,27.6043956 L240.835165,36.6153846 L235.428571,42 L224,42 L224,37.2087912 L232.725275,37.2087912 L232.725275,19.4945055 L240.835165,27.6043956 Z" id="形状" stroke="#A5E7FD" fill-rule="nonzero"></path>
                <path d="M997,12 L1009.46154,12 L1009.46154,15.8901099 L1001.35165,24 L1001.35165,16.7912088 L997,16.7912088 L997,12 Z M1009.46154,19.4945055 L1009.46154,42 L1001.35165,42 L1001.35165,27.6043956 L1009.46154,19.4945055 Z" id="形状" stroke="#A5E7FD" fill-rule="nonzero"></path>
                <path d="M1252.63549,11.6738281 L1263.8223,11.6738281 L1269.22889,17.0584435 L1269.22889,23.6738281 L1262.0201,16.4650369 L1252.63549,16.4650369 L1252.63549,11.6738281 Z M1269.22889,36.8826193 L1269.22889,41.6738281 L1252.63549,41.6738281 L1252.63549,36.2892127 L1261.119,27.7837182 L1261.119,19.1683336 L1268.85527,26.9045974 L1258.87725,36.8826193 L1269.22889,36.8826193 Z" id="形状" stroke="#A5E7FD" fill-rule="nonzero"></path>
                <path d="M734,12 L759.318681,12 L759.318681,16.7912088 L741.208791,16.7912088 L734,24 L734,12 Z M742.10989,19.4945055 L742.10989,21.956044 L753.934066,21.956044 L758.857143,26.8571429 L751.230769,34.4835165 L751.230769,26.7472527 L734.857143,26.7472527 L742.10989,19.4945055 Z M759.318681,30 L759.318681,36.6153846 L753.912088,42 L734,42 L734,37.2087912 L752.10989,37.2087912 L759.318681,30 Z" id="形状" stroke="#A5E7FD" fill-rule="nonzero"></path>
                <path d="M514,54.0678092 L529.157493,30.8156335 C529.895828,29.6829996 531.156361,29 532.508395,29 L704.780374,29 C706.156209,29 707.435485,29.7070824 708.167402,30.8720806 L722.740248,54.0678092 L722.740248,54.0678092 L514,54.0678092 Z" id="路径-7" stroke="url(#linearGradient-1)" stroke-width="0.5" fill="#0D1C2B" stroke-linejoin="round"></path>
                <path d="M514,25.0678092 L529.157493,1.81563353 C529.895828,0.682999636 531.156361,5.00192648e-15 532.508395,0 L704.780374,0 C706.156209,-2.52736842e-16 707.435485,0.707082432 708.167402,1.87208061 L722.740248,25.0678092 L722.740248,25.0678092 L514,25.0678092 Z" id="路径-7备份" stroke="url(#linearGradient-2)" stroke-width="0.5" fill="#0D1C2B" stroke-linejoin="round" transform="translate(618.370124, 12.533905) scale(1, -1) translate(-618.370124, -12.533905) "></path>
                <path d="M257,54.0678092 L272.157493,30.8156335 C272.895828,29.6829996 274.156361,29 275.508395,29 L447.780374,29 C449.156209,29 450.435485,29.7070824 451.167402,30.8720806 L465.740248,54.0678092 L465.740248,54.0678092 L257,54.0678092 Z" id="路径-7备份-5" stroke="url(#linearGradient-1)" stroke-width="0.5" fill="#0D1C2B" stroke-linejoin="round"></path>
                <path d="M257,25.0678092 L272.157493,1.81563353 C272.895828,0.682999636 274.156361,5.00192648e-15 275.508395,0 L447.780374,0 C449.156209,-2.52736842e-16 450.435485,0.707082432 451.167402,1.87208061 L465.740248,25.0678092 L465.740248,25.0678092 L257,25.0678092 Z" id="路径-7备份-4" stroke="url(#linearGradient-1)" stroke-width="0.5" fill="#0D1C2B" stroke-linejoin="round" transform="translate(361.370124, 12.533905) scale(1, -1) translate(-361.370124, -12.533905) "></path>
                <path d="M0,54.0678092 L15.1574935,30.8156335 C15.8958283,29.6829996 17.1563606,29 18.5083953,29 L190.780374,29 C192.156209,29 193.435485,29.7070824 194.167402,30.8720806 L208.740248,54.0678092 L208.740248,54.0678092 L0,54.0678092 Z" id="路径-7备份-7" stroke="url(#linearGradient-1)" stroke-width="0.5" fill="#0D1C2B" stroke-linejoin="round"></path>
                <path d="M0,25.0678092 L15.1574935,1.81563353 C15.8958283,0.682999636 17.1563606,5.00192648e-15 18.5083953,0 L190.780374,0 C192.156209,-2.52736842e-16 193.435485,0.707082432 194.167402,1.87208061 L208.740248,25.0678092 L208.740248,25.0678092 L0,25.0678092 Z" id="路径-7备份-6" stroke="url(#linearGradient-1)" stroke-width="0.5" fill="#0D1C2B" stroke-linejoin="round" transform="translate(104.370124, 12.533905) scale(1, -1) translate(-104.370124, -12.533905) "></path>
                <path d="M771,54.0678092 L786.157493,30.8156335 C786.895828,29.6829996 788.156361,29 789.508395,29 L961.780374,29 C963.156209,29 964.435485,29.7070824 965.167402,30.8720806 L979.740248,54.0678092 L979.740248,54.0678092 L771,54.0678092 Z" id="路径-7备份-3" stroke="url(#linearGradient-1)" stroke-width="0.5" fill="#0D1C2B" stroke-linejoin="round"></path>
                <path d="M771,25.0678092 L786.157493,1.81563353 C786.895828,0.682999636 788.156361,5.00192648e-15 789.508395,0 L961.780374,0 C963.156209,-2.52736842e-16 964.435485,0.707082432 965.167402,1.87208061 L979.740248,25.0678092 L979.740248,25.0678092 L771,25.0678092 Z" id="路径-7备份-2" stroke="url(#linearGradient-1)" stroke-width="0.5" fill="#0D1C2B" stroke-linejoin="round" transform="translate(875.370124, 12.533905) scale(1, -1) translate(-875.370124, -12.533905) "></path>
                <path d="M1028,54.0678092 L1043.15749,30.8156335 C1043.89583,29.6829996 1045.15636,29 1046.5084,29 L1218.78037,29 C1220.15621,29 1221.43549,29.7070824 1222.1674,30.8720806 L1236.74025,54.0678092 L1236.74025,54.0678092 L1028,54.0678092 Z" id="路径-7备份-9" stroke="url(#linearGradient-1)" stroke-width="0.5" fill="#0D1C2B" stroke-linejoin="round"></path>
                <path d="M1028,25.0678092 L1043.15749,1.81563353 C1043.89583,0.682999636 1045.15636,5.00192648e-15 1046.5084,0 L1218.78037,0 C1220.15621,-2.52736842e-16 1221.43549,0.707082432 1222.1674,1.87208061 L1236.74025,25.0678092 L1236.74025,25.0678092 L1028,25.0678092 Z" id="路径-7备份-8" stroke="url(#linearGradient-1)" stroke-width="0.5" fill="#0D1C2B" stroke-linejoin="round" transform="translate(1132.370124, 12.533905) scale(1, -1) translate(-1132.370124, -12.533905) "></path>
                <path d="M1284,54.0678092 L1299.15749,30.8156335 C1299.89583,29.6829996 1301.15636,29 1302.5084,29 L1474.78037,29 C1476.15621,29 1477.43549,29.7070824 1478.1674,30.8720806 L1492.74025,54.0678092 L1492.74025,54.0678092 L1284,54.0678092 Z" id="路径-7备份-11" stroke="url(#linearGradient-1)" stroke-width="0.5" fill="#0D1C2B" stroke-linejoin="round"></path>
                <path d="M1284,25.0678092 L1299.15749,1.81563353 C1299.89583,0.682999636 1301.15636,5.00192648e-15 1302.5084,0 L1474.78037,0 C1476.15621,-2.52736842e-16 1477.43549,0.707082432 1478.1674,1.87208061 L1492.74025,25.0678092 L1492.74025,25.0678092 L1284,25.0678092 Z" id="路径-7备份-10" stroke="url(#linearGradient-1)" stroke-width="0.5" fill="#0D1C2B" stroke-linejoin="round" transform="translate(1388.370124, 12.533905) scale(1, -1) translate(-1388.370124, -12.533905) "></path>
            </g>
            <g id="编组-4" transform="translate(519.000000, 7.000000)">
                <g id="编组-3" transform="translate(187.000000, 0.000000)">
                    <path d="M0,1 L0,7 C6.76353751e-17,7.55228475 0.44771525,8 1,8 L8.27540249,8 C8.92254138,8 9.529685,7.68688 9.90490364,7.15962322 L13.875738,1.57981161 C14.1959591,1.1298373 14.0907733,0.505470538 13.640799,0.185249428 C13.4714737,0.0647502331 13.2688122,-1.03737751e-15 13.0609874,0 L1,0 C0.44771525,1.01453063e-16 -6.76353751e-17,0.44771525 0,1 Z" id="路径-8" fill="url(#linearGradient-3)"></path>
                    <g id="agora_黑科技" transform="translate(6.500000, 3.500000) rotate(90.000000) translate(-6.500000, -3.500000) translate(3.000000, 0.000000)" fill-rule="nonzero">
                        <rect id="矩形" fill="#000000" opacity="0" x="0" y="0" width="7" height="7"></rect>
                        <path d="M3.5,1.6191 C3.77641852,1.6191 4.0005,1.84318148 4.0005,2.1196 C4.00016492,2.35968192 3.83105536,2.56018691 3.60545013,2.60883613 L3.605,5.27555 C3.605,5.3335399 3.5579899,5.38055 3.5,5.38055 C3.4420101,5.38055 3.395,5.3335399 3.395,5.27555 L3.39466712,2.60899668 C3.16882707,2.5606223 2.9995,2.35988538 2.9995,2.1196 C2.9995,1.84318148 3.22358148,1.6191 3.5,1.6191 Z M5.46770213,1.6571649 C5.65476914,1.73461224 5.77675,1.91713481 5.77675,2.1196 C5.77658195,2.36041928 5.60646117,2.56148761 5.37980636,2.60930703 L5.38108381,3.88502273 C5.38142522,3.88846888 5.3816,3.89196403 5.3816,3.8955 C5.3816,3.9534899 5.3345899,4.0005 5.2766,4.0005 L4.5909,4.00008545 L4.59095,5.27555 C4.59095,5.3335399 4.5439399,5.38055 4.48595,5.38055 C4.4279601,5.38055 4.38095,5.3335399 4.38095,5.27555 L4.38095,3.8955 C4.38095,3.8375101 4.4279601,3.7905 4.48595,3.7905 L5.1689,3.79008545 L5.16873828,2.60844061 C5.01125649,2.5738202 4.87743432,2.46441614 4.81394882,2.3113757 C4.73637064,2.12436292 4.77910486,1.90903156 4.92221929,1.76581699 C5.06533372,1.62260241 5.28063513,1.57971757 5.46770213,1.6571649 Z M1.7234,1.6191 C1.99981852,1.6191 2.2239,1.84318148 2.2239,2.1196 C2.2237327,2.35909338 2.05548521,2.55925102 1.83073604,2.60849439 L1.8299,3.79008545 L2.51405,3.7905 L2.51405,3.7905 C2.5720399,3.7905 2.61905,3.8375101 2.61905,3.8955 L2.61905,5.27555 C2.61905,5.3335399 2.5720399,5.38055 2.51405,5.38055 C2.4560601,5.38055 2.40905,5.3335399 2.40905,5.27555 L2.4089,4.00008545 L1.7234,4.0005 C1.6654101,4.0005 1.6184,3.9534899 1.6184,3.8955 L1.6199,3.88508545 L1.6201063,2.609429 C1.39324711,2.56182938 1.2229,2.36060804 1.2229,2.1196 C1.2229,1.84318148 1.44698148,1.6191 1.7234,1.6191 Z M3.5,1.82945 C3.38247189,1.82945 3.27652297,1.90026607 3.23157967,2.00886145 C3.18663638,2.11745684 3.21155454,2.24243348 3.29470955,2.3254883 C3.37786455,2.40854312 3.50287114,2.4333106 3.61141227,2.38823642 C3.7199534,2.34316224 3.7906416,2.23712803 3.79050021,2.1196 C3.7901145,1.95937793 3.66022242,1.82964234 3.5,1.82945 Z M5.2766,1.82944979 C5.15904014,1.82930845 5.05298381,1.90003457 5.00793018,2.00861869 C4.96287656,2.11720282 4.98770825,2.24223687 5.07083569,2.32536431 C5.15396313,2.40849175 5.27899718,2.43332344 5.38758131,2.38826982 C5.49616543,2.34321619 5.56689155,2.23715986 5.56675021,2.1196 C5.56655715,1.95943453 5.43676547,1.82964285 5.2766,1.82944979 Z M1.7234,1.82945 C1.60587189,1.82945 1.49992297,1.90026607 1.45497967,2.00886145 C1.41003638,2.11745684 1.43495454,2.24243348 1.51810955,2.3254883 C1.60126455,2.40854312 1.72627114,2.4333106 1.83481227,2.38823642 C1.9433534,2.34316224 2.0140416,2.23712803 2.01390021,2.1196 C2.01370686,1.95929798 1.88370214,1.82945 1.7234,1.82945 Z" id="形状结合" fill="#10253D"></path>
                    </g>
                </g>
                <g id="编组-3备份" transform="translate(7.500000, 4.000000) scale(-1, 1) translate(-7.500000, -4.000000) ">
                    <path d="M0,1 L0,7 C6.76353751e-17,7.55228475 0.44771525,8 1,8 L8.27540249,8 C8.92254138,8 9.529685,7.68688 9.90490364,7.15962322 L13.875738,1.57981161 C14.1959591,1.1298373 14.0907733,0.505470538 13.640799,0.185249428 C13.4714737,0.0647502331 13.2688122,-1.03737751e-15 13.0609874,0 L1,0 C0.44771525,1.01453063e-16 -6.76353751e-17,0.44771525 0,1 Z" id="路径-8" fill="url(#linearGradient-3)"></path>
                    <g id="agora_黑科技" transform="translate(6.500000, 3.500000) rotate(90.000000) translate(-6.500000, -3.500000) translate(3.000000, 0.000000)" fill-rule="nonzero">
                        <rect id="矩形" fill="#000000" opacity="0" x="0" y="0" width="7" height="7"></rect>
                        <path d="M3.5,1.6191 C3.77641852,1.6191 4.0005,1.84318148 4.0005,2.1196 C4.00016492,2.35968192 3.83105536,2.56018691 3.60545013,2.60883613 L3.605,5.27555 C3.605,5.3335399 3.5579899,5.38055 3.5,5.38055 C3.4420101,5.38055 3.395,5.3335399 3.395,5.27555 L3.39466712,2.60899668 C3.16882707,2.5606223 2.9995,2.35988538 2.9995,2.1196 C2.9995,1.84318148 3.22358148,1.6191 3.5,1.6191 Z M5.46770213,1.6571649 C5.65476914,1.73461224 5.77675,1.91713481 5.77675,2.1196 C5.77658195,2.36041928 5.60646117,2.56148761 5.37980636,2.60930703 L5.38108381,3.88502273 C5.38142522,3.88846888 5.3816,3.89196403 5.3816,3.8955 C5.3816,3.9534899 5.3345899,4.0005 5.2766,4.0005 L4.5909,4.00008545 L4.59095,5.27555 C4.59095,5.3335399 4.5439399,5.38055 4.48595,5.38055 C4.4279601,5.38055 4.38095,5.3335399 4.38095,5.27555 L4.38095,3.8955 C4.38095,3.8375101 4.4279601,3.7905 4.48595,3.7905 L5.1689,3.79008545 L5.16873828,2.60844061 C5.01125649,2.5738202 4.87743432,2.46441614 4.81394882,2.3113757 C4.73637064,2.12436292 4.77910486,1.90903156 4.92221929,1.76581699 C5.06533372,1.62260241 5.28063513,1.57971757 5.46770213,1.6571649 Z M1.7234,1.6191 C1.99981852,1.6191 2.2239,1.84318148 2.2239,2.1196 C2.2237327,2.35909338 2.05548521,2.55925102 1.83073604,2.60849439 L1.8299,3.79008545 L2.51405,3.7905 L2.51405,3.7905 C2.5720399,3.7905 2.61905,3.8375101 2.61905,3.8955 L2.61905,5.27555 C2.61905,5.3335399 2.5720399,5.38055 2.51405,5.38055 C2.4560601,5.38055 2.40905,5.3335399 2.40905,5.27555 L2.4089,4.00008545 L1.7234,4.0005 C1.6654101,4.0005 1.6184,3.9534899 1.6184,3.8955 L1.6199,3.88508545 L1.6201063,2.609429 C1.39324711,2.56182938 1.2229,2.36060804 1.2229,2.1196 C1.2229,1.84318148 1.44698148,1.6191 1.7234,1.6191 Z M3.5,1.82945 C3.38247189,1.82945 3.27652297,1.90026607 3.23157967,2.00886145 C3.18663638,2.11745684 3.21155454,2.24243348 3.29470955,2.3254883 C3.37786455,2.40854312 3.50287114,2.4333106 3.61141227,2.38823642 C3.7199534,2.34316224 3.7906416,2.23712803 3.79050021,2.1196 C3.7901145,1.95937793 3.66022242,1.82964234 3.5,1.82945 Z M5.2766,1.82944979 C5.15904014,1.82930845 5.05298381,1.90003457 5.00793018,2.00861869 C4.96287656,2.11720282 4.98770825,2.24223687 5.07083569,2.32536431 C5.15396313,2.40849175 5.27899718,2.43332344 5.38758131,2.38826982 C5.49616543,2.34321619 5.56689155,2.23715986 5.56675021,2.1196 C5.56655715,1.95943453 5.43676547,1.82964285 5.2766,1.82944979 Z M1.7234,1.82945 C1.60587189,1.82945 1.49992297,1.90026607 1.45497967,2.00886145 C1.41003638,2.11745684 1.43495454,2.24243348 1.51810955,2.3254883 C1.60126455,2.40854312 1.72627114,2.4333106 1.83481227,2.38823642 C1.9433534,2.34316224 2.0140416,2.23712803 2.01390021,2.1196 C2.01370686,1.95929798 1.88370214,1.82945 1.7234,1.82945 Z" id="形状结合" fill="#10253D"></path>
                    </g>
                </g>
                <g id="编组-3备份-3" transform="translate(194.500000, 46.000000) scale(1, -1) translate(-194.500000, -46.000000) translate(187.000000, 42.000000)">
                    <path d="M0,1 L0,7 C6.76353751e-17,7.55228475 0.44771525,8 1,8 L8.27540249,8 C8.92254138,8 9.529685,7.68688 9.90490364,7.15962322 L13.875738,1.57981161 C14.1959591,1.1298373 14.0907733,0.505470538 13.640799,0.185249428 C13.4714737,0.0647502331 13.2688122,-1.03737751e-15 13.0609874,0 L1,0 C0.44771525,1.01453063e-16 -6.76353751e-17,0.44771525 0,1 Z" id="路径-8" fill="url(#linearGradient-3)"></path>
                    <g id="agora_黑科技" transform="translate(6.500000, 3.500000) rotate(90.000000) translate(-6.500000, -3.500000) translate(3.000000, 0.000000)" fill-rule="nonzero">
                        <rect id="矩形" fill="#000000" opacity="0" x="0" y="0" width="7" height="7"></rect>
                        <path d="M3.5,1.6191 C3.77641852,1.6191 4.0005,1.84318148 4.0005,2.1196 C4.00016492,2.35968192 3.83105536,2.56018691 3.60545013,2.60883613 L3.605,5.27555 C3.605,5.3335399 3.5579899,5.38055 3.5,5.38055 C3.4420101,5.38055 3.395,5.3335399 3.395,5.27555 L3.39466712,2.60899668 C3.16882707,2.5606223 2.9995,2.35988538 2.9995,2.1196 C2.9995,1.84318148 3.22358148,1.6191 3.5,1.6191 Z M5.46770213,1.6571649 C5.65476914,1.73461224 5.77675,1.91713481 5.77675,2.1196 C5.77658195,2.36041928 5.60646117,2.56148761 5.37980636,2.60930703 L5.38108381,3.88502273 C5.38142522,3.88846888 5.3816,3.89196403 5.3816,3.8955 C5.3816,3.9534899 5.3345899,4.0005 5.2766,4.0005 L4.5909,4.00008545 L4.59095,5.27555 C4.59095,5.3335399 4.5439399,5.38055 4.48595,5.38055 C4.4279601,5.38055 4.38095,5.3335399 4.38095,5.27555 L4.38095,3.8955 C4.38095,3.8375101 4.4279601,3.7905 4.48595,3.7905 L5.1689,3.79008545 L5.16873828,2.60844061 C5.01125649,2.5738202 4.87743432,2.46441614 4.81394882,2.3113757 C4.73637064,2.12436292 4.77910486,1.90903156 4.92221929,1.76581699 C5.06533372,1.62260241 5.28063513,1.57971757 5.46770213,1.6571649 Z M1.7234,1.6191 C1.99981852,1.6191 2.2239,1.84318148 2.2239,2.1196 C2.2237327,2.35909338 2.05548521,2.55925102 1.83073604,2.60849439 L1.8299,3.79008545 L2.51405,3.7905 L2.51405,3.7905 C2.5720399,3.7905 2.61905,3.8375101 2.61905,3.8955 L2.61905,5.27555 C2.61905,5.3335399 2.5720399,5.38055 2.51405,5.38055 C2.4560601,5.38055 2.40905,5.3335399 2.40905,5.27555 L2.4089,4.00008545 L1.7234,4.0005 C1.6654101,4.0005 1.6184,3.9534899 1.6184,3.8955 L1.6199,3.88508545 L1.6201063,2.609429 C1.39324711,2.56182938 1.2229,2.36060804 1.2229,2.1196 C1.2229,1.84318148 1.44698148,1.6191 1.7234,1.6191 Z M3.5,1.82945 C3.38247189,1.82945 3.27652297,1.90026607 3.23157967,2.00886145 C3.18663638,2.11745684 3.21155454,2.24243348 3.29470955,2.3254883 C3.37786455,2.40854312 3.50287114,2.4333106 3.61141227,2.38823642 C3.7199534,2.34316224 3.7906416,2.23712803 3.79050021,2.1196 C3.7901145,1.95937793 3.66022242,1.82964234 3.5,1.82945 Z M5.2766,1.82944979 C5.15904014,1.82930845 5.05298381,1.90003457 5.00793018,2.00861869 C4.96287656,2.11720282 4.98770825,2.24223687 5.07083569,2.32536431 C5.15396313,2.40849175 5.27899718,2.43332344 5.38758131,2.38826982 C5.49616543,2.34321619 5.56689155,2.23715986 5.56675021,2.1196 C5.56655715,1.95943453 5.43676547,1.82964285 5.2766,1.82944979 Z M1.7234,1.82945 C1.60587189,1.82945 1.49992297,1.90026607 1.45497967,2.00886145 C1.41003638,2.11745684 1.43495454,2.24243348 1.51810955,2.3254883 C1.60126455,2.40854312 1.72627114,2.4333106 1.83481227,2.38823642 C1.9433534,2.34316224 2.0140416,2.23712803 2.01390021,2.1196 C2.01370686,1.95929798 1.88370214,1.82945 1.7234,1.82945 Z" id="形状结合" fill="#10253D"></path>
                    </g>
                </g>
                <g id="编组-3备份-2" transform="translate(7.500000, 46.000000) scale(-1, -1) translate(-7.500000, -46.000000) translate(0.000000, 42.000000)">
                    <path d="M0,1 L0,7 C6.76353751e-17,7.55228475 0.44771525,8 1,8 L8.27540249,8 C8.92254138,8 9.529685,7.68688 9.90490364,7.15962322 L13.875738,1.57981161 C14.1959591,1.1298373 14.0907733,0.505470538 13.640799,0.185249428 C13.4714737,0.0647502331 13.2688122,-1.03737751e-15 13.0609874,0 L1,0 C0.44771525,1.01453063e-16 -6.76353751e-17,0.44771525 0,1 Z" id="路径-8" fill="url(#linearGradient-3)"></path>
                    <g id="agora_黑科技" transform="translate(6.500000, 3.500000) rotate(90.000000) translate(-6.500000, -3.500000) translate(3.000000, 0.000000)" fill-rule="nonzero">
                        <rect id="矩形" fill="#000000" opacity="0" x="0" y="0" width="7" height="7"></rect>
                        <path d="M3.5,1.6191 C3.77641852,1.6191 4.0005,1.84318148 4.0005,2.1196 C4.00016492,2.35968192 3.83105536,2.56018691 3.60545013,2.60883613 L3.605,5.27555 C3.605,5.3335399 3.5579899,5.38055 3.5,5.38055 C3.4420101,5.38055 3.395,5.3335399 3.395,5.27555 L3.39466712,2.60899668 C3.16882707,2.5606223 2.9995,2.35988538 2.9995,2.1196 C2.9995,1.84318148 3.22358148,1.6191 3.5,1.6191 Z M5.46770213,1.6571649 C5.65476914,1.73461224 5.77675,1.91713481 5.77675,2.1196 C5.77658195,2.36041928 5.60646117,2.56148761 5.37980636,2.60930703 L5.38108381,3.88502273 C5.38142522,3.88846888 5.3816,3.89196403 5.3816,3.8955 C5.3816,3.9534899 5.3345899,4.0005 5.2766,4.0005 L4.5909,4.00008545 L4.59095,5.27555 C4.59095,5.3335399 4.5439399,5.38055 4.48595,5.38055 C4.4279601,5.38055 4.38095,5.3335399 4.38095,5.27555 L4.38095,3.8955 C4.38095,3.8375101 4.4279601,3.7905 4.48595,3.7905 L5.1689,3.79008545 L5.16873828,2.60844061 C5.01125649,2.5738202 4.87743432,2.46441614 4.81394882,2.3113757 C4.73637064,2.12436292 4.77910486,1.90903156 4.92221929,1.76581699 C5.06533372,1.62260241 5.28063513,1.57971757 5.46770213,1.6571649 Z M1.7234,1.6191 C1.99981852,1.6191 2.2239,1.84318148 2.2239,2.1196 C2.2237327,2.35909338 2.05548521,2.55925102 1.83073604,2.60849439 L1.8299,3.79008545 L2.51405,3.7905 L2.51405,3.7905 C2.5720399,3.7905 2.61905,3.8375101 2.61905,3.8955 L2.61905,5.27555 C2.61905,5.3335399 2.5720399,5.38055 2.51405,5.38055 C2.4560601,5.38055 2.40905,5.3335399 2.40905,5.27555 L2.4089,4.00008545 L1.7234,4.0005 C1.6654101,4.0005 1.6184,3.9534899 1.6184,3.8955 L1.6199,3.88508545 L1.6201063,2.609429 C1.39324711,2.56182938 1.2229,2.36060804 1.2229,2.1196 C1.2229,1.84318148 1.44698148,1.6191 1.7234,1.6191 Z M3.5,1.82945 C3.38247189,1.82945 3.27652297,1.90026607 3.23157967,2.00886145 C3.18663638,2.11745684 3.21155454,2.24243348 3.29470955,2.3254883 C3.37786455,2.40854312 3.50287114,2.4333106 3.61141227,2.38823642 C3.7199534,2.34316224 3.7906416,2.23712803 3.79050021,2.1196 C3.7901145,1.95937793 3.66022242,1.82964234 3.5,1.82945 Z M5.2766,1.82944979 C5.15904014,1.82930845 5.05298381,1.90003457 5.00793018,2.00861869 C4.96287656,2.11720282 4.98770825,2.24223687 5.07083569,2.32536431 C5.15396313,2.40849175 5.27899718,2.43332344 5.38758131,2.38826982 C5.49616543,2.34321619 5.56689155,2.23715986 5.56675021,2.1196 C5.56655715,1.95943453 5.43676547,1.82964285 5.2766,1.82944979 Z M1.7234,1.82945 C1.60587189,1.82945 1.49992297,1.90026607 1.45497967,2.00886145 C1.41003638,2.11745684 1.43495454,2.24243348 1.51810955,2.3254883 C1.60126455,2.40854312 1.72627114,2.4333106 1.83481227,2.38823642 C1.9433534,2.34316224 2.0140416,2.23712803 2.01390021,2.1196 C2.01370686,1.95929798 1.88370214,1.82945 1.7234,1.82945 Z" id="形状结合" fill="#10253D"></path>
                    </g>
                </g>
            </g>
            <g id="编组-4备份-2" transform="translate(776.000000, 7.000000)">
                <g id="编组-3" transform="translate(187.000000, 0.000000)">
                    <path d="M0,1 L0,7 C6.76353751e-17,7.55228475 0.44771525,8 1,8 L8.27540249,8 C8.92254138,8 9.529685,7.68688 9.90490364,7.15962322 L13.875738,1.57981161 C14.1959591,1.1298373 14.0907733,0.505470538 13.640799,0.185249428 C13.4714737,0.0647502331 13.2688122,-1.03737751e-15 13.0609874,0 L1,0 C0.44771525,1.01453063e-16 -6.76353751e-17,0.44771525 0,1 Z" id="路径-8" fill="url(#linearGradient-3)"></path>
                    <g id="agora_黑科技" transform="translate(6.500000, 3.500000) rotate(90.000000) translate(-6.500000, -3.500000) translate(3.000000, 0.000000)" fill-rule="nonzero">
                        <rect id="矩形" fill="#000000" opacity="0" x="0" y="0" width="7" height="7"></rect>
                        <path d="M3.5,1.6191 C3.77641852,1.6191 4.0005,1.84318148 4.0005,2.1196 C4.00016492,2.35968192 3.83105536,2.56018691 3.60545013,2.60883613 L3.605,5.27555 C3.605,5.3335399 3.5579899,5.38055 3.5,5.38055 C3.4420101,5.38055 3.395,5.3335399 3.395,5.27555 L3.39466712,2.60899668 C3.16882707,2.5606223 2.9995,2.35988538 2.9995,2.1196 C2.9995,1.84318148 3.22358148,1.6191 3.5,1.6191 Z M5.46770213,1.6571649 C5.65476914,1.73461224 5.77675,1.91713481 5.77675,2.1196 C5.77658195,2.36041928 5.60646117,2.56148761 5.37980636,2.60930703 L5.38108381,3.88502273 C5.38142522,3.88846888 5.3816,3.89196403 5.3816,3.8955 C5.3816,3.9534899 5.3345899,4.0005 5.2766,4.0005 L4.5909,4.00008545 L4.59095,5.27555 C4.59095,5.3335399 4.5439399,5.38055 4.48595,5.38055 C4.4279601,5.38055 4.38095,5.3335399 4.38095,5.27555 L4.38095,3.8955 C4.38095,3.8375101 4.4279601,3.7905 4.48595,3.7905 L5.1689,3.79008545 L5.16873828,2.60844061 C5.01125649,2.5738202 4.87743432,2.46441614 4.81394882,2.3113757 C4.73637064,2.12436292 4.77910486,1.90903156 4.92221929,1.76581699 C5.06533372,1.62260241 5.28063513,1.57971757 5.46770213,1.6571649 Z M1.7234,1.6191 C1.99981852,1.6191 2.2239,1.84318148 2.2239,2.1196 C2.2237327,2.35909338 2.05548521,2.55925102 1.83073604,2.60849439 L1.8299,3.79008545 L2.51405,3.7905 L2.51405,3.7905 C2.5720399,3.7905 2.61905,3.8375101 2.61905,3.8955 L2.61905,5.27555 C2.61905,5.3335399 2.5720399,5.38055 2.51405,5.38055 C2.4560601,5.38055 2.40905,5.3335399 2.40905,5.27555 L2.4089,4.00008545 L1.7234,4.0005 C1.6654101,4.0005 1.6184,3.9534899 1.6184,3.8955 L1.6199,3.88508545 L1.6201063,2.609429 C1.39324711,2.56182938 1.2229,2.36060804 1.2229,2.1196 C1.2229,1.84318148 1.44698148,1.6191 1.7234,1.6191 Z M3.5,1.82945 C3.38247189,1.82945 3.27652297,1.90026607 3.23157967,2.00886145 C3.18663638,2.11745684 3.21155454,2.24243348 3.29470955,2.3254883 C3.37786455,2.40854312 3.50287114,2.4333106 3.61141227,2.38823642 C3.7199534,2.34316224 3.7906416,2.23712803 3.79050021,2.1196 C3.7901145,1.95937793 3.66022242,1.82964234 3.5,1.82945 Z M5.2766,1.82944979 C5.15904014,1.82930845 5.05298381,1.90003457 5.00793018,2.00861869 C4.96287656,2.11720282 4.98770825,2.24223687 5.07083569,2.32536431 C5.15396313,2.40849175 5.27899718,2.43332344 5.38758131,2.38826982 C5.49616543,2.34321619 5.56689155,2.23715986 5.56675021,2.1196 C5.56655715,1.95943453 5.43676547,1.82964285 5.2766,1.82944979 Z M1.7234,1.82945 C1.60587189,1.82945 1.49992297,1.90026607 1.45497967,2.00886145 C1.41003638,2.11745684 1.43495454,2.24243348 1.51810955,2.3254883 C1.60126455,2.40854312 1.72627114,2.4333106 1.83481227,2.38823642 C1.9433534,2.34316224 2.0140416,2.23712803 2.01390021,2.1196 C2.01370686,1.95929798 1.88370214,1.82945 1.7234,1.82945 Z" id="形状结合" fill="#10253D"></path>
                    </g>
                </g>
                <g id="编组-3备份" transform="translate(7.500000, 4.000000) scale(-1, 1) translate(-7.500000, -4.000000) ">
                    <path d="M0,1 L0,7 C6.76353751e-17,7.55228475 0.44771525,8 1,8 L8.27540249,8 C8.92254138,8 9.529685,7.68688 9.90490364,7.15962322 L13.875738,1.57981161 C14.1959591,1.1298373 14.0907733,0.505470538 13.640799,0.185249428 C13.4714737,0.0647502331 13.2688122,-1.03737751e-15 13.0609874,0 L1,0 C0.44771525,1.01453063e-16 -6.76353751e-17,0.44771525 0,1 Z" id="路径-8" fill="url(#linearGradient-3)"></path>
                    <g id="agora_黑科技" transform="translate(6.500000, 3.500000) rotate(90.000000) translate(-6.500000, -3.500000) translate(3.000000, 0.000000)" fill-rule="nonzero">
                        <rect id="矩形" fill="#000000" opacity="0" x="0" y="0" width="7" height="7"></rect>
                        <path d="M3.5,1.6191 C3.77641852,1.6191 4.0005,1.84318148 4.0005,2.1196 C4.00016492,2.35968192 3.83105536,2.56018691 3.60545013,2.60883613 L3.605,5.27555 C3.605,5.3335399 3.5579899,5.38055 3.5,5.38055 C3.4420101,5.38055 3.395,5.3335399 3.395,5.27555 L3.39466712,2.60899668 C3.16882707,2.5606223 2.9995,2.35988538 2.9995,2.1196 C2.9995,1.84318148 3.22358148,1.6191 3.5,1.6191 Z M5.46770213,1.6571649 C5.65476914,1.73461224 5.77675,1.91713481 5.77675,2.1196 C5.77658195,2.36041928 5.60646117,2.56148761 5.37980636,2.60930703 L5.38108381,3.88502273 C5.38142522,3.88846888 5.3816,3.89196403 5.3816,3.8955 C5.3816,3.9534899 5.3345899,4.0005 5.2766,4.0005 L4.5909,4.00008545 L4.59095,5.27555 C4.59095,5.3335399 4.5439399,5.38055 4.48595,5.38055 C4.4279601,5.38055 4.38095,5.3335399 4.38095,5.27555 L4.38095,3.8955 C4.38095,3.8375101 4.4279601,3.7905 4.48595,3.7905 L5.1689,3.79008545 L5.16873828,2.60844061 C5.01125649,2.5738202 4.87743432,2.46441614 4.81394882,2.3113757 C4.73637064,2.12436292 4.77910486,1.90903156 4.92221929,1.76581699 C5.06533372,1.62260241 5.28063513,1.57971757 5.46770213,1.6571649 Z M1.7234,1.6191 C1.99981852,1.6191 2.2239,1.84318148 2.2239,2.1196 C2.2237327,2.35909338 2.05548521,2.55925102 1.83073604,2.60849439 L1.8299,3.79008545 L2.51405,3.7905 L2.51405,3.7905 C2.5720399,3.7905 2.61905,3.8375101 2.61905,3.8955 L2.61905,5.27555 C2.61905,5.3335399 2.5720399,5.38055 2.51405,5.38055 C2.4560601,5.38055 2.40905,5.3335399 2.40905,5.27555 L2.4089,4.00008545 L1.7234,4.0005 C1.6654101,4.0005 1.6184,3.9534899 1.6184,3.8955 L1.6199,3.88508545 L1.6201063,2.609429 C1.39324711,2.56182938 1.2229,2.36060804 1.2229,2.1196 C1.2229,1.84318148 1.44698148,1.6191 1.7234,1.6191 Z M3.5,1.82945 C3.38247189,1.82945 3.27652297,1.90026607 3.23157967,2.00886145 C3.18663638,2.11745684 3.21155454,2.24243348 3.29470955,2.3254883 C3.37786455,2.40854312 3.50287114,2.4333106 3.61141227,2.38823642 C3.7199534,2.34316224 3.7906416,2.23712803 3.79050021,2.1196 C3.7901145,1.95937793 3.66022242,1.82964234 3.5,1.82945 Z M5.2766,1.82944979 C5.15904014,1.82930845 5.05298381,1.90003457 5.00793018,2.00861869 C4.96287656,2.11720282 4.98770825,2.24223687 5.07083569,2.32536431 C5.15396313,2.40849175 5.27899718,2.43332344 5.38758131,2.38826982 C5.49616543,2.34321619 5.56689155,2.23715986 5.56675021,2.1196 C5.56655715,1.95943453 5.43676547,1.82964285 5.2766,1.82944979 Z M1.7234,1.82945 C1.60587189,1.82945 1.49992297,1.90026607 1.45497967,2.00886145 C1.41003638,2.11745684 1.43495454,2.24243348 1.51810955,2.3254883 C1.60126455,2.40854312 1.72627114,2.4333106 1.83481227,2.38823642 C1.9433534,2.34316224 2.0140416,2.23712803 2.01390021,2.1196 C2.01370686,1.95929798 1.88370214,1.82945 1.7234,1.82945 Z" id="形状结合" fill="#10253D"></path>
                    </g>
                </g>
                <g id="编组-3备份-3" transform="translate(194.500000, 46.000000) scale(1, -1) translate(-194.500000, -46.000000) translate(187.000000, 42.000000)">
                    <path d="M0,1 L0,7 C6.76353751e-17,7.55228475 0.44771525,8 1,8 L8.27540249,8 C8.92254138,8 9.529685,7.68688 9.90490364,7.15962322 L13.875738,1.57981161 C14.1959591,1.1298373 14.0907733,0.505470538 13.640799,0.185249428 C13.4714737,0.0647502331 13.2688122,-1.03737751e-15 13.0609874,0 L1,0 C0.44771525,1.01453063e-16 -6.76353751e-17,0.44771525 0,1 Z" id="路径-8" fill="url(#linearGradient-3)"></path>
                    <g id="agora_黑科技" transform="translate(6.500000, 3.500000) rotate(90.000000) translate(-6.500000, -3.500000) translate(3.000000, 0.000000)" fill-rule="nonzero">
                        <rect id="矩形" fill="#000000" opacity="0" x="0" y="0" width="7" height="7"></rect>
                        <path d="M3.5,1.6191 C3.77641852,1.6191 4.0005,1.84318148 4.0005,2.1196 C4.00016492,2.35968192 3.83105536,2.56018691 3.60545013,2.60883613 L3.605,5.27555 C3.605,5.3335399 3.5579899,5.38055 3.5,5.38055 C3.4420101,5.38055 3.395,5.3335399 3.395,5.27555 L3.39466712,2.60899668 C3.16882707,2.5606223 2.9995,2.35988538 2.9995,2.1196 C2.9995,1.84318148 3.22358148,1.6191 3.5,1.6191 Z M5.46770213,1.6571649 C5.65476914,1.73461224 5.77675,1.91713481 5.77675,2.1196 C5.77658195,2.36041928 5.60646117,2.56148761 5.37980636,2.60930703 L5.38108381,3.88502273 C5.38142522,3.88846888 5.3816,3.89196403 5.3816,3.8955 C5.3816,3.9534899 5.3345899,4.0005 5.2766,4.0005 L4.5909,4.00008545 L4.59095,5.27555 C4.59095,5.3335399 4.5439399,5.38055 4.48595,5.38055 C4.4279601,5.38055 4.38095,5.3335399 4.38095,5.27555 L4.38095,3.8955 C4.38095,3.8375101 4.4279601,3.7905 4.48595,3.7905 L5.1689,3.79008545 L5.16873828,2.60844061 C5.01125649,2.5738202 4.87743432,2.46441614 4.81394882,2.3113757 C4.73637064,2.12436292 4.77910486,1.90903156 4.92221929,1.76581699 C5.06533372,1.62260241 5.28063513,1.57971757 5.46770213,1.6571649 Z M1.7234,1.6191 C1.99981852,1.6191 2.2239,1.84318148 2.2239,2.1196 C2.2237327,2.35909338 2.05548521,2.55925102 1.83073604,2.60849439 L1.8299,3.79008545 L2.51405,3.7905 L2.51405,3.7905 C2.5720399,3.7905 2.61905,3.8375101 2.61905,3.8955 L2.61905,5.27555 C2.61905,5.3335399 2.5720399,5.38055 2.51405,5.38055 C2.4560601,5.38055 2.40905,5.3335399 2.40905,5.27555 L2.4089,4.00008545 L1.7234,4.0005 C1.6654101,4.0005 1.6184,3.9534899 1.6184,3.8955 L1.6199,3.88508545 L1.6201063,2.609429 C1.39324711,2.56182938 1.2229,2.36060804 1.2229,2.1196 C1.2229,1.84318148 1.44698148,1.6191 1.7234,1.6191 Z M3.5,1.82945 C3.38247189,1.82945 3.27652297,1.90026607 3.23157967,2.00886145 C3.18663638,2.11745684 3.21155454,2.24243348 3.29470955,2.3254883 C3.37786455,2.40854312 3.50287114,2.4333106 3.61141227,2.38823642 C3.7199534,2.34316224 3.7906416,2.23712803 3.79050021,2.1196 C3.7901145,1.95937793 3.66022242,1.82964234 3.5,1.82945 Z M5.2766,1.82944979 C5.15904014,1.82930845 5.05298381,1.90003457 5.00793018,2.00861869 C4.96287656,2.11720282 4.98770825,2.24223687 5.07083569,2.32536431 C5.15396313,2.40849175 5.27899718,2.43332344 5.38758131,2.38826982 C5.49616543,2.34321619 5.56689155,2.23715986 5.56675021,2.1196 C5.56655715,1.95943453 5.43676547,1.82964285 5.2766,1.82944979 Z M1.7234,1.82945 C1.60587189,1.82945 1.49992297,1.90026607 1.45497967,2.00886145 C1.41003638,2.11745684 1.43495454,2.24243348 1.51810955,2.3254883 C1.60126455,2.40854312 1.72627114,2.4333106 1.83481227,2.38823642 C1.9433534,2.34316224 2.0140416,2.23712803 2.01390021,2.1196 C2.01370686,1.95929798 1.88370214,1.82945 1.7234,1.82945 Z" id="形状结合" fill="#10253D"></path>
                    </g>
                </g>
                <g id="编组-3备份-2" transform="translate(7.500000, 46.000000) scale(-1, -1) translate(-7.500000, -46.000000) translate(0.000000, 42.000000)">
                    <path d="M0,1 L0,7 C6.76353751e-17,7.55228475 0.44771525,8 1,8 L8.27540249,8 C8.92254138,8 9.529685,7.68688 9.90490364,7.15962322 L13.875738,1.57981161 C14.1959591,1.1298373 14.0907733,0.505470538 13.640799,0.185249428 C13.4714737,0.0647502331 13.2688122,-1.03737751e-15 13.0609874,0 L1,0 C0.44771525,1.01453063e-16 -6.76353751e-17,0.44771525 0,1 Z" id="路径-8" fill="url(#linearGradient-3)"></path>
                    <g id="agora_黑科技" transform="translate(6.500000, 3.500000) rotate(90.000000) translate(-6.500000, -3.500000) translate(3.000000, 0.000000)" fill-rule="nonzero">
                        <rect id="矩形" fill="#000000" opacity="0" x="0" y="0" width="7" height="7"></rect>
                        <path d="M3.5,1.6191 C3.77641852,1.6191 4.0005,1.84318148 4.0005,2.1196 C4.00016492,2.35968192 3.83105536,2.56018691 3.60545013,2.60883613 L3.605,5.27555 C3.605,5.3335399 3.5579899,5.38055 3.5,5.38055 C3.4420101,5.38055 3.395,5.3335399 3.395,5.27555 L3.39466712,2.60899668 C3.16882707,2.5606223 2.9995,2.35988538 2.9995,2.1196 C2.9995,1.84318148 3.22358148,1.6191 3.5,1.6191 Z M5.46770213,1.6571649 C5.65476914,1.73461224 5.77675,1.91713481 5.77675,2.1196 C5.77658195,2.36041928 5.60646117,2.56148761 5.37980636,2.60930703 L5.38108381,3.88502273 C5.38142522,3.88846888 5.3816,3.89196403 5.3816,3.8955 C5.3816,3.9534899 5.3345899,4.0005 5.2766,4.0005 L4.5909,4.00008545 L4.59095,5.27555 C4.59095,5.3335399 4.5439399,5.38055 4.48595,5.38055 C4.4279601,5.38055 4.38095,5.3335399 4.38095,5.27555 L4.38095,3.8955 C4.38095,3.8375101 4.4279601,3.7905 4.48595,3.7905 L5.1689,3.79008545 L5.16873828,2.60844061 C5.01125649,2.5738202 4.87743432,2.46441614 4.81394882,2.3113757 C4.73637064,2.12436292 4.77910486,1.90903156 4.92221929,1.76581699 C5.06533372,1.62260241 5.28063513,1.57971757 5.46770213,1.6571649 Z M1.7234,1.6191 C1.99981852,1.6191 2.2239,1.84318148 2.2239,2.1196 C2.2237327,2.35909338 2.05548521,2.55925102 1.83073604,2.60849439 L1.8299,3.79008545 L2.51405,3.7905 L2.51405,3.7905 C2.5720399,3.7905 2.61905,3.8375101 2.61905,3.8955 L2.61905,5.27555 C2.61905,5.3335399 2.5720399,5.38055 2.51405,5.38055 C2.4560601,5.38055 2.40905,5.3335399 2.40905,5.27555 L2.4089,4.00008545 L1.7234,4.0005 C1.6654101,4.0005 1.6184,3.9534899 1.6184,3.8955 L1.6199,3.88508545 L1.6201063,2.609429 C1.39324711,2.56182938 1.2229,2.36060804 1.2229,2.1196 C1.2229,1.84318148 1.44698148,1.6191 1.7234,1.6191 Z M3.5,1.82945 C3.38247189,1.82945 3.27652297,1.90026607 3.23157967,2.00886145 C3.18663638,2.11745684 3.21155454,2.24243348 3.29470955,2.3254883 C3.37786455,2.40854312 3.50287114,2.4333106 3.61141227,2.38823642 C3.7199534,2.34316224 3.7906416,2.23712803 3.79050021,2.1196 C3.7901145,1.95937793 3.66022242,1.82964234 3.5,1.82945 Z M5.2766,1.82944979 C5.15904014,1.82930845 5.05298381,1.90003457 5.00793018,2.00861869 C4.96287656,2.11720282 4.98770825,2.24223687 5.07083569,2.32536431 C5.15396313,2.40849175 5.27899718,2.43332344 5.38758131,2.38826982 C5.49616543,2.34321619 5.56689155,2.23715986 5.56675021,2.1196 C5.56655715,1.95943453 5.43676547,1.82964285 5.2766,1.82944979 Z M1.7234,1.82945 C1.60587189,1.82945 1.49992297,1.90026607 1.45497967,2.00886145 C1.41003638,2.11745684 1.43495454,2.24243348 1.51810955,2.3254883 C1.60126455,2.40854312 1.72627114,2.4333106 1.83481227,2.38823642 C1.9433534,2.34316224 2.0140416,2.23712803 2.01390021,2.1196 C2.01370686,1.95929798 1.88370214,1.82945 1.7234,1.82945 Z" id="形状结合" fill="#10253D"></path>
                    </g>
                </g>
            </g>
            <g id="编组-4备份-5" transform="translate(1033.000000, 7.000000)">
                <g id="编组-3" transform="translate(187.000000, 0.000000)">
                    <path d="M0,1 L0,7 C6.76353751e-17,7.55228475 0.44771525,8 1,8 L8.27540249,8 C8.92254138,8 9.529685,7.68688 9.90490364,7.15962322 L13.875738,1.57981161 C14.1959591,1.1298373 14.0907733,0.505470538 13.640799,0.185249428 C13.4714737,0.0647502331 13.2688122,-1.03737751e-15 13.0609874,0 L1,0 C0.44771525,1.01453063e-16 -6.76353751e-17,0.44771525 0,1 Z" id="路径-8" fill="url(#linearGradient-3)"></path>
                    <g id="agora_黑科技" transform="translate(6.500000, 3.500000) rotate(90.000000) translate(-6.500000, -3.500000) translate(3.000000, 0.000000)" fill-rule="nonzero">
                        <rect id="矩形" fill="#000000" opacity="0" x="0" y="0" width="7" height="7"></rect>
                        <path d="M3.5,1.6191 C3.77641852,1.6191 4.0005,1.84318148 4.0005,2.1196 C4.00016492,2.35968192 3.83105536,2.56018691 3.60545013,2.60883613 L3.605,5.27555 C3.605,5.3335399 3.5579899,5.38055 3.5,5.38055 C3.4420101,5.38055 3.395,5.3335399 3.395,5.27555 L3.39466712,2.60899668 C3.16882707,2.5606223 2.9995,2.35988538 2.9995,2.1196 C2.9995,1.84318148 3.22358148,1.6191 3.5,1.6191 Z M5.46770213,1.6571649 C5.65476914,1.73461224 5.77675,1.91713481 5.77675,2.1196 C5.77658195,2.36041928 5.60646117,2.56148761 5.37980636,2.60930703 L5.38108381,3.88502273 C5.38142522,3.88846888 5.3816,3.89196403 5.3816,3.8955 C5.3816,3.9534899 5.3345899,4.0005 5.2766,4.0005 L4.5909,4.00008545 L4.59095,5.27555 C4.59095,5.3335399 4.5439399,5.38055 4.48595,5.38055 C4.4279601,5.38055 4.38095,5.3335399 4.38095,5.27555 L4.38095,3.8955 C4.38095,3.8375101 4.4279601,3.7905 4.48595,3.7905 L5.1689,3.79008545 L5.16873828,2.60844061 C5.01125649,2.5738202 4.87743432,2.46441614 4.81394882,2.3113757 C4.73637064,2.12436292 4.77910486,1.90903156 4.92221929,1.76581699 C5.06533372,1.62260241 5.28063513,1.57971757 5.46770213,1.6571649 Z M1.7234,1.6191 C1.99981852,1.6191 2.2239,1.84318148 2.2239,2.1196 C2.2237327,2.35909338 2.05548521,2.55925102 1.83073604,2.60849439 L1.8299,3.79008545 L2.51405,3.7905 L2.51405,3.7905 C2.5720399,3.7905 2.61905,3.8375101 2.61905,3.8955 L2.61905,5.27555 C2.61905,5.3335399 2.5720399,5.38055 2.51405,5.38055 C2.4560601,5.38055 2.40905,5.3335399 2.40905,5.27555 L2.4089,4.00008545 L1.7234,4.0005 C1.6654101,4.0005 1.6184,3.9534899 1.6184,3.8955 L1.6199,3.88508545 L1.6201063,2.609429 C1.39324711,2.56182938 1.2229,2.36060804 1.2229,2.1196 C1.2229,1.84318148 1.44698148,1.6191 1.7234,1.6191 Z M3.5,1.82945 C3.38247189,1.82945 3.27652297,1.90026607 3.23157967,2.00886145 C3.18663638,2.11745684 3.21155454,2.24243348 3.29470955,2.3254883 C3.37786455,2.40854312 3.50287114,2.4333106 3.61141227,2.38823642 C3.7199534,2.34316224 3.7906416,2.23712803 3.79050021,2.1196 C3.7901145,1.95937793 3.66022242,1.82964234 3.5,1.82945 Z M5.2766,1.82944979 C5.15904014,1.82930845 5.05298381,1.90003457 5.00793018,2.00861869 C4.96287656,2.11720282 4.98770825,2.24223687 5.07083569,2.32536431 C5.15396313,2.40849175 5.27899718,2.43332344 5.38758131,2.38826982 C5.49616543,2.34321619 5.56689155,2.23715986 5.56675021,2.1196 C5.56655715,1.95943453 5.43676547,1.82964285 5.2766,1.82944979 Z M1.7234,1.82945 C1.60587189,1.82945 1.49992297,1.90026607 1.45497967,2.00886145 C1.41003638,2.11745684 1.43495454,2.24243348 1.51810955,2.3254883 C1.60126455,2.40854312 1.72627114,2.4333106 1.83481227,2.38823642 C1.9433534,2.34316224 2.0140416,2.23712803 2.01390021,2.1196 C2.01370686,1.95929798 1.88370214,1.82945 1.7234,1.82945 Z" id="形状结合" fill="#10253D"></path>
                    </g>
                </g>
                <g id="编组-3备份" transform="translate(7.500000, 4.000000) scale(-1, 1) translate(-7.500000, -4.000000) ">
                    <path d="M0,1 L0,7 C6.76353751e-17,7.55228475 0.44771525,8 1,8 L8.27540249,8 C8.92254138,8 9.529685,7.68688 9.90490364,7.15962322 L13.875738,1.57981161 C14.1959591,1.1298373 14.0907733,0.505470538 13.640799,0.185249428 C13.4714737,0.0647502331 13.2688122,-1.03737751e-15 13.0609874,0 L1,0 C0.44771525,1.01453063e-16 -6.76353751e-17,0.44771525 0,1 Z" id="路径-8" fill="url(#linearGradient-3)"></path>
                    <g id="agora_黑科技" transform="translate(6.500000, 3.500000) rotate(90.000000) translate(-6.500000, -3.500000) translate(3.000000, 0.000000)" fill-rule="nonzero">
                        <rect id="矩形" fill="#000000" opacity="0" x="0" y="0" width="7" height="7"></rect>
                        <path d="M3.5,1.6191 C3.77641852,1.6191 4.0005,1.84318148 4.0005,2.1196 C4.00016492,2.35968192 3.83105536,2.56018691 3.60545013,2.60883613 L3.605,5.27555 C3.605,5.3335399 3.5579899,5.38055 3.5,5.38055 C3.4420101,5.38055 3.395,5.3335399 3.395,5.27555 L3.39466712,2.60899668 C3.16882707,2.5606223 2.9995,2.35988538 2.9995,2.1196 C2.9995,1.84318148 3.22358148,1.6191 3.5,1.6191 Z M5.46770213,1.6571649 C5.65476914,1.73461224 5.77675,1.91713481 5.77675,2.1196 C5.77658195,2.36041928 5.60646117,2.56148761 5.37980636,2.60930703 L5.38108381,3.88502273 C5.38142522,3.88846888 5.3816,3.89196403 5.3816,3.8955 C5.3816,3.9534899 5.3345899,4.0005 5.2766,4.0005 L4.5909,4.00008545 L4.59095,5.27555 C4.59095,5.3335399 4.5439399,5.38055 4.48595,5.38055 C4.4279601,5.38055 4.38095,5.3335399 4.38095,5.27555 L4.38095,3.8955 C4.38095,3.8375101 4.4279601,3.7905 4.48595,3.7905 L5.1689,3.79008545 L5.16873828,2.60844061 C5.01125649,2.5738202 4.87743432,2.46441614 4.81394882,2.3113757 C4.73637064,2.12436292 4.77910486,1.90903156 4.92221929,1.76581699 C5.06533372,1.62260241 5.28063513,1.57971757 5.46770213,1.6571649 Z M1.7234,1.6191 C1.99981852,1.6191 2.2239,1.84318148 2.2239,2.1196 C2.2237327,2.35909338 2.05548521,2.55925102 1.83073604,2.60849439 L1.8299,3.79008545 L2.51405,3.7905 L2.51405,3.7905 C2.5720399,3.7905 2.61905,3.8375101 2.61905,3.8955 L2.61905,5.27555 C2.61905,5.3335399 2.5720399,5.38055 2.51405,5.38055 C2.4560601,5.38055 2.40905,5.3335399 2.40905,5.27555 L2.4089,4.00008545 L1.7234,4.0005 C1.6654101,4.0005 1.6184,3.9534899 1.6184,3.8955 L1.6199,3.88508545 L1.6201063,2.609429 C1.39324711,2.56182938 1.2229,2.36060804 1.2229,2.1196 C1.2229,1.84318148 1.44698148,1.6191 1.7234,1.6191 Z M3.5,1.82945 C3.38247189,1.82945 3.27652297,1.90026607 3.23157967,2.00886145 C3.18663638,2.11745684 3.21155454,2.24243348 3.29470955,2.3254883 C3.37786455,2.40854312 3.50287114,2.4333106 3.61141227,2.38823642 C3.7199534,2.34316224 3.7906416,2.23712803 3.79050021,2.1196 C3.7901145,1.95937793 3.66022242,1.82964234 3.5,1.82945 Z M5.2766,1.82944979 C5.15904014,1.82930845 5.05298381,1.90003457 5.00793018,2.00861869 C4.96287656,2.11720282 4.98770825,2.24223687 5.07083569,2.32536431 C5.15396313,2.40849175 5.27899718,2.43332344 5.38758131,2.38826982 C5.49616543,2.34321619 5.56689155,2.23715986 5.56675021,2.1196 C5.56655715,1.95943453 5.43676547,1.82964285 5.2766,1.82944979 Z M1.7234,1.82945 C1.60587189,1.82945 1.49992297,1.90026607 1.45497967,2.00886145 C1.41003638,2.11745684 1.43495454,2.24243348 1.51810955,2.3254883 C1.60126455,2.40854312 1.72627114,2.4333106 1.83481227,2.38823642 C1.9433534,2.34316224 2.0140416,2.23712803 2.01390021,2.1196 C2.01370686,1.95929798 1.88370214,1.82945 1.7234,1.82945 Z" id="形状结合" fill="#10253D"></path>
                    </g>
                </g>
                <g id="编组-3备份-3" transform="translate(194.500000, 46.000000) scale(1, -1) translate(-194.500000, -46.000000) translate(187.000000, 42.000000)">
                    <path d="M0,1 L0,7 C6.76353751e-17,7.55228475 0.44771525,8 1,8 L8.27540249,8 C8.92254138,8 9.529685,7.68688 9.90490364,7.15962322 L13.875738,1.57981161 C14.1959591,1.1298373 14.0907733,0.505470538 13.640799,0.185249428 C13.4714737,0.0647502331 13.2688122,-1.03737751e-15 13.0609874,0 L1,0 C0.44771525,1.01453063e-16 -6.76353751e-17,0.44771525 0,1 Z" id="路径-8" fill="url(#linearGradient-3)"></path>
                    <g id="agora_黑科技" transform="translate(6.500000, 3.500000) rotate(90.000000) translate(-6.500000, -3.500000) translate(3.000000, 0.000000)" fill-rule="nonzero">
                        <rect id="矩形" fill="#000000" opacity="0" x="0" y="0" width="7" height="7"></rect>
                        <path d="M3.5,1.6191 C3.77641852,1.6191 4.0005,1.84318148 4.0005,2.1196 C4.00016492,2.35968192 3.83105536,2.56018691 3.60545013,2.60883613 L3.605,5.27555 C3.605,5.3335399 3.5579899,5.38055 3.5,5.38055 C3.4420101,5.38055 3.395,5.3335399 3.395,5.27555 L3.39466712,2.60899668 C3.16882707,2.5606223 2.9995,2.35988538 2.9995,2.1196 C2.9995,1.84318148 3.22358148,1.6191 3.5,1.6191 Z M5.46770213,1.6571649 C5.65476914,1.73461224 5.77675,1.91713481 5.77675,2.1196 C5.77658195,2.36041928 5.60646117,2.56148761 5.37980636,2.60930703 L5.38108381,3.88502273 C5.38142522,3.88846888 5.3816,3.89196403 5.3816,3.8955 C5.3816,3.9534899 5.3345899,4.0005 5.2766,4.0005 L4.5909,4.00008545 L4.59095,5.27555 C4.59095,5.3335399 4.5439399,5.38055 4.48595,5.38055 C4.4279601,5.38055 4.38095,5.3335399 4.38095,5.27555 L4.38095,3.8955 C4.38095,3.8375101 4.4279601,3.7905 4.48595,3.7905 L5.1689,3.79008545 L5.16873828,2.60844061 C5.01125649,2.5738202 4.87743432,2.46441614 4.81394882,2.3113757 C4.73637064,2.12436292 4.77910486,1.90903156 4.92221929,1.76581699 C5.06533372,1.62260241 5.28063513,1.57971757 5.46770213,1.6571649 Z M1.7234,1.6191 C1.99981852,1.6191 2.2239,1.84318148 2.2239,2.1196 C2.2237327,2.35909338 2.05548521,2.55925102 1.83073604,2.60849439 L1.8299,3.79008545 L2.51405,3.7905 L2.51405,3.7905 C2.5720399,3.7905 2.61905,3.8375101 2.61905,3.8955 L2.61905,5.27555 C2.61905,5.3335399 2.5720399,5.38055 2.51405,5.38055 C2.4560601,5.38055 2.40905,5.3335399 2.40905,5.27555 L2.4089,4.00008545 L1.7234,4.0005 C1.6654101,4.0005 1.6184,3.9534899 1.6184,3.8955 L1.6199,3.88508545 L1.6201063,2.609429 C1.39324711,2.56182938 1.2229,2.36060804 1.2229,2.1196 C1.2229,1.84318148 1.44698148,1.6191 1.7234,1.6191 Z M3.5,1.82945 C3.38247189,1.82945 3.27652297,1.90026607 3.23157967,2.00886145 C3.18663638,2.11745684 3.21155454,2.24243348 3.29470955,2.3254883 C3.37786455,2.40854312 3.50287114,2.4333106 3.61141227,2.38823642 C3.7199534,2.34316224 3.7906416,2.23712803 3.79050021,2.1196 C3.7901145,1.95937793 3.66022242,1.82964234 3.5,1.82945 Z M5.2766,1.82944979 C5.15904014,1.82930845 5.05298381,1.90003457 5.00793018,2.00861869 C4.96287656,2.11720282 4.98770825,2.24223687 5.07083569,2.32536431 C5.15396313,2.40849175 5.27899718,2.43332344 5.38758131,2.38826982 C5.49616543,2.34321619 5.56689155,2.23715986 5.56675021,2.1196 C5.56655715,1.95943453 5.43676547,1.82964285 5.2766,1.82944979 Z M1.7234,1.82945 C1.60587189,1.82945 1.49992297,1.90026607 1.45497967,2.00886145 C1.41003638,2.11745684 1.43495454,2.24243348 1.51810955,2.3254883 C1.60126455,2.40854312 1.72627114,2.4333106 1.83481227,2.38823642 C1.9433534,2.34316224 2.0140416,2.23712803 2.01390021,2.1196 C2.01370686,1.95929798 1.88370214,1.82945 1.7234,1.82945 Z" id="形状结合" fill="#10253D"></path>
                    </g>
                </g>
                <g id="编组-3备份-2" transform="translate(7.500000, 46.000000) scale(-1, -1) translate(-7.500000, -46.000000) translate(0.000000, 42.000000)">
                    <path d="M0,1 L0,7 C6.76353751e-17,7.55228475 0.44771525,8 1,8 L8.27540249,8 C8.92254138,8 9.529685,7.68688 9.90490364,7.15962322 L13.875738,1.57981161 C14.1959591,1.1298373 14.0907733,0.505470538 13.640799,0.185249428 C13.4714737,0.0647502331 13.2688122,-1.03737751e-15 13.0609874,0 L1,0 C0.44771525,1.01453063e-16 -6.76353751e-17,0.44771525 0,1 Z" id="路径-8" fill="url(#linearGradient-3)"></path>
                    <g id="agora_黑科技" transform="translate(6.500000, 3.500000) rotate(90.000000) translate(-6.500000, -3.500000) translate(3.000000, 0.000000)" fill-rule="nonzero">
                        <rect id="矩形" fill="#000000" opacity="0" x="0" y="0" width="7" height="7"></rect>
                        <path d="M3.5,1.6191 C3.77641852,1.6191 4.0005,1.84318148 4.0005,2.1196 C4.00016492,2.35968192 3.83105536,2.56018691 3.60545013,2.60883613 L3.605,5.27555 C3.605,5.3335399 3.5579899,5.38055 3.5,5.38055 C3.4420101,5.38055 3.395,5.3335399 3.395,5.27555 L3.39466712,2.60899668 C3.16882707,2.5606223 2.9995,2.35988538 2.9995,2.1196 C2.9995,1.84318148 3.22358148,1.6191 3.5,1.6191 Z M5.46770213,1.6571649 C5.65476914,1.73461224 5.77675,1.91713481 5.77675,2.1196 C5.77658195,2.36041928 5.60646117,2.56148761 5.37980636,2.60930703 L5.38108381,3.88502273 C5.38142522,3.88846888 5.3816,3.89196403 5.3816,3.8955 C5.3816,3.9534899 5.3345899,4.0005 5.2766,4.0005 L4.5909,4.00008545 L4.59095,5.27555 C4.59095,5.3335399 4.5439399,5.38055 4.48595,5.38055 C4.4279601,5.38055 4.38095,5.3335399 4.38095,5.27555 L4.38095,3.8955 C4.38095,3.8375101 4.4279601,3.7905 4.48595,3.7905 L5.1689,3.79008545 L5.16873828,2.60844061 C5.01125649,2.5738202 4.87743432,2.46441614 4.81394882,2.3113757 C4.73637064,2.12436292 4.77910486,1.90903156 4.92221929,1.76581699 C5.06533372,1.62260241 5.28063513,1.57971757 5.46770213,1.6571649 Z M1.7234,1.6191 C1.99981852,1.6191 2.2239,1.84318148 2.2239,2.1196 C2.2237327,2.35909338 2.05548521,2.55925102 1.83073604,2.60849439 L1.8299,3.79008545 L2.51405,3.7905 L2.51405,3.7905 C2.5720399,3.7905 2.61905,3.8375101 2.61905,3.8955 L2.61905,5.27555 C2.61905,5.3335399 2.5720399,5.38055 2.51405,5.38055 C2.4560601,5.38055 2.40905,5.3335399 2.40905,5.27555 L2.4089,4.00008545 L1.7234,4.0005 C1.6654101,4.0005 1.6184,3.9534899 1.6184,3.8955 L1.6199,3.88508545 L1.6201063,2.609429 C1.39324711,2.56182938 1.2229,2.36060804 1.2229,2.1196 C1.2229,1.84318148 1.44698148,1.6191 1.7234,1.6191 Z M3.5,1.82945 C3.38247189,1.82945 3.27652297,1.90026607 3.23157967,2.00886145 C3.18663638,2.11745684 3.21155454,2.24243348 3.29470955,2.3254883 C3.37786455,2.40854312 3.50287114,2.4333106 3.61141227,2.38823642 C3.7199534,2.34316224 3.7906416,2.23712803 3.79050021,2.1196 C3.7901145,1.95937793 3.66022242,1.82964234 3.5,1.82945 Z M5.2766,1.82944979 C5.15904014,1.82930845 5.05298381,1.90003457 5.00793018,2.00861869 C4.96287656,2.11720282 4.98770825,2.24223687 5.07083569,2.32536431 C5.15396313,2.40849175 5.27899718,2.43332344 5.38758131,2.38826982 C5.49616543,2.34321619 5.56689155,2.23715986 5.56675021,2.1196 C5.56655715,1.95943453 5.43676547,1.82964285 5.2766,1.82944979 Z M1.7234,1.82945 C1.60587189,1.82945 1.49992297,1.90026607 1.45497967,2.00886145 C1.41003638,2.11745684 1.43495454,2.24243348 1.51810955,2.3254883 C1.60126455,2.40854312 1.72627114,2.4333106 1.83481227,2.38823642 C1.9433534,2.34316224 2.0140416,2.23712803 2.01390021,2.1196 C2.01370686,1.95929798 1.88370214,1.82945 1.7234,1.82945 Z" id="形状结合" fill="#10253D"></path>
                    </g>
                </g>
            </g>
            <g id="编组-4备份-6" transform="translate(1289.000000, 7.000000)">
                <g id="编组-3备份" transform="translate(7.500000, 4.000000) scale(-1, 1) translate(-7.500000, -4.000000) ">
                    <path d="M0,1 L0,7 C6.76353751e-17,7.55228475 0.44771525,8 1,8 L8.27540249,8 C8.92254138,8 9.529685,7.68688 9.90490364,7.15962322 L13.875738,1.57981161 C14.1959591,1.1298373 14.0907733,0.505470538 13.640799,0.185249428 C13.4714737,0.0647502331 13.2688122,-1.03737751e-15 13.0609874,0 L1,0 C0.44771525,1.01453063e-16 -6.76353751e-17,0.44771525 0,1 Z" id="路径-8" fill="url(#linearGradient-3)"></path>
                    <g id="agora_黑科技" transform="translate(6.500000, 3.500000) rotate(90.000000) translate(-6.500000, -3.500000) translate(3.000000, 0.000000)" fill-rule="nonzero">
                        <rect id="矩形" fill="#000000" opacity="0" x="0" y="0" width="7" height="7"></rect>
                        <path d="M3.5,1.6191 C3.77641852,1.6191 4.0005,1.84318148 4.0005,2.1196 C4.00016492,2.35968192 3.83105536,2.56018691 3.60545013,2.60883613 L3.605,5.27555 C3.605,5.3335399 3.5579899,5.38055 3.5,5.38055 C3.4420101,5.38055 3.395,5.3335399 3.395,5.27555 L3.39466712,2.60899668 C3.16882707,2.5606223 2.9995,2.35988538 2.9995,2.1196 C2.9995,1.84318148 3.22358148,1.6191 3.5,1.6191 Z M5.46770213,1.6571649 C5.65476914,1.73461224 5.77675,1.91713481 5.77675,2.1196 C5.77658195,2.36041928 5.60646117,2.56148761 5.37980636,2.60930703 L5.38108381,3.88502273 C5.38142522,3.88846888 5.3816,3.89196403 5.3816,3.8955 C5.3816,3.9534899 5.3345899,4.0005 5.2766,4.0005 L4.5909,4.00008545 L4.59095,5.27555 C4.59095,5.3335399 4.5439399,5.38055 4.48595,5.38055 C4.4279601,5.38055 4.38095,5.3335399 4.38095,5.27555 L4.38095,3.8955 C4.38095,3.8375101 4.4279601,3.7905 4.48595,3.7905 L5.1689,3.79008545 L5.16873828,2.60844061 C5.01125649,2.5738202 4.87743432,2.46441614 4.81394882,2.3113757 C4.73637064,2.12436292 4.77910486,1.90903156 4.92221929,1.76581699 C5.06533372,1.62260241 5.28063513,1.57971757 5.46770213,1.6571649 Z M1.7234,1.6191 C1.99981852,1.6191 2.2239,1.84318148 2.2239,2.1196 C2.2237327,2.35909338 2.05548521,2.55925102 1.83073604,2.60849439 L1.8299,3.79008545 L2.51405,3.7905 L2.51405,3.7905 C2.5720399,3.7905 2.61905,3.8375101 2.61905,3.8955 L2.61905,5.27555 C2.61905,5.3335399 2.5720399,5.38055 2.51405,5.38055 C2.4560601,5.38055 2.40905,5.3335399 2.40905,5.27555 L2.4089,4.00008545 L1.7234,4.0005 C1.6654101,4.0005 1.6184,3.9534899 1.6184,3.8955 L1.6199,3.88508545 L1.6201063,2.609429 C1.39324711,2.56182938 1.2229,2.36060804 1.2229,2.1196 C1.2229,1.84318148 1.44698148,1.6191 1.7234,1.6191 Z M3.5,1.82945 C3.38247189,1.82945 3.27652297,1.90026607 3.23157967,2.00886145 C3.18663638,2.11745684 3.21155454,2.24243348 3.29470955,2.3254883 C3.37786455,2.40854312 3.50287114,2.4333106 3.61141227,2.38823642 C3.7199534,2.34316224 3.7906416,2.23712803 3.79050021,2.1196 C3.7901145,1.95937793 3.66022242,1.82964234 3.5,1.82945 Z M5.2766,1.82944979 C5.15904014,1.82930845 5.05298381,1.90003457 5.00793018,2.00861869 C4.96287656,2.11720282 4.98770825,2.24223687 5.07083569,2.32536431 C5.15396313,2.40849175 5.27899718,2.43332344 5.38758131,2.38826982 C5.49616543,2.34321619 5.56689155,2.23715986 5.56675021,2.1196 C5.56655715,1.95943453 5.43676547,1.82964285 5.2766,1.82944979 Z M1.7234,1.82945 C1.60587189,1.82945 1.49992297,1.90026607 1.45497967,2.00886145 C1.41003638,2.11745684 1.43495454,2.24243348 1.51810955,2.3254883 C1.60126455,2.40854312 1.72627114,2.4333106 1.83481227,2.38823642 C1.9433534,2.34316224 2.0140416,2.23712803 2.01390021,2.1196 C2.01370686,1.95929798 1.88370214,1.82945 1.7234,1.82945 Z" id="形状结合" fill="#10253D"></path>
                    </g>
                </g>
                <g id="编组-3备份-2" transform="translate(7.500000, 46.000000) scale(-1, -1) translate(-7.500000, -46.000000) translate(0.000000, 42.000000)">
                    <path d="M0,1 L0,7 C6.76353751e-17,7.55228475 0.44771525,8 1,8 L8.27540249,8 C8.92254138,8 9.529685,7.68688 9.90490364,7.15962322 L13.875738,1.57981161 C14.1959591,1.1298373 14.0907733,0.505470538 13.640799,0.185249428 C13.4714737,0.0647502331 13.2688122,-1.03737751e-15 13.0609874,0 L1,0 C0.44771525,1.01453063e-16 -6.76353751e-17,0.44771525 0,1 Z" id="路径-8" fill="url(#linearGradient-3)"></path>
                    <g id="agora_黑科技" transform="translate(6.500000, 3.500000) rotate(90.000000) translate(-6.500000, -3.500000) translate(3.000000, 0.000000)" fill-rule="nonzero">
                        <rect id="矩形" fill="#000000" opacity="0" x="0" y="0" width="7" height="7"></rect>
                        <path d="M3.5,1.6191 C3.77641852,1.6191 4.0005,1.84318148 4.0005,2.1196 C4.00016492,2.35968192 3.83105536,2.56018691 3.60545013,2.60883613 L3.605,5.27555 C3.605,5.3335399 3.5579899,5.38055 3.5,5.38055 C3.4420101,5.38055 3.395,5.3335399 3.395,5.27555 L3.39466712,2.60899668 C3.16882707,2.5606223 2.9995,2.35988538 2.9995,2.1196 C2.9995,1.84318148 3.22358148,1.6191 3.5,1.6191 Z M5.46770213,1.6571649 C5.65476914,1.73461224 5.77675,1.91713481 5.77675,2.1196 C5.77658195,2.36041928 5.60646117,2.56148761 5.37980636,2.60930703 L5.38108381,3.88502273 C5.38142522,3.88846888 5.3816,3.89196403 5.3816,3.8955 C5.3816,3.9534899 5.3345899,4.0005 5.2766,4.0005 L4.5909,4.00008545 L4.59095,5.27555 C4.59095,5.3335399 4.5439399,5.38055 4.48595,5.38055 C4.4279601,5.38055 4.38095,5.3335399 4.38095,5.27555 L4.38095,3.8955 C4.38095,3.8375101 4.4279601,3.7905 4.48595,3.7905 L5.1689,3.79008545 L5.16873828,2.60844061 C5.01125649,2.5738202 4.87743432,2.46441614 4.81394882,2.3113757 C4.73637064,2.12436292 4.77910486,1.90903156 4.92221929,1.76581699 C5.06533372,1.62260241 5.28063513,1.57971757 5.46770213,1.6571649 Z M1.7234,1.6191 C1.99981852,1.6191 2.2239,1.84318148 2.2239,2.1196 C2.2237327,2.35909338 2.05548521,2.55925102 1.83073604,2.60849439 L1.8299,3.79008545 L2.51405,3.7905 L2.51405,3.7905 C2.5720399,3.7905 2.61905,3.8375101 2.61905,3.8955 L2.61905,5.27555 C2.61905,5.3335399 2.5720399,5.38055 2.51405,5.38055 C2.4560601,5.38055 2.40905,5.3335399 2.40905,5.27555 L2.4089,4.00008545 L1.7234,4.0005 C1.6654101,4.0005 1.6184,3.9534899 1.6184,3.8955 L1.6199,3.88508545 L1.6201063,2.609429 C1.39324711,2.56182938 1.2229,2.36060804 1.2229,2.1196 C1.2229,1.84318148 1.44698148,1.6191 1.7234,1.6191 Z M3.5,1.82945 C3.38247189,1.82945 3.27652297,1.90026607 3.23157967,2.00886145 C3.18663638,2.11745684 3.21155454,2.24243348 3.29470955,2.3254883 C3.37786455,2.40854312 3.50287114,2.4333106 3.61141227,2.38823642 C3.7199534,2.34316224 3.7906416,2.23712803 3.79050021,2.1196 C3.7901145,1.95937793 3.66022242,1.82964234 3.5,1.82945 Z M5.2766,1.82944979 C5.15904014,1.82930845 5.05298381,1.90003457 5.00793018,2.00861869 C4.96287656,2.11720282 4.98770825,2.24223687 5.07083569,2.32536431 C5.15396313,2.40849175 5.27899718,2.43332344 5.38758131,2.38826982 C5.49616543,2.34321619 5.56689155,2.23715986 5.56675021,2.1196 C5.56655715,1.95943453 5.43676547,1.82964285 5.2766,1.82944979 Z M1.7234,1.82945 C1.60587189,1.82945 1.49992297,1.90026607 1.45497967,2.00886145 C1.41003638,2.11745684 1.43495454,2.24243348 1.51810955,2.3254883 C1.60126455,2.40854312 1.72627114,2.4333106 1.83481227,2.38823642 C1.9433534,2.34316224 2.0140416,2.23712803 2.01390021,2.1196 C2.01370686,1.95929798 1.88370214,1.82945 1.7234,1.82945 Z" id="形状结合" fill="#10253D"></path>
                    </g>
                </g>
            </g>
            <g id="编组-4备份-4" transform="translate(199.500000, 32.000000) scale(-1, 1) translate(-199.500000, -32.000000) translate(192.000000, 7.000000)">
                <g id="编组-3备份" transform="translate(7.500000, 4.000000) scale(-1, 1) translate(-7.500000, -4.000000) ">
                    <path d="M0,1 L0,7 C6.76353751e-17,7.55228475 0.44771525,8 1,8 L8.27540249,8 C8.92254138,8 9.529685,7.68688 9.90490364,7.15962322 L13.875738,1.57981161 C14.1959591,1.1298373 14.0907733,0.505470538 13.640799,0.185249428 C13.4714737,0.0647502331 13.2688122,-1.03737751e-15 13.0609874,0 L1,0 C0.44771525,1.01453063e-16 -6.76353751e-17,0.44771525 0,1 Z" id="路径-8" fill="url(#linearGradient-3)"></path>
                    <g id="agora_黑科技" transform="translate(6.500000, 3.500000) rotate(90.000000) translate(-6.500000, -3.500000) translate(3.000000, 0.000000)" fill-rule="nonzero">
                        <rect id="矩形" fill="#000000" opacity="0" x="0" y="0" width="7" height="7"></rect>
                        <path d="M3.5,1.6191 C3.77641852,1.6191 4.0005,1.84318148 4.0005,2.1196 C4.00016492,2.35968192 3.83105536,2.56018691 3.60545013,2.60883613 L3.605,5.27555 C3.605,5.3335399 3.5579899,5.38055 3.5,5.38055 C3.4420101,5.38055 3.395,5.3335399 3.395,5.27555 L3.39466712,2.60899668 C3.16882707,2.5606223 2.9995,2.35988538 2.9995,2.1196 C2.9995,1.84318148 3.22358148,1.6191 3.5,1.6191 Z M5.46770213,1.6571649 C5.65476914,1.73461224 5.77675,1.91713481 5.77675,2.1196 C5.77658195,2.36041928 5.60646117,2.56148761 5.37980636,2.60930703 L5.38108381,3.88502273 C5.38142522,3.88846888 5.3816,3.89196403 5.3816,3.8955 C5.3816,3.9534899 5.3345899,4.0005 5.2766,4.0005 L4.5909,4.00008545 L4.59095,5.27555 C4.59095,5.3335399 4.5439399,5.38055 4.48595,5.38055 C4.4279601,5.38055 4.38095,5.3335399 4.38095,5.27555 L4.38095,3.8955 C4.38095,3.8375101 4.4279601,3.7905 4.48595,3.7905 L5.1689,3.79008545 L5.16873828,2.60844061 C5.01125649,2.5738202 4.87743432,2.46441614 4.81394882,2.3113757 C4.73637064,2.12436292 4.77910486,1.90903156 4.92221929,1.76581699 C5.06533372,1.62260241 5.28063513,1.57971757 5.46770213,1.6571649 Z M1.7234,1.6191 C1.99981852,1.6191 2.2239,1.84318148 2.2239,2.1196 C2.2237327,2.35909338 2.05548521,2.55925102 1.83073604,2.60849439 L1.8299,3.79008545 L2.51405,3.7905 L2.51405,3.7905 C2.5720399,3.7905 2.61905,3.8375101 2.61905,3.8955 L2.61905,5.27555 C2.61905,5.3335399 2.5720399,5.38055 2.51405,5.38055 C2.4560601,5.38055 2.40905,5.3335399 2.40905,5.27555 L2.4089,4.00008545 L1.7234,4.0005 C1.6654101,4.0005 1.6184,3.9534899 1.6184,3.8955 L1.6199,3.88508545 L1.6201063,2.609429 C1.39324711,2.56182938 1.2229,2.36060804 1.2229,2.1196 C1.2229,1.84318148 1.44698148,1.6191 1.7234,1.6191 Z M3.5,1.82945 C3.38247189,1.82945 3.27652297,1.90026607 3.23157967,2.00886145 C3.18663638,2.11745684 3.21155454,2.24243348 3.29470955,2.3254883 C3.37786455,2.40854312 3.50287114,2.4333106 3.61141227,2.38823642 C3.7199534,2.34316224 3.7906416,2.23712803 3.79050021,2.1196 C3.7901145,1.95937793 3.66022242,1.82964234 3.5,1.82945 Z M5.2766,1.82944979 C5.15904014,1.82930845 5.05298381,1.90003457 5.00793018,2.00861869 C4.96287656,2.11720282 4.98770825,2.24223687 5.07083569,2.32536431 C5.15396313,2.40849175 5.27899718,2.43332344 5.38758131,2.38826982 C5.49616543,2.34321619 5.56689155,2.23715986 5.56675021,2.1196 C5.56655715,1.95943453 5.43676547,1.82964285 5.2766,1.82944979 Z M1.7234,1.82945 C1.60587189,1.82945 1.49992297,1.90026607 1.45497967,2.00886145 C1.41003638,2.11745684 1.43495454,2.24243348 1.51810955,2.3254883 C1.60126455,2.40854312 1.72627114,2.4333106 1.83481227,2.38823642 C1.9433534,2.34316224 2.0140416,2.23712803 2.01390021,2.1196 C2.01370686,1.95929798 1.88370214,1.82945 1.7234,1.82945 Z" id="形状结合" fill="#10253D"></path>
                    </g>
                </g>
                <g id="编组-3备份-2" transform="translate(7.500000, 46.000000) scale(-1, -1) translate(-7.500000, -46.000000) translate(0.000000, 42.000000)">
                    <path d="M0,1 L0,7 C6.76353751e-17,7.55228475 0.44771525,8 1,8 L8.27540249,8 C8.92254138,8 9.529685,7.68688 9.90490364,7.15962322 L13.875738,1.57981161 C14.1959591,1.1298373 14.0907733,0.505470538 13.640799,0.185249428 C13.4714737,0.0647502331 13.2688122,-1.03737751e-15 13.0609874,0 L1,0 C0.44771525,1.01453063e-16 -6.76353751e-17,0.44771525 0,1 Z" id="路径-8" fill="url(#linearGradient-3)"></path>
                    <g id="agora_黑科技" transform="translate(6.500000, 3.500000) rotate(90.000000) translate(-6.500000, -3.500000) translate(3.000000, 0.000000)" fill-rule="nonzero">
                        <rect id="矩形" fill="#000000" opacity="0" x="0" y="0" width="7" height="7"></rect>
                        <path d="M3.5,1.6191 C3.77641852,1.6191 4.0005,1.84318148 4.0005,2.1196 C4.00016492,2.35968192 3.83105536,2.56018691 3.60545013,2.60883613 L3.605,5.27555 C3.605,5.3335399 3.5579899,5.38055 3.5,5.38055 C3.4420101,5.38055 3.395,5.3335399 3.395,5.27555 L3.39466712,2.60899668 C3.16882707,2.5606223 2.9995,2.35988538 2.9995,2.1196 C2.9995,1.84318148 3.22358148,1.6191 3.5,1.6191 Z M5.46770213,1.6571649 C5.65476914,1.73461224 5.77675,1.91713481 5.77675,2.1196 C5.77658195,2.36041928 5.60646117,2.56148761 5.37980636,2.60930703 L5.38108381,3.88502273 C5.38142522,3.88846888 5.3816,3.89196403 5.3816,3.8955 C5.3816,3.9534899 5.3345899,4.0005 5.2766,4.0005 L4.5909,4.00008545 L4.59095,5.27555 C4.59095,5.3335399 4.5439399,5.38055 4.48595,5.38055 C4.4279601,5.38055 4.38095,5.3335399 4.38095,5.27555 L4.38095,3.8955 C4.38095,3.8375101 4.4279601,3.7905 4.48595,3.7905 L5.1689,3.79008545 L5.16873828,2.60844061 C5.01125649,2.5738202 4.87743432,2.46441614 4.81394882,2.3113757 C4.73637064,2.12436292 4.77910486,1.90903156 4.92221929,1.76581699 C5.06533372,1.62260241 5.28063513,1.57971757 5.46770213,1.6571649 Z M1.7234,1.6191 C1.99981852,1.6191 2.2239,1.84318148 2.2239,2.1196 C2.2237327,2.35909338 2.05548521,2.55925102 1.83073604,2.60849439 L1.8299,3.79008545 L2.51405,3.7905 L2.51405,3.7905 C2.5720399,3.7905 2.61905,3.8375101 2.61905,3.8955 L2.61905,5.27555 C2.61905,5.3335399 2.5720399,5.38055 2.51405,5.38055 C2.4560601,5.38055 2.40905,5.3335399 2.40905,5.27555 L2.4089,4.00008545 L1.7234,4.0005 C1.6654101,4.0005 1.6184,3.9534899 1.6184,3.8955 L1.6199,3.88508545 L1.6201063,2.609429 C1.39324711,2.56182938 1.2229,2.36060804 1.2229,2.1196 C1.2229,1.84318148 1.44698148,1.6191 1.7234,1.6191 Z M3.5,1.82945 C3.38247189,1.82945 3.27652297,1.90026607 3.23157967,2.00886145 C3.18663638,2.11745684 3.21155454,2.24243348 3.29470955,2.3254883 C3.37786455,2.40854312 3.50287114,2.4333106 3.61141227,2.38823642 C3.7199534,2.34316224 3.7906416,2.23712803 3.79050021,2.1196 C3.7901145,1.95937793 3.66022242,1.82964234 3.5,1.82945 Z M5.2766,1.82944979 C5.15904014,1.82930845 5.05298381,1.90003457 5.00793018,2.00861869 C4.96287656,2.11720282 4.98770825,2.24223687 5.07083569,2.32536431 C5.15396313,2.40849175 5.27899718,2.43332344 5.38758131,2.38826982 C5.49616543,2.34321619 5.56689155,2.23715986 5.56675021,2.1196 C5.56655715,1.95943453 5.43676547,1.82964285 5.2766,1.82944979 Z M1.7234,1.82945 C1.60587189,1.82945 1.49992297,1.90026607 1.45497967,2.00886145 C1.41003638,2.11745684 1.43495454,2.24243348 1.51810955,2.3254883 C1.60126455,2.40854312 1.72627114,2.4333106 1.83481227,2.38823642 C1.9433534,2.34316224 2.0140416,2.23712803 2.01390021,2.1196 C2.01370686,1.95929798 1.88370214,1.82945 1.7234,1.82945 Z" id="形状结合" fill="#10253D"></path>
                    </g>
                </g>
            </g>
            <g id="编组-4备份" transform="translate(262.000000, 7.000000)">
                <g id="编组-3" transform="translate(187.000000, 0.000000)">
                    <path d="M0,1 L0,7 C6.76353751e-17,7.55228475 0.44771525,8 1,8 L8.27540249,8 C8.92254138,8 9.529685,7.68688 9.90490364,7.15962322 L13.875738,1.57981161 C14.1959591,1.1298373 14.0907733,0.505470538 13.640799,0.185249428 C13.4714737,0.0647502331 13.2688122,-1.03737751e-15 13.0609874,0 L1,0 C0.44771525,1.01453063e-16 -6.76353751e-17,0.44771525 0,1 Z" id="路径-8" fill="url(#linearGradient-3)"></path>
                    <g id="agora_黑科技" transform="translate(6.500000, 3.500000) rotate(90.000000) translate(-6.500000, -3.500000) translate(3.000000, 0.000000)" fill-rule="nonzero">
                        <rect id="矩形" fill="#000000" opacity="0" x="0" y="0" width="7" height="7"></rect>
                        <path d="M3.5,1.6191 C3.77641852,1.6191 4.0005,1.84318148 4.0005,2.1196 C4.00016492,2.35968192 3.83105536,2.56018691 3.60545013,2.60883613 L3.605,5.27555 C3.605,5.3335399 3.5579899,5.38055 3.5,5.38055 C3.4420101,5.38055 3.395,5.3335399 3.395,5.27555 L3.39466712,2.60899668 C3.16882707,2.5606223 2.9995,2.35988538 2.9995,2.1196 C2.9995,1.84318148 3.22358148,1.6191 3.5,1.6191 Z M5.46770213,1.6571649 C5.65476914,1.73461224 5.77675,1.91713481 5.77675,2.1196 C5.77658195,2.36041928 5.60646117,2.56148761 5.37980636,2.60930703 L5.38108381,3.88502273 C5.38142522,3.88846888 5.3816,3.89196403 5.3816,3.8955 C5.3816,3.9534899 5.3345899,4.0005 5.2766,4.0005 L4.5909,4.00008545 L4.59095,5.27555 C4.59095,5.3335399 4.5439399,5.38055 4.48595,5.38055 C4.4279601,5.38055 4.38095,5.3335399 4.38095,5.27555 L4.38095,3.8955 C4.38095,3.8375101 4.4279601,3.7905 4.48595,3.7905 L5.1689,3.79008545 L5.16873828,2.60844061 C5.01125649,2.5738202 4.87743432,2.46441614 4.81394882,2.3113757 C4.73637064,2.12436292 4.77910486,1.90903156 4.92221929,1.76581699 C5.06533372,1.62260241 5.28063513,1.57971757 5.46770213,1.6571649 Z M1.7234,1.6191 C1.99981852,1.6191 2.2239,1.84318148 2.2239,2.1196 C2.2237327,2.35909338 2.05548521,2.55925102 1.83073604,2.60849439 L1.8299,3.79008545 L2.51405,3.7905 L2.51405,3.7905 C2.5720399,3.7905 2.61905,3.8375101 2.61905,3.8955 L2.61905,5.27555 C2.61905,5.3335399 2.5720399,5.38055 2.51405,5.38055 C2.4560601,5.38055 2.40905,5.3335399 2.40905,5.27555 L2.4089,4.00008545 L1.7234,4.0005 C1.6654101,4.0005 1.6184,3.9534899 1.6184,3.8955 L1.6199,3.88508545 L1.6201063,2.609429 C1.39324711,2.56182938 1.2229,2.36060804 1.2229,2.1196 C1.2229,1.84318148 1.44698148,1.6191 1.7234,1.6191 Z M3.5,1.82945 C3.38247189,1.82945 3.27652297,1.90026607 3.23157967,2.00886145 C3.18663638,2.11745684 3.21155454,2.24243348 3.29470955,2.3254883 C3.37786455,2.40854312 3.50287114,2.4333106 3.61141227,2.38823642 C3.7199534,2.34316224 3.7906416,2.23712803 3.79050021,2.1196 C3.7901145,1.95937793 3.66022242,1.82964234 3.5,1.82945 Z M5.2766,1.82944979 C5.15904014,1.82930845 5.05298381,1.90003457 5.00793018,2.00861869 C4.96287656,2.11720282 4.98770825,2.24223687 5.07083569,2.32536431 C5.15396313,2.40849175 5.27899718,2.43332344 5.38758131,2.38826982 C5.49616543,2.34321619 5.56689155,2.23715986 5.56675021,2.1196 C5.56655715,1.95943453 5.43676547,1.82964285 5.2766,1.82944979 Z M1.7234,1.82945 C1.60587189,1.82945 1.49992297,1.90026607 1.45497967,2.00886145 C1.41003638,2.11745684 1.43495454,2.24243348 1.51810955,2.3254883 C1.60126455,2.40854312 1.72627114,2.4333106 1.83481227,2.38823642 C1.9433534,2.34316224 2.0140416,2.23712803 2.01390021,2.1196 C2.01370686,1.95929798 1.88370214,1.82945 1.7234,1.82945 Z" id="形状结合" fill="#10253D"></path>
                    </g>
                </g>
                <g id="编组-3备份" transform="translate(7.500000, 4.000000) scale(-1, 1) translate(-7.500000, -4.000000) ">
                    <path d="M0,1 L0,7 C6.76353751e-17,7.55228475 0.44771525,8 1,8 L8.27540249,8 C8.92254138,8 9.529685,7.68688 9.90490364,7.15962322 L13.875738,1.57981161 C14.1959591,1.1298373 14.0907733,0.505470538 13.640799,0.185249428 C13.4714737,0.0647502331 13.2688122,-1.03737751e-15 13.0609874,0 L1,0 C0.44771525,1.01453063e-16 -6.76353751e-17,0.44771525 0,1 Z" id="路径-8" fill="url(#linearGradient-3)"></path>
                    <g id="agora_黑科技" transform="translate(6.500000, 3.500000) rotate(90.000000) translate(-6.500000, -3.500000) translate(3.000000, 0.000000)" fill-rule="nonzero">
                        <rect id="矩形" fill="#000000" opacity="0" x="0" y="0" width="7" height="7"></rect>
                        <path d="M3.5,1.6191 C3.77641852,1.6191 4.0005,1.84318148 4.0005,2.1196 C4.00016492,2.35968192 3.83105536,2.56018691 3.60545013,2.60883613 L3.605,5.27555 C3.605,5.3335399 3.5579899,5.38055 3.5,5.38055 C3.4420101,5.38055 3.395,5.3335399 3.395,5.27555 L3.39466712,2.60899668 C3.16882707,2.5606223 2.9995,2.35988538 2.9995,2.1196 C2.9995,1.84318148 3.22358148,1.6191 3.5,1.6191 Z M5.46770213,1.6571649 C5.65476914,1.73461224 5.77675,1.91713481 5.77675,2.1196 C5.77658195,2.36041928 5.60646117,2.56148761 5.37980636,2.60930703 L5.38108381,3.88502273 C5.38142522,3.88846888 5.3816,3.89196403 5.3816,3.8955 C5.3816,3.9534899 5.3345899,4.0005 5.2766,4.0005 L4.5909,4.00008545 L4.59095,5.27555 C4.59095,5.3335399 4.5439399,5.38055 4.48595,5.38055 C4.4279601,5.38055 4.38095,5.3335399 4.38095,5.27555 L4.38095,3.8955 C4.38095,3.8375101 4.4279601,3.7905 4.48595,3.7905 L5.1689,3.79008545 L5.16873828,2.60844061 C5.01125649,2.5738202 4.87743432,2.46441614 4.81394882,2.3113757 C4.73637064,2.12436292 4.77910486,1.90903156 4.92221929,1.76581699 C5.06533372,1.62260241 5.28063513,1.57971757 5.46770213,1.6571649 Z M1.7234,1.6191 C1.99981852,1.6191 2.2239,1.84318148 2.2239,2.1196 C2.2237327,2.35909338 2.05548521,2.55925102 1.83073604,2.60849439 L1.8299,3.79008545 L2.51405,3.7905 L2.51405,3.7905 C2.5720399,3.7905 2.61905,3.8375101 2.61905,3.8955 L2.61905,5.27555 C2.61905,5.3335399 2.5720399,5.38055 2.51405,5.38055 C2.4560601,5.38055 2.40905,5.3335399 2.40905,5.27555 L2.4089,4.00008545 L1.7234,4.0005 C1.6654101,4.0005 1.6184,3.9534899 1.6184,3.8955 L1.6199,3.88508545 L1.6201063,2.609429 C1.39324711,2.56182938 1.2229,2.36060804 1.2229,2.1196 C1.2229,1.84318148 1.44698148,1.6191 1.7234,1.6191 Z M3.5,1.82945 C3.38247189,1.82945 3.27652297,1.90026607 3.23157967,2.00886145 C3.18663638,2.11745684 3.21155454,2.24243348 3.29470955,2.3254883 C3.37786455,2.40854312 3.50287114,2.4333106 3.61141227,2.38823642 C3.7199534,2.34316224 3.7906416,2.23712803 3.79050021,2.1196 C3.7901145,1.95937793 3.66022242,1.82964234 3.5,1.82945 Z M5.2766,1.82944979 C5.15904014,1.82930845 5.05298381,1.90003457 5.00793018,2.00861869 C4.96287656,2.11720282 4.98770825,2.24223687 5.07083569,2.32536431 C5.15396313,2.40849175 5.27899718,2.43332344 5.38758131,2.38826982 C5.49616543,2.34321619 5.56689155,2.23715986 5.56675021,2.1196 C5.56655715,1.95943453 5.43676547,1.82964285 5.2766,1.82944979 Z M1.7234,1.82945 C1.60587189,1.82945 1.49992297,1.90026607 1.45497967,2.00886145 C1.41003638,2.11745684 1.43495454,2.24243348 1.51810955,2.3254883 C1.60126455,2.40854312 1.72627114,2.4333106 1.83481227,2.38823642 C1.9433534,2.34316224 2.0140416,2.23712803 2.01390021,2.1196 C2.01370686,1.95929798 1.88370214,1.82945 1.7234,1.82945 Z" id="形状结合" fill="#10253D"></path>
                    </g>
                </g>
                <g id="编组-3备份-3" transform="translate(194.500000, 46.000000) scale(1, -1) translate(-194.500000, -46.000000) translate(187.000000, 42.000000)">
                    <path d="M0,1 L0,7 C6.76353751e-17,7.55228475 0.44771525,8 1,8 L8.27540249,8 C8.92254138,8 9.529685,7.68688 9.90490364,7.15962322 L13.875738,1.57981161 C14.1959591,1.1298373 14.0907733,0.505470538 13.640799,0.185249428 C13.4714737,0.0647502331 13.2688122,-1.03737751e-15 13.0609874,0 L1,0 C0.44771525,1.01453063e-16 -6.76353751e-17,0.44771525 0,1 Z" id="路径-8" fill="url(#linearGradient-3)"></path>
                    <g id="agora_黑科技" transform="translate(6.500000, 3.500000) rotate(90.000000) translate(-6.500000, -3.500000) translate(3.000000, 0.000000)" fill-rule="nonzero">
                        <rect id="矩形" fill="#000000" opacity="0" x="0" y="0" width="7" height="7"></rect>
                        <path d="M3.5,1.6191 C3.77641852,1.6191 4.0005,1.84318148 4.0005,2.1196 C4.00016492,2.35968192 3.83105536,2.56018691 3.60545013,2.60883613 L3.605,5.27555 C3.605,5.3335399 3.5579899,5.38055 3.5,5.38055 C3.4420101,5.38055 3.395,5.3335399 3.395,5.27555 L3.39466712,2.60899668 C3.16882707,2.5606223 2.9995,2.35988538 2.9995,2.1196 C2.9995,1.84318148 3.22358148,1.6191 3.5,1.6191 Z M5.46770213,1.6571649 C5.65476914,1.73461224 5.77675,1.91713481 5.77675,2.1196 C5.77658195,2.36041928 5.60646117,2.56148761 5.37980636,2.60930703 L5.38108381,3.88502273 C5.38142522,3.88846888 5.3816,3.89196403 5.3816,3.8955 C5.3816,3.9534899 5.3345899,4.0005 5.2766,4.0005 L4.5909,4.00008545 L4.59095,5.27555 C4.59095,5.3335399 4.5439399,5.38055 4.48595,5.38055 C4.4279601,5.38055 4.38095,5.3335399 4.38095,5.27555 L4.38095,3.8955 C4.38095,3.8375101 4.4279601,3.7905 4.48595,3.7905 L5.1689,3.79008545 L5.16873828,2.60844061 C5.01125649,2.5738202 4.87743432,2.46441614 4.81394882,2.3113757 C4.73637064,2.12436292 4.77910486,1.90903156 4.92221929,1.76581699 C5.06533372,1.62260241 5.28063513,1.57971757 5.46770213,1.6571649 Z M1.7234,1.6191 C1.99981852,1.6191 2.2239,1.84318148 2.2239,2.1196 C2.2237327,2.35909338 2.05548521,2.55925102 1.83073604,2.60849439 L1.8299,3.79008545 L2.51405,3.7905 L2.51405,3.7905 C2.5720399,3.7905 2.61905,3.8375101 2.61905,3.8955 L2.61905,5.27555 C2.61905,5.3335399 2.5720399,5.38055 2.51405,5.38055 C2.4560601,5.38055 2.40905,5.3335399 2.40905,5.27555 L2.4089,4.00008545 L1.7234,4.0005 C1.6654101,4.0005 1.6184,3.9534899 1.6184,3.8955 L1.6199,3.88508545 L1.6201063,2.609429 C1.39324711,2.56182938 1.2229,2.36060804 1.2229,2.1196 C1.2229,1.84318148 1.44698148,1.6191 1.7234,1.6191 Z M3.5,1.82945 C3.38247189,1.82945 3.27652297,1.90026607 3.23157967,2.00886145 C3.18663638,2.11745684 3.21155454,2.24243348 3.29470955,2.3254883 C3.37786455,2.40854312 3.50287114,2.4333106 3.61141227,2.38823642 C3.7199534,2.34316224 3.7906416,2.23712803 3.79050021,2.1196 C3.7901145,1.95937793 3.66022242,1.82964234 3.5,1.82945 Z M5.2766,1.82944979 C5.15904014,1.82930845 5.05298381,1.90003457 5.00793018,2.00861869 C4.96287656,2.11720282 4.98770825,2.24223687 5.07083569,2.32536431 C5.15396313,2.40849175 5.27899718,2.43332344 5.38758131,2.38826982 C5.49616543,2.34321619 5.56689155,2.23715986 5.56675021,2.1196 C5.56655715,1.95943453 5.43676547,1.82964285 5.2766,1.82944979 Z M1.7234,1.82945 C1.60587189,1.82945 1.49992297,1.90026607 1.45497967,2.00886145 C1.41003638,2.11745684 1.43495454,2.24243348 1.51810955,2.3254883 C1.60126455,2.40854312 1.72627114,2.4333106 1.83481227,2.38823642 C1.9433534,2.34316224 2.0140416,2.23712803 2.01390021,2.1196 C2.01370686,1.95929798 1.88370214,1.82945 1.7234,1.82945 Z" id="形状结合" fill="#10253D"></path>
                    </g>
                </g>
                <g id="编组-3备份-2" transform="translate(7.500000, 46.000000) scale(-1, -1) translate(-7.500000, -46.000000) translate(0.000000, 42.000000)">
                    <path d="M0,1 L0,7 C6.76353751e-17,7.55228475 0.44771525,8 1,8 L8.27540249,8 C8.92254138,8 9.529685,7.68688 9.90490364,7.15962322 L13.875738,1.57981161 C14.1959591,1.1298373 14.0907733,0.505470538 13.640799,0.185249428 C13.4714737,0.0647502331 13.2688122,-1.03737751e-15 13.0609874,0 L1,0 C0.44771525,1.01453063e-16 -6.76353751e-17,0.44771525 0,1 Z" id="路径-8" fill="url(#linearGradient-3)"></path>
                    <g id="agora_黑科技" transform="translate(6.500000, 3.500000) rotate(90.000000) translate(-6.500000, -3.500000) translate(3.000000, 0.000000)" fill-rule="nonzero">
                        <rect id="矩形" fill="#000000" opacity="0" x="0" y="0" width="7" height="7"></rect>
                        <path d="M3.5,1.6191 C3.77641852,1.6191 4.0005,1.84318148 4.0005,2.1196 C4.00016492,2.35968192 3.83105536,2.56018691 3.60545013,2.60883613 L3.605,5.27555 C3.605,5.3335399 3.5579899,5.38055 3.5,5.38055 C3.4420101,5.38055 3.395,5.3335399 3.395,5.27555 L3.39466712,2.60899668 C3.16882707,2.5606223 2.9995,2.35988538 2.9995,2.1196 C2.9995,1.84318148 3.22358148,1.6191 3.5,1.6191 Z M5.46770213,1.6571649 C5.65476914,1.73461224 5.77675,1.91713481 5.77675,2.1196 C5.77658195,2.36041928 5.60646117,2.56148761 5.37980636,2.60930703 L5.38108381,3.88502273 C5.38142522,3.88846888 5.3816,3.89196403 5.3816,3.8955 C5.3816,3.9534899 5.3345899,4.0005 5.2766,4.0005 L4.5909,4.00008545 L4.59095,5.27555 C4.59095,5.3335399 4.5439399,5.38055 4.48595,5.38055 C4.4279601,5.38055 4.38095,5.3335399 4.38095,5.27555 L4.38095,3.8955 C4.38095,3.8375101 4.4279601,3.7905 4.48595,3.7905 L5.1689,3.79008545 L5.16873828,2.60844061 C5.01125649,2.5738202 4.87743432,2.46441614 4.81394882,2.3113757 C4.73637064,2.12436292 4.77910486,1.90903156 4.92221929,1.76581699 C5.06533372,1.62260241 5.28063513,1.57971757 5.46770213,1.6571649 Z M1.7234,1.6191 C1.99981852,1.6191 2.2239,1.84318148 2.2239,2.1196 C2.2237327,2.35909338 2.05548521,2.55925102 1.83073604,2.60849439 L1.8299,3.79008545 L2.51405,3.7905 L2.51405,3.7905 C2.5720399,3.7905 2.61905,3.8375101 2.61905,3.8955 L2.61905,5.27555 C2.61905,5.3335399 2.5720399,5.38055 2.51405,5.38055 C2.4560601,5.38055 2.40905,5.3335399 2.40905,5.27555 L2.4089,4.00008545 L1.7234,4.0005 C1.6654101,4.0005 1.6184,3.9534899 1.6184,3.8955 L1.6199,3.88508545 L1.6201063,2.609429 C1.39324711,2.56182938 1.2229,2.36060804 1.2229,2.1196 C1.2229,1.84318148 1.44698148,1.6191 1.7234,1.6191 Z M3.5,1.82945 C3.38247189,1.82945 3.27652297,1.90026607 3.23157967,2.00886145 C3.18663638,2.11745684 3.21155454,2.24243348 3.29470955,2.3254883 C3.37786455,2.40854312 3.50287114,2.4333106 3.61141227,2.38823642 C3.7199534,2.34316224 3.7906416,2.23712803 3.79050021,2.1196 C3.7901145,1.95937793 3.66022242,1.82964234 3.5,1.82945 Z M5.2766,1.82944979 C5.15904014,1.82930845 5.05298381,1.90003457 5.00793018,2.00861869 C4.96287656,2.11720282 4.98770825,2.24223687 5.07083569,2.32536431 C5.15396313,2.40849175 5.27899718,2.43332344 5.38758131,2.38826982 C5.49616543,2.34321619 5.56689155,2.23715986 5.56675021,2.1196 C5.56655715,1.95943453 5.43676547,1.82964285 5.2766,1.82944979 Z M1.7234,1.82945 C1.60587189,1.82945 1.49992297,1.90026607 1.45497967,2.00886145 C1.41003638,2.11745684 1.43495454,2.24243348 1.51810955,2.3254883 C1.60126455,2.40854312 1.72627114,2.4333106 1.83481227,2.38823642 C1.9433534,2.34316224 2.0140416,2.23712803 2.01390021,2.1196 C2.01370686,1.95929798 1.88370214,1.82945 1.7234,1.82945 Z" id="形状结合" fill="#10253D"></path>
                    </g>
                </g>
            </g>
            <polygon id="矩形" fill="url(#linearGradient-4)" opacity="0.5" transform="translate(619.459449, 32.033905) scale(1, -1) translate(-619.459449, -32.033905) " points="516 5.22188955 722.918898 5 722.918898 59.0678092 516 59.0678092 531.797367 34 531.797367 30.0678092"></polygon>
            <polygon id="矩形" fill="url(#linearGradient-4)" opacity="0.5" transform="translate(877.459449, 32.033905) scale(1, -1) translate(-877.459449, -32.033905) " points="774 5.22188955 980.918898 5 980.918898 59.0678092 774 59.0678092 789.797367 34 789.797367 30.0678092"></polygon>
            <polygon id="矩形" fill="url(#linearGradient-4)" opacity="0.5" transform="translate(1134.459449, 32.033905) scale(1, -1) translate(-1134.459449, -32.033905) " points="1031 5.22188955 1237.9189 5 1237.9189 59.0678092 1031 59.0678092 1046.79737 34 1046.79737 30.0678092"></polygon>
            <polygon id="矩形" fill="url(#linearGradient-4)" opacity="0.5" transform="translate(362.459449, 32.033905) scale(1, -1) translate(-362.459449, -32.033905) " points="259 5.22188955 465.918898 5 465.918898 59.0678092 259 59.0678092 274.797367 34 274.797367 30.0678092"></polygon>
            <polygon id="矩形" fill="url(#linearGradient-4)" opacity="0.5" transform="translate(106.459449, 32.033905) scale(1, -1) translate(-106.459449, -32.033905) " points="3 5.22188955 209.918898 5 209.918898 59.0678092 3 59.0678092 18.7973674 34 18.7973674 30.0678092"></polygon>
            <polygon id="矩形备份-13" fill="url(#linearGradient-4)" opacity="0.5" transform="translate(1390.459449, 32.033905) scale(1, -1) translate(-1390.459449, -32.033905) " points="1287 5.22188955 1493.9189 5 1493.9189 59.0678092 1287 59.0678092 1302.79737 34 1302.79737 30.0678092"></polygon>
            <text id="能力调用次数" font-family="PangMenZhengDao" font-size="28" font-weight="normal" fill="#00FCFF">
                <tspan x="541" y="42">能力调用次数</tspan>
            </text>
            <text id="资源总量" font-family="PangMenZhengDao" font-size="32" font-weight="normal" fill="#00FCFF">
                <tspan x="1074" y="43">资源总量</tspan>
            </text>
            <text id="用户访问量" font-family="PangMenZhengDao" font-size="32" font-weight="normal" fill="#00FCFF">
                <tspan x="803" y="43">用户访问量</tspan>
            </text>
            <text id="资源种类" font-family="PangMenZhengDao" font-size="32" font-weight="normal" fill="#00FCFF">
                <tspan x="51" y="43">资源种类</tspan>
            </text>
            <text id="资源种类" font-family="PangMenZhengDao" font-size="32" font-weight="normal" fill="#00FCFF">
                <tspan x="1331" y="42">资源种类</tspan>
            </text>
            <text id="开放能力数" font-family="PangMenZhengDao" font-size="28" font-weight="normal" fill="#00FCFF">
                <tspan x="296" y="42">开放能力数</tspan>
            </text>
            <rect id="矩形" fill="url(#linearGradient-5)" x="770" y="0" width="214" height="1"></rect>
            <rect id="矩形备份-4" fill="url(#linearGradient-5)" x="770" y="63" width="214" height="1"></rect>
            <rect id="矩形备份-12" fill="url(#linearGradient-5)" x="1027" y="0" width="214" height="1"></rect>
            <rect id="矩形备份-11" fill="url(#linearGradient-5)" x="1027" y="63" width="214" height="1"></rect>
            <rect id="矩形备份-16" fill="url(#linearGradient-5)" x="1283" y="0" width="214" height="1"></rect>
            <rect id="矩形备份-15" fill="url(#linearGradient-5)" x="1283" y="63" width="214" height="1"></rect>
            <rect id="矩形备份-6" fill="url(#linearGradient-5)" x="514" y="0" width="214" height="1"></rect>
            <rect id="矩形备份-5" fill="url(#linearGradient-5)" x="514" y="63" width="214" height="1"></rect>
            <rect id="矩形备份-8" fill="url(#linearGradient-5)" x="255" y="0" width="214" height="1"></rect>
            <rect id="矩形备份-7" fill="url(#linearGradient-5)" x="255" y="63" width="214" height="1"></rect>
            <rect id="矩形备份-10" fill="url(#linearGradient-5)" x="0" y="0" width="214" height="1"></rect>
            <rect id="矩形备份-9" fill="url(#linearGradient-5)" x="0" y="63" width="214" height="1"></rect>
        </g>
    </g>
</svg>