<?xml version="1.0" encoding="UTF-8"?>
<svg width="1280px" height="64px" viewBox="0 0 1280 64" version="1.1" xmlns="http://www.w3.org/2000/svg" xmlns:xlink="http://www.w3.org/1999/xlink">
    <title>飞船-指标5</title>
    <defs>
        <linearGradient x1="50%" y1="100%" x2="50%" y2="-3.55022755%" id="linearGradient-1">
            <stop stop-color="#155880" offset="0%"></stop>
            <stop stop-color="#51C9FF" offset="21.8947484%"></stop>
            <stop stop-color="#51C9FF" offset="74.1335152%"></stop>
            <stop stop-color="#0D1C2B" offset="100%"></stop>
        </linearGradient>
        <linearGradient x1="50%" y1="100%" x2="50%" y2="-4.1116981%" id="linearGradient-2">
            <stop stop-color="#155880" offset="0%"></stop>
            <stop stop-color="#51C9FF" offset="21.8947484%"></stop>
            <stop stop-color="#51C9FF" offset="74.1335152%"></stop>
            <stop stop-color="#0D1C2B" offset="100%"></stop>
        </linearGradient>
        <linearGradient x1="84.1192128%" y1="50%" x2="10.9950024%" y2="50%" id="linearGradient-3">
            <stop stop-color="#00F9FF" offset="0%"></stop>
            <stop stop-color="#AEEBF9" stop-opacity="0" offset="100%"></stop>
        </linearGradient>
        <linearGradient x1="92.2883159%" y1="50%" x2="8.67595%" y2="50%" id="linearGradient-4">
            <stop stop-color="#348AFF" stop-opacity="0" offset="0%"></stop>
            <stop stop-color="#2C89FF" stop-opacity="0.597802222" offset="21.163036%"></stop>
            <stop stop-color="#2287FF" stop-opacity="0.79802229" offset="50.6715308%"></stop>
            <stop stop-color="#1886FF" stop-opacity="0.59639628" offset="80.0750045%"></stop>
            <stop stop-color="#0083FF" stop-opacity="0" offset="100%"></stop>
        </linearGradient>
        <linearGradient x1="100%" y1="50%" x2="0%" y2="50%" id="linearGradient-5">
            <stop stop-color="#EEEEEE" stop-opacity="0" offset="0%"></stop>
            <stop stop-color="#00FFF0" offset="47.680504%"></stop>
            <stop stop-color="#D8D8D8" stop-opacity="0" offset="100%"></stop>
        </linearGradient>
    </defs>
    <g id="飞船-指标5" stroke="none" stroke-width="1" fill="none" fill-rule="evenodd">
        <rect fill="#0E1F33" x="0" y="0" width="1280" height="64"></rect>
        <polygon id="矩形" stroke="#306693" stroke-width="0.5" fill="#0D1826" points="0 0 102.296614 0 108.442496 4 140.5 4 146.298012 0 359.375008 0 365.121349 4 397.161158 4 404.730601 0 617.633262 0 622.081931 4 655.137582 4 660.270147 0 873.166488 0 877.061277 4 913.028386 4 917.719983 0 1127.3521 0 1133.41249 4 1170.1001 4 1174.88037 0 1382.94227 0 1387.64151 4 1427.02685 4 1432.45265 0 1536 0 1536 64 1432.45265 64 1427.02685 60 1388.43997 60 1382.94227 64 1174.88037 64 1170.76666 60 1133.73291 60 1128.19656 64 917.100785 64 913.028386 60 877.061277 60 873.166488 64 660.641021 64 655.137582 60 622.198187 60 616.888224 64 404.292782 64 398.084712 60 365.121349 60 359.013395 64 145.845161 64 140.5 60 108.099132 60 103.380845 64 0 64"></polygon>
        <polygon id="矩形" stroke="#45C2FF" stroke-width="0.5" fill="#0D1C2B" points="0 5 1537 5 1537 59 0 59"></polygon>
        <path d="M625.456309,17 L650.774991,17 L650.774991,21.7912088 L632.6651,21.7912088 L625.456309,29 L625.456309,17 Z M633.566199,24.4945055 L633.566199,26.956044 L645.390375,26.956044 L650.313452,31.8571429 L642.687078,39.4835165 L642.687078,31.7472527 L626.313452,31.7472527 L633.566199,24.4945055 Z M650.774991,35 L650.774991,41.6153846 L645.368397,47 L625.456309,47 L625.456309,42.2087912 L643.566199,42.2087912 L650.774991,35 Z" id="形状" stroke="#A5E7FD" fill-rule="nonzero"></path>
        <path d="M167.439967,38 L154.614506,57.2830339 C153.872996,58.3978923 152.622859,59.0678092 151.283924,59.0678092 L151.283924,59.0678092 L144,59.0678092 L156.197026,39.8560799 C156.930841,38.7002358 158.204839,38 159.573949,38 L159.573949,38 L167.439967,38 Z M88.8660181,38 C90.2351274,38 91.5091255,38.7002358 92.2429408,39.8560799 L104.439967,59.0678092 L97.1560428,59.0678092 C95.8171077,59.0678092 94.5669708,58.3978923 93.8254603,57.2830339 L81,38 L88.8660181,38 Z M151.283924,5 C152.622859,5 153.872996,5.66991691 154.614506,6.78477529 L167.439967,26.0678092 L159.573949,26.0678092 C158.204839,26.0678092 156.930841,25.3675733 156.197026,24.2117293 L144,5 L151.283924,5 Z M104.439967,5 L92.2429408,24.2117293 C91.5091255,25.3675733 90.2351274,26.0678092 88.8660181,26.0678092 L88.8660181,26.0678092 L81,26.0678092 L93.8254603,6.78477529 C94.5669708,5.66991691 95.8171077,5 97.1560428,5 L97.1560428,5 L104.439967,5 Z" id="形状结合" stroke="#45C2FF" stroke-width="0.5" fill="#0D1E2D"></path>
        <path d="M424.439967,38 L411.614506,57.2830339 C410.872996,58.3978923 409.622859,59.0678092 408.283924,59.0678092 L408.283924,59.0678092 L401,59.0678092 L413.197026,39.8560799 C413.930841,38.7002358 415.204839,38 416.573949,38 L416.573949,38 L424.439967,38 Z M345.866018,38 C347.235127,38 348.509126,38.7002358 349.242941,39.8560799 L361.439967,59.0678092 L354.156043,59.0678092 C352.817108,59.0678092 351.566971,58.3978923 350.82546,57.2830339 L338,38 L345.866018,38 Z M408.283924,5 C409.622859,5 410.872996,5.66991691 411.614506,6.78477529 L424.439967,26.0678092 L416.573949,26.0678092 C415.204839,26.0678092 413.930841,25.3675733 413.197026,24.2117293 L401,5 L408.283924,5 Z M361.439967,5 L349.242941,24.2117293 C348.509126,25.3675733 347.235127,26.0678092 345.866018,26.0678092 L345.866018,26.0678092 L338,26.0678092 L350.82546,6.78477529 C351.566971,5.66991691 352.817108,5 354.156043,5 L354.156043,5 L361.439967,5 Z" id="形状结合" stroke="#45C2FF" stroke-width="0.5" fill="#0D1E2D"></path>
        <path d="M681.439967,38 L668.614506,57.2830339 C667.872996,58.3978923 666.622859,59.0678092 665.283924,59.0678092 L665.283924,59.0678092 L658,59.0678092 L670.197026,39.8560799 C670.930841,38.7002358 672.204839,38 673.573949,38 L673.573949,38 L681.439967,38 Z M602.866018,38 C604.235127,38 605.509126,38.7002358 606.242941,39.8560799 L618.439967,59.0678092 L611.156043,59.0678092 C609.817108,59.0678092 608.566971,58.3978923 607.82546,57.2830339 L595,38 L602.866018,38 Z M665.283924,5 C666.622859,5 667.872996,5.66991691 668.614506,6.78477529 L681.439967,26.0678092 L673.573949,26.0678092 C672.204839,26.0678092 670.930841,25.3675733 670.197026,24.2117293 L658,5 L665.283924,5 Z M618.439967,5 L606.242941,24.2117293 C605.509126,25.3675733 604.235127,26.0678092 602.866018,26.0678092 L602.866018,26.0678092 L595,26.0678092 L607.82546,6.78477529 C608.566971,5.66991691 609.817108,5 611.156043,5 L611.156043,5 L618.439967,5 Z" id="形状结合" stroke="#45C2FF" stroke-width="0.5" fill="#0D1E2D"></path>
        <path d="M938.439967,38 L925.614506,57.2830339 C924.872996,58.3978923 923.622859,59.0678092 922.283924,59.0678092 L922.283924,59.0678092 L915,59.0678092 L927.197026,39.8560799 C927.930841,38.7002358 929.204839,38 930.573949,38 L930.573949,38 L938.439967,38 Z M859.866018,38 C861.235127,38 862.509126,38.7002358 863.242941,39.8560799 L875.439967,59.0678092 L868.156043,59.0678092 C866.817108,59.0678092 865.566971,58.3978923 864.82546,57.2830339 L852,38 L859.866018,38 Z M922.283924,5 C923.622859,5 924.872996,5.66991691 925.614506,6.78477529 L938.439967,26.0678092 L930.573949,26.0678092 C929.204839,26.0678092 927.930841,25.3675733 927.197026,24.2117293 L915,5 L922.283924,5 Z M875.439967,5 L863.242941,24.2117293 C862.509126,25.3675733 861.235127,26.0678092 859.866018,26.0678092 L859.866018,26.0678092 L852,26.0678092 L864.82546,6.78477529 C865.566971,5.66991691 866.817108,5 868.156043,5 L868.156043,5 L875.439967,5 Z" id="形状结合" stroke="#45C2FF" stroke-width="0.5" fill="#0D1E2D"></path>
        <path d="M1195.43997,38 L1182.61451,57.2830339 C1181.873,58.3978923 1180.62286,59.0678092 1179.28392,59.0678092 L1179.28392,59.0678092 L1172,59.0678092 L1184.19703,39.8560799 C1184.93084,38.7002358 1186.20484,38 1187.57395,38 L1187.57395,38 L1195.43997,38 Z M1116.86602,38 C1118.23513,38 1119.50913,38.7002358 1120.24294,39.8560799 L1132.43997,59.0678092 L1125.15604,59.0678092 C1123.81711,59.0678092 1122.56697,58.3978923 1121.82546,57.2830339 L1109,38 L1116.86602,38 Z M1179.28392,5 C1180.62286,5 1181.873,5.66991691 1182.61451,6.78477529 L1195.43997,26.0678092 L1187.57395,26.0678092 C1186.20484,26.0678092 1184.93084,25.3675733 1184.19703,24.2117293 L1172,5 L1179.28392,5 Z M1132.43997,5 L1120.24294,24.2117293 C1119.50913,25.3675733 1118.23513,26.0678092 1116.86602,26.0678092 L1116.86602,26.0678092 L1109,26.0678092 L1121.82546,6.78477529 C1122.56697,5.66991691 1123.81711,5 1125.15604,5 L1125.15604,5 L1132.43997,5 Z" id="形状结合" stroke="#45C2FF" stroke-width="0.5" fill="#0D1E2D"></path>
        <g id="编组-2" transform="translate(-108.543691, 5.000000)" fill="#0D1C2B" stroke-linejoin="round" stroke-width="0.5">
            <path d="M514,54.0678092 L529.157493,30.8156335 C529.895828,29.6829996 531.156361,29 532.508395,29 L704.780374,29 C706.156209,29 707.435485,29.7070824 708.167402,30.8720806 L722.740248,54.0678092 L722.740248,54.0678092 L514,54.0678092 Z" id="路径-7" stroke="url(#linearGradient-1)"></path>
            <path d="M514,25.0678092 L529.157493,1.81563353 C529.895828,0.682999636 531.156361,5.00192648e-15 532.508395,0 L704.780374,0 C706.156209,-2.52736842e-16 707.435485,0.707082432 708.167402,1.87208061 L722.740248,25.0678092 L722.740248,25.0678092 L514,25.0678092 Z" id="路径-7备份" stroke="url(#linearGradient-2)" transform="translate(618.370124, 12.533905) scale(1, -1) translate(-618.370124, -12.533905) "></path>
            <path d="M257,54.0678092 L272.157493,30.8156335 C272.895828,29.6829996 274.156361,29 275.508395,29 L447.780374,29 C449.156209,29 450.435485,29.7070824 451.167402,30.8720806 L465.740248,54.0678092 L465.740248,54.0678092 L257,54.0678092 Z" id="路径-7备份-5" stroke="url(#linearGradient-1)"></path>
            <path d="M257,25.0678092 L272.157493,1.81563353 C272.895828,0.682999636 274.156361,5.00192648e-15 275.508395,0 L447.780374,0 C449.156209,-2.52736842e-16 450.435485,0.707082432 451.167402,1.87208061 L465.740248,25.0678092 L465.740248,25.0678092 L257,25.0678092 Z" id="路径-7备份-4" stroke="url(#linearGradient-1)" transform="translate(361.370124, 12.533905) scale(1, -1) translate(-361.370124, -12.533905) "></path>
            <path d="M0,54.0678092 L15.1574935,30.8156335 C15.8958283,29.6829996 17.1563606,29 18.5083953,29 L190.780374,29 C192.156209,29 193.435485,29.7070824 194.167402,30.8720806 L208.740248,54.0678092 L208.740248,54.0678092 L0,54.0678092 Z" id="路径-7备份-7" stroke="url(#linearGradient-1)"></path>
            <path d="M0,25.0678092 L15.1574935,1.81563353 C15.8958283,0.682999636 17.1563606,5.00192648e-15 18.5083953,0 L190.780374,0 C192.156209,-2.52736842e-16 193.435485,0.707082432 194.167402,1.87208061 L208.740248,25.0678092 L208.740248,25.0678092 L0,25.0678092 Z" id="路径-7备份-6" stroke="url(#linearGradient-1)" transform="translate(104.370124, 12.533905) scale(1, -1) translate(-104.370124, -12.533905) "></path>
            <path d="M771,54.0678092 L786.157493,30.8156335 C786.895828,29.6829996 788.156361,29 789.508395,29 L961.780374,29 C963.156209,29 964.435485,29.7070824 965.167402,30.8720806 L979.740248,54.0678092 L979.740248,54.0678092 L771,54.0678092 Z" id="路径-7备份-3" stroke="url(#linearGradient-1)"></path>
            <path d="M771,25.0678092 L786.157493,1.81563353 C786.895828,0.682999636 788.156361,5.00192648e-15 789.508395,0 L961.780374,0 C963.156209,-2.52736842e-16 964.435485,0.707082432 965.167402,1.87208061 L979.740248,25.0678092 L979.740248,25.0678092 L771,25.0678092 Z" id="路径-7备份-2" stroke="url(#linearGradient-1)" transform="translate(875.370124, 12.533905) scale(1, -1) translate(-875.370124, -12.533905) "></path>
            <path d="M1028,54.0678092 L1043.15749,30.8156335 C1043.89583,29.6829996 1045.15636,29 1046.5084,29 L1218.78037,29 C1220.15621,29 1221.43549,29.7070824 1222.1674,30.8720806 L1236.74025,54.0678092 L1236.74025,54.0678092 L1028,54.0678092 Z" id="路径-7备份-9" stroke="url(#linearGradient-1)"></path>
            <path d="M1028,25.0678092 L1043.15749,1.81563353 C1043.89583,0.682999636 1045.15636,5.00192648e-15 1046.5084,0 L1218.78037,0 C1220.15621,-2.52736842e-16 1221.43549,0.707082432 1222.1674,1.87208061 L1236.74025,25.0678092 L1236.74025,25.0678092 L1028,25.0678092 Z" id="路径-7备份-8" stroke="url(#linearGradient-1)" transform="translate(1132.370124, 12.533905) scale(1, -1) translate(-1132.370124, -12.533905) "></path>
            <path d="M1284,54.0678092 L1299.15749,30.8156335 C1299.89583,29.6829996 1301.15636,29 1302.5084,29 L1474.78037,29 C1476.15621,29 1477.43549,29.7070824 1478.1674,30.8720806 L1492.74025,54.0678092 L1492.74025,54.0678092 L1284,54.0678092 Z" id="路径-7备份-11" stroke="url(#linearGradient-1)"></path>
            <path d="M1284,25.0678092 L1299.15749,1.81563353 C1299.89583,0.682999636 1301.15636,5.00192648e-15 1302.5084,0 L1474.78037,0 C1476.15621,-2.52736842e-16 1477.43549,0.707082432 1478.1674,1.87208061 L1492.74025,25.0678092 L1492.74025,25.0678092 L1284,25.0678092 Z" id="路径-7备份-10" stroke="url(#linearGradient-1)" transform="translate(1388.370124, 12.533905) scale(1, -1) translate(-1388.370124, -12.533905) "></path>
        </g>
        <g id="编组-4" transform="translate(409.000000, 7.000000)">
            <g id="编组-3" transform="translate(187.000000, 0.000000)">
                <path d="M0,1 L0,7 C6.76353751e-17,7.55228475 0.44771525,8 1,8 L8.27540249,8 C8.92254138,8 9.529685,7.68688 9.90490364,7.15962322 L13.875738,1.57981161 C14.1959591,1.1298373 14.0907733,0.505470538 13.640799,0.185249428 C13.4714737,0.0647502331 13.2688122,-1.03737751e-15 13.0609874,0 L1,0 C0.44771525,1.01453063e-16 -6.76353751e-17,0.44771525 0,1 Z" id="路径-8" fill="url(#linearGradient-3)"></path>
                <g id="agora_黑科技" transform="translate(6.500000, 3.500000) rotate(90.000000) translate(-6.500000, -3.500000) translate(3.000000, 0.000000)" fill-rule="nonzero">
                    <rect id="矩形" fill="#000000" opacity="0" x="0" y="0" width="7" height="7"></rect>
                    <path d="M3.5,1.6191 C3.77641852,1.6191 4.0005,1.84318148 4.0005,2.1196 C4.00016492,2.35968192 3.83105536,2.56018691 3.60545013,2.60883613 L3.605,5.27555 C3.605,5.3335399 3.5579899,5.38055 3.5,5.38055 C3.4420101,5.38055 3.395,5.3335399 3.395,5.27555 L3.39466712,2.60899668 C3.16882707,2.5606223 2.9995,2.35988538 2.9995,2.1196 C2.9995,1.84318148 3.22358148,1.6191 3.5,1.6191 Z M5.46770213,1.6571649 C5.65476914,1.73461224 5.77675,1.91713481 5.77675,2.1196 C5.77658195,2.36041928 5.60646117,2.56148761 5.37980636,2.60930703 L5.38108381,3.88502273 C5.38142522,3.88846888 5.3816,3.89196403 5.3816,3.8955 C5.3816,3.9534899 5.3345899,4.0005 5.2766,4.0005 L4.5909,4.00008545 L4.59095,5.27555 C4.59095,5.3335399 4.5439399,5.38055 4.48595,5.38055 C4.4279601,5.38055 4.38095,5.3335399 4.38095,5.27555 L4.38095,3.8955 C4.38095,3.8375101 4.4279601,3.7905 4.48595,3.7905 L5.1689,3.79008545 L5.16873828,2.60844061 C5.01125649,2.5738202 4.87743432,2.46441614 4.81394882,2.3113757 C4.73637064,2.12436292 4.77910486,1.90903156 4.92221929,1.76581699 C5.06533372,1.62260241 5.28063513,1.57971757 5.46770213,1.6571649 Z M1.7234,1.6191 C1.99981852,1.6191 2.2239,1.84318148 2.2239,2.1196 C2.2237327,2.35909338 2.05548521,2.55925102 1.83073604,2.60849439 L1.8299,3.79008545 L2.51405,3.7905 L2.51405,3.7905 C2.5720399,3.7905 2.61905,3.8375101 2.61905,3.8955 L2.61905,5.27555 C2.61905,5.3335399 2.5720399,5.38055 2.51405,5.38055 C2.4560601,5.38055 2.40905,5.3335399 2.40905,5.27555 L2.4089,4.00008545 L1.7234,4.0005 C1.6654101,4.0005 1.6184,3.9534899 1.6184,3.8955 L1.6199,3.88508545 L1.6201063,2.609429 C1.39324711,2.56182938 1.2229,2.36060804 1.2229,2.1196 C1.2229,1.84318148 1.44698148,1.6191 1.7234,1.6191 Z M3.5,1.82945 C3.38247189,1.82945 3.27652297,1.90026607 3.23157967,2.00886145 C3.18663638,2.11745684 3.21155454,2.24243348 3.29470955,2.3254883 C3.37786455,2.40854312 3.50287114,2.4333106 3.61141227,2.38823642 C3.7199534,2.34316224 3.7906416,2.23712803 3.79050021,2.1196 C3.7901145,1.95937793 3.66022242,1.82964234 3.5,1.82945 Z M5.2766,1.82944979 C5.15904014,1.82930845 5.05298381,1.90003457 5.00793018,2.00861869 C4.96287656,2.11720282 4.98770825,2.24223687 5.07083569,2.32536431 C5.15396313,2.40849175 5.27899718,2.43332344 5.38758131,2.38826982 C5.49616543,2.34321619 5.56689155,2.23715986 5.56675021,2.1196 C5.56655715,1.95943453 5.43676547,1.82964285 5.2766,1.82944979 Z M1.7234,1.82945 C1.60587189,1.82945 1.49992297,1.90026607 1.45497967,2.00886145 C1.41003638,2.11745684 1.43495454,2.24243348 1.51810955,2.3254883 C1.60126455,2.40854312 1.72627114,2.4333106 1.83481227,2.38823642 C1.9433534,2.34316224 2.0140416,2.23712803 2.01390021,2.1196 C2.01370686,1.95929798 1.88370214,1.82945 1.7234,1.82945 Z" id="形状结合" fill="#10253D"></path>
                </g>
            </g>
            <g id="编组-3备份" transform="translate(7.500000, 4.000000) scale(-1, 1) translate(-7.500000, -4.000000) ">
                <path d="M0,1 L0,7 C6.76353751e-17,7.55228475 0.44771525,8 1,8 L8.27540249,8 C8.92254138,8 9.529685,7.68688 9.90490364,7.15962322 L13.875738,1.57981161 C14.1959591,1.1298373 14.0907733,0.505470538 13.640799,0.185249428 C13.4714737,0.0647502331 13.2688122,-1.03737751e-15 13.0609874,0 L1,0 C0.44771525,1.01453063e-16 -6.76353751e-17,0.44771525 0,1 Z" id="路径-8" fill="url(#linearGradient-3)"></path>
                <g id="agora_黑科技" transform="translate(6.500000, 3.500000) rotate(90.000000) translate(-6.500000, -3.500000) translate(3.000000, 0.000000)" fill-rule="nonzero">
                    <rect id="矩形" fill="#000000" opacity="0" x="0" y="0" width="7" height="7"></rect>
                    <path d="M3.5,1.6191 C3.77641852,1.6191 4.0005,1.84318148 4.0005,2.1196 C4.00016492,2.35968192 3.83105536,2.56018691 3.60545013,2.60883613 L3.605,5.27555 C3.605,5.3335399 3.5579899,5.38055 3.5,5.38055 C3.4420101,5.38055 3.395,5.3335399 3.395,5.27555 L3.39466712,2.60899668 C3.16882707,2.5606223 2.9995,2.35988538 2.9995,2.1196 C2.9995,1.84318148 3.22358148,1.6191 3.5,1.6191 Z M5.46770213,1.6571649 C5.65476914,1.73461224 5.77675,1.91713481 5.77675,2.1196 C5.77658195,2.36041928 5.60646117,2.56148761 5.37980636,2.60930703 L5.38108381,3.88502273 C5.38142522,3.88846888 5.3816,3.89196403 5.3816,3.8955 C5.3816,3.9534899 5.3345899,4.0005 5.2766,4.0005 L4.5909,4.00008545 L4.59095,5.27555 C4.59095,5.3335399 4.5439399,5.38055 4.48595,5.38055 C4.4279601,5.38055 4.38095,5.3335399 4.38095,5.27555 L4.38095,3.8955 C4.38095,3.8375101 4.4279601,3.7905 4.48595,3.7905 L5.1689,3.79008545 L5.16873828,2.60844061 C5.01125649,2.5738202 4.87743432,2.46441614 4.81394882,2.3113757 C4.73637064,2.12436292 4.77910486,1.90903156 4.92221929,1.76581699 C5.06533372,1.62260241 5.28063513,1.57971757 5.46770213,1.6571649 Z M1.7234,1.6191 C1.99981852,1.6191 2.2239,1.84318148 2.2239,2.1196 C2.2237327,2.35909338 2.05548521,2.55925102 1.83073604,2.60849439 L1.8299,3.79008545 L2.51405,3.7905 L2.51405,3.7905 C2.5720399,3.7905 2.61905,3.8375101 2.61905,3.8955 L2.61905,5.27555 C2.61905,5.3335399 2.5720399,5.38055 2.51405,5.38055 C2.4560601,5.38055 2.40905,5.3335399 2.40905,5.27555 L2.4089,4.00008545 L1.7234,4.0005 C1.6654101,4.0005 1.6184,3.9534899 1.6184,3.8955 L1.6199,3.88508545 L1.6201063,2.609429 C1.39324711,2.56182938 1.2229,2.36060804 1.2229,2.1196 C1.2229,1.84318148 1.44698148,1.6191 1.7234,1.6191 Z M3.5,1.82945 C3.38247189,1.82945 3.27652297,1.90026607 3.23157967,2.00886145 C3.18663638,2.11745684 3.21155454,2.24243348 3.29470955,2.3254883 C3.37786455,2.40854312 3.50287114,2.4333106 3.61141227,2.38823642 C3.7199534,2.34316224 3.7906416,2.23712803 3.79050021,2.1196 C3.7901145,1.95937793 3.66022242,1.82964234 3.5,1.82945 Z M5.2766,1.82944979 C5.15904014,1.82930845 5.05298381,1.90003457 5.00793018,2.00861869 C4.96287656,2.11720282 4.98770825,2.24223687 5.07083569,2.32536431 C5.15396313,2.40849175 5.27899718,2.43332344 5.38758131,2.38826982 C5.49616543,2.34321619 5.56689155,2.23715986 5.56675021,2.1196 C5.56655715,1.95943453 5.43676547,1.82964285 5.2766,1.82944979 Z M1.7234,1.82945 C1.60587189,1.82945 1.49992297,1.90026607 1.45497967,2.00886145 C1.41003638,2.11745684 1.43495454,2.24243348 1.51810955,2.3254883 C1.60126455,2.40854312 1.72627114,2.4333106 1.83481227,2.38823642 C1.9433534,2.34316224 2.0140416,2.23712803 2.01390021,2.1196 C2.01370686,1.95929798 1.88370214,1.82945 1.7234,1.82945 Z" id="形状结合" fill="#10253D"></path>
                </g>
            </g>
            <g id="编组-3备份-3" transform="translate(194.500000, 46.000000) scale(1, -1) translate(-194.500000, -46.000000) translate(187.000000, 42.000000)">
                <path d="M0,1 L0,7 C6.76353751e-17,7.55228475 0.44771525,8 1,8 L8.27540249,8 C8.92254138,8 9.529685,7.68688 9.90490364,7.15962322 L13.875738,1.57981161 C14.1959591,1.1298373 14.0907733,0.505470538 13.640799,0.185249428 C13.4714737,0.0647502331 13.2688122,-1.03737751e-15 13.0609874,0 L1,0 C0.44771525,1.01453063e-16 -6.76353751e-17,0.44771525 0,1 Z" id="路径-8" fill="url(#linearGradient-3)"></path>
                <g id="agora_黑科技" transform="translate(6.500000, 3.500000) rotate(90.000000) translate(-6.500000, -3.500000) translate(3.000000, 0.000000)" fill-rule="nonzero">
                    <rect id="矩形" fill="#000000" opacity="0" x="0" y="0" width="7" height="7"></rect>
                    <path d="M3.5,1.6191 C3.77641852,1.6191 4.0005,1.84318148 4.0005,2.1196 C4.00016492,2.35968192 3.83105536,2.56018691 3.60545013,2.60883613 L3.605,5.27555 C3.605,5.3335399 3.5579899,5.38055 3.5,5.38055 C3.4420101,5.38055 3.395,5.3335399 3.395,5.27555 L3.39466712,2.60899668 C3.16882707,2.5606223 2.9995,2.35988538 2.9995,2.1196 C2.9995,1.84318148 3.22358148,1.6191 3.5,1.6191 Z M5.46770213,1.6571649 C5.65476914,1.73461224 5.77675,1.91713481 5.77675,2.1196 C5.77658195,2.36041928 5.60646117,2.56148761 5.37980636,2.60930703 L5.38108381,3.88502273 C5.38142522,3.88846888 5.3816,3.89196403 5.3816,3.8955 C5.3816,3.9534899 5.3345899,4.0005 5.2766,4.0005 L4.5909,4.00008545 L4.59095,5.27555 C4.59095,5.3335399 4.5439399,5.38055 4.48595,5.38055 C4.4279601,5.38055 4.38095,5.3335399 4.38095,5.27555 L4.38095,3.8955 C4.38095,3.8375101 4.4279601,3.7905 4.48595,3.7905 L5.1689,3.79008545 L5.16873828,2.60844061 C5.01125649,2.5738202 4.87743432,2.46441614 4.81394882,2.3113757 C4.73637064,2.12436292 4.77910486,1.90903156 4.92221929,1.76581699 C5.06533372,1.62260241 5.28063513,1.57971757 5.46770213,1.6571649 Z M1.7234,1.6191 C1.99981852,1.6191 2.2239,1.84318148 2.2239,2.1196 C2.2237327,2.35909338 2.05548521,2.55925102 1.83073604,2.60849439 L1.8299,3.79008545 L2.51405,3.7905 L2.51405,3.7905 C2.5720399,3.7905 2.61905,3.8375101 2.61905,3.8955 L2.61905,5.27555 C2.61905,5.3335399 2.5720399,5.38055 2.51405,5.38055 C2.4560601,5.38055 2.40905,5.3335399 2.40905,5.27555 L2.4089,4.00008545 L1.7234,4.0005 C1.6654101,4.0005 1.6184,3.9534899 1.6184,3.8955 L1.6199,3.88508545 L1.6201063,2.609429 C1.39324711,2.56182938 1.2229,2.36060804 1.2229,2.1196 C1.2229,1.84318148 1.44698148,1.6191 1.7234,1.6191 Z M3.5,1.82945 C3.38247189,1.82945 3.27652297,1.90026607 3.23157967,2.00886145 C3.18663638,2.11745684 3.21155454,2.24243348 3.29470955,2.3254883 C3.37786455,2.40854312 3.50287114,2.4333106 3.61141227,2.38823642 C3.7199534,2.34316224 3.7906416,2.23712803 3.79050021,2.1196 C3.7901145,1.95937793 3.66022242,1.82964234 3.5,1.82945 Z M5.2766,1.82944979 C5.15904014,1.82930845 5.05298381,1.90003457 5.00793018,2.00861869 C4.96287656,2.11720282 4.98770825,2.24223687 5.07083569,2.32536431 C5.15396313,2.40849175 5.27899718,2.43332344 5.38758131,2.38826982 C5.49616543,2.34321619 5.56689155,2.23715986 5.56675021,2.1196 C5.56655715,1.95943453 5.43676547,1.82964285 5.2766,1.82944979 Z M1.7234,1.82945 C1.60587189,1.82945 1.49992297,1.90026607 1.45497967,2.00886145 C1.41003638,2.11745684 1.43495454,2.24243348 1.51810955,2.3254883 C1.60126455,2.40854312 1.72627114,2.4333106 1.83481227,2.38823642 C1.9433534,2.34316224 2.0140416,2.23712803 2.01390021,2.1196 C2.01370686,1.95929798 1.88370214,1.82945 1.7234,1.82945 Z" id="形状结合" fill="#10253D"></path>
                </g>
            </g>
            <g id="编组-3备份-2" transform="translate(7.500000, 46.000000) scale(-1, -1) translate(-7.500000, -46.000000) translate(0.000000, 42.000000)">
                <path d="M0,1 L0,7 C6.76353751e-17,7.55228475 0.44771525,8 1,8 L8.27540249,8 C8.92254138,8 9.529685,7.68688 9.90490364,7.15962322 L13.875738,1.57981161 C14.1959591,1.1298373 14.0907733,0.505470538 13.640799,0.185249428 C13.4714737,0.0647502331 13.2688122,-1.03737751e-15 13.0609874,0 L1,0 C0.44771525,1.01453063e-16 -6.76353751e-17,0.44771525 0,1 Z" id="路径-8" fill="url(#linearGradient-3)"></path>
                <g id="agora_黑科技" transform="translate(6.500000, 3.500000) rotate(90.000000) translate(-6.500000, -3.500000) translate(3.000000, 0.000000)" fill-rule="nonzero">
                    <rect id="矩形" fill="#000000" opacity="0" x="0" y="0" width="7" height="7"></rect>
                    <path d="M3.5,1.6191 C3.77641852,1.6191 4.0005,1.84318148 4.0005,2.1196 C4.00016492,2.35968192 3.83105536,2.56018691 3.60545013,2.60883613 L3.605,5.27555 C3.605,5.3335399 3.5579899,5.38055 3.5,5.38055 C3.4420101,5.38055 3.395,5.3335399 3.395,5.27555 L3.39466712,2.60899668 C3.16882707,2.5606223 2.9995,2.35988538 2.9995,2.1196 C2.9995,1.84318148 3.22358148,1.6191 3.5,1.6191 Z M5.46770213,1.6571649 C5.65476914,1.73461224 5.77675,1.91713481 5.77675,2.1196 C5.77658195,2.36041928 5.60646117,2.56148761 5.37980636,2.60930703 L5.38108381,3.88502273 C5.38142522,3.88846888 5.3816,3.89196403 5.3816,3.8955 C5.3816,3.9534899 5.3345899,4.0005 5.2766,4.0005 L4.5909,4.00008545 L4.59095,5.27555 C4.59095,5.3335399 4.5439399,5.38055 4.48595,5.38055 C4.4279601,5.38055 4.38095,5.3335399 4.38095,5.27555 L4.38095,3.8955 C4.38095,3.8375101 4.4279601,3.7905 4.48595,3.7905 L5.1689,3.79008545 L5.16873828,2.60844061 C5.01125649,2.5738202 4.87743432,2.46441614 4.81394882,2.3113757 C4.73637064,2.12436292 4.77910486,1.90903156 4.92221929,1.76581699 C5.06533372,1.62260241 5.28063513,1.57971757 5.46770213,1.6571649 Z M1.7234,1.6191 C1.99981852,1.6191 2.2239,1.84318148 2.2239,2.1196 C2.2237327,2.35909338 2.05548521,2.55925102 1.83073604,2.60849439 L1.8299,3.79008545 L2.51405,3.7905 L2.51405,3.7905 C2.5720399,3.7905 2.61905,3.8375101 2.61905,3.8955 L2.61905,5.27555 C2.61905,5.3335399 2.5720399,5.38055 2.51405,5.38055 C2.4560601,5.38055 2.40905,5.3335399 2.40905,5.27555 L2.4089,4.00008545 L1.7234,4.0005 C1.6654101,4.0005 1.6184,3.9534899 1.6184,3.8955 L1.6199,3.88508545 L1.6201063,2.609429 C1.39324711,2.56182938 1.2229,2.36060804 1.2229,2.1196 C1.2229,1.84318148 1.44698148,1.6191 1.7234,1.6191 Z M3.5,1.82945 C3.38247189,1.82945 3.27652297,1.90026607 3.23157967,2.00886145 C3.18663638,2.11745684 3.21155454,2.24243348 3.29470955,2.3254883 C3.37786455,2.40854312 3.50287114,2.4333106 3.61141227,2.38823642 C3.7199534,2.34316224 3.7906416,2.23712803 3.79050021,2.1196 C3.7901145,1.95937793 3.66022242,1.82964234 3.5,1.82945 Z M5.2766,1.82944979 C5.15904014,1.82930845 5.05298381,1.90003457 5.00793018,2.00861869 C4.96287656,2.11720282 4.98770825,2.24223687 5.07083569,2.32536431 C5.15396313,2.40849175 5.27899718,2.43332344 5.38758131,2.38826982 C5.49616543,2.34321619 5.56689155,2.23715986 5.56675021,2.1196 C5.56655715,1.95943453 5.43676547,1.82964285 5.2766,1.82944979 Z M1.7234,1.82945 C1.60587189,1.82945 1.49992297,1.90026607 1.45497967,2.00886145 C1.41003638,2.11745684 1.43495454,2.24243348 1.51810955,2.3254883 C1.60126455,2.40854312 1.72627114,2.4333106 1.83481227,2.38823642 C1.9433534,2.34316224 2.0140416,2.23712803 2.01390021,2.1196 C2.01370686,1.95929798 1.88370214,1.82945 1.7234,1.82945 Z" id="形状结合" fill="#10253D"></path>
                </g>
            </g>
        </g>
        <g id="编组-4备份-2" transform="translate(666.000000, 7.000000)">
            <g id="编组-3" transform="translate(187.000000, 0.000000)">
                <path d="M0,1 L0,7 C6.76353751e-17,7.55228475 0.44771525,8 1,8 L8.27540249,8 C8.92254138,8 9.529685,7.68688 9.90490364,7.15962322 L13.875738,1.57981161 C14.1959591,1.1298373 14.0907733,0.505470538 13.640799,0.185249428 C13.4714737,0.0647502331 13.2688122,-1.03737751e-15 13.0609874,0 L1,0 C0.44771525,1.01453063e-16 -6.76353751e-17,0.44771525 0,1 Z" id="路径-8" fill="url(#linearGradient-3)"></path>
                <g id="agora_黑科技" transform="translate(6.500000, 3.500000) rotate(90.000000) translate(-6.500000, -3.500000) translate(3.000000, 0.000000)" fill-rule="nonzero">
                    <rect id="矩形" fill="#000000" opacity="0" x="0" y="0" width="7" height="7"></rect>
                    <path d="M3.5,1.6191 C3.77641852,1.6191 4.0005,1.84318148 4.0005,2.1196 C4.00016492,2.35968192 3.83105536,2.56018691 3.60545013,2.60883613 L3.605,5.27555 C3.605,5.3335399 3.5579899,5.38055 3.5,5.38055 C3.4420101,5.38055 3.395,5.3335399 3.395,5.27555 L3.39466712,2.60899668 C3.16882707,2.5606223 2.9995,2.35988538 2.9995,2.1196 C2.9995,1.84318148 3.22358148,1.6191 3.5,1.6191 Z M5.46770213,1.6571649 C5.65476914,1.73461224 5.77675,1.91713481 5.77675,2.1196 C5.77658195,2.36041928 5.60646117,2.56148761 5.37980636,2.60930703 L5.38108381,3.88502273 C5.38142522,3.88846888 5.3816,3.89196403 5.3816,3.8955 C5.3816,3.9534899 5.3345899,4.0005 5.2766,4.0005 L4.5909,4.00008545 L4.59095,5.27555 C4.59095,5.3335399 4.5439399,5.38055 4.48595,5.38055 C4.4279601,5.38055 4.38095,5.3335399 4.38095,5.27555 L4.38095,3.8955 C4.38095,3.8375101 4.4279601,3.7905 4.48595,3.7905 L5.1689,3.79008545 L5.16873828,2.60844061 C5.01125649,2.5738202 4.87743432,2.46441614 4.81394882,2.3113757 C4.73637064,2.12436292 4.77910486,1.90903156 4.92221929,1.76581699 C5.06533372,1.62260241 5.28063513,1.57971757 5.46770213,1.6571649 Z M1.7234,1.6191 C1.99981852,1.6191 2.2239,1.84318148 2.2239,2.1196 C2.2237327,2.35909338 2.05548521,2.55925102 1.83073604,2.60849439 L1.8299,3.79008545 L2.51405,3.7905 L2.51405,3.7905 C2.5720399,3.7905 2.61905,3.8375101 2.61905,3.8955 L2.61905,5.27555 C2.61905,5.3335399 2.5720399,5.38055 2.51405,5.38055 C2.4560601,5.38055 2.40905,5.3335399 2.40905,5.27555 L2.4089,4.00008545 L1.7234,4.0005 C1.6654101,4.0005 1.6184,3.9534899 1.6184,3.8955 L1.6199,3.88508545 L1.6201063,2.609429 C1.39324711,2.56182938 1.2229,2.36060804 1.2229,2.1196 C1.2229,1.84318148 1.44698148,1.6191 1.7234,1.6191 Z M3.5,1.82945 C3.38247189,1.82945 3.27652297,1.90026607 3.23157967,2.00886145 C3.18663638,2.11745684 3.21155454,2.24243348 3.29470955,2.3254883 C3.37786455,2.40854312 3.50287114,2.4333106 3.61141227,2.38823642 C3.7199534,2.34316224 3.7906416,2.23712803 3.79050021,2.1196 C3.7901145,1.95937793 3.66022242,1.82964234 3.5,1.82945 Z M5.2766,1.82944979 C5.15904014,1.82930845 5.05298381,1.90003457 5.00793018,2.00861869 C4.96287656,2.11720282 4.98770825,2.24223687 5.07083569,2.32536431 C5.15396313,2.40849175 5.27899718,2.43332344 5.38758131,2.38826982 C5.49616543,2.34321619 5.56689155,2.23715986 5.56675021,2.1196 C5.56655715,1.95943453 5.43676547,1.82964285 5.2766,1.82944979 Z M1.7234,1.82945 C1.60587189,1.82945 1.49992297,1.90026607 1.45497967,2.00886145 C1.41003638,2.11745684 1.43495454,2.24243348 1.51810955,2.3254883 C1.60126455,2.40854312 1.72627114,2.4333106 1.83481227,2.38823642 C1.9433534,2.34316224 2.0140416,2.23712803 2.01390021,2.1196 C2.01370686,1.95929798 1.88370214,1.82945 1.7234,1.82945 Z" id="形状结合" fill="#10253D"></path>
                </g>
            </g>
            <g id="编组-3备份" transform="translate(7.500000, 4.000000) scale(-1, 1) translate(-7.500000, -4.000000) ">
                <path d="M0,1 L0,7 C6.76353751e-17,7.55228475 0.44771525,8 1,8 L8.27540249,8 C8.92254138,8 9.529685,7.68688 9.90490364,7.15962322 L13.875738,1.57981161 C14.1959591,1.1298373 14.0907733,0.505470538 13.640799,0.185249428 C13.4714737,0.0647502331 13.2688122,-1.03737751e-15 13.0609874,0 L1,0 C0.44771525,1.01453063e-16 -6.76353751e-17,0.44771525 0,1 Z" id="路径-8" fill="url(#linearGradient-3)"></path>
                <g id="agora_黑科技" transform="translate(6.500000, 3.500000) rotate(90.000000) translate(-6.500000, -3.500000) translate(3.000000, 0.000000)" fill-rule="nonzero">
                    <rect id="矩形" fill="#000000" opacity="0" x="0" y="0" width="7" height="7"></rect>
                    <path d="M3.5,1.6191 C3.77641852,1.6191 4.0005,1.84318148 4.0005,2.1196 C4.00016492,2.35968192 3.83105536,2.56018691 3.60545013,2.60883613 L3.605,5.27555 C3.605,5.3335399 3.5579899,5.38055 3.5,5.38055 C3.4420101,5.38055 3.395,5.3335399 3.395,5.27555 L3.39466712,2.60899668 C3.16882707,2.5606223 2.9995,2.35988538 2.9995,2.1196 C2.9995,1.84318148 3.22358148,1.6191 3.5,1.6191 Z M5.46770213,1.6571649 C5.65476914,1.73461224 5.77675,1.91713481 5.77675,2.1196 C5.77658195,2.36041928 5.60646117,2.56148761 5.37980636,2.60930703 L5.38108381,3.88502273 C5.38142522,3.88846888 5.3816,3.89196403 5.3816,3.8955 C5.3816,3.9534899 5.3345899,4.0005 5.2766,4.0005 L4.5909,4.00008545 L4.59095,5.27555 C4.59095,5.3335399 4.5439399,5.38055 4.48595,5.38055 C4.4279601,5.38055 4.38095,5.3335399 4.38095,5.27555 L4.38095,3.8955 C4.38095,3.8375101 4.4279601,3.7905 4.48595,3.7905 L5.1689,3.79008545 L5.16873828,2.60844061 C5.01125649,2.5738202 4.87743432,2.46441614 4.81394882,2.3113757 C4.73637064,2.12436292 4.77910486,1.90903156 4.92221929,1.76581699 C5.06533372,1.62260241 5.28063513,1.57971757 5.46770213,1.6571649 Z M1.7234,1.6191 C1.99981852,1.6191 2.2239,1.84318148 2.2239,2.1196 C2.2237327,2.35909338 2.05548521,2.55925102 1.83073604,2.60849439 L1.8299,3.79008545 L2.51405,3.7905 L2.51405,3.7905 C2.5720399,3.7905 2.61905,3.8375101 2.61905,3.8955 L2.61905,5.27555 C2.61905,5.3335399 2.5720399,5.38055 2.51405,5.38055 C2.4560601,5.38055 2.40905,5.3335399 2.40905,5.27555 L2.4089,4.00008545 L1.7234,4.0005 C1.6654101,4.0005 1.6184,3.9534899 1.6184,3.8955 L1.6199,3.88508545 L1.6201063,2.609429 C1.39324711,2.56182938 1.2229,2.36060804 1.2229,2.1196 C1.2229,1.84318148 1.44698148,1.6191 1.7234,1.6191 Z M3.5,1.82945 C3.38247189,1.82945 3.27652297,1.90026607 3.23157967,2.00886145 C3.18663638,2.11745684 3.21155454,2.24243348 3.29470955,2.3254883 C3.37786455,2.40854312 3.50287114,2.4333106 3.61141227,2.38823642 C3.7199534,2.34316224 3.7906416,2.23712803 3.79050021,2.1196 C3.7901145,1.95937793 3.66022242,1.82964234 3.5,1.82945 Z M5.2766,1.82944979 C5.15904014,1.82930845 5.05298381,1.90003457 5.00793018,2.00861869 C4.96287656,2.11720282 4.98770825,2.24223687 5.07083569,2.32536431 C5.15396313,2.40849175 5.27899718,2.43332344 5.38758131,2.38826982 C5.49616543,2.34321619 5.56689155,2.23715986 5.56675021,2.1196 C5.56655715,1.95943453 5.43676547,1.82964285 5.2766,1.82944979 Z M1.7234,1.82945 C1.60587189,1.82945 1.49992297,1.90026607 1.45497967,2.00886145 C1.41003638,2.11745684 1.43495454,2.24243348 1.51810955,2.3254883 C1.60126455,2.40854312 1.72627114,2.4333106 1.83481227,2.38823642 C1.9433534,2.34316224 2.0140416,2.23712803 2.01390021,2.1196 C2.01370686,1.95929798 1.88370214,1.82945 1.7234,1.82945 Z" id="形状结合" fill="#10253D"></path>
                </g>
            </g>
            <g id="编组-3备份-3" transform="translate(194.500000, 46.000000) scale(1, -1) translate(-194.500000, -46.000000) translate(187.000000, 42.000000)">
                <path d="M0,1 L0,7 C6.76353751e-17,7.55228475 0.44771525,8 1,8 L8.27540249,8 C8.92254138,8 9.529685,7.68688 9.90490364,7.15962322 L13.875738,1.57981161 C14.1959591,1.1298373 14.0907733,0.505470538 13.640799,0.185249428 C13.4714737,0.0647502331 13.2688122,-1.03737751e-15 13.0609874,0 L1,0 C0.44771525,1.01453063e-16 -6.76353751e-17,0.44771525 0,1 Z" id="路径-8" fill="url(#linearGradient-3)"></path>
                <g id="agora_黑科技" transform="translate(6.500000, 3.500000) rotate(90.000000) translate(-6.500000, -3.500000) translate(3.000000, 0.000000)" fill-rule="nonzero">
                    <rect id="矩形" fill="#000000" opacity="0" x="0" y="0" width="7" height="7"></rect>
                    <path d="M3.5,1.6191 C3.77641852,1.6191 4.0005,1.84318148 4.0005,2.1196 C4.00016492,2.35968192 3.83105536,2.56018691 3.60545013,2.60883613 L3.605,5.27555 C3.605,5.3335399 3.5579899,5.38055 3.5,5.38055 C3.4420101,5.38055 3.395,5.3335399 3.395,5.27555 L3.39466712,2.60899668 C3.16882707,2.5606223 2.9995,2.35988538 2.9995,2.1196 C2.9995,1.84318148 3.22358148,1.6191 3.5,1.6191 Z M5.46770213,1.6571649 C5.65476914,1.73461224 5.77675,1.91713481 5.77675,2.1196 C5.77658195,2.36041928 5.60646117,2.56148761 5.37980636,2.60930703 L5.38108381,3.88502273 C5.38142522,3.88846888 5.3816,3.89196403 5.3816,3.8955 C5.3816,3.9534899 5.3345899,4.0005 5.2766,4.0005 L4.5909,4.00008545 L4.59095,5.27555 C4.59095,5.3335399 4.5439399,5.38055 4.48595,5.38055 C4.4279601,5.38055 4.38095,5.3335399 4.38095,5.27555 L4.38095,3.8955 C4.38095,3.8375101 4.4279601,3.7905 4.48595,3.7905 L5.1689,3.79008545 L5.16873828,2.60844061 C5.01125649,2.5738202 4.87743432,2.46441614 4.81394882,2.3113757 C4.73637064,2.12436292 4.77910486,1.90903156 4.92221929,1.76581699 C5.06533372,1.62260241 5.28063513,1.57971757 5.46770213,1.6571649 Z M1.7234,1.6191 C1.99981852,1.6191 2.2239,1.84318148 2.2239,2.1196 C2.2237327,2.35909338 2.05548521,2.55925102 1.83073604,2.60849439 L1.8299,3.79008545 L2.51405,3.7905 L2.51405,3.7905 C2.5720399,3.7905 2.61905,3.8375101 2.61905,3.8955 L2.61905,5.27555 C2.61905,5.3335399 2.5720399,5.38055 2.51405,5.38055 C2.4560601,5.38055 2.40905,5.3335399 2.40905,5.27555 L2.4089,4.00008545 L1.7234,4.0005 C1.6654101,4.0005 1.6184,3.9534899 1.6184,3.8955 L1.6199,3.88508545 L1.6201063,2.609429 C1.39324711,2.56182938 1.2229,2.36060804 1.2229,2.1196 C1.2229,1.84318148 1.44698148,1.6191 1.7234,1.6191 Z M3.5,1.82945 C3.38247189,1.82945 3.27652297,1.90026607 3.23157967,2.00886145 C3.18663638,2.11745684 3.21155454,2.24243348 3.29470955,2.3254883 C3.37786455,2.40854312 3.50287114,2.4333106 3.61141227,2.38823642 C3.7199534,2.34316224 3.7906416,2.23712803 3.79050021,2.1196 C3.7901145,1.95937793 3.66022242,1.82964234 3.5,1.82945 Z M5.2766,1.82944979 C5.15904014,1.82930845 5.05298381,1.90003457 5.00793018,2.00861869 C4.96287656,2.11720282 4.98770825,2.24223687 5.07083569,2.32536431 C5.15396313,2.40849175 5.27899718,2.43332344 5.38758131,2.38826982 C5.49616543,2.34321619 5.56689155,2.23715986 5.56675021,2.1196 C5.56655715,1.95943453 5.43676547,1.82964285 5.2766,1.82944979 Z M1.7234,1.82945 C1.60587189,1.82945 1.49992297,1.90026607 1.45497967,2.00886145 C1.41003638,2.11745684 1.43495454,2.24243348 1.51810955,2.3254883 C1.60126455,2.40854312 1.72627114,2.4333106 1.83481227,2.38823642 C1.9433534,2.34316224 2.0140416,2.23712803 2.01390021,2.1196 C2.01370686,1.95929798 1.88370214,1.82945 1.7234,1.82945 Z" id="形状结合" fill="#10253D"></path>
                </g>
            </g>
            <g id="编组-3备份-2" transform="translate(7.500000, 46.000000) scale(-1, -1) translate(-7.500000, -46.000000) translate(0.000000, 42.000000)">
                <path d="M0,1 L0,7 C6.76353751e-17,7.55228475 0.44771525,8 1,8 L8.27540249,8 C8.92254138,8 9.529685,7.68688 9.90490364,7.15962322 L13.875738,1.57981161 C14.1959591,1.1298373 14.0907733,0.505470538 13.640799,0.185249428 C13.4714737,0.0647502331 13.2688122,-1.03737751e-15 13.0609874,0 L1,0 C0.44771525,1.01453063e-16 -6.76353751e-17,0.44771525 0,1 Z" id="路径-8" fill="url(#linearGradient-3)"></path>
                <g id="agora_黑科技" transform="translate(6.500000, 3.500000) rotate(90.000000) translate(-6.500000, -3.500000) translate(3.000000, 0.000000)" fill-rule="nonzero">
                    <rect id="矩形" fill="#000000" opacity="0" x="0" y="0" width="7" height="7"></rect>
                    <path d="M3.5,1.6191 C3.77641852,1.6191 4.0005,1.84318148 4.0005,2.1196 C4.00016492,2.35968192 3.83105536,2.56018691 3.60545013,2.60883613 L3.605,5.27555 C3.605,5.3335399 3.5579899,5.38055 3.5,5.38055 C3.4420101,5.38055 3.395,5.3335399 3.395,5.27555 L3.39466712,2.60899668 C3.16882707,2.5606223 2.9995,2.35988538 2.9995,2.1196 C2.9995,1.84318148 3.22358148,1.6191 3.5,1.6191 Z M5.46770213,1.6571649 C5.65476914,1.73461224 5.77675,1.91713481 5.77675,2.1196 C5.77658195,2.36041928 5.60646117,2.56148761 5.37980636,2.60930703 L5.38108381,3.88502273 C5.38142522,3.88846888 5.3816,3.89196403 5.3816,3.8955 C5.3816,3.9534899 5.3345899,4.0005 5.2766,4.0005 L4.5909,4.00008545 L4.59095,5.27555 C4.59095,5.3335399 4.5439399,5.38055 4.48595,5.38055 C4.4279601,5.38055 4.38095,5.3335399 4.38095,5.27555 L4.38095,3.8955 C4.38095,3.8375101 4.4279601,3.7905 4.48595,3.7905 L5.1689,3.79008545 L5.16873828,2.60844061 C5.01125649,2.5738202 4.87743432,2.46441614 4.81394882,2.3113757 C4.73637064,2.12436292 4.77910486,1.90903156 4.92221929,1.76581699 C5.06533372,1.62260241 5.28063513,1.57971757 5.46770213,1.6571649 Z M1.7234,1.6191 C1.99981852,1.6191 2.2239,1.84318148 2.2239,2.1196 C2.2237327,2.35909338 2.05548521,2.55925102 1.83073604,2.60849439 L1.8299,3.79008545 L2.51405,3.7905 L2.51405,3.7905 C2.5720399,3.7905 2.61905,3.8375101 2.61905,3.8955 L2.61905,5.27555 C2.61905,5.3335399 2.5720399,5.38055 2.51405,5.38055 C2.4560601,5.38055 2.40905,5.3335399 2.40905,5.27555 L2.4089,4.00008545 L1.7234,4.0005 C1.6654101,4.0005 1.6184,3.9534899 1.6184,3.8955 L1.6199,3.88508545 L1.6201063,2.609429 C1.39324711,2.56182938 1.2229,2.36060804 1.2229,2.1196 C1.2229,1.84318148 1.44698148,1.6191 1.7234,1.6191 Z M3.5,1.82945 C3.38247189,1.82945 3.27652297,1.90026607 3.23157967,2.00886145 C3.18663638,2.11745684 3.21155454,2.24243348 3.29470955,2.3254883 C3.37786455,2.40854312 3.50287114,2.4333106 3.61141227,2.38823642 C3.7199534,2.34316224 3.7906416,2.23712803 3.79050021,2.1196 C3.7901145,1.95937793 3.66022242,1.82964234 3.5,1.82945 Z M5.2766,1.82944979 C5.15904014,1.82930845 5.05298381,1.90003457 5.00793018,2.00861869 C4.96287656,2.11720282 4.98770825,2.24223687 5.07083569,2.32536431 C5.15396313,2.40849175 5.27899718,2.43332344 5.38758131,2.38826982 C5.49616543,2.34321619 5.56689155,2.23715986 5.56675021,2.1196 C5.56655715,1.95943453 5.43676547,1.82964285 5.2766,1.82944979 Z M1.7234,1.82945 C1.60587189,1.82945 1.49992297,1.90026607 1.45497967,2.00886145 C1.41003638,2.11745684 1.43495454,2.24243348 1.51810955,2.3254883 C1.60126455,2.40854312 1.72627114,2.4333106 1.83481227,2.38823642 C1.9433534,2.34316224 2.0140416,2.23712803 2.01390021,2.1196 C2.01370686,1.95929798 1.88370214,1.82945 1.7234,1.82945 Z" id="形状结合" fill="#10253D"></path>
                </g>
            </g>
        </g>
        <g id="编组-4备份-5" transform="translate(923.000000, 7.000000)">
            <g id="编组-3" transform="translate(187.000000, 0.000000)">
                <path d="M0,1 L0,7 C6.76353751e-17,7.55228475 0.44771525,8 1,8 L8.27540249,8 C8.92254138,8 9.529685,7.68688 9.90490364,7.15962322 L13.875738,1.57981161 C14.1959591,1.1298373 14.0907733,0.505470538 13.640799,0.185249428 C13.4714737,0.0647502331 13.2688122,-1.03737751e-15 13.0609874,0 L1,0 C0.44771525,1.01453063e-16 -6.76353751e-17,0.44771525 0,1 Z" id="路径-8" fill="url(#linearGradient-3)"></path>
                <g id="agora_黑科技" transform="translate(6.500000, 3.500000) rotate(90.000000) translate(-6.500000, -3.500000) translate(3.000000, 0.000000)" fill-rule="nonzero">
                    <rect id="矩形" fill="#000000" opacity="0" x="0" y="0" width="7" height="7"></rect>
                    <path d="M3.5,1.6191 C3.77641852,1.6191 4.0005,1.84318148 4.0005,2.1196 C4.00016492,2.35968192 3.83105536,2.56018691 3.60545013,2.60883613 L3.605,5.27555 C3.605,5.3335399 3.5579899,5.38055 3.5,5.38055 C3.4420101,5.38055 3.395,5.3335399 3.395,5.27555 L3.39466712,2.60899668 C3.16882707,2.5606223 2.9995,2.35988538 2.9995,2.1196 C2.9995,1.84318148 3.22358148,1.6191 3.5,1.6191 Z M5.46770213,1.6571649 C5.65476914,1.73461224 5.77675,1.91713481 5.77675,2.1196 C5.77658195,2.36041928 5.60646117,2.56148761 5.37980636,2.60930703 L5.38108381,3.88502273 C5.38142522,3.88846888 5.3816,3.89196403 5.3816,3.8955 C5.3816,3.9534899 5.3345899,4.0005 5.2766,4.0005 L4.5909,4.00008545 L4.59095,5.27555 C4.59095,5.3335399 4.5439399,5.38055 4.48595,5.38055 C4.4279601,5.38055 4.38095,5.3335399 4.38095,5.27555 L4.38095,3.8955 C4.38095,3.8375101 4.4279601,3.7905 4.48595,3.7905 L5.1689,3.79008545 L5.16873828,2.60844061 C5.01125649,2.5738202 4.87743432,2.46441614 4.81394882,2.3113757 C4.73637064,2.12436292 4.77910486,1.90903156 4.92221929,1.76581699 C5.06533372,1.62260241 5.28063513,1.57971757 5.46770213,1.6571649 Z M1.7234,1.6191 C1.99981852,1.6191 2.2239,1.84318148 2.2239,2.1196 C2.2237327,2.35909338 2.05548521,2.55925102 1.83073604,2.60849439 L1.8299,3.79008545 L2.51405,3.7905 L2.51405,3.7905 C2.5720399,3.7905 2.61905,3.8375101 2.61905,3.8955 L2.61905,5.27555 C2.61905,5.3335399 2.5720399,5.38055 2.51405,5.38055 C2.4560601,5.38055 2.40905,5.3335399 2.40905,5.27555 L2.4089,4.00008545 L1.7234,4.0005 C1.6654101,4.0005 1.6184,3.9534899 1.6184,3.8955 L1.6199,3.88508545 L1.6201063,2.609429 C1.39324711,2.56182938 1.2229,2.36060804 1.2229,2.1196 C1.2229,1.84318148 1.44698148,1.6191 1.7234,1.6191 Z M3.5,1.82945 C3.38247189,1.82945 3.27652297,1.90026607 3.23157967,2.00886145 C3.18663638,2.11745684 3.21155454,2.24243348 3.29470955,2.3254883 C3.37786455,2.40854312 3.50287114,2.4333106 3.61141227,2.38823642 C3.7199534,2.34316224 3.7906416,2.23712803 3.79050021,2.1196 C3.7901145,1.95937793 3.66022242,1.82964234 3.5,1.82945 Z M5.2766,1.82944979 C5.15904014,1.82930845 5.05298381,1.90003457 5.00793018,2.00861869 C4.96287656,2.11720282 4.98770825,2.24223687 5.07083569,2.32536431 C5.15396313,2.40849175 5.27899718,2.43332344 5.38758131,2.38826982 C5.49616543,2.34321619 5.56689155,2.23715986 5.56675021,2.1196 C5.56655715,1.95943453 5.43676547,1.82964285 5.2766,1.82944979 Z M1.7234,1.82945 C1.60587189,1.82945 1.49992297,1.90026607 1.45497967,2.00886145 C1.41003638,2.11745684 1.43495454,2.24243348 1.51810955,2.3254883 C1.60126455,2.40854312 1.72627114,2.4333106 1.83481227,2.38823642 C1.9433534,2.34316224 2.0140416,2.23712803 2.01390021,2.1196 C2.01370686,1.95929798 1.88370214,1.82945 1.7234,1.82945 Z" id="形状结合" fill="#10253D"></path>
                </g>
            </g>
            <g id="编组-3备份" transform="translate(7.500000, 4.000000) scale(-1, 1) translate(-7.500000, -4.000000) ">
                <path d="M0,1 L0,7 C6.76353751e-17,7.55228475 0.44771525,8 1,8 L8.27540249,8 C8.92254138,8 9.529685,7.68688 9.90490364,7.15962322 L13.875738,1.57981161 C14.1959591,1.1298373 14.0907733,0.505470538 13.640799,0.185249428 C13.4714737,0.0647502331 13.2688122,-1.03737751e-15 13.0609874,0 L1,0 C0.44771525,1.01453063e-16 -6.76353751e-17,0.44771525 0,1 Z" id="路径-8" fill="url(#linearGradient-3)"></path>
                <g id="agora_黑科技" transform="translate(6.500000, 3.500000) rotate(90.000000) translate(-6.500000, -3.500000) translate(3.000000, 0.000000)" fill-rule="nonzero">
                    <rect id="矩形" fill="#000000" opacity="0" x="0" y="0" width="7" height="7"></rect>
                    <path d="M3.5,1.6191 C3.77641852,1.6191 4.0005,1.84318148 4.0005,2.1196 C4.00016492,2.35968192 3.83105536,2.56018691 3.60545013,2.60883613 L3.605,5.27555 C3.605,5.3335399 3.5579899,5.38055 3.5,5.38055 C3.4420101,5.38055 3.395,5.3335399 3.395,5.27555 L3.39466712,2.60899668 C3.16882707,2.5606223 2.9995,2.35988538 2.9995,2.1196 C2.9995,1.84318148 3.22358148,1.6191 3.5,1.6191 Z M5.46770213,1.6571649 C5.65476914,1.73461224 5.77675,1.91713481 5.77675,2.1196 C5.77658195,2.36041928 5.60646117,2.56148761 5.37980636,2.60930703 L5.38108381,3.88502273 C5.38142522,3.88846888 5.3816,3.89196403 5.3816,3.8955 C5.3816,3.9534899 5.3345899,4.0005 5.2766,4.0005 L4.5909,4.00008545 L4.59095,5.27555 C4.59095,5.3335399 4.5439399,5.38055 4.48595,5.38055 C4.4279601,5.38055 4.38095,5.3335399 4.38095,5.27555 L4.38095,3.8955 C4.38095,3.8375101 4.4279601,3.7905 4.48595,3.7905 L5.1689,3.79008545 L5.16873828,2.60844061 C5.01125649,2.5738202 4.87743432,2.46441614 4.81394882,2.3113757 C4.73637064,2.12436292 4.77910486,1.90903156 4.92221929,1.76581699 C5.06533372,1.62260241 5.28063513,1.57971757 5.46770213,1.6571649 Z M1.7234,1.6191 C1.99981852,1.6191 2.2239,1.84318148 2.2239,2.1196 C2.2237327,2.35909338 2.05548521,2.55925102 1.83073604,2.60849439 L1.8299,3.79008545 L2.51405,3.7905 L2.51405,3.7905 C2.5720399,3.7905 2.61905,3.8375101 2.61905,3.8955 L2.61905,5.27555 C2.61905,5.3335399 2.5720399,5.38055 2.51405,5.38055 C2.4560601,5.38055 2.40905,5.3335399 2.40905,5.27555 L2.4089,4.00008545 L1.7234,4.0005 C1.6654101,4.0005 1.6184,3.9534899 1.6184,3.8955 L1.6199,3.88508545 L1.6201063,2.609429 C1.39324711,2.56182938 1.2229,2.36060804 1.2229,2.1196 C1.2229,1.84318148 1.44698148,1.6191 1.7234,1.6191 Z M3.5,1.82945 C3.38247189,1.82945 3.27652297,1.90026607 3.23157967,2.00886145 C3.18663638,2.11745684 3.21155454,2.24243348 3.29470955,2.3254883 C3.37786455,2.40854312 3.50287114,2.4333106 3.61141227,2.38823642 C3.7199534,2.34316224 3.7906416,2.23712803 3.79050021,2.1196 C3.7901145,1.95937793 3.66022242,1.82964234 3.5,1.82945 Z M5.2766,1.82944979 C5.15904014,1.82930845 5.05298381,1.90003457 5.00793018,2.00861869 C4.96287656,2.11720282 4.98770825,2.24223687 5.07083569,2.32536431 C5.15396313,2.40849175 5.27899718,2.43332344 5.38758131,2.38826982 C5.49616543,2.34321619 5.56689155,2.23715986 5.56675021,2.1196 C5.56655715,1.95943453 5.43676547,1.82964285 5.2766,1.82944979 Z M1.7234,1.82945 C1.60587189,1.82945 1.49992297,1.90026607 1.45497967,2.00886145 C1.41003638,2.11745684 1.43495454,2.24243348 1.51810955,2.3254883 C1.60126455,2.40854312 1.72627114,2.4333106 1.83481227,2.38823642 C1.9433534,2.34316224 2.0140416,2.23712803 2.01390021,2.1196 C2.01370686,1.95929798 1.88370214,1.82945 1.7234,1.82945 Z" id="形状结合" fill="#10253D"></path>
                </g>
            </g>
            <g id="编组-3备份-3" transform="translate(194.500000, 46.000000) scale(1, -1) translate(-194.500000, -46.000000) translate(187.000000, 42.000000)">
                <path d="M0,1 L0,7 C6.76353751e-17,7.55228475 0.44771525,8 1,8 L8.27540249,8 C8.92254138,8 9.529685,7.68688 9.90490364,7.15962322 L13.875738,1.57981161 C14.1959591,1.1298373 14.0907733,0.505470538 13.640799,0.185249428 C13.4714737,0.0647502331 13.2688122,-1.03737751e-15 13.0609874,0 L1,0 C0.44771525,1.01453063e-16 -6.76353751e-17,0.44771525 0,1 Z" id="路径-8" fill="url(#linearGradient-3)"></path>
                <g id="agora_黑科技" transform="translate(6.500000, 3.500000) rotate(90.000000) translate(-6.500000, -3.500000) translate(3.000000, 0.000000)" fill-rule="nonzero">
                    <rect id="矩形" fill="#000000" opacity="0" x="0" y="0" width="7" height="7"></rect>
                    <path d="M3.5,1.6191 C3.77641852,1.6191 4.0005,1.84318148 4.0005,2.1196 C4.00016492,2.35968192 3.83105536,2.56018691 3.60545013,2.60883613 L3.605,5.27555 C3.605,5.3335399 3.5579899,5.38055 3.5,5.38055 C3.4420101,5.38055 3.395,5.3335399 3.395,5.27555 L3.39466712,2.60899668 C3.16882707,2.5606223 2.9995,2.35988538 2.9995,2.1196 C2.9995,1.84318148 3.22358148,1.6191 3.5,1.6191 Z M5.46770213,1.6571649 C5.65476914,1.73461224 5.77675,1.91713481 5.77675,2.1196 C5.77658195,2.36041928 5.60646117,2.56148761 5.37980636,2.60930703 L5.38108381,3.88502273 C5.38142522,3.88846888 5.3816,3.89196403 5.3816,3.8955 C5.3816,3.9534899 5.3345899,4.0005 5.2766,4.0005 L4.5909,4.00008545 L4.59095,5.27555 C4.59095,5.3335399 4.5439399,5.38055 4.48595,5.38055 C4.4279601,5.38055 4.38095,5.3335399 4.38095,5.27555 L4.38095,3.8955 C4.38095,3.8375101 4.4279601,3.7905 4.48595,3.7905 L5.1689,3.79008545 L5.16873828,2.60844061 C5.01125649,2.5738202 4.87743432,2.46441614 4.81394882,2.3113757 C4.73637064,2.12436292 4.77910486,1.90903156 4.92221929,1.76581699 C5.06533372,1.62260241 5.28063513,1.57971757 5.46770213,1.6571649 Z M1.7234,1.6191 C1.99981852,1.6191 2.2239,1.84318148 2.2239,2.1196 C2.2237327,2.35909338 2.05548521,2.55925102 1.83073604,2.60849439 L1.8299,3.79008545 L2.51405,3.7905 L2.51405,3.7905 C2.5720399,3.7905 2.61905,3.8375101 2.61905,3.8955 L2.61905,5.27555 C2.61905,5.3335399 2.5720399,5.38055 2.51405,5.38055 C2.4560601,5.38055 2.40905,5.3335399 2.40905,5.27555 L2.4089,4.00008545 L1.7234,4.0005 C1.6654101,4.0005 1.6184,3.9534899 1.6184,3.8955 L1.6199,3.88508545 L1.6201063,2.609429 C1.39324711,2.56182938 1.2229,2.36060804 1.2229,2.1196 C1.2229,1.84318148 1.44698148,1.6191 1.7234,1.6191 Z M3.5,1.82945 C3.38247189,1.82945 3.27652297,1.90026607 3.23157967,2.00886145 C3.18663638,2.11745684 3.21155454,2.24243348 3.29470955,2.3254883 C3.37786455,2.40854312 3.50287114,2.4333106 3.61141227,2.38823642 C3.7199534,2.34316224 3.7906416,2.23712803 3.79050021,2.1196 C3.7901145,1.95937793 3.66022242,1.82964234 3.5,1.82945 Z M5.2766,1.82944979 C5.15904014,1.82930845 5.05298381,1.90003457 5.00793018,2.00861869 C4.96287656,2.11720282 4.98770825,2.24223687 5.07083569,2.32536431 C5.15396313,2.40849175 5.27899718,2.43332344 5.38758131,2.38826982 C5.49616543,2.34321619 5.56689155,2.23715986 5.56675021,2.1196 C5.56655715,1.95943453 5.43676547,1.82964285 5.2766,1.82944979 Z M1.7234,1.82945 C1.60587189,1.82945 1.49992297,1.90026607 1.45497967,2.00886145 C1.41003638,2.11745684 1.43495454,2.24243348 1.51810955,2.3254883 C1.60126455,2.40854312 1.72627114,2.4333106 1.83481227,2.38823642 C1.9433534,2.34316224 2.0140416,2.23712803 2.01390021,2.1196 C2.01370686,1.95929798 1.88370214,1.82945 1.7234,1.82945 Z" id="形状结合" fill="#10253D"></path>
                </g>
            </g>
            <g id="编组-3备份-2" transform="translate(7.500000, 46.000000) scale(-1, -1) translate(-7.500000, -46.000000) translate(0.000000, 42.000000)">
                <path d="M0,1 L0,7 C6.76353751e-17,7.55228475 0.44771525,8 1,8 L8.27540249,8 C8.92254138,8 9.529685,7.68688 9.90490364,7.15962322 L13.875738,1.57981161 C14.1959591,1.1298373 14.0907733,0.505470538 13.640799,0.185249428 C13.4714737,0.0647502331 13.2688122,-1.03737751e-15 13.0609874,0 L1,0 C0.44771525,1.01453063e-16 -6.76353751e-17,0.44771525 0,1 Z" id="路径-8" fill="url(#linearGradient-3)"></path>
                <g id="agora_黑科技" transform="translate(6.500000, 3.500000) rotate(90.000000) translate(-6.500000, -3.500000) translate(3.000000, 0.000000)" fill-rule="nonzero">
                    <rect id="矩形" fill="#000000" opacity="0" x="0" y="0" width="7" height="7"></rect>
                    <path d="M3.5,1.6191 C3.77641852,1.6191 4.0005,1.84318148 4.0005,2.1196 C4.00016492,2.35968192 3.83105536,2.56018691 3.60545013,2.60883613 L3.605,5.27555 C3.605,5.3335399 3.5579899,5.38055 3.5,5.38055 C3.4420101,5.38055 3.395,5.3335399 3.395,5.27555 L3.39466712,2.60899668 C3.16882707,2.5606223 2.9995,2.35988538 2.9995,2.1196 C2.9995,1.84318148 3.22358148,1.6191 3.5,1.6191 Z M5.46770213,1.6571649 C5.65476914,1.73461224 5.77675,1.91713481 5.77675,2.1196 C5.77658195,2.36041928 5.60646117,2.56148761 5.37980636,2.60930703 L5.38108381,3.88502273 C5.38142522,3.88846888 5.3816,3.89196403 5.3816,3.8955 C5.3816,3.9534899 5.3345899,4.0005 5.2766,4.0005 L4.5909,4.00008545 L4.59095,5.27555 C4.59095,5.3335399 4.5439399,5.38055 4.48595,5.38055 C4.4279601,5.38055 4.38095,5.3335399 4.38095,5.27555 L4.38095,3.8955 C4.38095,3.8375101 4.4279601,3.7905 4.48595,3.7905 L5.1689,3.79008545 L5.16873828,2.60844061 C5.01125649,2.5738202 4.87743432,2.46441614 4.81394882,2.3113757 C4.73637064,2.12436292 4.77910486,1.90903156 4.92221929,1.76581699 C5.06533372,1.62260241 5.28063513,1.57971757 5.46770213,1.6571649 Z M1.7234,1.6191 C1.99981852,1.6191 2.2239,1.84318148 2.2239,2.1196 C2.2237327,2.35909338 2.05548521,2.55925102 1.83073604,2.60849439 L1.8299,3.79008545 L2.51405,3.7905 L2.51405,3.7905 C2.5720399,3.7905 2.61905,3.8375101 2.61905,3.8955 L2.61905,5.27555 C2.61905,5.3335399 2.5720399,5.38055 2.51405,5.38055 C2.4560601,5.38055 2.40905,5.3335399 2.40905,5.27555 L2.4089,4.00008545 L1.7234,4.0005 C1.6654101,4.0005 1.6184,3.9534899 1.6184,3.8955 L1.6199,3.88508545 L1.6201063,2.609429 C1.39324711,2.56182938 1.2229,2.36060804 1.2229,2.1196 C1.2229,1.84318148 1.44698148,1.6191 1.7234,1.6191 Z M3.5,1.82945 C3.38247189,1.82945 3.27652297,1.90026607 3.23157967,2.00886145 C3.18663638,2.11745684 3.21155454,2.24243348 3.29470955,2.3254883 C3.37786455,2.40854312 3.50287114,2.4333106 3.61141227,2.38823642 C3.7199534,2.34316224 3.7906416,2.23712803 3.79050021,2.1196 C3.7901145,1.95937793 3.66022242,1.82964234 3.5,1.82945 Z M5.2766,1.82944979 C5.15904014,1.82930845 5.05298381,1.90003457 5.00793018,2.00861869 C4.96287656,2.11720282 4.98770825,2.24223687 5.07083569,2.32536431 C5.15396313,2.40849175 5.27899718,2.43332344 5.38758131,2.38826982 C5.49616543,2.34321619 5.56689155,2.23715986 5.56675021,2.1196 C5.56655715,1.95943453 5.43676547,1.82964285 5.2766,1.82944979 Z M1.7234,1.82945 C1.60587189,1.82945 1.49992297,1.90026607 1.45497967,2.00886145 C1.41003638,2.11745684 1.43495454,2.24243348 1.51810955,2.3254883 C1.60126455,2.40854312 1.72627114,2.4333106 1.83481227,2.38823642 C1.9433534,2.34316224 2.0140416,2.23712803 2.01390021,2.1196 C2.01370686,1.95929798 1.88370214,1.82945 1.7234,1.82945 Z" id="形状结合" fill="#10253D"></path>
                </g>
            </g>
        </g>
        <g id="编组-4备份-6" transform="translate(1179.000000, 7.000000)">
            <g id="编组-3备份" transform="translate(7.500000, 4.000000) scale(-1, 1) translate(-7.500000, -4.000000) ">
                <path d="M0,1 L0,7 C6.76353751e-17,7.55228475 0.44771525,8 1,8 L8.27540249,8 C8.92254138,8 9.529685,7.68688 9.90490364,7.15962322 L13.875738,1.57981161 C14.1959591,1.1298373 14.0907733,0.505470538 13.640799,0.185249428 C13.4714737,0.0647502331 13.2688122,-1.03737751e-15 13.0609874,0 L1,0 C0.44771525,1.01453063e-16 -6.76353751e-17,0.44771525 0,1 Z" id="路径-8" fill="url(#linearGradient-3)"></path>
                <g id="agora_黑科技" transform="translate(6.500000, 3.500000) rotate(90.000000) translate(-6.500000, -3.500000) translate(3.000000, 0.000000)" fill-rule="nonzero">
                    <rect id="矩形" fill="#000000" opacity="0" x="0" y="0" width="7" height="7"></rect>
                    <path d="M3.5,1.6191 C3.77641852,1.6191 4.0005,1.84318148 4.0005,2.1196 C4.00016492,2.35968192 3.83105536,2.56018691 3.60545013,2.60883613 L3.605,5.27555 C3.605,5.3335399 3.5579899,5.38055 3.5,5.38055 C3.4420101,5.38055 3.395,5.3335399 3.395,5.27555 L3.39466712,2.60899668 C3.16882707,2.5606223 2.9995,2.35988538 2.9995,2.1196 C2.9995,1.84318148 3.22358148,1.6191 3.5,1.6191 Z M5.46770213,1.6571649 C5.65476914,1.73461224 5.77675,1.91713481 5.77675,2.1196 C5.77658195,2.36041928 5.60646117,2.56148761 5.37980636,2.60930703 L5.38108381,3.88502273 C5.38142522,3.88846888 5.3816,3.89196403 5.3816,3.8955 C5.3816,3.9534899 5.3345899,4.0005 5.2766,4.0005 L4.5909,4.00008545 L4.59095,5.27555 C4.59095,5.3335399 4.5439399,5.38055 4.48595,5.38055 C4.4279601,5.38055 4.38095,5.3335399 4.38095,5.27555 L4.38095,3.8955 C4.38095,3.8375101 4.4279601,3.7905 4.48595,3.7905 L5.1689,3.79008545 L5.16873828,2.60844061 C5.01125649,2.5738202 4.87743432,2.46441614 4.81394882,2.3113757 C4.73637064,2.12436292 4.77910486,1.90903156 4.92221929,1.76581699 C5.06533372,1.62260241 5.28063513,1.57971757 5.46770213,1.6571649 Z M1.7234,1.6191 C1.99981852,1.6191 2.2239,1.84318148 2.2239,2.1196 C2.2237327,2.35909338 2.05548521,2.55925102 1.83073604,2.60849439 L1.8299,3.79008545 L2.51405,3.7905 L2.51405,3.7905 C2.5720399,3.7905 2.61905,3.8375101 2.61905,3.8955 L2.61905,5.27555 C2.61905,5.3335399 2.5720399,5.38055 2.51405,5.38055 C2.4560601,5.38055 2.40905,5.3335399 2.40905,5.27555 L2.4089,4.00008545 L1.7234,4.0005 C1.6654101,4.0005 1.6184,3.9534899 1.6184,3.8955 L1.6199,3.88508545 L1.6201063,2.609429 C1.39324711,2.56182938 1.2229,2.36060804 1.2229,2.1196 C1.2229,1.84318148 1.44698148,1.6191 1.7234,1.6191 Z M3.5,1.82945 C3.38247189,1.82945 3.27652297,1.90026607 3.23157967,2.00886145 C3.18663638,2.11745684 3.21155454,2.24243348 3.29470955,2.3254883 C3.37786455,2.40854312 3.50287114,2.4333106 3.61141227,2.38823642 C3.7199534,2.34316224 3.7906416,2.23712803 3.79050021,2.1196 C3.7901145,1.95937793 3.66022242,1.82964234 3.5,1.82945 Z M5.2766,1.82944979 C5.15904014,1.82930845 5.05298381,1.90003457 5.00793018,2.00861869 C4.96287656,2.11720282 4.98770825,2.24223687 5.07083569,2.32536431 C5.15396313,2.40849175 5.27899718,2.43332344 5.38758131,2.38826982 C5.49616543,2.34321619 5.56689155,2.23715986 5.56675021,2.1196 C5.56655715,1.95943453 5.43676547,1.82964285 5.2766,1.82944979 Z M1.7234,1.82945 C1.60587189,1.82945 1.49992297,1.90026607 1.45497967,2.00886145 C1.41003638,2.11745684 1.43495454,2.24243348 1.51810955,2.3254883 C1.60126455,2.40854312 1.72627114,2.4333106 1.83481227,2.38823642 C1.9433534,2.34316224 2.0140416,2.23712803 2.01390021,2.1196 C2.01370686,1.95929798 1.88370214,1.82945 1.7234,1.82945 Z" id="形状结合" fill="#10253D"></path>
                </g>
            </g>
            <g id="编组-3备份-2" transform="translate(7.500000, 46.000000) scale(-1, -1) translate(-7.500000, -46.000000) translate(0.000000, 42.000000)">
                <path d="M0,1 L0,7 C6.76353751e-17,7.55228475 0.44771525,8 1,8 L8.27540249,8 C8.92254138,8 9.529685,7.68688 9.90490364,7.15962322 L13.875738,1.57981161 C14.1959591,1.1298373 14.0907733,0.505470538 13.640799,0.185249428 C13.4714737,0.0647502331 13.2688122,-1.03737751e-15 13.0609874,0 L1,0 C0.44771525,1.01453063e-16 -6.76353751e-17,0.44771525 0,1 Z" id="路径-8" fill="url(#linearGradient-3)"></path>
                <g id="agora_黑科技" transform="translate(6.500000, 3.500000) rotate(90.000000) translate(-6.500000, -3.500000) translate(3.000000, 0.000000)" fill-rule="nonzero">
                    <rect id="矩形" fill="#000000" opacity="0" x="0" y="0" width="7" height="7"></rect>
                    <path d="M3.5,1.6191 C3.77641852,1.6191 4.0005,1.84318148 4.0005,2.1196 C4.00016492,2.35968192 3.83105536,2.56018691 3.60545013,2.60883613 L3.605,5.27555 C3.605,5.3335399 3.5579899,5.38055 3.5,5.38055 C3.4420101,5.38055 3.395,5.3335399 3.395,5.27555 L3.39466712,2.60899668 C3.16882707,2.5606223 2.9995,2.35988538 2.9995,2.1196 C2.9995,1.84318148 3.22358148,1.6191 3.5,1.6191 Z M5.46770213,1.6571649 C5.65476914,1.73461224 5.77675,1.91713481 5.77675,2.1196 C5.77658195,2.36041928 5.60646117,2.56148761 5.37980636,2.60930703 L5.38108381,3.88502273 C5.38142522,3.88846888 5.3816,3.89196403 5.3816,3.8955 C5.3816,3.9534899 5.3345899,4.0005 5.2766,4.0005 L4.5909,4.00008545 L4.59095,5.27555 C4.59095,5.3335399 4.5439399,5.38055 4.48595,5.38055 C4.4279601,5.38055 4.38095,5.3335399 4.38095,5.27555 L4.38095,3.8955 C4.38095,3.8375101 4.4279601,3.7905 4.48595,3.7905 L5.1689,3.79008545 L5.16873828,2.60844061 C5.01125649,2.5738202 4.87743432,2.46441614 4.81394882,2.3113757 C4.73637064,2.12436292 4.77910486,1.90903156 4.92221929,1.76581699 C5.06533372,1.62260241 5.28063513,1.57971757 5.46770213,1.6571649 Z M1.7234,1.6191 C1.99981852,1.6191 2.2239,1.84318148 2.2239,2.1196 C2.2237327,2.35909338 2.05548521,2.55925102 1.83073604,2.60849439 L1.8299,3.79008545 L2.51405,3.7905 L2.51405,3.7905 C2.5720399,3.7905 2.61905,3.8375101 2.61905,3.8955 L2.61905,5.27555 C2.61905,5.3335399 2.5720399,5.38055 2.51405,5.38055 C2.4560601,5.38055 2.40905,5.3335399 2.40905,5.27555 L2.4089,4.00008545 L1.7234,4.0005 C1.6654101,4.0005 1.6184,3.9534899 1.6184,3.8955 L1.6199,3.88508545 L1.6201063,2.609429 C1.39324711,2.56182938 1.2229,2.36060804 1.2229,2.1196 C1.2229,1.84318148 1.44698148,1.6191 1.7234,1.6191 Z M3.5,1.82945 C3.38247189,1.82945 3.27652297,1.90026607 3.23157967,2.00886145 C3.18663638,2.11745684 3.21155454,2.24243348 3.29470955,2.3254883 C3.37786455,2.40854312 3.50287114,2.4333106 3.61141227,2.38823642 C3.7199534,2.34316224 3.7906416,2.23712803 3.79050021,2.1196 C3.7901145,1.95937793 3.66022242,1.82964234 3.5,1.82945 Z M5.2766,1.82944979 C5.15904014,1.82930845 5.05298381,1.90003457 5.00793018,2.00861869 C4.96287656,2.11720282 4.98770825,2.24223687 5.07083569,2.32536431 C5.15396313,2.40849175 5.27899718,2.43332344 5.38758131,2.38826982 C5.49616543,2.34321619 5.56689155,2.23715986 5.56675021,2.1196 C5.56655715,1.95943453 5.43676547,1.82964285 5.2766,1.82944979 Z M1.7234,1.82945 C1.60587189,1.82945 1.49992297,1.90026607 1.45497967,2.00886145 C1.41003638,2.11745684 1.43495454,2.24243348 1.51810955,2.3254883 C1.60126455,2.40854312 1.72627114,2.4333106 1.83481227,2.38823642 C1.9433534,2.34316224 2.0140416,2.23712803 2.01390021,2.1196 C2.01370686,1.95929798 1.88370214,1.82945 1.7234,1.82945 Z" id="形状结合" fill="#10253D"></path>
                </g>
            </g>
        </g>
        <g id="编组-4备份-4" transform="translate(89.500000, 32.000000) scale(-1, 1) translate(-89.500000, -32.000000) translate(82.000000, 7.000000)">
            <g id="编组-3备份" transform="translate(7.500000, 4.000000) scale(-1, 1) translate(-7.500000, -4.000000) ">
                <path d="M0,1 L0,7 C6.76353751e-17,7.55228475 0.44771525,8 1,8 L8.27540249,8 C8.92254138,8 9.529685,7.68688 9.90490364,7.15962322 L13.875738,1.57981161 C14.1959591,1.1298373 14.0907733,0.505470538 13.640799,0.185249428 C13.4714737,0.0647502331 13.2688122,-1.03737751e-15 13.0609874,0 L1,0 C0.44771525,1.01453063e-16 -6.76353751e-17,0.44771525 0,1 Z" id="路径-8" fill="url(#linearGradient-3)"></path>
                <g id="agora_黑科技" transform="translate(6.500000, 3.500000) rotate(90.000000) translate(-6.500000, -3.500000) translate(3.000000, 0.000000)" fill-rule="nonzero">
                    <rect id="矩形" fill="#000000" opacity="0" x="0" y="0" width="7" height="7"></rect>
                    <path d="M3.5,1.6191 C3.77641852,1.6191 4.0005,1.84318148 4.0005,2.1196 C4.00016492,2.35968192 3.83105536,2.56018691 3.60545013,2.60883613 L3.605,5.27555 C3.605,5.3335399 3.5579899,5.38055 3.5,5.38055 C3.4420101,5.38055 3.395,5.3335399 3.395,5.27555 L3.39466712,2.60899668 C3.16882707,2.5606223 2.9995,2.35988538 2.9995,2.1196 C2.9995,1.84318148 3.22358148,1.6191 3.5,1.6191 Z M5.46770213,1.6571649 C5.65476914,1.73461224 5.77675,1.91713481 5.77675,2.1196 C5.77658195,2.36041928 5.60646117,2.56148761 5.37980636,2.60930703 L5.38108381,3.88502273 C5.38142522,3.88846888 5.3816,3.89196403 5.3816,3.8955 C5.3816,3.9534899 5.3345899,4.0005 5.2766,4.0005 L4.5909,4.00008545 L4.59095,5.27555 C4.59095,5.3335399 4.5439399,5.38055 4.48595,5.38055 C4.4279601,5.38055 4.38095,5.3335399 4.38095,5.27555 L4.38095,3.8955 C4.38095,3.8375101 4.4279601,3.7905 4.48595,3.7905 L5.1689,3.79008545 L5.16873828,2.60844061 C5.01125649,2.5738202 4.87743432,2.46441614 4.81394882,2.3113757 C4.73637064,2.12436292 4.77910486,1.90903156 4.92221929,1.76581699 C5.06533372,1.62260241 5.28063513,1.57971757 5.46770213,1.6571649 Z M1.7234,1.6191 C1.99981852,1.6191 2.2239,1.84318148 2.2239,2.1196 C2.2237327,2.35909338 2.05548521,2.55925102 1.83073604,2.60849439 L1.8299,3.79008545 L2.51405,3.7905 L2.51405,3.7905 C2.5720399,3.7905 2.61905,3.8375101 2.61905,3.8955 L2.61905,5.27555 C2.61905,5.3335399 2.5720399,5.38055 2.51405,5.38055 C2.4560601,5.38055 2.40905,5.3335399 2.40905,5.27555 L2.4089,4.00008545 L1.7234,4.0005 C1.6654101,4.0005 1.6184,3.9534899 1.6184,3.8955 L1.6199,3.88508545 L1.6201063,2.609429 C1.39324711,2.56182938 1.2229,2.36060804 1.2229,2.1196 C1.2229,1.84318148 1.44698148,1.6191 1.7234,1.6191 Z M3.5,1.82945 C3.38247189,1.82945 3.27652297,1.90026607 3.23157967,2.00886145 C3.18663638,2.11745684 3.21155454,2.24243348 3.29470955,2.3254883 C3.37786455,2.40854312 3.50287114,2.4333106 3.61141227,2.38823642 C3.7199534,2.34316224 3.7906416,2.23712803 3.79050021,2.1196 C3.7901145,1.95937793 3.66022242,1.82964234 3.5,1.82945 Z M5.2766,1.82944979 C5.15904014,1.82930845 5.05298381,1.90003457 5.00793018,2.00861869 C4.96287656,2.11720282 4.98770825,2.24223687 5.07083569,2.32536431 C5.15396313,2.40849175 5.27899718,2.43332344 5.38758131,2.38826982 C5.49616543,2.34321619 5.56689155,2.23715986 5.56675021,2.1196 C5.56655715,1.95943453 5.43676547,1.82964285 5.2766,1.82944979 Z M1.7234,1.82945 C1.60587189,1.82945 1.49992297,1.90026607 1.45497967,2.00886145 C1.41003638,2.11745684 1.43495454,2.24243348 1.51810955,2.3254883 C1.60126455,2.40854312 1.72627114,2.4333106 1.83481227,2.38823642 C1.9433534,2.34316224 2.0140416,2.23712803 2.01390021,2.1196 C2.01370686,1.95929798 1.88370214,1.82945 1.7234,1.82945 Z" id="形状结合" fill="#10253D"></path>
                </g>
            </g>
            <g id="编组-3备份-2" transform="translate(7.500000, 46.000000) scale(-1, -1) translate(-7.500000, -46.000000) translate(0.000000, 42.000000)">
                <path d="M0,1 L0,7 C6.76353751e-17,7.55228475 0.44771525,8 1,8 L8.27540249,8 C8.92254138,8 9.529685,7.68688 9.90490364,7.15962322 L13.875738,1.57981161 C14.1959591,1.1298373 14.0907733,0.505470538 13.640799,0.185249428 C13.4714737,0.0647502331 13.2688122,-1.03737751e-15 13.0609874,0 L1,0 C0.44771525,1.01453063e-16 -6.76353751e-17,0.44771525 0,1 Z" id="路径-8" fill="url(#linearGradient-3)"></path>
                <g id="agora_黑科技" transform="translate(6.500000, 3.500000) rotate(90.000000) translate(-6.500000, -3.500000) translate(3.000000, 0.000000)" fill-rule="nonzero">
                    <rect id="矩形" fill="#000000" opacity="0" x="0" y="0" width="7" height="7"></rect>
                    <path d="M3.5,1.6191 C3.77641852,1.6191 4.0005,1.84318148 4.0005,2.1196 C4.00016492,2.35968192 3.83105536,2.56018691 3.60545013,2.60883613 L3.605,5.27555 C3.605,5.3335399 3.5579899,5.38055 3.5,5.38055 C3.4420101,5.38055 3.395,5.3335399 3.395,5.27555 L3.39466712,2.60899668 C3.16882707,2.5606223 2.9995,2.35988538 2.9995,2.1196 C2.9995,1.84318148 3.22358148,1.6191 3.5,1.6191 Z M5.46770213,1.6571649 C5.65476914,1.73461224 5.77675,1.91713481 5.77675,2.1196 C5.77658195,2.36041928 5.60646117,2.56148761 5.37980636,2.60930703 L5.38108381,3.88502273 C5.38142522,3.88846888 5.3816,3.89196403 5.3816,3.8955 C5.3816,3.9534899 5.3345899,4.0005 5.2766,4.0005 L4.5909,4.00008545 L4.59095,5.27555 C4.59095,5.3335399 4.5439399,5.38055 4.48595,5.38055 C4.4279601,5.38055 4.38095,5.3335399 4.38095,5.27555 L4.38095,3.8955 C4.38095,3.8375101 4.4279601,3.7905 4.48595,3.7905 L5.1689,3.79008545 L5.16873828,2.60844061 C5.01125649,2.5738202 4.87743432,2.46441614 4.81394882,2.3113757 C4.73637064,2.12436292 4.77910486,1.90903156 4.92221929,1.76581699 C5.06533372,1.62260241 5.28063513,1.57971757 5.46770213,1.6571649 Z M1.7234,1.6191 C1.99981852,1.6191 2.2239,1.84318148 2.2239,2.1196 C2.2237327,2.35909338 2.05548521,2.55925102 1.83073604,2.60849439 L1.8299,3.79008545 L2.51405,3.7905 L2.51405,3.7905 C2.5720399,3.7905 2.61905,3.8375101 2.61905,3.8955 L2.61905,5.27555 C2.61905,5.3335399 2.5720399,5.38055 2.51405,5.38055 C2.4560601,5.38055 2.40905,5.3335399 2.40905,5.27555 L2.4089,4.00008545 L1.7234,4.0005 C1.6654101,4.0005 1.6184,3.9534899 1.6184,3.8955 L1.6199,3.88508545 L1.6201063,2.609429 C1.39324711,2.56182938 1.2229,2.36060804 1.2229,2.1196 C1.2229,1.84318148 1.44698148,1.6191 1.7234,1.6191 Z M3.5,1.82945 C3.38247189,1.82945 3.27652297,1.90026607 3.23157967,2.00886145 C3.18663638,2.11745684 3.21155454,2.24243348 3.29470955,2.3254883 C3.37786455,2.40854312 3.50287114,2.4333106 3.61141227,2.38823642 C3.7199534,2.34316224 3.7906416,2.23712803 3.79050021,2.1196 C3.7901145,1.95937793 3.66022242,1.82964234 3.5,1.82945 Z M5.2766,1.82944979 C5.15904014,1.82930845 5.05298381,1.90003457 5.00793018,2.00861869 C4.96287656,2.11720282 4.98770825,2.24223687 5.07083569,2.32536431 C5.15396313,2.40849175 5.27899718,2.43332344 5.38758131,2.38826982 C5.49616543,2.34321619 5.56689155,2.23715986 5.56675021,2.1196 C5.56655715,1.95943453 5.43676547,1.82964285 5.2766,1.82944979 Z M1.7234,1.82945 C1.60587189,1.82945 1.49992297,1.90026607 1.45497967,2.00886145 C1.41003638,2.11745684 1.43495454,2.24243348 1.51810955,2.3254883 C1.60126455,2.40854312 1.72627114,2.4333106 1.83481227,2.38823642 C1.9433534,2.34316224 2.0140416,2.23712803 2.01390021,2.1196 C2.01370686,1.95929798 1.88370214,1.82945 1.7234,1.82945 Z" id="形状结合" fill="#10253D"></path>
                </g>
            </g>
        </g>
        <g id="编组-4备份" transform="translate(152.000000, 7.000000)">
            <g id="编组-3" transform="translate(187.000000, 0.000000)">
                <path d="M0,1 L0,7 C6.76353751e-17,7.55228475 0.44771525,8 1,8 L8.27540249,8 C8.92254138,8 9.529685,7.68688 9.90490364,7.15962322 L13.875738,1.57981161 C14.1959591,1.1298373 14.0907733,0.505470538 13.640799,0.185249428 C13.4714737,0.0647502331 13.2688122,-1.03737751e-15 13.0609874,0 L1,0 C0.44771525,1.01453063e-16 -6.76353751e-17,0.44771525 0,1 Z" id="路径-8" fill="url(#linearGradient-3)"></path>
                <g id="agora_黑科技" transform="translate(6.500000, 3.500000) rotate(90.000000) translate(-6.500000, -3.500000) translate(3.000000, 0.000000)" fill-rule="nonzero">
                    <rect id="矩形" fill="#000000" opacity="0" x="0" y="0" width="7" height="7"></rect>
                    <path d="M3.5,1.6191 C3.77641852,1.6191 4.0005,1.84318148 4.0005,2.1196 C4.00016492,2.35968192 3.83105536,2.56018691 3.60545013,2.60883613 L3.605,5.27555 C3.605,5.3335399 3.5579899,5.38055 3.5,5.38055 C3.4420101,5.38055 3.395,5.3335399 3.395,5.27555 L3.39466712,2.60899668 C3.16882707,2.5606223 2.9995,2.35988538 2.9995,2.1196 C2.9995,1.84318148 3.22358148,1.6191 3.5,1.6191 Z M5.46770213,1.6571649 C5.65476914,1.73461224 5.77675,1.91713481 5.77675,2.1196 C5.77658195,2.36041928 5.60646117,2.56148761 5.37980636,2.60930703 L5.38108381,3.88502273 C5.38142522,3.88846888 5.3816,3.89196403 5.3816,3.8955 C5.3816,3.9534899 5.3345899,4.0005 5.2766,4.0005 L4.5909,4.00008545 L4.59095,5.27555 C4.59095,5.3335399 4.5439399,5.38055 4.48595,5.38055 C4.4279601,5.38055 4.38095,5.3335399 4.38095,5.27555 L4.38095,3.8955 C4.38095,3.8375101 4.4279601,3.7905 4.48595,3.7905 L5.1689,3.79008545 L5.16873828,2.60844061 C5.01125649,2.5738202 4.87743432,2.46441614 4.81394882,2.3113757 C4.73637064,2.12436292 4.77910486,1.90903156 4.92221929,1.76581699 C5.06533372,1.62260241 5.28063513,1.57971757 5.46770213,1.6571649 Z M1.7234,1.6191 C1.99981852,1.6191 2.2239,1.84318148 2.2239,2.1196 C2.2237327,2.35909338 2.05548521,2.55925102 1.83073604,2.60849439 L1.8299,3.79008545 L2.51405,3.7905 L2.51405,3.7905 C2.5720399,3.7905 2.61905,3.8375101 2.61905,3.8955 L2.61905,5.27555 C2.61905,5.3335399 2.5720399,5.38055 2.51405,5.38055 C2.4560601,5.38055 2.40905,5.3335399 2.40905,5.27555 L2.4089,4.00008545 L1.7234,4.0005 C1.6654101,4.0005 1.6184,3.9534899 1.6184,3.8955 L1.6199,3.88508545 L1.6201063,2.609429 C1.39324711,2.56182938 1.2229,2.36060804 1.2229,2.1196 C1.2229,1.84318148 1.44698148,1.6191 1.7234,1.6191 Z M3.5,1.82945 C3.38247189,1.82945 3.27652297,1.90026607 3.23157967,2.00886145 C3.18663638,2.11745684 3.21155454,2.24243348 3.29470955,2.3254883 C3.37786455,2.40854312 3.50287114,2.4333106 3.61141227,2.38823642 C3.7199534,2.34316224 3.7906416,2.23712803 3.79050021,2.1196 C3.7901145,1.95937793 3.66022242,1.82964234 3.5,1.82945 Z M5.2766,1.82944979 C5.15904014,1.82930845 5.05298381,1.90003457 5.00793018,2.00861869 C4.96287656,2.11720282 4.98770825,2.24223687 5.07083569,2.32536431 C5.15396313,2.40849175 5.27899718,2.43332344 5.38758131,2.38826982 C5.49616543,2.34321619 5.56689155,2.23715986 5.56675021,2.1196 C5.56655715,1.95943453 5.43676547,1.82964285 5.2766,1.82944979 Z M1.7234,1.82945 C1.60587189,1.82945 1.49992297,1.90026607 1.45497967,2.00886145 C1.41003638,2.11745684 1.43495454,2.24243348 1.51810955,2.3254883 C1.60126455,2.40854312 1.72627114,2.4333106 1.83481227,2.38823642 C1.9433534,2.34316224 2.0140416,2.23712803 2.01390021,2.1196 C2.01370686,1.95929798 1.88370214,1.82945 1.7234,1.82945 Z" id="形状结合" fill="#10253D"></path>
                </g>
            </g>
            <g id="编组-3备份" transform="translate(7.500000, 4.000000) scale(-1, 1) translate(-7.500000, -4.000000) ">
                <path d="M0,1 L0,7 C6.76353751e-17,7.55228475 0.44771525,8 1,8 L8.27540249,8 C8.92254138,8 9.529685,7.68688 9.90490364,7.15962322 L13.875738,1.57981161 C14.1959591,1.1298373 14.0907733,0.505470538 13.640799,0.185249428 C13.4714737,0.0647502331 13.2688122,-1.03737751e-15 13.0609874,0 L1,0 C0.44771525,1.01453063e-16 -6.76353751e-17,0.44771525 0,1 Z" id="路径-8" fill="url(#linearGradient-3)"></path>
                <g id="agora_黑科技" transform="translate(6.500000, 3.500000) rotate(90.000000) translate(-6.500000, -3.500000) translate(3.000000, 0.000000)" fill-rule="nonzero">
                    <rect id="矩形" fill="#000000" opacity="0" x="0" y="0" width="7" height="7"></rect>
                    <path d="M3.5,1.6191 C3.77641852,1.6191 4.0005,1.84318148 4.0005,2.1196 C4.00016492,2.35968192 3.83105536,2.56018691 3.60545013,2.60883613 L3.605,5.27555 C3.605,5.3335399 3.5579899,5.38055 3.5,5.38055 C3.4420101,5.38055 3.395,5.3335399 3.395,5.27555 L3.39466712,2.60899668 C3.16882707,2.5606223 2.9995,2.35988538 2.9995,2.1196 C2.9995,1.84318148 3.22358148,1.6191 3.5,1.6191 Z M5.46770213,1.6571649 C5.65476914,1.73461224 5.77675,1.91713481 5.77675,2.1196 C5.77658195,2.36041928 5.60646117,2.56148761 5.37980636,2.60930703 L5.38108381,3.88502273 C5.38142522,3.88846888 5.3816,3.89196403 5.3816,3.8955 C5.3816,3.9534899 5.3345899,4.0005 5.2766,4.0005 L4.5909,4.00008545 L4.59095,5.27555 C4.59095,5.3335399 4.5439399,5.38055 4.48595,5.38055 C4.4279601,5.38055 4.38095,5.3335399 4.38095,5.27555 L4.38095,3.8955 C4.38095,3.8375101 4.4279601,3.7905 4.48595,3.7905 L5.1689,3.79008545 L5.16873828,2.60844061 C5.01125649,2.5738202 4.87743432,2.46441614 4.81394882,2.3113757 C4.73637064,2.12436292 4.77910486,1.90903156 4.92221929,1.76581699 C5.06533372,1.62260241 5.28063513,1.57971757 5.46770213,1.6571649 Z M1.7234,1.6191 C1.99981852,1.6191 2.2239,1.84318148 2.2239,2.1196 C2.2237327,2.35909338 2.05548521,2.55925102 1.83073604,2.60849439 L1.8299,3.79008545 L2.51405,3.7905 L2.51405,3.7905 C2.5720399,3.7905 2.61905,3.8375101 2.61905,3.8955 L2.61905,5.27555 C2.61905,5.3335399 2.5720399,5.38055 2.51405,5.38055 C2.4560601,5.38055 2.40905,5.3335399 2.40905,5.27555 L2.4089,4.00008545 L1.7234,4.0005 C1.6654101,4.0005 1.6184,3.9534899 1.6184,3.8955 L1.6199,3.88508545 L1.6201063,2.609429 C1.39324711,2.56182938 1.2229,2.36060804 1.2229,2.1196 C1.2229,1.84318148 1.44698148,1.6191 1.7234,1.6191 Z M3.5,1.82945 C3.38247189,1.82945 3.27652297,1.90026607 3.23157967,2.00886145 C3.18663638,2.11745684 3.21155454,2.24243348 3.29470955,2.3254883 C3.37786455,2.40854312 3.50287114,2.4333106 3.61141227,2.38823642 C3.7199534,2.34316224 3.7906416,2.23712803 3.79050021,2.1196 C3.7901145,1.95937793 3.66022242,1.82964234 3.5,1.82945 Z M5.2766,1.82944979 C5.15904014,1.82930845 5.05298381,1.90003457 5.00793018,2.00861869 C4.96287656,2.11720282 4.98770825,2.24223687 5.07083569,2.32536431 C5.15396313,2.40849175 5.27899718,2.43332344 5.38758131,2.38826982 C5.49616543,2.34321619 5.56689155,2.23715986 5.56675021,2.1196 C5.56655715,1.95943453 5.43676547,1.82964285 5.2766,1.82944979 Z M1.7234,1.82945 C1.60587189,1.82945 1.49992297,1.90026607 1.45497967,2.00886145 C1.41003638,2.11745684 1.43495454,2.24243348 1.51810955,2.3254883 C1.60126455,2.40854312 1.72627114,2.4333106 1.83481227,2.38823642 C1.9433534,2.34316224 2.0140416,2.23712803 2.01390021,2.1196 C2.01370686,1.95929798 1.88370214,1.82945 1.7234,1.82945 Z" id="形状结合" fill="#10253D"></path>
                </g>
            </g>
            <g id="编组-3备份-3" transform="translate(194.500000, 46.000000) scale(1, -1) translate(-194.500000, -46.000000) translate(187.000000, 42.000000)">
                <path d="M0,1 L0,7 C6.76353751e-17,7.55228475 0.44771525,8 1,8 L8.27540249,8 C8.92254138,8 9.529685,7.68688 9.90490364,7.15962322 L13.875738,1.57981161 C14.1959591,1.1298373 14.0907733,0.505470538 13.640799,0.185249428 C13.4714737,0.0647502331 13.2688122,-1.03737751e-15 13.0609874,0 L1,0 C0.44771525,1.01453063e-16 -6.76353751e-17,0.44771525 0,1 Z" id="路径-8" fill="url(#linearGradient-3)"></path>
                <g id="agora_黑科技" transform="translate(6.500000, 3.500000) rotate(90.000000) translate(-6.500000, -3.500000) translate(3.000000, 0.000000)" fill-rule="nonzero">
                    <rect id="矩形" fill="#000000" opacity="0" x="0" y="0" width="7" height="7"></rect>
                    <path d="M3.5,1.6191 C3.77641852,1.6191 4.0005,1.84318148 4.0005,2.1196 C4.00016492,2.35968192 3.83105536,2.56018691 3.60545013,2.60883613 L3.605,5.27555 C3.605,5.3335399 3.5579899,5.38055 3.5,5.38055 C3.4420101,5.38055 3.395,5.3335399 3.395,5.27555 L3.39466712,2.60899668 C3.16882707,2.5606223 2.9995,2.35988538 2.9995,2.1196 C2.9995,1.84318148 3.22358148,1.6191 3.5,1.6191 Z M5.46770213,1.6571649 C5.65476914,1.73461224 5.77675,1.91713481 5.77675,2.1196 C5.77658195,2.36041928 5.60646117,2.56148761 5.37980636,2.60930703 L5.38108381,3.88502273 C5.38142522,3.88846888 5.3816,3.89196403 5.3816,3.8955 C5.3816,3.9534899 5.3345899,4.0005 5.2766,4.0005 L4.5909,4.00008545 L4.59095,5.27555 C4.59095,5.3335399 4.5439399,5.38055 4.48595,5.38055 C4.4279601,5.38055 4.38095,5.3335399 4.38095,5.27555 L4.38095,3.8955 C4.38095,3.8375101 4.4279601,3.7905 4.48595,3.7905 L5.1689,3.79008545 L5.16873828,2.60844061 C5.01125649,2.5738202 4.87743432,2.46441614 4.81394882,2.3113757 C4.73637064,2.12436292 4.77910486,1.90903156 4.92221929,1.76581699 C5.06533372,1.62260241 5.28063513,1.57971757 5.46770213,1.6571649 Z M1.7234,1.6191 C1.99981852,1.6191 2.2239,1.84318148 2.2239,2.1196 C2.2237327,2.35909338 2.05548521,2.55925102 1.83073604,2.60849439 L1.8299,3.79008545 L2.51405,3.7905 L2.51405,3.7905 C2.5720399,3.7905 2.61905,3.8375101 2.61905,3.8955 L2.61905,5.27555 C2.61905,5.3335399 2.5720399,5.38055 2.51405,5.38055 C2.4560601,5.38055 2.40905,5.3335399 2.40905,5.27555 L2.4089,4.00008545 L1.7234,4.0005 C1.6654101,4.0005 1.6184,3.9534899 1.6184,3.8955 L1.6199,3.88508545 L1.6201063,2.609429 C1.39324711,2.56182938 1.2229,2.36060804 1.2229,2.1196 C1.2229,1.84318148 1.44698148,1.6191 1.7234,1.6191 Z M3.5,1.82945 C3.38247189,1.82945 3.27652297,1.90026607 3.23157967,2.00886145 C3.18663638,2.11745684 3.21155454,2.24243348 3.29470955,2.3254883 C3.37786455,2.40854312 3.50287114,2.4333106 3.61141227,2.38823642 C3.7199534,2.34316224 3.7906416,2.23712803 3.79050021,2.1196 C3.7901145,1.95937793 3.66022242,1.82964234 3.5,1.82945 Z M5.2766,1.82944979 C5.15904014,1.82930845 5.05298381,1.90003457 5.00793018,2.00861869 C4.96287656,2.11720282 4.98770825,2.24223687 5.07083569,2.32536431 C5.15396313,2.40849175 5.27899718,2.43332344 5.38758131,2.38826982 C5.49616543,2.34321619 5.56689155,2.23715986 5.56675021,2.1196 C5.56655715,1.95943453 5.43676547,1.82964285 5.2766,1.82944979 Z M1.7234,1.82945 C1.60587189,1.82945 1.49992297,1.90026607 1.45497967,2.00886145 C1.41003638,2.11745684 1.43495454,2.24243348 1.51810955,2.3254883 C1.60126455,2.40854312 1.72627114,2.4333106 1.83481227,2.38823642 C1.9433534,2.34316224 2.0140416,2.23712803 2.01390021,2.1196 C2.01370686,1.95929798 1.88370214,1.82945 1.7234,1.82945 Z" id="形状结合" fill="#10253D"></path>
                </g>
            </g>
            <g id="编组-3备份-2" transform="translate(7.500000, 46.000000) scale(-1, -1) translate(-7.500000, -46.000000) translate(0.000000, 42.000000)">
                <path d="M0,1 L0,7 C6.76353751e-17,7.55228475 0.44771525,8 1,8 L8.27540249,8 C8.92254138,8 9.529685,7.68688 9.90490364,7.15962322 L13.875738,1.57981161 C14.1959591,1.1298373 14.0907733,0.505470538 13.640799,0.185249428 C13.4714737,0.0647502331 13.2688122,-1.03737751e-15 13.0609874,0 L1,0 C0.44771525,1.01453063e-16 -6.76353751e-17,0.44771525 0,1 Z" id="路径-8" fill="url(#linearGradient-3)"></path>
                <g id="agora_黑科技" transform="translate(6.500000, 3.500000) rotate(90.000000) translate(-6.500000, -3.500000) translate(3.000000, 0.000000)" fill-rule="nonzero">
                    <rect id="矩形" fill="#000000" opacity="0" x="0" y="0" width="7" height="7"></rect>
                    <path d="M3.5,1.6191 C3.77641852,1.6191 4.0005,1.84318148 4.0005,2.1196 C4.00016492,2.35968192 3.83105536,2.56018691 3.60545013,2.60883613 L3.605,5.27555 C3.605,5.3335399 3.5579899,5.38055 3.5,5.38055 C3.4420101,5.38055 3.395,5.3335399 3.395,5.27555 L3.39466712,2.60899668 C3.16882707,2.5606223 2.9995,2.35988538 2.9995,2.1196 C2.9995,1.84318148 3.22358148,1.6191 3.5,1.6191 Z M5.46770213,1.6571649 C5.65476914,1.73461224 5.77675,1.91713481 5.77675,2.1196 C5.77658195,2.36041928 5.60646117,2.56148761 5.37980636,2.60930703 L5.38108381,3.88502273 C5.38142522,3.88846888 5.3816,3.89196403 5.3816,3.8955 C5.3816,3.9534899 5.3345899,4.0005 5.2766,4.0005 L4.5909,4.00008545 L4.59095,5.27555 C4.59095,5.3335399 4.5439399,5.38055 4.48595,5.38055 C4.4279601,5.38055 4.38095,5.3335399 4.38095,5.27555 L4.38095,3.8955 C4.38095,3.8375101 4.4279601,3.7905 4.48595,3.7905 L5.1689,3.79008545 L5.16873828,2.60844061 C5.01125649,2.5738202 4.87743432,2.46441614 4.81394882,2.3113757 C4.73637064,2.12436292 4.77910486,1.90903156 4.92221929,1.76581699 C5.06533372,1.62260241 5.28063513,1.57971757 5.46770213,1.6571649 Z M1.7234,1.6191 C1.99981852,1.6191 2.2239,1.84318148 2.2239,2.1196 C2.2237327,2.35909338 2.05548521,2.55925102 1.83073604,2.60849439 L1.8299,3.79008545 L2.51405,3.7905 L2.51405,3.7905 C2.5720399,3.7905 2.61905,3.8375101 2.61905,3.8955 L2.61905,5.27555 C2.61905,5.3335399 2.5720399,5.38055 2.51405,5.38055 C2.4560601,5.38055 2.40905,5.3335399 2.40905,5.27555 L2.4089,4.00008545 L1.7234,4.0005 C1.6654101,4.0005 1.6184,3.9534899 1.6184,3.8955 L1.6199,3.88508545 L1.6201063,2.609429 C1.39324711,2.56182938 1.2229,2.36060804 1.2229,2.1196 C1.2229,1.84318148 1.44698148,1.6191 1.7234,1.6191 Z M3.5,1.82945 C3.38247189,1.82945 3.27652297,1.90026607 3.23157967,2.00886145 C3.18663638,2.11745684 3.21155454,2.24243348 3.29470955,2.3254883 C3.37786455,2.40854312 3.50287114,2.4333106 3.61141227,2.38823642 C3.7199534,2.34316224 3.7906416,2.23712803 3.79050021,2.1196 C3.7901145,1.95937793 3.66022242,1.82964234 3.5,1.82945 Z M5.2766,1.82944979 C5.15904014,1.82930845 5.05298381,1.90003457 5.00793018,2.00861869 C4.96287656,2.11720282 4.98770825,2.24223687 5.07083569,2.32536431 C5.15396313,2.40849175 5.27899718,2.43332344 5.38758131,2.38826982 C5.49616543,2.34321619 5.56689155,2.23715986 5.56675021,2.1196 C5.56655715,1.95943453 5.43676547,1.82964285 5.2766,1.82944979 Z M1.7234,1.82945 C1.60587189,1.82945 1.49992297,1.90026607 1.45497967,2.00886145 C1.41003638,2.11745684 1.43495454,2.24243348 1.51810955,2.3254883 C1.60126455,2.40854312 1.72627114,2.4333106 1.83481227,2.38823642 C1.9433534,2.34316224 2.0140416,2.23712803 2.01390021,2.1196 C2.01370686,1.95929798 1.88370214,1.82945 1.7234,1.82945 Z" id="形状结合" fill="#10253D"></path>
                </g>
            </g>
        </g>
        <polygon id="矩形" fill="url(#linearGradient-4)" opacity="0.5" transform="translate(509.459449, 32.033905) scale(1, -1) translate(-509.459449, -32.033905) " points="406 5.22188955 612.918898 5 612.918898 59.0678092 406 59.0678092 421.797367 34 421.797367 30.0678092"></polygon>
        <polygon id="矩形" fill="url(#linearGradient-4)" opacity="0.5" transform="translate(767.459449, 32.033905) scale(1, -1) translate(-767.459449, -32.033905) " points="664 5.22188955 870.918898 5 870.918898 59.0678092 664 59.0678092 679.797367 34 679.797367 30.0678092"></polygon>
        <polygon id="矩形" fill="url(#linearGradient-4)" opacity="0.5" transform="translate(1024.459449, 32.033905) scale(1, -1) translate(-1024.459449, -32.033905) " points="921 5.22188955 1127.9189 5 1127.9189 59.0678092 921 59.0678092 936.797367 34 936.797367 30.0678092"></polygon>
        <polygon id="矩形" fill="url(#linearGradient-4)" opacity="0.5" transform="translate(252.459449, 32.033905) scale(1, -1) translate(-252.459449, -32.033905) " points="149 5.22188955 355.918898 5 355.918898 59.0678092 149 59.0678092 164.797367 34 164.797367 30.0678092"></polygon>
        <polygon id="矩形" fill="url(#linearGradient-4)" opacity="0.5" transform="translate(-3.540551, 32.033905) scale(1, -1) translate(3.540551, -32.033905) " points="-107 5.22188955 99.9188977 5 99.9188977 59.0678092 -107 59.0678092 -91.2026326 34 -91.2026326 30.0678092"></polygon>
        <polygon id="矩形备份-13" fill="url(#linearGradient-4)" opacity="0.5" transform="translate(1280.459449, 32.033905) scale(1, -1) translate(-1280.459449, -32.033905) " points="1177 5.22188955 1383.9189 5 1383.9189 59.0678092 1177 59.0678092 1192.79737 34 1192.79737 30.0678092"></polygon>
        <rect id="矩形" fill="url(#linearGradient-5)" x="660" y="0" width="214" height="1"></rect>
        <rect id="矩形备份-4" fill="url(#linearGradient-5)" x="660" y="63" width="214" height="1"></rect>
        <rect id="矩形备份-12" fill="url(#linearGradient-5)" x="917" y="0" width="214" height="1"></rect>
        <rect id="矩形备份-11" fill="url(#linearGradient-5)" x="917" y="63" width="214" height="1"></rect>
        <rect id="矩形备份-16" fill="url(#linearGradient-5)" x="1173" y="0" width="214" height="1"></rect>
        <rect id="矩形备份-15" fill="url(#linearGradient-5)" x="1173" y="63" width="214" height="1"></rect>
        <rect id="矩形备份-6" fill="url(#linearGradient-5)" x="404" y="0" width="214" height="1"></rect>
        <rect id="矩形备份-5" fill="url(#linearGradient-5)" x="404" y="63" width="214" height="1"></rect>
        <rect id="矩形备份-8" fill="url(#linearGradient-5)" x="145" y="0" width="214" height="1"></rect>
        <rect id="矩形备份-7" fill="url(#linearGradient-5)" x="145" y="63" width="214" height="1"></rect>
        <rect id="矩形备份-10" fill="url(#linearGradient-5)" x="-110" y="0" width="214" height="1"></rect>
        <rect id="矩形备份-9" fill="url(#linearGradient-5)" x="-110" y="63" width="214" height="1"></rect>
        <path d="M373.862903,17 L380.456309,17 L368.456309,29 L368.456309,22.4065934 L373.862903,17 Z M376.566199,24.4945055 L376.566199,32.1428571 L383.423342,32.1428571 L383.423342,36.9340659 L368.456309,36.9340659 L368.456309,32.6043956 L376.566199,24.4945055 Z M393.6651,17 L393.6651,31.3956044 L385.55521,39.5054945 L385.55521,17 L393.6651,17 Z M393.6651,35 L393.6651,47 L385.55521,47 L385.55521,43.1098901 L393.6651,35 Z" id="形状" stroke="#A5E7FD" fill-rule="nonzero"></path>
        <path d="M115.456309,17 L126.884881,17 L132.291474,22.3846154 L132.291474,29 L125.082683,21.7912088 L115.456309,21.7912088 L115.456309,17 Z M121.78598,27.021978 L121.78598,31.8131868 L115.456309,31.8131868 L115.456309,27.021978 L121.78598,27.021978 Z M132.291474,32.6043956 L132.291474,41.6153846 L126.884881,47 L115.456309,47 L115.456309,42.2087912 L124.181584,42.2087912 L124.181584,24.4945055 L132.291474,32.6043956 Z" id="形状" stroke="#A5E7FD" fill-rule="nonzero"></path>
        <path d="M889.456309,17 L901.917848,17 L901.917848,20.8901099 L893.807958,29 L893.807958,21.7912088 L889.456309,21.7912088 L889.456309,17 Z M901.917848,24.4945055 L901.917848,47 L893.807958,47 L893.807958,32.6043956 L901.917848,24.4945055 Z" id="形状" stroke="#A5E7FD" fill-rule="nonzero"></path>
        <path d="M1144.0918,16.6738281 L1155.27861,16.6738281 L1160.6852,22.0584435 L1160.6852,28.6738281 L1153.47641,21.4650369 L1144.0918,21.4650369 L1144.0918,16.6738281 Z M1160.6852,41.8826193 L1160.6852,46.6738281 L1144.0918,46.6738281 L1144.0918,41.2892127 L1152.57531,32.7837182 L1152.57531,24.1683336 L1160.31158,31.9045974 L1150.33356,41.8826193 L1160.6852,41.8826193 Z" id="形状" stroke="#A5E7FD" fill-rule="nonzero"></path>
    </g>
</svg>