<svg xmlns="http://www.w3.org/2000/svg" viewBox="0 0 16 15" class="design-iconfont">
  <g fill="none" fill-rule="evenodd" opacity=".80000001">
    <path
      d="M12.5050651,0.25 C12.8766854,0.25 13.0149105,0.279470533 13.1521229,0.351853662 C13.5019338,0.758521608 13.5336815,0.896241427 13.5398144,1.26781117 L13.7332561,12.9876225 C13.7366741,13.1947011 13.6558333,13.383561 13.5223683,13.5215057 C13.3889034,13.6594504 13.2028143,13.7464799 12.9998586,13.7498638 L1.2819426,13.75 C0.906982536,13.75 0.767499342,13.7197956 0.629476863,13.6459803 C0.280204422,13.2325007 0.25,13.0930175 0.25,12.7180574 L0.25,1.2819426 C0.25,0.906982536 0.280204422,0.767499342 0.354019651,0.629476863 C0.767499342,0.280204422 0.906982536,0.25 1.2819426,0.25 Z"
      stroke="#FFAC00" stroke-width=".5" fill-opacity=".57261391" fill="#584820"/>
    <path
      d="M5.49777778,0 L5.49777778,2.74666666 L7.49777778,4.49777778 L7.49777778,7.49777778 L8,7.49777778 L8,8 L0,8 L0,7.49777778 L0.5,7.49777778 L0.5,0 L5.49777778,0 Z M5,0.5 L1,0.5 L1,7.49777778 L5,7.49777778 L5,0.5 Z M5.49777778,3.55555555 L5.49777778,7.49777778 L6.99555555,7.49777778 L6.99555555,4.80666666 L5.49777778,3.55555555 Z M3.99777778,5.49777778 L3.99777778,6 L1.99777778,6 L1.99777778,5.49777778 L3.99777778,5.49777778 Z M6.49777778,5.49777778 L6.49777778,6 L5.99777778,6 L5.99777778,5.49777778 L6.49777778,5.49777778 Z M3.99777778,4 L3.99777778,4.5 L1.99777778,4.5 L1.99777778,4 L3.99777778,4 Z M3.99777778,2.5 L3.99777778,3 L1.99777778,3 L1.99777778,2.5 L3.99777778,2.5 Z"
      fill="#FFAC00" transform="translate(3 3)" fill-rule="nonzero"/>
  </g>
</svg>
