<svg xmlns="http://www.w3.org/2000/svg" viewBox="0 0 16 15" class="design-iconfont">
  <g fill="none" fill-rule="evenodd" opacity=".80000001">
    <path
      d="M13.5160134,0.25 C13.8875778,0.25 14.0257817,0.279458304 14.1629805,0.351817502 C14.5127995,0.758371284 14.5445727,0.896061386 14.5508076,1.26757347 L14.7605794,13.7669846 C14.7640547,13.9740622 14.6832662,14.1629445 14.5498395,14.3009261 C14.4164128,14.4389078 14.2303478,14.5259889 14.0274625,14.5294289 L1.2819426,14.5295697 C0.906982536,14.5295697 0.767499342,14.4993653 0.629476863,14.4255501 C0.280204422,14.0120704 0.25,13.8725872 0.25,13.4976271 L0.25,1.2819426 C0.25,0.906982536 0.280204422,0.767499342 0.354019651,0.629476863 C0.767499342,0.280204422 0.906982536,0.25 1.2819426,0.25 Z"
      stroke="#FF2EF2" stroke-width=".5" fill-opacity=".57261391" fill="#690087" transform="translate(.5 .110215)"/>
    <text font-family="PangMenZhengDao" font-size="6" fill="#FF30F4" transform="translate(.5 .110215)">
      <tspan x="2" y="9">OLT</tspan>
    </text>
  </g>
</svg>
