<svg xmlns="http://www.w3.org/2000/svg" viewBox="0 0 85 75" class="design-iconfont">
  <g fill="none" fill-rule="evenodd">
    <path
      d="M2.5638852,0.25 L30.1885946,0.25 C31.0093141,0.25 31.3104404,0.326617227 31.6114258,0.487586003 C31.8931402,0.63824851 32.1142313,0.859339616 32.2648938,1.14105401 C32.4258626,1.44203945 32.5024798,1.74316577 32.5024798,2.5638852 L32.5024798,29.6479976 C32.5024798,30.468717 32.4258626,30.7698433 32.2648938,31.0708288 C32.1142313,31.3525432 31.8931402,31.5736343 31.6114258,31.7242968 C31.3104404,31.8852655 31.0093141,31.9618828 30.1885946,31.9618828 L2.5638852,31.9618828 C1.74316577,31.9618828 1.44203945,31.8852655 1.14105401,31.7242968 C0.859339616,31.5736343 0.63824851,31.3525432 0.487586003,31.0708288 C0.326617227,30.7698433 0.25,30.468717 0.25,29.6479976 L0.25,2.5638852 C0.25,1.74316577 0.326617227,1.44203945 0.487586003,1.14105401 C0.63824851,0.859339616 0.859339616,0.63824851 1.14105401,0.487586003 C1.44203945,0.326617227 1.74316577,0.25 2.5638852,0.25 Z"
      stroke="#FF3000" stroke-width=".5" fill-opacity=".07542067" fill="#FF4519" transform="translate(28.333333)"/>
    <path
      d="M5.17069713,10.8146963 L3.18079302,10.8146963 C2.82945232,10.8146963 2.54463442,10.5298784 2.54463442,10.1785377 L2.54463442,5.08926883 L12.0870135,5.08926883 L12.0870135,10.1785377 C12.0870135,10.5298784 11.8021956,10.8146963 11.4508549,10.8146963 L10.3579344,10.8146963 C10.0065937,10.8146963 9.72177578,11.0995142 9.72177578,11.4508549 C9.72177578,11.8021956 10.0065937,12.0870135 10.3579344,12.0870135 L11.4508549,12.0870135 C12.504877,12.0870135 13.3593307,11.2325597 13.3593307,10.1785377 L13.3593307,3.18079302 C13.3593307,2.12677093 12.504877,1.27231721 11.4508549,1.27231721 L3.18079302,1.27231721 C2.12677093,1.27231721 1.27231721,2.12677093 1.27231721,3.18079302 L1.27231721,10.1785377 C1.27231721,11.2325597 2.12677093,12.0870135 3.18079302,12.0870135 L5.17069713,12.0870135 C5.52203783,12.0870135 5.80685574,11.8021956 5.80685574,11.4508549 C5.80685574,11.0995142 5.52203783,10.8146963 5.17069713,10.8146963 Z M2.54463442,3.18079302 C2.54463442,2.82945232 2.82945232,2.54463442 3.18079302,2.54463442 L11.4508549,2.54463442 C11.8021956,2.54463442 12.0870135,2.82945232 12.0870135,3.18079302 L12.0870135,3.81695162 L2.54463442,3.81695162 L2.54463442,3.18079302 Z M17.1762823,8.27006185 L15.3695919,8.27006185 C15.0182512,8.27006185 14.7334333,8.55487976 14.7334333,8.90622045 C14.7334333,9.25756115 15.0182512,9.54237906 15.3695919,9.54237906 L17.1762823,9.54237906 C17.527623,9.54237906 17.8124409,9.82719697 17.8124409,10.1785377 L17.8124409,15.2678065 L8.27006185,15.2678065 L8.27006185,10.1785377 C8.27006185,9.82719697 8.55487976,9.54237906 8.90622045,9.54237906 L10.1600891,9.54237906 C10.5114298,9.54237906 10.7962477,9.25756115 10.7962477,8.90622045 C10.7962477,8.55487976 10.5114298,8.27006185 10.1600891,8.27006185 L8.90622045,8.27006185 C7.85219837,8.27006185 6.99774464,9.12451558 6.99774464,10.1785377 L6.99774464,17.1762823 C6.99774464,18.2303044 7.85219837,19.0847581 8.90622045,19.0847581 L17.1762823,19.0847581 C18.2303044,19.0847581 19.0847581,18.2303044 19.0847581,17.1762823 L19.0847581,10.1785377 C19.0847581,9.12451558 18.2303044,8.27006185 17.1762823,8.27006185 Z M17.8124409,17.1762823 C17.8124409,17.527623 17.527623,17.8124409 17.1762823,17.8124409 L8.90622045,17.8124409 C8.55487976,17.8124409 8.27006185,17.527623 8.27006185,17.1762823 L8.27006185,16.5401237 L17.8124409,16.5401237 L17.8124409,17.1762823 Z"
      fill="#FF3000" transform="translate(34.871795 6.538462)" fill-rule="nonzero"/>
    <path fill="#FF3000" d="M11.3135732 33.7820513L21.212086 33.7820513 16.2775973 39.0674654z"
          transform="translate(28.333333)"/>
  </g>
</svg>
