<svg xmlns="http://www.w3.org/2000/svg" viewBox="0 0 40 40" class="design-iconfont">
  <g fill="none" fill-rule="evenodd">
    <path fill="#0033C1" opacity=".49986049" d="M20 0A20 20 0 1 0 20 40A20 20 0 1 0 20 0Z"/>
    <g fill="#00FCFF" fill-rule="nonzero">
      <path
        d="M16.352,25.2 L4.592,25.2 C4.205404,25.2 3.892,24.886596 3.892,24.5 C3.892,24.113404 4.205404,23.8 4.592,23.8 L15.652,23.8 L15.652,4.2 L5.292,4.2 L5.292,18.9 C5.292,19.286596 4.978596,19.6 4.592,19.6 C4.205404,19.6 3.892,19.286596 3.892,18.9 L3.892,3.5 C3.892,3.113404 4.205404,2.8 4.592,2.8 L16.352,2.8 C16.738596,2.8 17.052,3.113404 17.052,3.5 L17.052,24.5 C17.052,24.886596 16.738596,25.2 16.352,25.2 Z"
        transform="translate(6 6)"/>
      <path
        d="M12.712,18.9 L8.232,18.9 C7.845404,18.9 7.532,18.586596 7.532,18.2 C7.532,17.813404 7.845404,17.5 8.232,17.5 L12.712,17.5 C13.098596,17.5 13.412,17.813404 13.412,18.2 C13.412,18.586596 13.098596,18.9 12.712,18.9 Z"
        transform="translate(6 6)"/>
      <path
        d="M12.712,14.7 L8.232,14.7 C7.845404,14.7 7.532,14.386596 7.532,14 C7.532,13.613404 7.845404,13.3 8.232,13.3 L12.712,13.3 C13.098596,13.3 13.412,13.613404 13.412,14 C13.412,14.386596 13.098596,14.7 12.712,14.7 Z"
        transform="translate(6 6)"/>
      <path
        d="M12.712,10.5 L11.032,10.5 C10.645404,10.5 10.332,10.186596 10.332,9.8 C10.332,9.413404 10.645404,9.1 11.032,9.1 L12.712,9.1 C13.098596,9.1 13.412,9.413404 13.412,9.8 C13.412,10.186596 13.098596,10.5 12.712,10.5 Z"
        transform="translate(6 6)"/>
      <path
        d="M23.408,25.2 L19.208,25.2 C18.821404,25.2 18.508,24.886596 18.508,24.5 C18.508,24.113404 18.821404,23.8 19.208,23.8 L22.708,23.8 L22.708,12.432 L18.87858,10.389652 C18.537456,10.207708 18.408404,9.783704 18.590348,9.44258 C18.77232,9.101428 19.196352,8.97246 19.53742,9.154348 L23.73742,11.394348 C23.965508,11.516008 24.108,11.753476 24.108,12.012 L24.108,24.5 C24.108,24.886596 23.794596,25.2 23.408,25.2 Z"
        transform="translate(6 6)"/>
    </g>
  </g>
</svg>
