<svg xmlns="http://www.w3.org/2000/svg" viewBox="0 0 40 40" class="design-iconfont">
  <g fill="none" fill-rule="evenodd">
    <path fill="#0033C1" opacity=".49986049" d="M20 0A20 20 0 1 0 20 40A20 20 0 1 0 20 0Z"/>
    <g fill="#00FCFF" fill-rule="nonzero">
      <path
        d="M4.32421875,23.7277344 L25.8193359,23.7277344 M4.32421875,22.9599609 L25.8222656,22.9599609 L25.8222656,24.4248047 L4.32421875,24.4248047 L4.32421875,22.9599609 Z"
        transform="translate(5 5)"/>
      <path
        d="M25.8193359,24.4248047 L4.32421875,24.4248047 C3.91992188,24.4248047 3.59179688,24.0966797 3.59179688,23.6923828 C3.59179688,23.2880859 3.91992188,22.9599609 4.32421875,22.9599609 L25.8222656,22.9599609 C26.2265625,22.9599609 26.5546875,23.2880859 26.5546875,23.6923828 C26.5546875,24.0966797 26.2236328,24.4248047 25.8193359,24.4248047 Z"
        transform="translate(5 5)"/>
      <path
        d="M18.234375,24.4248047 L6.45410156,24.4248047 C6.04980469,24.4248047 5.72167969,24.0966797 5.72167969,23.6923828 L5.72167969,7.88085938 C5.72167969,6.69140625 6.68847656,5.72460938 7.87792969,5.72460938 L16.8105469,5.72460938 C18,5.72460938 18.9667969,6.69140625 18.9667969,7.88085938 L18.9667969,23.6953125 C18.9667969,24.0996094 18.6416016,24.4248047 18.234375,24.4248047 L18.234375,24.4248047 Z M7.18652344,22.9599609 L17.5019531,22.9599609 L17.5019531,7.88085938 C17.5019531,7.5 17.1914062,7.18945313 16.8105469,7.18945313 L7.88085938,7.18945313 C7.5,7.18945313 7.18945313,7.5 7.18945313,7.88085938 L7.18945313,22.9599609 L7.18652344,22.9599609 Z"
        transform="translate(5 5)"/>
      <path
        d="M14.3320312,11.1152344 L10.3828125,11.1152344 C9.97851562,11.1152344 9.65039062,10.7871094 9.65039062,10.3828125 C9.65039062,9.97851562 9.97851562,9.65039062 10.3828125,9.65039062 L14.3320312,9.65039062 C14.7363281,9.65039062 15.0644531,9.97851562 15.0644531,10.3828125 C15.0644531,10.7871094 14.7363281,11.1152344 14.3320312,11.1152344 L14.3320312,11.1152344 Z M20.9501953,20.2294922 C20.5458984,20.2294922 20.2177734,19.9013672 20.2177734,19.4970703 L20.2177734,17.6220703 C20.2177734,17.2177734 20.5458984,16.8896484 20.9501953,16.8896484 C21.3544922,16.8896484 21.6826172,17.2177734 21.6826172,17.6220703 L21.6826172,19.4970703 C21.6826172,19.9013672 21.3544922,20.2294922 20.9501953,20.2294922 Z M14.3320312,15.0644531 L10.3828125,15.0644531 C9.97851562,15.0644531 9.65039062,14.7363281 9.65039062,14.3320313 C9.65039062,13.9277344 9.97851562,13.5996094 10.3828125,13.5996094 L14.3320312,13.5996094 C14.7363281,13.5996094 15.0644531,13.9277344 15.0644531,14.3320313 C15.0644531,14.7363281 14.7363281,15.0644531 14.3320312,15.0644531 L14.3320312,15.0644531 Z"
        transform="translate(5 5)"/>
      <path
        d="M14.3320312,19.1455078 L10.3828125,19.1455078 C9.97851562,19.1455078 9.65039062,18.8173828 9.65039062,18.4130859 C9.65039062,18.0087891 9.97851562,17.6806641 10.3828125,17.6806641 L14.3320312,17.6806641 C14.7363281,17.6806641 15.0644531,18.0087891 15.0644531,18.4130859 C15.0644531,18.8173828 14.7363281,19.1455078 14.3320313,19.1455078 L14.3320312,19.1455078 Z"
        transform="translate(5 5)"/>
      <path
        d="M23.6660156,24.3984375 C23.2617188,24.3984375 22.9335938,24.0703125 22.9335938,23.6660156 L22.9335938,15.8349609 L17.7597656,11.3847656 C17.4521484,11.1210938 17.4169922,10.6582031 17.6806641,10.3505859 C17.9443359,10.0429688 18.4072266,10.0078125 18.7148438,10.2714844 L24.1435547,14.9414062 C24.3046875,15.0791016 24.3984375,15.2841797 24.3984375,15.4980469 L24.3984375,23.6660156 C24.3984375,24.0703125 24.0703125,24.3984375 23.6660156,24.3984375 L23.6660156,24.3984375 Z"
        transform="translate(5 5)"/>
    </g>
  </g>
</svg>
