<svg xmlns="http://www.w3.org/2000/svg" viewBox="0 0 40 40" class="design-iconfont">
  <g fill="none" fill-rule="evenodd">
    <path fill="#0033C1" opacity=".49986049" d="M20 0A20 20 0 1 0 20 40A20 20 0 1 0 20 0Z"/>
    <path d="M13.5,22 L8.00000001,22 L8.00000001,4.30999999 C7.99775843,3.53847895 8.58286905,2.89191311 9.35078126,2.81734376 L17,2.05249999 L17,16.5 C17,16.7761424 17.2238576,17 17.5,17 C17.7761424,17 18,16.7761424 18,16.5 L18,6 L21,6 L21,16.5 C21,16.7761424 21.2238576,17 21.5,17 C21.7761424,17 22,16.7761424 22,16.5 L22,6 C21.9993972,5.44796512 21.5520349,5.00060278 21,4.99999999 L18,4.99999999 L18,1.5 C18,1.35875113 17.9402429,1.22409496 17.8355174,1.12931206 C17.7307918,1.03452916 17.5908622,0.988463385 17.4503125,1.00249999 L9.25125,1.82234374 C7.97321773,1.95014215 6.99996798,3.02559393 7.00000001,4.30999999 L7.00000001,22 L4.00000001,22 L4.00000001,19.9023438 C4.25484375,19.79625 4.47203126,19.6054687 4.63375001,19.3409375 C4.88015625,18.9375 5.00000001,18.3764062 5.00000001,17.625 C5.00000001,16.89375 4.88281249,16.0625 4.68640624,15.4021875 C4.57828125,15.0385938 4.45203124,14.7426562 4.30921875,14.5226562 C4.03000001,14.090625 3.71500001,14 3.50000001,14 C3.28499998,14 2.97,14.090625 2.69078126,14.5226562 C2.54859375,14.7426562 2.42171876,15.0382812 2.31359374,15.4021875 C2.11718749,16.0625 2.00000001,16.89375 2.00000001,17.625 C2.00000001,18.3764062 2.11984373,18.9375 2.36625,19.3409375 C2.52796875,19.605625 2.74515626,19.79625 3.00000001,19.9023438 L3.00000001,22 L1.50000001,22 C1.22385763,22 1.00000001,22.2238576 1.00000001,22.5 C1.00000001,22.7761424 1.22385763,23 1.50000001,23 L13.5,23 C13.7761424,23 14,22.7761424 14,22.5 C14,22.2238576 13.7761424,22 13.5,22 Z M3.21484376,15.8959375 C3.31578127,15.4975 3.42156251,15.2526562 3.5,15.1146875 C3.57812498,15.2523437 3.68421874,15.4971875 3.78515625,15.8959375 C3.92492779,16.4617616 3.99704683,17.0421756 4,17.625 C4,17.9475 3.96390626,19 3.5,19 C3.03609373,19 3,17.9475 3,17.625 C3.00295318,17.0421756 3.07507222,16.4617616 3.21484376,15.8959375 L3.21484376,15.8959375 Z M11,6.99999999 L10,6.99999999 L10,4.99999999 L11,4.99999999 L11,6.99999999 Z M13,6.99999999 L12,6.99999999 L12,4.99999999 L13,4.99999999 L13,6.99999999 Z M15,6.99999999 L14,6.99999999 L14,4.99999999 L15,4.99999999 L15,6.99999999 Z M11,9.99999999 L10,9.99999999 L10,7.99999999 L11,7.99999999 L11,9.99999999 Z M13,9.99999999 L12,9.99999999 L12,7.99999999 L13,7.99999999 L13,9.99999999 Z M15,9.99999999 L14,9.99999999 L14,7.99999999 L15,7.99999999 L15,9.99999999 Z M11,13 L10,13 L10,11 L11,11 L11,13 Z M13,13 L12,13 L12,11 L13,11 L13,13 Z M14,11 L15,11 L15,13 L14,13 L14,11 Z M11,16 L10,16 L10,14 L11,14 L11,16 Z M13,16 L12,16 L12,14 L13,14 L13,16 Z M15,16 L14,16 L14,14 L15,14 L15,16 Z M10,17 L11,17 L11,19 L10,19 L10,17 Z M12,17 L13,17 L13,19 L12,19 L12,17 Z M20,9.99999999 L19,9.99999999 L19,7.99999999 L20,7.99999999 L20,9.99999999 Z M20,13 L19,13 L19,11 L20,11 L20,13 Z M19,14 L20,14 L20,16 L19,16 L19,14 Z M22.5184375,19.6984375 C22.2649037,19.4029047 21.9307724,19.1876251 21.556875,19.0789062 C21.0997132,18.4174859 20.3523332,18.0163099 19.5484463,18.0008291 C18.7445594,17.9853483 17.9822879,18.3574523 17.5,19.0007812 L17,19.0007812 C15.8954305,19.0007812 15,19.8962118 15,21.0007813 C15,22.1053508 15.8954305,23.0007813 17,23.0007813 L21,23.0007813 C21.7810376,23.0007813 22.4905965,22.5460529 22.8169466,21.8364647 C23.1432968,21.1268765 23.0267222,20.2922335 22.5184375,19.6992187 L22.5184375,19.6984375 Z M21,22 L17,22 C16.4477152,22 16,21.5522848 16,21 C16,20.4477152 16.4477152,20 17,20 L17.7676563,20 C17.9462175,19.9999285 18.1111881,19.9046386 18.2004687,19.75 C18.4699533,19.2828546 18.96947,18.9963322 19.5087624,18.9995368 C20.0480548,19.0027955 20.5441019,19.2952836 20.8079688,19.765625 C20.8824803,19.8979533 21.0130946,19.9892453 21.1629687,20.01375 C21.6755288,20.0996285 22.036873,20.5638121 21.9943749,21.0817763 C21.9518767,21.5997404 21.5197033,21.9988171 21,22 L21,22 Z" transform="translate(8 8)" fill="#00FCFF" fill-rule="nonzero"/>
  </g>
</svg>
