<svg xmlns="http://www.w3.org/2000/svg" viewBox="0 0 40 40" class="design-iconfont">
  <g fill="none" fill-rule="evenodd">
    <path fill="#0033C1" opacity=".49986049" d="M20 0A20 20 0 1 0 20 40A20 20 0 1 0 20 0Z"/>
    <path d="M21.75,11 L20,11 L20,2.25 C19.999225,1.55996533 19.4400347,1.00077499 18.75,1.00000001 L6.25000001,1.00000001 C5.55996533,1.00077498 5.00077497,1.55996532 5.00000001,2.25 L5.00000001,5.00000001 L2.25,5.00000001 C1.55996532,5.00077497 1.00077498,5.55996533 1.00000001,6.25000001 L1.00000001,22.5 C1.00000001,22.7761424 1.22385763,23 1.50000001,23 L22.5,23 C22.6326082,23 22.7597852,22.9473216 22.8535534,22.8535534 C22.9473216,22.7597852 23,22.6326082 23,22.5 L23,12.25 C22.999225,11.5599653 22.4400347,11.000775 21.75,11 Z M6,2.25 C6,2.11192881 6.11192882,1.99999999 6.25000001,1.99999999 L18.75,1.99999999 C18.8880712,1.99999999 19,2.11192881 19,2.25 L19,11 L18.25,11 C17.5599653,11.000775 17.000775,11.5599653 17,12.25 L17,22 L11,22 L11,18 L13.5,18 C13.7761424,18 14,17.7761424 14,17.5 C14,17.2238576 13.7761424,17 13.5,17 L11,17 L11,6.25000001 C10.999225,5.55996533 10.4400347,5.00077497 9.75,4.99999999 L6,4.99999999 L6,2.25 Z M1.99999999,22 L1.99999999,6.25000001 C1.99999999,6.11192882 2.11192881,6 2.25,6 L9.75,6 C9.81630412,6 9.8798926,6.02633921 9.9267767,6.07322331 C9.9736608,6.1201074 9.99999999,6.18369588 9.99999999,6.25000001 L9.99999999,22 L1.99999999,22 Z M18,22 L18,12.25 C18,12.1119288 18.1119288,12 18.25,12 L21.75,12 C21.8880712,12 22,12.1119288 22,12.25 L22,22 L18,22 Z M3,11 L4,11 L4,13 L3,13 L3,11 Z M4.99999999,11 L5.99999999,11 L5.99999999,13 L4.99999999,13 L4.99999999,11 Z M3,7.99999999 L4,7.99999999 L4,9.99999999 L3,9.99999999 L3,7.99999999 Z M4.99999999,7.99999999 L5.99999999,7.99999999 L5.99999999,9.99999999 L4.99999999,9.99999999 L4.99999999,7.99999999 Z M3,17 L4,17 L4,19 L3,19 L3,17 Z M4.99999999,17 L5.99999999,17 L5.99999999,19 L4.99999999,19 L4.99999999,17 Z M3,14 L4,14 L4,16 L3,16 L3,14 Z M4.99999999,14 L5.99999999,14 L5.99999999,16 L4.99999999,16 L4.99999999,14 Z M7.00000001,11 L8.00000001,11 L8.00000001,13 L7.00000001,13 L7.00000001,11 Z M7.00000001,7.99999999 L8.00000001,7.99999999 L8.00000001,9.99999999 L7.00000001,9.99999999 L7.00000001,7.99999999 Z M7.00000001,17 L8.00000001,17 L8.00000001,19 L7.00000001,19 L7.00000001,17 Z M7.00000001,14 L8.00000001,14 L8.00000001,16 L7.00000001,16 L7.00000001,14 Z M16,6.99999999 L15,6.99999999 L15,4.99999999 L16,4.99999999 L16,6.99999999 Z M16,9.99999999 L15,9.99999999 L15,7.99999999 L16,7.99999999 L16,9.99999999 Z M16,13 L15,13 L15,11 L16,11 L16,13 Z M20,14 L21,14 L21,16 L20,16 L20,14 Z M20,17 L21,17 L21,19 L20,19 L20,17 Z" transform="translate(8 8)" fill="#00FCFF" fill-rule="nonzero"/>
  </g>
</svg>
