<svg xmlns="http://www.w3.org/2000/svg" viewBox="0 0 40 40" class="design-iconfont">
  <g fill="none" fill-rule="evenodd">
    <path fill="#0033C1" opacity=".49986049" d="M20 0A20 20 0 1 0 20 40A20 20 0 1 0 20 0Z"/>
    <path
      d="M28.6368647,8.08142687 C29.6183227,8.08142687 30.4904811,8.87446605 30.4904811,9.93862686 L30.4904811,9.93862686 L30.4904811,29.4918609 L21.8316109,29.4918609 L21.8316109,31.9658318 L9.46181227,31.9658318 L9.46181227,13.8068136 C9.46181227,12.7362415 10.3397659,11.9490817 11.3168005,11.9491937 C11.5686323,11.9491937 11.8270714,12.0015198 12.0787072,12.1147671 L12.0787072,12.1147671 L19.3576679,15.3902883 L19.3576679,12.8249076 C19.3576679,12.0596973 19.8274273,11.3729342 20.5406195,11.0955973 L20.5406195,11.0955973 L27.9625042,8.20937254 C28.1870111,8.12205033 28.4147095,8.08142687 28.6368647,8.08142687 Z M11.3167725,13.1861791 C11.3155687,13.1861791 11.3143088,13.1869071 11.3131049,13.1869071 C11.2373454,13.187383 11.1618099,13.2032572 11.0906139,13.231898 C11.0629809,13.2429848 11.0402755,13.2645144 11.0141824,13.2794647 C10.9714592,13.304102 10.9272521,13.3261635 10.8907442,13.3604316 C10.8360384,13.4119458 10.7891996,13.473315 10.7559673,13.544875 L10.7559673,13.544875 L10.7518238,13.5564937 C10.7191235,13.6308533 10.6988257,13.714088 10.6988257,13.8068136 L10.6988257,13.8068136 L10.6988257,30.7288464 L20.5946534,30.7288464 L20.5946534,17.7033332 C20.5943971,17.4600147 20.4517312,17.2393676 20.2299382,17.1393084 L20.2299382,17.1393084 L19.509159,16.8149647 L18.8500568,16.5183659 L16.1323172,15.2953789 L11.571096,13.2428168 C11.5544099,13.2352856 11.5370798,13.2375254 11.5202537,13.2314781 C11.4528932,13.2073448 11.3850569,13.1861791 11.3167725,13.1861791 Z M17.4007431,25.4870494 L17.4007431,30.2081327 L14.4500696,30.2081327 L14.4500696,25.4870494 L17.4007431,25.4870494 Z M28.6368927,9.31841234 C28.5616931,9.31841234 28.4856256,9.33313868 28.410874,9.36219942 L28.410874,9.36219942 L20.9889892,12.2485082 C20.7494201,12.3416537 20.5946534,12.5679244 20.5946534,12.8249356 L20.5946534,12.8249356 L20.5946534,15.9469219 L20.7375774,16.0112587 C21.4034548,16.3108812 21.8316389,16.973147 21.8316389,17.7033052 L21.8316389,17.7033052 L21.8308123,23.1264269 L24.7774409,23.1265218 L24.7774409,27.8476051 L21.8308123,27.8474269 L21.8316389,28.2548755 L29.2535236,28.2548755 L29.2535236,9.93862686 C29.2535236,9.55554579 28.9334634,9.31841234 28.6368927,9.31841234 Z M17.1056842,21.3561121 L17.1056842,23.7166677 L14.7451285,23.7166677 L14.7451285,21.3561121 L17.1056842,21.3561121 Z M28.9084063,18.1103516 L28.9084063,20.4709073 L26.5478506,20.4709073 L26.5478506,18.1103516 L28.9084063,18.1103516 Z M17.1056842,16.9300878 L17.1056842,19.2906435 L14.7451285,19.2906435 L14.7451285,16.9300878 L17.1056842,16.9300878 Z M28.9084063,13.6843554 L28.9084063,16.044911 L26.5478506,16.044911 L26.5478506,13.6843554 L28.9084063,13.6843554 Z"
      fill="#00FCFF" fill-rule="nonzero"/>
  </g>
</svg>
