<svg xmlns="http://www.w3.org/2000/svg" viewBox="0 0 44 48" class="design-iconfont">
  <defs>
    <linearGradient x1="50%" y1="0%" x2="50%" y2="99.6929462%" id="o1vxcp5qv__dtekav4i2a">
      <stop stop-color="#2DDDFF" offset=".20897072%"/>
      <stop stop-color="#0277A9" stop-opacity="0" offset="99.3346741%"/>
    </linearGradient>
  </defs>
  <g fill="none" fill-rule="evenodd">
    <path d="M23.7518545,0 C31.0856778,0 37.6431783,3.35855805 42.0001078,8.63654603 L39.9080717,10.9435441 C36.1170056,6.16012087 30.2884727,3.09677419 23.7518545,3.09677419 C12.3266852,3.09677419 3.06475542,12.4554672 3.06475542,24 C3.06475542,35.5445328 12.3266852,44.9032258 23.7518545,44.9032258 C24.3561982,44.9032258 24.9544893,44.8770405 25.545677,44.8257314 L25.8719125,47.9056973 C25.173473,47.9681222 24.466348,48 23.7518545,48 C10.6340675,48 0,37.254834 0,24 C0,10.745166 10.6340675,0 23.7518545,0 Z" fill="url(#o1vxcp5qv__dtekav4i2a)"/>
    <path fill="#ADFFFF" d="M43 11A1 1 0 1 0 43 13A1 1 0 1 0 43 11Z"/>
    <g fill="#00FCFF" fill-rule="nonzero">
      <path d="M22.5,22 L22,22 L22,7.49997702 C22,7.34308197 21.9263643,7.19528274 21.8011105,7.10079725 C21.6758568,7.00631175 21.5135159,6.97609795 21.3626562,7.01919507 L21,7.12278897 L21,3.49997108 C21,3.22382829 20.7761424,2.99997034 20.5,2.99997034 C20.2238576,2.99997034 20,3.22382829 20,3.49997108 L20,4.89059816 L16,4.09059696 L16,3.49997108 C15.9999877,3.31059126 15.8929824,3.1374712 15.7235937,3.05278292 L11.7235938,1.05277996 C11.5828371,0.98240668 11.4171629,0.98240668 11.2764063,1.05277996 L7.27640625,3.05278292 C7.10701757,3.1374712 7.00001236,3.31059127 7,3.49997108 L7,6.29294398 L6.14640625,7.14638274 C6.05264297,7.24016756 5.99997859,7.36736038 6,7.49997702 L6,8.99997925 L4,8.99997925 L4,6.49997553 C4,6.22383274 3.77614238,5.99997479 3.5,5.99997479 C3.22385762,5.99997479 3,6.22383274 3,6.49997553 L3,8.99997925 L1.5,8.99997925 C1.22385762,8.99997925 1,9.2238372 1,9.49997998 L1,20.5 C1,20.7761391 1.22385762,21 1.5,21 C1.77614236,21 2,20.7761391 2,20.5 L2,9.99998074 L6,9.99998074 L6,11.899046 L4.22265625,13.0838916 C4.08353428,13.1766366 3.99997848,13.3327836 4,13.4999859 L4,22 L1.5,22 C1.22385762,22 1,22.2238565 1,22.5 C1,22.776142 1.22385762,23 1.5,23 L22.5,23 C22.7761424,23 23,22.776142 23,22.5 C23,22.2238565 22.7761424,22 22.5,22 Z M20,5.90981841 L20,7.40857064 L16,8.55138483 L16,5.10934848 L20,5.90981841 Z M4.99999999,21.9999985 L4.99999999,13.7676426 L7.49999999,12.1009214 L9.99999999,13.7676426 L9.99999999,21.9999985 L4.99999999,21.9999985 Z M11,21.9999985 L11,13.4999859 C11.0000215,13.3327836 10.9164657,13.1766366 10.7773437,13.0838916 L7.77734374,11.0838886 C7.60939695,10.9719276 7.39060304,10.9719276 7.22265625,11.0838886 L7,11.2323263 L7,7.70700857 L7.85359375,6.85356981 C7.94735703,6.75978498 8.00002141,6.63259216 8,6.49997553 L8,3.80903405 L11.5,2.05903144 L15,3.80903405 L15,9.00716676 C14.3709994,9.48035904 14.0007104,10.2214589 14,11.008576 L14,21.9999985 L11,21.9999985 Z M15,21.9999985 L15,11.008576 C15.0021763,10.3395561 15.4452878,9.75211264 16.0879688,9.56623009 L21,8.1627905 L21,21.9999985 L15,21.9999985 Z M10,5.9999748 L11,5.9999748 L11,7.9999748 L10,7.9999748 L10,5.9999748 Z M10,8.99997925 L11,8.99997925 L11,10.9999792 L10,10.9999792 L10,8.99997925 Z M7,14.9999881 L8,14.9999881 L8,16.9999881 L7,16.9999881 L7,14.9999881 Z M18,9.99998074 L19,9.99998074 L19,11.9999807 L18,11.9999807 L18,9.99998074 Z M18,12.9999852 L19,12.9999852 L19,14.9999852 L18,14.9999852 L18,12.9999852 Z M18,15.9999896 L19,15.9999896 L19,17.9999896 L18,17.9999896 L18,15.9999896 Z M18,18.9999941 L19,18.9999941 L19,20.9999941 L18,20.9999941 L18,18.9999941 Z" transform="translate(12 10)"/>
    </g>
  </g>
</svg>
