<?xml version="1.0" encoding="UTF-8"?>
<svg width="32px" height="23px" viewBox="0 0 32 23" version="1.1" xmlns="http://www.w3.org/2000/svg" xmlns:xlink="http://www.w3.org/1999/xlink">
    <title>Group</title>
    <g id="Page-1" stroke="none" stroke-width="1" fill="none" fill-rule="evenodd">
        <g id="Group">
            <rect id="Rectangle" fill-opacity="0" fill="#D8D8D8" x="0" y="0" width="32" height="23"></rect>
            <g id="double-connect" transform="translate(4.252000, 8.511000)" fill-rule="nonzero">
                <g id="形状" transform="translate(-0.000000, 0.099000)">
                    <g id="path-1-link" fill="#000000">
                        <path d="M4.014,5.112 C4.44,4.884 4.824,4.59 5.166,4.23 C4.65,3.438 4.29,2.427 4.086,1.197 L5.256,1.197 C5.406,1.965 5.625,2.628 5.913,3.186 C6.087,2.862 6.231,2.511 6.345,2.133 C6.459,1.755 6.54,1.341 6.588,0.891 L4.086,0.891 L4.086,-1.94289029e-16 L7.767,-1.94289029e-16 L7.767,0.891 C7.701,1.539 7.569,2.1405 7.371,2.6955 C7.173,3.2505 6.921,3.756 6.615,4.212 C6.939,4.572 7.323,4.872 7.767,5.112 L7.767,6.3 C7.029,6.03 6.396,5.631 5.868,5.103 C5.328,5.643 4.71,6.042 4.014,6.3 L4.014,5.112 Z M0,5.112 C0.426,4.884 0.81,4.59 1.152,4.23 C0.636,3.438 0.276,2.427 0.072,1.197 L1.242,1.197 C1.392,1.965 1.611,2.628 1.899,3.186 C2.073,2.862 2.217,2.511 2.331,2.133 C2.445,1.755 2.526,1.341 2.574,0.891 L0.072,0.891 L0.072,-1.94289029e-16 L3.753,-1.94289029e-16 L3.753,0.891 C3.687,1.539 3.555,2.1405 3.357,2.6955 C3.159,3.2505 2.907,3.756 2.601,4.212 C2.925,4.572 3.309,4.872 3.753,5.112 L3.753,6.3 C3.015,6.03 2.382,5.631 1.854,5.103 C1.314,5.643 0.696,6.042 0,6.3 L0,5.112 Z" id="path-1"></path>
                    </g>
                    <g id="path-1-link" fill="#00FCFF">
                        <path d="M4.014,5.112 C4.44,4.884 4.824,4.59 5.166,4.23 C4.65,3.438 4.29,2.427 4.086,1.197 L5.256,1.197 C5.406,1.965 5.625,2.628 5.913,3.186 C6.087,2.862 6.231,2.511 6.345,2.133 C6.459,1.755 6.54,1.341 6.588,0.891 L4.086,0.891 L4.086,-1.94289029e-16 L7.767,-1.94289029e-16 L7.767,0.891 C7.701,1.539 7.569,2.1405 7.371,2.6955 C7.173,3.2505 6.921,3.756 6.615,4.212 C6.939,4.572 7.323,4.872 7.767,5.112 L7.767,6.3 C7.029,6.03 6.396,5.631 5.868,5.103 C5.328,5.643 4.71,6.042 4.014,6.3 L4.014,5.112 Z M0,5.112 C0.426,4.884 0.81,4.59 1.152,4.23 C0.636,3.438 0.276,2.427 0.072,1.197 L1.242,1.197 C1.392,1.965 1.611,2.628 1.899,3.186 C2.073,2.862 2.217,2.511 2.331,2.133 C2.445,1.755 2.526,1.341 2.574,0.891 L0.072,0.891 L0.072,-1.94289029e-16 L3.753,-1.94289029e-16 L3.753,0.891 C3.687,1.539 3.555,2.1405 3.357,2.6955 C3.159,3.2505 2.907,3.756 2.601,4.212 C2.925,4.572 3.309,4.872 3.753,5.112 L3.753,6.3 C3.015,6.03 2.382,5.631 1.854,5.103 C1.314,5.643 0.696,6.042 0,6.3 L0,5.112 Z" id="path-1"></path>
                    </g>
                </g>
                <g id="路径" transform="translate(8.361000, 0.072000)">
                    <g id="path-3-link" fill="#000000">
                        <polygon id="path-3" points="2.952 6.354 0 6.354 0 5.517 2.952 5.517 2.952 -6.9388939e-17 4.158 -6.9388939e-17 4.158 1.98 7.02 1.98 7.02 2.817 4.158 2.817 4.158 5.517 7.605 5.517 7.605 6.354 4.158 6.354"></polygon>
                    </g>
                    <g id="path-3-link" fill="#00FCFF">
                        <polygon id="path-3" points="2.952 6.354 0 6.354 0 5.517 2.952 5.517 2.952 -6.9388939e-17 4.158 -6.9388939e-17 4.158 1.98 7.02 1.98 7.02 2.817 4.158 2.817 4.158 5.517 7.605 5.517 7.605 6.354 4.158 6.354"></polygon>
                    </g>
                </g>
                <g id="形状" transform="translate(16.497000, 0.000000)">
                    <g id="path-5-link" fill="#000000">
                        <path d="M3.312,0 L3.312,0.81 L3.087,0.81 L3.087,4.833 L3.312,4.806 L3.312,5.607 L3.087,5.634 L3.087,6.498 L2.025,6.498 L2.025,5.76 L0,6.003 L0,5.193 L0.225,5.166 L0.225,0.81 L0,0.81 L0,0 L0.225,0 L0.225,0 L1.278,0 L1.278,0 L2.025,0 L2.025,0 L3.087,0 L3.312,0 Z M2.025,2.511 L1.278,2.511 L1.278,3.339 L2.025,3.339 L2.025,2.511 Z M2.025,4.959 L2.025,4.149 L1.278,4.149 L1.278,5.04 L2.025,4.959 Z M2.025,0.81 L1.278,0.81 L1.278,1.701 L2.025,1.701 L2.025,0.81 Z M6.111,3.537 L7.902,3.537 L7.902,4.347 L5.913,4.347 L4.833,6.498 L3.609,6.498 L4.698,4.347 L3.447,4.347 L3.447,3.537 L4.95,3.537 L4.95,1.746 L3.447,1.746 L3.447,0.945 L4.104,0.945 L3.771,0 L4.887,0 L5.229,0.945 L6.12,0.945 L6.462,0 L7.587,0 L7.245,0.945 L7.902,0.945 L7.902,1.746 L6.111,1.746 L6.111,3.537 Z M7.038,4.617 L7.902,6.498 L6.759,6.498 L5.895,4.617 L7.038,4.617 Z" id="path-5"></path>
                    </g>
                    <g id="path-5-link" fill="#00FCFF">
                        <path d="M3.312,0 L3.312,0.81 L3.087,0.81 L3.087,4.833 L3.312,4.806 L3.312,5.607 L3.087,5.634 L3.087,6.498 L2.025,6.498 L2.025,5.76 L0,6.003 L0,5.193 L0.225,5.166 L0.225,0.81 L0,0.81 L0,0 L0.225,0 L0.225,0 L1.278,0 L1.278,0 L2.025,0 L2.025,0 L3.087,0 L3.312,0 Z M2.025,2.511 L1.278,2.511 L1.278,3.339 L2.025,3.339 L2.025,2.511 Z M2.025,4.959 L2.025,4.149 L1.278,4.149 L1.278,5.04 L2.025,4.959 Z M2.025,0.81 L1.278,0.81 L1.278,1.701 L2.025,1.701 L2.025,0.81 Z M6.111,3.537 L7.902,3.537 L7.902,4.347 L5.913,4.347 L4.833,6.498 L3.609,6.498 L4.698,4.347 L3.447,4.347 L3.447,3.537 L4.95,3.537 L4.95,1.746 L3.447,1.746 L3.447,0.945 L4.104,0.945 L3.771,0 L4.887,0 L5.229,0.945 L6.12,0.945 L6.462,0 L7.587,0 L7.245,0.945 L7.902,0.945 L7.902,1.746 L6.111,1.746 L6.111,3.537 Z M7.038,4.617 L7.902,6.498 L6.759,6.498 L5.895,4.617 L7.038,4.617 Z" id="path-5"></path>
                    </g>
                </g>
            </g>
        </g>
    </g>
</svg>