<svg xmlns="http://www.w3.org/2000/svg" viewBox="0 0 44 48" class="design-iconfont">
  <defs>
    <linearGradient x1="50%" y1="0%" x2="50%" y2="99.6929462%" id="3s688uwul__hwevf1hx5a">
      <stop stop-color="#2DDDFF" offset=".20897072%"/>
      <stop stop-color="#0277A9" stop-opacity="0" offset="99.3346741%"/>
    </linearGradient>
  </defs>
  <g fill="none" fill-rule="evenodd">
    <path d="M23.7518545,0 C31.0856778,0 37.6431783,3.35855805 42.0001078,8.63654603 L39.9080717,10.9435441 C36.1170056,6.16012087 30.2884727,3.09677419 23.7518545,3.09677419 C12.3266852,3.09677419 3.06475542,12.4554672 3.06475542,24 C3.06475542,35.5445328 12.3266852,44.9032258 23.7518545,44.9032258 C24.3561982,44.9032258 24.9544893,44.8770405 25.545677,44.8257314 L25.8719125,47.9056973 C25.173473,47.9681222 24.466348,48 23.7518545,48 C10.6340675,48 0,37.254834 0,24 C0,10.745166 10.6340675,0 23.7518545,0 Z" fill="url(#3s688uwul__hwevf1hx5a)"/>
    <path fill="#ADFFFF" d="M43 11A1 1 0 1 0 43 13A1 1 0 1 0 43 11Z"/>
    <g fill="#00FCFF" fill-rule="nonzero">
      <path d="M22.5,22 L10,22 L10,2.09018897 L19.7465625,3.71518642 C20.4706859,3.83387827 21.0016887,4.46046329 21,5.19424661 L21,20.5 C21,20.7761459 21.2238576,21 21.5,21 C21.7761424,21 22,20.7761459 22,20.5 L22,5.19424661 C21.999972,3.97214932 21.1164136,2.92919521 19.9109375,2.72831298 L9.58281251,1.00690941 C9.43775382,0.982547633 9.28932696,1.02329382 9.17703805,1.11830273 C9.06474914,1.21331164 9,1.35294369 9,1.50003364 L9,4.12284204 L3.8125,5.60487097 C2.73954383,5.91176602 1.99993775,6.89263516 2,8.00861721 L2,22 L1.5,22 C1.22385762,22 1,22.2238589 1,22.5 C1,22.7761427 1.22385762,23 1.5,23 L22.5,23 C22.7761424,23 23,22.7761427 23,22.5 C23,22.2238589 22.7761424,22 22.5,22 Z M8.99999999,22.0000016 L2.99999999,22.0000016 L2.99999999,8.00861721 C3.00217626,7.33959938 3.44528782,6.7521577 4.08796874,6.56627571 L8.99999999,5.16284041 L8.99999999,22.0000016 Z M14,8.0000266 L13,8.0000266 L13,6.0000266 L14,6.0000266 L14,8.0000266 Z M16,8.0000266 L15,8.0000266 L15,6.0000266 L16,6.0000266 L16,8.0000266 Z M16,11.0000219 L15,11.0000219 L15,9.00002191 L16,9.00002191 L16,11.0000219 Z M16,14.0000172 L15,14.0000172 L15,12.0000172 L16,12.0000172 L16,14.0000172 Z M16,17.0000125 L15,17.0000125 L15,15.0000125 L16,15.0000125 L16,17.0000125 Z M15,18.0000078 L16,18.0000078 L16,20.0000078 L15,20.0000078 L15,18.0000078 Z M14,11.0000219 L13,11.0000219 L13,9.00002191 L14,9.00002191 L14,11.0000219 Z M14,14.0000172 L13,14.0000172 L13,12.0000172 L14,12.0000172 L14,14.0000172 Z M14,17.0000125 L13,17.0000125 L13,15.0000125 L14,15.0000125 L14,17.0000125 Z M13,18.0000078 L14,18.0000078 L14,20.0000078 L13,20.0000078 L13,18.0000078 Z M18,8.0000266 L17,8.0000266 L17,6.0000266 L18,6.0000266 L18,8.0000266 Z M18,11.0000219 L17,11.0000219 L17,9.00002191 L18,9.00002191 L18,11.0000219 Z M18,14.0000172 L17,14.0000172 L17,12.0000172 L18,12.0000172 L18,14.0000172 Z M18,17.0000125 L17,17.0000125 L17,15.0000125 L18,15.0000125 L18,17.0000125 Z M17,18.0000078 L18,18.0000078 L18,20.0000078 L17,20.0000078 L17,18.0000078 Z M5.99999999,11.0000219 L4.99999999,11.0000219 L4.99999999,9.00002191 L5.99999999,9.00002191 L5.99999999,11.0000219 Z M5.99999999,14.0000172 L4.99999999,14.0000172 L4.99999999,12.0000172 L5.99999999,12.0000172 L5.99999999,14.0000172 Z M5.99999999,17.0000125 L4.99999999,17.0000125 L4.99999999,15.0000125 L5.99999999,15.0000125 L5.99999999,17.0000125 Z M5.99999999,20.0000078 L4.99999999,20.0000078 L4.99999999,18.0000078 L5.99999999,18.0000078 L5.99999999,20.0000078 Z" transform="translate(12 10)"/>
    </g>
  </g>
</svg>
