<svg xmlns="http://www.w3.org/2000/svg" viewBox="0 0 40 40" class="design-iconfont">
  <g fill="none" fill-rule="evenodd">
    <path fill="#0033C1" opacity=".49986049" d="M20 0A20 20 0 1 0 20 40A20 20 0 1 0 20 0Z"/>
    <path
      d="M22.5,22 L10,22 L10,2.09015625 L19.7465625,3.71515624 C20.4706859,3.83384828 21.0016887,4.46043428 21,5.19421875 L21,20.5 C21,20.7761424 21.2238576,21 21.5,21 C21.7761424,21 22,20.7761424 22,20.5 L22,5.19421875 C21.999972,3.97211955 21.1164136,2.92916381 19.9109375,2.72828126 L9.58281251,1.006875 C9.43775382,0.982513184 9.28932696,1.02325943 9.17703805,1.11826849 C9.06474915,1.21327755 9.00000001,1.35290982 9.00000001,1.5 L9.00000001,4.12281251 L3.81250001,5.60484375 C2.73954383,5.91173929 1.99993775,6.89260996 2.00000001,8.00859375 L2.00000001,22 L1.50000001,22 C1.22385763,22 1.00000001,22.2238576 1.00000001,22.5 C1.00000001,22.7761424 1.22385763,23 1.50000001,23 L22.5,23 C22.7761424,23 23,22.7761424 23,22.5 C23,22.2238576 22.7761424,22 22.5,22 Z M9,22 L3,22 L3,8.00859375 C3.00217627,7.33957488 3.44528783,6.75213228 4.08796875,6.56625 L9,5.1628125 L9,22 Z M14,8 L13,8 L13,6 L14,6 L14,8 Z M16,8 L15,8 L15,6 L16,6 L16,8 Z M16,11 L15,11 L15,9 L16,9 L16,11 Z M16,14 L15,14 L15,12 L16,12 L16,14 Z M16,17 L15,17 L15,15 L16,15 L16,17 Z M15,18 L16,18 L16,20 L15,20 L15,18 Z M14,11 L13,11 L13,9 L14,9 L14,11 Z M14,14 L13,14 L13,12 L14,12 L14,14 Z M14,17 L13,17 L13,15 L14,15 L14,17 Z M13,18 L14,18 L14,20 L13,20 L13,18 Z M18,8 L17,8 L17,6 L18,6 L18,8 Z M18,11 L17,11 L17,9 L18,9 L18,11 Z M18,14 L17,14 L17,12 L18,12 L18,14 Z M18,17 L17,17 L17,15 L18,15 L18,17 Z M17,18 L18,18 L18,20 L17,20 L17,18 Z M5.99999999,11 L4.99999999,11 L4.99999999,9 L5.99999999,9 L5.99999999,11 Z M5.99999999,14 L4.99999999,14 L4.99999999,12 L5.99999999,12 L5.99999999,14 Z M5.99999999,17 L4.99999999,17 L4.99999999,15 L5.99999999,15 L5.99999999,17 Z M5.99999999,20 L4.99999999,20 L4.99999999,18 L5.99999999,18 L5.99999999,20 Z"
      transform="translate(8 8)" fill="#00FCFF" fill-rule="nonzero"/>
  </g>
</svg>
