<svg xmlns="http://www.w3.org/2000/svg" viewBox="0 0 40 40" class="design-iconfont">
  <g fill="none" fill-rule="evenodd">
    <path fill="#0033C1" opacity=".49986049" d="M20 0A20 20 0 1 0 20 40A20 20 0 1 0 20 0Z"/>
    <path
      d="M22.5,22 L22,22 L22,19.8964062 C22.2307813,19.7978125 22.4404688,19.6317188 22.6071875,19.4095313 C22.8604688,19.0717188 23,18.6303125 23,18.1667187 C23,17.7214062 22.87,16.9978125 22.6840625,16.4070312 C22.5728125,16.0540625 22.4482812,15.7654688 22.3139063,15.5492187 C22.0873437,15.1848437 21.8139063,15 21.5,15 C21.1860937,15 20.9126562,15.1848438 20.6860938,15.5492187 C20.5517188,15.7654688 20.4271875,16.0540625 20.3159375,16.4070312 C20.13,16.9978125 20,17.7214062 20,18.1667187 C20,18.6303125 20.1395312,19.0717187 20.3928125,19.4095313 C20.5595312,19.6317188 20.7692187,19.7978125 21,19.8964062 L21,22 L12,22 L12,7.00000001 L21,7.00000001 L21,13.5 C21,13.7761424 21.2238576,14 21.5,14 C21.7761424,14 22,13.7761424 22,13.5 L22,6.50000001 C22,6.36739175 21.9473216,6.24021479 21.8535534,6.1464466 C21.7597852,6.05267841 21.6326082,6.00000001 21.5,6.00000001 L21,6.00000001 L21,4.50000001 C21,4.22385763 20.7761424,4.00000001 20.5,4.00000001 L13.5,4.00000001 C13.2238576,4.00000001 13,4.22385763 13,4.50000001 L13,6.00000001 L11.9496875,6.00000001 C11.7443901,5.00376593 10.9575656,4.23027431 9.95796874,4.04203125 C9.76972568,3.04243438 8.99623407,2.2556099 8.00000001,2.0503125 L8.00000001,1.50000001 C8.00000001,1.22385763 7.77614237,1.00000001 7.50000001,1.00000001 C7.22385763,1.00000001 7.00000001,1.22385763 7.00000001,1.50000001 L7.00000001,2.0503125 C6.00376593,2.2556099 5.23027432,3.04243438 5.04203126,4.04203125 C3.88156249,4.25781251 3.00000001,5.27796874 3.00000001,6.50000001 L3.00000001,9.00000001 L2.50000001,9.00000001 C2.36739176,9.00000001 2.2402148,9.05267841 2.14644661,9.1464466 C2.05267841,9.24021479 2.00000001,9.36739175 2.00000001,9.50000001 L2.00000001,11 L1.50000001,11 C1.36739175,11 1.2402148,11.0526784 1.14644661,11.1464466 C1.05267842,11.2402148 1.00000001,11.3673918 1.00000001,11.5 L1.00000001,20.5 C1.00000001,20.7761424 1.22385763,21 1.50000001,21 C1.77614237,21 2.00000001,20.7761424 2.00000001,20.5 L2.00000001,12 L7.00000001,12 L7.00000001,22 L1.50000001,22 C1.22385763,22 1.00000001,22.2238576 1.00000001,22.5 C1.00000001,22.7761424 1.22385763,23 1.50000001,23 L22.5,23 C22.7761424,23 23,22.7761424 23,22.5 C23,22.2238576 22.7761424,22 22.5,22 Z M21.2140625,16.8957813 C21.3185937,16.5196875 21.421875,16.2795313 21.5,16.1371875 C21.578125,16.2795312 21.6814062,16.5196875 21.7859375,16.8957813 C21.9329687,17.4248438 22,17.9254687 22,18.1667187 C22,18.6435938 21.7360938,19 21.5,19 C21.2639062,19 21,18.6435937 21,18.1667187 C21,17.9254688 21.0670313,17.4248438 21.2140625,16.8957813 Z M14,4.99999999 L20,4.99999999 L20,5.99999999 L14,5.99999999 L14,4.99999999 Z M3,10 L6,10 L6,11 L3,11 L3,10 Z M8.00000001,22 L8.00000001,11.5 C8.00000001,11.3673918 7.94732158,11.2402148 7.85355339,11.1464466 C7.7597852,11.0526784 7.63260825,11 7.50000001,11 L7.00000001,11 L7.00000001,9.5 C7.00000001,9.36739175 6.94732159,9.24021479 6.85355339,9.1464466 C6.7597852,9.05267841 6.63260824,9 6.50000001,9 L4.00000001,9 L4.00000001,6.5 C4.00094717,5.67196551 4.67196553,5.00094715 5.50000001,5 C5.77614238,5 6.00000001,4.77614237 6.00000001,4.5 C6.00000001,3.67157288 6.67157288,3 7.50000001,3 C8.32842712,3 9.00000001,3.67157288 9.00000001,4.5 C9.00000001,4.77614237 9.22385762,5 9.50000001,5 C10.3280345,5.00094715 10.9990528,5.67196551 11,6.5 L11,22 L8.00000001,22 Z M5.00000001,16 L4.00000001,16 L4.00000001,14 L5.00000001,14 L5.00000001,16 Z M4.00000001,17 L5.00000001,17 L5.00000001,19 L4.00000001,19 L4.00000001,17 Z M15,11 L14,11 L14,9 L15,9 L15,11 Z M15,14 L14,14 L14,12 L15,12 L15,14 Z M15,17 L14,17 L14,15 L15,15 L15,17 Z M14,18 L15,18 L15,20 L14,20 L14,18 Z M17,11 L16,11 L16,9 L17,9 L17,11 Z M17,14 L16,14 L16,12 L17,12 L17,14 Z M17,17 L16,17 L16,15 L17,15 L17,17 Z M16,18 L17,18 L17,20 L16,20 L16,18 Z M19,11 L18,11 L18,9 L19,9 L19,11 Z M19,14 L18,14 L18,12 L19,12 L19,14 Z M18,15 L19,15 L19,17 L18,17 L18,15 Z"
      transform="translate(8 8)" fill="#00FCFF" fill-rule="nonzero"/>
  </g>
</svg>
