<svg xmlns="http://www.w3.org/2000/svg" viewBox="0 0 17 17" class="design-iconfont">
  <path
    d="M8,4 C8.27614237,4 8.5,3.77614237 8.5,3.5 L8.5,1.985 C8.5,1.70885763 8.27614237,1.485 8,1.485 C7.72385763,1.485 7.5,1.70885763 7.5,1.985 L7.5,3.5 C7.5,3.77614237 7.72385763,4 8,4 Z M5.3495,9.6255 C5.26855866,9.6254363 5.19555904,9.67416548 5.16457551,9.74894198 C5.13359199,9.82371848 5.15073396,9.90979768 5.208,9.967 L7.876,12.635 C7.91351365,12.6725554 7.96441815,12.6936573 8.0175,12.6936573 C8.07058185,12.6936573 8.12148635,12.6725554 8.159,12.635 L10.827,9.967 C10.884266,9.90979768 10.901408,9.82371848 10.8704245,9.74894198 C10.839441,9.67416548 10.7664413,9.6254363 10.6855,9.6255 L8.5,9.6255 L8.5,5.5 C8.5,5.22385763 8.27614237,5 8,5 C7.72385763,5 7.5,5.22385763 7.5,5.5 L7.5,9.6255 L5.3495,9.6255 L5.3495,9.6255 Z M13.9435,2.914 L11.222,1.569 C10.9766443,1.45958591 10.6886698,1.56338885 10.5695492,1.80418163 C10.4504286,2.04497442 10.542654,2.3368628 10.7785,2.4655 L13.4999942,3.8105 L13.4999942,11.6675 L7.99999416,13.9725 L2.49999416,11.6675 L2.49999416,3.8105 L5.2215,2.4655 C5.46258839,2.33984938 5.55909973,2.0445903 5.43876959,1.8008028 C5.31843945,1.55701529 5.02536922,1.45404829 4.779,1.569 L2.057,2.914 C1.71499519,3.08153441 1.49869832,3.42966752 1.49999416,3.8105 L1.49999416,11.6675 C1.49999416,12.072 1.741,12.434 2.1135,12.5895 L7.807,14.9755 C7.93074763,15.0275598 8.07025237,15.0275598 8.194,14.9755 L13.887,12.59 C14.2589655,12.434614 14.5008417,12.0706159 14.5000056,11.6675 L14.5000056,3.8105 C14.5012751,3.42981409 14.2852267,3.08176843 13.9435,2.914 L13.9435,2.914 Z"
    fill="#00DAA7" transform="translate(.5 .859924)" fill-rule="nonzero"/>
</svg>
