<svg xmlns="http://www.w3.org/2000/svg" viewBox="0 0 20 20" class="design-iconfont">
  <g fill="#00FFCA" fill-rule="nonzero">
    <path
      d="M3.75,13.125 C4.125,13.125 4.375,13.375 4.375,13.75 L4.375,16.25 C4.375,16.625 4.125,16.875 3.75,16.875 C3.375,16.875 3.125,16.625 3.125,16.25 L3.125,13.75 C3.125,13.375 3.375,13.125 3.75,13.125 Z M8.125,9.375 C8.5,9.375 8.75,9.625 8.75,10 L8.75,16.25 C8.75,16.625 8.5,16.875 8.125,16.875 C7.75,16.875 7.5,16.625 7.5,16.25 L7.5,10 C7.5,9.625 7.75,9.375 8.125,9.375 Z M11.875,11.875 C12.25,11.875 12.5,12.125 12.5,12.5 L12.5,16.25 C12.5,16.625 12.25,16.875 11.875,16.875 C11.5,16.875 11.25,16.625 11.25,16.25 L11.25,12.5 C11.25,12.125 11.5,11.875 11.875,11.875 Z M16.25,8.75 C16.625,8.75 16.875,9 16.875,9.375 L16.875,16.25 C16.875,16.625 16.625,16.875 16.25,16.875 C15.875,16.875 15.625,16.625 15.625,16.25 L15.625,9.375 C15.625,9 15.875,8.75 16.25,8.75 Z"/>
    <path
      d="M8.1875,6.3125 L3.375,11.125 C3.125,11.375 2.75,11.375 2.5,11.125 C2.25,10.875 2.25,10.5 2.5,10.25 L8.1875,4.5625 L11.9375,8.3125 L16.1875,4.0625 C16.4375,3.8125 16.8125,3.8125 17.0625,4.0625 C17.3125,4.3125 17.3125,4.6875 17.0625,4.9375 L11.9375,10.0625 L8.1875,6.3125 Z"/>
  </g>
</svg>
