<svg xmlns="http://www.w3.org/2000/svg" viewBox="0 0 17 17" class="design-iconfont">
  <path
    d="M11.75,8.5 C12.6782577,8.5 13.5684964,8.86874894 14.2248737,9.52512627 C14.8812511,10.1815036 15.25,11.0717423 15.25,12 C15.25,13.9329966 13.6829966,15.5 11.75,15.5 C9.81700338,15.5 8.25,13.9329966 8.25,12 C8.25,10.0670034 9.81700338,8.5 11.75,8.5 Z M0.816248932,11.1727438 C0.944484471,10.9319611 1.24205483,10.8384101 1.485,10.9625 L1.485,10.9625 L8,14.4325 L8.1975,14.3275 C8.38655348,14.6129023 8.60895601,14.8747499 8.86,15.1075 L8.86,15.1075 L8.235,15.44 C8.08809728,15.5182224 7.91190272,15.5182224 7.765,15.44 L7.765,15.44 L1.015,11.845 C0.776450526,11.7126565 0.688013393,11.4135265 0.816248932,11.1727438 Z M11.75,9.5 C10.3692881,9.5 9.25,10.6192881 9.25,12 C9.25,13.3807119 10.3692881,14.5 11.75,14.5 C13.1307119,14.5 14.25,13.3807119 14.25,12 C14.25,10.6192881 13.1307119,9.5 11.75,9.5 Z M11.7525,12.8875 C11.8302717,12.8864646 11.9080061,12.8914797 11.985,12.9025 C12.0466264,12.9124998 12.1039817,12.9403084 12.15,12.9825 C12.1913066,13.0255418 12.2198652,13.0791974 12.2325,13.1375 C12.2458351,13.2142521 12.2516958,13.2921165 12.2499932,13.37 C12.2523906,13.4537058 12.246529,13.5374436 12.2325,13.62 C12.2210605,13.6809262 12.1924349,13.7373099 12.15,13.7825 C12.1046019,13.825596 12.0469524,13.8535473 11.985,13.8625 C11.9080061,13.8735203 11.8302717,13.8785354 11.7525,13.8775 C11.6730642,13.8786635 11.5936582,13.8736484 11.515,13.8625 C11.453191,13.8530825 11.3956742,13.8251955 11.35,13.7825 C11.3035678,13.7388867 11.2735547,13.680626 11.265,13.6175 C11.2449909,13.4614722 11.2449909,13.3035278 11.265,13.1475 C11.2735547,13.084374 11.3035678,13.0261133 11.35,12.9825 C11.3963378,12.940781 11.4535467,12.9130434 11.515,12.9025 C11.5936582,12.8913516 11.6730642,12.8863365 11.7525,12.8875 Z M8,0.497587016 C8.25960317,0.497587016 8.50074554,0.631837302 8.6375,0.8525 L8.6375,0.8525 L13.0625,7.95 C11.0801954,7.30101186 8.92050514,8.19204318 7.9725,10.05 C7.90411824,10.0458367 7.83712528,10.0288764 7.775,10 L7.775,10 L4.215,8.225 C4.14379337,8.1879889 4.08217013,8.13492445 4.035,8.07 L4.035,8.07 L3,9.7325 L7.5,12.135 C7.51307278,12.5606804 7.58975478,12.98201 7.7275,13.385 C7.69517206,13.3742449 7.66345783,13.3617261 7.6325,13.3475 L7.6325,13.3475 L2.5,10.5975 C2.2674225,10.4707138 2.09607532,10.2551771 2.025,10 C1.95413749,9.74568182 1.99409289,9.47325864 2.135,9.25 L2.135,9.25 L7.3625,0.8525 C7.49925446,0.631837302 7.74039683,0.497587016 8,0.497587016 Z M12.1675,10.1225 C12.1842888,10.1217743 12.2006125,10.1281224 12.2125,10.14 C12.2245124,10.152818 12.230825,10.1699524 12.23,10.1875 L12.23,10.1875 L12.1325,12.48 C12.1299756,12.5129929 12.1030684,12.5388238 12.07,12.54 L12.07,12.54 L11.435,12.54 C11.4019316,12.5388238 11.3750244,12.5129929 11.3725,12.48 L11.3725,12.48 L11.275,10.1875 C11.274175,10.1699524 11.2804876,10.152818 11.2925,10.14 C11.3043875,10.1281224 11.3207112,10.1217743 11.3375,10.1225 L11.3375,10.1225 Z M5.6275,5.5275 L4.5325,7.2875 C4.58191075,7.29559487 4.62990145,7.31074983 4.675,7.3325 L4.675,7.3325 L8,9 L11.4125,7.2 L10.3825,5.545 L8.225,6.635 C8.15568746,6.67161877 8.07838941,6.69051385 8,6.69 C7.92015887,6.68930971 7.84151615,6.67050384 7.77,6.635 L7.77,6.635 L5.6275,5.5275 Z M8,1.72 L6.1575,4.675 L8,5.6275 L9.8525,4.695 L8,1.72 Z"
    fill="#00DAA7" transform="translate(.736651 .859924)" fill-rule="nonzero"/>
</svg>
