<?xml version="1.0" encoding="UTF-8"?>
<svg width="32px" height="23px" viewBox="0 0 32 23" version="1.1" xmlns="http://www.w3.org/2000/svg" xmlns:xlink="http://www.w3.org/1999/xlink">
    <title>Group</title>
    <g id="Page-1" stroke="none" stroke-width="1" fill="none" fill-rule="evenodd">
        <g id="Group">
            <rect id="Rectangle" fill-opacity="0" fill="#D8D8D8" x="0" y="0" width="32" height="23"></rect>
            <g id="kilomega" transform="translate(5.408000, 7.348000)" fill-rule="nonzero">
                <g id="路径" transform="translate(0.000000, 0.072000)">
                    <g id="path-1-link" fill="#000000">
                        <polygon id="path-1" points="4.296 5.088 0 5.088 0 3.972 4.296 3.972 4.296 1.116 0.468 1.116 0.468 -6.9388939e-17 9.744 -6.9388939e-17 9.744 1.116 5.916 1.116 5.916 3.972 10.212 3.972 10.212 5.088 5.916 5.088 5.916 8.52 4.296 8.52"></polygon>
                    </g>
                    <g id="path-1-link" fill="#00FCFF">
                        <polygon id="path-1" points="4.296 5.088 0 5.088 0 3.972 4.296 3.972 4.296 1.116 0.468 1.116 0.468 -6.9388939e-17 9.744 -6.9388939e-17 9.744 1.116 5.916 1.116 5.916 3.972 10.212 3.972 10.212 5.088 5.916 5.088 5.916 8.52 4.296 8.52"></polygon>
                    </g>
                </g>
                <g id="形状" transform="translate(10.932000, 0.000000)">
                    <g id="path-3-link" fill="#000000">
                        <path d="M7.356,0 L7.356,2.58 L8.22,0.48 L9.864,0.48 L8.748,3.192 L7.356,3.192 L7.356,3.756 L8.748,3.756 L9.864,7.2 L8.22,7.2 L7.356,4.536 L7.356,7.092 C7.356,7.204 7.392,7.296 7.464,7.368 C7.536,7.44 7.628,7.476 7.74,7.476 L10.428,7.476 L10.02,8.664 L7.008,8.664 C6.824,8.664 6.654,8.63 6.498,8.562 C6.342,8.494 6.204,8.4 6.084,8.28 C5.964,8.16 5.87,8.02 5.802,7.86 C5.734,7.7 5.7,7.528 5.7,7.344 L5.7,0 L7.356,0 Z M2.496,7.008 L2.496,4.536 L1.644,7.2 L-1.77635684e-15,7.2 L1.116,3.756 L2.496,3.756 L2.496,3.192 L1.116,3.192 L-1.77635684e-15,0.48 L1.644,0.48 L2.496,2.58 L2.496,0 L4.164,0 L4.164,7.596 L2.988,8.664 L0.828,8.664 L2.496,7.008 Z" id="path-3"></path>
                    </g>
                    <g id="path-3-link" fill="#00FCFF">
                        <path d="M7.356,0 L7.356,2.58 L8.22,0.48 L9.864,0.48 L8.748,3.192 L7.356,3.192 L7.356,3.756 L8.748,3.756 L9.864,7.2 L8.22,7.2 L7.356,4.536 L7.356,7.092 C7.356,7.204 7.392,7.296 7.464,7.368 C7.536,7.44 7.628,7.476 7.74,7.476 L10.428,7.476 L10.02,8.664 L7.008,8.664 C6.824,8.664 6.654,8.63 6.498,8.562 C6.342,8.494 6.204,8.4 6.084,8.28 C5.964,8.16 5.87,8.02 5.802,7.86 C5.734,7.7 5.7,7.528 5.7,7.344 L5.7,0 L7.356,0 Z M2.496,7.008 L2.496,4.536 L1.644,7.2 L-1.77635684e-15,7.2 L1.116,3.756 L2.496,3.756 L2.496,3.192 L1.116,3.192 L-1.77635684e-15,0.48 L1.644,0.48 L2.496,2.58 L2.496,0 L4.164,0 L4.164,7.596 L2.988,8.664 L0.828,8.664 L2.496,7.008 Z" id="path-3"></path>
                    </g>
                </g>
            </g>
        </g>
    </g>
</svg>