<svg xmlns="http://www.w3.org/2000/svg" viewBox="0 0 16 17" class="design-iconfont">
  <path
    d="M8,0 C3.6,0 0,3.6 0,8 C0,12.4 3.6,16 8,16 C12.4,16 16,12.4 16,8 C16,3.6 12.4,0 8,0 Z M8,15 C4.1,15 1,11.9 1,8 C1,4.1 4.1,1 8,1 C11.9,1 15,4.1 15,8 C15,11.9 11.9,15 8,15 Z M8,6.1 C6.4,6.1 5.1,7.4 5.1,9 C5.1,9.3 5.3,9.5 5.6,9.5 C5.9,9.5 6.1,9.3 6.1,9 C6.1,8 7,7.1 8,7.1 C9,7.1 9.9,8 9.9,9 C9.9,9.3 10.1,9.5 10.4,9.5 C10.7,9.5 10.9,9.3 10.9,9 C10.9,7.4 9.6,6.1 8,6.1 Z M10.4,10.2 L5.6,10.2 C5.3,10.2 5.1,10.4 5.1,10.7 C5.1,11 5.3,11.2 5.6,11.2 L10.4,11.2 C10.7,11.2 10.9,11 10.9,10.7 C10.9,10.4 10.6,10.2 10.4,10.2 L10.4,10.2 Z M9.4,12 L6.6,12 C6.3,12 6.1,12.2 6.1,12.5 C6.1,12.8 6.3,13 6.6,13 L9.4,13 C9.7,13 9.9,12.8 9.9,12.5 C9.9,12.2 9.7,12 9.4,12 L9.4,12 Z M8,5.4 C8.3,5.4 8.5,5.2 8.5,4.9 L8.5,3.5 C8.5,3.3 8.3,3 8,3 C7.7,3 7.5,3.3 7.5,3.5 L7.5,4.8 C7.5,5.1 7.7,5.4 8,5.4 L8,5.4 Z M5.5,6.4 C5.6,6.4 5.8,6.4 5.9,6.3 C6.1,6.1 6.1,5.8 5.9,5.6 L4.9,4.6 C4.7,4.4 4.4,4.4 4.2,4.6 C4,4.8 4,5.1 4.2,5.3 L5.1,6.2 C5.3,6.3 5.4,6.4 5.5,6.4 L5.5,6.4 Z M11,4.6 L10.1,5.5 C9.9,5.7 9.9,6 10.1,6.2 C10.2,6.3 10.3,6.3 10.5,6.3 C10.7,6.3 10.8,6.3 10.9,6.2 L11.8,5.3 C12,5.1 12,4.8 11.8,4.6 C11.6,4.4 11.2,4.4 11,4.6 Z"
    fill="#00DAA7" transform="translate(0 .26893)" fill-rule="nonzero"/>
</svg>
