<svg xmlns="http://www.w3.org/2000/svg" viewBox="0 0 20 20" class="design-iconfont">
  <path
    d="M2.28643253,6.81621881 L2.90098251,6.81621881 L2.90098251,13.3842218 L2.28643253,13.3842218 L2.28643253,6.81621881 Z M3.46483212,15.304076 L3.77825262,14.775563 L9.20073447,17.9911958 L8.88731397,18.5197088 L3.46483212,15.304076 Z M10.7524732,17.9185253 L16.3107706,14.6497339 L16.6221938,15.179476 L11.06405,18.4482674 L10.7524732,17.9185253 Z M17.075578,6.8408008 L17.690128,6.8408008 L17.690128,13.3350578 L17.075578,13.3350578 L17.075578,6.8408008 Z M10.753395,2.14195158 L11.0648182,1.61205584 L16.4897583,4.80126303 L16.1783351,5.33115876 L10.753395,2.14195158 Z M3.43410462,4.82400137 L8.84091546,1.61774043 L9.15433594,2.14625342 L3.74752512,5.35266801 L3.43410462,4.82400137 Z M3.45761117,6.54689227 L3.76903438,6.01699655 L6.82718876,7.81486255 L6.51576557,8.34460464 L3.45761117,6.54689227 Z M13.4615632,12.427982 L13.7729864,11.89824 L16.586089,13.551994 L16.2748194,14.0817361 L13.4615632,12.427982 Z M13.4924443,7.55982429 L16.2354882,5.93326411 L16.5489087,6.4617771 L13.8058648,8.08833729 L13.4924443,7.55982429 Z M3.4135172,13.535862 L6.45984151,11.7450634 L6.77126472,12.2748055 L3.72494042,14.0656041 L3.4135172,13.535862 Z M9.6810053,2.396068 L10.2955553,2.396068 L10.2955553,5.8774937 L9.6810053,5.8774937 L9.6810053,2.396068 Z M9.6810053,14.0510086 L10.2955553,14.0510086 L10.2955553,17.5324343 L9.6810053,17.5324343 L9.6810053,14.0510086 Z M2.71354476,7.09430269 C1.97997176,7.0696476 1.39804104,6.46782984 1.39804104,5.73384264 C1.39804104,4.99985544 1.97997176,4.39803768 2.71354476,4.37338259 C3.44711776,4.39803768 4.02904849,4.99985544 4.02904849,5.73384264 C4.02904849,6.46782984 3.44711776,7.0696476 2.71354476,7.09430269 L2.71354476,7.09430269 Z M2.71354476,4.98793259 C2.31474343,5.00603663 2.00072795,5.33463059 2.00072795,5.73384264 C2.00072795,6.13305469 2.31474343,6.46164865 2.71354476,6.47975269 C3.11234609,6.46164865 3.42636157,6.13305469 3.42636157,5.73384264 C3.42636157,5.33463059 3.11234609,5.00603663 2.71354476,4.98793259 L2.71354476,4.98793259 Z M17.2630158,7.09430269 C16.7108342,7.10178212 16.2088507,6.77491373 15.9923371,6.26689564 C15.7758236,5.75887754 15.8876896,5.17039104 16.2755054,4.77725057 C16.6633212,4.3841101 17.2502276,4.26423 17.7611508,4.47379621 C18.272074,4.68336242 18.6057569,5.18084216 18.6058075,5.73307445 C18.6082607,6.09165229 18.4681646,6.43651735 18.2163405,6.69179899 C17.9645164,6.94708062 17.6215937,7.09186617 17.2630158,7.09430269 L17.2630158,7.09430269 Z M17.2630158,4.98793259 C16.9593074,4.9804318 16.6813339,5.15768852 16.5600187,5.43621616 C16.4387034,5.71474381 16.4982365,6.03900456 16.7105782,6.25627404 C16.9229199,6.47354352 17.2457298,6.54049866 17.5269669,6.42560408 C17.8082039,6.31070951 17.99179,6.03687496 17.9912575,5.73307445 C17.9937164,5.53762768 17.9183213,5.34923165 17.781703,5.20944284 C17.6450846,5.06965403 17.4584675,4.98995744 17.2630158,4.98793259 L17.2630158,4.98793259 Z M9.9560164,2.74789788 C9.2099183,2.74282286 8.60896813,2.13430924 8.61322468,1.38820602 C8.59663327,0.8979182 8.8487308,0.43760322 9.27078284,0.187544237 C9.69283489,-0.0625147457 10.2176616,-0.0625147457 10.6397136,0.187544237 C11.0617657,0.43760322 11.3138632,0.8979182 11.2972718,1.38820602 C11.3015312,2.13371387 10.7015129,2.74197978 9.9560164,2.74789788 L9.9560164,2.74789788 Z M9.9560164,0.641527782 C9.54907611,0.647428179 9.2235013,0.981245393 9.22777467,1.38820602 C9.21546096,1.65608293 9.35136059,1.9090532 9.58151362,2.04667315 C9.81166665,2.18429309 10.0988298,2.18429309 10.3289828,2.04667315 C10.5591358,1.9090532 10.6950355,1.65608293 10.6827218,1.38820602 C10.6878488,0.981497191 10.3627148,0.647427111 9.9560164,0.641527782 Z M9.9560164,19.9998525 C9.40370565,20.0079572 8.9012555,19.6814926 8.68425576,19.173532 C8.46725602,18.6655714 8.57873518,18.0768374 8.96642268,17.6833768 C9.35411017,17.2899162 9.94113214,17.1697476 10.4522446,17.3792158 C10.963357,17.588684 11.2972123,18.086254 11.2972944,18.6386243 C11.301535,19.384386 10.7017597,19.9930926 9.9560164,19.9998525 L9.9560164,19.9998525 Z M9.9560164,17.891946 C9.65232759,17.8838198 9.37399205,18.0604995 9.25210123,18.3387719 C9.13021041,18.6170444 9.18906849,18.941424 9.40095429,19.1591333 C9.6128401,19.3768426 9.93550505,19.4444719 10.2169793,19.3301688 C10.4984535,19.2158658 10.6826131,18.9424218 10.6827218,18.6386243 C10.6870021,18.2322538 10.3623536,17.8986826 9.9560164,17.891946 L9.9560164,17.891946 Z M2.71354476,15.7855759 C1.97997176,15.7609208 1.39804104,15.1591031 1.39804104,14.4251159 C1.39804104,13.6911287 1.97997176,13.0893109 2.71354476,13.0646558 C3.44711776,13.0893109 4.02904849,13.6911287 4.02904849,14.4251159 C4.02904849,15.1591031 3.44711776,15.7609208 2.71354476,15.7855759 Z M2.71354476,13.6792058 C2.31474334,13.6973098 2.00072774,14.0259038 2.00072774,14.4251159 C2.00072774,14.824328 2.31474334,15.152922 2.71354476,15.1710259 C3.11234618,15.152922 3.42636179,14.824328 3.42636179,14.4251159 C3.42636179,14.0259038 3.11234618,13.6973098 2.71354476,13.6792058 L2.71354476,13.6792058 Z M17.2630158,15.7855759 C16.7108342,15.7930554 16.2088507,15.466187 15.9923371,14.9581689 C15.7758236,14.4501508 15.8876896,13.8616643 16.2755054,13.4685238 C16.6633212,13.0753833 17.2502276,12.9555032 17.7611508,13.1650695 C18.272074,13.3746357 18.6057569,13.8721154 18.6058075,14.4243477 C18.6082607,14.7829255 18.4681646,15.1277906 18.2163405,15.3830722 C17.9645164,15.6383539 17.6215937,15.7831394 17.2630158,15.7855759 Z M17.2630158,13.6792058 C16.9593074,13.671705 16.6813339,13.8489618 16.5600187,14.1274894 C16.4387034,14.406017 16.4982365,14.7302778 16.7105782,14.9475473 C16.9229199,15.1648168 17.2457298,15.2317719 17.5269669,15.1168773 C17.8082039,15.0019828 17.99179,14.7281482 17.9912575,14.4243477 C17.9955258,14.0176439 17.6697104,13.6842675 17.2630158,13.6792058 Z M10.2003,14.3582836 C7.81506537,14.3354737 5.8982998,12.3864069 5.91535021,10.0011241 C5.91535021,7.59977005 7.83735531,5.6439647 10.2003,5.6439647 C12.5632447,5.6439647 14.4837135,7.59977005 14.4837135,10.0011241 C14.4837135,12.4024782 12.5617084,14.3582836 10.2003,14.3582836 L10.2003,14.3582836 Z M10.2003,6.25851468 C8.68020323,6.22855625 7.29304218,7.1211741 6.69045007,8.51705179 C6.08785796,9.91292948 6.38959982,11.5346367 7.4539293,12.6203597 C8.51825879,13.7060828 10.1336407,14.0400345 11.5412327,13.4653376 C12.9488247,12.8906407 13.8688683,11.5215161 13.8691635,10.0011241 C13.8862318,7.95583094 12.2455279,6.28214802 10.2003,6.25851468 Z M13.2008404,12.9325276 L12.5862904,12.9325276 L12.5862904,11.6773092 C12.5687173,11.3738683 12.3814296,11.1063144 12.1023323,10.9859405 C10.8142824,10.5941394 9.43882567,10.5941394 8.15077581,10.9859405 C7.87311183,11.1074946 7.68725427,11.3747019 7.66989044,11.6773092 L7.66989044,12.786572 L7.05534045,12.786572 L7.05534045,11.6773092 C7.07410973,11.1034177 7.43855605,10.5980521 7.97716545,10.3990452 C9.38327237,9.97041352 10.8851994,9.97041352 12.2913064,10.3990452 C12.8302091,10.5967891 13.1949983,11.102022 13.2131314,11.6757729 L13.2008404,12.9325276 Z M10.1280904,10.6433289 C9.42351958,10.6514279 8.78380883,10.2332391 8.50855079,9.58461086 C8.23329274,8.93598259 8.37698734,8.18534049 8.87233879,7.68422915 C9.36769024,7.18311781 10.116621,7.03075517 10.768388,7.29849649 C11.420155,7.5662378 11.8457111,8.20107142 11.8457913,8.90568879 C11.8486181,9.36395463 11.6692067,9.80456477 11.347036,10.1304816 C11.0248653,10.4563985 10.5863587,10.6408915 10.1280904,10.6433289 Z M10.1280904,7.78259866 C9.67173861,7.77260774 9.25473536,8.03981448 9.07313065,8.45859427 C8.89152593,8.87737405 8.98144993,9.36441083 9.30062574,9.69072905 C9.61980156,10.0170473 10.1047293,10.1177261 10.527425,9.94543228 C10.9501207,9.7731385 11.2264892,9.36214992 11.2265985,8.90568879 C11.2325741,8.29253777 10.7412235,7.79019194 10.1280904,7.78259866 L10.1280904,7.78259866 Z M10.1280904,10.6433289 C9.42351958,10.6514279 8.78380883,10.2332391 8.50855079,9.58461086 C8.23329274,8.93598259 8.37698734,8.18534049 8.87233879,7.68422915 C9.36769024,7.18311781 10.116621,7.03075517 10.768388,7.29849649 C11.420155,7.5662378 11.8457111,8.20107142 11.8457913,8.90568879 C11.8486181,9.36395463 11.6692067,9.80456477 11.347036,10.1304816 C11.0248653,10.4563985 10.5863587,10.6408915 10.1280904,10.6433289 Z M10.1280904,7.78259866 C9.67173861,7.77260774 9.25473536,8.03981448 9.07313065,8.45859427 C8.89152593,8.87737405 8.98144993,9.36441083 9.30062574,9.69072905 C9.61980156,10.0170473 10.1047293,10.1177261 10.527425,9.94543228 C10.9501207,9.7731385 11.2264892,9.36214992 11.2265985,8.90568879 C11.2325741,8.29253777 10.7412235,7.79019194 10.1280904,7.78259866 L10.1280904,7.78259866 Z M8.33053168,11.9200565 L8.94508167,11.9200565 L8.94508167,13.7898248 L8.33053168,13.7898248 L8.33053168,11.9200565 Z M11.3203174,11.9200565 L11.9348674,11.9200565 L11.9348674,13.7898248 L11.3203174,13.7898248 L11.3203174,11.9200565 Z"
    fill="#00FFCA" fill-rule="nonzero"/>
</svg>
