<?xml version="1.0" encoding="UTF-8"?>
<svg width="32px" height="23px" viewBox="0 0 32 23" version="1.1" xmlns="http://www.w3.org/2000/svg" xmlns:xlink="http://www.w3.org/1999/xlink">
    <title>Group</title>
    <g id="Page-1" stroke="none" stroke-width="1" fill="none" fill-rule="evenodd">
        <g id="Group">
            <rect id="Rectangle" fill-opacity="0" fill="#D8D8D8" x="0" y="0" width="32" height="23"></rect>
            <g id="normal" transform="translate(5.264000, 7.336000)" fill="#3BFF00" fill-rule="nonzero">
                <polygon id="路径" points="2.64 2.352 2.64 7.416 4.488 7.416 4.488 1.272 0 1.272 0 0.036 10.5 0.036 10.5 1.272 6.24 1.272 6.24 3.612 10.5 3.612 10.5 4.848 6.24 4.848 6.24 7.416 10.5 7.416 10.5 8.652 2.64 8.652 1.032 8.652 0 8.652 0 7.416 1.032 7.416 1.032 2.352"></polygon>
                <path d="M19.86,7.572 C19.972,7.572 20.06,7.532 20.124,7.452 C20.204,7.388 20.244,7.296 20.244,7.176 L17.604,7.176 L17.604,8.688 L15.924,8.688 L15.924,7.176 L13.296,7.176 L13.296,8.544 L11.628,8.544 L11.628,5.988 L15.924,5.988 L15.924,5.592 L11.916,5.592 L11.916,2.784 L21.624,2.784 L21.624,4.464 C21.624,4.616 21.592,4.764 21.528,4.908 C21.456,5.052 21.372,5.172 21.276,5.268 C21.164,5.364 21.044,5.444 20.916,5.508 C20.788,5.564 20.644,5.592 20.484,5.592 L17.604,5.592 L17.604,5.988 L20.88,5.988 C21.024,5.988 21.16,6.016 21.288,6.072 C21.416,6.128 21.524,6.206 21.612,6.306 C21.7,6.406 21.77,6.518 21.822,6.642 C21.874,6.766 21.9,6.896 21.9,7.032 L21.9,7.26 C21.9,7.436 21.868,7.608 21.804,7.776 C21.732,7.944 21.636,8.08 21.516,8.184 C21.412,8.288 21.272,8.384 21.096,8.472 C20.92,8.544 20.748,8.58 20.58,8.58 L18.792,8.58 L19.308,7.572 L19.86,7.572 Z M22.056,2.604 L20.388,2.604 L20.388,2.328 C20.388,2.288 20.372,2.248 20.34,2.208 C20.3,2.176 20.264,2.16 20.232,2.16 L13.152,2.16 L13.152,2.604 L11.484,2.604 L11.484,0.972 L12.624,0.984 C12.584,0.888 12.546,0.808 12.51,0.744 C12.474,0.68 12.444,0.624 12.42,0.576 C12.396,0.536 12.376,0.496 12.36,0.456 C12.344,0.416 12.328,0.388 12.312,0.372 L12.264,0.264 C12.248,0.232 12.236,0.204 12.228,0.18 L13.944,0.18 C13.992,0.276 14.032,0.36 14.064,0.432 C14.096,0.504 14.132,0.576 14.172,0.648 C14.204,0.712 14.232,0.77 14.256,0.822 C14.28,0.874 14.304,0.924 14.328,0.972 L15.924,0.984 L15.924,0 L17.604,0 L17.604,0.972 L19.212,0.984 C19.228,0.936 19.248,0.888 19.272,0.84 C19.296,0.792 19.328,0.732 19.368,0.66 C19.4,0.588 19.436,0.514 19.476,0.438 C19.516,0.362 19.556,0.276 19.596,0.18 L21.312,0.18 C21.304,0.204 21.288,0.232 21.264,0.264 C21.256,0.28 21.25,0.296 21.246,0.312 C21.242,0.328 21.232,0.344 21.216,0.36 C21.208,0.384 21.196,0.414 21.18,0.45 C21.164,0.486 21.148,0.524 21.132,0.564 C21.1,0.612 21.068,0.67 21.036,0.738 C21.004,0.806 20.964,0.884 20.916,0.972 L21.06,0.984 C21.204,1 21.336,1.028 21.456,1.068 C21.576,1.108 21.684,1.176 21.78,1.272 C21.964,1.456 22.056,1.688 22.056,1.968 L22.056,2.604 Z M13.596,4.464 L19.656,4.464 C19.728,4.464 19.792,4.44 19.848,4.392 C19.904,4.336 19.932,4.272 19.932,4.2 L19.932,3.924 L13.596,3.924 L13.596,4.464 Z" id="形状"></path>
            </g>
        </g>
    </g>
</svg>