<svg xmlns:xlink="http://www.w3.org/1999/xlink" xmlns="http://www.w3.org/2000/svg" viewBox="0 0 64 65"
     class="design-iconfont">
  <defs>
    <filter x="-11.7%" y="-11.7%" width="123.4%" height="123.4%" filterUnits="objectBoundingBox"
            id="8q5eq6sg5__4piqminisc">
      <feMorphology radius="4" in="SourceAlpha" result="shadowSpreadInner1"/>
      <feGaussianBlur stdDeviation="5" in="shadowSpreadInner1" result="shadowBlurInner1"/>
      <feOffset dy="1" in="shadowBlurInner1" result="shadowOffsetInner1"/>
      <feComposite in="shadowOffsetInner1" in2="SourceAlpha" operator="arithmetic" k2="-1" k3="1"
                   result="shadowInnerInner1"/>
      <feColorMatrix values="0 0 0 0 0.166699324 0 0 0 0 0.312496656 0 0 0 0 0.781849294 0 0 0 0.5 0"
                     in="shadowInnerInner1"/>
    </filter>
    <filter x="-30%" y="-30%" width="160%" height="160%" filterUnits="objectBoundingBox" id="8q5eq6sg5__cpypr8z8xd">
      <feGaussianBlur stdDeviation="2" in="SourceGraphic"/>
    </filter>
    <filter x="-2.9%" y="-2.9%" width="105.8%" height="105.8%" filterUnits="objectBoundingBox"
            id="8q5eq6sg5__bbv47yepye">
      <feOffset dx=".5" dy=".5" in="SourceAlpha" result="shadowOffsetInner1"/>
      <feComposite in="shadowOffsetInner1" in2="SourceAlpha" operator="arithmetic" k2="-1" k3="1"
                   result="shadowInnerInner1"/>
      <feColorMatrix values="0 0 0 0 1 0 0 0 0 1 0 0 0 0 1 0 0 0 0.5 0" in="shadowInnerInner1"
                     result="shadowMatrixInner1"/>
      <feGaussianBlur stdDeviation=".5" in="SourceAlpha" result="shadowBlurInner2"/>
      <feOffset dx="-.5" dy="-.5" in="shadowBlurInner2" result="shadowOffsetInner2"/>
      <feComposite in="shadowOffsetInner2" in2="SourceAlpha" operator="arithmetic" k2="-1" k3="1"
                   result="shadowInnerInner2"/>
      <feColorMatrix values="0 0 0 0 0.529411765 0 0 0 0 0.266666667 0 0 0 0 1 0 0 0 0.505037321 0"
                     in="shadowInnerInner2" result="shadowMatrixInner2"/>
      <feMerge>
        <feMergeNode in="shadowMatrixInner1"/>
        <feMergeNode in="shadowMatrixInner2"/>
      </feMerge>
    </filter>
    <path id="8q5eq6sg5__ty22gx9mgb" d="M32 0A32 32 0 1 0 32 64A32 32 0 1 0 32 0Z"/>
    <path id="8q5eq6sg5__zq8jpymf7f" d="M20 5A13 13 0 1 0 20 31A13 13 0 1 0 20 5Z"/>
    <linearGradient x1="12.5034328%" y1="17.6834387%" x2="81.8457424%" y2="87.2349623%" id="8q5eq6sg5__uy45hxmjha">
      <stop stop-color="#6A57AD" stop-opacity=".79579173" offset="0%"/>
      <stop stop-color="#030502" offset="70.0568618%"/>
      <stop stop-color="#1F3F6B" stop-opacity=".69749269" offset="100%"/>
    </linearGradient>
  </defs>
  <g fill="none" fill-rule="evenodd">
    <g transform="translate(0 .303385)">
      <use fill="url(#8q5eq6sg5__uy45hxmjha)" xlink:href="#8q5eq6sg5__ty22gx9mgb"/>
      <use fill="#000" filter="url(#8q5eq6sg5__4piqminisc)" xlink:href="#8q5eq6sg5__ty22gx9mgb"/>
    </g>
    <path fill="#8747FF" filter="url(#8q5eq6sg5__cpypr8z8xd)" d="M10 0A10 10 0 1 0 10 20A10 10 0 1 0 10 0Z"
          transform="translate(15 17.303385)"/>
    <path
      d="M10,0 C13.728221,0 16.9799209,2.04022981 18.6995115,5.06510147 C12.1297974,5.71738362 7,11.2596276 7,18 C7,18.5314844 7.03189433,19.0555195 7.09387343,19.5702957 C2.98846555,18.3263627 0,14.5121781 0,10 C0,4.4771525 4.4771525,0 10,0 Z"
      fill="#8747FF" transform="translate(15 17.303385)"/>
    <path fill="#FFF" opacity=".29764884" d="M20 5A13 13 0 1 0 20 31A13 13 0 1 0 20 5Z"
          transform="translate(15 17.303385)"/>
    <use filter="url(#8q5eq6sg5__bbv47yepye)" xlink:href="#8q5eq6sg5__zq8jpymf7f" opacity=".50456165" fill="#000"
         transform="translate(15 17.303385)"/>
    <path
      d="M9.33333333,10.7555556 L2.31111111,10.7555556 C1.51111111,10.7555556 0.888888891,10.1333333 0.888888891,9.33333333 L0.888888891,2.31111111 C0.888888891,1.51111111 1.51111111,0.888888891 2.31111111,0.888888891 L9.33333333,0.888888891 C10.1333333,0.888888891 10.7555556,1.51111111 10.7555556,2.31111111 L10.7555556,3.64444444 C10.7555556,3.91111111 10.4888889,4.17777777 10.2222222,4.17777778 C9.95555555,4.1777778 9.68888889,3.91111111 9.68888889,3.64444444 L9.68888889,2.31111111 C9.68888889,2.13333333 9.51111111,1.95555555 9.33333333,1.95555556 L2.31111111,1.95555556 C2.13333333,1.95555556 1.95555555,2.13333334 1.95555556,2.31111111 L1.95555556,9.33333333 C1.95555556,9.51111111 2.13333334,9.68888889 2.31111111,9.68888889 L9.33333333,9.68888889 C9.51111111,9.68888889 9.68888889,9.51111111 9.68888889,9.33333333 L9.68888889,8 C9.68888889,7.73333333 9.95555556,7.46666667 10.2222222,7.46666667 C10.4888889,7.46666667 10.7555556,7.73333334 10.7555556,8 L10.7555556,9.33333333 C10.7555556,10.1333333 10.1333333,10.7555556 9.33333333,10.7555556 Z M13.6888889,15.1111111 L6.66666667,15.1111111 C5.86666667,15.1111111 5.24444444,14.4888889 5.24444444,13.6888889 L5.24444444,12.3555556 C5.24444444,12.0888889 5.51111111,11.8222222 5.77777778,11.8222222 C6.04444445,11.8222222 6.31111111,12.0888889 6.31111111,12.3555556 L6.31111111,13.6888889 C6.31111111,13.8666667 6.48888889,14.0444445 6.66666667,14.0444444 L13.6888889,14.0444444 C13.8666667,14.0444444 14.0444445,13.8666667 14.0444444,13.6888889 L14.0444444,6.66666667 C14.0444444,6.48888889 13.8666667,6.31111111 13.6888889,6.31111111 L6.66666667,6.31111111 C6.48888889,6.31111111 6.31111111,6.48888889 6.31111111,6.66666667 L6.31111111,8 C6.31111111,8.26666667 6.04444444,8.53333333 5.77777778,8.53333333 C5.51111112,8.53333333 5.24444444,8.26666666 5.24444444,8 L5.24444444,6.66666667 C5.24444444,5.86666667 5.86666666,5.24444444 6.66666667,5.24444444 L13.6888889,5.24444444 C14.4888889,5.24444444 15.1111111,5.86666666 15.1111111,6.66666667 L15.1111111,13.6888889 C15.1111111,14.4888889 14.4888889,15.1111111 13.6888889,15.1111111 L13.6888889,15.1111111 Z"
      transform="translate(27 27)" fill="#FFF" fill-rule="nonzero"/>
  </g>
</svg>
