<svg xmlns:xlink="http://www.w3.org/1999/xlink" xmlns="http://www.w3.org/2000/svg" viewBox="0 0 64 65"
     class="design-iconfont">
  <defs>
    <filter x="-11.7%" y="-11.7%" width="123.4%" height="123.4%" filterUnits="objectBoundingBox"
            id="j4ik8g92d__gzoioc7trc">
      <feMorphology radius="4" in="SourceAlpha" result="shadowSpreadInner1"/>
      <feGaussianBlur stdDeviation="5" in="shadowSpreadInner1" result="shadowBlurInner1"/>
      <feOffset dy="1" in="shadowBlurInner1" result="shadowOffsetInner1"/>
      <feComposite in="shadowOffsetInner1" in2="SourceAlpha" operator="arithmetic" k2="-1" k3="1"
                   result="shadowInnerInner1"/>
      <feColorMatrix values="0 0 0 0 0.166699324 0 0 0 0 0.312496656 0 0 0 0 0.781849294 0 0 0 0.5 0"
                     in="shadowInnerInner1"/>
    </filter>
    <filter x="-30%" y="-30%" width="160%" height="160%" filterUnits="objectBoundingBox" id="j4ik8g92d__m1fozryigd">
      <feGaussianBlur stdDeviation="2" in="SourceGraphic"/>
    </filter>
    <filter x="-2.9%" y="-2.9%" width="105.8%" height="105.8%" filterUnits="objectBoundingBox"
            id="j4ik8g92d__lxmjpvo7pe">
      <feOffset dx=".5" dy=".5" in="SourceAlpha" result="shadowOffsetInner1"/>
      <feComposite in="shadowOffsetInner1" in2="SourceAlpha" operator="arithmetic" k2="-1" k3="1"
                   result="shadowInnerInner1"/>
      <feColorMatrix values="0 0 0 0 1 0 0 0 0 1 0 0 0 0 1 0 0 0 0.5 0" in="shadowInnerInner1"
                     result="shadowMatrixInner1"/>
      <feGaussianBlur stdDeviation=".5" in="SourceAlpha" result="shadowBlurInner2"/>
      <feOffset dx="-.5" dy="-.5" in="shadowBlurInner2" result="shadowOffsetInner2"/>
      <feComposite in="shadowOffsetInner2" in2="SourceAlpha" operator="arithmetic" k2="-1" k3="1"
                   result="shadowInnerInner2"/>
      <feColorMatrix values="0 0 0 0 0.529411765 0 0 0 0 0.266666667 0 0 0 0 1 0 0 0 0.505037321 0"
                     in="shadowInnerInner2" result="shadowMatrixInner2"/>
      <feMerge>
        <feMergeNode in="shadowMatrixInner1"/>
        <feMergeNode in="shadowMatrixInner2"/>
      </feMerge>
    </filter>
    <path id="j4ik8g92d__w1yy0o2trb" d="M32 0A32 32 0 1 0 32 64A32 32 0 1 0 32 0Z"/>
    <path id="j4ik8g92d__4met2uivrf" d="M20 5A13 13 0 1 0 20 31A13 13 0 1 0 20 5Z"/>
    <linearGradient x1="12.5034328%" y1="17.6834387%" x2="81.8457424%" y2="87.2349623%" id="j4ik8g92d__ad136yp0ea">
      <stop stop-color="#6A57AD" stop-opacity=".79579173" offset="0%"/>
      <stop stop-color="#030502" offset="70.0568618%"/>
      <stop stop-color="#1F3F6B" stop-opacity=".69749269" offset="100%"/>
    </linearGradient>
  </defs>
  <g fill="none" fill-rule="evenodd">
    <g transform="translate(0 .303385)">
      <use fill="url(#j4ik8g92d__ad136yp0ea)" xlink:href="#j4ik8g92d__w1yy0o2trb"/>
      <use fill="#000" filter="url(#j4ik8g92d__gzoioc7trc)" xlink:href="#j4ik8g92d__w1yy0o2trb"/>
    </g>
    <path fill="#8747FF" filter="url(#j4ik8g92d__m1fozryigd)" d="M10 0A10 10 0 1 0 10 20A10 10 0 1 0 10 0Z"
          transform="translate(15 17.303385)"/>
    <path
      d="M10,0 C13.728221,0 16.9799209,2.04022981 18.6995115,5.06510147 C12.1297974,5.71738362 7,11.2596276 7,18 C7,18.5314844 7.03189433,19.0555195 7.09387343,19.5702957 C2.98846555,18.3263627 0,14.5121781 0,10 C0,4.4771525 4.4771525,0 10,0 Z"
      fill="#8747FF" transform="translate(15 17.303385)"/>
    <path fill="#FFF" opacity=".29764884" d="M20 5A13 13 0 1 0 20 31A13 13 0 1 0 20 5Z"
          transform="translate(15 17.303385)"/>
    <use filter="url(#j4ik8g92d__lxmjpvo7pe)" xlink:href="#j4ik8g92d__4met2uivrf" opacity=".50456165" fill="#000"
         transform="translate(15 17.303385)"/>
    <g fill="#FFFDFD" fill-rule="nonzero">
      <path
        d="M10.8666667,14 L5.13333333,14 C4.6,14 4.06666666,13.6666667 3.86666667,13.1333333 L2.86666667,10.6666667 L1.33333333,10.6666667 C0.6,10.6666667 0,10.0666667 0,9.33333333 L0,3.33333333 C0,2.6 0.6,2 1.33333333,2 L14.6666667,2 C15.4,2 16,2.6 16,3.33333333 L16,9.33333333 C16,10.0666667 15.4,10.6666667 14.6666667,10.6666667 L13.1333333,10.6666667 L12.1333333,13.1333333 C11.9333333,13.6666667 11.4,14 10.8666667,14 Z M1.33333333,3.33333333 L1.33333333,9.33333333 L2.86666667,9.33333333 C3.4,9.33333333 3.93333334,9.66666666 4.13333333,10.2 L5.13333333,12.6666667 L10.8666667,12.6666667 L11.8666667,10.2 C12.0666667,9.66666667 12.5333333,9.33333333 13.1333333,9.33333333 L14.6666667,9.33333333 L14.6666667,3.33333333 L1.33333333,3.33333333 Z"
        transform="translate(27 27.303385)"/>
      <path
        d="M4,6.66666667 C3.6,6.66666667 3.33333333,6.4 3.33333333,6 L3.33333333,5.33333333 C3.33333333,4.93333333 3.6,4.66666667 4,4.66666667 C4.4,4.66666667 4.66666667,4.93333334 4.66666667,5.33333333 L4.66666667,6 C4.66666667,6.4 4.4,6.66666667 4,6.66666667 Z M6.66666667,6.66666667 C6.26666667,6.66666667 6,6.4 6,6 L6,5.33333333 C6,4.93333333 6.26666667,4.66666667 6.66666667,4.66666667 C7.06666667,4.66666667 7.33333333,4.93333334 7.33333333,5.33333333 L7.33333333,6 C7.33333333,6.4 7.06666666,6.66666667 6.66666667,6.66666667 Z M9.33333333,6.66666667 C8.93333333,6.66666667 8.66666667,6.4 8.66666667,6 L8.66666667,5.33333333 C8.66666667,4.93333333 8.93333334,4.66666667 9.33333333,4.66666667 C9.73333331,4.66666667 10,4.93333334 10,5.33333333 L10,6 C10,6.4 9.73333333,6.66666667 9.33333333,6.66666667 Z M12,6.66666667 C11.6,6.66666667 11.3333333,6.4 11.3333333,6 L11.3333333,5.33333333 C11.3333333,4.93333333 11.6,4.66666667 12,4.66666667 C12.4,4.66666667 12.6666667,4.93333334 12.6666667,5.33333333 L12.6666667,6 C12.6666667,6.4 12.4,6.66666667 12,6.66666667 Z"
        transform="translate(27 27.303385)"/>
    </g>
  </g>
</svg>
