<?xml version="1.0" encoding="UTF-8"?>
<svg width="32px" height="23px" viewBox="0 0 32 23" version="1.1" xmlns="http://www.w3.org/2000/svg" xmlns:xlink="http://www.w3.org/1999/xlink">
    <title>Group</title>
    <g id="Page-1" stroke="none" stroke-width="1" fill="none" fill-rule="evenodd">
        <g id="Group">
            <rect id="Rectangle" fill-opacity="0" fill="#D8D8D8" x="0" y="0" width="32" height="23"></rect>
            <g id="prewarning" transform="translate(5.264000, 7.336000)" fill="#FF2121" fill-rule="nonzero">
                <path d="M10.5,6.78 L9.348,6.78 L10.404,8.676 L8.88,8.676 L7.848,6.804 L6.744,8.652 L5.076,8.652 L6.252,6.78 L5.004,6.78 L5.004,2.004 L5.256,2.004 L6.492,2.004 L6.84,2.004 L7.164,1.224 L4.98,1.224 L4.98,0.048 L10.5,0.048 L10.5,1.224 L8.64,1.224 L8.316,2.004 L9.264,2.004 C9.432,2.004 9.592,2.038 9.744,2.106 C9.896,2.174 10.028,2.268 10.14,2.388 C10.252,2.508 10.34,2.648 10.404,2.808 C10.468,2.968 10.5,3.14 10.5,3.324 L10.5,6.78 Z M9.012,6.168 L9.012,3.588 C9.012,3.476 8.978,3.382 8.91,3.306 C8.842,3.23 8.756,3.192 8.652,3.192 L6.492,3.192 L6.492,6.396 L7.008,5.568 L7.008,3.804 L8.496,3.804 L8.496,5.736 L8.34,5.988 L8.916,5.988 L9.012,6.168 Z M4.764,3.18 L4.152,5.136 L3.048,5.136 L3.396,4.152 L2.892,4.152 L2.892,7.26 C2.892,7.444 2.858,7.614 2.79,7.77 C2.722,7.926 2.632,8.064 2.52,8.184 C2.408,8.304 2.276,8.398 2.124,8.466 C1.972,8.534 1.808,8.568 1.632,8.568 L0.216,8.568 L0.66,7.608 L1.02,7.608 C1.116,7.608 1.2,7.572 1.272,7.5 C1.344,7.428 1.38,7.34 1.38,7.236 L1.38,4.152 L0,4.152 L0,3.18 L0.852,3.18 L0.432,1.872 L1.596,1.872 L1.98,3.06 L2.856,1.116 L0.216,1.116 L0.216,0 L4.74,0 L3.3,3.18 L4.764,3.18 Z" id="形状"></path>
                <path d="M19.152,0.384 L21.576,0.384 L21.576,1.056 L21.564,1.056 C21.524,1.416 21.404,1.762 21.204,2.094 C21.004,2.426 20.736,2.732 20.4,3.012 C20.792,3.132 21.184,3.192 21.576,3.192 L21.576,4.2 C21.184,4.192 20.792,4.146 20.4,4.062 C20.008,3.978 19.632,3.856 19.272,3.696 C18.936,3.84 18.58,3.954 18.204,4.038 C17.828,4.122 17.432,4.168 17.016,4.176 L17.016,3.204 C17.208,3.18 17.396,3.15 17.58,3.114 C17.764,3.078 17.944,3.032 18.12,2.976 C17.864,2.752 17.648,2.506 17.472,2.238 C17.296,1.97 17.164,1.68 17.076,1.368 L18.348,1.368 C18.46,1.6 18.592,1.804 18.744,1.98 C18.896,2.156 19.064,2.312 19.248,2.448 C19.528,2.264 19.762,2.056 19.95,1.824 C20.138,1.592 20.256,1.336 20.304,1.056 L19.32,1.056 L16.98,1.056 L17.76,0.108 L19.404,0.108 L19.152,0.384 Z M11.352,7.044 L21.252,7.044 L21.252,7.668 C21.252,8.036 21.156,8.29 20.964,8.43 C20.772,8.57 20.496,8.64 20.136,8.64 L11.352,8.64 L11.352,7.044 Z M13.272,8.064 L18.96,8.064 C19.064,8.064 19.152,8.028 19.224,7.956 C19.296,7.884 19.332,7.796 19.332,7.692 L19.332,7.644 L13.272,7.644 L13.272,8.064 Z M14.856,2.388 L14.856,3.3 C14.856,3.812 14.572,4.068 14.004,4.068 L11.232,4.068 L11.232,2.388 L14.856,2.388 Z M13.896,2.952 L12.144,2.952 L12.144,3.492 L13.704,3.492 C13.76,3.492 13.806,3.468 13.842,3.42 C13.878,3.372 13.896,3.316 13.896,3.252 L13.896,2.952 Z M11.34,5.352 L21.264,5.352 L21.264,5.928 L11.34,5.928 L11.34,5.352 Z M11.34,6.18 L21.264,6.18 L21.264,6.768 L11.34,6.768 L11.34,6.18 Z M17.136,4.488 L21.576,4.488 L21.576,5.124 L11.028,5.124 L11.028,4.488 L15.468,4.488 L15.468,4.26 L17.136,4.26 L17.136,4.488 Z M14.736,1.404 L14.736,1.056 L13.056,1.056 L13.056,1.404 L11.676,1.404 L11.676,1.056 L11.016,1.056 L11.016,0.3 L11.676,0.3 L11.676,0.036 L13.056,0.036 L13.056,0.3 L14.736,0.3 L14.736,0.036 L16.116,0.036 L16.116,0.3 L16.776,0.3 L16.776,1.056 L16.116,1.056 L16.116,1.404 L14.736,1.404 Z M15.552,2.232 L11.016,2.232 L11.376,1.512 L12.708,1.512 L12.636,1.644 L16.776,1.644 L16.776,3.168 C16.776,3.304 16.744,3.432 16.68,3.552 C16.616,3.672 16.536,3.774 16.44,3.858 C16.344,3.942 16.236,4.008 16.116,4.056 C15.996,4.104 15.884,4.128 15.78,4.128 L14.844,4.128 L15.192,3.276 L15.372,3.276 C15.436,3.276 15.482,3.264 15.51,3.24 C15.538,3.216 15.552,3.164 15.552,3.084 L15.552,2.232 Z" id="形状"></path>
            </g>
        </g>
    </g>
</svg>