<svg xmlns="http://www.w3.org/2000/svg" viewBox="0 0 18 19" class="design-iconfont">
  <g fill="#00DAA7" fill-rule="evenodd">
    <path
      d="M13.9435,2.914 L11.222,1.569 C10.9766443,1.45958591 10.6886698,1.56338885 10.5695492,1.80418163 C10.4504286,2.04497442 10.542654,2.3368628 10.7785,2.4655 L13.4999942,3.8105 L13.4999942,11.6675 L7.99999416,13.9725 L2.49999416,11.6675 L2.49999416,3.8105 L5.2215,2.4655 C5.46258839,2.33984938 5.55909973,2.0445903 5.43876959,1.8008028 C5.31843945,1.55701529 5.02536922,1.45404829 4.779,1.569 L2.057,2.914 C1.71499519,3.08153441 1.49869832,3.42966752 1.49999416,3.8105 L1.49999416,11.6675 C1.49999416,12.072 1.741,12.434 2.1135,12.5895 L7.807,14.9755 C7.93074763,15.0275598 8.07025237,15.0275598 8.194,14.9755 L13.887,12.59 C14.2589655,12.434614 14.5008417,12.0706159 14.5000056,11.6675 L14.5000056,3.8105 C14.5012751,3.42981409 14.2852267,3.08176843 13.9435,2.914 L13.9435,2.914 Z"
      fill-rule="nonzero" transform="matrix(1 0 0 -1 0 17.396468)"/>
    <text font-family="PingFangSC-Regular, PingFang SC" font-size="12" transform="translate(0 .859924)">
      <tspan x="5.05407382" y="13.4805811">？</tspan>
    </text>
  </g>
</svg>
