<?xml version="1.0" encoding="UTF-8"?>
<svg width="32px" height="23px" viewBox="0 0 32 23" version="1.1" xmlns="http://www.w3.org/2000/svg" xmlns:xlink="http://www.w3.org/1999/xlink">
    <title>Group</title>
    <g id="Page-1" stroke="none" stroke-width="1" fill="none" fill-rule="evenodd">
        <g id="Group">
            <rect id="Rectangle" fill-opacity="0" fill="#D8D8D8" x="0" y="0" width="32" height="23"></rect>
            <g id="single-connect" transform="translate(4.180000, 8.511000)" fill-rule="nonzero">
                <g id="形状" transform="translate(0.000000, 0.009000)">
                    <g id="path-1-link" fill="#000000">
                        <path d="M3.303,5.499 L0,5.499 L0,4.608 L3.303,4.608 L3.303,4.095 L0.198,4.095 L0.198,0.603 L1.323,0.603 L1.071,1.02348685e-16 L2.358,1.02348685e-16 L2.61,0.603 L5.517,0.603 L5.769,1.02348685e-16 L7.065,1.02348685e-16 L6.813,0.603 L7.704,0.603 L7.704,3.105 C7.704,3.243 7.6785,3.372 7.6275,3.492 C7.5765,3.612 7.506,3.717 7.416,3.807 C7.326,3.897 7.221,3.9675 7.101,4.0185 C6.981,4.0695 6.855,4.095 6.723,4.095 L4.608,4.095 L4.608,4.608 L7.911,4.608 L7.911,5.499 L4.608,5.499 L4.608,6.48 L3.303,6.48 L3.303,5.499 Z M6.174,3.402 C6.258,3.402 6.327,3.375 6.381,3.321 C6.435,3.267 6.462,3.201 6.462,3.123 L6.462,2.79 L4.608,2.79 L4.608,3.402 L6.174,3.402 Z M4.608,1.899 L6.462,1.899 L6.462,1.296 L4.608,1.296 L4.608,1.899 Z M3.303,1.296 L1.449,1.296 L1.449,1.899 L3.303,1.899 L3.303,1.296 Z M3.303,3.402 L3.303,2.79 L1.449,2.79 L1.449,3.402 L3.303,3.402 Z" id="path-1"></path>
                    </g>
                    <g id="path-1-link" fill="#00FCFF">
                        <path d="M3.303,5.499 L0,5.499 L0,4.608 L3.303,4.608 L3.303,4.095 L0.198,4.095 L0.198,0.603 L1.323,0.603 L1.071,1.02348685e-16 L2.358,1.02348685e-16 L2.61,0.603 L5.517,0.603 L5.769,1.02348685e-16 L7.065,1.02348685e-16 L6.813,0.603 L7.704,0.603 L7.704,3.105 C7.704,3.243 7.6785,3.372 7.6275,3.492 C7.5765,3.612 7.506,3.717 7.416,3.807 C7.326,3.897 7.221,3.9675 7.101,4.0185 C6.981,4.0695 6.855,4.095 6.723,4.095 L4.608,4.095 L4.608,4.608 L7.911,4.608 L7.911,5.499 L4.608,5.499 L4.608,6.48 L3.303,6.48 L3.303,5.499 Z M6.174,3.402 C6.258,3.402 6.327,3.375 6.381,3.321 C6.435,3.267 6.462,3.201 6.462,3.123 L6.462,2.79 L4.608,2.79 L4.608,3.402 L6.174,3.402 Z M4.608,1.899 L6.462,1.899 L6.462,1.296 L4.608,1.296 L4.608,1.899 Z M3.303,1.296 L1.449,1.296 L1.449,1.899 L3.303,1.899 L3.303,1.296 Z M3.303,3.402 L3.303,2.79 L1.449,2.79 L1.449,3.402 L3.303,3.402 Z" id="path-1"></path>
                    </g>
                </g>
                <g id="路径" transform="translate(8.433000, 0.072000)">
                    <g id="path-3-link" fill="#000000">
                        <polygon id="path-3" points="2.952 6.354 0 6.354 0 5.517 2.952 5.517 2.952 -6.9388939e-17 4.158 -6.9388939e-17 4.158 1.98 7.02 1.98 7.02 2.817 4.158 2.817 4.158 5.517 7.605 5.517 7.605 6.354 4.158 6.354"></polygon>
                    </g>
                    <g id="path-3-link" fill="#00FCFF">
                        <polygon id="path-3" points="2.952 6.354 0 6.354 0 5.517 2.952 5.517 2.952 -6.9388939e-17 4.158 -6.9388939e-17 4.158 1.98 7.02 1.98 7.02 2.817 4.158 2.817 4.158 5.517 7.605 5.517 7.605 6.354 4.158 6.354"></polygon>
                    </g>
                </g>
                <g id="形状" transform="translate(16.569000, 0.000000)">
                    <g id="path-5-link" fill="#000000">
                        <path d="M3.312,0 L3.312,0.81 L3.087,0.81 L3.087,4.833 L3.312,4.806 L3.312,5.607 L3.087,5.634 L3.087,6.498 L2.025,6.498 L2.025,5.76 L0,6.003 L0,5.193 L0.225,5.166 L0.225,0.81 L0,0.81 L0,0 L0.225,0 L0.225,0 L1.278,0 L1.278,0 L2.025,0 L2.025,0 L3.087,0 L3.312,0 Z M2.025,2.511 L1.278,2.511 L1.278,3.339 L2.025,3.339 L2.025,2.511 Z M2.025,4.959 L2.025,4.149 L1.278,4.149 L1.278,5.04 L2.025,4.959 Z M2.025,0.81 L1.278,0.81 L1.278,1.701 L2.025,1.701 L2.025,0.81 Z M6.111,3.537 L7.902,3.537 L7.902,4.347 L5.913,4.347 L4.833,6.498 L3.609,6.498 L4.698,4.347 L3.447,4.347 L3.447,3.537 L4.95,3.537 L4.95,1.746 L3.447,1.746 L3.447,0.945 L4.104,0.945 L3.771,0 L4.887,0 L5.229,0.945 L6.12,0.945 L6.462,0 L7.587,0 L7.245,0.945 L7.902,0.945 L7.902,1.746 L6.111,1.746 L6.111,3.537 Z M7.038,4.617 L7.902,6.498 L6.759,6.498 L5.895,4.617 L7.038,4.617 Z" id="path-5"></path>
                    </g>
                    <g id="path-5-link" fill="#00FCFF">
                        <path d="M3.312,0 L3.312,0.81 L3.087,0.81 L3.087,4.833 L3.312,4.806 L3.312,5.607 L3.087,5.634 L3.087,6.498 L2.025,6.498 L2.025,5.76 L0,6.003 L0,5.193 L0.225,5.166 L0.225,0.81 L0,0.81 L0,0 L0.225,0 L0.225,0 L1.278,0 L1.278,0 L2.025,0 L2.025,0 L3.087,0 L3.312,0 Z M2.025,2.511 L1.278,2.511 L1.278,3.339 L2.025,3.339 L2.025,2.511 Z M2.025,4.959 L2.025,4.149 L1.278,4.149 L1.278,5.04 L2.025,4.959 Z M2.025,0.81 L1.278,0.81 L1.278,1.701 L2.025,1.701 L2.025,0.81 Z M6.111,3.537 L7.902,3.537 L7.902,4.347 L5.913,4.347 L4.833,6.498 L3.609,6.498 L4.698,4.347 L3.447,4.347 L3.447,3.537 L4.95,3.537 L4.95,1.746 L3.447,1.746 L3.447,0.945 L4.104,0.945 L3.771,0 L4.887,0 L5.229,0.945 L6.12,0.945 L6.462,0 L7.587,0 L7.245,0.945 L7.902,0.945 L7.902,1.746 L6.111,1.746 L6.111,3.537 Z M7.038,4.617 L7.902,6.498 L6.759,6.498 L5.895,4.617 L7.038,4.617 Z" id="path-5"></path>
                    </g>
                </g>
            </g>
        </g>
    </g>
</svg>