<svg xmlns="http://www.w3.org/2000/svg" viewBox="0 0 160 68" class="design-iconfont">
  <defs>
    <linearGradient x1="50.6568749%" y1="99.3431251%" x2="50.6568749%" y2="28.1588223%" id="91obd1jio__apdxszrynb">
      <stop stop-color="#4E42AA" offset="0%"/>
      <stop stop-color="#000002" stop-opacity="0" offset="100%"/>
    </linearGradient>
    <linearGradient x1="50%" y1="28.2739091%" x2="50%" y2="100%" id="91obd1jio__bn05cgyloa">
      <stop stop-color="#C8C8C8" stop-opacity="0" offset="0%"/>
      <stop stop-color="#DBC4FE" stop-opacity=".50047121" offset="100%"/>
    </linearGradient>
    <linearGradient x1="100%" y1="50%" x2="0%" y2="50%" id="91obd1jio__7upe9qxl3c">
      <stop stop-color="#51E4FF" offset="0%"/>
      <stop stop-color="#4E50FF" offset="50.3411993%"/>
      <stop stop-color="#AF8FFF" offset="98.6862503%"/>
    </linearGradient>
  </defs>
  <g fill="none" fill-rule="evenodd">
    <path
      d="M7.5368903,48.2109911 L78.4384297,66.4678705 C78.7613914,66.5510319 79.1000221,66.5521124 79.4235079,66.4710136 L152.277123,48.2064164 C153.348535,47.9378104 153.999338,46.8515109 153.730732,45.7800984 C153.551509,45.0652148 152.993643,44.50683 152.278927,44.3269419 L79.7418379,26.0699748 C79.4184544,25.9885819 79.0798516,25.9893405 78.7568359,26.0721815 L7.53877065,44.3368666 C6.46882726,44.6112657 5.82391125,45.7010707 6.09831044,46.7710141 C6.27946423,47.477373 6.83070759,48.0291517 7.5368903,48.2109911 Z"
      stroke="url(#91obd1jio__bn05cgyloa)" stroke-width=".5" fill="url(#91obd1jio__apdxszrynb)" opacity=".50043887"
      transform="translate(0 .303385)"/>
    <path
      d="M7.5368903,30.048829 L78.4384297,48.3057083 C78.7613914,48.3888697 79.1000221,48.3899502 79.4235079,48.3088514 L152.277123,30.0442542 C153.348535,29.7756483 153.999338,28.6893487 153.730732,27.6179363 C153.551509,26.9030526 152.993643,26.3446679 152.278927,26.1647798 L79.7418379,7.90781264 C79.4184544,7.82641976 79.0798516,7.82717834 78.7568359,7.91001938 L7.53877065,26.1747044 C6.46882726,26.4491036 5.82391125,27.5389086 6.09831044,28.608852 C6.27946423,29.3152109 6.83070759,29.8669896 7.5368903,30.048829 Z"
      stroke="url(#91obd1jio__bn05cgyloa)" stroke-width=".5" transform="translate(0 .303385)"/>
    <path
      d="M9.27704534,22.2609454 L77.8630979,40.5135727 C78.1958308,40.6021221 78.5457891,40.6032714 78.8790965,40.5169094 L149.35342,22.2565801 C150.422679,21.9795284 151.064891,20.8881274 150.787839,19.8188678 C150.605823,19.1163902 150.057576,18.5676184 149.355273,18.3849297 L79.695353,0.264429557 C79.0289585,0.0910816453 78.3290991,0.092695453 77.6635112,0.269114787 L9.27897647,18.3949743 C8.21127639,18.6779766 7.57515316,19.7729372 7.85815548,20.8406373 C8.04203165,21.5343581 8.58350856,22.0763763 9.27704534,22.2609454 Z"
      fill="url(#91obd1jio__7upe9qxl3c)" transform="translate(0 .303385)"/>
  </g>
</svg>
