<?xml version="1.0" encoding="UTF-8"?>
<svg width="32px" height="23px" viewBox="0 0 32 23" version="1.1" xmlns="http://www.w3.org/2000/svg" xmlns:xlink="http://www.w3.org/1999/xlink">
    <title>Group</title>
    <g id="Page-1" stroke="none" stroke-width="1" fill="none" fill-rule="evenodd">
        <g id="Group">
            <rect id="Rectangle" fill-opacity="0" fill="#D8D8D8" x="0" y="0" width="32" height="23"></rect>
            <g id="underutilization" transform="translate(5.240000, 1.336000)" fill="#FF6500" fill-rule="nonzero">
                <path d="M0.144,0.48 L6.384,0 L6.384,1.02 L3.984,1.212 L3.984,1.956 L6.384,1.956 L6.384,2.976 L3.984,2.976 L3.984,8.664 L2.544,8.664 L2.544,2.976 L0.144,2.976 L0.144,1.956 L2.544,1.956 L2.544,1.32 L0.144,1.5 L0.144,0.48 Z M7.14,0.576 L8.52,0.576 L8.52,7.02 L7.14,7.02 L7.14,0.576 Z M1.308,8.664 L0,8.664 L0.528,3.372 L1.824,3.372 L1.308,8.664 Z M4.56,3.372 L5.868,3.372 L6.384,8.664 L5.076,8.664 L4.56,3.372 Z M8.796,7.488 C8.908,7.488 9,7.452 9.072,7.38 C9.144,7.308 9.18,7.216 9.18,7.104 L9.18,0 L10.56,0 L10.56,7.356 C10.56,7.54 10.524,7.712 10.452,7.872 C10.38,8.032 10.284,8.172 10.164,8.292 C10.044,8.412 9.904,8.506 9.744,8.574 C9.584,8.642 9.416,8.676 9.24,8.676 L8.256,8.676 L8.7,7.488 L8.796,7.488 Z" id="形状"></path>
                <path d="M12.696,0.108 L15.564,0.108 L17.052,0.108 L20.292,0.108 C20.604,0.108 20.87,0.218 21.09,0.438 C21.31,0.658 21.42,0.924 21.42,1.236 L21.42,7.404 L21.42,7.68 C21.42,7.936 21.332,8.15 21.156,8.322 C20.98,8.494 20.768,8.58 20.52,8.58 L19.932,8.58 L18.528,8.58 L19.044,7.536 L19.668,7.536 C19.74,7.536 19.802,7.512 19.854,7.464 C19.906,7.416 19.932,7.356 19.932,7.284 L19.932,6.66 L17.052,6.66 L17.052,8.58 L15.564,8.58 L15.564,6.66 L12.696,6.66 L12.696,8.58 L11.208,8.58 L11.208,0.108 L12.696,0.108 Z M15.564,5.484 L15.564,3.948 L12.696,3.948 L12.696,5.484 L15.564,5.484 Z M19.932,5.484 L19.932,3.948 L17.052,3.948 L17.052,5.484 L19.932,5.484 Z M17.052,1.272 L17.052,2.784 L19.932,2.784 L19.932,1.656 C19.932,1.544 19.896,1.452 19.824,1.38 C19.752,1.308 19.66,1.272 19.548,1.272 L17.052,1.272 Z M12.696,1.272 L12.696,2.784 L15.564,2.784 L15.564,1.272 L12.696,1.272 Z" id="形状"></path>
                <path d="M0.024,19.344 L3.804,13.296 L0.024,13.296 L0.024,12.06 L10.524,12.06 L10.524,13.296 L5.568,13.296 L5.172,13.92 L6.012,13.92 L6.012,20.628 L4.404,20.628 L4.404,15.156 L1.788,19.344 L0.024,19.344 Z M6.276,14.652 L7.992,14.652 L10.524,19.344 L8.808,19.344 L6.276,14.652 Z" id="形状"></path>
                <path d="M16.788,19.488 L21.588,19.488 L21.588,20.664 L15.444,20.664 L13.968,20.664 L13.644,20.664 L12.888,19.464 L12.552,20.664 L11.052,20.664 L12.096,16.956 L13.596,16.956 L13.44,17.532 L14.688,19.488 L15.144,19.488 L15.144,16.428 L11.496,16.428 L11.496,12.024 L21.06,12.024 L21.06,15.12 C21.06,15.304 21.026,15.474 20.958,15.63 C20.89,15.786 20.798,15.924 20.682,16.044 C20.566,16.164 20.428,16.258 20.268,16.326 C20.108,16.394 19.94,16.428 19.764,16.428 L16.788,16.428 L16.788,17.208 L21.288,17.208 L21.288,18.384 L16.788,18.384 L16.788,19.488 Z M13.152,15.252 L19.044,15.252 C19.148,15.252 19.236,15.216 19.308,15.144 C19.38,15.072 19.416,14.984 19.416,14.88 L19.416,13.2 L13.152,13.2 L13.152,15.252 Z" id="形状"></path>
            </g>
        </g>
    </g>
</svg>