<svg xmlns:xlink="http://www.w3.org/1999/xlink" xmlns="http://www.w3.org/2000/svg" viewBox="0 0 207 99"
     class="design-iconfont">
  <defs>
    <filter x="-6.1%" y="-6.1%" width="112.2%" height="112.2%" filterUnits="objectBoundingBox"
            id="amjh2ngsg__nw7frponec">
      <feGaussianBlur stdDeviation="6" in="SourceAlpha" result="shadowBlurInner1"/>
      <feOffset in="shadowBlurInner1" result="shadowOffsetInner1"/>
      <feComposite in="shadowOffsetInner1" in2="SourceAlpha" operator="arithmetic" k2="-1" k3="1"
                   result="shadowInnerInner1"/>
      <feColorMatrix values="0 0 0 0 0 0 0 0 0 1 0 0 0 0 0.835287027 0 0 0 1 0" in="shadowInnerInner1"/>
    </filter>
    <filter x="-11.5%" y="-11.5%" width="122.9%" height="122.9%" filterUnits="objectBoundingBox"
            id="amjh2ngsg__wdjy9kqg6g">
      <feGaussianBlur stdDeviation="8" in="SourceAlpha" result="shadowBlurInner1"/>
      <feOffset in="shadowBlurInner1" result="shadowOffsetInner1"/>
      <feComposite in="shadowOffsetInner1" in2="SourceAlpha" operator="arithmetic" k2="-1" k3="1"
                   result="shadowInnerInner1"/>
      <feColorMatrix values="0 0 0 0 0.115148225 0 0 0 0 0.858938034 0 0 0 0 0.999831048 0 0 0 0.5 0"
                     in="shadowInnerInner1"/>
    </filter>
    <filter x="-21%" y="-23.2%" width="142%" height="146.3%" filterUnits="objectBoundingBox" id="amjh2ngsg__tv9aeef18h">
      <feGaussianBlur stdDeviation="5" in="SourceGraphic"/>
    </filter>
    <filter x="-22%" y="-22.1%" width="144%" height="144.1%" filterUnits="objectBoundingBox" id="amjh2ngsg__qbug5q7mbj">
      <feGaussianBlur stdDeviation="5" in="SourceGraphic"/>
    </filter>
    <linearGradient x1="102.845972%" y1="50%" x2="0%" y2="50%" id="amjh2ngsg__56hnvb3b0a">
      <stop stop-color="#58D7FF" stop-opacity="0" offset="0%"/>
      <stop stop-color="#2CE9FF" stop-opacity=".27625109" offset="49.4539299%"/>
      <stop stop-color="#00FCFF" stop-opacity=".47142701" offset="100%"/>
    </linearGradient>
    <linearGradient x1="35.3229075%" y1="-7.20398331%" x2="50%" y2="100%" id="amjh2ngsg__rulhxlk8od">
      <stop stop-color="#00FFD5" offset="0%"/>
      <stop stop-color="#009DFF" stop-opacity="0" offset="100%"/>
    </linearGradient>
    <linearGradient x1="35.3229075%" y1="-7.20398331%" x2="91.5522063%" y2="90.6600696%" id="amjh2ngsg__6uoq9hvgme">
      <stop stop-color="#009DFF" stop-opacity="0" offset="0%"/>
      <stop stop-color="#00FFD5" offset="100%"/>
    </linearGradient>
    <path id="amjh2ngsg__e7mz311exb"
          d="M49 0.031121800000001087A49 49 0 1 0 49 98.0311218A49 49 0 1 0 49 0.031121800000001087Z"/>
    <path id="amjh2ngsg__dl8u9erqgf"
          d="M48.9306931 14.031121800000001A34.9306931 34.9306931 0 1 0 48.9306931 83.89250799999999A34.9306931 34.9306931 0 1 0 48.9306931 14.031121800000001Z"/>
  </defs>
  <g transform="translate(.25)" fill="none" fill-rule="evenodd">
    <path fill="url(#amjh2ngsg__56hnvb3b0a)" d="M50.75 0H206.75V98H50.75z"/>
    <g>
      <use fill="#050C23" xlink:href="#amjh2ngsg__e7mz311exb"/>
      <use fill="#000" filter="url(#amjh2ngsg__nw7frponec)" xlink:href="#amjh2ngsg__e7mz311exb"/>
    </g>
    <path d="M5.72724731,49.0797729 C5.72724731,72.9264441 25.0587939,92.2579907 48.9054651,92.2579907"
          stroke="url(#amjh2ngsg__rulhxlk8od)" stroke-width="2" stroke-linecap="round" stroke-linejoin="round"/>
    <path d="M92.083683,49.0797729 C92.083683,25.2331017 72.7521364,5.90155509 48.9054651,5.90155509"
          stroke="url(#amjh2ngsg__6uoq9hvgme)" stroke-width="2" stroke-linecap="round" stroke-linejoin="round"/>
    <mask id="amjh2ngsg__8bgsqv60ni" fill="#fff">
      <use xlink:href="#amjh2ngsg__dl8u9erqgf"/>
    </mask>
    <use fill="#070D24" xlink:href="#amjh2ngsg__dl8u9erqgf"/>
    <use fill="#000" filter="url(#amjh2ngsg__wdjy9kqg6g)" xlink:href="#amjh2ngsg__dl8u9erqgf"/>
    <path
      d="M22.1721418,20.0530553 C41.2345452,14.6561339 56.6191208,17.7872306 68.3258685,29.4463452 C80.0326162,41.1054599 85.1989049,54.8463054 83.8247348,70.6688818 C79.8335396,69.1265372 78.0898536,67.9648903 78.5936768,67.1839413 C82.5754303,61.0120406 92.6115539,54.931776 93.3556211,49.0311218 C94.2409119,42.0105265 93.244887,31.9276909 90.3675466,18.7826152 L65.3876444,5.90155509 L22.1721418,20.0530553 Z"
      fill="#09E1FF" filter="url(#amjh2ngsg__tv9aeef18h)" mask="url(#amjh2ngsg__8bgsqv60ni)"/>
    <path
      d="M5.79468683,48.4959897 C23.9598461,40.6420268 38.8957995,42.5446027 50.6025472,54.2037173 C62.3092949,65.862832 66.2745955,78.3774769 62.4984491,91.747652 C68.5444189,94.1455205 71.8193154,94.9539802 72.3231386,94.1730312 C76.3048921,88.0011305 71.5790714,75.6345627 72.3231386,69.7339085 C73.2084294,62.7133132 72.2124046,52.6304776 69.3350641,39.4854019 L44.355162,26.6043418 C35.1415008,26.0823381 27.6275245,27.4717882 21.813233,30.772692 C15.9989415,34.0735959 10.6594261,39.9813618 5.79468683,48.4959897 Z"
      fill="#00FFF7" filter="url(#amjh2ngsg__qbug5q7mbj)" mask="url(#amjh2ngsg__8bgsqv60ni)"
      transform="rotate(180 39.866668 60.479122)"/>
  </g>
</svg>
