<svg xmlns="http://www.w3.org/2000/svg" viewBox="0 0 267 54" class="design-iconfont">
  <defs>
    <linearGradient x1="100%" y1="50%" x2="0%" y2="50%" id="hn2a9jmb4__mh7kkn6z9b">
      <stop stop-color="#010633" stop-opacity="0" offset="0%"/>
      <stop stop-color="#020E62" stop-opacity=".49693288" offset="100%"/>
    </linearGradient>
    <linearGradient x1="100%" y1="50%" x2="0%" y2="50%" id="hn2a9jmb4__95xu0yvbca">
      <stop stop-color="#2472FF" stop-opacity="0" offset=".47402549%"/>
      <stop stop-color="#00F5FF" offset="100%"/>
    </linearGradient>
  </defs>
  <g fill="none" fill-rule="evenodd">
    <path d="M85.4615167,0.578509122 L94.348601,8.36088623 L257.189675,8.36088623 L265.734937,16.9056588 L265.734937,41.8502752 L256.085212,51.5 L9.025525,51.5 L0.5,44.0401656 L0.5,9.66680875 L9.05369377,0.578509122 L85.4615167,0.578509122 Z" stroke="url(#hn2a9jmb4__95xu0yvbca)" fill="url(#hn2a9jmb4__mh7kkn6z9b)" transform="translate(.5 1.428932)"/>
    <path stroke="#11BAFB" d="M0 9.46852016L8.83765744 -5.02362664e-13 85.6211158 -5.02362664e-13 94.4524639 7.81145938" transform="translate(.5 1.428932)"/>
    <path d="M21.54179,3.94498425 L12.7041326,3.94498425 L9.39001103,7.25910579 L18.2276685,7.25910579 L21.54179,3.94498425 Z M35.9029834,3.94498425 L27.0653259,3.94498425 L23.7512044,7.25910579 L32.5888618,7.25910579 L35.9029834,3.94498425 Z M50.2641767,3.94498425 L41.4265193,3.94498425 L38.1123977,7.25910579 L46.9500552,7.25910579 L50.2641767,3.94498425 Z M64.6253701,3.94498425 L55.7877126,3.94498425 L52.4735911,7.25910579 L61.3112485,7.25910579 L64.6253701,3.94498425 Z" fill="#00FCFF" transform="translate(.5 1.428932)"/>
    <path d="M72.631138,25.5920519 C72.9277967,25.8591646 72.9517485,26.3161916 72.6846358,26.6128503 L65.7382369,34.3276078 C65.5901108,34.4921185 65.3835821,34.5727662 65.178386,34.5664204 C64.9725425,34.5730304 64.7655793,34.4923882 64.6172104,34.3276078 L64.6172104,34.3276078 L57.6708115,26.6128503 C57.4036988,26.3161916 57.4276506,25.8591646 57.7243093,25.5920519 C58.020968,25.3249392 58.477995,25.348891 58.7451077,25.6455497 L58.7451077,25.6455497 L65.1767734,32.7902651 L71.6103396,25.6455497 C71.8774523,25.348891 72.3344793,25.3249392 72.631138,25.5920519 Z" fill="#0091FF" transform="matrix(0 1 1 0 35.691145 -33.762213)"/>
  </g>
</svg>
