<svg xmlns="http://www.w3.org/2000/svg" viewBox="0 0 14 14" class="design-iconfont">
  <g fill="none" fill-rule="evenodd" opacity=".80085682">
    <path
      d="M12.7180574,0.25 C13.0930175,0.25 13.2325007,0.280204422 13.3705231,0.354019651 C13.7197956,0.767499342 13.75,0.906982536 13.75,1.2819426 L13.75,1.2819426 L13.75,12.7180574 C13.75,13.0930175 13.7197956,13.2325007 13.6459803,13.3705231 C13.2325007,13.7197956 13.0930175,13.75 12.7180574,13.75 L12.7180574,13.75 L1.2819426,13.75 C0.906982536,13.75 0.767499342,13.7197956 0.629476863,13.6459803 C0.280204422,13.2325007 0.25,13.0930175 0.25,12.7180574 L0.25,12.7180574 L0.25,1.2819426 C0.25,0.906982536 0.280204422,0.767499342 0.354019651,0.629476863 C0.767499342,0.280204422 0.906982536,0.25 1.2819426,0.25 L1.2819426,0.25 Z"
      stroke="#00FF78" stroke-width=".5" fill-opacity=".51319896" fill="#003E1D"/>
    <path
      d="M6.80927734,0.279134115 C6.93688151,0.279134115 7.04773763,0.365266927 7.07963867,0.488085937 L7.07963867,0.488085937 L7.97286784,3.92701823 C7.97526042,3.93738607 7.97765299,3.94855143 7.97924805,3.9597168 C7.98004557,3.96051432 7.98004557,3.96210937 7.98004557,3.9629069 C7.9808431,3.96689453 7.98164063,3.97008464 7.98164063,3.97407227 C7.98243815,3.97566732 7.98243815,3.9780599 7.98243815,3.97965495 C7.98323568,3.98284505 7.98323568,3.98603516 7.98323568,3.98922526 L7.98313599,3.99730021 L7.98243815,3.9995931 L7.98243815,7.56852214 C7.98243815,7.72244466 7.85722656,7.84765625 7.70330404,7.84765625 L7.70330404,7.84765625 L0.453792318,7.84765625 C0.299869792,7.84765625 0.174658203,7.72244466 0.174658203,7.56852214 L0.174658203,7.56852214 L0.175455729,3.97885742 C0.176253255,3.97726237 0.176253255,3.97486979 0.176253255,3.97327474 L0.176253255,3.97327474 L0.177848307,3.96210937 L0.177848307,3.96210937 C0.180240885,3.94775391 0.181835938,3.93658854 0.185026042,3.9262207 L0.185026042,3.9262207 L1.07905273,0.488085937 C1.11095378,0.365266927 1.22260742,0.279134115 1.34941406,0.279134115 L1.34941406,0.279134115 Z M7.42496745,4.27872721 L0.733723958,4.27872721 L0.733723958,7.28938802 L7.42496745,7.28938802 L7.42496745,4.27872721 Z M1.68255208,5.28440183 C1.86303604,5.18019937 2.08540146,5.18019937 2.26588542,5.28440183 C2.44636938,5.3886043 2.55755208,5.5811784 2.55755208,5.78958332 C2.55755208,6.11174943 2.29638485,6.37291665 1.97421875,6.37291665 C1.65205265,6.37291665 1.39088542,6.11174943 1.39088542,5.78958332 C1.39088542,5.5811784 1.50206812,5.3886043 1.68255208,5.28440183 Z M2.99208984,5.28440183 C3.1725738,5.18019936 3.39493922,5.18019936 3.57542318,5.28440183 C3.75590715,5.38860429 3.86708984,5.58117839 3.86708984,5.78958331 C3.86708984,5.99798824 3.75590715,6.19056233 3.57542318,6.2947648 C3.39493922,6.39896726 3.1725738,6.39896726 2.99208984,6.2947648 C2.81160587,6.19056233 2.70042318,5.99798824 2.70042318,5.78958331 C2.70042318,5.58117839 2.81160587,5.38860429 2.99208984,5.28440183 Z M6.59394531,0.837402344 L1.56554362,0.837402344 L0.815869141,3.72045898 L7.34361979,3.72045898 L6.59394531,0.837402344 Z"
      fill="#00FF78" transform="translate(2.916667 2.916667)" fill-rule="nonzero"/>
  </g>
</svg>
