<svg xmlns:xlink="http://www.w3.org/1999/xlink" xmlns="http://www.w3.org/2000/svg" viewBox="0 0 33 41"
     class="design-iconfont">
  <defs>
    <linearGradient x1="50%" y1="44.363981%" x2="50%" y2="100%" id="hyg8silxpa">
      <stop stop-color="#054E78" stop-opacity="0" offset="0%"/>
      <stop stop-color="#022643" offset="100%"/>
    </linearGradient>
    <linearGradient x1="100%" y1="50%" x2="0%" y2="50%" id="24oh1om9zb">
      <stop stop-color="#182AAC" offset=".89136937%"/>
      <stop stop-color="#00D2B3" offset="100%"/>
    </linearGradient>
    <linearGradient x1="100%" y1="50%" x2="0%" y2="50%" id="9h0hb4xiwc">
      <stop stop-color="#0040A8" offset="0%"/>
      <stop stop-color="#006297" offset="49.1992329%"/>
      <stop stop-color="#00C9D8" offset="100%"/>
    </linearGradient>
    <linearGradient x1="100%" y1="50%" x2="0%" y2="50%" id="il4jw4590e">
      <stop stop-color="#008DE4" offset=".90997869%"/>
      <stop stop-color="#00E8C4" offset="99.0124256%"/>
    </linearGradient>
    <linearGradient x1="100%" y1="50%" x2="0%" y2="50%" id="sbsqkld06d">
      <stop stop-color="#00BAE8" offset="0%"/>
      <stop stop-color="#00FDFF" offset="100%"/>
    </linearGradient>
    <linearGradient x1="34.62863%" y1="3.67961605%" x2="67.0372489%" y2="95.6093386%" id="tbgepncsqf">
      <stop stop-color="#0FA" offset="0%"/>
      <stop stop-color="#026EFF" offset="100%"/>
    </linearGradient>
    <linearGradient x1="50%" y1="9.35091914%" x2="50%" y2="99.2706015%" id="npqh5nqbyk">
      <stop stop-color="#00FFFE" offset="0%"/>
      <stop stop-color="#00C6FF" offset="100%"/>
    </linearGradient>
    <filter x="-1.7%" y="-1%" width="103.4%" height="102%" filterUnits="objectBoundingBox" id="61rqb8e33h">
      <feOffset dx="-.5" dy="-.5" in="SourceAlpha" result="shadowOffsetInner1"/>
      <feComposite in="shadowOffsetInner1" in2="SourceAlpha" operator="arithmetic" k2="-1" k3="1"
                   result="shadowInnerInner1"/>
      <feColorMatrix values="0 0 0 0 0 0 0 0 0 0.929451896 0 0 0 0 1 0 0 0 0.5 0" in="shadowInnerInner1"/>
    </filter>
    <filter x="-53.6%" y="-19.3%" width="207.2%" height="154%" filterUnits="objectBoundingBox" id="ls5xl29lxi">
      <feOffset dy="1" in="SourceAlpha" result="shadowOffsetOuter1"/>
      <feGaussianBlur stdDeviation="1" in="shadowOffsetOuter1" result="shadowBlurOuter1"/>
      <feColorMatrix values="0 0 0 0 0 0 0 0 0 0.0868338205 0 0 0 0 1 0 0 0 0.5 0" in="shadowBlurOuter1"/>
    </filter>
    <path id="23yh3mm0dg" d="M6.22298374 0L6.22298374 16.642501 20.8012435 24.9741635 20.8012435 7.97687223z"/>
    <path
      d="M10.4611937,5.44529442 L15.5890256,7.84802622 C16.0043639,7.9849332 16.3006039,8.2924149 16.3006039,8.67554258 L16.3006039,8.67554258 L16.1363567,18.0552719 C16.1363567,18.2468358 15.9820403,18.401602 15.7910334,18.401602 L15.7910334,18.401602 L10.1158704,15.4638285 C9.77054719,15.3246468 9.77054719,15.3090622 9.77054719,15.1174984 L9.77054719,6.13795465 C9.77054719,5.75482696 10.080259,5.44529442 10.4611937,5.44529442 L10.4611937,5.44529442 Z M12.4952641,14.2570845 L12.4830535,14.2570845 C12.4080456,14.2570845 12.3411781,14.3144455 12.2917543,14.4053571 C12.2423305,14.4962688 12.2120947,14.6218134 12.2120947,14.7614278 C12.2120947,15.0395741 12.3336192,15.265771 12.4830535,15.265771 L12.4830535,15.265771 L12.4952641,15.265771 C12.5696906,15.265771 12.637721,15.2084101 12.6865634,15.1174984 C12.7354057,15.0265868 12.7656415,14.9010421 12.7662229,14.7614278 C12.7662229,14.4832814 12.6446985,14.2570845 12.4952641,14.2570845 L12.4952641,14.2570845 Z M12.5402787,13.0449291 L12.5303937,13.0449291 C12.468259,13.0449291 12.4117729,13.0838913 12.3708206,13.1466636 C12.3298682,13.2094359 12.3044494,13.2960185 12.3044494,13.3912593 C12.3044494,13.5828231 12.4054183,13.7375894 12.5303937,13.7375894 L12.5303937,13.7375894 L12.5402787,13.7375894 C12.6024134,13.7375894 12.6588994,13.6986272 12.6998518,13.6358549 C12.7408042,13.5730826 12.7662229,13.4865 12.7662229,13.3912593 C12.7662229,13.1996954 12.6652541,13.0449291 12.5402787,13.0449291 L12.5402787,13.0449291 Z M11.0187933,9.54136786 C10.9238294,9.54136786 10.8461316,9.61929214 10.8461316,9.71453292 L10.8461316,9.71453292 L10.8461316,11.4461835 C10.8461316,11.5414243 10.9238294,11.6193485 11.0187933,11.6193485 L11.0187933,11.6193485 L14.8944016,13.3912593 C14.9893655,13.3912593 15.0670632,13.313335 15.0670632,13.2180942 L15.0670632,13.2180942 L15.0713798,11.4461835 C15.0713798,11.3509427 14.993682,11.2730184 14.8987181,11.2730184 L14.8987181,11.2730184 Z M11.5875024,10.5691136 L14.365059,11.8037581 C14.3888,11.8037581 14.4082244,11.8232392 14.4082244,11.8470494 L14.4082244,12.4531271 C14.4082244,12.4769373 14.3888,12.4964184 14.365059,12.4964184 L11.5875024,11.2617739 C11.5637615,11.2617739 11.544337,11.2422928 11.544337,11.2184826 L11.544337,10.6124049 C11.544337,10.5885947 11.5637615,10.5691136 11.5875024,10.5691136 Z M11.0187933,8.15604742 C10.9238294,8.15604742 10.8461316,8.23397169 10.8461316,8.32921247 L10.8461316,8.32921247 L10.8461316,8.67554258 C10.8461316,8.77078337 10.9238294,8.84870764 11.0187933,8.84870764 L11.0187933,8.84870764 L14.8944016,10.5258224 C14.9893655,10.5258224 15.0670632,10.4478981 15.0670632,10.3526573 L15.0670632,10.3526573 L15.0670632,10.0063272 C15.0670632,9.91108642 14.9893655,9.83316214 14.8944016,9.83316214 L14.8944016,9.83316214 Z M11.0231098,6.77072697 C10.9281459,6.77072697 10.8504482,6.84865125 10.8504482,6.94389203 L10.8504482,6.94389203 L10.8504482,7.29022214 C10.8504482,7.38546292 10.9281459,7.4633872 11.0231098,7.4633872 L11.0231098,7.4633872 L14.8987181,9.14050192 C14.993682,9.14050192 15.0713798,9.06257765 15.0713798,8.96733687 L15.0713798,8.96733687 L15.0713798,8.62100676 C15.0713798,8.52576598 14.993682,8.4478417 14.8987181,8.4478417 L14.8987181,8.4478417 Z"
      id="2imwerw1uj"/>
  </defs>
  <g fill="none" fill-rule="evenodd">
    <path
      d="M1.36788802,29.7220632 L15.7274073,20.4058858 C16.0610799,20.1894054 16.4913234,20.1912519 16.8231257,20.4105882 L30.9121544,29.7240743 C31.372875,30.0286314 31.4994704,30.6490115 31.1949133,31.109732 C31.1105832,31.2373029 30.9981183,31.3438334 30.8661677,31.421131 L16.7241121,39.7056482 C16.413542,39.8875823 16.0291592,39.8885757 15.7176529,39.7082491 L1.41116065,31.4264234 C0.933186159,31.1497307 0.770014997,30.5379521 1.04670766,30.0599776 C1.12564991,29.9236083 1.23570044,29.807824 1.36788802,29.7220632 Z"
      stroke="url(#hyg8silxpa)" stroke-width=".5" stroke-linecap="round" stroke-linejoin="round"
      transform="translate(0 .5)"/>
    <path
      d="M1.36788802,27.8749693 L15.7274073,18.5587919 C16.0610799,18.3423115 16.4913234,18.344158 16.8231257,18.5634943 L30.9121544,27.8769803 C31.372875,28.1815375 31.4994704,28.8019176 31.1949133,29.2626381 C31.1105832,29.3902089 30.9981183,29.4967395 30.8661677,29.5740371 L16.7241121,37.8585542 C16.413542,38.0404884 16.0291592,38.0414817 15.7176529,37.8611552 L1.41116065,29.5793294 C0.933186159,29.3026368 0.770014997,28.6908582 1.04670766,28.2128837 C1.12564991,28.0765144 1.23570044,27.9607301 1.36788802,27.8749693 Z"
      stroke="url(#24oh1om9zb)" stroke-width=".5" stroke-linecap="round" stroke-linejoin="round"
      transform="translate(0 .5)"/>
    <path
      d="M3.23241437,28.154746 L3.23241437,26.0996486 L3.23241437,26.0996486 L15.5289212,20.6841714 C15.7796711,20.5737392 16.0647499,20.5710294 16.3175538,20.676675 L28.9266212,25.9459488 L28.9266212,25.9459488 L28.9266212,28.1531504 C28.9266212,28.5074544 28.7391434,28.835308 28.4337871,29.0149989 L16.5527627,36.0065417 C16.2389976,36.1911808 15.8496782,36.1907124 15.5363583,36.0053187 L3.72317593,29.0153715 C3.41899193,28.8353836 3.23241437,28.5081913 3.23241437,28.154746 Z"
      fill="url(#9h0hb4xiwc)" transform="translate(0 .5)"/>
    <path
      d="M4.18215978,25.2412264 L15.2436437,18.5141307 C15.5591959,18.322226 15.9548308,18.3198691 16.272647,18.5080006 L27.6504211,25.2430814 C28.1256807,25.5244116 28.2828916,26.1377489 28.0015613,26.6130086 C27.9166,26.7565363 27.7970882,26.8765336 27.6539062,26.9620762 L16.3939116,33.6892426 C16.0768937,33.8786416 15.6812987,33.8779102 15.3649834,33.6873403 L4.1857201,26.9521889 C3.71265575,26.6671826 3.56020455,26.052645 3.8452108,25.5795806 C3.92855602,25.441241 4.04416825,25.3251467 4.18215978,25.2412264 Z"
      stroke="url(#sbsqkld06d)" stroke-width=".5" fill="url(#il4jw4590e)" stroke-linecap="round" stroke-linejoin="round"
      transform="translate(0 .5)"/>
    <path fill="#0093FF" opacity=".20088341"
          d="M15.9311851 22.35831379A7.61926244 3.46330111 0 1 0 15.9311851 29.28491601A7.61926244 3.46330111 0 1 0 15.9311851 22.35831379Z"
          transform="translate(0 .5)"/>
    <path fill="#2BA1F7" opacity=".49967303"
          d="M16.3006039 22.358313770000002A6.60336078 3.00152763 0 1 0 16.3006039 28.36136903A6.60336078 3.00152763 0 1 0 16.3006039 22.358313770000002Z"
          transform="translate(0 .5)"/>
    <path fill="#0094FF" opacity=".50396147"
          d="M16.1158945 22.358313730000003A4.57155747 2.07798067 0 1 0 16.1158945 26.51427507A4.57155747 2.07798067 0 1 0 16.1158945 22.358313730000003Z"
          transform="translate(0 .5)"/>
    <path fill="#00FFCE" opacity=".50352914"
          d="M15.9311851 22.3583138A2.53975415 1.1544337 0 1 0 15.9311851 24.667181199999998A2.53975415 1.1544337 0 1 0 15.9311851 22.3583138Z"
          transform="translate(0 .5)"/>
    <path fill="url(#tbgepncsqf)" opacity=".10180373"
          d="M12.226039 0L12.226039 16.642501 26.8042987 24.9741635 26.8042987 7.97687223z"
          transform="translate(0 .5)"/>
    <path fill="url(#tbgepncsqf)" opacity=".20228504"
          d="M9.45539811 0L9.45539811 16.642501 24.0336578 24.9741635 24.0336578 7.97687223z"
          transform="translate(0 .5)"/>
    <g opacity=".80137852" transform="translate(0 .5)">
      <use fill="url(#tbgepncsqf)" xlink:href="#23yh3mm0dg"/>
      <use fill="#000" filter="url(#61rqb8e33h)" xlink:href="#23yh3mm0dg"/>
    </g>
    <g fill-rule="nonzero" transform="translate(0 .5)">
      <use fill="#000" filter="url(#ls5xl29lxi)" xlink:href="#2imwerw1uj"/>
      <use fill="url(#npqh5nqbyk)" xlink:href="#2imwerw1uj"/>
    </g>
  </g>
</svg>
