<?xml version="1.0" encoding="UTF-8"?>
<svg xmlns="http://www.w3.org/2000/svg" xmlns:xlink="http://www.w3.org/1999/xlink" width="16px" height="16px" viewBox="0 0 16 16" version="1.1">
  <title>地点备份 10</title>
  <defs>
    <linearGradient x1="50%" y1="0%" x2="50%" y2="100%" id="linearGradient-1">
      <stop stop-color="#FF6B6B" offset="0%"></stop>
      <stop stop-color="#FF2121" offset="100%"></stop>
    </linearGradient>
  </defs>
  <g id="页面" stroke="none" stroke-width="1" fill="none" fill-rule="evenodd">
    <g id="宽带专题-宽带资源上图4" transform="translate(-790.000000, -721.000000)" fill-rule="nonzero">
      <g id="编组-72备份-7" transform="translate(764.000000, 694.523469)">
        <g id="地点备份-10" transform="translate(26.000000, 26.476531)">
          <rect id="矩形" fill="#000000" opacity="0" x="0" y="4" width="8.42105263" height="8"></rect>
          <path d="M3.7812897,11.3137016 C0.985184134,8.72556199 0.985184134,4.52924425 3.7812897,1.94110468 C6.57637273,-0.647034892 11.1082213,-0.647034892 13.9033043,1.94110468 C16.6988986,4.52971765 16.6988986,8.7260354 13.9033043,11.3146484 L8.84280825,16 L3.7812897,11.3132281 L3.7812897,11.3137016 Z M11.0115923,8.63608725 C11.7866069,7.91845354 12.0892845,6.87247958 11.8056095,5.89217367 C11.5219345,4.91186776 10.6950038,4.14616168 9.6363142,3.88348951 C8.57762461,3.62081734 7.44801627,3.90108523 6.67300172,4.61871898 C5.47493302,5.7280846 5.47493302,7.52672164 6.67300172,8.63608725 C7.87107042,9.74545287 9.81352357,9.74545287 11.0115923,8.63608725 L11.0115923,8.63608725 Z" id="形状备份-7" fill="url(#linearGradient-1)"></path>
        </g>
      </g>
    </g>
  </g>
</svg>
