<svg xmlns="http://www.w3.org/2000/svg" viewBox="0 0 112 129" class="design-iconfont">
  <defs>
    <linearGradient x1="50%" y1="2.11176287%" x2="50%" y2="100%" id="b36dnsz09__1kr7aum1wa">
      <stop stop-color="#00F4FF" offset="0%"/>
      <stop stop-color="#00D5FF" stop-opacity="0" offset="100%"/>
    </linearGradient>
    <linearGradient x1="98.768541%" y1="50%" x2=".69639833%" y2="50%" id="b36dnsz09__x1z15jqe3b">
      <stop stop-color="#00B8FF" offset="0%"/>
      <stop stop-color="#00E4FF" offset="100%"/>
    </linearGradient>
    <linearGradient x1="100%" y1="50%" x2=".23261651%" y2="50%" id="b36dnsz09__i4gmlinbvc">
      <stop stop-color="#008290" offset="0%"/>
      <stop stop-color="#00FFEF" offset="64.0232326%"/>
      <stop stop-color="#1579A0" offset="100%"/>
    </linearGradient>
    <linearGradient x1="100%" y1="50%" x2="1.53842739%" y2="50%" id="b36dnsz09__vl7oelvhfd">
      <stop stop-color="#00B2D2" offset="0%"/>
      <stop stop-color="#00CFC3" offset="100%"/>
    </linearGradient>
    <linearGradient x1="100%" y1="50%" x2="0%" y2="50%" id="b36dnsz09__a4x2fyjq8e">
      <stop stop-color="#004C8C" offset="0%"/>
      <stop stop-color="#00678E" offset="99.5769367%"/>
    </linearGradient>
    <linearGradient x1="100%" y1="50%" x2=".23261651%" y2="50%" id="b36dnsz09__45tg4ume1f">
      <stop stop-color="#008290" offset="0%"/>
      <stop stop-color="#00FFEF" offset="64.0232326%"/>
      <stop stop-color="#1579A0" offset="100%"/>
    </linearGradient>
    <linearGradient x1="100%" y1="50%" x2="0%" y2="50%" id="b36dnsz09__hq0hu4jfyg">
      <stop stop-color="#00FCFF" offset="0%"/>
      <stop stop-color="#3FF4FF" offset="100%"/>
    </linearGradient>
    <linearGradient x1="50%" y1=".22851904%" x2="50%" y2="100%" id="b36dnsz09__vnu8u74yoh">
      <stop stop-color="#00ADCA" offset="0%"/>
      <stop stop-color="#00A6FF" offset="100%"/>
    </linearGradient>
    <linearGradient x1="50%" y1="0%" x2="50%" y2="100%" id="b36dnsz09__pcy6bfzt2i">
      <stop stop-color="#00FDE9" offset="0%"/>
      <stop stop-color="#00D8A9" offset="100%"/>
    </linearGradient>
  </defs>
  <g fill="none" fill-rule="evenodd">
    <path fill="url(#b36dnsz09__1kr7aum1wa)" fill-rule="nonzero" d="M13.2427565 12.8483826H96.328964V100.2173842H13.2427565z" transform="translate(1)"/>
    <path d="M41.5431037 0A41.5431037 13.7049414 0 1 0 41.5431037 27.4098828A41.5431037 13.7049414 0 1 0 41.5431037 0Z" transform="translate(14.242757)" fill="#027DAA"/>
    <path stroke="#44D7B6" fill="#004C91" fill-rule="nonzero" opacity=".50059509" d="M55 82.2635544A55 22.8790436 0 1 0 55 128.0216416A55 22.8790436 0 1 0 55 82.2635544Z" transform="translate(1)"/>
    <path stroke="#44D7B6" fill="url(#b36dnsz09__x1z15jqe3b)" fill-rule="nonzero" opacity=".40411086" d="M55 74.12624509999999A55 22.8790436 0 1 0 55 119.8843323A55 22.8790436 0 1 0 55 74.12624509999999Z" transform="translate(1)"/>
    <path d="M55.2141397,112.209208 C78.3942946,112.209208 97.1855232,105.881549 97.1855232,98.0759871 C97.1855232,97.6693485 97.1855232,96.3845097 97.1855232,94.2214724 C83.4504428,87.3690016 69.4599818,83.9427663 55.2141397,83.9427663 C41.5384991,83.9427663 27.5480381,87.3690016 13.2427565,94.2214724 C13.2427565,96.1925033 13.2427565,97.4773412 13.2427565,98.0759871 C13.2427565,105.881549 32.0339849,112.209208 55.2141397,112.209208 Z" fill="url(#b36dnsz09__i4gmlinbvc)" fill-rule="nonzero" transform="translate(1)"/>
    <path d="M41.9713831 0A41.9713831 14.1332209 0 1 0 41.9713831 28.2664418A41.9713831 14.1332209 0 1 0 41.9713831 0Z" transform="translate(14.242757 80.088252)" fill="url(#b36dnsz09__vl7oelvhfd)"/>
    <path fill="url(#b36dnsz09__a4x2fyjq8e)" fill-rule="nonzero" d="M55.2141397 82.2296482A34.3402225 11.5635443 0 1 0 55.2141397 105.35673680000001A34.3402225 11.5635443 0 1 0 55.2141397 82.2296482Z" transform="translate(1)"/>
    <path d="M23.4435937,92.9366345 L23.4435937,98.0759871 C29.0143119,102.787061 39.4357779,105.213978 54.7079913,105.356737 C69.9802047,105.499497 80.4016706,103.354635 85.9723889,98.9221496 L85.9723889,92.4875628 L23.4435937,92.9366345 Z" fill="url(#b36dnsz09__45tg4ume1f)" fill-rule="nonzero" transform="translate(1)"/>
    <g>
      <path d="M31.2643976 0A31.2643976 8.99386782 0 1 0 31.2643976 17.98773564A31.2643976 8.99386782 0 1 0 31.2643976 0Z" fill="url(#b36dnsz09__hq0hu4jfyg)" transform="translate(24.443594 83.942767)"/>
    </g>
    <g>
      <path d="M19.914993 0A19.914993 5.99591188 0 1 0 19.914993 11.99182376A19.914993 5.99591188 0 1 0 19.914993 0Z" fill="url(#b36dnsz09__vnu8u74yoh)" transform="translate(35.656728 6.852471)"/>
    </g>
    <g fill-rule="nonzero">
      <path d="M25.7586207,0 L17.0689655,0 C16.0137931,0 15.2068965,0.806896547 15.2068965,1.86206896 L15.2068965,30.4137931 L12.7241379,30.4137931 L12.7241379,1.86206896 C12.7241379,0.868965504 11.9172414,0 10.862069,0 L2.17241378,0 C1.11724137,0 0.31034482,0.806896547 0.31034482,1.86206896 L0.31034482,34.137931 C0.31034482,35.1310345 1.11724137,36 2.17241378,36 L10.862069,36 C11.9172414,36 12.7241379,35.1931035 12.7241379,34.137931 L12.7241379,32.8965517 L15.2068965,32.8965517 L15.2068965,34.137931 C15.2068965,35.1310345 16.0137931,36 17.0689655,36 L25.7586207,36 C26.8137931,36 27.6206896,35.1931035 27.6206896,34.137931 L27.6206896,1.86206896 C27.6206896,0.806896547 26.8137931,0 25.7586207,0 L25.7586207,0 Z M5.89655173,32.8965517 L3.41379309,32.8965517 L3.41379309,30.4137931 L5.89655173,30.4137931 L5.89655173,32.8965517 Z M9.62068964,5.58620691 L3.41379309,5.58620691 L3.41379309,3.10344827 L9.62068964,3.10344827 L9.62068964,5.58620691 Z M20.7931035,32.8965517 L18.3103448,32.8965517 L18.3103448,30.4137931 L20.7931035,30.4137931 L20.7931035,32.8965517 Z M24.5172414,5.58620691 L18.3103448,5.58620691 L18.3103448,3.10344827 L24.5172414,3.10344827 L24.5172414,5.58620691 Z M33.8896552,36 C32.8965517,36 32.0896552,35.1931035 32.0896552,34.2 L32.0896552,1.8 C32.0896552,0.806896547 32.8965517,0 33.8896552,0 C34.8827586,0 35.6896552,0.806896547 35.6896552,1.8 L35.6896552,34.2 C35.6896552,35.1931035 34.8827586,36 33.8896552,36 Z" fill="url(#b36dnsz09__pcy6bfzt2i)" transform="translate(38 41)"/>
    </g>
  </g>
</svg>
