<svg xmlns="http://www.w3.org/2000/svg" viewBox="0 0 112 129" class="design-iconfont">
  <defs>
    <linearGradient x1="50%" y1="2.11176287%" x2="50%" y2="100%" id="vybwkayfs__uk7jvv4w4a">
      <stop stop-color="#0079DD" offset="0%"/>
      <stop stop-color="#0065FF" stop-opacity="0" offset="100%"/>
    </linearGradient>
    <linearGradient x1="100%" y1="50%" x2="0%" y2="50%" id="vybwkayfs__v5b513d8ab">
      <stop stop-color="#0021FF" offset="1.23145897%"/>
      <stop stop-color="#004FFF" offset="99.3036017%"/>
    </linearGradient>
    <linearGradient x1="100%" y1="50%" x2="0%" y2="50%" id="vybwkayfs__g50nzfgiac">
      <stop stop-color="#161AB8" offset="0%"/>
      <stop stop-color="#00FFEF" offset="63.6578879%"/>
      <stop stop-color="#1260E7" offset="99.7673835%"/>
    </linearGradient>
    <linearGradient x1="100%" y1="50%" x2="0%" y2="50%" id="vybwkayfs__5h7nktud1d">
      <stop stop-color="#0060D2" offset="0%"/>
      <stop stop-color="#0069CF" offset="100%"/>
    </linearGradient>
    <linearGradient x1="100%" y1="50%" x2="0%" y2="50%" id="vybwkayfs__fw8aoa9k1e">
      <stop stop-color="#0051C1" offset="0%"/>
      <stop stop-color="#00218E" offset="100%"/>
    </linearGradient>
    <linearGradient x1="100%" y1="50%" x2="0%" y2="50%" id="vybwkayfs__mb4uiskc3f">
      <stop stop-color="#161AB8" offset="0%"/>
      <stop stop-color="#00FFEF" offset="63.6578879%"/>
      <stop stop-color="#1260E7" offset="99.7673835%"/>
    </linearGradient>
    <linearGradient x1="100%" y1="50%" x2="0%" y2="50%" id="vybwkayfs__rmvo2skvtg">
      <stop stop-color="#0078FF" offset="0%"/>
      <stop stop-color="#3FA0FF" offset="100%"/>
    </linearGradient>
    <linearGradient x1="50%" y1="0%" x2="50%" y2="100%" id="vybwkayfs__m8wz2owulh">
      <stop stop-color="#00258A" offset=".22851904%"/>
      <stop stop-color="#006AFF" offset="100%"/>
    </linearGradient>
    <linearGradient x1="50%" y1="0%" x2="50%" y2="100%" id="vybwkayfs__ibgyc4m3di">
      <stop stop-color="#00E8FF" offset="0%"/>
      <stop stop-color="#00BAF2" offset="100%"/>
    </linearGradient>
  </defs>
  <g fill="none" fill-rule="evenodd">
    <path fill="url(#vybwkayfs__uk7jvv4w4a)" fill-rule="nonzero" d="M13.2427565 12.8483826H96.328964V100.2173842H13.2427565z" transform="translate(1)"/>
    <path d="M41.5431037 0A41.5431037 13.7049414 0 1 0 41.5431037 27.4098828A41.5431037 13.7049414 0 1 0 41.5431037 0Z" transform="translate(14.242757)" fill="#004BC1"/>
    <path stroke="#32C5FF" fill="#002391" fill-rule="nonzero" opacity=".50023034" d="M55 82.2635544A55 22.8790436 0 1 0 55 128.0216416A55 22.8790436 0 1 0 55 82.2635544Z" transform="translate(1)"/>
    <path stroke="#32C5FF" fill="url(#vybwkayfs__v5b513d8ab)" fill-rule="nonzero" opacity=".40411086" d="M55 74.12624509999999A55 22.8790436 0 1 0 55 119.8843323A55 22.8790436 0 1 0 55 74.12624509999999Z" transform="translate(1)"/>
    <path d="M55.2141397,112.209208 C78.3942946,112.209208 97.1855232,105.881549 97.1855232,98.0759871 C97.1855232,97.6693485 97.1855232,96.3845097 97.1855232,94.2214724 C83.4504428,87.3690016 69.4599818,83.9427663 55.2141397,83.9427663 C41.5384991,83.9427663 27.5480381,87.3690016 13.2427565,94.2214724 C13.2427565,96.1925033 13.2427565,97.4773412 13.2427565,98.0759871 C13.2427565,105.881549 32.0339849,112.209208 55.2141397,112.209208 Z" fill="url(#vybwkayfs__g50nzfgiac)" fill-rule="nonzero" transform="translate(1)"/>
    <path d="M41.9713831 0A41.9713831 14.1332209 0 1 0 41.9713831 28.2664418A41.9713831 14.1332209 0 1 0 41.9713831 0Z" transform="translate(14.242757 80.088252)" fill="url(#vybwkayfs__5h7nktud1d)"/>
    <path fill="url(#vybwkayfs__fw8aoa9k1e)" fill-rule="nonzero" d="M55.2141397 82.2296482A34.3402225 11.5635443 0 1 0 55.2141397 105.35673680000001A34.3402225 11.5635443 0 1 0 55.2141397 82.2296482Z" transform="translate(1)"/>
    <path d="M23.4435937,92.9366345 L23.4435937,98.0759871 C29.0143119,102.787061 39.4357779,105.213978 54.7079913,105.356737 C69.9802047,105.499497 80.4016706,103.354635 85.9723889,98.9221496 L85.9723889,92.4875628 L23.4435937,92.9366345 Z" fill="url(#vybwkayfs__mb4uiskc3f)" fill-rule="nonzero" transform="translate(1)"/>
    <g>
      <path d="M31.2643976 0A31.2643976 8.99386782 0 1 0 31.2643976 17.98773564A31.2643976 8.99386782 0 1 0 31.2643976 0Z" fill="url(#vybwkayfs__rmvo2skvtg)" transform="translate(24.443594 83.942767)"/>
    </g>
    <g transform="translate(35.656728 6.852471)" fill="url(#vybwkayfs__m8wz2owulh)" opacity=".5015811">
      <path d="M19.914993 0A19.914993 5.99591188 0 1 0 19.914993 11.99182376A19.914993 5.99591188 0 1 0 19.914993 0Z"/>
    </g>
    <g fill-rule="nonzero">
      <path d="M34.6633333,23.684 L32.4913333,7.72933332 C32.419273,7.21025115 31.9753934,6.82399996 31.4513333,6.82399996 L8.54066668,6.82399996 C8.01933336,6.82399996 7.576,7.208 7.50066668,7.726 L5.26666668,23.684 L5.28933332,23.684 L5.26666668,23.71 L5.26666668,35.042 C5.26666668,35.7046667 5.80466668,36.2426667 6.46733332,36.2426667 L33.466,36.2426667 C34.1286667,36.2426667 34.6666667,35.7046667 34.6666667,35.042 L34.6666667,23.71 L34.644,23.684 L34.6633333,23.684 Z M32.5633333,34.1433333 L7.36666668,34.1433333 L7.36666668,23.684 L32.564,23.684 L32.564,34.1433333 L32.5633333,34.1433333 Z M10.1746667,27.9393333 L12.9566667,27.9393333 C13.3473334,27.9393333 13.6653333,27.6213333 13.6653333,27.2306667 L13.6653333,26.568 C13.6653333,26.1773333 13.3473333,25.8593333 12.9566667,25.8593333 L10.1746667,25.8593333 C9.784,25.8593333 9.466,26.1773333 9.466,26.568 L9.466,27.2306667 C9.466,27.6213334 9.78466668,27.9393333 10.1746667,27.9393333 Z M10.1746667,32.1226667 L12.9566667,32.1226667 C13.3473334,32.1226667 13.6653333,31.8046667 13.6653333,31.414 L13.6653333,30.7513333 C13.6653333,30.3606666 13.3473333,30.0426667 12.9566667,30.0426667 L10.1746667,30.0426667 C9.784,30.0426667 9.466,30.3606667 9.466,30.7513333 L9.466,31.414 C9.466,31.8073333 9.78466668,32.1226667 10.1746667,32.1226667 Z M16.7726667,27.9393333 L16.7953333,27.9393333 C17.3693333,27.9393333 17.8353333,27.4733333 17.8353333,26.8993333 L17.8353333,26.896 C17.8353333,26.322 17.3693333,25.856 16.7953333,25.856 L16.7726667,25.856 C16.1986667,25.856 15.7326667,26.322 15.7326667,26.896 L15.7326667,26.8993333 C15.7326667,27.4733333 16.1986667,27.9393333 16.7726667,27.9393333 Z M16.7726667,32.1226667 L16.7953333,32.1226667 C17.3693333,32.1226667 17.8353333,31.6566667 17.8353333,31.0826667 L17.8353333,31.0793333 C17.8353333,30.5053333 17.3693333,30.0393333 16.7953333,30.0393333 L16.7726667,30.0393333 C16.1986667,30.0393333 15.7326667,30.5053333 15.7326667,31.0793333 L15.7326667,31.0826667 C15.7326667,31.66 16.1986667,32.1226667 16.7726667,32.1226667 Z M20.972,27.9393333 L20.9946667,27.9393333 C21.5686667,27.9393333 22.0346667,27.4733333 22.0346667,26.8993333 L22.0346667,26.896 C22.0346667,26.322 21.5686667,25.856 20.9946667,25.856 L20.972,25.856 C20.398,25.856 19.932,26.322 19.932,26.896 L19.932,26.8993333 C19.932,27.4733333 20.398,27.9393333 20.972,27.9393333 Z M20.972,32.1226667 L20.9946667,32.1226667 C21.5686667,32.1226667 22.0346667,31.6566667 22.0346667,31.0826667 L22.0346667,31.0793333 C22.0346667,30.5053333 21.5686667,30.0393333 20.9946667,30.0393333 L20.972,30.0393333 C20.398,30.0393333 19.932,30.5053333 19.932,31.0793333 L19.932,31.0826667 C19.932,31.66 20.398,32.1226667 20.972,32.1226667 Z M25.1386667,27.9393333 L25.1613333,27.9393333 C25.7353333,27.9393333 26.2013333,27.4733333 26.2013333,26.8993333 L26.2013333,26.896 C26.2013333,26.322 25.7353333,25.856 25.1613333,25.856 L25.1386667,25.856 C24.5646667,25.856 24.0986667,26.322 24.0986667,26.896 L24.0986667,26.8993333 C24.0986667,27.4733333 24.5646667,27.9393333 25.1386667,27.9393333 Z M25.1386667,32.1226667 L25.1613333,32.1226667 C25.7353333,32.1226667 26.2013333,31.6566667 26.2013333,31.0826667 L26.2013333,31.0793333 C26.2013333,30.5053333 25.7353333,30.0393333 25.1613333,30.0393333 L25.1386667,30.0393333 C24.5646667,30.0393333 24.0986667,30.5053333 24.0986667,31.0793333 L24.0986667,31.0826667 C24.0986667,31.66 24.5646667,32.1226667 25.1386667,32.1226667 Z M29.3386667,27.9393333 L29.3613333,27.9393333 C29.9353333,27.9393333 30.4013333,27.4733333 30.4013333,26.8993333 L30.4013333,26.896 C30.4013333,26.322 29.9353333,25.856 29.3613333,25.856 L29.3386667,25.856 C28.7646667,25.856 28.2986667,26.322 28.2986667,26.896 L28.2986667,26.8993333 C28.2986667,27.4733333 28.7646667,27.9393333 29.3386667,27.9393333 Z M29.3386667,32.1226667 L29.3613333,32.1226667 C29.9353333,32.1226667 30.4013333,31.6566667 30.4013333,31.0826667 L30.4013333,31.0793333 C30.4013333,30.5053333 29.9353333,30.0393333 29.3613333,30.0393333 L29.3386667,30.0393333 C28.7646667,30.0393333 28.2986667,30.5053333 28.2986667,31.0793333 L28.2986667,31.0826667 C28.2986667,31.66 28.7646667,32.1226667 29.3386667,32.1226667 Z" fill="url(#vybwkayfs__ibgyc4m3di)" transform="translate(36 38)"/>
    </g>
  </g>
</svg>
