<svg xmlns="http://www.w3.org/2000/svg" xmlns:xlink="http://www.w3.org/1999/xlink" viewBox="0 0 65 81" class="design-iconfont">
  <defs>
    <linearGradient x1="50%" y1="44.363981%" x2="50%" y2="100%" id="h8oo7a3gz__9r7xw96e4a">
      <stop stop-color="#054E78" stop-opacity="0" offset="0%"/>
      <stop stop-color="#022643" offset="100%"/>
    </linearGradient>
    <linearGradient x1="100%" y1="50%" x2="0%" y2="50%" id="h8oo7a3gz__a1udm0kxhb">
      <stop stop-color="#182AAC" offset=".89136937%"/>
      <stop stop-color="#00D2B3" offset="100%"/>
    </linearGradient>
    <linearGradient x1="100%" y1="50%" x2="0%" y2="50%" id="h8oo7a3gz__6m7rn40m4c">
      <stop stop-color="#0040A8" offset="0%"/>
      <stop stop-color="#006297" offset="49.1992329%"/>
      <stop stop-color="#00C9D8" offset="100%"/>
    </linearGradient>
    <linearGradient x1="100%" y1="50%" x2="0%" y2="50%" id="h8oo7a3gz__mg43gyoe5e">
      <stop stop-color="#008DE4" offset=".90997869%"/>
      <stop stop-color="#00E8C4" offset="99.0124256%"/>
    </linearGradient>
    <linearGradient x1="100%" y1="50%" x2="0%" y2="50%" id="h8oo7a3gz__kxx3tmoqpd">
      <stop stop-color="#00BAE8" offset="0%"/>
      <stop stop-color="#00FDFF" offset="100%"/>
    </linearGradient>
    <linearGradient x1="34.62863%" y1="3.67961605%" x2="67.0372489%" y2="95.6093386%" id="h8oo7a3gz__cnd22xb2rf">
      <stop stop-color="#0FA" offset="0%"/>
      <stop stop-color="#026EFF" offset="100%"/>
    </linearGradient>
    <linearGradient x1="50%" y1="9.35091914%" x2="50%" y2="100%" id="h8oo7a3gz__40enc258zk">
      <stop stop-color="#00F4F6" offset="0%"/>
      <stop stop-color="#00B3FD" offset="99.1953603%"/>
    </linearGradient>
    <filter x="-.9%" y="-.5%" width="101.7%" height="101%" filterUnits="objectBoundingBox" id="h8oo7a3gz__69idck2efh">
      <feOffset dx="-.5" dy="-.5" in="SourceAlpha" result="shadowOffsetInner1"/>
      <feComposite in="shadowOffsetInner1" in2="SourceAlpha" operator="arithmetic" k2="-1" k3="1" result="shadowInnerInner1"/>
      <feColorMatrix values="0 0 0 0 0 0 0 0 0 0.929451896 0 0 0 0 1 0 0 0 0.5 0" in="shadowInnerInner1"/>
    </filter>
    <filter x="-42.3%" y="-18.2%" width="184.7%" height="150.9%" filterUnits="objectBoundingBox" id="h8oo7a3gz__4kpijhcegi">
      <feOffset dy="2" in="SourceAlpha" result="shadowOffsetOuter1"/>
      <feGaussianBlur stdDeviation="2" in="shadowOffsetOuter1" result="shadowBlurOuter1"/>
      <feColorMatrix values="0 0 0 0 0 0 0 0 0 0.0868338205 0 0 0 0 1 0 0 0 0.5 0" in="shadowBlurOuter1"/>
    </filter>
    <path id="h8oo7a3gz__w58qegdgug" d="M12.0061105 0L12.0061105 33.285002 41.16263 49.948327 41.16263 15.9537445z"/>
    <path d="M19.4517644,20.8828059 L21.2473388,21.6439499 C21.5141659,21.8460365 21.7979226,22.0706246 21.8252762,22.0841531 L21.8252762,22.0841531 L22.613456,24.9190523 C22.7873473,25.1544486 23.0022691,25.2816166 23.2230525,25.2816166 L23.2230525,25.2816166 L27.9858219,27.7826879 C28.1278006,27.7826879 29.2674043,27.457408 31.404633,26.8068482 L31.404633,26.8068482 L34.1135388,27.7826879 C34.6547511,27.7826879 35.0064026,28.4503914 35.0064026,29.3784478 L35.0064026,29.3784478 L35.0064026,37.3636901 C35.0064026,38.2890408 34.1035625,38.5986825 33.5623502,38.5986825 L33.5623502,38.5986825 L19.5250587,30.3572044 C18.9838464,30.3572044 18.5442335,29.6050187 18.5442335,28.6796679 L18.5442335,28.6796679 L18.4709393,22.5603424 C18.4709393,21.6349916 18.9105521,20.8828059 19.4517644,20.8828059 L19.4517644,20.8828059 Z M20.878882,18.4709393 L33.0969518,24.2918687 L33.0969518,26.4130894 L20.878882,20.6972596 L20.878882,18.4709393 Z M20.878882,14.7767514 L33.0969518,20.5976809 L33.0969518,22.7189015 L20.878882,17.0030718 L20.878882,14.7767514 Z M20.878882,11.0825636 L33.0969518,16.903493 L33.0969518,19.0247137 L20.878882,13.3088839 L20.878882,11.0825636 Z" id="h8oo7a3gz__hoi6338rij"/>
  </defs>
  <g fill="none" fill-rule="evenodd">
    <path d="M1.36788802,60.3315857 L32.0042136,40.4553321 C32.3378862,40.2388518 32.7681297,40.2406982 33.099932,40.4600346 L63.1637756,60.3335967 C63.6244961,60.6381538 63.7510916,61.258534 63.4465345,61.7192545 C63.3622044,61.8468253 63.2497395,61.9533558 63.1177889,62.0306534 L32.9457519,79.7056482 C32.6351818,79.8875823 32.250799,79.8885757 31.9392927,79.7082491 L1.41116065,62.0359458 C0.933186159,61.7592532 0.770014997,61.1474746 1.04670766,60.6695001 C1.12564991,60.5331308 1.23570044,60.4173464 1.36788802,60.3315857 Z" stroke="url(#h8oo7a3gz__9r7xw96e4a)" stroke-width=".5" stroke-linecap="round" stroke-linejoin="round"/>
    <path d="M1.36788802,56.6373978 L32.0042136,36.7611443 C32.3378862,36.5446639 32.7681297,36.5465104 33.099932,36.7658467 L63.1637756,56.6394089 C63.6244961,56.943966 63.7510916,57.5643461 63.4465345,58.0250666 C63.3622044,58.1526375 63.2497395,58.259168 63.1177889,58.3364656 L32.9457519,76.0114603 C32.6351818,76.1933945 32.250799,76.1943878 31.9392927,76.0140613 L1.41116065,58.341758 C0.933186159,58.0650653 0.770014997,57.4532867 1.04670766,56.9753122 C1.12564991,56.8389429 1.23570044,56.7231586 1.36788802,56.6373978 Z" stroke="url(#h8oo7a3gz__a1udm0kxhb)" stroke-width=".5" stroke-linecap="round" stroke-linejoin="round"/>
    <path d="M6.46482874,56.8797303 L6.46482874,52.1992972 L6.46482874,52.1992972 L31.4505503,41.1953913 C31.7013003,41.0849591 31.986379,41.0822492 32.2391829,41.1878948 L57.8532423,51.8918976 L57.8532423,51.8918976 L57.8532423,56.8781347 C57.8532423,57.2324386 57.6657645,57.5602923 57.3604082,57.7399832 L32.5969623,72.3123538 C32.2831972,72.496993 31.8938779,72.4965245 31.580558,72.3111308 L6.9555903,57.7403558 C6.6514063,57.5603679 6.46482874,57.2331756 6.46482874,56.8797303 Z" fill="url(#h8oo7a3gz__6m7rn40m4c)"/>
    <path d="M6.95280067,51.340875 L30.99995,36.7164831 C31.3155022,36.5245785 31.7111371,36.5222216 32.0289533,36.7103531 L56.7478668,51.34273 C57.2231265,51.6240602 57.3803373,52.2373975 57.0990071,52.7126572 C57.0140457,52.8561849 56.894534,52.9761822 56.751352,53.0617248 L32.2727884,67.6861874 C31.9557706,67.8755863 31.5601756,67.8748549 31.2438603,67.684285 L6.95636099,53.0518375 C6.48329664,52.7668312 6.33084543,52.1522936 6.61585169,51.6792292 C6.69919691,51.5408896 6.81480913,51.4247953 6.95280067,51.340875 Z" stroke="url(#h8oo7a3gz__kxx3tmoqpd)" stroke-width=".5" fill="url(#h8oo7a3gz__mg43gyoe5e)" stroke-linecap="round" stroke-linejoin="round"/>
    <path fill="#0093FF" opacity=".20088341" d="M31.8623702 44.71662748A15.2385249 6.92660222 0 1 0 31.8623702 58.56983192A15.2385249 6.92660222 0 1 0 31.8623702 44.71662748Z"/>
    <path fill="#2BA1F7" opacity=".49967303" d="M32.6012078 44.716627540000005A13.2067216 6.00305526 0 1 0 32.6012078 56.72273806A13.2067216 6.00305526 0 1 0 32.6012078 44.716627540000005Z"/>
    <path fill="#0094FF" opacity=".50396147" d="M32.231789 44.716627470000006A9.14311493 4.15596133 0 1 0 32.231789 53.02855013A9.14311493 4.15596133 0 1 0 32.231789 44.716627470000006Z"/>
    <path fill="#00FFCE" opacity=".50352914" d="M31.8623702 44.71662749A5.0795083 2.30886741 0 1 0 31.8623702 49.334362309999996A5.0795083 2.30886741 0 1 0 31.8623702 44.71662749Z"/>
    <path fill="url(#h8oo7a3gz__cnd22xb2rf)" opacity=".10180373" d="M24.452078 0L24.452078 33.285002 53.6085974 49.948327 53.6085974 15.9537445z"/>
    <path fill="url(#h8oo7a3gz__cnd22xb2rf)" opacity=".20228504" d="M18.9107962 0L18.9107962 33.285002 48.0673157 49.948327 48.0673157 15.9537445z"/>
    <g opacity=".80137852">
      <use fill="url(#h8oo7a3gz__cnd22xb2rf)" xlink:href="#h8oo7a3gz__w58qegdgug"/>
      <use fill="#000" filter="url(#h8oo7a3gz__69idck2efh)" xlink:href="#h8oo7a3gz__w58qegdgug"/>
    </g>
    <g fill-rule="nonzero">
      <use fill="#000" filter="url(#h8oo7a3gz__4kpijhcegi)" xlink:href="#h8oo7a3gz__hoi6338rij"/>
      <use fill="url(#h8oo7a3gz__40enc258zk)" xlink:href="#h8oo7a3gz__hoi6338rij"/>
    </g>
  </g>
</svg>
