<svg xmlns="http://www.w3.org/2000/svg" xmlns:xlink="http://www.w3.org/1999/xlink" viewBox="0 0 65 81" class="design-iconfont">
  <defs>
    <linearGradient x1="50%" y1="44.363981%" x2="50%" y2="100%" id="d2v9t10nw__it8w4k91ga">
      <stop stop-color="#054E78" stop-opacity="0" offset="0%"/>
      <stop stop-color="#022643" offset="100%"/>
    </linearGradient>
    <linearGradient x1="100%" y1="50%" x2="0%" y2="50%" id="d2v9t10nw__ym8ywx3vjb">
      <stop stop-color="#182AAC" offset=".89136937%"/>
      <stop stop-color="#00D2B3" offset="100%"/>
    </linearGradient>
    <linearGradient x1="100%" y1="50%" x2="0%" y2="50%" id="d2v9t10nw__1yq9op6mac">
      <stop stop-color="#0040A8" offset="0%"/>
      <stop stop-color="#006297" offset="49.1992329%"/>
      <stop stop-color="#00C9D8" offset="100%"/>
    </linearGradient>
    <linearGradient x1="100%" y1="50%" x2="0%" y2="50%" id="d2v9t10nw__p2usgxoe6e">
      <stop stop-color="#008DE4" offset=".90997869%"/>
      <stop stop-color="#00E8C4" offset="99.0124256%"/>
    </linearGradient>
    <linearGradient x1="100%" y1="50%" x2="0%" y2="50%" id="d2v9t10nw__1k2o5iqlbd">
      <stop stop-color="#00BAE8" offset="0%"/>
      <stop stop-color="#00FDFF" offset="100%"/>
    </linearGradient>
    <linearGradient x1="33.0579668%" y1="3.67961605%" x2="68.7781335%" y2="95.6093386%" id="d2v9t10nw__ddpnwvs24f">
      <stop stop-color="#0FA" offset="0%"/>
      <stop stop-color="#026EFF" offset="100%"/>
    </linearGradient>
    <linearGradient x1="50%" y1="9.35091914%" x2="50%" y2="99.2706015%" id="d2v9t10nw__9sunyk2vak">
      <stop stop-color="#00FFFE" offset="0%"/>
      <stop stop-color="#00C6FF" offset="100%"/>
    </linearGradient>
    <filter x="-.9%" y="-.5%" width="101.7%" height="101.1%" filterUnits="objectBoundingBox" id="d2v9t10nw__mpdzoehnqh">
      <feOffset dx="-.5" dy="-.5" in="SourceAlpha" result="shadowOffsetInner1"/>
      <feComposite in="shadowOffsetInner1" in2="SourceAlpha" operator="arithmetic" k2="-1" k3="1" result="shadowInnerInner1"/>
      <feColorMatrix values="0 0 0 0 0 0 0 0 0 0.929451896 0 0 0 0 1 0 0 0 0.5 0" in="shadowInnerInner1"/>
    </filter>
    <filter x="-19%" y="-9.8%" width="138.1%" height="127.4%" filterUnits="objectBoundingBox" id="d2v9t10nw__08kve13jsi">
      <feOffset dy="1" in="SourceAlpha" result="shadowOffsetOuter1"/>
      <feGaussianBlur stdDeviation="1" in="shadowOffsetOuter1" result="shadowBlurOuter1"/>
      <feColorMatrix values="0 0 0 0 0 0 0 0 0 0.0868338205 0 0 0 0 1 0 0 0 0.5 0" in="shadowBlurOuter1"/>
    </filter>
    <path id="d2v9t10nw__m3yydpwn1g" d="M12.8792739 0.919948134L12.8792739 33.1778873 41.760488 48.0474302 41.760488 15.9728133z"/>
    <path d="M24.524848,11.9595447 L31.3709094,15.2940741 C31.7530626,15.4974441 32.0125884,15.818733 32.0159956,16.104708 L31.9870558,17.7626648 L33.4160101,18.5950326 C33.733611,18.7835685 33.9251513,19.0048819 33.9251513,19.2908569 L33.904603,20.4680732 L35.92282,21.4281187 C36.7871935,21.7263896 36.7799838,22.1394354 36.7901736,22.4220059 L36.5336924,37.1176242 C36.5370996,37.4001948 36.1758913,37.6628611 35.6425855,37.4827459 L19.1199725,28.9068432 C18.7727918,28.7091648 18.3989627,28.2723999 18.3989627,27.9864249 L18.8181317,14.1805429 C18.8283533,13.9013768 19.0566362,13.6766822 19.3360273,13.6732777 L21.850917,14.7982755 L21.8697819,13.7175046 C21.8697819,13.4315296 22.1014721,13.200026 22.3876776,13.200026 L23.8021147,13.7512336 L23.8242962,12.4349837 C23.8242962,12.1490087 24.0692837,11.9518248 24.524848,11.9595447 Z M31.0763304,22.8203344 C30.6969893,22.8203344 30.3863693,23.1998298 30.3863693,23.6632843 L30.3863693,23.6632843 L30.3863693,30.4102423 L30.3927006,30.5241858 C30.4386166,30.9343107 30.728601,31.2531922 31.0763304,31.2531922 C31.4556716,31.2531922 31.7662915,30.8736969 31.7662915,30.4102423 L31.7662915,30.4102423 L31.7662915,23.6632843 L31.7599603,23.5493408 C31.7140443,23.1392159 31.4240598,22.8203344 31.0763304,22.8203344 Z M27.120118,20.959912 C26.7407768,20.959912 26.4301569,21.3394074 26.4301569,21.8028619 L26.4301569,21.8028619 L26.4301569,28.5498199 L26.4364881,28.6637634 C26.4824041,29.0738883 26.7723886,29.3927699 27.120118,29.3927699 C27.4994591,29.3927699 27.8100791,29.0132745 27.8100791,28.5498199 L27.8100791,28.5498199 L27.8100791,21.8028619 L27.8037478,21.6889185 C27.7578319,21.2787935 27.4678474,20.959912 27.120118,20.959912 Z M23.5839072,18.7484874 C23.204566,18.7484874 22.8939435,19.1279828 22.8939435,19.5914373 L22.8939435,19.5914373 L22.8939435,26.3383953 L22.9002748,26.4523388 C22.9461911,26.8624637 23.2361778,27.1813453 23.5839072,27.1813453 C23.9632483,27.1813453 24.2738657,26.8018499 24.2738657,26.3383953 L24.2738657,26.3383953 L24.2738657,19.5914373 L24.2675345,19.4774939 C24.2216189,19.0673689 23.9316366,18.7484874 23.5839072,18.7484874 Z" id="d2v9t10nw__nzne89lprj"/>
  </defs>
  <g fill="none" fill-rule="evenodd">
    <path d="M1.36788802,60.4047703 L31.8773604,40.6108167 C32.211033,40.3943363 32.6412765,40.3961828 32.9730788,40.6155191 L62.9124228,60.4067814 C63.3731433,60.7113385 63.4997388,61.3317186 63.1951816,61.7924391 C63.1108515,61.9200099 62.9983867,62.0265405 62.8664361,62.1038381 L32.8193286,79.7056482 C32.5087586,79.8875823 32.1243757,79.8885757 31.8128695,79.7082491 L1.41116065,62.1091305 C0.933186159,61.8324378 0.770014997,61.2206592 1.04670766,60.7426847 C1.12564991,60.6063154 1.23570044,60.4905311 1.36788802,60.4047703 Z" stroke="url(#d2v9t10nw__it8w4k91ga)" stroke-width=".5" stroke-linecap="round" stroke-linejoin="round"/>
    <path d="M1.36788802,56.7249778 L31.8773604,36.9310241 C32.211033,36.7145438 32.6412765,36.7163902 32.9730788,36.9357266 L62.9124228,56.7269888 C63.3731433,57.031546 63.4997388,57.6519261 63.1951816,58.1126466 C63.1108515,58.2402174 62.9983867,58.3467479 62.8664361,58.4240455 L32.8193286,76.0258556 C32.5087586,76.2077898 32.1243757,76.2087831 31.8128695,76.0284566 L1.41116065,58.4293379 C0.933186159,58.1526453 0.770014997,57.5408667 1.04670766,57.0628922 C1.12564991,56.9265229 1.23570044,56.8107385 1.36788802,56.7249778 Z" stroke="url(#d2v9t10nw__ym8ywx3vjb)" stroke-width=".5" stroke-linecap="round" stroke-linejoin="round"/>
    <path d="M6.79313434,56.9676021 L6.79313434,52.3076295 L6.79313434,52.3076295 L31.6799626,41.347277 C31.9307125,41.2368448 32.2157913,41.2341349 32.4685952,41.3397805 L57.9813003,52.0014278 L57.9813003,52.0014278 L57.9813003,56.9660065 C57.9813003,57.3203104 57.7938225,57.6481641 57.4884662,57.827855 L32.8254194,72.3411444 C32.5116543,72.5257836 32.1223349,72.5253151 31.809015,72.3399215 L7.28389589,57.8282276 C6.9797119,57.6482397 6.79313434,57.3210474 6.79313434,56.9676021 Z" fill="url(#d2v9t10nw__1yq9op6mac)"/>
    <path d="M7.61406234,51.4492073 L31.5600079,36.886363 C31.8755602,36.6944583 32.271195,36.6921014 32.5890112,36.8802329 L57.2039507,51.4510623 C57.6792103,51.7323925 57.8364212,52.3457298 57.5550909,52.8209895 C57.4701296,52.9645172 57.3506178,53.0845145 57.2074358,53.1700571 L32.8318911,67.7329721 C32.5148733,67.9223711 32.1192783,67.9216397 31.802963,67.7310698 L7.61762266,53.1601698 C7.14455831,52.8751635 6.99210711,52.2606259 7.27711336,51.7875615 C7.36045858,51.6492219 7.47607081,51.5331276 7.61406234,51.4492073 Z" stroke="url(#d2v9t10nw__1k2o5iqlbd)" stroke-width=".5" fill="url(#d2v9t10nw__p2usgxoe6e)" stroke-linecap="round" stroke-linejoin="round"/>
    <path fill="#0093FF" opacity=".20088341" d="M32.3325634 44.9441232A15.1791442 6.899611 0 1 0 32.3325634 58.7433452A15.1791442 6.899611 0 1 0 32.3325634 44.9441232Z"/>
    <path fill="#2BA1F7" opacity=".49967303" d="M32.3325634 44.94412323A13.1552583 5.97966287 0 1 0 32.3325634 56.90344897A13.1552583 5.97966287 0 1 0 32.3325634 44.94412323Z"/>
    <path fill="#0094FF" opacity=".50396147" d="M32.3325634 44.9441232A9.10748652 4.1397666 0 1 0 32.3325634 53.2236564A9.10748652 4.1397666 0 1 0 32.3325634 44.9441232Z"/>
    <path fill="#00FFCE" opacity=".50352914" d="M32.3325634 44.944123270000006A5.05971473 2.29987033 0 1 0 32.3325634 49.54386393A5.05971473 2.29987033 0 1 0 32.3325634 44.944123270000006Z"/>
    <path fill="url(#d2v9t10nw__ddpnwvs24f)" opacity=".09521121" d="M23.5982134 0L23.5982134 32.2579391 52.4794275 47.1274821 52.4794275 15.0528652z"/>
    <path fill="url(#d2v9t10nw__ddpnwvs24f)" opacity=".20228504" d="M18.0785246 0.919948134L18.0785246 33.1778873 46.9597387 48.0474302 46.9597387 15.9728133z"/>
    <g opacity=".80137852">
      <use fill="url(#d2v9t10nw__ddpnwvs24f)" xlink:href="#d2v9t10nw__m3yydpwn1g"/>
      <use fill="#000" filter="url(#d2v9t10nw__mpdzoehnqh)" xlink:href="#d2v9t10nw__m3yydpwn1g"/>
    </g>
    <g fill-rule="nonzero" transform="rotate(-1 27.594568 24.750615)">
      <use fill="#000" filter="url(#d2v9t10nw__08kve13jsi)" xlink:href="#d2v9t10nw__nzne89lprj"/>
      <use fill="url(#d2v9t10nw__9sunyk2vak)" xlink:href="#d2v9t10nw__nzne89lprj"/>
    </g>
  </g>
</svg>
