<svg xmlns:xlink="http://www.w3.org/1999/xlink" xmlns="http://www.w3.org/2000/svg" viewBox="0 0 37 40"
     class="design-iconfont">
  <defs>
    <linearGradient x1="50%" y1="0%" x2="50%" y2="99.6929462%" id="7ho8obbul__zmojp9mq2a">
      <stop stop-color="#2DDDFF" offset=".20897072%"/>
      <stop stop-color="#0277A9" stop-opacity="0" offset="99.3346741%"/>
    </linearGradient>
    <filter x="-86.2%" y="-90.9%" width="272.4%" height="281.7%" filterUnits="objectBoundingBox"
            id="7ho8obbul__pt0jo1502b">
      <feOffset in="SourceAlpha" result="shadowOffsetOuter1"/>
      <feGaussianBlur stdDeviation="4" in="shadowOffsetOuter1" result="shadowBlurOuter1"/>
      <feColorMatrix values="0 0 0 0 0 0 0 0 0 0.997864196 0 0 0 0 1 0 0 0 0.574319479 0" in="shadowBlurOuter1"/>
    </filter>
    <path
      d="M1,4.424 C1,3.376 1.288,2.544 1.856,1.928 C2.424,1.312 3.192,1 4.16,1 C5.088,1 5.808,1.288 6.328,1.856 C6.848,2.424 7.104,3.216 7.104,4.232 C7.104,5.24 6.816,6.064 6.248,6.688 C5.672,7.32 4.912,7.632 3.968,7.632 C3.072,7.632 2.352,7.336 1.808,6.752 C1.272,6.16 1,5.384 1,4.424 Z M2.296,4.336 C2.296,5.048 2.456,5.6 2.768,5.984 C3.08,6.368 3.512,6.56 4.056,6.56 C4.616,6.56 5.048,6.36 5.36,5.96 C5.664,5.56 5.816,4.992 5.816,4.264 C5.816,3.552 5.664,3 5.368,2.616 C5.064,2.224 4.648,2.032 4.096,2.032 C3.536,2.032 3.104,2.232 2.776,2.64 C2.456,3.056 2.296,3.616 2.296,4.336 L2.296,4.336 Z M12.8,1.184 L4.416,14.088 L3.008,14.088 L11.392,1.184 L12.8,1.184 Z M8.816,11 C8.816,9.952 9.104,9.112 9.672,8.488 C10.24,7.864 11.008,7.552 11.968,7.552 C12.888,7.552 13.608,7.84 14.136,8.408 C14.656,8.976 14.92,9.784 14.92,10.824 C14.92,11.832 14.632,12.64 14.056,13.272 C13.48,13.896 12.72,14.208 11.792,14.208 C10.888,14.208 10.168,13.912 9.632,13.32 C9.088,12.72 8.816,11.952 8.816,11 L8.816,11 Z M10.112,10.928 C10.112,11.624 10.272,12.168 10.584,12.552 C10.896,12.944 11.328,13.136 11.872,13.136 C12.432,13.136 12.864,12.936 13.176,12.528 C13.48,12.128 13.632,11.56 13.632,10.84 C13.632,10.12 13.48,9.576 13.176,9.192 C12.872,8.808 12.448,8.624 11.92,8.624 C11.344,8.624 10.904,8.824 10.592,9.232 C10.264,9.64 10.112,10.208 10.112,10.928 Z"
      id="7ho8obbul__gsi0nw8wgc"/>
  </defs>
  <g fill="none" fill-rule="evenodd">
    <path
      d="M20,0 C26.175318,0 31.6969525,2.79875221 35.3656596,7.19701286 L33.6045141,9.12004567 C30.4122952,5.13361576 25.5042867,2.58064516 20,2.58064516 C10.379556,2.58064516 2.58064516,10.379556 2.58064516,20 C2.58064516,29.620444 10.379556,37.4193548 20,37.4193548 C20.5088128,37.4193548 21.0125303,37.3975396 21.5102684,37.3547935 L21.7850388,39.9214263 C21.1969687,39.9734392 20.6015861,40 20,40 C8.954305,40 0,31.045695 0,20 C0,8.954305 8.954305,0 20,0 Z"
      fill="url(#7ho8obbul__zmojp9mq2a)"/>
    <path fill="#ADFFFF" d="M36 9A1 1 0 1 0 36 11A1 1 0 1 0 36 9Z"/>
    <g transform="translate(12 12)">
      <use fill="#000" filter="url(#7ho8obbul__pt0jo1502b)" xlink:href="#7ho8obbul__gsi0nw8wgc"/>
      <use fill="#01FFFF" xlink:href="#7ho8obbul__gsi0nw8wgc"/>
    </g>
  </g>
</svg>
