<svg xmlns="http://www.w3.org/2000/svg" viewBox="0 0 112 129" class="design-iconfont">
  <defs>
    <linearGradient x1="50%" y1="2.11176287%" x2="50%" y2="100%" id="jr2sro4sh__yzihiifofa">
      <stop stop-color="#1800DD" offset="0%"/>
      <stop stop-color="#0025FF" stop-opacity="0" offset="100%"/>
    </linearGradient>
    <linearGradient x1="98.768541%" y1="50%" x2=".69639833%" y2="50%" id="jr2sro4sh__xk9qa785cb">
      <stop stop-color="#6000FF" offset="0%"/>
      <stop stop-color="#40F" offset="100%"/>
    </linearGradient>
    <linearGradient x1="100%" y1="50%" x2=".23261651%" y2="50%" id="jr2sro4sh__1161qqwrsc">
      <stop stop-color="#2A16B8" offset="0%"/>
      <stop stop-color="#AE52FF" offset="63.6578879%"/>
      <stop stop-color="#3712E7" offset="100%"/>
    </linearGradient>
    <linearGradient x1="100%" y1="50%" x2="0%" y2="50%" id="jr2sro4sh__h3si16r9pd">
      <stop stop-color="#4400D2" offset="0%"/>
      <stop stop-color="#3300CF" offset="100%"/>
    </linearGradient>
    <linearGradient x1="100%" y1="50%" x2="0%" y2="50%" id="jr2sro4sh__fy8r76xose">
      <stop stop-color="#0F00C1" offset="0%"/>
      <stop stop-color="#06008E" offset="99.03223%"/>
    </linearGradient>
    <linearGradient x1="100%" y1="50%" x2=".23261651%" y2="50%" id="jr2sro4sh__82hs9fs90f">
      <stop stop-color="#2A16B8" offset="0%"/>
      <stop stop-color="#AE52FF" offset="63.6578879%"/>
      <stop stop-color="#3712E7" offset="100%"/>
    </linearGradient>
    <linearGradient x1="100%" y1="50%" x2="0%" y2="50%" id="jr2sro4sh__mocb93caxg">
      <stop stop-color="#5400FF" offset="0%"/>
      <stop stop-color="#3F6DFF" offset="100%"/>
    </linearGradient>
    <linearGradient x1="50%" y1=".22851904%" x2="50%" y2="100%" id="jr2sro4sh__0zdm1ccpqh">
      <stop stop-color="#00088A" offset="0%"/>
      <stop stop-color="#8100FF" offset="100%"/>
    </linearGradient>
    <linearGradient x1="50%" y1="0%" x2="50%" y2="100%" id="jr2sro4sh__caj48xvlei">
      <stop stop-color="#D8F" offset="0%"/>
      <stop stop-color="#5524FF" offset="100%"/>
    </linearGradient>
  </defs>
  <g fill="none" fill-rule="evenodd">
    <path fill="url(#jr2sro4sh__yzihiifofa)" fill-rule="nonzero" d="M13.2427565 12.8483826H96.328964V100.2173842H13.2427565z" transform="translate(1)"/>
    <path d="M41.5431037 0A41.5431037 13.7049414 0 1 0 41.5431037 27.4098828A41.5431037 13.7049414 0 1 0 41.5431037 0Z" transform="translate(14.242757)" fill="#423AB4"/>
    <path stroke="#7A32FF" fill="#030091" fill-rule="nonzero" opacity=".50223287" d="M55 82.2635544A55 22.8790436 0 1 0 55 128.0216416A55 22.8790436 0 1 0 55 82.2635544Z" transform="translate(1)"/>
    <path stroke="#6A58FF" fill="url(#jr2sro4sh__xk9qa785cb)" fill-rule="nonzero" opacity=".40411086" d="M55 74.12624509999999A55 22.8790436 0 1 0 55 119.8843323A55 22.8790436 0 1 0 55 74.12624509999999Z" transform="translate(1)"/>
    <path d="M55.2141397,112.209208 C78.3942946,112.209208 97.1855232,105.881549 97.1855232,98.0759871 C97.1855232,97.6693485 97.1855232,96.3845097 97.1855232,94.2214724 C83.4504428,87.3690016 69.4599818,83.9427663 55.2141397,83.9427663 C41.5384991,83.9427663 27.5480381,87.3690016 13.2427565,94.2214724 C13.2427565,96.1925033 13.2427565,97.4773412 13.2427565,98.0759871 C13.2427565,105.881549 32.0339849,112.209208 55.2141397,112.209208 Z" fill="url(#jr2sro4sh__1161qqwrsc)" fill-rule="nonzero" transform="translate(1)"/>
    <path d="M41.9713831 0A41.9713831 14.1332209 0 1 0 41.9713831 28.2664418A41.9713831 14.1332209 0 1 0 41.9713831 0Z" transform="translate(14.242757 80.088252)" fill="url(#jr2sro4sh__h3si16r9pd)"/>
    <path fill="url(#jr2sro4sh__fy8r76xose)" fill-rule="nonzero" d="M55.2141397 82.2296482A34.3402225 11.5635443 0 1 0 55.2141397 105.35673680000001A34.3402225 11.5635443 0 1 0 55.2141397 82.2296482Z" transform="translate(1)"/>
    <path d="M23.4435937,92.9366345 L23.4435937,98.0759871 C29.0143119,102.787061 39.4357779,105.213978 54.7079913,105.356737 C69.9802047,105.499497 80.4016706,103.354635 85.9723889,98.9221496 L85.9723889,92.4875628 L23.4435937,92.9366345 Z" fill="url(#jr2sro4sh__82hs9fs90f)" fill-rule="nonzero" transform="translate(1)"/>
    <g>
      <path d="M31.2643976 0A31.2643976 8.99386782 0 1 0 31.2643976 17.98773564A31.2643976 8.99386782 0 1 0 31.2643976 0Z" fill="url(#jr2sro4sh__mocb93caxg)" transform="translate(24.443594 83.942767)"/>
    </g>
    <g transform="translate(35.656728 6.852471)" fill="url(#jr2sro4sh__0zdm1ccpqh)" opacity=".49951172">
      <path d="M19.914993 0A19.914993 5.99591188 0 1 0 19.914993 11.99182376A19.914993 5.99591188 0 1 0 19.914993 0Z"/>
    </g>
    <g fill-rule="nonzero">
      <path d="M32.5,4.16666668 L7.5,4.16666668 C5.66666668,4.16666668 4.16666668,5.66666668 4.16666668,7.5 L4.16666668,32.5 C4.16666668,34.3333333 5.66666668,35.8333333 7.5,35.8333333 L32.5,35.8333333 C34.3333333,35.8333333 35.8333333,34.3333333 35.8333333,32.5 L35.8333333,7.5 C35.8333333,5.66666668 34.3333333,4.16666668 32.5,4.16666668 Z M10.8333333,30.4166667 C10.8333333,31.0833334 10.25,31.6666667 9.58333332,31.6666667 C8.91666664,31.6666667 8.33333332,31.0833334 8.33333332,30.4166667 L8.33333332,26.25 C8.33333332,25.5833333 8.91666664,25 9.58333332,25 C10.25,25 10.8333333,25.5833333 10.8333333,26.25 L10.8333333,30.4166667 Z M15.8333333,30.4166667 C15.8333333,31.0833334 15.25,31.6666667 14.5833333,31.6666667 C13.9166666,31.6666667 13.3333333,31.0833334 13.3333333,30.4166667 L13.3333333,26.25 C13.3333333,25.5833333 13.9166666,25 14.5833333,25 C15.25,25 15.8333333,25.5833333 15.8333333,26.25 L15.8333333,30.4166667 Z M20.8333333,30.4166667 C20.8333333,31.0833334 20.25,31.6666667 19.5833333,31.6666667 C18.9166666,31.6666667 18.3333333,31.0833334 18.3333333,30.4166667 L18.3333333,26.25 C18.3333333,25.5833333 18.9166666,25 19.5833333,25 C20.25,25 20.8333333,25.5833333 20.8333333,26.25 L20.8333333,30.4166667 Z M25.8333333,30.4166667 C25.8333333,31.0833334 25.25,31.6666667 24.5833333,31.6666667 C23.9166666,31.6666667 23.3333333,31.0833334 23.3333333,30.4166667 L23.3333333,26.25 C23.3333333,25.5833333 23.9166666,25 24.5833333,25 C25.25,25 25.8333333,25.5833333 25.8333333,26.25 L25.8333333,30.4166667 Z M30.8333333,30.4166667 C30.8333333,31.0833334 30.25,31.6666667 29.5833333,31.6666667 C28.9166666,31.6666667 28.3333333,31.0833334 28.3333333,30.4166667 L28.3333333,26.25 C28.3333333,25.5833333 28.9166666,25 29.5833333,25 C30.25,25 30.8333333,25.5833333 30.8333333,26.25 L30.8333333,30.4166667 Z M31.6666667,16.6666667 C31.6666667,17.5833334 30.9166667,18.3333333 30,18.3333333 L26.6666667,18.3333333 C25.75,18.3333333 25,17.5833333 25,16.6666667 L25,15 C25,14.0833333 24.25,13.3333333 23.3333333,13.3333333 L16.6666667,13.3333333 C15.75,13.3333333 15,14.0833333 15,15 L15,16.6666667 C15,17.5833334 14.25,18.3333333 13.3333333,18.3333333 L10,18.3333333 C9.08333332,18.3333333 8.33333332,17.5833333 8.33333332,16.6666667 L8.33333332,10 C8.33333332,9.08333332 9.08333332,8.33333332 10,8.33333332 L30,8.33333332 C30.9166667,8.33333332 31.6666667,9.08333332 31.6666667,10 L31.6666667,16.6666667 L31.6666667,16.6666667 Z" fill="url(#jr2sro4sh__caj48xvlei)" transform="translate(35.507722 41)"/>
    </g>
  </g>
</svg>
