<svg xmlns="http://www.w3.org/2000/svg" viewBox="0 0 14 14" class="design-iconfont">
  <g fill="none" fill-rule="evenodd" opacity=".80000001">
    <path
      d="M12.5050651,0.25 C12.8766854,0.25 13.0149105,0.279470533 13.1521229,0.351853662 C13.5019338,0.758521608 13.5336815,0.896241427 13.5398144,1.26781117 L13.5398144,1.26781117 L13.7332561,12.9876225 C13.7366741,13.1947011 13.6558333,13.383561 13.5223683,13.5215057 C13.3889034,13.6594504 13.2028143,13.7464799 12.9998586,13.7498638 L12.9998586,13.7498638 L1.2819426,13.75 C0.906982536,13.75 0.767499342,13.7197956 0.629476863,13.6459803 C0.280204422,13.2325007 0.25,13.0930175 0.25,12.7180574 L0.25,12.7180574 L0.25,1.2819426 C0.25,0.906982536 0.280204422,0.767499342 0.354019651,0.629476863 C0.767499342,0.280204422 0.906982536,0.25 1.2819426,0.25 L1.2819426,0.25 Z"
      stroke="#00BEFF" stroke-width=".5" fill-opacity=".57261391" fill="#005087"/>
    <text font-family="PangMenZhengDao" font-size="5" fill="#00EAFF">
      <tspan x="2" y="9">POP</tspan>
    </text>
  </g>
</svg>
