<svg xmlns:xlink="http://www.w3.org/1999/xlink" xmlns="http://www.w3.org/2000/svg" viewBox="0 0 33 41"
     class="design-iconfont">
  <defs>
    <linearGradient x1="50%" y1="44.363981%" x2="50%" y2="100%" id="8la28t4vga">
      <stop stop-color="#054E78" stop-opacity="0" offset="0%"/>
      <stop stop-color="#022643" offset="100%"/>
    </linearGradient>
    <linearGradient x1="100%" y1="50%" x2="0%" y2="50%" id="0fwqhwwxpb">
      <stop stop-color="#182AAC" offset=".89136937%"/>
      <stop stop-color="#00D2B3" offset="100%"/>
    </linearGradient>
    <linearGradient x1="100%" y1="50%" x2="0%" y2="50%" id="v9ofm0yroc">
      <stop stop-color="#0040A8" offset="0%"/>
      <stop stop-color="#006297" offset="49.1992329%"/>
      <stop stop-color="#00C9D8" offset="100%"/>
    </linearGradient>
    <linearGradient x1="100%" y1="50%" x2="0%" y2="50%" id="0jgxuryfye">
      <stop stop-color="#008DE4" offset=".90997869%"/>
      <stop stop-color="#00E8C4" offset="99.0124256%"/>
    </linearGradient>
    <linearGradient x1="100%" y1="50%" x2="0%" y2="50%" id="57sv3xlred">
      <stop stop-color="#00BAE8" offset="0%"/>
      <stop stop-color="#00FDFF" offset="100%"/>
    </linearGradient>
    <linearGradient x1="34.62863%" y1="3.67961605%" x2="67.0372489%" y2="95.6093386%" id="pjw9cq30kf">
      <stop stop-color="#0FA" offset="0%"/>
      <stop stop-color="#026EFF" offset="100%"/>
    </linearGradient>
    <linearGradient x1="50%" y1="9.35091914%" x2="50%" y2="99.2706015%" id="ihrz5ofqvk">
      <stop stop-color="#00FFFE" offset="0%"/>
      <stop stop-color="#00C6FF" offset="100%"/>
    </linearGradient>
    <filter x="-1.7%" y="-1%" width="103.4%" height="102%" filterUnits="objectBoundingBox" id="0o9c9rvd0h">
      <feOffset dx="-.5" dy="-.5" in="SourceAlpha" result="shadowOffsetInner1"/>
      <feComposite in="shadowOffsetInner1" in2="SourceAlpha" operator="arithmetic" k2="-1" k3="1"
                   result="shadowInnerInner1"/>
      <feColorMatrix values="0 0 0 0 0 0 0 0 0 0.929451896 0 0 0 0 1 0 0 0 0.5 0" in="shadowInnerInner1"/>
    </filter>
    <filter x="-36.7%" y="-16%" width="173.4%" height="144.7%" filterUnits="objectBoundingBox" id="322p8hajli">
      <feOffset dy="1" in="SourceAlpha" result="shadowOffsetOuter1"/>
      <feGaussianBlur stdDeviation="1" in="shadowOffsetOuter1" result="shadowBlurOuter1"/>
      <feColorMatrix values="0 0 0 0 0 0 0 0 0 0.0868338205 0 0 0 0 1 0 0 0 0.5 0" in="shadowBlurOuter1"/>
    </filter>
    <path id="qjhjvdry6g" d="M6.00305526 0L6.00305526 16.642501 20.581315 24.9741635 20.581315 7.97687223z"/>
    <path
      d="M8.31192266,4.24928428 L17.8448749,9.63739179 L17.8448749,19.9006965 L8.31192266,14.4129229 L8.31192266,4.24928428 Z M9.81111903,12.5320889 L9.82922812,13.183543 L16.3507821,16.5599802 L16.3323899,15.8983434 L9.81111903,12.5320889 Z M9.74148819,10.0271976 L9.75959728,10.6786518 L16.2811512,14.0550889 L16.2627591,13.3934521 L9.74148819,10.0271976 Z M9.67185735,7.52230637 L9.68996644,8.17376051 L16.2115204,11.5501976 L16.1931282,10.8885608 L9.67185735,7.52230637 Z"
      id="ahekj9g2rj"/>
  </defs>
  <g fill="none" fill-rule="evenodd">
    <path
      d="M1.36788802,29.7220632 L15.7274073,20.4058858 C16.0610799,20.1894054 16.4913234,20.1912519 16.8231257,20.4105882 L30.9121544,29.7240743 C31.372875,30.0286314 31.4994704,30.6490115 31.1949133,31.109732 C31.1105832,31.2373029 30.9981183,31.3438334 30.8661677,31.421131 L16.7241121,39.7056482 C16.413542,39.8875823 16.0291592,39.8885757 15.7176529,39.7082491 L1.41116065,31.4264234 C0.933186159,31.1497307 0.770014997,30.5379521 1.04670766,30.0599776 C1.12564991,29.9236083 1.23570044,29.807824 1.36788802,29.7220632 Z"
      stroke="url(#8la28t4vga)" stroke-width=".5" stroke-linecap="round" stroke-linejoin="round"
      transform="translate(0 .5)"/>
    <path
      d="M1.36788802,27.8749693 L15.7274073,18.5587919 C16.0610799,18.3423115 16.4913234,18.344158 16.8231257,18.5634943 L30.9121544,27.8769803 C31.372875,28.1815375 31.4994704,28.8019176 31.1949133,29.2626381 C31.1105832,29.3902089 30.9981183,29.4967395 30.8661677,29.5740371 L16.7241121,37.8585542 C16.413542,38.0404884 16.0291592,38.0414817 15.7176529,37.8611552 L1.41116065,29.5793294 C0.933186159,29.3026368 0.770014997,28.6908582 1.04670766,28.2128837 C1.12564991,28.0765144 1.23570044,27.9607301 1.36788802,27.8749693 Z"
      stroke="url(#0fwqhwwxpb)" stroke-width=".5" stroke-linecap="round" stroke-linejoin="round"
      transform="translate(0 .5)"/>
    <path
      d="M3.23241437,28.154746 L3.23241437,26.0996486 L3.23241437,26.0996486 L15.5289212,20.6841714 C15.7796711,20.5737392 16.0647499,20.5710294 16.3175538,20.676675 L28.9266212,25.9459488 L28.9266212,25.9459488 L28.9266212,28.1531504 C28.9266212,28.5074544 28.7391434,28.835308 28.4337871,29.0149989 L16.5527627,36.0065417 C16.2389976,36.1911808 15.8496782,36.1907124 15.5363583,36.0053187 L3.72317593,29.0153715 C3.41899193,28.8353836 3.23241437,28.5081913 3.23241437,28.154746 Z"
      fill="url(#v9ofm0yroc)" transform="translate(0 .5)"/>
    <path
      d="M4.18215978,25.2412264 L15.2436437,18.5141307 C15.5591959,18.322226 15.9548308,18.3198691 16.272647,18.5080006 L27.6504211,25.2430814 C28.1256807,25.5244116 28.2828916,26.1377489 28.0015613,26.6130086 C27.9166,26.7565363 27.7970882,26.8765336 27.6539062,26.9620762 L16.3939116,33.6892426 C16.0768937,33.8786416 15.6812987,33.8779102 15.3649834,33.6873403 L4.1857201,26.9521889 C3.71265575,26.6671826 3.56020455,26.052645 3.8452108,25.5795806 C3.92855602,25.441241 4.04416825,25.3251467 4.18215978,25.2412264 Z"
      stroke="url(#57sv3xlred)" stroke-width=".5" fill="url(#0jgxuryfye)" stroke-linecap="round" stroke-linejoin="round"
      transform="translate(0 .5)"/>
    <path fill="#0093FF" opacity=".20088341"
          d="M15.9311851 22.35831379A7.61926244 3.46330111 0 1 0 15.9311851 29.28491601A7.61926244 3.46330111 0 1 0 15.9311851 22.35831379Z"
          transform="translate(0 .5)"/>
    <path fill="#2BA1F7" opacity=".49967303"
          d="M16.3006039 22.358313770000002A6.60336078 3.00152763 0 1 0 16.3006039 28.36136903A6.60336078 3.00152763 0 1 0 16.3006039 22.358313770000002Z"
          transform="translate(0 .5)"/>
    <path fill="#0094FF" opacity=".50396147"
          d="M16.1158945 22.358313730000003A4.57155747 2.07798067 0 1 0 16.1158945 26.51427507A4.57155747 2.07798067 0 1 0 16.1158945 22.358313730000003Z"
          transform="translate(0 .5)"/>
    <path fill="#00FFCE" opacity=".50352914"
          d="M15.9311851 22.3583138A2.53975415 1.1544337 0 1 0 15.9311851 24.667181199999998A2.53975415 1.1544337 0 1 0 15.9311851 22.3583138Z"
          transform="translate(0 .5)"/>
    <path fill="url(#pjw9cq30kf)" opacity=".10180373"
          d="M12.226039 0L12.226039 16.642501 26.8042987 24.9741635 26.8042987 7.97687223z"
          transform="translate(0 .5)"/>
    <path fill="url(#pjw9cq30kf)" opacity=".20228504"
          d="M9.45539811 0L9.45539811 16.642501 24.0336578 24.9741635 24.0336578 7.97687223z"
          transform="translate(0 .5)"/>
    <g opacity=".80137852" transform="translate(0 .5)">
      <use fill="url(#pjw9cq30kf)" xlink:href="#qjhjvdry6g"/>
      <use fill="#000" filter="url(#0o9c9rvd0h)" xlink:href="#qjhjvdry6g"/>
    </g>
    <g fill-rule="nonzero" transform="translate(0 .5)">
      <use fill="#000" filter="url(#322p8hajli)" xlink:href="#ahekj9g2rj"/>
      <use fill="url(#ihrz5ofqvk)" xlink:href="#ahekj9g2rj"/>
    </g>
  </g>
</svg>
