<svg xmlns="http://www.w3.org/2000/svg" viewBox="0 0 16 15" class="design-iconfont">
  <g fill="none" fill-rule="evenodd">
    <path
      d="M13.4976271,0.25 C13.8725872,0.25 14.0120704,0.280204422 14.1500929,0.354019651 C14.4993653,0.767499342 14.5295697,0.906982536 14.5295697,1.2819426 L14.5295697,13.4976271 C14.5295697,13.8725872 14.4993653,14.0120704 14.4255501,14.1500929 C14.0120704,14.4993653 13.8725872,14.5295697 13.4976271,14.5295697 L1.2819426,14.5295697 C0.906982536,14.5295697 0.767499342,14.4993653 0.629476863,14.4255501 C0.280204422,14.0120704 0.25,13.8725872 0.25,13.4976271 L0.25,1.2819426 C0.25,0.906982536 0.280204422,0.767499342 0.354019651,0.629476863 C0.767499342,0.280204422 0.906982536,0.25 1.2819426,0.25 Z"
      stroke="#FF751A" stroke-width=".5" fill-opacity=".46153419" fill="#823400"
      transform="translate(.240497 .212235)"/>
    <path
      d="M2.37243751,4.96203711 L1.45942268,4.96203711 C1.2982193,4.96203711 1.16753814,4.83135595 1.16753814,4.67015257 L1.16753814,2.33507629 L5.54580618,2.33507629 L5.54580618,4.67015257 C5.54580618,4.83135595 5.41512502,4.96203711 5.25392165,4.96203711 L4.75246401,4.96203711 C4.59126064,4.96203711 4.46057948,5.09271827 4.46057948,5.25392165 C4.46057948,5.41512502 4.59126064,5.54580618 4.75246401,5.54580618 L5.25392165,5.54580618 C5.73753178,5.54580618 6.12957525,5.15376271 6.12957525,4.67015257 L6.12957525,1.45942268 C6.12957525,0.975812546 5.73753178,0.583769072 5.25392165,0.583769072 L1.45942268,0.583769072 C0.975812546,0.583769072 0.583769072,0.975812546 0.583769072,1.45942268 L0.583769072,4.67015257 C0.583769072,5.15376271 0.975812546,5.54580618 1.45942268,5.54580618 L2.37243751,5.54580618 C2.53364089,5.54580618 2.66432204,5.41512502 2.66432204,5.25392165 C2.66432204,5.09271827 2.53364089,4.96203711 2.37243751,4.96203711 Z M1.16753814,1.45942268 C1.16753814,1.2982193 1.2982193,1.16753814 1.45942268,1.16753814 L5.25392165,1.16753814 C5.41512502,1.16753814 5.54580618,1.2982193 5.54580618,1.45942268 L5.54580618,1.75130722 L1.16753814,1.75130722 L1.16753814,1.45942268 Z M7.88088247,3.79449897 L7.05193039,3.79449897 C6.89072701,3.79449897 6.76004585,3.92518012 6.76004585,4.0863835 C6.76004585,4.24758688 6.89072701,4.37826804 7.05193039,4.37826804 L7.88088247,4.37826804 C8.04208585,4.37826804 8.17276701,4.5089492 8.17276701,4.67015257 L8.17276701,7.00522886 L3.79449897,7.00522886 L3.79449897,4.67015257 C3.79449897,4.5089492 3.92518012,4.37826804 4.0863835,4.37826804 L4.66168792,4.37826804 C4.8228913,4.37826804 4.95357246,4.24758688 4.95357246,4.0863835 C4.95357246,3.92518012 4.8228913,3.79449897 4.66168792,3.79449897 L4.0863835,3.79449897 C3.60277337,3.79449897 3.21072989,4.18654244 3.21072989,4.67015257 L3.21072989,7.88088247 C3.21072989,8.3644926 3.60277337,8.75653608 4.0863835,8.75653608 L7.88088247,8.75653608 C8.3644926,8.75653608 8.75653608,8.3644926 8.75653608,7.88088247 L8.75653608,4.67015257 C8.75653608,4.18654244 8.3644926,3.79449897 7.88088247,3.79449897 Z M8.17276701,7.88088247 C8.17276701,8.04208585 8.04208585,8.17276701 7.88088247,8.17276701 L4.0863835,8.17276701 C3.92518012,8.17276701 3.79449897,8.04208585 3.79449897,7.88088247 L3.79449897,7.58899793 L8.17276701,7.58899793 L8.17276701,7.88088247 Z"
      fill="#FF6500" transform="translate(3.319574 3.291312)" fill-rule="nonzero"/>
  </g>
</svg>
