<svg xmlns="http://www.w3.org/2000/svg" viewBox="0 0 15 15" class="design-iconfont">
  <g fill="none" fill-rule="evenodd">
    <path
      d="M13.4976271,0.25 C13.8725872,0.25 14.0120704,0.280204422 14.1500929,0.354019651 C14.4993653,0.767499342 14.5295697,0.906982536 14.5295697,1.2819426 L14.5295697,13.4976271 C14.5295697,13.8725872 14.4993653,14.0120704 14.4255501,14.1500929 C14.0120704,14.4993653 13.8725872,14.5295697 13.4976271,14.5295697 L1.2819426,14.5295697 C0.906982536,14.5295697 0.767499342,14.4993653 0.629476863,14.4255501 C0.280204422,14.0120704 0.25,13.8725872 0.25,13.4976271 L0.25,1.2819426 C0.25,0.906982536 0.280204422,0.767499342 0.354019651,0.629476863 C0.767499342,0.280204422 0.906982536,0.25 1.2819426,0.25 Z"
      stroke="#B439FF" stroke-width=".5" fill-opacity=".46424279" fill="#3A0071" transform="translate(0 .110215)"/>
    <g fill-rule="nonzero" fill="#B439FF">
      <path
        d="M7.46373055,4.35695271 L2.00587758,4.35695271 C1.54405926,4.35695271 1.1662079,3.97910135 1.1662079,3.51728302 L1.1662079,1.95922927 C1.1662079,1.49741094 1.54405926,1.11955958 2.00587758,1.11955958 L7.46373055,1.11955958 C7.92554887,1.11955958 8.30340023,1.49741094 8.30340023,1.95922927 L8.30340023,3.51728302 C8.30340023,3.97910135 7.92554887,4.35695271 7.46373055,4.35695271 Z M2.00587758,1.67933937 C1.85193814,1.67933937 1.72598769,1.80528983 1.72598769,1.95922927 L1.72598769,3.51728302 C1.72598769,3.67122246 1.85193814,3.79717292 2.00587758,3.79717292 L7.46373055,3.79717292 C7.61766999,3.79717292 7.74362044,3.67122246 7.74362044,3.51728302 L7.74362044,1.95922927 C7.74362044,1.80528983 7.61766999,1.67933937 7.46373055,1.67933937 L2.00587758,1.67933937 Z"
        transform="translate(2.414245 2.835168)"/>
      <path
        d="M5.8776878,2.65895401 C5.8776878,2.86505923 6.0447691,3.03214053 6.25087433,3.03214053 C6.45697956,3.03214053 6.62406086,2.86505923 6.62406086,2.65895401 C6.62406086,2.45284878 6.45697956,2.28576748 6.25087433,2.28576748 C6.0447691,2.28576748 5.8776878,2.45284878 5.8776878,2.65895401 Z"
        transform="translate(2.414245 2.835168)"/>
      <path
        d="M8.02817517,5.83103949 L1.72598769,5.83103949 C1.57204825,5.83103949 1.44609779,5.70508904 1.44609779,5.55114959 C1.44609779,5.39721015 1.57204825,5.2712597 1.72598769,5.2712597 L8.02817517,5.2712597 C8.18211461,5.2712597 8.30806506,5.39721015 8.30806506,5.55114959 C8.30806506,5.70508904 8.18211461,5.83103949 8.02817517,5.83103949 Z M8.02817517,7.41708223 L1.72598769,7.41708223 C1.57204825,7.41708223 1.44609779,7.29113178 1.44609779,7.13719233 C1.44609779,6.98325289 1.57204825,6.85730244 1.72598769,6.85730244 L8.02817517,6.85730244 C8.18211461,6.85730244 8.30806506,6.98325289 8.30806506,7.13719233 C8.30806506,7.29113178 8.18211461,7.41708223 8.02817517,7.41708223 Z"
        transform="translate(2.414245 2.835168)"/>
    </g>
  </g>
</svg>
