<svg xmlns:xlink="http://www.w3.org/1999/xlink" xmlns="http://www.w3.org/2000/svg" viewBox="0 0 34 41"
     class="design-iconfont">
  <defs>
    <linearGradient x1="50%" y1="44.3639815%" x2="50%" y2="100%" id="t3p5zsclba">
      <stop stop-color="#054E78" stop-opacity="0" offset="0%"/>
      <stop stop-color="#022643" offset="100%"/>
    </linearGradient>
    <linearGradient x1="99.1086306%" y1="50%" x2="0%" y2="50%" id="qwssi3iw3b">
      <stop stop-color="#182AAC" offset="0%"/>
      <stop stop-color="#00D2B3" offset="100%"/>
    </linearGradient>
    <linearGradient x1="100%" y1="50%" x2="0%" y2="50%" id="whj8nqmfzc">
      <stop stop-color="#0040A8" offset="0%"/>
      <stop stop-color="#006297" offset="49.1992325%"/>
      <stop stop-color="#00C9D8" offset="100%"/>
    </linearGradient>
    <linearGradient x1="99.0900213%" y1="50%" x2=".98757148%" y2="50%" id="1hxu0flbne">
      <stop stop-color="#008DE4" offset="0%"/>
      <stop stop-color="#00E8C4" offset="100%"/>
    </linearGradient>
    <linearGradient x1="100%" y1="50%" x2="0%" y2="50%" id="80a19dxxhd">
      <stop stop-color="#00BAE8" offset="0%"/>
      <stop stop-color="#00FDFF" offset="100%"/>
    </linearGradient>
    <linearGradient x1="34.6286299%" y1="3.679616%" x2="67.037249%" y2="95.6093371%" id="dwo13pgerf">
      <stop stop-color="#0FA" offset="0%"/>
      <stop stop-color="#026EFF" offset="100%"/>
    </linearGradient>
    <linearGradient x1="50%" y1="9.35091898%" x2="50%" y2="99.2706001%" id="w1cbm2m5wk">
      <stop stop-color="#00FFFE" offset="0%"/>
      <stop stop-color="#00C6FF" offset="100%"/>
    </linearGradient>
    <filter x="-1.7%" y="-1%" width="103.4%" height="102%" filterUnits="objectBoundingBox" id="4a41wavqeh">
      <feOffset dx="-.5" dy="-.5" in="SourceAlpha" result="shadowOffsetInner1"/>
      <feComposite in="shadowOffsetInner1" in2="SourceAlpha" operator="arithmetic" k2="-1" k3="1"
                   result="shadowInnerInner1"/>
      <feColorMatrix values="0 0 0 0 0 0 0 0 0 0.929451883 0 0 0 0 1 0 0 0 0.5 0" in="shadowInnerInner1"/>
    </filter>
    <filter x="-53.6%" y="-19.3%" width="207.2%" height="154%" filterUnits="objectBoundingBox" id="i328mn0b7i">
      <feOffset dy="1" in="SourceAlpha" result="shadowOffsetOuter1"/>
      <feGaussianBlur stdDeviation="1" in="shadowOffsetOuter1" result="shadowBlurOuter1"/>
      <feColorMatrix values="0 0 0 0 0 0 0 0 0 0.0868338197 0 0 0 0 1 0 0 0 0.5 0" in="shadowBlurOuter1"/>
    </filter>
    <path d="M6.22298384,0 L6.22298384,16.6425018 L20.8012433,24.9741631 L20.8012433,7.97687244 L6.22298384,0 Z"
          id="d4wppei90g"/>
    <path
      d="M10.4611934,5.44529438 L15.5890255,7.84802628 C16.0043635,7.98493314 16.3006034,8.2924149 16.3006034,8.67554259 L16.3006034,8.67554259 L16.1363564,18.0552721 C16.1363564,18.2468357 15.9820399,18.4016018 15.7910333,18.4016018 L15.7910333,18.4016018 L10.1158702,15.4638281 C9.77054691,15.3246469 9.77054691,15.309062 9.77054691,15.1174984 L9.77054691,6.13795459 C9.77054691,5.7548269 10.0802587,5.44529438 10.4611934,5.44529438 L10.4611934,5.44529438 Z M10.7092136,7.01847362 C10.642236,7.06015555 10.6046081,7.14980851 10.6046081,7.26770353 L10.6046081,8.16032122 C10.6046081,8.27821898 10.642236,8.41470496 10.7092136,8.5397535 C10.7761912,8.66480204 10.8670318,8.76816843 10.96175,8.82711731 L11.318892,9.04938814 L11.4848308,12.1662173 L11.1276889,11.9439519 C11.0329706,11.8850003 10.9421301,11.8753164 10.8751525,11.9170065 C10.8081749,11.9586693 10.7705469,12.0483414 10.7705469,12.1662173 L10.7705469,13.058835 C10.7705469,13.1767382 10.8081749,13.313216 10.8751525,13.4382864 C10.9421301,13.5633295 11.0329706,13.6666794 11.1276889,13.7256311 L11.8419728,14.1701618 C11.9366936,14.2291134 12.0275341,14.2388247 12.0945117,14.1971345 C12.1614893,14.1554444 12.1991173,14.0657996 12.1991173,13.9478964 L12.1991173,13.5015876 L14.341969,14.8351797 L14.341969,15.2814886 C14.341969,15.3993918 14.3796045,15.5358696 14.446577,15.66094 C14.5135496,15.7859831 14.6044028,15.8893331 14.6991134,15.9482847 L15.4134024,16.3928154 C15.5081131,16.451767 15.5989663,16.4614783 15.6659388,16.4197882 C15.7329114,16.378098 15.7705469,16.2884533 15.7705469,16.17055 L15.7705469,15.2779323 C15.7705469,15.1600565 15.7329114,15.0235514 15.6659388,14.8985083 C15.5989663,14.7734652 15.5081131,14.6700879 15.4134024,14.6111363 L15.0562579,14.3888709 L14.8903191,11.2720418 L15.2474636,11.4943071 C15.3421743,11.5532587 15.4330275,11.5629427 15.5,11.5212799 C15.5669725,11.4795897 15.6046081,11.389945 15.6046081,11.2720418 L15.6046081,10.3794241 C15.6046081,10.2615208 15.5669725,10.1250431 15.5,10 C15.4330275,9.87492957 15.3421743,9.7715796 15.2474636,9.71262798 L14.5331746,9.26809726 C14.438464,9.20914565 14.3476107,9.19943436 14.2806382,9.2411245 C14.2136657,9.28281465 14.1760301,9.3724594 14.1760301,9.49036262 L14.1760301,9.93399061 L12.0331784,8.60040664 L12.0331784,8.15676498 C12.0331784,8.03886996 11.9955505,7.90238398 11.9285729,7.77733543 C11.8615953,7.65228689 11.7707548,7.54891777 11.6760365,7.48996889 L10.96175,7.04543817 C10.8670318,6.98648929 10.7761912,6.97679168 10.7092136,7.01847362 Z M12.1098359,9.24533207 L14.124998,10.3145684 C14.124998,10.4391212 14.1645154,10.5786002 14.2348366,10.7063674 C14.3051578,10.8341346 14.4005537,10.9397641 14.5,11 L14.5,14 C14.4005537,13.9397641 14.3051578,13.9298692 14.2348366,13.9724676 C14.1645154,14.015038 14.124998,14.1066637 14.124998,14.2271076 L12.1401654,12.8829103 C12.1401654,12.7606496 12.100656,12.6211706 12.0303295,12.4934034 C11.960003,12.3656362 11.8646204,12.2600067 11.7651634,12.1997708 L11.7348366,9.47243962 C11.8342908,9.53267554 11.9296735,9.54257044 12,9.5 C12.0703265,9.45740161 12.1098359,9.36580389 12.1098359,9.24533207 Z"
      id="tb3wccmnmj"/>
  </defs>
  <g fill-rule="nonzero" fill="none">
    <path d="M0,30.6095219 L16.2768059,20.0494461 L32.2516212,30.6095219 L16.2216396,40 L0,30.6095219 Z"
          stroke="url(#t3p5zsclba)" stroke-width=".5" stroke-linecap="round" stroke-linejoin="bevel"
          transform="translate(1 .5)"/>
    <path d="M0,28.7624283 L16.2768059,18.2023525 L32.2516212,28.7624283 L16.2216396,38.1529064 L0,28.7624283 Z"
          stroke="url(#qwssi3iw3b)" stroke-width=".5" stroke-linecap="round" stroke-linejoin="bevel"
          transform="translate(1 .5)"/>
    <path
      d="M3.23241448,28.7249832 L3.23241448,26.099648 L15.9216292,20.511219 L28.9266207,25.9459481 L28.9266207,28.7249832 L16.0442002,36.3058109 L3.23241448,28.7249832 Z"
      fill="url(#whj8nqmfzc)" transform="translate(1 .5)"/>
    <path
      d="M2.77064085,26.0996485 L15.7563062,18.2023525 L29.097446,26.0996485 L15.8788772,33.9969444 L2.77064085,26.0996485 Z"
      stroke="url(#80a19dxxhd)" stroke-width=".5" fill="url(#1hxu0flbne)" stroke-linecap="round" stroke-linejoin="bevel"
      transform="translate(1 .5)"/>
    <path fill="#0093FF" opacity=".20088342"
          d="M15.9311852 22.35831452A7.61926222 3.46330118 0 1 0 15.9311852 29.284916879999997A7.61926222 3.46330118 0 1 0 15.9311852 22.35831452Z"
          transform="translate(1 .5)"/>
    <path fill="#2BA1F7" opacity=".49967304"
          d="M16.3006034 22.358314550000003A6.60336065 3.00152755 0 1 0 16.3006034 28.36136965A6.60336065 3.00152755 0 1 0 16.3006034 22.358314550000003Z"
          transform="translate(1 .5)"/>
    <path fill="#0094FF" opacity=".50396144"
          d="M16.1158948 22.358314540000002A4.57155752 2.07798076 0 1 0 16.1158948 26.51427606A4.57155752 2.07798076 0 1 0 16.1158948 22.358314540000002Z"
          transform="translate(1 .5)"/>
    <path fill="#00FFCE" opacity=".50352913"
          d="M15.931185 22.35831447A2.53975415 1.15443373 0 1 0 15.931185 24.66718193A2.53975415 1.15443373 0 1 0 15.931185 22.35831447Z"
          transform="translate(1 .5)"/>
    <path d="M12.2260389,0 L12.2260389,16.6425018 L26.8042984,24.9741631 L26.8042984,7.97687244 L12.2260389,0 Z"
          fill="url(#dwo13pgerf)" opacity=".10180374" transform="translate(1 .5)"/>
    <path d="M9.45539856,0 L9.45539856,16.6425018 L24.033658,24.9741631 L24.033658,7.97687244 L9.45539856,0 Z"
          fill="url(#dwo13pgerf)" opacity=".20228504" transform="translate(1 .5)"/>
    <g opacity=".80137855" transform="translate(1 .5)">
      <use fill="url(#dwo13pgerf)" xlink:href="#d4wppei90g"/>
      <use fill="#000" filter="url(#4a41wavqeh)" xlink:href="#d4wppei90g"/>
    </g>
    <g transform="translate(1 .5)">
      <use fill="#000" filter="url(#i328mn0b7i)" xlink:href="#tb3wccmnmj"/>
      <use fill="url(#w1cbm2m5wk)" xlink:href="#tb3wccmnmj"/>
    </g>
  </g>
</svg>
