<svg xmlns:xlink="http://www.w3.org/1999/xlink" xmlns="http://www.w3.org/2000/svg" viewBox="0 0 26 24"
     class="design-iconfont">
  <defs>
    <filter x="-47%" y="-55.1%" width="194.1%" height="210.3%" filterUnits="objectBoundingBox"
            id="4d16lpv3h__9a9q55yz8a">
      <feMorphology radius=".5" operator="dilate" in="SourceAlpha" result="shadowSpreadOuter1"/>
      <feOffset in="shadowSpreadOuter1" result="shadowOffsetOuter1"/>
      <feGaussianBlur stdDeviation="2" in="shadowOffsetOuter1" result="shadowBlurOuter1"/>
      <feColorMatrix values="0 0 0 0 0.929411765 0 0 0 0 0.125490196 0 0 0 0 0.176470588 0 0 0 0.5 0"
                     in="shadowBlurOuter1"/>
    </filter>
    <path
      d="M9.33333333,1.86666667 C9.33333333,1.93333334 9.46666666,2.06666667 9.66666667,2.4 C9.86666669,2.73333333 10.0666667,3.06666667 10.3333333,3.6 C10.6,4.13333333 10.9333333,4.6 11.2666667,5.2 C11.6,5.8 12,6.4 12.3333333,7 C12.6666667,7.6 13.0666667,8.26666667 13.4,8.86666667 C13.7333333,9.46666667 14.0666667,10.0666667 14.4,10.5333333 C14.6666667,11.0666667 14.9333333,11.4666667 15.2,11.8666667 C15.4666667,12.2666667 15.5333333,12.4666667 15.6666667,12.6 C15.8,12.8666667 15.9333333,13.1333333 15.9333333,13.4 C16,13.6666667 15.9333333,13.8666667 15.8666667,14.1333333 C15.8,14.4 15.6666667,14.5333333 15.5333333,14.6666667 C15.3333333,14.8 15.1333333,14.8666667 14.8666667,14.8666667 L1.4,14.8666667 C1,14.8666667 0.666666672,14.8 0.466666672,14.6666667 C0.266666672,14.5333333 0.133333344,14.3333333 0.0666666719,14.1333333 C-5.06539255e-16,13.9333333 -5.06539255e-16,13.6666667 0.0666666719,13.4666667 C0.133333344,13.2 0.2,13 0.4,12.7333333 C0.466666672,12.6 0.6,12.4 0.8,12 C1,11.6666667 1.26666667,11.2 1.6,10.7333333 C1.93333333,10.2 2.26666667,9.66666666 2.6,9.06666667 C2.93333333,8.46666667 3.33333333,7.8 3.73333333,7.2 C4.13333333,6.6 4.46666666,5.93333333 4.8,5.33333333 C5.13333333,4.73333333 5.46666667,4.2 5.73333333,3.73333333 C6,3.26666667 6.26666666,2.86666666 6.46666667,2.53333333 L6.8,2 C6.93333333,1.8 7.13333333,1.6 7.4,1.46666667 C7.66666667,1.33333334 7.86666667,1.26666667 8.13333333,1.26666667 C8.39999998,1.26666667 8.6,1.33333334 8.86666667,1.4 C9,1.46666667 9.2,1.66666667 9.33333333,1.86666667 Z M8.93333333,4.93333333 C8.93333333,4.8 8.93333333,4.66666666 8.86666667,4.6 C8.8,4.46666667 8.73333334,4.4 8.66666667,4.33333333 C8.6,4.26666666 8.46666667,4.2 8.33333333,4.13333333 C8.19999998,4.06666666 8.06666666,4 7.93333333,4 C7.66666666,4 7.46666666,4.06666667 7.26666667,4.26666667 C7.06666669,4.46666667 6.93333333,4.66666667 6.93333333,4.93333333 L6.93333333,9.06666667 C6.93333333,9.33333334 7.06666666,9.53333334 7.26666667,9.73333333 C7.46666669,9.93333331 7.66666667,10 7.93333333,10 C8.19999998,10 8.4,9.93333333 8.6,9.73333333 C8.8,9.53333333 8.93333333,9.33333333 8.93333333,9.06666667 L8.93333333,4.93333333 Z M7.93333333,10.9333333 C7.66666666,10.9333333 7.4,11 7.26666667,11.2 C7.13333334,11.4 7,11.6 7,11.8666667 C7,12.1333333 7.06666667,12.4 7.26666667,12.5333333 C7.46666667,12.7333333 7.66666667,12.8 7.93333333,12.8 C8.19999998,12.8 8.46666666,12.7333333 8.6,12.5333333 C8.8,12.3333333 8.86666667,12.1333333 8.86666667,11.8666667 C8.86666667,11.6 8.8,11.3333333 8.6,11.2 C8.46666667,11 8.2,10.9333333 7.93333333,10.9333333 L7.93333333,10.9333333 Z"
      id="4d16lpv3h__dsh05ngt2b"/>
  </defs>
  <g transform="translate(5 4)" fill-rule="nonzero" fill="none">
    <use fill="#000" filter="url(#4d16lpv3h__9a9q55yz8a)" xlink:href="#4d16lpv3h__dsh05ngt2b"/>
    <use fill="#FFF" xlink:href="#4d16lpv3h__dsh05ngt2b"/>
  </g>
</svg>
