<?xml version="1.0" encoding="UTF-8"?>
<svg xmlns="http://www.w3.org/2000/svg" xmlns:xlink="http://www.w3.org/1999/xlink" width="80px" height="97px" viewBox="0 0 80 97" version="1.1">
  <title>宽带覆盖率</title>
  <defs>
    <linearGradient x1="50%" y1="21.8898291%" x2="50%" y2="78.2580358%" id="linearGradient-1">
      <stop stop-color="#000E4B" offset="0%"></stop>
      <stop stop-color="#000B43" stop-opacity="0" offset="100%"></stop>
    </linearGradient>
    <linearGradient x1="50%" y1="21.8898291%" x2="50%" y2="100%" id="linearGradient-2">
      <stop stop-color="#000E4B" offset="0%"></stop>
      <stop stop-color="#000B43" stop-opacity="0" offset="100%"></stop>
    </linearGradient>
    <linearGradient x1="50%" y1="8.98915309%" x2="50%" y2="95.7016746%" id="linearGradient-3">
      <stop stop-color="#00379E" offset="0%"></stop>
      <stop stop-color="#000840" stop-opacity="0" offset="100%"></stop>
    </linearGradient>
    <linearGradient x1="50%" y1="28.5656905%" x2="50%" y2="100%" id="linearGradient-4">
      <stop stop-color="#00001A" stop-opacity="0" offset="0%"></stop>
      <stop stop-color="#00000B" offset="100%"></stop>
    </linearGradient>
    <linearGradient x1="50%" y1="29.7142317%" x2="50%" y2="100%" id="linearGradient-5">
      <stop stop-color="#005D74" stop-opacity="0" offset="0%"></stop>
      <stop stop-color="#00E0FF" offset="100%"></stop>
    </linearGradient>
    <linearGradient x1="50%" y1="99.3301498%" x2="50%" y2="0%" id="linearGradient-6">
      <stop stop-color="#00E2FF" offset="0%"></stop>
      <stop stop-color="#00B1FF" stop-opacity="0" offset="100%"></stop>
    </linearGradient>
    <linearGradient x1="50%" y1="99.3301498%" x2="50%" y2="0%" id="linearGradient-7">
      <stop stop-color="#00E2FF" offset="0%"></stop>
      <stop stop-color="#00B1FF" stop-opacity="0" offset="100%"></stop>
    </linearGradient>
    <polygon id="path-8" points="40.1443596 3.58804531 65.727956 12.5800252 56.8824216 20.8066644 22.1831593 20.8066644 14.5607631 12.5800252"></polygon>
    <filter x="-13.7%" y="-29.0%" width="127.4%" height="181.3%" filterUnits="objectBoundingBox" id="filter-9">
      <feOffset dx="0" dy="2" in="SourceAlpha" result="shadowOffsetOuter1"></feOffset>
      <feGaussianBlur stdDeviation="2" in="shadowOffsetOuter1" result="shadowBlurOuter1"></feGaussianBlur>
      <feComposite in="shadowBlurOuter1" in2="SourceAlpha" operator="out" result="shadowBlurOuter1"></feComposite>
      <feColorMatrix values="0 0 0 0 0   0 0 0 0 0   0 0 0 0 0  0 0 0 0.5 0" type="matrix" in="shadowBlurOuter1"></feColorMatrix>
    </filter>
    <linearGradient x1="50%" y1="99.3301498%" x2="50%" y2="0%" id="linearGradient-10">
      <stop stop-color="#00E2FF" offset="0%"></stop>
      <stop stop-color="#00B1FF" stop-opacity="0" offset="100%"></stop>
    </linearGradient>
    <polygon id="path-11" points="40.1443596 2.32538783 62.1461606 10.0584582 54.5390327 17.1333384 24.6977918 17.1333384 18.1425586 10.0584582"></polygon>
    <filter x="-15.9%" y="-33.8%" width="131.8%" height="194.5%" filterUnits="objectBoundingBox" id="filter-12">
      <feOffset dx="0" dy="2" in="SourceAlpha" result="shadowOffsetOuter1"></feOffset>
      <feGaussianBlur stdDeviation="2" in="shadowOffsetOuter1" result="shadowBlurOuter1"></feGaussianBlur>
      <feComposite in="shadowBlurOuter1" in2="SourceAlpha" operator="out" result="shadowBlurOuter1"></feComposite>
      <feColorMatrix values="0 0 0 0 0   0 0 0 0 0   0 0 0 0 0  0 0 0 0.5 0" type="matrix" in="shadowBlurOuter1"></feColorMatrix>
    </filter>
    <linearGradient x1="50%" y1="9.35091914%" x2="50%" y2="100%" id="linearGradient-13">
      <stop stop-color="#00F4F6" offset="0%"></stop>
      <stop stop-color="#00B3FD" offset="99.1953603%"></stop>
    </linearGradient>
    <path d="M19.3627727,5.83333333 C19.6701795,5.83703405 19.9220308,6.08498183 19.9257345,6.39584174 L19.9257345,7.86872561 L21.4886943,7.86872561 C21.7998048,7.86872561 22.0516561,8.12037411 22.0516561,8.43123402 L22.0516561,10.2038757 L24.0627631,10.2038757 C24.3664662,10.2075764 24.6146138,10.4481227 24.6257659,10.7552819 L24.6257659,23.6041583 C24.6294286,23.9113175 24.381281,24.162966 24.0775779,24.1666667 L5.18872767,24.1666667 C4.87761719,24.1666667 4.62576586,23.9150182 4.62576586,23.6041583 L4.62576586,10.7552819 C4.63687694,10.4518234 4.88502458,10.2075764 5.18872767,10.2038757 L7.19983466,10.2038757 L7.19983466,8.43123402 C7.19983466,8.12037411 7.451686,7.86872561 7.76279647,7.86872561 L9.32575624,7.86872561 L9.32575624,6.39584174 C9.32575624,6.08498183 9.57760757,5.83333333 9.88871805,5.83333333 L19.3627727,5.83333333 Z M10.5406941,12.5 C10.0376658,12.5 9.62576586,12.9125183 9.62576586,13.4163016 L9.62576586,13.4163016 L9.62576586,20.7503651 L9.63195355,20.8568046 C9.68507365,21.3109749 10.0735964,21.6666667 10.5406941,21.6666667 C11.0437223,21.6666667 11.4556223,21.2541484 11.4556223,20.7503651 L11.4556223,20.7503651 L11.4556223,13.4163016 L11.4494346,13.309862 C11.3963145,12.8556918 11.0077917,12.5 10.5406941,12.5 Z M19.544171,12.5 C19.0411427,12.5 18.6292428,12.9125183 18.6292428,13.4163016 L18.6292428,13.4163016 L18.6292428,20.7503651 L18.6354304,20.8568046 C18.6885505,21.3109749 19.0770733,21.6666667 19.544171,21.6666667 C20.0471992,21.6666667 20.4590992,21.2541484 20.4590992,20.7503651 L20.4590992,20.7503651 L20.4590992,13.4163016 L20.4529115,13.309862 C20.3997914,12.8556918 20.0112686,12.5 19.544171,12.5 Z M15.0424325,12.5 C14.5394043,12.5 14.1275043,12.9125183 14.1275043,13.4163016 L14.1275043,13.4163016 L14.1275043,20.7503651 L14.133692,20.8568046 C14.1868121,21.3109749 14.5753348,21.6666667 15.0424325,21.6666667 C15.5454608,21.6666667 15.9573607,21.2541484 15.9573607,20.7503651 L15.9573607,20.7503651 L15.9573607,13.4163016 L15.951173,13.309862 C15.8980529,12.8556918 15.5095302,12.5 15.0424325,12.5 Z" id="path-14"></path>
    <filter x="-35.0%" y="-27.3%" width="170.0%" height="176.4%" filterUnits="objectBoundingBox" id="filter-15">
      <feOffset dx="0" dy="2" in="SourceAlpha" result="shadowOffsetOuter1"></feOffset>
      <feGaussianBlur stdDeviation="2" in="shadowOffsetOuter1" result="shadowBlurOuter1"></feGaussianBlur>
      <feColorMatrix values="0 0 0 0 0   0 0 0 0 0.0868338205   0 0 0 0 1  0 0 0 0.5 0" type="matrix" in="shadowBlurOuter1"></feColorMatrix>
    </filter>
  </defs>
  <g id="资源可视化" stroke="none" stroke-width="1" fill="none" fill-rule="evenodd">
    <g id="资源可视化6.0" transform="translate(-1699.000000, -681.000000)">
      <g id="编组-5" transform="translate(1400.000000, 515.000000)">
        <g id="宽带覆盖率" transform="translate(299.000000, 166.000000)">
          <g id="编组-34" transform="translate(40.000000, 54.750194) scale(-1, 1) translate(-40.000000, -54.750194) translate(0.000000, 13.000000)">
            <polygon id="路径-11" fill="url(#linearGradient-1)" points="80 14.8079505 64.1677856 29.2045691 64.1677856 82.6777238 80 67.2605387"></polygon>
            <polygon id="路径-11备份" fill="url(#linearGradient-2)" transform="translate(7.916107, 48.742837) scale(-1, 1) translate(-7.916107, -48.742837) " points="15.8322144 14.8079505 0 29.2045691 0 82.6777238 15.8322144 67.2605387"></polygon>
            <rect id="矩形" fill="url(#linearGradient-3)" x="15.6306144" y="30.027233" width="48.5371712" height="53.4731547"></rect>
            <path d="M39.9428057,0.267168288 L79.5380667,14.9037287 L64.0297928,29.7313875 L15.358353,29.7313875 L0.675318034,15.3588151 L39.9428057,0.267168288 Z" id="多边形" stroke="url(#linearGradient-5)" stroke-width="0.5" fill="url(#linearGradient-4)"></path>
            <path d="M40.1117861,4.67644528 L72.4652054,16.3585907 L61.7247708,25.4353247 L17.0495206,25.4353247 L7.59762383,16.3691145 L40.1117861,4.67644528 Z" id="多边形备份" stroke="url(#linearGradient-6)" stroke-width="0.5" fill="#001D68"></path>
            <g id="多边形备份-2">
              <use fill="black" fill-opacity="1" filter="url(#filter-9)" xlink:href="#path-8"></use>
              <path stroke="url(#linearGradient-7)" stroke-width="0.5" d="M40.1443596,3.85303756 L65.2547623,12.678702 L56.7841358,20.5566644 L22.2923383,20.5566644 L15.003068,12.6895586 L40.1443596,3.85303756 Z" stroke-linejoin="square" fill="#001D68" fill-rule="evenodd"></path>
            </g>
            <g id="多边形备份-3">
              <use fill="black" fill-opacity="1" filter="url(#filter-12)" xlink:href="#path-11"></use>
              <path stroke="url(#linearGradient-10)" stroke-width="0.5" d="M40.1443596,2.59038008 L61.6729669,10.157135 L54.440747,16.8833384 L24.8069709,16.8833384 L18.5848634,10.1679916 L40.1443596,2.59038008 Z" stroke-linejoin="square" fill="#001D68" fill-rule="evenodd"></path>
            </g>
          </g>
          <g id="端口管理" transform="translate(25.000000, 0.000000)" fill-rule="nonzero">
            <rect id="矩形" fill="#000000" opacity="0" x="0" y="0" width="30" height="30"></rect>
            <g id="形状结合">
              <use fill="black" fill-opacity="1" filter="url(#filter-15)" xlink:href="#path-14"></use>
              <use fill="url(#linearGradient-13)" xlink:href="#path-14"></use>
            </g>
          </g>
        </g>
      </g>
    </g>
  </g>
</svg>
