<?xml version="1.0" encoding="UTF-8"?>
<svg xmlns="http://www.w3.org/2000/svg" xmlns:xlink="http://www.w3.org/1999/xlink" width="80px" height="97px" viewBox="0 0 80 97" version="1.1">
  <title>业务开通量</title>
  <defs>
    <linearGradient x1="50%" y1="21.8898291%" x2="50%" y2="78.2580358%" id="linearGradient-1">
      <stop stop-color="#000E4B" offset="0%"></stop>
      <stop stop-color="#000B43" stop-opacity="0" offset="100%"></stop>
    </linearGradient>
    <linearGradient x1="50%" y1="21.8898291%" x2="50%" y2="100%" id="linearGradient-2">
      <stop stop-color="#000E4B" offset="0%"></stop>
      <stop stop-color="#000B43" stop-opacity="0" offset="100%"></stop>
    </linearGradient>
    <linearGradient x1="50%" y1="8.98915309%" x2="50%" y2="95.7016746%" id="linearGradient-3">
      <stop stop-color="#00379E" offset="0%"></stop>
      <stop stop-color="#000840" stop-opacity="0" offset="100%"></stop>
    </linearGradient>
    <linearGradient x1="50%" y1="28.5656905%" x2="50%" y2="100%" id="linearGradient-4">
      <stop stop-color="#00001A" stop-opacity="0" offset="0%"></stop>
      <stop stop-color="#00000B" offset="100%"></stop>
    </linearGradient>
    <linearGradient x1="50%" y1="29.7142317%" x2="50%" y2="100%" id="linearGradient-5">
      <stop stop-color="#005D74" stop-opacity="0" offset="0%"></stop>
      <stop stop-color="#00E0FF" offset="100%"></stop>
    </linearGradient>
    <linearGradient x1="50%" y1="99.3301498%" x2="50%" y2="0%" id="linearGradient-6">
      <stop stop-color="#00E2FF" offset="0%"></stop>
      <stop stop-color="#00B1FF" stop-opacity="0" offset="100%"></stop>
    </linearGradient>
    <linearGradient x1="50%" y1="99.3301498%" x2="50%" y2="0%" id="linearGradient-7">
      <stop stop-color="#00E2FF" offset="0%"></stop>
      <stop stop-color="#00B1FF" stop-opacity="0" offset="100%"></stop>
    </linearGradient>
    <polygon id="path-8" points="40.1443596 3.58804531 65.727956 12.5800252 56.8824216 20.8066644 22.1831593 20.8066644 14.5607631 12.5800252"></polygon>
    <filter x="-13.7%" y="-29.0%" width="127.4%" height="181.3%" filterUnits="objectBoundingBox" id="filter-9">
      <feOffset dx="0" dy="2" in="SourceAlpha" result="shadowOffsetOuter1"></feOffset>
      <feGaussianBlur stdDeviation="2" in="shadowOffsetOuter1" result="shadowBlurOuter1"></feGaussianBlur>
      <feComposite in="shadowBlurOuter1" in2="SourceAlpha" operator="out" result="shadowBlurOuter1"></feComposite>
      <feColorMatrix values="0 0 0 0 0   0 0 0 0 0   0 0 0 0 0  0 0 0 0.5 0" type="matrix" in="shadowBlurOuter1"></feColorMatrix>
    </filter>
    <linearGradient x1="50%" y1="99.3301498%" x2="50%" y2="0%" id="linearGradient-10">
      <stop stop-color="#00E2FF" offset="0%"></stop>
      <stop stop-color="#00B1FF" stop-opacity="0" offset="100%"></stop>
    </linearGradient>
    <polygon id="path-11" points="40.1443596 2.32538783 62.1461606 10.0584582 54.5390327 17.1333384 24.6977918 17.1333384 18.1425586 10.0584582"></polygon>
    <filter x="-15.9%" y="-33.8%" width="131.8%" height="194.5%" filterUnits="objectBoundingBox" id="filter-12">
      <feOffset dx="0" dy="2" in="SourceAlpha" result="shadowOffsetOuter1"></feOffset>
      <feGaussianBlur stdDeviation="2" in="shadowOffsetOuter1" result="shadowBlurOuter1"></feGaussianBlur>
      <feComposite in="shadowBlurOuter1" in2="SourceAlpha" operator="out" result="shadowBlurOuter1"></feComposite>
      <feColorMatrix values="0 0 0 0 0   0 0 0 0 0   0 0 0 0 0  0 0 0 0.5 0" type="matrix" in="shadowBlurOuter1"></feColorMatrix>
    </filter>
    <linearGradient x1="50%" y1="9.35091914%" x2="50%" y2="100%" id="linearGradient-13">
      <stop stop-color="#00F4F6" offset="0%"></stop>
      <stop stop-color="#00B3FD" offset="99.1953603%"></stop>
    </linearGradient>
    <path d="M8.29337883,15.7032795 C8.56114197,15.7040405 8.74731445,15.7078857 8.78320312,15.7207031 L8.78320312,15.7207031 L12.0527344,18.9931641 C12.3134766,19.2480469 12.6357422,19.3857422 12.9667969,19.3857422 L12.9667969,19.3857422 L17.3115234,19.3857422 C17.6308594,19.3857422 17.9443359,19.2568359 18.1992188,19.0195313 L18.1992188,19.0195313 L21.7529297,15.703125 L26.6865234,15.703125 C27.4980469,15.703125 28.1572266,16.5146484 28.1572266,17.5195313 L28.1572266,17.5195313 L28.1572266,24.8232422 C28.1572266,25.8251953 27.4980469,26.6396484 26.6865234,26.6396484 L26.6865234,26.6396484 L3.31640625,26.6396484 C2.50488281,26.6396484 1.84570312,25.8251953 1.84570312,24.8232422 L1.84570312,24.8232422 L1.84570312,17.5195313 C1.84570312,16.5175781 2.50488281,15.703125 3.31640625,15.703125 L3.31640625,15.703125 Z M24.1259766,11.8095703 C24.4892578,11.8095703 24.7851562,12.1728516 24.7851562,12.6210937 C24.7851562,13.0693359 24.4892578,13.4326172 24.1259766,13.4326172 L24.1259766,13.4326172 L22.2070312,13.4326172 C21.8876953,13.4326172 21.5742187,13.5615234 21.3193359,13.7988281 L21.3193359,13.7988281 L18.1582031,16.7460937 C17.9033203,16.9833984 17.5898437,17.1123047 17.2705078,17.1123047 L17.2705078,17.1123047 L13.0986328,17.1123047 L13.0986328,17.1152344 L12.6328125,17.1152344 C12.4921875,17.1152344 12.3515625,17.0537109 12.2402344,16.9453125 L12.2402344,16.9453125 L9.04394531,13.8251953 C8.78320312,13.5703125 8.4609375,13.4326172 8.12988281,13.4326172 L8.12988281,13.4326172 L5.70410156,13.4326172 C5.34082031,13.4326172 5.04492187,13.0693359 5.04492187,12.6210937 C5.04492187,12.1728516 5.34082031,11.8095703 5.70410156,11.8095703 L5.70410156,11.8095703 Z M23.8359375,7.50878906 C24.3544922,7.50878906 24.7763672,8.02734375 24.7763672,8.66894531 L24.7763672,8.66894531 L24.7763672,8.70117187 C24.7763672,9.36035156 24.3457031,9.89355469 23.8125,9.89355469 L23.8125,9.89355469 L6.00878906,9.89355469 C5.47558594,9.89355469 5.04492187,9.36035156 5.04492187,8.70117187 C5.04492187,8.04199219 5.47558594,7.50878906 6.00878906,7.50878906 L6.00878906,7.50878906 Z M23.8359375,3.36035156 C24.3544922,3.36035156 24.7763672,3.87890625 24.7763672,4.52050781 L24.7763672,4.52050781 L24.7763672,4.55273437 C24.7763672,5.21191406 24.3457031,5.74511719 23.8125,5.74511719 L23.8125,5.74511719 L6.00878906,5.74511719 C5.47558594,5.74511719 5.04492187,5.21191406 5.04492187,4.55273437 C5.04492187,3.89355469 5.47558594,3.36035156 6.00878906,3.36035156 L6.00878906,3.36035156 Z" id="path-14"></path>
    <filter x="-26.6%" y="-21.5%" width="153.2%" height="160.1%" filterUnits="objectBoundingBox" id="filter-15">
      <feOffset dx="0" dy="2" in="SourceAlpha" result="shadowOffsetOuter1"></feOffset>
      <feGaussianBlur stdDeviation="2" in="shadowOffsetOuter1" result="shadowBlurOuter1"></feGaussianBlur>
      <feColorMatrix values="0 0 0 0 0   0 0 0 0 0.0868338205   0 0 0 0 1  0 0 0 0.5 0" type="matrix" in="shadowBlurOuter1"></feColorMatrix>
    </filter>
  </defs>
  <g id="资源可视化" stroke="none" stroke-width="1" fill="none" fill-rule="evenodd">
    <g id="资源可视化6.0" transform="translate(-1400.000000, -681.000000)">
      <g id="编组-5" transform="translate(1400.000000, 515.000000)">
        <g id="业务开通量" transform="translate(0.000000, 166.000000)">
          <g id="编组-34" transform="translate(0.000000, 13.000000)">
            <polygon id="路径-11" fill="url(#linearGradient-1)" points="80 14.8079505 64.1677856 29.2045691 64.1677856 82.6777238 80 67.2605387"></polygon>
            <polygon id="路径-11备份" fill="url(#linearGradient-2)" transform="translate(7.916107, 48.742837) scale(-1, 1) translate(-7.916107, -48.742837) " points="15.8322144 14.8079505 0 29.2045691 0 82.6777238 15.8322144 67.2605387"></polygon>
            <rect id="矩形" fill="url(#linearGradient-3)" x="15.6306144" y="30.027233" width="48.5371712" height="53.4731547"></rect>
            <path d="M39.9428057,0.267168288 L79.5380667,14.9037287 L64.0297928,29.7313875 L15.358353,29.7313875 L0.675318034,15.3588151 L39.9428057,0.267168288 Z" id="多边形" stroke="url(#linearGradient-5)" stroke-width="0.5" fill="url(#linearGradient-4)"></path>
            <path d="M40.1117861,4.67644528 L72.4652054,16.3585907 L61.7247708,25.4353247 L17.0495206,25.4353247 L7.59762383,16.3691145 L40.1117861,4.67644528 Z" id="多边形备份" stroke="url(#linearGradient-6)" stroke-width="0.5" fill="#001D68"></path>
            <g id="多边形备份-2">
              <use fill="black" fill-opacity="1" filter="url(#filter-9)" xlink:href="#path-8"></use>
              <path stroke="url(#linearGradient-7)" stroke-width="0.5" d="M40.1443596,3.85303756 L65.2547623,12.678702 L56.7841358,20.5566644 L22.2923383,20.5566644 L15.003068,12.6895586 L40.1443596,3.85303756 Z" stroke-linejoin="square" fill="#001D68" fill-rule="evenodd"></path>
            </g>
            <g id="多边形备份-3">
              <use fill="black" fill-opacity="1" filter="url(#filter-12)" xlink:href="#path-11"></use>
              <path stroke="url(#linearGradient-10)" stroke-width="0.5" d="M40.1443596,2.59038008 L61.6729669,10.157135 L54.440747,16.8833384 L24.8069709,16.8833384 L18.5848634,10.1679916 L40.1443596,2.59038008 Z" stroke-linejoin="square" fill="#001D68" fill-rule="evenodd"></path>
            </g>
          </g>
          <g id="业务总数" transform="translate(25.000000, 0.000000)" fill-rule="nonzero">
            <rect id="矩形" fill="#000000" opacity="0" x="0" y="0" width="30" height="30"></rect>
            <g id="形状结合">
              <use fill="black" fill-opacity="1" filter="url(#filter-15)" xlink:href="#path-14"></use>
              <use fill="url(#linearGradient-13)" xlink:href="#path-14"></use>
            </g>
          </g>
        </g>
      </g>
    </g>
  </g>
</svg>
