<?xml version="1.0" encoding="UTF-8"?>
<svg xmlns="http://www.w3.org/2000/svg" xmlns:xlink="http://www.w3.org/1999/xlink" width="80px" height="97px" viewBox="0 0 80 97" version="1.1">
  <title>客户服务数</title>
  <defs>
    <linearGradient x1="50%" y1="21.8898291%" x2="50%" y2="78.2580358%" id="linearGradient-1">
      <stop stop-color="#000E4B" offset="0%"></stop>
      <stop stop-color="#000B43" stop-opacity="0" offset="100%"></stop>
    </linearGradient>
    <linearGradient x1="50%" y1="21.8898291%" x2="50%" y2="74.9445846%" id="linearGradient-2">
      <stop stop-color="#000E4B" offset="0%"></stop>
      <stop stop-color="#000B43" stop-opacity="0" offset="100%"></stop>
    </linearGradient>
    <linearGradient x1="50%" y1="8.98915309%" x2="50%" y2="95.7016746%" id="linearGradient-3">
      <stop stop-color="#00379E" offset="0%"></stop>
      <stop stop-color="#000840" stop-opacity="0" offset="100%"></stop>
    </linearGradient>
    <linearGradient x1="50%" y1="28.5656905%" x2="50%" y2="100%" id="linearGradient-4">
      <stop stop-color="#00001A" stop-opacity="0" offset="0%"></stop>
      <stop stop-color="#00000B" offset="100%"></stop>
    </linearGradient>
    <linearGradient x1="50%" y1="29.7142317%" x2="50%" y2="100%" id="linearGradient-5">
      <stop stop-color="#005D74" stop-opacity="0" offset="0%"></stop>
      <stop stop-color="#00E0FF" offset="100%"></stop>
    </linearGradient>
    <linearGradient x1="50%" y1="99.3301498%" x2="50%" y2="0%" id="linearGradient-6">
      <stop stop-color="#00E2FF" offset="0%"></stop>
      <stop stop-color="#00B1FF" stop-opacity="0" offset="100%"></stop>
    </linearGradient>
    <linearGradient x1="50%" y1="99.3301498%" x2="50%" y2="0%" id="linearGradient-7">
      <stop stop-color="#00E2FF" offset="0%"></stop>
      <stop stop-color="#00B1FF" stop-opacity="0" offset="100%"></stop>
    </linearGradient>
    <polygon id="path-8" points="40.1443596 3.58804531 65.727956 12.5800252 56.8824216 20.8066644 22.1831593 20.8066644 14.5607631 12.5800252"></polygon>
    <filter x="-13.7%" y="-29.0%" width="127.4%" height="181.3%" filterUnits="objectBoundingBox" id="filter-9">
      <feOffset dx="0" dy="2" in="SourceAlpha" result="shadowOffsetOuter1"></feOffset>
      <feGaussianBlur stdDeviation="2" in="shadowOffsetOuter1" result="shadowBlurOuter1"></feGaussianBlur>
      <feComposite in="shadowBlurOuter1" in2="SourceAlpha" operator="out" result="shadowBlurOuter1"></feComposite>
      <feColorMatrix values="0 0 0 0 0   0 0 0 0 0   0 0 0 0 0  0 0 0 0.5 0" type="matrix" in="shadowBlurOuter1"></feColorMatrix>
    </filter>
    <linearGradient x1="50%" y1="99.3301498%" x2="50%" y2="0%" id="linearGradient-10">
      <stop stop-color="#00E2FF" offset="0%"></stop>
      <stop stop-color="#00B1FF" stop-opacity="0" offset="100%"></stop>
    </linearGradient>
    <polygon id="path-11" points="40.1443596 2.32538783 62.1461606 10.0584582 54.5390327 17.1333384 24.6977918 17.1333384 18.1425586 10.0584582"></polygon>
    <filter x="-15.9%" y="-33.8%" width="131.8%" height="194.5%" filterUnits="objectBoundingBox" id="filter-12">
      <feOffset dx="0" dy="2" in="SourceAlpha" result="shadowOffsetOuter1"></feOffset>
      <feGaussianBlur stdDeviation="2" in="shadowOffsetOuter1" result="shadowBlurOuter1"></feGaussianBlur>
      <feComposite in="shadowBlurOuter1" in2="SourceAlpha" operator="out" result="shadowBlurOuter1"></feComposite>
      <feColorMatrix values="0 0 0 0 0   0 0 0 0 0   0 0 0 0 0  0 0 0 0.5 0" type="matrix" in="shadowBlurOuter1"></feColorMatrix>
    </filter>
    <linearGradient x1="50%" y1="9.35091914%" x2="50%" y2="100%" id="linearGradient-13">
      <stop stop-color="#00F4F6" offset="0%"></stop>
      <stop stop-color="#00B3FD" offset="99.1953603%"></stop>
    </linearGradient>
    <path d="M16.8591176,14.8685294 C18.5942647,14.1807353 19.8264706,12.4892647 19.8264706,10.5123529 C19.8264706,7.9275 17.7233823,5.82485294 15.1385294,5.82485294 C12.5536765,5.82485294 10.4510294,7.9275 10.4510294,10.5123529 C10.4510294,12.4892647 11.6827941,14.1807353 13.4179412,14.8685294 C9.55985294,15.6661765 6.65029412,19.0901471 6.65029412,23.1811765 C6.65029412,24.1760294 7.3482353,24.5055882 7.90897058,24.7702941 L7.94117648,24.7835294 C10.2022059,25.5816177 13.4722059,25.7942647 15.0480882,25.7942647 C16.7664706,25.7942647 20.1304412,25.5154412 22.3645588,24.7438235 C23.2019118,24.422647 23.6267647,23.8967647 23.6267647,23.1811765 C23.6267647,19.0897059 20.7172059,15.6657353 16.8591176,14.8685294 L16.8591176,14.8685294 Z M11.2142647,14.4736765 C10.1038235,13.4382353 9.40544118,11.9669118 9.40544118,10.3288235 C9.40544118,8.32279409 10.4497059,6.56382352 12.0211765,5.55529412 L12.0211765,5.55485294 C12.0114706,5.54117646 11.997353,5.5332353 11.9863235,5.5217647 C11.9748529,5.50941176 11.9677941,5.49397058 11.9541176,5.48294118 C11.1221097,4.81479799 10.0873696,4.44991594 9.02029412,4.44838236 C6.43544118,4.44838236 4.33235294,6.55102942 4.33235294,9.13588236 C4.33235294,11.1127941 5.56455882,12.8042647 7.29970588,13.4920588 C3.44117648,14.2897059 0.532058818,17.7136765 0.532058818,21.8047059 C0.532058818,22.5207353 0.956911758,23.0461765 1.80529412,23.3717647 C3.0617647,23.8058823 4.62088236,24.0560294 5.73485294,24.1919118 C5.68856145,23.8154369 5.66498935,23.4365154 5.6642647,23.0572059 C5.6642647,19.2357353 7.94294118,15.9485294 11.2142647,14.4736765 Z M23.0510294,13.4925 C24.7861765,12.8047059 26.0183824,11.1132353 26.0183824,9.13632352 C26.0183824,6.55147058 23.9152941,4.44882352 21.3304412,4.44882352 C20.2482353,4.44882352 19.1916177,4.82691176 18.3564706,5.51294118 L18.2320588,5.61485294 C19.8061951,6.66682982 20.7508814,8.43553027 20.7498529,10.3288235 C20.7498529,11.9669118 20.0514706,13.4382353 18.9410294,14.4736765 C22.2123529,15.9485294 24.4910294,19.2357353 24.4910294,23.0572059 C24.4910294,23.4498529 24.4641177,23.8358824 24.4177941,24.2157353 L24.4411765,24.2130882 C25.5877941,24.0798529 27.2307353,23.8261765 28.5569118,23.3677941 C29.3942647,23.0466176 29.8191176,22.5207353 29.8191176,21.8051471 C29.8191176,17.7136765 26.9095588,14.2897059 23.0510294,13.4925 Z" id="path-14"></path>
    <filter x="-23.9%" y="-23.4%" width="147.8%" height="165.6%" filterUnits="objectBoundingBox" id="filter-15">
      <feOffset dx="0" dy="2" in="SourceAlpha" result="shadowOffsetOuter1"></feOffset>
      <feGaussianBlur stdDeviation="2" in="shadowOffsetOuter1" result="shadowBlurOuter1"></feGaussianBlur>
      <feColorMatrix values="0 0 0 0 0   0 0 0 0 0.0868338205   0 0 0 0 1  0 0 0 0.5 0" type="matrix" in="shadowBlurOuter1"></feColorMatrix>
    </filter>
  </defs>
  <g id="资源可视化" stroke="none" stroke-width="1" fill="none" fill-rule="evenodd">
    <g id="资源可视化6.0" transform="translate(-1400.000000, -575.000000)">
      <g id="编组-5" transform="translate(1400.000000, 515.000000)">
        <g id="客户服务数" transform="translate(0.000000, 60.000000)">
          <g id="编组-34" transform="translate(0.000000, 13.000000)">
            <polygon id="路径-11" fill="url(#linearGradient-1)" points="80 14.8079505 64.1677856 29.2045691 64.1677856 82.6777238 80 67.2605387"></polygon>
            <polygon id="路径-11备份" fill="url(#linearGradient-2)" transform="translate(7.916107, 48.742837) scale(-1, 1) translate(-7.916107, -48.742837) " points="15.8322144 14.8079505 0 29.2045691 0 82.6777238 15.8322144 67.2605387"></polygon>
            <rect id="矩形" fill="url(#linearGradient-3)" x="15.6306144" y="30.027233" width="48.5371712" height="53.4731547"></rect>
            <path d="M39.9428057,0.267168288 L79.5380667,14.9037287 L64.0297928,29.7313875 L15.358353,29.7313875 L0.675318034,15.3588151 L39.9428057,0.267168288 Z" id="多边形" stroke="url(#linearGradient-5)" stroke-width="0.5" fill="url(#linearGradient-4)"></path>
            <path d="M40.1117861,4.67644528 L72.4652054,16.3585907 L61.7247708,25.4353247 L17.0495206,25.4353247 L7.59762383,16.3691145 L40.1117861,4.67644528 Z" id="多边形备份" stroke="url(#linearGradient-6)" stroke-width="0.5" fill="#001D68"></path>
            <g id="多边形备份-2">
              <use fill="black" fill-opacity="1" filter="url(#filter-9)" xlink:href="#path-8"></use>
              <path stroke="url(#linearGradient-7)" stroke-width="0.5" d="M40.1443596,3.85303756 L65.2547623,12.678702 L56.7841358,20.5566644 L22.2923383,20.5566644 L15.003068,12.6895586 L40.1443596,3.85303756 Z" stroke-linejoin="square" fill="#001D68" fill-rule="evenodd"></path>
            </g>
            <g id="多边形备份-3">
              <use fill="black" fill-opacity="1" filter="url(#filter-12)" xlink:href="#path-11"></use>
              <path stroke="url(#linearGradient-10)" stroke-width="0.5" d="M40.1443596,2.59038008 L61.6729669,10.157135 L54.440747,16.8833384 L24.8069709,16.8833384 L18.5848634,10.1679916 L40.1443596,2.59038008 Z" stroke-linejoin="square" fill="#001D68" fill-rule="evenodd"></path>
            </g>
          </g>
          <g id="客户群组" transform="translate(25.000000, 0.000000)" fill-rule="nonzero">
            <rect id="矩形" fill="#000000" opacity="0" x="0" y="0" width="30" height="30"></rect>
            <g id="形状">
              <use fill="black" fill-opacity="1" filter="url(#filter-15)" xlink:href="#path-14"></use>
              <use fill="url(#linearGradient-13)" xlink:href="#path-14"></use>
            </g>
          </g>
        </g>
      </g>
    </g>
  </g>
</svg>
