<?xml version="1.0" encoding="UTF-8"?>
<svg xmlns="http://www.w3.org/2000/svg" xmlns:xlink="http://www.w3.org/1999/xlink" width="80px" height="97px" viewBox="0 0 80 97" version="1.1">
  <title>大客户收入</title>
  <defs>
    <linearGradient x1="50%" y1="21.8898291%" x2="50%" y2="78.2580358%" id="linearGradient-1">
      <stop stop-color="#000E4B" offset="0%"></stop>
      <stop stop-color="#000B43" stop-opacity="0" offset="100%"></stop>
    </linearGradient>
    <linearGradient x1="50%" y1="21.8898291%" x2="50%" y2="100%" id="linearGradient-2">
      <stop stop-color="#000E4B" offset="0%"></stop>
      <stop stop-color="#000B43" stop-opacity="0" offset="100%"></stop>
    </linearGradient>
    <linearGradient x1="50%" y1="8.98915309%" x2="50%" y2="95.7016746%" id="linearGradient-3">
      <stop stop-color="#00379E" offset="0%"></stop>
      <stop stop-color="#000840" stop-opacity="0" offset="100%"></stop>
    </linearGradient>
    <linearGradient x1="50%" y1="28.5656905%" x2="50%" y2="100%" id="linearGradient-4">
      <stop stop-color="#00001A" stop-opacity="0" offset="0%"></stop>
      <stop stop-color="#00000B" offset="100%"></stop>
    </linearGradient>
    <linearGradient x1="50%" y1="29.7142317%" x2="50%" y2="100%" id="linearGradient-5">
      <stop stop-color="#005D74" stop-opacity="0" offset="0%"></stop>
      <stop stop-color="#00E0FF" offset="100%"></stop>
    </linearGradient>
    <linearGradient x1="50%" y1="99.3301498%" x2="50%" y2="0%" id="linearGradient-6">
      <stop stop-color="#00E2FF" offset="0%"></stop>
      <stop stop-color="#00B1FF" stop-opacity="0" offset="100%"></stop>
    </linearGradient>
    <linearGradient x1="50%" y1="99.3301498%" x2="50%" y2="0%" id="linearGradient-7">
      <stop stop-color="#00E2FF" offset="0%"></stop>
      <stop stop-color="#00B1FF" stop-opacity="0" offset="100%"></stop>
    </linearGradient>
    <polygon id="path-8" points="40.1443596 3.58802865 65.727956 12.5799668 56.8824216 20.8065678 22.1831593 20.8065678 14.5607631 12.5799668"></polygon>
    <filter x="-13.7%" y="-29.0%" width="127.4%" height="181.3%" filterUnits="objectBoundingBox" id="filter-9">
      <feOffset dx="0" dy="2" in="SourceAlpha" result="shadowOffsetOuter1"></feOffset>
      <feGaussianBlur stdDeviation="2" in="shadowOffsetOuter1" result="shadowBlurOuter1"></feGaussianBlur>
      <feComposite in="shadowBlurOuter1" in2="SourceAlpha" operator="out" result="shadowBlurOuter1"></feComposite>
      <feColorMatrix values="0 0 0 0 0   0 0 0 0 0   0 0 0 0 0  0 0 0 0.5 0" type="matrix" in="shadowBlurOuter1"></feColorMatrix>
    </filter>
    <linearGradient x1="50%" y1="99.3301498%" x2="50%" y2="0%" id="linearGradient-10">
      <stop stop-color="#00E2FF" offset="0%"></stop>
      <stop stop-color="#00B1FF" stop-opacity="0" offset="100%"></stop>
    </linearGradient>
    <polygon id="path-11" points="40.1443596 2.32537704 62.1461606 10.0584115 54.5390327 17.1332588 24.6977918 17.1332588 18.1425586 10.0584115"></polygon>
    <filter x="-15.9%" y="-33.8%" width="131.8%" height="194.5%" filterUnits="objectBoundingBox" id="filter-12">
      <feOffset dx="0" dy="2" in="SourceAlpha" result="shadowOffsetOuter1"></feOffset>
      <feGaussianBlur stdDeviation="2" in="shadowOffsetOuter1" result="shadowBlurOuter1"></feGaussianBlur>
      <feComposite in="shadowBlurOuter1" in2="SourceAlpha" operator="out" result="shadowBlurOuter1"></feComposite>
      <feColorMatrix values="0 0 0 0 0   0 0 0 0 0   0 0 0 0 0  0 0 0 0.5 0" type="matrix" in="shadowBlurOuter1"></feColorMatrix>
    </filter>
    <linearGradient x1="50%" y1="9.35091914%" x2="50%" y2="100%" id="linearGradient-13">
      <stop stop-color="#00F4F6" offset="0%"></stop>
      <stop stop-color="#00B3FD" offset="99.1953603%"></stop>
    </linearGradient>
    <path d="M16.6355556,3.97777778 C13.9333333,3.97777778 11.4444444,4.68888891 11.4444444,4.68888888 C11.4444444,4.68888884 7.24888887,2.69777775 5.11555556,3.12444444 C2.91111112,4.33333331 4.97333334,5.82666666 5.96888887,6.89333334 C3.83555553,8.74222222 2.48444444,11.2311111 2.27111112,13.8622222 C1.77333334,15.0711111 1.48888891,14.1466667 0.92,14.8577778 C0.635555562,15.2133333 -0.0044444375,18.1288889 0.848888875,19.1955556 C2.2,20.4044444 2.98222222,19.0533333 4.47555556,20.6888889 C5.18666669,21.6133333 6.11111112,22.3955555 7.17777778,23.1066667 C7.46222222,23.3911111 6.39555556,23.8888889 6.89333334,25.4533333 C7.17777778,26.0222222 9.73777778,26.0933333 10.4488889,25.8088889 C10.8755555,25.4533333 10.4488889,25.0266667 10.7333333,24.9555556 C10.9466667,25.0266667 11.0888889,25.0977778 11.3022222,25.1688889 C11.5866667,25.3822222 10.9466667,26.9466667 12.1555556,26.8755556 C12.5822222,26.9466667 13.5066667,26.9466667 14.5022222,26.8755556 C15.0711111,26.7333333 14.8577778,25.88 15.0711111,25.88 C15.64,25.9511111 16.2088889,25.9511111 16.7777778,25.9511111 C18.4133333,25.9511111 19.4088889,25.88 20.8311111,25.5244444 C21.6844445,25.3822222 20.4755556,26.5911111 21.1866667,26.8044444 C21.4711111,26.6622222 24.0311111,27.16 24.5288889,26.52 C25.3822222,25.8088889 24.5288889,23.6044444 25.24,23.2488889 C28.5822222,21.1866667 29.5066667,18.5555555 29.5066667,14.9288889 C29.6488889,8.88444444 24.3155556,3.97777778 16.6355556,3.97777778 Z M7.81777778,11.2311111 C7.24888891,11.2311111 6.75111113,10.7333333 6.75111113,10.1644444 C6.75111113,9.59555553 7.24888891,9.09777778 7.81777778,9.09777778 C8.38666666,9.09777778 8.88444444,9.59555556 8.88444444,10.1644444 C8.88444444,10.7333333 8.38666666,11.2311111 7.81777778,11.2311111 Z M25.7377778,11.2311111 C25.5244444,11.5155556 25.24,11.6577778 24.8844444,11.6577778 C24.6711111,11.6577778 24.4577778,11.5866667 24.2444444,11.4444444 C22.8933333,10.4488889 21.2577778,9.73777778 19.4088889,9.38222222 C18.84,9.31111109 18.2711111,9.24 17.6311111,9.16888888 C17.0622223,9.16888888 16.5644445,8.67111109 16.6355556,8.03111113 C16.6355556,7.46222225 17.1333333,6.96444447 17.7733333,7.03555556 C18.4844445,7.03555556 19.1244445,7.17777778 19.7644444,7.24888888 C21.8977778,7.60444444 23.8888889,8.45777775 25.5244444,9.73777778 C26.0222222,10.0933333 26.0933333,10.8044444 25.7377778,11.2311111 Z" id="path-14"></path>
    <filter x="-24.1%" y="-21.0%" width="148.1%" height="158.7%" filterUnits="objectBoundingBox" id="filter-15">
      <feOffset dx="0" dy="2" in="SourceAlpha" result="shadowOffsetOuter1"></feOffset>
      <feGaussianBlur stdDeviation="2" in="shadowOffsetOuter1" result="shadowBlurOuter1"></feGaussianBlur>
      <feColorMatrix values="0 0 0 0 0   0 0 0 0 0.0868338205   0 0 0 0 1  0 0 0 0.5 0" type="matrix" in="shadowBlurOuter1"></feColorMatrix>
    </filter>
  </defs>
  <g id="资源可视化" stroke="none" stroke-width="1" fill="none" fill-rule="evenodd">
    <g id="资源可视化6.0" transform="translate(-1550.000000, -576.000000)">
      <g id="编组-5" transform="translate(1400.000000, 515.000000)">
        <g id="编组-14备份-4" transform="translate(141.000000, 61.000000)">
          <g id="大客户收入" transform="translate(9.000000, 0.000000)">
            <g id="编组-34" transform="translate(0.000000, 13.000000)">
              <polygon id="路径-11" fill="url(#linearGradient-1)" points="80 14.8078818 64.1677856 29.2044335 64.1677856 82.6773399 80 67.2602264"></polygon>
              <polygon id="路径-11备份" fill="url(#linearGradient-2)" transform="translate(7.916107, 48.742611) scale(-1, 1) translate(-7.916107, -48.742611) " points="15.8322144 14.8078818 0 29.2044335 0 82.6773399 15.8322144 67.2602264"></polygon>
              <rect id="矩形" fill="url(#linearGradient-3)" x="15.6306144" y="30.0270936" width="48.5371712" height="53.4729064"></rect>
              <path d="M39.9428057,0.267168134 L79.5380652,14.90366 L64.0297931,29.7312483 L15.3583526,29.7312483 L0.675319438,15.3587443 L39.9428057,0.267168134 Z" id="多边形" stroke="url(#linearGradient-5)" stroke-width="0.5" fill="url(#linearGradient-4)"></path>
              <path d="M40.1117861,4.67642466 L72.4652037,16.3585152 L61.7247711,25.4352054 L17.0495203,25.4352054 L7.59762529,16.3690391 L40.1117861,4.67642466 Z" id="多边形备份" stroke="url(#linearGradient-6)" stroke-width="0.5" fill="#001D68"></path>
              <g id="多边形备份-2">
                <use fill="black" fill-opacity="1" filter="url(#filter-9)" xlink:href="#path-8"></use>
                <path stroke="url(#linearGradient-7)" stroke-width="0.5" d="M40.1443596,3.85302077 L65.2547608,12.6786437 L56.7841362,20.5565678 L22.2923379,20.5565678 L15.0030693,12.6895003 L40.1443596,3.85302077 Z" stroke-linejoin="square" fill="#001D68" fill-rule="evenodd"></path>
              </g>
              <g id="多边形备份-3">
                <use fill="black" fill-opacity="1" filter="url(#filter-12)" xlink:href="#path-11"></use>
                <path stroke="url(#linearGradient-10)" stroke-width="0.5" d="M40.1443596,2.59036915 L61.6729654,10.1570884 L54.4407473,16.8832588 L24.8069705,16.8832588 L18.5848648,10.1679451 L40.1443596,2.59036915 Z" stroke-linejoin="square" fill="#001D68" fill-rule="evenodd"></path>
              </g>
            </g>
            <g id="收入2" transform="translate(25.000000, 0.000000)" fill-rule="nonzero">
              <rect id="矩形" fill="#000000" opacity="0" x="0" y="0" width="30" height="30"></rect>
              <g id="形状">
                <use fill="black" fill-opacity="1" filter="url(#filter-15)" xlink:href="#path-14"></use>
                <use fill="url(#linearGradient-13)" xlink:href="#path-14"></use>
              </g>
            </g>
          </g>
        </g>
      </g>
    </g>
  </g>
</svg>
