<?xml version="1.0" encoding="UTF-8"?>
<svg xmlns="http://www.w3.org/2000/svg" xmlns:xlink="http://www.w3.org/1999/xlink" width="80px" height="98px" viewBox="0 0 80 98" version="1.1">
  <title>高价值楼宇</title>
  <defs>
    <linearGradient x1="50%" y1="21.8898291%" x2="50%" y2="78.2580358%" id="linearGradient-1">
      <stop stop-color="#000E4B" offset="0%"></stop>
      <stop stop-color="#000B43" stop-opacity="0" offset="100%"></stop>
    </linearGradient>
    <linearGradient x1="50%" y1="21.8898291%" x2="50%" y2="100%" id="linearGradient-2">
      <stop stop-color="#000E4B" offset="0%"></stop>
      <stop stop-color="#000B43" stop-opacity="0" offset="100%"></stop>
    </linearGradient>
    <linearGradient x1="50%" y1="8.98915309%" x2="50%" y2="95.7016746%" id="linearGradient-3">
      <stop stop-color="#00379E" offset="0%"></stop>
      <stop stop-color="#000840" stop-opacity="0" offset="100%"></stop>
    </linearGradient>
    <linearGradient x1="50%" y1="28.5656905%" x2="50%" y2="100%" id="linearGradient-4">
      <stop stop-color="#00001A" stop-opacity="0" offset="0%"></stop>
      <stop stop-color="#00000B" offset="100%"></stop>
    </linearGradient>
    <linearGradient x1="50%" y1="29.7142317%" x2="50%" y2="100%" id="linearGradient-5">
      <stop stop-color="#005D74" stop-opacity="0" offset="0%"></stop>
      <stop stop-color="#00E0FF" offset="100%"></stop>
    </linearGradient>
    <linearGradient x1="50%" y1="99.3301498%" x2="50%" y2="0%" id="linearGradient-6">
      <stop stop-color="#00E2FF" offset="0%"></stop>
      <stop stop-color="#00B1FF" stop-opacity="0" offset="100%"></stop>
    </linearGradient>
    <linearGradient x1="50%" y1="99.3301498%" x2="50%" y2="0%" id="linearGradient-7">
      <stop stop-color="#00E2FF" offset="0%"></stop>
      <stop stop-color="#00B1FF" stop-opacity="0" offset="100%"></stop>
    </linearGradient>
    <polygon id="path-8" points="40.1443596 3.58804531 65.727956 12.5800252 56.8824216 20.8066644 22.1831593 20.8066644 14.5607631 12.5800252"></polygon>
    <filter x="-13.7%" y="-29.0%" width="127.4%" height="181.3%" filterUnits="objectBoundingBox" id="filter-9">
      <feOffset dx="0" dy="2" in="SourceAlpha" result="shadowOffsetOuter1"></feOffset>
      <feGaussianBlur stdDeviation="2" in="shadowOffsetOuter1" result="shadowBlurOuter1"></feGaussianBlur>
      <feComposite in="shadowBlurOuter1" in2="SourceAlpha" operator="out" result="shadowBlurOuter1"></feComposite>
      <feColorMatrix values="0 0 0 0 0   0 0 0 0 0   0 0 0 0 0  0 0 0 0.5 0" type="matrix" in="shadowBlurOuter1"></feColorMatrix>
    </filter>
    <linearGradient x1="50%" y1="99.3301498%" x2="50%" y2="0%" id="linearGradient-10">
      <stop stop-color="#00E2FF" offset="0%"></stop>
      <stop stop-color="#00B1FF" stop-opacity="0" offset="100%"></stop>
    </linearGradient>
    <polygon id="path-11" points="40.1443596 2.32538783 62.1461606 10.0584582 54.5390327 17.1333384 24.6977918 17.1333384 18.1425586 10.0584582"></polygon>
    <filter x="-15.9%" y="-33.8%" width="131.8%" height="194.5%" filterUnits="objectBoundingBox" id="filter-12">
      <feOffset dx="0" dy="2" in="SourceAlpha" result="shadowOffsetOuter1"></feOffset>
      <feGaussianBlur stdDeviation="2" in="shadowOffsetOuter1" result="shadowBlurOuter1"></feGaussianBlur>
      <feComposite in="shadowBlurOuter1" in2="SourceAlpha" operator="out" result="shadowBlurOuter1"></feComposite>
      <feColorMatrix values="0 0 0 0 0   0 0 0 0 0   0 0 0 0 0  0 0 0 0.5 0" type="matrix" in="shadowBlurOuter1"></feColorMatrix>
    </filter>
    <linearGradient x1="50%" y1="9.35091914%" x2="50%" y2="100%" id="linearGradient-13">
      <stop stop-color="#00F4F6" offset="0%"></stop>
      <stop stop-color="#00B3FD" offset="99.1953603%"></stop>
    </linearGradient>
    <path d="M28.75,12.8125 L28.75,28.125 C28.75,28.470178 28.470178,28.75 28.125,28.75 L25.625,28.75 C25.4592397,28.75 25.3002685,28.684152 25.1830583,28.5669417 C25.065848,28.4497315 25,28.2907603 25,28.125 L25,11.875 C25,11.7092397 25.065848,11.5502685 25.1830583,11.4330582 C25.3002685,11.315848 25.4592397,11.25 25.625,11.25 L27.1875,11.25 C28.0500433,11.2509687 28.7490313,11.9499567 28.75,12.8125 Z M5.625,6.24999999 L2.8125,6.24999999 C1.94995665,6.25096872 1.25096872,6.94995666 1.25000001,7.81250001 L1.25000001,28.125 C1.25000001,28.470178 1.52982204,28.75 1.875,28.75 L5.625,28.75 C5.7907603,28.75 5.9497315,28.684152 6.06694173,28.5669417 C6.18415197,28.4497315 6.25000001,28.2907603 6.25000001,28.125 L6.25000001,6.87500001 C6.25000001,6.7092397 6.18415198,6.5502685 6.06694174,6.43305826 C5.94973151,6.31584802 5.79076031,6.24999999 5.625,6.24999999 Z M22.1875,1.25000001 L9.06249999,1.25000001 C8.19995665,1.25096874 7.50096873,1.94995666 7.5,2.8125 L7.5,28.125 C7.5,28.470178 7.77982203,28.75 8.12499999,28.75 L13.125,28.75 C13.2907603,28.75 13.4497315,28.684152 13.5669417,28.5669417 C13.684152,28.4497315 13.75,28.2907603 13.75,28.125 L13.75,20.9375 C13.7505383,20.4199562 14.1699562,20.0005383 14.6875,20 L16.5625,20 C17.0800438,20.0005383 17.4994617,20.4199562 17.5,20.9375 L17.5,28.125 C17.5,28.2907603 17.565848,28.4497315 17.6830583,28.5669417 C17.8002685,28.684152 17.9592397,28.75 18.125,28.75 L23.125,28.75 C23.2907603,28.75 23.4497315,28.684152 23.5669417,28.5669417 C23.684152,28.4497315 23.75,28.2907603 23.75,28.125 L23.75,2.8125 C23.7490313,1.94995665 23.0500433,1.25096872 22.1875,1.25000001 L22.1875,1.25000001 Z" id="path-14"></path>
    <filter x="-25.5%" y="-18.2%" width="150.9%" height="150.9%" filterUnits="objectBoundingBox" id="filter-15">
      <feOffset dx="0" dy="2" in="SourceAlpha" result="shadowOffsetOuter1"></feOffset>
      <feGaussianBlur stdDeviation="2" in="shadowOffsetOuter1" result="shadowBlurOuter1"></feGaussianBlur>
      <feColorMatrix values="0 0 0 0 0   0 0 0 0 0.0868338205   0 0 0 0 1  0 0 0 0.5 0" type="matrix" in="shadowBlurOuter1"></feColorMatrix>
    </filter>
  </defs>
  <g id="资源可视化" stroke="none" stroke-width="1" fill="none" fill-rule="evenodd">
    <g id="资源可视化6.0" transform="translate(-1699.000000, -574.000000)">
      <g id="编组-5" transform="translate(1400.000000, 515.000000)">
        <g id="高价值楼宇" transform="translate(299.000000, 60.000000)">
          <g id="编组-34" transform="translate(0.000000, 13.000000)">
            <polygon id="路径-11" fill="url(#linearGradient-1)" points="80 14.8079505 64.1677856 29.2045691 64.1677856 82.6777238 80 67.2605387"></polygon>
            <polygon id="路径-11备份" fill="url(#linearGradient-2)" transform="translate(7.916107, 48.742837) scale(-1, 1) translate(-7.916107, -48.742837) " points="15.8322144 14.8079505 0 29.2045691 0 82.6777238 15.8322144 67.2605387"></polygon>
            <rect id="矩形" fill="url(#linearGradient-3)" x="15.6306144" y="30.027233" width="48.5371712" height="53.4731547"></rect>
            <path d="M39.9428057,0.267168288 L79.5380667,14.9037287 L64.0297928,29.7313875 L15.358353,29.7313875 L0.675318034,15.3588151 L39.9428057,0.267168288 Z" id="多边形" stroke="url(#linearGradient-5)" stroke-width="0.5" fill="url(#linearGradient-4)"></path>
            <path d="M40.1117861,4.67644528 L72.4652054,16.3585907 L61.7247708,25.4353247 L17.0495206,25.4353247 L7.59762383,16.3691145 L40.1117861,4.67644528 Z" id="多边形备份" stroke="url(#linearGradient-6)" stroke-width="0.5" fill="#001D68"></path>
            <g id="多边形备份-2">
              <use fill="black" fill-opacity="1" filter="url(#filter-9)" xlink:href="#path-8"></use>
              <path stroke="url(#linearGradient-7)" stroke-width="0.5" d="M40.1443596,3.85303756 L65.2547623,12.678702 L56.7841358,20.5566644 L22.2923383,20.5566644 L15.003068,12.6895586 L40.1443596,3.85303756 Z" stroke-linejoin="square" fill="#001D68" fill-rule="evenodd"></path>
            </g>
            <g id="多边形备份-3">
              <use fill="black" fill-opacity="1" filter="url(#filter-12)" xlink:href="#path-11"></use>
              <path stroke="url(#linearGradient-10)" stroke-width="0.5" d="M40.1443596,2.59038008 L61.6729669,10.157135 L54.440747,16.8833384 L24.8069709,16.8833384 L18.5848634,10.1679916 L40.1443596,2.59038008 Z" stroke-linejoin="square" fill="#001D68" fill-rule="evenodd"></path>
            </g>
          </g>
          <g id="24gf-building3" transform="translate(25.000000, 0.000000)" fill-rule="nonzero">
            <rect id="矩形" fill="#000000" opacity="0" x="0" y="0" width="30" height="30"></rect>
            <g id="形状">
              <use fill="black" fill-opacity="1" filter="url(#filter-15)" xlink:href="#path-14"></use>
              <use fill="url(#linearGradient-13)" xlink:href="#path-14"></use>
            </g>
          </g>
        </g>
      </g>
    </g>
  </g>
</svg>
