<?xml version="1.0" encoding="UTF-8"?>
<svg xmlns="http://www.w3.org/2000/svg" xmlns:xlink="http://www.w3.org/1999/xlink" width="80px" height="98px" viewBox="0 0 80 98" version="1.1">
  <title>IDC收入</title>
  <defs>
    <linearGradient x1="50%" y1="21.8898291%" x2="50%" y2="78.2580358%" id="linearGradient-1">
      <stop stop-color="#000E4B" offset="0%"></stop>
      <stop stop-color="#000B43" stop-opacity="0" offset="100%"></stop>
    </linearGradient>
    <linearGradient x1="50%" y1="21.8898291%" x2="50%" y2="100%" id="linearGradient-2">
      <stop stop-color="#000E4B" offset="0%"></stop>
      <stop stop-color="#000B43" stop-opacity="0" offset="100%"></stop>
    </linearGradient>
    <linearGradient x1="50%" y1="8.98915309%" x2="50%" y2="95.7016746%" id="linearGradient-3">
      <stop stop-color="#00379E" offset="0%"></stop>
      <stop stop-color="#000840" stop-opacity="0" offset="100%"></stop>
    </linearGradient>
    <linearGradient x1="50%" y1="28.5656905%" x2="50%" y2="100%" id="linearGradient-4">
      <stop stop-color="#00001A" stop-opacity="0" offset="0%"></stop>
      <stop stop-color="#00000B" offset="100%"></stop>
    </linearGradient>
    <linearGradient x1="50%" y1="29.7142317%" x2="50%" y2="100%" id="linearGradient-5">
      <stop stop-color="#005D74" stop-opacity="0" offset="0%"></stop>
      <stop stop-color="#00E0FF" offset="100%"></stop>
    </linearGradient>
    <linearGradient x1="50%" y1="99.3301498%" x2="50%" y2="0%" id="linearGradient-6">
      <stop stop-color="#00E2FF" offset="0%"></stop>
      <stop stop-color="#00B1FF" stop-opacity="0" offset="100%"></stop>
    </linearGradient>
    <linearGradient x1="50%" y1="99.3301498%" x2="50%" y2="0%" id="linearGradient-7">
      <stop stop-color="#00E2FF" offset="0%"></stop>
      <stop stop-color="#00B1FF" stop-opacity="0" offset="100%"></stop>
    </linearGradient>
    <polygon id="path-8" points="40.1443596 3.58804531 65.727956 12.5800252 56.8824216 20.8066644 22.1831593 20.8066644 14.5607631 12.5800252"></polygon>
    <filter x="-13.7%" y="-29.0%" width="127.4%" height="181.3%" filterUnits="objectBoundingBox" id="filter-9">
      <feOffset dx="0" dy="2" in="SourceAlpha" result="shadowOffsetOuter1"></feOffset>
      <feGaussianBlur stdDeviation="2" in="shadowOffsetOuter1" result="shadowBlurOuter1"></feGaussianBlur>
      <feComposite in="shadowBlurOuter1" in2="SourceAlpha" operator="out" result="shadowBlurOuter1"></feComposite>
      <feColorMatrix values="0 0 0 0 0   0 0 0 0 0   0 0 0 0 0  0 0 0 0.5 0" type="matrix" in="shadowBlurOuter1"></feColorMatrix>
    </filter>
    <linearGradient x1="50%" y1="99.3301498%" x2="50%" y2="0%" id="linearGradient-10">
      <stop stop-color="#00E2FF" offset="0%"></stop>
      <stop stop-color="#00B1FF" stop-opacity="0" offset="100%"></stop>
    </linearGradient>
    <polygon id="path-11" points="40.1443596 2.32538783 62.1461606 10.0584582 54.5390327 17.1333384 24.6977918 17.1333384 18.1425586 10.0584582"></polygon>
    <filter x="-15.9%" y="-33.8%" width="131.8%" height="194.5%" filterUnits="objectBoundingBox" id="filter-12">
      <feOffset dx="0" dy="2" in="SourceAlpha" result="shadowOffsetOuter1"></feOffset>
      <feGaussianBlur stdDeviation="2" in="shadowOffsetOuter1" result="shadowBlurOuter1"></feGaussianBlur>
      <feComposite in="shadowBlurOuter1" in2="SourceAlpha" operator="out" result="shadowBlurOuter1"></feComposite>
      <feColorMatrix values="0 0 0 0 0   0 0 0 0 0   0 0 0 0 0  0 0 0 0.5 0" type="matrix" in="shadowBlurOuter1"></feColorMatrix>
    </filter>
    <linearGradient x1="50%" y1="9.35091914%" x2="50%" y2="100%" id="linearGradient-13">
      <stop stop-color="#00F4F6" offset="0%"></stop>
      <stop stop-color="#00B3FD" offset="99.1953603%"></stop>
    </linearGradient>
    <path d="M16.0019531,1.72851562 L16.0019531,3.515625 L25.6230469,9.0703125 L25.6230469,20.1796875 L25.2451172,20.3964844 L25.2451172,20.296875 L24.796875,20.6835937 L24.796875,9.52148437 L13.4912109,3.09667969 L2.90625,9.20800781 L2.90625,22.1044922 L14.0742188,28.5527344 L15.9990234,27.4423828 L15.9990234,27.5214844 L27.1669922,21.0732422 L27.1669922,8.17675781 L16.0019531,1.72851562 Z M18.0644531,15.65625 L18.0644531,17.71875 L14.9707031,17.71875 L14.9707031,22.3623047 L12.9082031,22.3623047 L12.9082031,17.71875 L9.81152344,17.71875 L9.81152344,15.65625 L12.9082031,15.65625 L12.9082031,14.5927734 L9.39257813,11.6630859 L10.7138672,10.078125 L13.8867188,12.7236328 L17.1943359,10.078125 L18.4833984,11.6894531 L14.9707031,14.5019531 L14.9707031,15.65625 L18.0644531,15.65625 Z" id="path-14"></path>
    <filter x="-28.9%" y="-18.6%" width="157.7%" height="152.2%" filterUnits="objectBoundingBox" id="filter-15">
      <feOffset dx="0" dy="2" in="SourceAlpha" result="shadowOffsetOuter1"></feOffset>
      <feGaussianBlur stdDeviation="2" in="shadowOffsetOuter1" result="shadowBlurOuter1"></feGaussianBlur>
      <feColorMatrix values="0 0 0 0 0   0 0 0 0 0.0868338205   0 0 0 0 1  0 0 0 0.5 0" type="matrix" in="shadowBlurOuter1"></feColorMatrix>
    </filter>
  </defs>
  <g id="资源可视化" stroke="none" stroke-width="1" fill="none" fill-rule="evenodd">
    <g id="资源可视化6.0" transform="translate(-1550.000000, -680.000000)">
      <g id="编组-5" transform="translate(1400.000000, 515.000000)">
        <g id="IDC收入" transform="translate(150.000000, 166.000000)">
          <g id="编组-34" transform="translate(40.000000, 54.750194) scale(-1, 1) translate(-40.000000, -54.750194) translate(0.000000, 13.000000)">
            <polygon id="路径-11" fill="url(#linearGradient-1)" points="80 14.8079505 64.1677856 29.2045691 64.1677856 82.6777238 80 67.2605387"></polygon>
            <polygon id="路径-11备份" fill="url(#linearGradient-2)" transform="translate(7.916107, 48.742837) scale(-1, 1) translate(-7.916107, -48.742837) " points="15.8322144 14.8079505 0 29.2045691 0 82.6777238 15.8322144 67.2605387"></polygon>
            <rect id="矩形" fill="url(#linearGradient-3)" x="15.6306144" y="30.027233" width="48.5371712" height="53.4731547"></rect>
            <path d="M39.9428057,0.267168288 L79.5380667,14.9037287 L64.0297928,29.7313875 L15.358353,29.7313875 L0.675318034,15.3588151 L39.9428057,0.267168288 Z" id="多边形" stroke="url(#linearGradient-5)" stroke-width="0.5" fill="url(#linearGradient-4)"></path>
            <path d="M40.1117861,4.67644528 L72.4652054,16.3585907 L61.7247708,25.4353247 L17.0495206,25.4353247 L7.59762383,16.3691145 L40.1117861,4.67644528 Z" id="多边形备份" stroke="url(#linearGradient-6)" stroke-width="0.5" fill="#001D68"></path>
            <g id="多边形备份-2">
              <use fill="black" fill-opacity="1" filter="url(#filter-9)" xlink:href="#path-8"></use>
              <path stroke="url(#linearGradient-7)" stroke-width="0.5" d="M40.1443596,3.85303756 L65.2547623,12.678702 L56.7841358,20.5566644 L22.2923383,20.5566644 L15.003068,12.6895586 L40.1443596,3.85303756 Z" stroke-linejoin="square" fill="#001D68" fill-rule="evenodd"></path>
            </g>
            <g id="多边形备份-3">
              <use fill="black" fill-opacity="1" filter="url(#filter-12)" xlink:href="#path-11"></use>
              <path stroke="url(#linearGradient-10)" stroke-width="0.5" d="M40.1443596,2.59038008 L61.6729669,10.157135 L54.440747,16.8833384 L24.8069709,16.8833384 L18.5848634,10.1679916 L40.1443596,2.59038008 Z" stroke-linejoin="square" fill="#001D68" fill-rule="evenodd"></path>
            </g>
          </g>
          <g id="经营数据" transform="translate(40.000000, 15.000000) scale(-1, 1) translate(-40.000000, -15.000000) translate(25.000000, 0.000000)" fill-rule="nonzero">
            <rect id="矩形" fill="#000000" opacity="0" x="0" y="0" width="30" height="30"></rect>
            <g id="形状">
              <use fill="black" fill-opacity="1" filter="url(#filter-15)" xlink:href="#path-14"></use>
              <use fill="url(#linearGradient-13)" xlink:href="#path-14"></use>
            </g>
          </g>
        </g>
      </g>
    </g>
  </g>
</svg>
