<?xml version="1.0" encoding="UTF-8"?>
<svg width="40px" height="43px" viewBox="0 0 40 43" version="1.1" xmlns="http://www.w3.org/2000/svg" xmlns:xlink="http://www.w3.org/1999/xlink">
    <title>基站</title>
    <defs>
        <filter x="-27.2%" y="-27.1%" width="154.3%" height="154.2%" filterUnits="objectBoundingBox" id="filter-1">
            <feOffset dx="0" dy="1" in="SourceAlpha" result="shadowOffsetOuter1"></feOffset>
            <feGaussianBlur stdDeviation="1" in="shadowOffsetOuter1" result="shadowBlurOuter1"></feGaussianBlur>
            <feColorMatrix values="0 0 0 0 0   0 0 0 0 1   0 0 0 0 0.916165865  0 0 0 0.5 0" type="matrix" in="shadowBlurOuter1" result="shadowMatrixOuter1"></feColorMatrix>
            <feMerge>
                <feMergeNode in="shadowMatrixOuter1"></feMergeNode>
                <feMergeNode in="SourceGraphic"></feMergeNode>
            </feMerge>
        </filter>
        <linearGradient x1="50%" y1="9.35091914%" x2="50%" y2="100%" id="linearGradient-2">
            <stop stop-color="#2E6DFF" offset="0%"></stop>
            <stop stop-color="#00CFF6" offset="100%"></stop>
        </linearGradient>
    </defs>
    <g id="资源可视化" stroke="none" stroke-width="1" fill="none" fill-rule="evenodd">
        <g id="资源可视化6.0" transform="translate(-430.000000, -300.000000)">
            <g id="编组-21" transform="translate(94.000000, 252.000000)">
                <g id="基站" transform="translate(336.000000, 51.000000)">
                    <g id="编组" transform="translate(0.000000, 17.050426)">
                        <path d="M0.51107826,16.5946478 L6.50620757,0.700882238 C6.65280813,0.312227578 7.02441039,0.0546693687 7.43979387,0.053811859 L32.8041528,0.00145016287 C33.2256621,0.000580007026 33.6024595,0.264108941 33.7462407,0.660338517 L39.5140613,16.5551963 C39.7024509,17.074357 39.4343079,17.6479398 38.9151472,17.8363294 C38.8062339,17.8758511 38.6912808,17.8961449 38.5754186,17.8963049 L1.44810984,17.9475743 C0.89582562,17.948337 0.447492543,17.5012404 0.446729889,16.9489562 C0.446562766,16.8279326 0.468365658,16.7078837 0.51107826,16.5946478 Z" id="路径-2" fill="#153159"></path>
                        <path d="M3.75989548,14.5175308 L8.1750748,2.60211693 C8.32040803,2.20990056 8.69449393,1.94957405 9.11277067,1.94957405 L31.8069607,1.94957405 C32.2351832,1.94957405 32.6158776,2.22223102 32.7537291,2.6276586 L36.8051484,14.5430724 C36.9829374,15.0659582 36.7031812,15.6339673 36.1802954,15.8117563 C36.0766282,15.8470047 35.9678758,15.8649879 35.85838,15.8649879 L4.69759136,15.8649879 C4.14530661,15.8649879 3.69759136,15.4172726 3.69759136,14.8649879 C3.69759136,14.7463906 3.71868802,14.6287389 3.75989548,14.5175308 Z" id="路径-2备份" fill="#114B76"></path>
                    </g>
                    <g id="信号电信设施" filter="url(#filter-1)" transform="translate(7.976742, 2.000000)" fill-rule="nonzero">
                        <rect id="矩形" fill="#000000" opacity="0" x="0" y="0" width="23.9302269" height="24"></rect>
                        <path d="M11.8989845,23.9647225 C5.24106862,23.8532455 -0.087233903,18.4289746 0.0211049645,11.8715899 C0.129443832,5.24788336 5.5984462,-0.101599242 12.1522442,0.0366886172 C18.7524732,0.174976477 23.9274129,5.40592662 23.9105701,12.0903105 C23.8950519,18.7126058 18.3739907,24.0719662 11.8989845,23.9647225 Z" id="路径" fill="url(#linearGradient-2)"></path>
                        <path d="M11.9622056,8.83282312 C12.6554655,8.83673782 13.2650698,9.29378863 13.4649736,9.95954845 C13.6647674,10.6255879 13.4072867,11.3438382 12.8304174,11.7304798 L12.8304174,11.7304798 L15.4966791,19.079492 C15.596576,19.3574788 15.4544692,19.6650988 15.1772905,19.766698 L15.1772905,19.766698 L15.0703587,19.8062089 C14.79318,19.906397 14.4864544,19.7638758 14.3851505,19.485889 L14.3851505,19.485889 L13.8096882,17.8984008 L10.0797357,17.8984008 L9.51693642,19.4477893 C9.40437655,19.7554092 9.06528998,19.9148636 8.75856435,19.8033866 C8.45251197,19.6901944 8.29482136,19.3505805 8.40540778,19.0428034 L8.40540778,19.0428034 L11.0632275,11.7206021 C10.4902997,11.3283443 10.2401743,10.6067074 10.4469623,9.94261523 C10.6542808,9.27914022 11.2689458,8.82895844 11.9622056,8.83282312 Z M13.0442811,15.7888053 L10.8465498,15.7888053 L10.4638463,16.8443086 L13.4269847,16.8443086 L13.0442811,15.7888053 Z M11.9454155,12.7619944 L11.2292533,14.733302 L12.6615776,14.733302 L11.9454155,12.7619944 Z M17.1738211,6.71825023 C17.3804133,6.66629106 17.5989287,6.72929069 17.7464694,6.88334902 C19.6416961,8.83066793 19.6177771,11.9449671 17.6915965,13.864064 C17.5802687,13.975143 17.4294677,14.0372638 17.272431,14.0367378 C17.1153944,14.036205 16.9650131,13.9730689 16.8544325,13.8612418 C16.7436764,13.7495894 16.6817362,13.5983487 16.6822607,13.4408542 C16.6827919,13.2833597 16.7457445,13.1325399 16.8572465,13.0216369 C18.3205247,11.5625588 18.3388157,9.1947319 16.8980494,7.7130762 C16.7489076,7.56208842 16.6912207,7.34195672 16.7475006,7.13593603 C16.8051875,6.92991532 16.9669924,6.77046096 17.1738211,6.71825023 Z M6.18235049,6.88193791 C6.32989117,6.7278796 6.54840658,6.66487997 6.75499879,6.71683913 C6.96180072,6.76879541 7.12469541,6.92839084 7.18131926,7.13452493 C7.23900618,7.33913452 7.18131926,7.56067732 7.03077044,7.71166509 C6.3439227,8.41529698 5.96037515,9.36150405 5.96285876,10.34619 C5.96067604,11.350156 6.35946337,12.313187 7.07016639,13.0202258 C7.18166842,13.1311288 7.24462099,13.2819486 7.24515219,13.4394431 C7.24567669,13.5969376 7.1837365,13.7481783 7.07298039,13.8598307 C6.96239975,13.9716578 6.81201848,14.0347939 6.65498185,14.0353267 C6.49794523,14.0358527 6.34714415,13.9737319 6.23581641,13.8626529 C4.30963576,11.9449671 4.2857168,8.82925683 6.18235049,6.88193791 Z M15.2110585,7.9332079 C15.3681636,7.9355673 15.5177294,8.00116133 15.626123,8.11523988 C16.8403625,9.38523049 16.8150365,11.39746 15.5684361,12.6349953 C15.4192942,12.7902164 15.1983955,12.8508937 14.9915668,12.7958608 C14.7847456,12.7398045 14.6240143,12.576448 14.5708743,12.3682973 C14.5179579,12.1599594 14.5814616,11.9392076 14.7369001,11.7911571 C15.5248191,11.0094073 15.5402961,9.73941675 14.773482,8.93791158 C14.5474259,8.70120583 14.5549775,8.32567885 14.790366,8.09830669 C14.9029259,7.98965191 15.0548817,7.9303857 15.2110585,7.9332079 Z M8.30410389,8.11523988 C8.53081504,7.87916507 8.90525028,7.87159142 9.14126787,8.09830669 C9.37665637,8.32567885 9.38420801,8.70120583 9.15815186,8.93791158 C8.39133779,9.73941675 8.40681478,11.0094073 9.19473382,11.7911571 C9.42663788,12.022023 9.42852585,12.3975626 9.19895481,12.630762 C9.08856149,12.7427772 8.93828497,12.8061678 8.781248,12.8069695 C8.62421104,12.807756 8.4733048,12.7458884 8.36179083,12.6349953 C7.11519035,11.39746 7.08986436,9.38523047 8.30410389,8.11523988 Z" id="形状结合" fill="#FFFFFF"></path>
                    </g>
                </g>
            </g>
        </g>
    </g>
</svg>