<?xml version="1.0" encoding="UTF-8"?>
<svg width="40px" height="41px" viewBox="0 0 40 41" version="1.1" xmlns="http://www.w3.org/2000/svg" xmlns:xlink="http://www.w3.org/1999/xlink">
    <title>楼宇</title>
    <defs>
        <filter x="-27.2%" y="-27.1%" width="154.3%" height="154.2%" filterUnits="objectBoundingBox" id="filter-1">
            <feOffset dx="0" dy="1" in="SourceAlpha" result="shadowOffsetOuter1"></feOffset>
            <feGaussianBlur stdDeviation="1" in="shadowOffsetOuter1" result="shadowBlurOuter1"></feGaussianBlur>
            <feColorMatrix values="0 0 0 0 0   0 0 0 0 1   0 0 0 0 0.916165865  0 0 0 0.5 0" type="matrix" in="shadowBlurOuter1" result="shadowMatrixOuter1"></feColorMatrix>
            <feMerge>
                <feMergeNode in="shadowMatrixOuter1"></feMergeNode>
                <feMergeNode in="SourceGraphic"></feMergeNode>
            </feMerge>
        </filter>
        <linearGradient x1="50%" y1="9.35091914%" x2="50%" y2="100%" id="linearGradient-2">
            <stop stop-color="#2E6DFF" offset="0%"></stop>
            <stop stop-color="#00CFF6" offset="100%"></stop>
        </linearGradient>
    </defs>
    <g id="资源可视化" stroke="none" stroke-width="1" fill="none" fill-rule="evenodd">
        <g id="资源可视化6.0" transform="translate(-97.000000, -251.000000)">
            <g id="编组-21" transform="translate(94.000000, 252.000000)">
                <g id="编组-20" transform="translate(3.000000, 0.000000)">
                    <g id="编组" transform="translate(0.000000, 4.000000)">
                        <path d="M0.51107826,29.6450738 L6.50620757,13.7513082 C6.65280813,13.3626535 7.02441039,13.1050953 7.43979387,13.1042378 L32.8041528,13.0518761 C33.2256621,13.051006 33.6024595,13.3145349 33.7462407,13.7107645 L39.5140613,29.6056223 C39.7024509,30.124783 39.4343079,30.6983658 38.9151472,30.8867554 C38.8062339,30.9262771 38.6912808,30.9465708 38.5754186,30.9467308 L1.44810984,30.9980003 C0.89582562,30.9987629 0.447492543,30.5516664 0.446729889,29.9993822 C0.446562766,29.8783585 0.468365658,29.7583097 0.51107826,29.6450738 Z" id="路径-2" fill="#153159"></path>
                        <path d="M3.75989548,27.5679567 L8.1750748,15.6525429 C8.32040803,15.2603265 8.69449393,15 9.11277067,15 L31.8069607,15 C32.2351832,15 32.6158776,15.272657 32.7537291,15.6780845 L36.8051484,27.5934984 C36.9829374,28.1163841 36.7031812,28.6843933 36.1802954,28.8621822 C36.0766282,28.8974306 35.9678758,28.9154138 35.85838,28.9154138 L4.69759136,28.9154138 C4.14530661,28.9154138 3.69759136,28.4676986 3.69759136,27.9154138 C3.69759136,27.7968166 3.71868802,27.6791649 3.75989548,27.5679567 Z" id="路径-2备份" fill="#114B76"></path>
                        <g id="楼宇" filter="url(#filter-1)" transform="translate(8.246068, 0.000000)" fill-rule="nonzero">
                            <rect id="矩形" fill="#000000" opacity="0" x="0" y="0" width="23.9302269" height="24"></rect>
                            <path d="M12.1984332,1.5 C12.5394389,1.5 12.878949,1.563 13.1930332,1.6845 L20.8701491,4.6425 C21.8183844,5.007 22.4345877,5.8545 22.4345877,6.7935 L22.4345877,20.1645 C22.4345877,21.4545 21.2889281,22.5 19.8755491,22.5 L12.1984332,22.5 L12.0563474,22.497 C12.5964362,22.4658737 13.040519,22.0587071 13.1197469,21.522 L13.1287207,21.387 L13.1287207,4.947 C13.1288276,4.87341765 13.121309,4.8000234 13.1062861,4.728 C12.9881306,4.1685 12.4526918,3.792 11.8708882,3.837 L11.7362806,3.855 L9.63789888,4.2555 L9.63789888,3.8355 C9.63789888,2.5455 10.7850541,1.5 12.1984332,1.5 Z M11.9352007,7.0965 C11.954392,7.1811712 11.9644209,7.2676715 11.9651606,7.3545 L11.9651606,21.312 C11.9679025,21.6242961 11.8468725,21.9249113 11.6286512,22.1477072 C11.4104298,22.3705031 11.1128946,22.4972276 10.8015062,22.5 L2.65924646,22.5 C2.34785804,22.4972276 2.05032283,22.3705031 1.83210147,22.1477072 C1.61388012,21.9249113 1.49285009,21.6242961 1.49559202,21.312 L1.49559202,9.2025 C1.49559202,8.6445 1.87403589,8.163 2.40797908,8.043 L10.5472475,6.195 C10.8506353,6.12837204 11.1679916,6.18614733 11.4286744,6.35546539 C11.6893571,6.52478344 11.8717311,6.79159172 11.9352007,7.0965 L11.9352007,7.0965 Z" id="形状" fill="url(#linearGradient-2)"></path>
                            <path d="M7.4781959,13.5 L5.98255672,13.5 C5.2243053,13.5001003 4.58610243,14.0692607 4.49738702,14.8245 L4.48691754,15 L4.48691754,19.5 L8.97383508,19.5 L8.97383508,15 C8.97383508,14.1715729 8.30421461,13.5 7.4781959,13.5 Z" id="路径" fill="#FFFFFF"></path>
                        </g>
                    </g>
                </g>
            </g>
        </g>
    </g>
</svg>