<?xml version="1.0" encoding="UTF-8"?>
<svg width="40px" height="42px" viewBox="0 0 40 42" version="1.1" xmlns="http://www.w3.org/2000/svg" xmlns:xlink="http://www.w3.org/1999/xlink">
    <title>覆盖率</title>
    <defs>
        <filter x="-27.2%" y="-27.1%" width="154.3%" height="154.2%" filterUnits="objectBoundingBox" id="filter-1">
            <feOffset dx="0" dy="1" in="SourceAlpha" result="shadowOffsetOuter1"></feOffset>
            <feGaussianBlur stdDeviation="1" in="shadowOffsetOuter1" result="shadowBlurOuter1"></feGaussianBlur>
            <feColorMatrix values="0 0 0 0 0   0 0 0 0 1   0 0 0 0 0.916165865  0 0 0 0.5 0" type="matrix" in="shadowBlurOuter1" result="shadowMatrixOuter1"></feColorMatrix>
            <feMerge>
                <feMergeNode in="shadowMatrixOuter1"></feMergeNode>
                <feMergeNode in="SourceGraphic"></feMergeNode>
            </feMerge>
        </filter>
        <linearGradient x1="50%" y1="9.35091914%" x2="50%" y2="100%" id="linearGradient-2">
            <stop stop-color="#2E6DFF" offset="0%"></stop>
            <stop stop-color="#00CFF6" offset="100%"></stop>
        </linearGradient>
    </defs>
    <g id="资源可视化" stroke="none" stroke-width="1" fill="none" fill-rule="evenodd">
        <g id="资源可视化6.0" transform="translate(-258.000000, -250.000000)">
            <g id="编组-21" transform="translate(94.000000, 252.000000)">
                <g id="覆盖率" transform="translate(164.000000, 0.000000)">
                    <g id="编组" transform="translate(0.000000, 17.050426)">
                        <path d="M0.51107826,16.5946478 L6.50620757,0.700882238 C6.65280813,0.312227578 7.02441039,0.0546693687 7.43979387,0.053811859 L32.8041528,0.00145016287 C33.2256621,0.000580007026 33.6024595,0.264108941 33.7462407,0.660338517 L39.5140613,16.5551963 C39.7024509,17.074357 39.4343079,17.6479398 38.9151472,17.8363294 C38.8062339,17.8758511 38.6912808,17.8961449 38.5754186,17.8963049 L1.44810984,17.9475743 C0.89582562,17.948337 0.447492543,17.5012404 0.446729889,16.9489562 C0.446562766,16.8279326 0.468365658,16.7078837 0.51107826,16.5946478 Z" id="路径-2" fill="#153159"></path>
                        <path d="M3.75989548,14.5175308 L8.1750748,2.60211693 C8.32040803,2.20990056 8.69449393,1.94957405 9.11277067,1.94957405 L31.8069607,1.94957405 C32.2351832,1.94957405 32.6158776,2.22223102 32.7537291,2.6276586 L36.8051484,14.5430724 C36.9829374,15.0659582 36.7031812,15.6339673 36.1802954,15.8117563 C36.0766282,15.8470047 35.9678758,15.8649879 35.85838,15.8649879 L4.69759136,15.8649879 C4.14530661,15.8649879 3.69759136,15.4172726 3.69759136,14.8649879 C3.69759136,14.7463906 3.71868802,14.6287389 3.75989548,14.5175308 Z" id="路径-2备份" fill="#114B76"></path>
                    </g>
                    <g id="覆盖" filter="url(#filter-1)" transform="translate(7.976742, 3.000000)" fill-rule="nonzero">
                        <rect id="矩形" fill="#000000" opacity="0" x="0" y="0" width="23.9302269" height="24"></rect>
                        <path d="M13.7152414,16.7653846 C15.6485276,16.0509231 17.0272768,14.1867692 17.0272768,12 C17.0272768,9.19615385 14.7608082,6.92307691 11.9651134,6.92307691 C9.16941865,6.92307691 6.90295006,9.19615383 6.90295006,12 C6.90295006,14.1867692 8.28169928,16.0509231 10.2149855,16.7653846 L6.14132457,22.4852308 C2.47769889,20.4336923 0,16.5069231 0,12 C0,5.3723077 5.35668926,0 11.9651134,0 C18.5735376,0 23.9302269,5.3723077 23.9302269,12 C23.9302269,16.5069231 21.452528,20.4336923 17.7889023,22.4852308 L13.7152414,16.7653846 Z" id="形状" fill="url(#linearGradient-2)"></path>
                        <polygon id="路径" fill="#FFFFFF" points="11.9651134 17.5384615 16.5670802 24 7.36314673 24"></polygon>
                        <path d="M11.9651134,14.7692308 C10.9786388,14.7692308 10.0670987,14.2414184 9.57386135,13.3846154 C9.08062403,12.5278124 9.08062403,11.4721876 9.57386135,10.6153846 C10.0670987,9.75858161 10.9786388,9.23076923 11.9651134,9.23076923 C13.4900711,9.23076923 14.7262935,10.4705961 14.7262935,12 C14.7262935,13.5294039 13.4900711,14.7692308 11.9651134,14.7692308 Z" id="路径" fill="#FFFFFF"></path>
                    </g>
                </g>
            </g>
        </g>
    </g>
</svg>