<?xml version="1.0" encoding="UTF-8"?>
<svg width="40px" height="42px" viewBox="0 0 40 42" version="1.1" xmlns="http://www.w3.org/2000/svg" xmlns:xlink="http://www.w3.org/1999/xlink">
    <title>接入段</title>
    <defs>
        <filter x="-27.2%" y="-27.1%" width="154.3%" height="154.2%" filterUnits="objectBoundingBox" id="filter-1">
            <feOffset dx="0" dy="1" in="SourceAlpha" result="shadowOffsetOuter1"></feOffset>
            <feGaussianBlur stdDeviation="1" in="shadowOffsetOuter1" result="shadowBlurOuter1"></feGaussianBlur>
            <feColorMatrix values="0 0 0 0 0   0 0 0 0 1   0 0 0 0 0.916165865  0 0 0 0.5 0" type="matrix" in="shadowBlurOuter1" result="shadowMatrixOuter1"></feColorMatrix>
            <feMerge>
                <feMergeNode in="shadowMatrixOuter1"></feMergeNode>
                <feMergeNode in="SourceGraphic"></feMergeNode>
            </feMerge>
        </filter>
        <linearGradient x1="50%" y1="9.35091914%" x2="50%" y2="100%" id="linearGradient-2">
            <stop stop-color="#2E6DFF" offset="0%"></stop>
            <stop stop-color="#00CFF6" offset="100%"></stop>
        </linearGradient>
    </defs>
    <g id="资源可视化" stroke="none" stroke-width="1" fill="none" fill-rule="evenodd">
        <g id="资源可视化6.0" transform="translate(-260.000000, -301.000000)">
            <g id="编组-21" transform="translate(94.000000, 252.000000)">
                <g id="接入段" transform="translate(166.000000, 51.000000)">
                    <g id="编组" transform="translate(0.000000, 17.050426)">
                        <path d="M0.51107826,16.5946478 L6.50620757,0.700882238 C6.65280813,0.312227578 7.02441039,0.0546693687 7.43979387,0.053811859 L32.8041528,0.00145016287 C33.2256621,0.000580007026 33.6024595,0.264108941 33.7462407,0.660338517 L39.5140613,16.5551963 C39.7024509,17.074357 39.4343079,17.6479398 38.9151472,17.8363294 C38.8062339,17.8758511 38.6912808,17.8961449 38.5754186,17.8963049 L1.44810984,17.9475743 C0.89582562,17.948337 0.447492543,17.5012404 0.446729889,16.9489562 C0.446562766,16.8279326 0.468365658,16.7078837 0.51107826,16.5946478 Z" id="路径-2" fill="#153159"></path>
                        <path d="M3.75989548,14.5175308 L8.1750748,2.60211693 C8.32040803,2.20990056 8.69449393,1.94957405 9.11277067,1.94957405 L31.8069607,1.94957405 C32.2351832,1.94957405 32.6158776,2.22223102 32.7537291,2.6276586 L36.8051484,14.5430724 C36.9829374,15.0659582 36.7031812,15.6339673 36.1802954,15.8117563 C36.0766282,15.8470047 35.9678758,15.8649879 35.85838,15.8649879 L4.69759136,15.8649879 C4.14530661,15.8649879 3.69759136,15.4172726 3.69759136,14.8649879 C3.69759136,14.7463906 3.71868802,14.6287389 3.75989548,14.5175308 Z" id="路径-2备份" fill="#114B76"></path>
                    </g>
                    <g id="设备接入" filter="url(#filter-1)" transform="translate(7.976742, 3.000000)" fill-rule="nonzero">
                        <rect id="矩形" fill="#000000" opacity="0" x="0" y="0" width="23.9302269" height="24"></rect>
                        <path d="M0.997092787,2 L0.997092787,15.7875 C0.997092787,16.3397847 1.44480804,16.7875 1.99709279,16.7875 L6.13669162,16.7875 C6.68897637,16.7875 7.13669162,17.2352153 7.13669162,17.7875 L7.13669162,18.4275 C7.13669162,18.9797847 7.58440687,19.4275 8.13669162,19.4275 L16.2247779,19.4275 C16.7770626,19.4275 17.2247779,18.9797847 17.2247779,18.4275 L17.2247779,17.7875 C17.2247779,17.2352153 17.6724931,16.7875 18.2247779,16.7875 L22.3643767,16.7875 C22.9166615,16.7875 23.3643767,16.3397847 23.3643767,15.7875 L23.3643767,2 C23.3643767,1.44771525 22.9166615,1 22.3643767,1 L1.99709279,1 C1.44480804,1 0.997092787,1.44771525 0.997092787,2 Z M3.30977408,21.745 L21.0442172,21.745 C21.4087252,21.745 21.7042172,22.0404921 21.7042172,22.405 C21.7042172,22.7695079 21.4087252,23.065 21.0442172,23.065 L3.30977408,23.065 C2.94526615,23.065 2.64977408,22.7695079 2.64977408,22.405 C2.64977408,22.0404921 2.94526615,21.745 3.30977408,21.745 Z" id="形状" fill="url(#linearGradient-2)"></path>
                        <path d="M5.68079559,8.04853676 L1.99418557,8.04853676 L1.99418557,9.65453248 L5.68079559,9.65453248 C6.02952897,10.8394004 7.10419715,11.710207 8.39949256,11.710207 L10.5345949,11.710207 L10.5345949,6 L8.39949256,6 C7.11131415,6 6.02952897,6.86366881 5.68079559,8.04853676 Z M17.6729537,6 L11.9793475,6 L11.9793475,11.710207 L17.6729537,11.710207 L17.6729537,9.56174161 L21.9360413,9.56174161 L21.9360413,7.9557459 L17.6729537,7.9557459 L17.6729537,6 Z" id="形状" fill="#FFFFFF"></path>
                    </g>
                </g>
            </g>
        </g>
    </g>
</svg>