<?xml version="1.0" encoding="UTF-8"?>
<svg width="40px" height="43px" viewBox="0 0 40 43" version="1.1" xmlns="http://www.w3.org/2000/svg" xmlns:xlink="http://www.w3.org/1999/xlink">
    <title>核心机房</title>
    <defs>
        <filter x="-27.2%" y="-27.1%" width="154.3%" height="154.2%" filterUnits="objectBoundingBox" id="filter-1">
            <feOffset dx="0" dy="1" in="SourceAlpha" result="shadowOffsetOuter1"></feOffset>
            <feGaussianBlur stdDeviation="1" in="shadowOffsetOuter1" result="shadowBlurOuter1"></feGaussianBlur>
            <feColorMatrix values="0 0 0 0 0   0 0 0 0 1   0 0 0 0 0.916165865  0 0 0 0.5 0" type="matrix" in="shadowBlurOuter1" result="shadowMatrixOuter1"></feColorMatrix>
            <feMerge>
                <feMergeNode in="shadowMatrixOuter1"></feMergeNode>
                <feMergeNode in="SourceGraphic"></feMergeNode>
            </feMerge>
        </filter>
        <linearGradient x1="50%" y1="9.35091914%" x2="50%" y2="100%" id="linearGradient-2">
            <stop stop-color="#2E6DFF" offset="0%"></stop>
            <stop stop-color="#00CFF6" offset="100%"></stop>
        </linearGradient>
    </defs>
    <g id="资源可视化" stroke="none" stroke-width="1" fill="none" fill-rule="evenodd">
        <g id="资源可视化6.0" transform="translate(-430.000000, -351.000000)">
            <g id="编组-21" transform="translate(94.000000, 252.000000)">
                <g id="核心机房" transform="translate(336.000000, 102.000000)">
                    <g id="编组" transform="translate(0.000000, 17.050426)">
                        <path d="M0.51107826,16.5946478 L6.50620757,0.700882238 C6.65280813,0.312227578 7.02441039,0.0546693687 7.43979387,0.053811859 L32.8041528,0.00145016287 C33.2256621,0.000580007026 33.6024595,0.264108941 33.7462407,0.660338517 L39.5140613,16.5551963 C39.7024509,17.074357 39.4343079,17.6479398 38.9151472,17.8363294 C38.8062339,17.8758511 38.6912808,17.8961449 38.5754186,17.8963049 L1.44810984,17.9475743 C0.89582562,17.948337 0.447492543,17.5012404 0.446729889,16.9489562 C0.446562766,16.8279326 0.468365658,16.7078837 0.51107826,16.5946478 Z" id="路径-2" fill="#153159"></path>
                        <path d="M3.75989548,14.5175308 L8.1750748,2.60211693 C8.32040803,2.20990056 8.69449393,1.94957405 9.11277067,1.94957405 L31.8069607,1.94957405 C32.2351832,1.94957405 32.6158776,2.22223102 32.7537291,2.6276586 L36.8051484,14.5430724 C36.9829374,15.0659582 36.7031812,15.6339673 36.1802954,15.8117563 C36.0766282,15.8470047 35.9678758,15.8649879 35.85838,15.8649879 L4.69759136,15.8649879 C4.14530661,15.8649879 3.69759136,15.4172726 3.69759136,14.8649879 C3.69759136,14.7463906 3.71868802,14.6287389 3.75989548,14.5175308 Z" id="路径-2备份" fill="#114B76"></path>
                    </g>
                    <g id="服务器主机,电脑主机" filter="url(#filter-1)" transform="translate(7.976742, 2.000000)" fill-rule="nonzero">
                        <rect id="矩形" fill="#000000" opacity="0" x="0" y="0" width="23.9302269" height="24"></rect>
                        <path d="M17.9476702,0 L5.98255672,0 C5.15761824,0 4.48691754,0.6703125 4.48691754,1.5 L4.48691754,23.25 C4.48691754,23.6648438 4.82109942,24 5.23473713,24 L18.6954898,24 C19.1091275,24 19.4433093,23.6648438 19.4433093,23.25 L19.4433093,1.5 C19.4433093,0.6703125 18.7726087,0 17.9476702,0 Z M16.4426832,13.125 C16.4426832,13.33125 16.2744238,13.5 16.0687734,13.5 L7.84743183,13.5 C7.64178144,13.5 7.47352203,13.33125 7.47352203,13.125 L7.47352203,9.375 C7.47352203,9.16875 7.64178144,9 7.84743183,9 L16.0687734,9 C16.2744238,9 16.4426832,9.16875 16.4426832,9.375 L16.4426832,13.125 Z" id="形状" fill="url(#linearGradient-2)"></path>
                        <path d="M11.9908197,17.625 C12.5914124,17.625 13.079832,18.1148437 13.079832,18.7171875 C13.0774951,19.0195312 12.9559744,19.2914062 12.7596718,19.4882812 C12.5633691,19.6851562 12.2899476,19.809375 11.9908197,19.809375 L11.9417441,19.809375 C11.3411515,19.809375 10.8527318,19.3195312 10.8527318,18.7171875 C10.8527318,18.4148437 10.9742525,18.1429687 11.1728921,17.9460937 C11.3715316,17.7492187 11.6402793,17.625 11.9417441,17.625 L11.9908197,17.625 Z M11.981472,15 C12.3951097,15 12.7292916,15.3351562 12.7292916,15.75 C12.7292916,15.95625 12.6451619,16.14375 12.5096196,16.2796875 C12.3740773,16.415625 12.1871224,16.5 11.981472,16.5 L11.9487549,16.5 C11.5351172,16.5 11.2009353,16.1648437 11.2009353,15.75 C11.2009353,15.54375 11.285065,15.35625 11.4206073,15.2203125 C11.5561496,15.084375 11.7431045,15 11.9487549,15 L11.981472,15 Z M14.8535666,10.5 C14.9049792,10.5 14.9470441,10.5421875 14.9470441,10.59375 L14.9470441,11.90625 C14.9470441,11.9578125 14.9049792,12 14.8535666,12 L9.06263866,12 C9.01122606,12 8.96916121,11.9578125 8.96916121,11.90625 L8.96916121,10.59375 C8.96916121,10.5421875 9.01122606,10.5 9.06263866,10.5 L14.8535666,10.5 Z M16.0687734,6 C16.2744238,6 16.4426832,6.16875 16.4426832,6.375 L16.4426832,7.125 C16.4426832,7.33125 16.2744238,7.5 16.0687734,7.5 L7.84743183,7.5 C7.64178144,7.5 7.47352203,7.33125 7.47352203,7.125 L7.47352203,6.375 C7.47352203,6.16875 7.64178144,6 7.84743183,6 L16.0687734,6 Z M16.0781212,3 C16.2837716,3 16.452031,3.16875 16.452031,3.375 L16.452031,4.125 C16.452031,4.33125 16.2837716,4.5 16.0781212,4.5 L7.85677957,4.5 C7.65112918,4.5 7.48286978,4.33125 7.48286978,4.125 L7.48286978,3.375 C7.48286978,3.16875 7.65112918,3 7.85677957,3 L16.0781212,3 Z" id="形状结合" fill="#FFFFFF"></path>
                    </g>
                </g>
            </g>
        </g>
    </g>
</svg>