<?xml version="1.0" encoding="UTF-8"?>
<svg width="40px" height="43px" viewBox="0 0 40 43" version="1.1" xmlns="http://www.w3.org/2000/svg" xmlns:xlink="http://www.w3.org/1999/xlink">
    <title>本地网</title>
    <defs>
        <filter x="-27.2%" y="-27.1%" width="154.3%" height="154.2%" filterUnits="objectBoundingBox" id="filter-1">
            <feOffset dx="0" dy="1" in="SourceAlpha" result="shadowOffsetOuter1"></feOffset>
            <feGaussianBlur stdDeviation="1" in="shadowOffsetOuter1" result="shadowBlurOuter1"></feGaussianBlur>
            <feColorMatrix values="0 0 0 0 0   0 0 0 0 1   0 0 0 0 0.916165865  0 0 0 0.5 0" type="matrix" in="shadowBlurOuter1" result="shadowMatrixOuter1"></feColorMatrix>
            <feMerge>
                <feMergeNode in="shadowMatrixOuter1"></feMergeNode>
                <feMergeNode in="SourceGraphic"></feMergeNode>
            </feMerge>
        </filter>
        <linearGradient x1="50%" y1="9.35091914%" x2="50%" y2="100%" id="linearGradient-2">
            <stop stop-color="#2E6DFF" offset="0%"></stop>
            <stop stop-color="#00CFF6" offset="100%"></stop>
        </linearGradient>
    </defs>
    <g id="资源可视化" stroke="none" stroke-width="1" fill="none" fill-rule="evenodd">
        <g id="资源可视化6.0" transform="translate(-430.000000, -249.000000)">
            <g id="编组-21" transform="translate(94.000000, 252.000000)">
                <g id="本地网" transform="translate(336.000000, 0.000000)">
                    <g id="编组" transform="translate(0.000000, 17.050426)">
                        <path d="M0.51107826,16.5946478 L6.50620757,0.700882238 C6.65280813,0.312227578 7.02441039,0.0546693687 7.43979387,0.053811859 L32.8041528,0.00145016287 C33.2256621,0.000580007026 33.6024595,0.264108941 33.7462407,0.660338517 L39.5140613,16.5551963 C39.7024509,17.074357 39.4343079,17.6479398 38.9151472,17.8363294 C38.8062339,17.8758511 38.6912808,17.8961449 38.5754186,17.8963049 L1.44810984,17.9475743 C0.89582562,17.948337 0.447492543,17.5012404 0.446729889,16.9489562 C0.446562766,16.8279326 0.468365658,16.7078837 0.51107826,16.5946478 Z" id="路径-2" fill="#153159"></path>
                        <path d="M3.75989548,14.5175308 L8.1750748,2.60211693 C8.32040803,2.20990056 8.69449393,1.94957405 9.11277067,1.94957405 L31.8069607,1.94957405 C32.2351832,1.94957405 32.6158776,2.22223102 32.7537291,2.6276586 L36.8051484,14.5430724 C36.9829374,15.0659582 36.7031812,15.6339673 36.1802954,15.8117563 C36.0766282,15.8470047 35.9678758,15.8649879 35.85838,15.8649879 L4.69759136,15.8649879 C4.14530661,15.8649879 3.69759136,15.4172726 3.69759136,14.8649879 C3.69759136,14.7463906 3.71868802,14.6287389 3.75989548,14.5175308 Z" id="路径-2备份" fill="#114B76"></path>
                    </g>
                    <g id="信息网络构建2" filter="url(#filter-1)" transform="translate(7.976742, 2.000000)" fill-rule="nonzero">
                        <rect id="矩形" fill="#000000" opacity="0" x="0" y="0" width="23.9282752" height="23.9980426"></rect>
                        <path d="M11.9665902,0 C17.2258229,0.000617485186 21.867952,3.44565482 23.4061538,8.4895793 C24.9443555,13.5335038 23.0178886,18.993407 18.658776,21.9443772 C14.2996634,24.8953474 8.53021053,24.6453188 4.44115712,21.3282337 L5.36538558,20.3983107 L5.68692138,20.6697883 C6.82650406,21.5997112 8.92172104,22.9391003 11.5388729,22.9391003 L11.8394715,22.9346007 C15.1849392,22.8356089 20.0872385,21.4227259 22.2048882,16.7191154 L22.2811595,16.5571288 L22.2886371,16.5331308 L22.4082783,16.2346555 C23.7664025,12.8687969 23.4281342,9.05332428 21.4991837,5.98058961 C19.5702332,2.90785494 16.2858706,0.952633261 12.6724735,0.725939875 L12.6694824,0.728939631 L12.6694824,0.706441489 L11.260707,0.706441489 L11.260707,0.727439753 C5.32837109,1.10270269 0.708403305,6.03755074 0.708350834,11.9990063 L0.708350834,12.7489442 C0.708350834,13.1629099 1.02240905,13.4988821 1.41124305,13.4988821 C1.80007706,13.4988821 2.11413525,13.1629099 2.11413525,12.7489442 L2.11413525,11.9990063 C2.11413525,11.5190461 2.15002762,11.0480851 2.21433478,10.5876232 L5.01693051,10.5876232 C4.95843672,11.0558008 4.92896828,11.5271677 4.92869509,11.9990063 L4.92869509,12.7489442 C4.92869509,13.0369204 5.08123766,13.2858997 5.30257392,13.4118893 L2.93666868,13.4118893 L2.80655885,13.4208886 C2.40813985,13.4843828 2.11504908,13.8292278 2.11563077,14.2338212 L2.11413525,18.8054426 C-0.407162926,15.1342954 -0.691389551,10.3639248 1.37605742,6.41777582 C3.44350439,2.47162682 7.52181604,0 11.9665902,0 L11.9665902,0 Z M11.2636981,10.5891231 L11.2636981,11.2940647 C11.2636981,11.6842216 11.5790632,12.0005062 11.9680858,12.0005062 C12.3571084,12.0005062 12.6724735,11.6842216 12.6724735,11.2940647 L12.6724735,10.5891231 L17.499997,10.5891231 C17.5657996,11.0495849 17.598701,11.5205459 17.598701,12.0005062 L17.5912234,12.3829745 C17.5403759,13.7583606 16.7582214,15.9376801 16.6490488,16.2376553 C16.5428672,16.5346307 16.623625,16.9395972 17.1470554,17.0805855 C17.4970059,17.1750777 17.8439655,16.8946009 18.187934,16.2376553 C18.9108226,14.4489059 19.1631628,12.5038372 18.9207365,10.5891231 L21.7218367,10.5891231 C21.7861439,11.0495849 21.8205408,11.5205459 21.8205408,12.0005062 C21.8205408,13.5153807 21.4810588,14.9522618 20.8723841,16.2376553 C20.0543372,17.4795525 17.938183,17.7825274 15.2327957,18.0075087 C14.7781591,18.0420059 14.3698834,18.0615043 13.9825449,18.0615043 C12.1654938,18.0615043 10.5996892,17.6445388 9.12660664,16.7626118 L10.9660905,14.7977745 L11.0513349,14.6882836 C11.2150582,14.436013 11.2287814,14.1143334 11.0871413,13.8489596 C10.9455012,13.5835857 10.670985,13.4166489 10.3708754,13.4133892 L5.96209619,13.4133892 C6.19649678,13.2758892 6.33924904,13.0227674 6.33597502,12.7504441 L6.33597502,11.9990063 C6.33597502,11.5190461 6.37037187,11.0480851 6.43617456,10.5876232 L11.2622025,10.5876232 L11.2636981,10.5891231 Z M5.65551556,4.41263458 C6.12959393,4.73510788 6.62760053,5.02158416 7.14803986,5.26756377 C6.29410061,6.42096824 5.65252453,7.74235882 5.28462774,9.17624009 L2.52241093,9.17624009 C3.05182776,7.39774853 4.06970699,5.8046242 5.45960304,4.57912079 L5.65551556,4.41263458 Z M18.2791605,4.4111347 C19.7677762,5.65617208 20.8575364,7.31357666 21.4122651,9.17624009 L18.6515438,9.17624009 C18.289166,7.76443027 17.6562612,6.43685475 16.7881317,5.26756377 C17.206876,5.0680803 17.6136561,4.84309893 18.0024901,4.59561942 L18.2791605,4.4111347 Z M8.51344536,5.8105188 C9.40542336,6.09857665 10.3298715,6.27342383 11.2651936,6.3309757 L11.2651936,9.17624009 L6.74275519,9.17624009 C7.09666991,7.98653348 7.67156229,6.87461611 8.43717407,5.89901147 L8.51344536,5.8105188 Z M15.4257172,5.80751905 C16.2266031,6.80476921 16.8260135,7.94900726 17.1904253,9.17624009 L12.670978,9.17624009 L12.670978,6.32947582 C13.5153439,6.27759859 14.3511582,6.13017505 15.1625065,5.89001223 L15.4257172,5.80751905 Z M11.2622025,3.43921519 L11.2622025,4.91659284 C10.7019065,4.87684034 10.1460355,4.78902659 9.60068501,4.65411458 L9.65153252,4.60611854 C10.1479706,4.16386978 10.6875874,3.77292647 11.2622025,3.43921519 L11.2622025,3.43921519 Z M12.670978,3.43921519 C13.2691841,3.78418664 13.8255158,4.19215284 14.333991,4.65411458 C13.7956055,4.78610365 13.2422648,4.87609619 12.6724735,4.91509296 L12.670978,3.43921519 Z M10.5608058,2.21681642 C9.65413316,2.74267279 8.82509474,3.39289432 8.09769209,4.14865644 C7.6815453,3.97006884 7.27784264,3.76362025 6.88931571,3.53070761 C7.93840021,2.89557862 9.09705582,2.4636317 10.3050727,2.25731307 L10.5608058,2.21681642 Z M13.3783567,2.21681642 C14.6757358,2.40261617 15.9221393,2.85007863 17.0423693,3.53220749 C16.656401,3.76513456 16.2546169,3.97062188 15.839975,4.14715656 C15.141439,3.42311594 14.3498269,2.7956466 13.4860338,2.28131107 L13.3783567,2.21681642 Z" id="形状" fill="url(#linearGradient-2)"></path>
                        <path d="M8.46259782,15.0512535 L7.25721247,16.3426466 L7.17047259,16.4536374 C7.06750726,16.6103485 7.02155596,16.797868 7.04036276,16.9845934 C7.06129998,17.2200739 7.18393223,17.4345562 7.37535819,17.5725448 C9.34495189,19.0079259 11.5029805,19.706868 13.9765628,19.706868 C14.4072713,19.706868 14.8589169,19.6873696 15.3569235,19.646873 C16.0598157,19.5898777 16.7567259,19.4638881 17.4356898,19.2689043 C17.2605935,19.406284 17.0810344,19.5378444 16.8973043,19.6633716 L16.8225285,19.7248665 C15.2410473,20.7330396 13.4097188,21.2770259 11.5358818,21.2952364 C8.92172104,21.2952364 6.85641436,19.5553805 6.18941453,18.9209331 L5.86488769,18.6014595 C5.7248268,18.4901075 5.55296913,18.4265239 5.37435868,18.4199746 L5.22480715,18.4289738 C5.05407975,18.4573203 4.89629984,18.5380121 4.77316151,18.6599547 L3.75621108,19.6798702 L3.75621108,15.0512535 L8.46259782,15.0512535 L8.46259782,15.0512535 Z" id="路径" fill="#FFFFFF"></path>
                    </g>
                </g>
            </g>
        </g>
    </g>
</svg>