<?xml version="1.0" encoding="UTF-8"?>
<svg width="40px" height="42px" viewBox="0 0 40 42" version="1.1" xmlns="http://www.w3.org/2000/svg" xmlns:xlink="http://www.w3.org/1999/xlink">
    <title>干线</title>
    <defs>
        <filter x="-27.2%" y="-27.1%" width="154.3%" height="154.2%" filterUnits="objectBoundingBox" id="filter-1">
            <feOffset dx="0" dy="1" in="SourceAlpha" result="shadowOffsetOuter1"></feOffset>
            <feGaussianBlur stdDeviation="1" in="shadowOffsetOuter1" result="shadowBlurOuter1"></feGaussianBlur>
            <feColorMatrix values="0 0 0 0 0   0 0 0 0 1   0 0 0 0 0.916165865  0 0 0 0.5 0" type="matrix" in="shadowBlurOuter1" result="shadowMatrixOuter1"></feColorMatrix>
            <feMerge>
                <feMergeNode in="shadowMatrixOuter1"></feMergeNode>
                <feMergeNode in="SourceGraphic"></feMergeNode>
            </feMerge>
        </filter>
        <linearGradient x1="50%" y1="9.35091914%" x2="50%" y2="100%" id="linearGradient-2">
            <stop stop-color="#2E6DFF" offset="0%"></stop>
            <stop stop-color="#00CFF6" offset="100%"></stop>
        </linearGradient>
    </defs>
    <g id="资源可视化" stroke="none" stroke-width="1" fill="none" fill-rule="evenodd">
        <g id="资源可视化6.0" transform="translate(-96.000000, -301.000000)">
            <g id="编组-21" transform="translate(94.000000, 252.000000)">
                <g id="编组-20备份-2" transform="translate(2.000000, 51.000000)">
                    <g id="编组" transform="translate(0.000000, 3.000000)">
                        <path d="M0.51107826,30.6450738 L6.50620757,14.7513082 C6.65280813,14.3626535 7.02441039,14.1050953 7.43979387,14.1042378 L32.8041528,14.0518761 C33.2256621,14.051006 33.6024595,14.3145349 33.7462407,14.7107645 L39.5140613,30.6056223 C39.7024509,31.124783 39.4343079,31.6983658 38.9151472,31.8867554 C38.8062339,31.9262771 38.6912808,31.9465708 38.5754186,31.9467308 L1.44810984,31.9980003 C0.89582562,31.9987629 0.447492543,31.5516664 0.446729889,30.9993822 C0.446562766,30.8783585 0.468365658,30.7583097 0.51107826,30.6450738 Z" id="路径-2" fill="#153159"></path>
                        <path d="M3.75989548,28.5679567 L8.1750748,16.6525429 C8.32040803,16.2603265 8.69449393,16 9.11277067,16 L31.8069607,16 C32.2351832,16 32.6158776,16.272657 32.7537291,16.6780845 L36.8051484,28.5934984 C36.9829374,29.1163841 36.7031812,29.6843933 36.1802954,29.8621822 C36.0766282,29.8974306 35.9678758,29.9154138 35.85838,29.9154138 L4.69759136,29.9154138 C4.14530661,29.9154138 3.69759136,29.4676986 3.69759136,28.9154138 C3.69759136,28.7968166 3.71868802,28.6791649 3.75989548,28.5679567 Z" id="路径-2备份" fill="#114B76"></path>
                        <g id="线路" filter="url(#filter-1)" transform="translate(8.973835, 0.000000)" fill-rule="nonzero">
                            <rect id="矩形" fill="#000000" opacity="0" x="0" y="0" width="23.9302269" height="24"></rect>
                            <path d="M2.82509622,1 L21.1051307,1 C22.3237996,1 22.9331341,1.61111111 22.9331341,2.83333333 L22.9331341,21.1666667 C22.9331341,22.3888889 22.3237996,23 21.1051307,23 L2.82509622,23 C1.60642727,23 0.997092787,22.3888889 0.997092787,21.1666667 L0.997092787,2.83333333 C0.997092787,1.61111111 1.60642727,1 2.82509622,1 Z" id="路径" fill="url(#linearGradient-2)"></path>
                            <path d="M9.97092788,5.12500001 C10.7067233,5.12500001 11.3113678,5.7074052 11.3409334,6.44475 L11.3419304,6.49999999 L11.3419304,17.5 C11.3419104,17.5603731 11.3849181,17.6121329 11.4441325,17.623 L11.4665671,17.625 L12.4636598,17.625 C12.5238574,17.6250201 12.5754667,17.581887 12.5863022,17.5225 L12.5882964,17.5 L12.5882964,12.25 C12.5882373,11.5120592 13.1690085,10.9056518 13.9042096,10.876 L13.959299,10.875 L14.9563918,10.875 C15.6921872,10.8749407 16.2968317,11.4574052 16.3263973,12.19475 L16.3273944,12.25 L16.3273944,14.5 C16.3273743,14.5603731 16.3703821,14.6121329 16.4295964,14.623 L16.452031,14.625 L17.5639859,14.6253016 C17.7048355,14.2556481 17.968975,13.9384413 18.3215217,13.7342868 C18.8614291,13.4216344 19.5266432,13.4216344 20.0665506,13.7342868 C20.606458,14.0469392 20.9390207,14.624737 20.9389485,15.25 C20.9390207,15.875263 20.606458,16.4530608 20.0665506,16.7657132 C19.5266432,17.0783656 18.8614291,17.0783656 18.3215217,16.7657132 C17.968975,16.5615587 17.7048355,16.2443519 17.5639859,15.8746984 L16.452031,15.875 C15.7162356,15.8750593 15.1115911,15.2925948 15.0820255,14.55525 L15.0810284,14.5 L15.0810284,12.25 C15.0810485,12.1896269 15.0380407,12.1378672 14.9788264,12.127 L14.9563918,12.125 L13.959299,12.125 C13.8991014,12.1249799 13.8474921,12.168113 13.8366566,12.2275 L13.8346624,12.25 L13.8346624,17.5 C13.8347215,18.2379408 13.2539504,18.8443482 12.5187492,18.874 L12.4636598,18.875 L11.4665671,18.875 C10.7307716,18.875 10.1261272,18.2925948 10.0965616,17.55525 L10.0955645,17.5 L10.0955645,6.49999999 C10.0955845,6.43962692 10.0525768,6.38786714 9.99336247,6.37699999 L9.97092788,6.375 L8.97383508,6.375 C8.91363752,6.37497987 8.86202823,6.41811301 8.85119267,6.47749999 L8.84919849,6.49999999 L8.84919849,10.75 C8.8492576,11.4879408 8.26848646,12.0943482 7.53328527,12.124 L7.4781959,12.125 L6.36585551,12.1257092 C6.22490971,12.4949302 5.96093052,12.8117448 5.60870522,13.0157132 C5.06879782,13.3283656 4.40358365,13.3283656 3.86367625,13.0157132 C3.32376885,12.7030608 2.99120621,12.125263 2.99127834,11.5 C2.99120621,10.874737 3.32376885,10.2969392 3.86367625,9.98428678 C4.40358365,9.67163438 5.06879782,9.67163438 5.60870522,9.98428678 C5.96093052,10.1882552 6.22490971,10.5050698 6.36585551,10.8742908 L7.4781959,10.875 C7.53839346,10.8750201 7.59000276,10.831887 7.60083832,10.7725 L7.60283249,10.75 L7.60283249,6.49999999 C7.60277338,5.76205921 8.18354452,5.15565179 8.91874571,5.12599999 L9.97092788,5.12500001 Z M19.1940361,14.5 C18.7810268,14.5 18.4462166,14.8357864 18.4462166,15.25 C18.4462166,15.6642136 18.7810268,16 19.1940361,16 C19.6070455,16 19.9418557,15.6642136 19.9418557,15.25 C19.9418557,14.8357864 19.6070455,14.5 19.1940361,14.5 Z M4.73619075,10.75 C4.32318139,10.75 3.98837116,11.0857864 3.98837116,11.5 C3.98837116,11.9142136 4.32318139,12.25 4.73619075,12.25 C5.1492001,12.25 5.48401034,11.9142136 5.48401034,11.5 C5.48401034,11.0857864 5.1492001,10.75 4.73619075,10.75 Z" id="形状结合" fill="#FFFFFF"></path>
                        </g>
                    </g>
                </g>
            </g>
        </g>
    </g>
</svg>