<?xml version="1.0" encoding="UTF-8"?>
<svg width="40px" height="41px" viewBox="0 0 40 41" version="1.1" xmlns="http://www.w3.org/2000/svg" xmlns:xlink="http://www.w3.org/1999/xlink">
    <title>机架</title>
    <defs>
        <filter x="-27.2%" y="-27.1%" width="154.3%" height="154.2%" filterUnits="objectBoundingBox" id="filter-1">
            <feOffset dx="0" dy="1" in="SourceAlpha" result="shadowOffsetOuter1"></feOffset>
            <feGaussianBlur stdDeviation="1" in="shadowOffsetOuter1" result="shadowBlurOuter1"></feGaussianBlur>
            <feColorMatrix values="0 0 0 0 0   0 0 0 0 1   0 0 0 0 0.916165865  0 0 0 0.5 0" type="matrix" in="shadowBlurOuter1" result="shadowMatrixOuter1"></feColorMatrix>
            <feMerge>
                <feMergeNode in="shadowMatrixOuter1"></feMergeNode>
                <feMergeNode in="SourceGraphic"></feMergeNode>
            </feMerge>
        </filter>
        <linearGradient x1="50%" y1="9.35091914%" x2="50%" y2="100%" id="linearGradient-2">
            <stop stop-color="#2E6DFF" offset="0%"></stop>
            <stop stop-color="#00CFF6" offset="100%"></stop>
        </linearGradient>
    </defs>
    <g id="资源可视化" stroke="none" stroke-width="1" fill="none" fill-rule="evenodd">
        <g id="资源可视化6.0" transform="translate(-260.000000, -353.000000)">
            <g id="编组-21" transform="translate(94.000000, 252.000000)">
                <g id="机架" transform="translate(166.000000, 102.000000)">
                    <g id="编组" transform="translate(0.000000, 17.050426)">
                        <path d="M0.51107826,16.5946478 L6.50620757,0.700882238 C6.65280813,0.312227578 7.02441039,0.0546693687 7.43979387,0.053811859 L32.8041528,0.00145016287 C33.2256621,0.000580007026 33.6024595,0.264108941 33.7462407,0.660338517 L39.5140613,16.5551963 C39.7024509,17.074357 39.4343079,17.6479398 38.9151472,17.8363294 C38.8062339,17.8758511 38.6912808,17.8961449 38.5754186,17.8963049 L1.44810984,17.9475743 C0.89582562,17.948337 0.447492543,17.5012404 0.446729889,16.9489562 C0.446562766,16.8279326 0.468365658,16.7078837 0.51107826,16.5946478 Z" id="路径-2" fill="#153159"></path>
                        <path d="M3.75989548,14.5175308 L8.1750748,2.60211693 C8.32040803,2.20990056 8.69449393,1.94957405 9.11277067,1.94957405 L31.8069607,1.94957405 C32.2351832,1.94957405 32.6158776,2.22223102 32.7537291,2.6276586 L36.8051484,14.5430724 C36.9829374,15.0659582 36.7031812,15.6339673 36.1802954,15.8117563 C36.0766282,15.8470047 35.9678758,15.8649879 35.85838,15.8649879 L4.69759136,15.8649879 C4.14530661,15.8649879 3.69759136,15.4172726 3.69759136,14.8649879 C3.69759136,14.7463906 3.71868802,14.6287389 3.75989548,14.5175308 Z" id="路径-2备份" fill="#114B76"></path>
                    </g>
                    <g id="IDC检测平台" filter="url(#filter-1)" transform="translate(7.976742, 4.000000)" fill-rule="nonzero">
                        <rect id="矩形" fill="#000000" opacity="0" x="0" y="0" width="23.9302269" height="24"></rect>
                        <path d="M17.7641312,13.5372222 C19.2110236,13.5372222 20.4961655,14.2327778 21.3049185,15.3083333 L21.2982712,14.3972222 L21.2982712,13.675 C21.2982712,12.7927778 20.5781486,12.0705556 19.6984912,12.0705556 L3.70733869,12.0705556 C2.82768129,12.0705556 2.10755872,12.7927778 2.10755872,13.675 L2.10755872,17.8461111 C2.10755872,18.7283333 2.82768129,19.4505556 3.70733869,19.4505556 L13.3038028,19.4505556 L13.5829888,19.4483333 C13.423454,18.9883333 13.3348235,18.495 13.3348235,17.9816667 C13.3326077,15.5261111 15.3179302,13.5372222 17.7641312,13.5372222 L17.7641312,13.5372222 Z M20.314473,18.1816667 L20.314473,17.6194444 L21.0345956,17.0572222 C21.114363,16.9772222 21.114363,16.8972222 21.0345956,16.8172222 L20.3942404,15.695 C20.3942404,15.615 20.2347056,15.615 20.1549381,15.615 L19.2752807,15.935 C19.1157459,15.855 18.9562111,15.695 18.7944604,15.695 L18.6349256,14.8127778 C18.6349256,14.7327778 18.5551582,14.6527778 18.4753908,14.6527778 L17.1171288,14.6527778 C17.0373614,14.6527778 16.9575939,14.7327778 16.957594,14.8127778 L16.7980591,15.695 L16.3172388,15.935 L15.4353656,15.615 C15.3555982,15.615 15.2758308,15.615 15.1960634,15.695 L14.4759408,16.8972222 L14.4759408,17.1372222 L15.1960634,17.6994445 L15.1960634,18.2616667 L14.4759408,18.8238889 C14.3961734,18.9038889 14.3961734,18.9838889 14.4759408,19.0638889 L15.1960634,20.2661111 C15.1960634,20.3461111 15.3555982,20.3461111 15.4353656,20.3461111 L16.315023,20.0261111 C16.4745579,20.1061111 16.6340927,20.2661111 16.7958433,20.2661111 L16.9553782,21.1483333 C16.9553782,21.2283333 17.0351456,21.3083333 17.114913,21.3083333 L18.473175,21.3083333 C18.5529424,21.3083333 18.6327098,21.2283334 18.6327098,21.1483333 L18.7922447,20.2661111 L19.273065,20.0261111 L20.1527224,20.3461111 C20.2324898,20.3461111 20.3122573,20.3461111 20.3920247,20.2661111 L21.1121472,19.0638889 L21.1121472,18.8238889 L20.314473,18.1816667 Z" id="形状" fill="url(#linearGradient-2)"></path>
                        <path d="M17.8350356,16.8994444 C18.3956233,16.8994444 18.7944604,17.2994445 18.7944604,17.8616667 C18.7944604,18.4216667 18.3956233,18.8238889 17.8350356,18.8238889 C17.2744479,18.8238889 16.8756108,18.4238889 16.8756108,17.8616667 C16.8756108,17.2994445 17.2744479,16.8994444 17.8350356,16.8994444 Z M7.14620094,14.9594445 L7.14620094,16.5638889 L5.54642094,16.5638889 L5.54642094,14.9594445 L7.14620094,14.9594445 Z M10.3435451,14.9594445 L10.3435451,16.5638889 L8.74376515,16.5638889 L8.74376515,14.9594445 L10.3435451,14.9594445 Z M5.86549064,3.17055555 L5.86549064,10.3083333 L3.86687355,10.3083333 L3.86687355,3.17055555 L5.86549064,3.17055555 Z M16.4213796,3.17055555 C18.2604619,3.17055555 19.2996541,4.05277779 19.3794215,5.89722223 L19.3794215,5.89722223 L17.4605719,5.89722223 C17.4605719,5.09500001 17.0617347,4.77499999 16.4213796,4.695 C15.7832402,4.61500001 15.3024199,5.49722224 15.3024199,6.85944445 C15.3024199,8.22166669 15.701257,8.8638889 16.501147,8.8638889 C17.1415022,8.8638889 17.5403393,8.46388889 17.5403393,7.58166668 L17.5403393,7.58166668 L19.459189,7.58166668 C19.5389564,9.02611111 18.4199967,10.2283333 16.9797516,10.3083333 L16.9797516,10.3083333 L16.5809145,10.3083333 C14.4227625,10.2283334 13.3813545,9.10611113 13.3835667,6.77944446 C13.4633377,4.53499999 14.5025299,3.33055556 16.4213796,3.17055555 Z M9.7829574,3.17055555 C11.8635577,3.17055555 12.90275,4.29277779 12.9825174,6.53944446 C12.9825174,8.8658889 12.0093794,10.0668469 9.9229993,10.1443259 L9.70318999,10.1483333 L7.06421773,10.1483333 L7.06421773,3.17055555 L9.7829574,3.17055555 Z M9.46388772,4.695 L9.0650506,4.695 L9.0650506,8.78388891 L9.46388772,8.78388891 C10.4233126,8.78388891 10.9041329,8.06166666 10.9041329,6.69944445 C10.9041329,5.33722221 10.50308,4.695 9.46388772,4.695 Z" id="形状结合" fill="#FFFFFF"></path>
                    </g>
                </g>
            </g>
        </g>
    </g>
</svg>