<?xml version="1.0" encoding="UTF-8"?>
<svg width="40px" height="40px" viewBox="0 0 40 40" version="1.1" xmlns="http://www.w3.org/2000/svg" xmlns:xlink="http://www.w3.org/1999/xlink">
    <title>机房</title>
    <defs>
        <filter x="-27.2%" y="-27.1%" width="154.3%" height="154.2%" filterUnits="objectBoundingBox" id="filter-1">
            <feOffset dx="0" dy="1" in="SourceAlpha" result="shadowOffsetOuter1"></feOffset>
            <feGaussianBlur stdDeviation="1" in="shadowOffsetOuter1" result="shadowBlurOuter1"></feGaussianBlur>
            <feColorMatrix values="0 0 0 0 0   0 0 0 0 1   0 0 0 0 0.916165865  0 0 0 0.5 0" type="matrix" in="shadowBlurOuter1" result="shadowMatrixOuter1"></feColorMatrix>
            <feMerge>
                <feMergeNode in="shadowMatrixOuter1"></feMergeNode>
                <feMergeNode in="SourceGraphic"></feMergeNode>
            </feMerge>
        </filter>
        <linearGradient x1="50%" y1="9.35091914%" x2="50%" y2="100%" id="linearGradient-2">
            <stop stop-color="#2E6DFF" offset="0%"></stop>
            <stop stop-color="#00CFF6" offset="100%"></stop>
        </linearGradient>
    </defs>
    <g id="资源可视化" stroke="none" stroke-width="1" fill="none" fill-rule="evenodd">
        <g id="资源可视化6.0" transform="translate(-94.000000, -354.000000)">
            <g id="编组-21" transform="translate(94.000000, 252.000000)">
                <g id="编组-20备份-5" transform="translate(0.000000, 102.000000)">
                    <g id="编组" transform="translate(0.000000, 5.000000)">
                        <path d="M0.51107826,28.6450738 L6.50620757,12.7513082 C6.65280813,12.3626535 7.02441039,12.1050953 7.43979387,12.1042378 L32.8041528,12.0518761 C33.2256621,12.051006 33.6024595,12.3145349 33.7462407,12.7107645 L39.5140613,28.6056223 C39.7024509,29.124783 39.4343079,29.6983658 38.9151472,29.8867554 C38.8062339,29.9262771 38.6912808,29.9465708 38.5754186,29.9467308 L1.44810984,29.9980003 C0.89582562,29.9987629 0.447492543,29.5516664 0.446729889,28.9993822 C0.446562766,28.8783585 0.468365658,28.7583097 0.51107826,28.6450738 Z" id="路径-2" fill="#153159"></path>
                        <path d="M3.75989548,26.5679567 L8.1750748,14.6525429 C8.32040803,14.2603265 8.69449393,14 9.11277067,14 L31.8069607,14 C32.2351832,14 32.6158776,14.272657 32.7537291,14.6780845 L36.8051484,26.5934984 C36.9829374,27.1163841 36.7031812,27.6843933 36.1802954,27.8621822 C36.0766282,27.8974306 35.9678758,27.9154138 35.85838,27.9154138 L4.69759136,27.9154138 C4.14530661,27.9154138 3.69759136,27.4676986 3.69759136,26.9154138 C3.69759136,26.7968166 3.71868802,26.6791649 3.75989548,26.5679567 Z" id="路径-2备份" fill="#114B76"></path>
                        <g id="机房类申请" filter="url(#filter-1)" transform="translate(8.973835, 0.000000)" fill-rule="nonzero">
                            <rect id="矩形" fill="#000000" opacity="0" x="0" y="0" width="23.9302269" height="24"></rect>
                            <path d="M14.4578454,3.49999999 L9.47238147,3.49999999 C8.92398043,3.49999999 8.4752887,3.94999999 8.4752887,4.49999999 L8.4752887,19.5 C8.4752887,20.05 8.92398045,20.5 9.47238147,20.5 L14.4578454,20.5 C15.0062465,20.5 15.4549382,20.05 15.4549382,19.5 L15.4549382,4.49999999 C15.4549382,3.94999999 15.0062464,3.49999999 14.4578454,3.49999999 Z M6.13212064,5.14999999 C6.03241135,5.04999998 5.88284744,4.99999999 5.73328352,4.99999999 L1.8944763,5.4 C1.39592992,5.44999999 0.997092795,5.89999999 0.997092795,6.40000001 L0.997092795,19.1 C0.997092795,19.6 1.39592992,20.05 1.8944763,20.1 L5.73328352,20.5 C5.88284744,20.5 6.03241135,20.45 6.13212064,20.35 L6.8300856,19.65 C6.92979489,19.55 6.97964952,19.45 6.97964952,19.3 L6.97964952,6.19999999 C6.97964952,6.04999999 6.92979489,5.94999998 6.8300856,5.85 L6.13212064,5.14999999 Z M22.0357506,5.4 L18.1969434,4.99999999 C18.0473795,4.99999999 17.8978155,5.04999998 17.7981062,5.14999999 L17.1001413,5.85 C17.000432,5.95000001 16.9505774,6.04999999 16.9505774,6.19999999 L16.9505774,19.3 C16.9505774,19.45 17.000432,19.55 17.1001413,19.65 L17.7981062,20.35 C17.8978155,20.45 18.0473795,20.5 18.1969434,20.5 L22.0357506,20.1 C22.534297,20.05 22.9331341,19.6 22.9331341,19.1 L22.9331341,6.40000001 C22.9331341,5.90000002 22.534297,5.45000002 22.0357506,5.4 Z" id="形状" fill="url(#linearGradient-2)"></path>
                            <path d="M11.9651134,16.5 C12.5135145,16.5 12.9622062,16.95 12.9622062,17.5 C12.9622062,18.05 12.5135145,18.5 11.9651134,18.5 C11.4167124,18.5 10.9680206,18.05 10.9680206,17.5 C10.9680206,16.95 11.4167124,16.5 11.9651134,16.5 Z M4.13793507,12 C4.23764436,12 4.33735362,12 4.38720826,12.05 C4.48691754,12.1 4.53677217,12.15 4.58662683,12.2 C4.63648146,12.25 4.68633611,12.35 4.73619075,12.45 C4.78604538,12.55 4.78604538,12.65 4.78604538,12.75 C4.78604538,12.9 4.78604538,13 4.73619075,13.1 C4.68633611,13.2 4.63648146,13.25 4.58662683,13.35 C4.5367722,13.4 4.43706291,13.45 4.38720826,13.5 L2.84171444,13.5 C2.74200516,13.5 2.69215052,13.45 2.59244124,13.45 C2.49273195,13.4 2.44287732,13.35 2.39302269,13.3 C2.34316806,13.25 2.2933134,13.15 2.24345877,13.05 C2.2060678,12.975 2.19672005,12.9 2.19438312,12.825 L2.19360414,12.75 C2.19360414,12.65 2.19360414,12.55 2.24345877,12.45 C2.2933134,12.35 2.34316806,12.3 2.39302269,12.2 C2.44287732,12.15 2.54258661,12.1 2.59244124,12.05 C2.69215052,12 2.74200516,12 2.84171444,12 L4.13793507,12 Z M21.0885124,12 C21.1882217,12 21.2380764,12 21.3377857,12.05 C21.4374949,12.1 21.4873496,12.15 21.5372042,12.2 C21.5870588,12.25 21.6369135,12.35 21.6867681,12.45 C21.7366227,12.55 21.7366227,12.65 21.7366227,12.75 C21.7366227,12.8 21.6867681,12.9 21.6867681,13 C21.6369135,13.1 21.5870588,13.15 21.5372042,13.25 C21.4873496,13.3 21.3876403,13.4 21.3377857,13.4 C21.2380764,13.45 21.1882217,13.45 21.0885124,13.45 L19.7922918,13.5 C19.6925825,13.5 19.5928733,13.5 19.5430186,13.45 C19.4433093,13.4 19.3934547,13.35 19.3436001,13.3 C19.2937454,13.25 19.2438908,13.15 19.1940361,13.05 C19.1441815,12.95 19.1441815,12.85 19.1441815,12.75 C19.1441815,12.65 19.1441815,12.55 19.1940361,12.45 C19.2438908,12.35 19.2937454,12.3 19.3436001,12.2 C19.3934547,12.15 19.493164,12.05 19.5430186,12.05 C19.6427279,12 19.6925826,12 19.7922918,12 L21.0885124,12 Z M13.2114794,10.5 C13.6103165,10.5 13.959299,10.85 13.959299,11.25 C13.959299,11.65 13.6103165,12 13.2114794,12 L10.7187475,12 C10.3199103,12 9.97092788,11.65 9.97092788,11.25 C9.97092788,10.85 10.3199103,10.5 10.7187475,10.5 L13.2114794,10.5 Z M4.13793507,9.49999999 C4.23764436,9.49999999 4.33735362,9.49999999 4.38720826,9.55000001 C4.48691754,9.6 4.53677217,9.65000002 4.58662683,9.70000001 C4.63648146,9.75 4.68633611,9.85000001 4.73619075,9.94999999 C4.78604538,10.05 4.78604538,10.15 4.78604538,10.25 C4.78604538,10.35 4.78604538,10.45 4.73619075,10.55 C4.68633611,10.65 4.63648146,10.7 4.58662683,10.8 C4.5367722,10.85 4.43706291,10.9 4.38720826,10.95 C4.34981728,10.9875 4.28438306,10.996875 4.21193805,10.9992187 L2.84171444,11 C2.74200516,11 2.69215052,11 2.59244124,10.95 C2.49273195,10.9 2.44287732,10.85 2.39302269,10.8 C2.34316806,10.75 2.2933134,10.65 2.24345877,10.55 C2.2060678,10.475 2.19672005,10.4 2.19438312,10.325 L2.19360414,10.25 C2.19360414,10.15 2.19360414,10.05 2.24345877,9.94999999 C2.2933134,9.84999998 2.34316806,9.79999999 2.39302269,9.70000001 C2.44287732,9.65000002 2.54258661,9.6 2.59244124,9.55000001 C2.69215052,9.55000001 2.74200516,9.49999999 2.84171444,9.49999999 L4.13793507,9.49999999 Z M21.0885124,9.49999999 C21.1882217,9.49999999 21.2380764,9.49999999 21.3377857,9.55000001 C21.4374949,9.60000002 21.4873496,9.65000002 21.5372042,9.70000001 C21.5870588,9.75 21.6369135,9.85000001 21.6867681,9.94999999 C21.7366227,10.05 21.7366227,10.15 21.7366227,10.25 C21.7366227,10.35 21.6867681,10.45 21.6867681,10.55 C21.6369135,10.65 21.5870588,10.7 21.5372042,10.8 C21.4873496,10.85 21.3876403,10.9 21.3377857,10.95 C21.2630037,10.9875 21.216265,10.996875 21.1555046,10.9992187 L19.7922918,11 C19.6925825,11 19.5928733,11 19.5430186,10.95 C19.4433093,10.9 19.3934547,10.85 19.3436001,10.8 C19.2937454,10.75 19.2438908,10.65 19.1940361,10.55 C19.1441815,10.45 19.1441815,10.35 19.1441815,10.25 C19.1441815,10.15 19.1441815,10.05 19.1940361,9.94999999 C19.2438908,9.84999998 19.2937454,9.79999999 19.3436001,9.70000001 C19.3934547,9.65000002 19.493164,9.6 19.5430186,9.55000001 C19.6427279,9.49999999 19.6925826,9.49999999 19.7922918,9.49999999 L21.0885124,9.49999999 Z M13.2114794,7.99999999 C13.6103165,7.99999999 13.959299,8.34999998 13.959299,8.74999999 C13.959299,9.15 13.6103165,9.49999999 13.2114794,9.49999999 L10.7187475,9.49999999 C10.3199103,9.49999999 9.97092788,9.15 9.97092788,8.74999999 C9.97092788,8.34999998 10.3199103,7.99999999 10.7187475,7.99999999 L13.2114794,7.99999999 Z M4.38720826,7.05 C4.48691754,7.09999999 4.53677217,7.15000001 4.58662683,7.2 C4.63648146,7.24999999 4.68633611,7.35 4.73619075,7.45000001 C4.78604538,7.55000002 4.78604538,7.65 4.78604538,7.75000001 C4.78604538,7.8 4.78604538,7.90000001 4.73619075,8.00000001 C4.68633611,8.1 4.63648146,8.14999999 4.58662683,8.25 C4.5367722,8.29999999 4.43706291,8.4 4.38720826,8.4 C4.33735362,8.44999999 4.23764434,8.50000001 4.13793507,8.50000001 L2.84171444,8.50000001 C2.74200516,8.50000001 2.69215052,8.50000001 2.59244124,8.44999999 C2.49273195,8.39999998 2.44287732,8.34999998 2.39302269,8.29999999 C2.34316806,8.25 2.2933134,8.14999999 2.24345877,8.05000001 C2.2060678,7.975 2.19672005,7.90000001 2.19438312,7.82500001 L2.19360414,7.75000001 C2.19360414,7.65 2.19360414,7.55000002 2.24345877,7.45000001 C2.2933134,7.35 2.34316806,7.30000001 2.39302269,7.2 C2.44287732,7.15000001 2.54258661,7.09999999 2.59244124,7.05 C2.6672232,7.01250001 2.71396192,7.00312501 2.77472227,7.00078126 L4.13793507,7.00000001 C4.23764436,7.00000001 4.33735362,7.00000001 4.38720826,7.05 Z M19.7922918,7.00000001 L21.0885124,7.05 C21.1882217,7.05 21.2380764,7.09999999 21.3377857,7.09999999 C21.4374949,7.14999998 21.4873496,7.2 21.5372042,7.24999999 C21.5870588,7.29999998 21.6369135,7.39999999 21.6867681,7.50000001 C21.7366227,7.60000001 21.7366227,7.69999999 21.7366227,7.8 C21.7366227,7.90000001 21.6867681,8.00000001 21.6867681,8.05000001 C21.6369135,8.15000002 21.5870588,8.20000001 21.5372042,8.29999999 C21.4873496,8.34999998 21.3876403,8.4 21.3377857,8.44999999 C21.2380764,8.50000001 21.1882217,8.50000001 21.0885124,8.50000001 L19.7922918,8.50000001 C19.6925825,8.50000001 19.5928733,8.50000001 19.5430186,8.44999999 C19.4433093,8.4 19.3934547,8.34999998 19.3436001,8.29999999 C19.2937454,8.25 19.2438908,8.14999999 19.1940361,8.05000001 C19.1441815,7.95 19.1441815,7.85000002 19.1441815,7.75000001 C19.1441815,7.65 19.1441815,7.55000002 19.1940361,7.45000001 C19.2438908,7.35 19.2937454,7.30000001 19.3436001,7.2 C19.3934547,7.15000001 19.493164,7.09999999 19.5430186,7.05 C19.6427279,7.00000001 19.6925826,7.00000001 19.7922918,7.00000001 Z M13.2114794,5.50000001 C13.6103165,5.50000001 13.959299,5.85 13.959299,6.25000001 C13.959299,6.65000002 13.6103165,7.00000001 13.2114794,7.00000001 L10.7187475,7.00000001 C10.3199103,7.00000001 9.97092788,6.65000002 9.97092788,6.25000001 C9.97092788,5.85 10.3199103,5.50000001 10.7187475,5.50000001 L13.2114794,5.50000001 Z" id="形状结合" fill="#FFFFFF"></path>
                        </g>
                    </g>
                </g>
            </g>
        </g>
    </g>
</svg>