<svg width="32px" height="32px" viewBox="0 0 32 32" version="1.1" xmlns="http://www.w3.org/2000/svg"
  xmlns:xlink="http://www.w3.org/1999/xlink">
  <defs>
    <linearGradient x1="50%" y1="0%" x2="50%" y2="100%" id="linearGradient-9xd410_kwv-1">
      <stop stop-color="#1CDCE4" offset="0%"></stop>
      <stop stop-color="#0C83FF" offset="100%"></stop>
    </linearGradient>
  </defs>
  <g id="页面-1" stroke="none" stroke-width="1" fill="none" fill-rule="evenodd">
    <g id="资源可视化5.0" transform="translate(-1678.000000, -909.000000)" fill-rule="nonzero">
      <g id="编组-8"
        transform="translate(1528.326781, 904.250000) scale(-1, 1) translate(-1528.326781, -904.250000) translate(1313.000000, 773.500000)">
        <g id="编组-22备份-4" transform="translate(0.000000, 131.000000)">
          <g id="进度条-计算收益" transform="translate(33.653562, 4.500000)">
            <rect id="矩形" fill="#000000" opacity="0" x="0" y="0" width="32" height="32"></rect>
            <path
              d="M11.3536,13.0133333 C10.5287111,13.0133333 9.86026666,13.6817778 9.86026666,14.5066667 C9.86026666,15.3315556 10.5287111,16 11.3536,16 C12.1784889,16 12.8469333,15.3315556 12.8469333,14.5066667 C12.8469333,13.6817778 12.1784889,13.0133333 11.3536,13.0133333 M15.9997867,20.9783467 C15.1748978,20.9783467 14.5064533,21.6467911 14.5064533,22.47168 C14.5064533,23.2965689 15.1748978,23.9650133 15.9997867,23.9650133 C16.8246756,23.9650133 17.49312,23.2965689 17.49312,22.47168 C17.49312,21.6467911 16.8246756,20.9783467 15.9997867,20.9783467 M15.9997867,16.9957689 C15.1748978,16.9957689 14.5064533,17.6642133 14.5064533,18.4891022 C14.5064533,19.3139911 15.1748978,19.9824356 15.9997867,19.9824356 C16.8246756,19.9824356 17.49312,19.3139911 17.49312,18.4891022 C17.49312,17.6642133 16.8246756,16.9957689 15.9997867,16.9957689 M11.3536,16.9957689 C10.5287111,16.9957689 9.86026666,17.6642133 9.86026666,18.4891022 C9.86026666,19.3139911 10.5287111,19.9824356 11.3536,19.9824356 C12.1784889,19.9824356 12.8469333,19.3139911 12.8469333,18.4891022 C12.8469333,17.6642133 12.1784889,16.9957689 11.3536,16.9957689 M11.3536,20.9783467 C10.5287111,20.9783467 9.86026666,21.6467911 9.86026666,22.47168 C9.86026666,23.2965689 10.5287111,23.9650133 11.3536,23.9650133 C12.1784889,23.9650133 12.8469333,23.2965689 12.8469333,22.47168 C12.8469333,21.6467911 12.1784889,20.9783467 11.3536,20.9783467 M11.5194311,11.0884978 L20.4801422,11.0884978 C21.2132978,11.0884978 21.8077867,10.4940089 21.8077867,9.76085334 L21.8077867,8.96440888 C21.8077867,8.23125334 21.2132978,7.63676444 20.4801422,7.63676444 L11.5194311,7.63676444 C10.7862756,7.63676444 10.1917867,8.23125334 10.1917867,8.96440888 L10.1917867,9.76085334 C10.1917867,10.4940089 10.7862756,11.0884978 11.5194311,11.0884978 M23.8641778,23.9744 C23.8641778,25.0737778 22.9724444,25.9655111 21.8730667,25.9655111 L10.1269333,25.9655111 C9.02684444,25.9655111 8.13511112,25.0737778 8.13511112,23.9744 L8.13511112,8.02631112 C8.13511112,6.92622222 9.02684444,6.03448887 10.1269333,6.03448887 L21.8730667,6.03448887 C22.9724444,6.03448887 23.8641778,6.92622222 23.8641778,8.02631112 L23.8641778,23.9744 Z M16,0 C7.16302222,0 0,7.16373334 0,16 C0,24.8369778 7.16302222,32 16,32 C24.8362667,32 32,24.8369778 32,16 C32,7.16373334 24.8362667,0 16,0 L16,0 Z M20.6459733,13.0133333 C19.8210844,13.0133333 19.15264,13.6817778 19.15264,14.5066667 C19.15264,15.3315556 19.8210844,16 20.6459733,16 C21.4708622,16 22.1393067,15.3315556 22.1393067,14.5066667 C22.1393067,13.6817778 21.4708622,13.0133333 20.6459733,13.0133333 M15.9997867,13.0133333 C15.1748978,13.0133333 14.5064533,13.6817778 14.5064533,14.5066667 C14.5064533,15.3315556 15.1748978,16 15.9997867,16 C16.8246756,16 17.49312,15.3315556 17.49312,14.5066667 C17.49312,13.6817778 16.8246756,13.0133333 15.9997867,13.0133333 M20.6459733,20.9783467 C19.8210844,20.9783467 19.15264,21.6467911 19.15264,22.47168 C19.15264,23.2965689 19.8210844,23.9650133 20.6459733,23.9650133 C21.4708622,23.9650133 22.1393067,23.2965689 22.1393067,22.47168 C22.1393067,21.6467911 21.4708622,20.9783467 20.6459733,20.9783467 M20.6459733,16.9957689 C19.8210844,16.9957689 19.15264,17.6642133 19.15264,18.4891022 C19.15264,19.3139911 19.8210844,19.9824356 20.6459733,19.9824356 C21.4708622,19.9824356 22.1393067,19.3139911 22.1393067,18.4891022 C22.1393067,17.6642133 21.4708622,16.9957689 20.6459733,16.9957689"
              id="形状" fill="url(#linearGradient-9xd410_kwv-1)"></path>
          </g>
        </g>
      </g>
    </g>
  </g>
</svg>