
<svg width="37px" height="36px" viewBox="0 0 37 36" version="1.1" xmlns="http://www.w3.org/2000/svg" xmlns:xlink="http://www.w3.org/1999/xlink">
    <defs>
        <linearGradient x1="50%" y1="0%" x2="50%" y2="100%" id="linearGradient-i_wj5mk8v5-1">
            <stop stop-color="#1CDCE4" offset="0%"></stop>
            <stop stop-color="#0C83FF" offset="100%"></stop>
        </linearGradient>
    </defs>
    <g id="页面-1" stroke="none" stroke-width="1" fill="none" fill-rule="evenodd">
        <g id="资源可视化5.0" transform="translate(-1545.000000, -906.000000)" fill-rule="nonzero">
            <g id="编组-8" transform="translate(1528.326781, 904.250000) scale(-1, 1) translate(-1528.326781, -904.250000) translate(1313.000000, 773.500000)">
                <g id="编组-22备份-5" transform="translate(129.517241, 131.000000)">
                    <g id="经营数据" transform="translate(50.482759, 19.500000) scale(-1, 1) translate(-50.482759, -19.500000) translate(32.482759, 1.500000)">
                        <rect id="矩形" fill="#000000" opacity="0" x="0" y="0" width="36" height="36"></rect>
                        <path d="M19.2023438,2.07421875 L19.2023438,4.21875 L30.7476563,10.884375 L30.7476563,24.215625 L30.2941406,24.4757812 L30.2941406,24.35625 L29.75625,24.8203125 L29.75625,11.4257812 L16.1894531,3.71601562 L3.4875,11.0496094 L3.4875,26.5253906 L16.8890625,34.2632812 L19.1988281,32.9308594 L19.1988281,33.0257813 L32.6003906,25.2878906 L32.6003906,9.81210937 L19.2023438,2.07421875 Z M21.6773438,18.7875 L21.6773438,21.2625 L17.9648438,21.2625 L17.9648438,26.8347656 L15.4898438,26.8347656 L15.4898438,21.2625 L11.7738281,21.2625 L11.7738281,18.7875 L15.4898438,18.7875 L15.4898438,17.5113281 L11.2710938,13.9957031 L12.8566406,12.09375 L16.6640625,15.2683594 L20.6332031,12.09375 L22.1800781,14.0273438 L17.9648438,17.4023438 L17.9648438,18.7875 L21.6773438,18.7875 Z" id="形状" fill="url(#linearGradient-i_wj5mk8v5-1)"></path>
                    </g>
                </g>
            </g>
        </g>
    </g>
</svg>