
<svg width="31px" height="29px" viewBox="0 0 31 29" version="1.1" xmlns="http://www.w3.org/2000/svg" xmlns:xlink="http://www.w3.org/1999/xlink">
    <defs>
        <linearGradient x1="50%" y1="0%" x2="50%" y2="100%" id="linearGradient-7flowrzegi-1">
            <stop stop-color="#1CDCE4" offset="0%"></stop>
            <stop stop-color="#0C83FF" offset="100%"></stop>
        </linearGradient>
    </defs>
    <g id="页面-1" stroke="none" stroke-width="1" fill="none" fill-rule="evenodd">
        <g id="资源可视化5.0" transform="translate(-1347.000000, -782.000000)" fill="url(#linearGradient-7flowrzegi-1)" fill-rule="nonzero">
            <g id="编组-8" transform="translate(1528.326781, 904.250000) scale(-1, 1) translate(-1528.326781, -904.250000) translate(1313.000000, 773.500000)">
                <g id="编组-22备份" transform="translate(331.102643, 0.000000)">
                    <g id="通讯线缆" transform="translate(31.550919, 5.500000)">
                        <path d="M31.1827632,17.5 L31.1827632,10.25 C31.1827632,6.26303492 28.0120724,3 24.1379387,3 C20.2638051,3 17.0931142,6.26303492 17.0931142,10.25 L17.0931142,24.7535662 C17.0931142,27.1535908 15.1976302,29.1042794 12.8655265,29.1042794 C10.5334228,29.1042794 8.63793874,27.1535908 8.63793874,24.7535662 L8.63793874,17.5 L11.4551755,17.5 L11.4551755,5.89928677 L3,5.89928677 L3,17.5 L5.81723675,17.5 L5.81723675,24.75 C5.81723675,28.7369651 8.98792757,32 12.8620613,32 C16.7361949,32 19.9068858,28.7369651 19.9068858,24.75 L19.9068858,10.25 C19.9068858,7.84997541 21.8023698,5.89928677 24.1344735,5.89928677 C26.4665772,5.89928677 28.3620613,7.84997541 28.3620613,10.25 L28.3620613,17.5 L25.5448245,17.5 L25.5448245,29.1007132 L34,29.1007132 L34,17.5 L31.1827632,17.5 Z" id="形状"></path>
                    </g>
                </g>
            </g>
        </g>
    </g>
</svg>