<svg width="34px" height="34px" viewBox="0 0 34 34" version="1.1" xmlns="http://www.w3.org/2000/svg"
  xmlns:xlink="http://www.w3.org/1999/xlink">
  <defs>
    <linearGradient x1="50%" y1="0%" x2="50%" y2="100%" id="linearGradient-ygi5j44eth-1">
      <stop stop-color="#1CDCE4" offset="0%"></stop>
      <stop stop-color="#0C83FF" offset="100%"></stop>
    </linearGradient>
  </defs>
  <g id="页面-1" stroke="none" stroke-width="1" fill="none" fill-rule="evenodd">
    <g id="资源可视化5.0" transform="translate(-1475.000000, -779.000000)" fill="url(#linearGradient-ygi5j44eth-1)"
      fill-rule="nonzero">
      <g id="编组-8"
        transform="translate(1528.326781, 904.250000) scale(-1, 1) translate(-1528.326781, -904.250000) translate(1313.000000, 773.500000)">
        <g id="编组-22备份-2" transform="translate(201.551724, 0.000000)">
          <g id="B_基站查询_正" transform="translate(32.000000, 4.500000)">
            <path
              d="M3.22006954,24.6075528 L3.34125,24.665625 L18,32.473125 L32.65875,24.665625 C32.921998,24.5243735 33.2306386,24.4935525 33.5166049,24.5800811 C33.8025711,24.6666096 34.042373,24.8633361 34.183125,25.126875 C34.3239917,25.3908084 34.3539287,25.6999808 34.2663172,25.9860376 C34.1912216,26.2312292 34.0350659,26.4421267 33.8254092,26.5854019 L33.71625,26.65125 L18.52875,34.74 C18.2395353,34.8940003 17.8998608,34.9132504 17.5980311,34.7977501 L17.47125,34.74 L2.28375,26.65125 C1.92172097,26.4663353 1.68761222,26.1004936 1.67137887,25.6942979 C1.65514552,25.2881022 1.85931303,24.9047451 2.20543105,24.6915297 C2.5130915,24.5020049 2.89036517,24.4731218 3.22006954,24.6075528 Z M28.845,17.04375 L31.168125,20.773125 C31.4856695,21.2750255 31.5794503,21.8866394 31.426875,22.460625 C31.2753203,22.9974912 30.930482,23.4566877 30.4623787,23.7520916 L30.301875,23.844375 L18.7875,30.031875 C18.3359311,30.2767297 17.8005107,30.3012151 17.3321715,30.1053314 L17.17875,30.031875 L5.625,23.844375 C5.10042421,23.5606267 4.71440013,23.075049 4.55625,22.5 C4.41516165,21.9913236 4.47048294,21.4507283 4.70671363,20.9838974 L4.80375,20.8125 L7.025625,17.22375 L17.49375,22.51125 C17.6509637,22.5896083 17.8243421,22.6300633 18,22.629375 C18.1379389,22.6283452 18.2742682,22.6031684 18.402904,22.555333 L18.52875,22.5 L28.845,17.04375 Z M25.3575,11.43 L27.6525,15.12 L18,20.25 L8.22375,15.316875 L10.63125,11.446875 L17.488125,14.92875 C17.6465563,15.0099169 17.8219873,15.0523289 18,15.0525 C18.1333224,15.0508454 18.2650752,15.0266374 18.3897557,14.9812063 L18.511875,14.92875 L25.3575,11.43 Z M18,1.11957079 C18.5310065,1.11957079 19.027685,1.36920975 19.3447795,1.78761974 L19.434375,1.918125 L24.1875,9.511875 L18,12.661875 L11.8125,9.52875 L16.565625,1.918125 C16.8733225,1.42163393 17.4158929,1.11957079 18,1.11957079 Z"
              id="形状结合"></path>
          </g>
        </g>
      </g>
    </g>
  </g>
</svg>