
<svg width="25px" height="22px" viewBox="0 0 25 22" version="1.1" xmlns="http://www.w3.org/2000/svg" xmlns:xlink="http://www.w3.org/1999/xlink">
    <defs>
        <linearGradient x1="50%" y1="0%" x2="50%" y2="100%" id="linearGradient-sxy3e-ets_-1">
            <stop stop-color="#1CDCE4" offset="0%"></stop>
            <stop stop-color="#0C83FF" offset="100%"></stop>
        </linearGradient>
    </defs>
    <g id="页面-1" stroke="none" stroke-width="1" fill="none" fill-rule="evenodd">
        <g id="资源可视化5.0" transform="translate(-1610.000000, -784.000000)" fill="url(#linearGradient-sxy3e-ets_-1)" fill-rule="nonzero">
            <g id="编组-8" transform="translate(1528.326781, 904.250000) scale(-1, 1) translate(-1528.326781, -904.250000) translate(1313.000000, 773.500000)">
                <g id="编组-22备份-3" transform="translate(72.034483, 0.000000)">
                    <g id="端口管理" transform="translate(32.000000, 3.500000)">
                        <path d="M23.2353273,7 C23.6042154,7.00444086 23.906437,7.3019782 23.9108815,7.67501009 L23.9108815,9.44247073 L25.7864332,9.44247073 C26.1597657,9.44247073 26.4619873,9.74444893 26.4619873,10.1174808 L26.4619873,12.2446508 L28.8753157,12.2446508 C29.2397594,12.2490916 29.5375366,12.5377473 29.550919,12.9063383 L29.550919,28.3249899 C29.5553143,28.6935809 29.2575372,28.9955591 28.8930935,29 L6.2264732,29 C5.85314063,29 5.55091903,28.6980218 5.55091903,28.3249899 L5.55091903,12.9063383 C5.56425233,12.5421881 5.8620295,12.2490916 6.2264732,12.2446508 L8.63980159,12.2446508 L8.63980159,10.1174808 C8.63980159,9.74444893 8.9420232,9.44247073 9.31535577,9.44247073 L11.1909075,9.44247073 L11.1909075,7.67501009 C11.1909075,7.3019782 11.4931291,7 11.8664617,7 L23.2353273,7 Z M12.6488329,15 C12.045199,15 11.550919,15.4950219 11.550919,16.0995619 L11.550919,16.0995619 L11.550919,24.9004381 L11.5573954,25.0197716 C11.617309,25.5687809 12.0854412,26 12.6488329,26 C13.2524668,26 13.7467468,25.5049781 13.7467468,24.9004381 L13.7467468,24.9004381 L13.7467468,16.0995619 L13.7402704,15.9802284 C13.6803567,15.4312191 13.2122245,15 12.6488329,15 Z M23.4530052,15 C22.8493712,15 22.3550913,15.4950219 22.3550913,16.0995619 L22.3550913,16.0995619 L22.3550913,24.9004381 L22.3615676,25.0197716 C22.4214813,25.5687809 22.8896135,26 23.4530052,26 C24.0566391,26 24.550919,25.5049781 24.550919,24.9004381 L24.550919,24.9004381 L24.550919,16.0995619 L24.5444427,15.9802284 C24.484529,15.4312191 24.0163968,15 23.4530052,15 Z M18.050919,15 C17.4472851,15 16.9530052,15.4950219 16.9530052,16.0995619 L16.9530052,16.0995619 L16.9530052,24.9004381 L16.9594815,25.0197716 C17.0193952,25.5687809 17.4875274,26 18.050919,26 C18.6545529,26 19.1488329,25.5049781 19.1488329,24.9004381 L19.1488329,24.9004381 L19.1488329,16.0995619 L19.1423565,15.9802284 C19.0824429,15.4312191 18.6143107,15 18.050919,15 Z" id="形状结合"></path>
                    </g>
                </g>
            </g>
        </g>
    </g>
</svg>